<svg width="91" height="53" viewBox="0 0 91 53" fill="none" xmlns="http://www.w3.org/2000/svg">
<path d="M2.65527 11.873H88.8664C89.301 11.873 89.5287 11.3568 89.2357 11.0359L80.0727 1" stroke="#48CEF3" stroke-width="1.5" stroke-linecap="round"/>
<path d="M87.7943 40.8668H1.58309C1.14851 40.8668 0.920822 41.383 1.21384 41.7039L10.3769 51.7398" stroke="#48CEF3" stroke-width="1.5" stroke-linecap="round"/>
<path d="M21.9743 25.3815C22.6636 25.6162 23.1989 25.9975 23.5803 26.5255C23.9616 27.0535 24.1523 27.7135 24.1523 28.5055C24.1523 30.0602 23.5509 31.2555 22.3483 32.0915C21.1603 32.9129 19.5323 33.3235 17.4643 33.3235H10.0503L13.1303 17.9235H19.9503C21.5049 17.9235 22.7003 18.2169 23.5363 18.8035C24.3869 19.3755 24.8123 20.2115 24.8123 21.3115C24.8123 22.3089 24.5483 23.1595 24.0203 23.8635C23.5069 24.5529 22.8249 25.0589 21.9743 25.3815ZM14.9563 19.7055L13.9663 24.6335H18.4763C19.7229 24.6335 20.7056 24.3842 21.4243 23.8855C22.1576 23.3722 22.5243 22.6315 22.5243 21.6635C22.5243 21.0035 22.2603 20.5122 21.7323 20.1895C21.2189 19.8669 20.4709 19.7055 19.4883 19.7055H14.9563ZM17.6183 31.5415C19.0116 31.5415 20.0823 31.2849 20.8303 30.7715C21.5929 30.2435 21.9743 29.4955 21.9743 28.5275C21.9743 27.7649 21.7029 27.2222 21.1603 26.8995C20.6323 26.5769 19.8329 26.4155 18.7623 26.4155H13.6143L12.6023 31.5415H17.6183ZM39.7026 21.6635L37.3926 33.3235H35.3686L35.6546 31.8935C35.1266 32.3922 34.5106 32.7809 33.8066 33.0595C33.1173 33.3235 32.362 33.4555 31.5406 33.4555C30.5433 33.4555 29.656 33.2575 28.8786 32.8615C28.1013 32.4509 27.4926 31.8642 27.0526 31.1015C26.6126 30.3389 26.3926 29.4442 26.3926 28.4175C26.3926 27.0975 26.6786 25.9169 27.2506 24.8755C27.8226 23.8342 28.6073 23.0202 29.6046 22.4335C30.6166 21.8469 31.746 21.5535 32.9926 21.5535C33.99 21.5535 34.8406 21.7295 35.5446 22.0815C36.2633 22.4335 36.8133 22.9542 37.1946 23.6435L37.5906 21.6635H39.7026ZM32.0026 31.6075C32.868 31.6075 33.6453 31.4022 34.3346 30.9915C35.0386 30.5662 35.5813 29.9795 35.9626 29.2315C36.3586 28.4835 36.5566 27.6329 36.5566 26.6795C36.5566 25.6382 36.256 24.8315 35.6546 24.2595C35.0533 23.6875 34.1953 23.4015 33.0806 23.4015C32.2153 23.4015 31.438 23.6142 30.7486 24.0395C30.0593 24.4502 29.5166 25.0295 29.1206 25.7775C28.7246 26.5255 28.5266 27.3762 28.5266 28.3295C28.5266 29.3562 28.8273 30.1629 29.4286 30.7495C30.0446 31.3215 30.9026 31.6075 32.0026 31.6075ZM45.4147 23.4015C45.9281 22.7562 46.5587 22.2869 47.3067 21.9935C48.0547 21.7002 48.9641 21.5535 50.0347 21.5535L49.6387 23.5995C49.5067 23.5849 49.3234 23.5775 49.0887 23.5775C46.6687 23.5775 45.2021 24.8829 44.6887 27.4935L43.5227 33.3235H41.4107L43.7207 21.6635H45.7447L45.4147 23.4015ZM53.8804 29.6055C53.8364 29.8255 53.8144 30.0309 53.8144 30.2215C53.8144 30.6909 53.9391 31.0502 54.1884 31.2995C54.4524 31.5489 54.8411 31.6735 55.3544 31.6735C55.9704 31.6735 56.5278 31.4902 57.0264 31.1235L57.4664 32.7295C56.7624 33.2135 55.8604 33.4555 54.7604 33.4555C53.8364 33.4555 53.0884 33.1989 52.5164 32.6855C51.9591 32.1575 51.6804 31.4389 51.6804 30.5295C51.6804 30.2215 51.7098 29.9282 51.7684 29.6495L53.0224 23.4015H51.0424L51.3724 21.6635H53.3744L53.8804 19.1115H55.9924L55.4864 21.6635H58.8304L58.4784 23.4015H55.1344L53.8804 29.6055ZM61.5251 28.1535V28.2855C61.5251 29.3709 61.8331 30.1995 62.4491 30.7715C63.0651 31.3289 63.9891 31.6075 65.2211 31.6075C65.9398 31.6075 66.6144 31.4902 67.2451 31.2555C67.8758 31.0062 68.4038 30.6762 68.8291 30.2655L69.7311 31.7835C69.1591 32.3115 68.4624 32.7222 67.6411 33.0155C66.8198 33.3089 65.9544 33.4555 65.0451 33.4555C63.9011 33.4555 62.9111 33.2502 62.0751 32.8395C61.2391 32.4289 60.5938 31.8422 60.1391 31.0795C59.6844 30.3169 59.4571 29.4222 59.4571 28.3955C59.4571 27.0902 59.7358 25.9169 60.2931 24.8755C60.8651 23.8342 61.6498 23.0202 62.6471 22.4335C63.6591 21.8469 64.7884 21.5535 66.0351 21.5535C67.6191 21.5535 68.8804 22.0082 69.8191 22.9175C70.7724 23.8122 71.2491 25.0369 71.2491 26.5915C71.2491 27.0609 71.1978 27.5815 71.0951 28.1535H61.5251ZM65.9471 23.3135C64.9058 23.3135 64.0111 23.6069 63.2631 24.1935C62.5151 24.7802 62.0091 25.5869 61.7451 26.6135H69.2691C69.3278 25.5722 69.0491 24.7655 68.4331 24.1935C67.8318 23.6069 67.0031 23.3135 65.9471 23.3135ZM76.9323 23.4015C77.4456 22.7562 78.0763 22.2869 78.8243 21.9935C79.5723 21.7002 80.4816 21.5535 81.5523 21.5535L81.1563 23.5995C81.0243 23.5849 80.841 23.5775 80.6063 23.5775C78.1863 23.5775 76.7196 24.8829 76.2063 27.4935L75.0403 33.3235H72.9283L75.2383 21.6635H77.2623L76.9323 23.4015Z" fill="#8BC63E"/>
</svg>
