<svg width="394" height="264" viewBox="0 0 394 264" fill="none" xmlns="http://www.w3.org/2000/svg">
<path d="M393.47 231.799H0.765625V231.976H393.47V231.799Z" fill="#E0E0E0"/>
<path d="M341.005 242.9H305.771V243.077H341.005V242.9Z" fill="#E0E0E0"/>
<path d="M300.604 242.9H293.778V243.077H300.604V242.9Z" fill="#E0E0E0"/>
<path d="M235.854 240.458H220.648V240.635H235.854V240.458Z" fill="#E0E0E0"/>
<path d="M98.2499 240.365H64.3281V240.542H98.2499V240.365Z" fill="#E0E0E0"/>
<path d="M57.3388 240.365H52.3672V240.542H57.3388V240.365Z" fill="#E0E0E0"/>
<path d="M223.019 236.174H149.442V236.351H223.019V236.174Z" fill="#E0E0E0"/>
<path d="M186.908 200.222H35.2532C34.0651 200.221 32.9265 199.794 32.0871 199.036C31.2478 198.278 30.7764 197.251 30.7764 196.18V4.00728C30.7867 2.94247 31.2627 1.92433 32.1009 1.17402C32.9391 0.423708 34.0719 0.00182408 35.2532 0H186.908C188.097 0 189.238 0.425924 190.079 1.18407C190.92 1.94222 191.392 2.97049 191.392 4.04268V196.18C191.392 197.252 190.92 198.28 190.079 199.038C189.238 199.797 188.097 200.222 186.908 200.222V200.222ZM35.2532 0.141601C34.1172 0.143476 33.0285 0.551578 32.226 1.27633C31.4234 2.00108 30.9727 2.98326 30.9727 4.00728V196.18C30.9727 197.204 31.4234 198.186 32.226 198.911C33.0285 199.635 34.1172 200.044 35.2532 200.045H186.908C188.044 200.044 189.134 199.636 189.938 198.911C190.741 198.187 191.194 197.204 191.196 196.18V4.00728C191.194 2.98261 190.741 2.00045 189.938 1.2759C189.134 0.551348 188.044 0.143472 186.908 0.141601H35.2532Z" fill="#E0E0E0"/>
<path d="M356.798 200.222H205.136C203.947 200.221 202.808 199.794 201.967 199.036C201.127 198.279 200.653 197.251 200.651 196.18V4.00728C200.664 2.94182 201.141 1.92369 201.981 1.17358C202.82 0.423461 203.954 0.00180419 205.136 0H356.798C357.978 0.00368478 359.109 0.426392 359.946 1.1765C360.782 1.92661 361.257 2.94369 361.267 4.00728V196.18C361.267 197.249 360.797 198.276 359.959 199.033C359.122 199.791 357.985 200.219 356.798 200.222V200.222ZM205.136 0.141601C203.999 0.143472 202.91 0.551348 202.106 1.2759C201.302 2.00045 200.85 2.98261 200.848 4.00728V196.18C200.85 197.204 201.302 198.187 202.106 198.911C202.91 199.636 203.999 200.044 205.136 200.045H356.798C357.935 200.044 359.025 199.636 359.828 198.911C360.632 198.187 361.085 197.204 361.087 196.18V4.00728C361.085 2.98261 360.632 2.00045 359.828 1.2759C359.025 0.551348 357.935 0.143472 356.798 0.141601H205.136Z" fill="#E0E0E0"/>
<path d="M185.376 44.6807H91.4727V231.883H185.376V44.6807Z" fill="#E6E6E6"/>
<path d="M185.376 44.6807H95.9258V231.883H185.376V44.6807Z" fill="#F0F0F0"/>
<path d="M180.664 227.636V48.9297L100.639 48.9297L100.639 227.636H180.664Z" fill="#EBEBEB"/>
<path d="M180.664 227.644V48.9375H179.439V227.644H180.664Z" fill="#E6E6E6"/>
<path d="M169.974 134.166C172.191 134.166 173.988 132.547 173.988 130.549C173.988 128.55 172.191 126.931 169.974 126.931C167.758 126.931 165.961 128.55 165.961 130.549C165.961 132.547 167.758 134.166 169.974 134.166Z" fill="#E6E6E6"/>
<path d="M171.545 133.415C173.761 133.415 175.558 131.796 175.558 129.798C175.558 127.799 173.761 126.18 171.545 126.18C169.328 126.18 167.531 127.799 167.531 129.798C167.531 131.796 169.328 133.415 171.545 133.415Z" fill="#FAFAFA"/>
<path d="M333.197 21.6367H226.617V165.432H333.197V21.6367Z" fill="#E0E0E0"/>
<path d="M335.562 21.6367H228.982V165.432H335.562V21.6367Z" fill="#F0F0F0"/>
<path d="M331.312 161.127V25.9414L233.239 25.9414V161.127H331.312Z" fill="#FAFAFA"/>
<path d="M331.312 161.127V25.9414H329.522V161.127H331.312Z" fill="#E0E0E0"/>
<path d="M333.801 68.0879H230.74V73.8652H333.801V68.0879Z" fill="#F0F0F0"/>
<path d="M340.195 14.5146H221.983C221.81 14.5146 221.644 14.5766 221.522 14.6868C221.4 14.797 221.331 14.9464 221.331 15.1023V15.1023C221.331 15.2588 221.399 15.409 221.522 15.5203C221.644 15.6317 221.809 15.6951 221.983 15.697H340.195C340.369 15.6952 340.536 15.6319 340.659 15.5208C340.782 15.4096 340.852 15.2594 340.854 15.1023V15.1023C340.852 14.9458 340.782 14.7963 340.658 14.6863C340.535 14.5763 340.368 14.5146 340.195 14.5146V14.5146Z" fill="#E0E0E0"/>
<path d="M344.123 15.1015C344.124 15.6858 343.933 16.2573 343.574 16.7437C343.216 17.2301 342.705 17.6097 342.106 17.8342C341.508 18.0587 340.849 18.1182 340.213 18.0051C339.577 17.892 338.993 17.6114 338.534 17.1988C338.076 16.7861 337.763 16.2601 337.636 15.6872C337.509 15.1143 337.573 14.5203 337.821 13.9804C338.068 13.4405 338.488 12.979 339.027 12.6543C339.566 12.3296 340.199 12.1563 340.847 12.1563C341.715 12.1562 342.547 12.4663 343.161 13.0185C343.775 13.5706 344.121 14.3197 344.123 15.1015V15.1015Z" fill="#E0E0E0"/>
<path d="M227.497 18.4079C227.263 18.406 227.039 18.3209 226.874 18.1711C226.71 18.0212 226.617 17.8188 226.617 17.6079V15.9016C226.617 15.6906 226.71 15.4882 226.874 15.3384C227.039 15.1885 227.263 15.1034 227.497 15.1016V15.1016C227.732 15.1034 227.956 15.1883 228.122 15.3379C228.288 15.4876 228.382 15.69 228.384 15.9016V17.6079C228.382 17.8195 228.288 18.0219 228.122 18.1715C227.956 18.3212 227.732 18.406 227.497 18.4079Z" fill="#E0E0E0"/>
<path d="M330.331 18.4079C330.096 18.406 329.872 18.3212 329.706 18.1715C329.54 18.0219 329.445 17.8195 329.443 17.6079V15.9016C329.445 15.69 329.54 15.4876 329.706 15.3379C329.872 15.1883 330.096 15.1034 330.331 15.1016V15.1016C330.565 15.1034 330.789 15.1885 330.953 15.3384C331.118 15.4882 331.211 15.6906 331.211 15.9016V17.6079C331.211 17.8188 331.118 18.0212 330.953 18.1711C330.789 18.3209 330.565 18.406 330.331 18.4079V18.4079Z" fill="#E0E0E0"/>
<path opacity="0.4" d="M339.991 15.1016H230.74V56.3992H339.991V15.1016Z" fill="#E0E0E0"/>
<path d="M241.296 15.1015C241.298 15.6858 241.107 16.2573 240.748 16.7437C240.389 17.2301 239.878 17.6097 239.28 17.8342C238.682 18.0587 238.023 18.1182 237.387 18.0051C236.751 17.892 236.167 17.6114 235.708 17.1988C235.249 16.7861 234.937 16.2601 234.81 15.6872C234.683 15.1143 234.747 14.5203 234.995 13.9804C235.242 13.4405 235.662 12.979 236.201 12.6543C236.74 12.3296 237.373 12.1563 238.021 12.1563C238.889 12.1562 239.72 12.4663 240.334 13.0185C240.948 13.5706 241.294 14.3197 241.296 15.1015Z" fill="#E0E0E0"/>
<path d="M243.268 187.089H222.234V229.137H243.268V187.089Z" fill="#E6E6E6"/>
<path d="M330.027 229.138H226.282V231.8H330.027V229.138Z" fill="#E6E6E6"/>
<path d="M243.267 229.138H334.053V187.09H243.267V229.138Z" fill="#F0F0F0"/>
<path d="M251.54 206.057H325.784V192.265H251.54V206.057Z" fill="#E6E6E6"/>
<path d="M251.54 223.954H325.784V210.162H251.54V223.954Z" fill="#E6E6E6"/>
<path d="M298.13 198.212H279.21C278.698 198.212 278.283 198.586 278.283 199.047V199.267C278.283 199.728 278.698 200.102 279.21 200.102H298.13C298.642 200.102 299.057 199.728 299.057 199.267V199.047C299.057 198.586 298.642 198.212 298.13 198.212Z" fill="#F0F0F0"/>
<path d="M298.13 216.117H279.21C278.698 216.117 278.283 216.491 278.283 216.953V217.172C278.283 217.634 278.698 218.008 279.21 218.008H298.13C298.642 218.008 299.057 217.634 299.057 217.172V216.953C299.057 216.491 298.642 216.117 298.13 216.117Z" fill="#F0F0F0"/>
<path d="M269.469 180.887C272.028 180.887 274.103 179.016 274.103 176.709C274.103 174.402 272.028 172.532 269.469 172.532C266.91 172.532 264.835 174.402 264.835 176.709C264.835 179.016 266.91 180.887 269.469 180.887Z" fill="#F0F0F0"/>
<path d="M276.76 180.1C279.319 180.1 281.394 178.23 281.394 175.923C281.394 173.616 279.319 171.746 276.76 171.746C274.201 171.746 272.126 173.616 272.126 175.923C272.126 178.23 274.201 180.1 276.76 180.1Z" fill="#F0F0F0"/>
<path d="M303.815 177.857C303.815 178.683 303.543 179.491 303.034 180.178C302.525 180.865 301.801 181.4 300.954 181.716C300.107 182.032 299.176 182.115 298.277 181.954C297.378 181.793 296.552 181.395 295.904 180.811C295.256 180.226 294.815 179.482 294.636 178.672C294.457 177.862 294.549 177.022 294.9 176.258C295.25 175.495 295.844 174.843 296.606 174.384C297.368 173.925 298.264 173.68 299.181 173.68C300.41 173.68 301.588 174.12 302.457 174.903C303.326 175.687 303.815 176.749 303.815 177.857V177.857Z" fill="#F0F0F0"/>
<path d="M291.853 179.783C291.854 180.611 291.583 181.421 291.074 182.11C290.564 182.799 289.84 183.337 288.991 183.654C288.143 183.972 287.209 184.055 286.307 183.894C285.406 183.733 284.579 183.334 283.929 182.748C283.279 182.163 282.837 181.417 282.658 180.604C282.479 179.792 282.572 178.95 282.924 178.185C283.276 177.42 283.873 176.767 284.637 176.308C285.402 175.848 286.3 175.604 287.219 175.605C288.448 175.605 289.627 176.046 290.496 176.829C291.365 177.612 291.853 178.675 291.853 179.783V179.783Z" fill="#F0F0F0"/>
<path d="M256.023 177.475C256.023 177.475 256.809 187.089 285.555 187.089C314.301 187.089 315.086 177.475 315.086 177.475H256.023Z" fill="#E6E6E6"/>
<path d="M49.3043 172.277H34.9863V228.252H49.3043V172.277Z" fill="#E6E6E6"/>
<path d="M108.343 228.253H37.7344V231.8H108.343V228.253Z" fill="#E6E6E6"/>
<path d="M49.2959 228.253H111.084L111.084 172.278H49.2959L49.2959 228.253Z" fill="#F0F0F0"/>
<path d="M54.9337 197.532H105.459V179.174H54.9337V197.532Z" fill="#E6E6E6"/>
<path d="M54.9337 221.363H105.459V203.005H54.9337V221.363Z" fill="#E6E6E6"/>
<path d="M85.8655 189.609H74.5242C74.3386 189.609 74.1549 189.576 73.9837 189.511C73.8125 189.446 73.6574 189.352 73.5272 189.232C73.3971 189.113 73.2946 188.972 73.2258 188.816C73.1569 188.661 73.123 188.495 73.1262 188.328C73.1262 187.993 73.2735 187.673 73.5357 187.437C73.7978 187.2 74.1534 187.067 74.5242 187.067H85.8655C86.2363 187.067 86.5919 187.2 86.8541 187.437C87.1162 187.673 87.2635 187.993 87.2635 188.328V188.328C87.2667 188.495 87.2328 188.661 87.1639 188.816C87.0951 188.972 86.9926 189.113 86.8625 189.232C86.7324 189.352 86.5772 189.446 86.406 189.511C86.2348 189.576 86.0511 189.609 85.8655 189.609V189.609Z" fill="#F0F0F0"/>
<path d="M85.8653 213.441H74.524C74.1532 213.441 73.7976 213.308 73.5355 213.072C73.2733 212.836 73.126 212.515 73.126 212.181C73.1281 211.848 73.2763 211.529 73.5382 211.294C73.8002 211.06 74.1546 210.928 74.524 210.928H85.8653C86.2347 210.928 86.5891 211.06 86.8511 211.294C87.113 211.529 87.2612 211.848 87.2633 212.181V212.181C87.2633 212.515 87.116 212.836 86.8539 213.072C86.5917 213.308 86.2361 213.441 85.8653 213.441V213.441Z" fill="#F0F0F0"/>
<path d="M77.2318 161.517C77.2318 161.517 65.4506 143.172 81.8107 128.566C81.8107 128.566 86.0833 131.073 86.0205 134.45C85.9576 137.827 81.4415 138.698 82.4076 141.53C83.3736 144.362 87.6384 147.116 84.8424 149.445C82.0463 151.775 85.29 153.849 85.1015 156.702C84.913 159.556 77.2318 161.517 77.2318 161.517Z" fill="#F0F0F0"/>
<path d="M60.041 158.593C60.041 158.593 60.4337 172.278 75.49 172.278C90.5463 172.278 90.9311 158.593 90.9311 158.593H60.041Z" fill="#E6E6E6"/>
<path d="M78.1301 163.194C78.1301 163.194 82.9211 142.429 62.2649 133.225C62.2649 133.225 59.1232 136.821 60.3328 140.007C61.5423 143.193 66.1527 142.719 66.2233 145.671C66.294 148.624 63.2074 152.454 66.6789 153.87C70.1504 155.286 67.7942 158.182 68.9723 160.837C70.1504 163.492 78.1301 163.194 78.1301 163.194Z" fill="#E6E6E6"/>
<path d="M71.0037 60.8096H47.4336V114.257H71.0037V60.8096Z" fill="#E0E0E0"/>
<path d="M75.773 60.8096H50.7578V114.257H75.773V60.8096Z" fill="#F0F0F0"/>
<path d="M71.9619 110.823V64.2441H54.5651V110.823H71.9619Z" fill="#FAFAFA"/>
<path d="M197.117 263.772C281.22 263.772 349.4 260.184 349.4 255.758C349.4 251.331 281.22 247.743 197.117 247.743C113.013 247.743 44.834 251.331 44.834 255.758C44.834 260.184 113.013 263.772 197.117 263.772Z" fill="#F5F5F5"/>
<path d="M288.745 99.396C288.62 101.385 288.353 103.212 288.054 105.11C287.756 107.007 287.324 108.848 286.868 110.703C285.933 114.487 284.546 118.169 282.729 121.684C282.088 122.789 281.206 123.767 280.137 124.558C279.259 125.232 278.325 125.842 277.341 126.385C275.507 127.398 273.593 128.29 271.616 129.054C267.777 130.537 263.817 131.752 259.772 132.686L258.798 130.059C260.604 129.351 262.458 128.566 264.249 127.766C266.039 126.966 267.83 126.158 269.542 125.28C271.235 124.444 272.869 123.515 274.435 122.498C275.157 122.032 275.839 121.518 276.477 120.962C276.965 120.559 277.367 120.079 277.663 119.546C278.381 117.962 278.997 116.343 279.509 114.696C280.012 113.004 280.475 111.297 280.868 109.563C281.26 107.828 281.575 106.072 281.857 104.31C282.14 102.547 282.368 100.77 282.541 99.0703L288.745 99.396Z" fill="#E58A7B"/>
<path d="M284.512 92.7475C282.006 93.321 280.255 102.617 280.255 102.617L287.159 106.865C287.159 106.865 293.78 97.4911 291.871 95.0131C289.845 92.3722 288.172 91.8766 284.512 92.7475Z" fill="#407BFF"/>
<path d="M284.512 92.7475C282.006 93.321 280.255 102.617 280.255 102.617L287.159 106.865C287.159 106.865 293.78 97.4911 291.871 95.0131C289.845 92.3722 288.172 91.8766 284.512 92.7475Z" fill="#8BC63E"/>
<path d="M284.741 94.793L282.816 104.16L286.696 106.532L284.741 94.793Z" fill="#407BFF"/>
<path opacity="0.7" d="M284.741 94.793L282.816 104.16L286.696 106.532L284.741 94.793Z" fill="black"/>
<path d="M260.219 129.917L255.907 125.98L255.342 131.531C255.342 131.531 258.57 133.499 260.84 132.445L260.219 129.917Z" fill="#E58A7B"/>
<path d="M250.833 125.393L250.637 130.058L255.341 131.531L255.907 125.98L250.833 125.393Z" fill="#E58A7B"/>
<path d="M298.068 249.13H291.989L291.58 236.442H297.659L298.068 249.13Z" fill="#E58A7B"/>
<path d="M351.703 223.685L347.069 227.232L336.466 218.7L341.1 215.153L351.703 223.685Z" fill="#E58A7B"/>
<path d="M345.806 226.807L350.275 222.17C350.349 222.087 350.454 222.033 350.571 222.017C350.687 222.002 350.806 222.026 350.903 222.085L355.482 224.761C355.595 224.832 355.69 224.923 355.761 225.03C355.831 225.136 355.877 225.254 355.893 225.377C355.909 225.5 355.896 225.625 355.855 225.743C355.814 225.862 355.746 225.971 355.655 226.064C354.084 227.657 353.197 228.351 351.225 230.39C350.008 231.643 348.374 233.59 346.701 235.346C345.028 237.101 343.033 235.671 343.56 234.815C345.916 230.977 345.35 229.625 345.39 227.735C345.398 227.39 345.546 227.06 345.806 226.807Z" fill="#263238"/>
<path d="M291.777 248.508H298.61C298.727 248.507 298.842 248.544 298.931 248.613C299.021 248.682 299.079 248.778 299.097 248.883L299.882 253.754C299.896 253.877 299.882 254.001 299.839 254.118C299.797 254.236 299.727 254.344 299.635 254.435C299.544 254.527 299.431 254.6 299.306 254.65C299.181 254.699 299.045 254.725 298.908 254.724C296.552 254.724 295.374 254.561 292.373 254.561C290.528 254.561 286.703 254.738 284.158 254.738C281.613 254.738 281.464 252.458 282.532 252.253C287.292 251.333 289.169 250.058 290.771 248.841C291.055 248.631 291.409 248.513 291.777 248.508V248.508Z" fill="#263238"/>
<path d="M291.58 236.45L291.792 242.992H297.871L297.667 236.45H291.58Z" fill="#CF6F64"/>
<path d="M341.109 215.153L336.475 218.7L341.941 223.097L346.575 219.55L341.109 215.153Z" fill="#CF6F64"/>
<path d="M284.512 92.7469C284.512 92.7469 281.621 93.6673 287.418 125.818H312.103C311.687 116.762 311.679 111.176 316.478 92.584C313.024 91.9371 309.522 91.5183 306 91.3309C302.267 91.0863 298.518 91.0863 294.785 91.3309C289.97 91.7132 284.512 92.7469 284.512 92.7469Z" fill="#407BFF"/>
<path d="M284.512 92.7469C284.512 92.7469 281.621 93.6673 287.418 125.818H312.103C311.687 116.762 311.679 111.176 316.478 92.584C313.024 91.9371 309.522 91.5183 306 91.3309C302.267 91.0863 298.518 91.0863 294.785 91.3309C289.97 91.7132 284.512 92.7469 284.512 92.7469Z" fill="#8BC63E"/>
<path d="M298.438 93.6391L300.668 97.7455C300.668 97.7455 310.022 95.1684 308.797 91.4585L305.655 91.1328L298.438 93.6391Z" fill="#407BFF"/>
<path opacity="0.6" d="M298.438 93.6391L300.668 97.7455C300.668 97.7455 310.022 95.1684 308.797 91.4585L305.655 91.1328L298.438 93.6391Z" fill="#FAFAFA"/>
<path d="M298.264 93.2568L295.123 97.4482C295.123 97.4482 288.462 94.8427 293.057 91.3381L295.013 91.1328L298.264 93.2568Z" fill="#407BFF"/>
<path opacity="0.6" d="M298.264 93.2568L295.123 97.4482C295.123 97.4482 288.462 94.8427 293.057 91.3381L295.013 91.1328L298.264 93.2568Z" fill="#FAFAFA"/>
<path d="M308.294 63.0113C311.176 60.5121 308.412 48.7664 315.999 52.6533C325.644 57.6093 331.872 51.124 328.652 48.6602C335.422 49.092 334.762 56.0375 331.943 59.7687C324.788 69.2629 310.352 60.2359 310.265 65.0574C310.179 69.8789 308.294 63.0113 308.294 63.0113Z" fill="#263238"/>
<path d="M304.133 61.3194C307.439 58.9617 318.734 60.9229 310.989 70.4172L304.133 61.3194Z" fill="#407BFF"/>
<path opacity="0.3" d="M304.133 61.3194C307.439 58.9617 318.734 60.9229 310.989 70.4172L304.133 61.3194Z" fill="black"/>
<path d="M305.875 65.7305C315.504 67.0261 316.18 81.1295 301.233 83.3172L305.875 65.7305Z" fill="#263238"/>
<path d="M304.886 79.9404C304.179 83.1902 303.472 89.1444 306.001 91.318C306.001 91.318 305.012 94.6102 298.312 94.6102C290.945 94.6102 294.786 91.318 294.786 91.318C298.807 90.4472 298.713 87.778 298.006 85.2363L304.886 79.9404Z" fill="#E58A7B"/>
<path d="M302.08 82.1279L298.004 85.2573C298.183 85.8453 298.299 86.4475 298.349 87.0556C299.92 86.8503 302.002 85.3281 302.167 83.8838C302.257 83.2986 302.228 82.7036 302.08 82.1279Z" fill="#CF6F64"/>
<path d="M289.689 76.1732C286.367 72.3146 282.039 62.3601 294.99 61.4043L289.689 76.1732Z" fill="#263238"/>
<path d="M304.641 71.6417C305.427 77.0366 305.898 79.3022 303.51 82.559C299.921 87.4655 292.397 87.1752 289.837 82.1059C287.52 77.5464 286.609 69.4964 291.926 66.3529C293.096 65.6545 294.444 65.2372 295.843 65.1408C297.242 65.0443 298.645 65.2718 299.919 65.8017C301.193 66.3316 302.296 67.1463 303.122 68.1684C303.949 69.1905 304.472 70.3861 304.641 71.6417V71.6417Z" fill="#E58A7B"/>
<path d="M287.441 125.79C287.441 125.79 282.65 167.994 283.042 184.703C283.459 202.084 290.527 241.725 290.527 241.725H298.743C298.743 241.725 297.439 203.097 298.169 186.034C298.955 167.42 305.521 125.79 305.521 125.79H287.441Z" fill="#407BFF"/>
<path opacity="0.6" d="M287.441 125.79C287.441 125.79 282.65 167.994 283.042 184.703C283.459 202.084 290.527 241.725 290.527 241.725H298.743C298.743 241.725 297.439 203.097 298.169 186.034C298.955 167.42 305.521 125.79 305.521 125.79H287.441Z" fill="#FAFAFA"/>
<path d="M299.435 241.986H289.79L289.083 239.218L299.882 238.878L299.435 241.986Z" fill="#407BFF"/>
<path opacity="0.4" d="M299.435 241.986H289.79L289.083 239.218L299.882 238.878L299.435 241.986Z" fill="#FAFAFA"/>
<path d="M298.069 136.29C292.006 147.285 296.852 167.342 298.996 174.805C300.095 163.597 301.949 149.897 303.394 139.837C302.475 134.144 300.865 131.22 298.069 136.29Z" fill="#407BFF"/>
<path opacity="0.4" d="M298.069 136.29C292.006 147.285 296.852 167.342 298.996 174.805C300.095 163.597 301.949 149.897 303.394 139.837C302.475 134.144 300.865 131.22 298.069 136.29Z" fill="#FAFAFA"/>
<path d="M293.938 125.79C293.938 125.79 299.531 169.686 303.756 183.754C308.767 200.484 339.885 222.991 339.885 222.991L346.207 218.148C346.207 218.148 323.635 193.701 319.802 184.872C311.618 166.068 318.624 138.045 312.081 125.775L293.938 125.79Z" fill="#407BFF"/>
<path opacity="0.6" d="M293.938 125.79C293.938 125.79 299.531 169.686 303.756 183.754C308.767 200.484 339.885 222.991 339.885 222.991L346.207 218.148C346.207 218.148 323.635 193.701 319.802 184.872C311.618 166.068 318.624 138.045 312.081 125.775L293.938 125.79Z" fill="#FAFAFA"/>
<path d="M347.235 217.894L339.396 223.891L336.475 222.312L345.334 214.878L347.235 217.894Z" fill="#407BFF"/>
<path opacity="0.4" d="M347.235 217.894L339.396 223.891L336.475 222.312L345.334 214.878L347.235 217.894Z" fill="#FAFAFA"/>
<path d="M296.004 74.7222C296.098 75.1541 295.917 75.5506 295.603 75.6072C295.289 75.6639 294.959 75.3523 294.865 74.8992C294.771 74.4461 294.951 74.0709 295.265 74.0142C295.58 73.9576 295.909 74.2833 296.004 74.7222Z" fill="#263238"/>
<path d="M290.583 75.6851C290.677 76.117 290.496 76.5135 290.182 76.5701C289.868 76.6267 289.538 76.3152 289.444 75.8621C289.349 75.409 289.522 75.0338 289.836 74.9771C290.151 74.9205 290.473 75.2462 290.583 75.6851Z" fill="#263238"/>
<path d="M289.97 74.9976L288.745 74.8984C288.745 74.8984 289.515 75.6064 289.97 74.9976Z" fill="#263238"/>
<path d="M292.153 76.1738C291.941 77.2387 291.568 78.2725 291.046 79.2466C291.324 79.3622 291.627 79.422 291.933 79.422C292.24 79.422 292.543 79.3622 292.821 79.2466L292.153 76.1738Z" fill="#DF5753"/>
<path d="M294.869 80.6411C294.831 80.6411 294.795 80.6277 294.769 80.6038C294.742 80.5799 294.728 80.5475 294.728 80.5137C294.728 80.4799 294.742 80.4475 294.769 80.4236C294.795 80.3997 294.831 80.3862 294.869 80.3862C295.47 80.2916 296.038 80.0704 296.527 79.7408C297.015 79.4111 297.411 78.9821 297.681 78.4888C297.688 78.473 297.699 78.4586 297.712 78.4465C297.725 78.4344 297.741 78.4248 297.759 78.4182C297.776 78.4116 297.795 78.4082 297.814 78.4082C297.833 78.4082 297.852 78.4115 297.869 78.418C297.887 78.4245 297.903 78.4341 297.916 78.4461C297.93 78.4582 297.94 78.4725 297.947 78.4883C297.955 78.5041 297.959 78.521 297.959 78.5381C297.959 78.5552 297.955 78.5721 297.948 78.5879C297.663 79.1237 297.24 79.5899 296.714 79.9472C296.188 80.3046 295.574 80.5426 294.924 80.6411H294.869Z" fill="#263238"/>
<path d="M289.796 68.2651C289.796 68.2651 294.909 75.2531 304.334 76.1735C304.334 76.1735 314.065 68.2085 308.081 62.6861C298.389 53.7511 286.828 65.1357 289.796 68.2651Z" fill="#263238"/>
<path d="M306.691 75.8126C306.678 76.3327 306.551 76.8453 306.316 77.3205C306.081 77.7958 305.744 78.2242 305.324 78.5809C304.193 79.5367 302.921 78.7791 302.638 77.4835C302.387 76.3153 302.638 74.4178 304.091 73.9435C304.405 73.8485 304.74 73.8259 305.065 73.8777C305.391 73.9295 305.697 74.054 305.956 74.2399C306.214 74.4258 306.417 74.6671 306.545 74.9419C306.674 75.2166 306.724 75.516 306.691 75.8126Z" fill="#E58A7B"/>
<path d="M297.244 72.853C297.172 72.8537 297.102 72.8311 297.047 72.7893C296.784 72.5658 296.467 72.4012 296.12 72.309C295.773 72.2167 295.408 72.1994 295.052 72.2583C295.016 72.2679 294.977 72.2707 294.939 72.2665C294.902 72.2624 294.865 72.2514 294.832 72.2342C294.799 72.217 294.77 72.194 294.747 72.1665C294.724 72.139 294.708 72.1076 294.699 72.0742C294.68 72.0076 294.69 71.9368 294.728 71.8771C294.767 71.8175 294.829 71.7739 294.903 71.7556C295.351 71.6728 295.814 71.6881 296.255 71.8003C296.695 71.9124 297.098 72.118 297.432 72.3999C297.486 72.4489 297.516 72.515 297.516 72.584C297.516 72.6529 297.486 72.719 297.432 72.768C297.384 72.8172 297.316 72.8476 297.244 72.853V72.853Z" fill="#263238"/>
<path d="M287.551 73.8652C287.515 73.8725 287.478 73.8725 287.442 73.8652C287.406 73.8528 287.373 73.834 287.346 73.81C287.319 73.786 287.297 73.7572 287.282 73.7255C287.268 73.6937 287.26 73.6596 287.261 73.6252C287.261 73.5908 287.269 73.5569 287.284 73.5253C287.45 73.1412 287.715 72.7985 288.058 72.5262C288.401 72.2539 288.812 72.0599 289.256 71.9607C289.293 71.9535 289.33 71.9532 289.367 71.9598C289.404 71.9664 289.439 71.9797 289.47 71.999C289.501 72.0182 289.527 72.043 289.547 72.0717C289.567 72.1004 289.58 72.1325 289.586 72.166C289.594 72.1995 289.594 72.2341 289.587 72.2678C289.58 72.3014 289.565 72.3335 289.544 72.3619C289.522 72.3903 289.495 72.4146 289.463 72.4332C289.431 72.4519 289.395 72.4645 289.358 72.4704C289.005 72.5522 288.678 72.7084 288.405 72.9263C288.132 73.1442 287.92 73.4174 287.787 73.7236C287.765 73.7638 287.732 73.798 287.69 73.8229C287.649 73.8477 287.601 73.8623 287.551 73.8652Z" fill="#263238"/>
<path d="M325.141 119.885V119.255C325.141 118.405 325.007 117.591 324.913 116.77C324.437 113.59 323.686 110.448 322.667 107.374C321.681 104.33 320.506 101.337 319.148 98.4111L313.36 100.535C314.53 103.268 315.637 106.15 316.651 108.982C317.138 110.398 317.601 111.814 318.002 113.23C318.402 114.646 318.787 116.062 319.062 117.478L319.227 118.419C318.685 118.256 318.127 118.079 317.562 117.867C314.593 116.777 311.561 115.361 308.569 114.001L306.833 116.288C309.496 118.373 312.367 120.231 315.41 121.839C316.227 122.266 317.075 122.644 317.947 122.972C318.436 123.163 318.94 123.321 319.455 123.446C319.761 123.524 320.073 123.583 320.389 123.623C320.809 123.671 321.234 123.671 321.654 123.623C322.347 123.568 323.009 123.343 323.57 122.972C324.268 122.504 324.76 121.83 324.96 121.067C325.079 120.682 325.14 120.284 325.141 119.885V119.885ZM320.915 118.83H321.057C321.143 118.823 321.033 118.837 320.876 118.83H320.915Z" fill="#E58A7B"/>
<path d="M316.5 92.5557C318.974 93.2636 321.943 100.91 321.943 100.91L312.353 107.098C312.353 107.098 308.85 100.691 309.895 97.809C310.947 94.8071 313.657 91.7839 316.5 92.5557Z" fill="#407BFF"/>
<path d="M316.5 92.5557C318.974 93.2636 321.943 100.91 321.943 100.91L312.353 107.098C312.353 107.098 308.85 100.691 309.895 97.809C310.947 94.8071 313.657 91.7839 316.5 92.5557Z" fill="#8BC63E"/>
<path d="M344.139 229.448C344.013 229.445 343.891 229.416 343.779 229.365C343.668 229.313 343.571 229.24 343.495 229.15C343.435 229.094 343.393 229.024 343.373 228.948C343.354 228.872 343.358 228.793 343.385 228.718C343.605 228.046 345.741 227.501 345.953 227.444C345.981 227.437 346.011 227.437 346.038 227.444C346.066 227.452 346.091 227.466 346.11 227.487C346.124 227.508 346.131 227.533 346.131 227.557C346.131 227.582 346.124 227.607 346.11 227.628C345.733 228.272 344.979 229.363 344.217 229.448H344.139ZM345.709 227.784C344.869 228.025 343.785 228.442 343.667 228.796C343.655 228.829 343.654 228.863 343.664 228.896C343.673 228.929 343.694 228.958 343.722 228.98C343.776 229.05 343.85 229.106 343.935 229.142C344.021 229.178 344.115 229.193 344.209 229.186C344.61 229.143 345.16 228.626 345.702 227.784H345.709Z" fill="#407BFF"/>
<path d="M345.035 227.805C344.407 227.863 343.778 227.704 343.276 227.359C343.203 227.279 343.163 227.179 343.163 227.076C343.163 226.972 343.203 226.872 343.276 226.792C343.338 226.712 343.418 226.643 343.512 226.592C343.605 226.541 343.709 226.508 343.818 226.495C344.682 226.403 346.017 227.423 346.072 227.472C346.092 227.486 346.107 227.504 346.116 227.526C346.124 227.547 346.125 227.571 346.119 227.593C346.115 227.615 346.105 227.637 346.088 227.655C346.071 227.672 346.049 227.685 346.025 227.692C345.703 227.773 345.369 227.811 345.035 227.805ZM343.967 226.743H343.873C343.803 226.75 343.736 226.771 343.676 226.804C343.617 226.837 343.566 226.881 343.527 226.934C343.425 227.069 343.464 227.146 343.527 227.196C343.786 227.5 344.98 227.614 345.71 227.5C345.221 227.116 344.628 226.855 343.99 226.743H343.967Z" fill="#407BFF"/>
<path d="M289.5 249.456C288.979 249.499 288.458 249.379 288.024 249.116C287.926 249.039 287.851 248.941 287.806 248.831C287.761 248.721 287.746 248.602 287.764 248.486C287.769 248.414 287.794 248.345 287.837 248.284C287.879 248.224 287.938 248.174 288.008 248.139C288.754 247.778 291.15 248.89 291.448 249.017C291.475 249.03 291.496 249.049 291.51 249.073C291.524 249.097 291.53 249.125 291.527 249.152C291.524 249.178 291.511 249.202 291.491 249.221C291.471 249.241 291.445 249.253 291.417 249.258C290.787 249.38 290.145 249.447 289.5 249.456V249.456ZM288.416 248.323C288.324 248.318 288.232 248.335 288.149 248.373C288.121 248.385 288.097 248.404 288.081 248.428C288.064 248.452 288.055 248.479 288.055 248.507C288.04 248.584 288.047 248.663 288.076 248.736C288.105 248.809 288.154 248.874 288.22 248.925C288.589 249.222 289.587 249.279 290.938 249.074C290.15 248.696 289.298 248.443 288.416 248.323V248.323Z" fill="#407BFF"/>
<path d="M291.367 249.265H291.304C290.581 248.968 289.152 247.793 289.262 247.141C289.262 246.993 289.403 246.808 289.804 246.773C289.945 246.759 290.088 246.772 290.223 246.811C290.359 246.85 290.483 246.914 290.589 247C291.375 247.573 291.5 249.046 291.5 249.124C291.504 249.145 291.501 249.167 291.491 249.188C291.482 249.208 291.466 249.225 291.445 249.237C291.423 249.254 291.396 249.264 291.367 249.265V249.265ZM289.922 247.042H289.835C289.568 247.042 289.552 247.155 289.545 247.191C289.482 247.559 290.448 248.493 291.186 248.897C291.131 248.272 290.856 247.679 290.401 247.205C290.27 247.107 290.107 247.05 289.937 247.042H289.922Z" fill="#407BFF"/>
<path d="M309.433 114.633L307.391 109.004L304.14 113.74C304.14 113.74 306.056 116.806 308.585 116.757L309.433 114.633Z" fill="#E58A7B"/>
<path d="M303.126 106.439L300.645 110.539L304.116 113.739L307.368 109.002L303.126 106.439Z" fill="#E58A7B"/>
<path d="M295.407 74.0347L294.189 73.9355C294.189 73.9355 294.959 74.6435 295.407 74.0347Z" fill="#263238"/>
<path d="M312.473 124.48L313.109 126.476C313.195 126.625 312.991 126.788 312.7 126.788H287.3C287.073 126.788 286.892 126.689 286.876 126.561L286.656 124.607C286.656 124.466 286.829 124.352 287.073 124.352H312.072C312.145 124.342 312.22 124.348 312.29 124.371C312.36 124.393 312.423 124.43 312.473 124.48V124.48Z" fill="#263238"/>
<path d="M309.119 127H309.786C309.92 127 310.022 126.936 310.014 126.865L309.7 124.274C309.7 124.196 309.574 124.14 309.441 124.14H308.773C308.64 124.14 308.537 124.196 308.545 124.274L308.859 126.865C308.867 126.936 308.985 127 309.119 127Z" fill="#407BFF"/>
<path opacity="0.6" d="M309.119 127H309.786C309.92 127 310.022 126.936 310.014 126.865L309.7 124.274C309.7 124.196 309.574 124.14 309.441 124.14H308.773C308.64 124.14 308.537 124.196 308.545 124.274L308.859 126.865C308.867 126.936 308.985 127 309.119 127Z" fill="#FAFAFA"/>
<path d="M289.177 127H289.845C289.978 127 290.081 126.936 290.073 126.865L289.759 124.274C289.759 124.196 289.633 124.14 289.499 124.14H288.832C288.698 124.14 288.596 124.196 288.604 124.274L288.918 126.865C288.926 126.936 289.012 127 289.177 127Z" fill="#407BFF"/>
<path opacity="0.6" d="M289.177 127H289.845C289.978 127 290.081 126.936 290.073 126.865L289.759 124.274C289.759 124.196 289.633 124.14 289.499 124.14H288.832C288.698 124.14 288.596 124.196 288.604 124.274L288.918 126.865C288.926 126.936 289.012 127 289.177 127Z" fill="#FAFAFA"/>
<path d="M299.143 127H299.819C299.952 127 300.054 126.936 300.038 126.865L299.724 124.274C299.724 124.196 299.599 124.14 299.465 124.14H298.798C298.664 124.14 298.562 124.196 298.57 124.274L298.884 126.865C298.905 126.91 298.942 126.947 298.989 126.971C299.036 126.995 299.09 127.006 299.143 127V127Z" fill="#407BFF"/>
<path opacity="0.6" d="M299.143 127H299.819C299.952 127 300.054 126.936 300.038 126.865L299.724 124.274C299.724 124.196 299.599 124.14 299.465 124.14H298.798C298.664 124.14 298.562 124.196 298.57 124.274L298.884 126.865C298.905 126.91 298.942 126.947 298.989 126.971C299.036 126.995 299.09 127.006 299.143 127V127Z" fill="#FAFAFA"/>
<path d="M220.369 255.757H272.323C273.535 255.77 274.737 255.554 275.851 255.124C276.965 254.693 277.966 254.058 278.792 253.258C279.617 252.458 280.248 251.511 280.643 250.478C281.039 249.446 281.191 248.35 281.089 247.261L268.663 87.0834C268.448 84.793 267.297 82.6562 265.434 81.0866C263.571 79.5171 261.128 78.6266 258.579 78.5874H206.624C205.412 78.5747 204.211 78.7905 203.097 79.2209C201.983 79.6514 200.981 80.287 200.156 81.087C199.331 81.887 198.7 82.8337 198.304 83.8664C197.909 84.899 197.757 85.9948 197.859 87.0834L210.284 247.268C210.501 249.558 211.653 251.693 213.516 253.261C215.379 254.829 217.82 255.718 220.369 255.757Z" fill="#407BFF"/>
<path opacity="0.2" d="M220.369 255.757H272.323C273.535 255.77 274.737 255.554 275.851 255.124C276.965 254.693 277.966 254.058 278.792 253.258C279.617 252.458 280.248 251.511 280.643 250.478C281.039 249.446 281.191 248.35 281.089 247.261L268.663 87.0834C268.448 84.793 267.297 82.6562 265.434 81.0866C263.571 79.5171 261.128 78.6266 258.579 78.5874H206.624C205.412 78.5747 204.211 78.7905 203.097 79.2209C201.983 79.6514 200.981 80.287 200.156 81.087C199.331 81.887 198.7 82.8337 198.304 83.8664C197.909 84.899 197.757 85.9948 197.859 87.0834L210.284 247.268C210.501 249.558 211.653 251.693 213.516 253.261C215.379 254.829 217.82 255.718 220.369 255.757Z" fill="black"/>
<path d="M192.923 136.475L192.14 136.524L193.005 147.684L193.789 147.634L192.923 136.475Z" fill="#407BFF"/>
<path opacity="0.5" d="M192.923 136.475L192.14 136.524L193.005 147.684L193.789 147.634L192.923 136.475Z" fill="black"/>
<path d="M213.566 255.757H265.513C266.725 255.77 267.926 255.554 269.04 255.124C270.154 254.693 271.156 254.058 271.981 253.258C272.806 252.458 273.437 251.511 273.833 250.478C274.228 249.446 274.38 248.35 274.278 247.261L261.853 87.0834C261.637 84.793 260.487 82.6562 258.624 81.0866C256.761 79.5171 254.318 78.6266 251.768 78.5874H199.821C198.609 78.5747 197.408 78.7905 196.294 79.2209C195.18 79.6514 194.178 80.287 193.353 81.087C192.528 81.887 191.897 82.8337 191.502 83.8664C191.106 84.899 190.954 85.9948 191.056 87.0834L203.481 247.261C203.697 249.552 204.848 251.689 206.711 253.258C208.574 254.828 211.016 255.718 213.566 255.757V255.757Z" fill="#407BFF"/>
<path opacity="0.5" d="M213.566 255.757H265.513C266.725 255.77 267.926 255.554 269.04 255.124C270.154 254.693 271.156 254.058 271.981 253.258C272.806 252.458 273.437 251.511 273.833 250.478C274.228 249.446 274.38 248.35 274.278 247.261L261.853 87.0834C261.637 84.793 260.487 82.6562 258.624 81.0866C256.761 79.5171 254.318 78.6266 251.768 78.5874H199.821C198.609 78.5747 197.408 78.7905 196.294 79.2209C195.18 79.6514 194.178 80.287 193.353 81.087C192.528 81.887 191.897 82.8337 191.502 83.8664C191.106 84.899 190.954 85.9948 191.056 87.0834L203.481 247.261C203.697 249.552 204.848 251.689 206.711 253.258C208.574 254.828 211.016 255.718 213.566 255.757V255.757Z" fill="black"/>
<path d="M223.211 129.606H232.825C233.051 129.614 233.276 129.578 233.486 129.501C233.695 129.423 233.884 129.306 234.038 129.156C234.193 129.007 234.309 128.83 234.381 128.636C234.452 128.442 234.476 128.237 234.45 128.034L232.149 98.3686C232.11 97.944 231.897 97.5477 231.551 97.2571C231.206 96.9665 230.753 96.8024 230.28 96.7968H220.682C220.457 96.7895 220.232 96.826 220.023 96.904C219.815 96.982 219.628 97.0996 219.474 97.2487C219.321 97.3979 219.204 97.5751 219.134 97.7684C219.063 97.9616 219.039 98.1663 219.064 98.3686L221.366 128.034C221.404 128.455 221.614 128.848 221.955 129.138C222.295 129.428 222.743 129.595 223.211 129.606Z" fill="#407BFF"/>
<path opacity="0.2" d="M223.211 129.606H232.825C233.051 129.614 233.276 129.578 233.486 129.501C233.695 129.423 233.884 129.306 234.038 129.156C234.193 129.007 234.309 128.83 234.381 128.636C234.452 128.442 234.476 128.237 234.45 128.034L232.149 98.3686C232.11 97.944 231.897 97.5477 231.551 97.2571C231.206 96.9665 230.753 96.8024 230.28 96.7968H220.682C220.457 96.7895 220.232 96.826 220.023 96.904C219.815 96.982 219.628 97.0996 219.474 97.2487C219.321 97.3979 219.204 97.5751 219.134 97.7684C219.063 97.9616 219.039 98.1663 219.064 98.3686L221.366 128.034C221.404 128.455 221.614 128.848 221.955 129.138C222.295 129.428 222.743 129.595 223.211 129.606Z" fill="black"/>
<path d="M164.33 255.757H112.375C111.163 255.77 109.962 255.554 108.848 255.124C107.734 254.693 106.732 254.058 105.907 253.258C105.082 252.458 104.451 251.511 104.055 250.478C103.66 249.446 103.508 248.35 103.61 247.261L116.035 87.0834C116.252 84.7936 117.403 82.6576 119.266 81.0884C121.129 79.5192 123.571 78.6281 126.12 78.5874H178.074C179.286 78.5747 180.488 78.7905 181.602 79.2209C182.715 79.6514 183.717 80.287 184.543 81.087C185.368 81.887 185.999 82.8337 186.394 83.8664C186.79 84.899 186.941 85.9948 186.84 87.0834L174.414 247.261C174.199 249.552 173.048 251.689 171.185 253.258C169.322 254.828 166.879 255.718 164.33 255.757Z" fill="#407BFF"/>
<path opacity="0.5" d="M164.33 255.757H112.375C111.163 255.77 109.962 255.554 108.848 255.124C107.734 254.693 106.732 254.058 105.907 253.258C105.082 252.458 104.451 251.511 104.055 250.478C103.66 249.446 103.508 248.35 103.61 247.261L116.035 87.0834C116.252 84.7936 117.403 82.6576 119.266 81.0884C121.129 79.5192 123.571 78.6281 126.12 78.5874H178.074C179.286 78.5747 180.488 78.7905 181.602 79.2209C182.715 79.6514 183.717 80.287 184.543 81.087C185.368 81.887 185.999 82.8337 186.394 83.8664C186.79 84.899 186.941 85.9948 186.84 87.0834L174.414 247.261C174.199 249.552 173.048 251.689 171.185 253.258C169.322 254.828 166.879 255.718 164.33 255.757Z" fill="black"/>
<path d="M142.477 76.1025H139.548V76.8105H142.477V76.1025Z" fill="#407BFF"/>
<path opacity="0.3" d="M142.477 76.1025H139.548V76.8105H142.477V76.1025Z" fill="black"/>
<path d="M134.295 76.1025H125.082V76.8105H134.295V76.1025Z" fill="#407BFF"/>
<path opacity="0.3" d="M134.295 76.1025H125.082V76.8105H134.295V76.1025Z" fill="black"/>
<path d="M157.519 255.757H105.572C104.36 255.77 103.159 255.554 102.045 255.124C100.931 254.693 99.9295 254.058 99.1041 253.258C98.2788 252.458 97.6481 251.511 97.2525 250.478C96.857 249.446 96.7053 248.35 96.8072 247.261L109.232 87.0834C109.448 84.793 110.599 82.6562 112.462 81.0866C114.325 79.5171 116.767 78.6266 119.317 78.5874H171.264C172.476 78.5747 173.677 78.7905 174.791 79.2209C175.905 79.6514 176.907 80.287 177.732 81.087C178.557 81.887 179.188 82.8337 179.584 83.8664C179.979 84.899 180.131 85.9948 180.029 87.0834L167.604 247.261C167.388 249.552 166.238 251.689 164.375 253.258C162.512 254.828 160.069 255.718 157.519 255.757V255.757Z" fill="#407BFF"/>
<path opacity="0.3" d="M157.519 255.757H105.572C104.36 255.77 103.159 255.554 102.045 255.124C100.931 254.693 99.9295 254.058 99.1041 253.258C98.2788 252.458 97.6481 251.511 97.2525 250.478C96.857 249.446 96.7053 248.35 96.8072 247.261L109.232 87.0834C109.448 84.793 110.599 82.6562 112.462 81.0866C114.325 79.5171 116.767 78.6266 119.317 78.5874H171.264C172.476 78.5747 173.677 78.7905 174.791 79.2209C175.905 79.6514 176.907 80.287 177.732 81.087C178.557 81.887 179.188 82.8337 179.584 83.8664C179.979 84.899 180.131 85.9948 180.029 87.0834L167.604 247.261C167.388 249.552 166.238 251.689 164.375 253.258C162.512 254.828 160.069 255.718 157.519 255.757V255.757Z" fill="black"/>
<path d="M165.31 246.539H96.9093C96.7453 246.539 96.5832 246.508 96.433 246.448C96.2827 246.389 96.1476 246.303 96.0357 246.195C95.9239 246.087 95.8378 245.959 95.7827 245.82C95.7276 245.681 95.7047 245.533 95.7155 245.385L107.819 89.3491C107.84 89.0755 107.977 88.8196 108.2 88.633C108.423 88.4464 108.716 88.343 109.02 88.3438H177.414C177.578 88.3434 177.741 88.3736 177.892 88.4324C178.044 88.4912 178.18 88.5774 178.292 88.6856C178.405 88.7938 178.492 88.9218 178.547 89.0615C178.603 89.2012 178.626 89.3497 178.615 89.4978L166.489 245.534C166.469 245.804 166.336 246.058 166.118 246.245C165.9 246.431 165.611 246.536 165.31 246.539V246.539Z" fill="#407BFF"/>
<path opacity="0.9" d="M165.31 246.539H96.9093C96.7453 246.539 96.5832 246.508 96.433 246.448C96.2827 246.389 96.1476 246.303 96.0357 246.195C95.9239 246.087 95.8378 245.959 95.7827 245.82C95.7276 245.681 95.7047 245.533 95.7155 245.385L107.819 89.3491C107.84 89.0755 107.977 88.8196 108.2 88.633C108.423 88.4464 108.716 88.343 109.02 88.3438H177.414C177.578 88.3434 177.741 88.3736 177.892 88.4324C178.044 88.4912 178.18 88.5774 178.292 88.6856C178.405 88.7938 178.492 88.9218 178.547 89.0615C178.603 89.2012 178.626 89.3497 178.615 89.4978L166.489 245.534C166.469 245.804 166.336 246.058 166.118 246.245C165.9 246.431 165.611 246.536 165.31 246.539V246.539Z" fill="#FAFAFA"/>
<path d="M163.644 104.317H119.245C118.038 104.335 116.882 104.757 116 105.5C115.118 106.243 114.573 107.254 114.47 108.338L109.844 167.952C109.795 168.467 109.867 168.987 110.055 169.476C110.243 169.965 110.542 170.413 110.933 170.792C111.324 171.171 111.799 171.471 112.327 171.675C112.855 171.878 113.424 171.98 113.998 171.973H117.077L115.506 176.341C119.139 176.047 122.498 174.478 124.861 171.973H158.398C159.604 171.954 160.761 171.533 161.643 170.79C162.525 170.047 163.07 169.036 163.173 167.952L167.799 108.338C167.846 107.823 167.773 107.304 167.585 106.815C167.397 106.327 167.098 105.879 166.707 105.5C166.316 105.122 165.841 104.821 165.314 104.617C164.787 104.413 164.218 104.311 163.644 104.317V104.317Z" fill="#407BFF"/>
<path opacity="0.6" d="M163.644 104.317H119.245C118.038 104.335 116.882 104.757 116 105.5C115.118 106.243 114.573 107.254 114.47 108.338L109.844 167.952C109.795 168.467 109.867 168.987 110.055 169.476C110.243 169.965 110.542 170.413 110.933 170.792C111.324 171.171 111.799 171.471 112.327 171.675C112.855 171.878 113.424 171.98 113.998 171.973H117.077L115.506 176.341C119.139 176.047 122.498 174.478 124.861 171.973H158.398C159.604 171.954 160.761 171.533 161.643 170.79C162.525 170.047 163.07 169.036 163.173 167.952L167.799 108.338C167.846 107.823 167.773 107.304 167.585 106.815C167.397 106.327 167.098 105.879 166.707 105.5C166.316 105.122 165.841 104.821 165.314 104.617C164.787 104.413 164.218 104.311 163.644 104.317V104.317Z" fill="#FAFAFA"/>
<path d="M154.963 135H105.456L105.043 146H154.55L154.963 135Z" fill="white"/>
<path d="M113.079 183.973H157.478C158.052 183.966 158.621 184.068 159.149 184.271C159.677 184.475 160.152 184.775 160.543 185.154C160.935 185.533 161.234 185.981 161.421 186.47C161.609 186.96 161.681 187.479 161.633 187.994L159.646 213.603C159.543 214.687 158.998 215.698 158.116 216.441C157.234 217.184 156.077 217.605 154.87 217.624H151.784L152.648 221.993C150.945 221.864 149.292 221.408 147.802 220.654C146.311 219.901 145.017 218.867 144.008 217.624H110.456C109.881 217.631 109.312 217.529 108.784 217.326C108.256 217.123 107.781 216.822 107.39 216.443C106.999 216.064 106.7 215.616 106.512 215.127C106.324 214.638 106.252 214.119 106.301 213.603L108.288 187.994C108.391 186.908 108.938 185.895 109.824 185.151C110.709 184.408 111.869 183.988 113.079 183.973V183.973Z" fill="#407BFF"/>
<path opacity="0.6" d="M113.079 183.973H157.478C158.052 183.966 158.621 184.068 159.149 184.271C159.677 184.475 160.152 184.775 160.543 185.154C160.935 185.533 161.234 185.981 161.421 186.47C161.609 186.96 161.681 187.479 161.633 187.994L159.646 213.603C159.543 214.687 158.998 215.698 158.116 216.441C157.234 217.184 156.077 217.605 154.87 217.624H151.784L152.648 221.993C150.945 221.864 149.292 221.408 147.802 220.654C146.311 219.901 145.017 218.867 144.008 217.624H110.456C109.881 217.631 109.312 217.529 108.784 217.326C108.256 217.123 107.781 216.822 107.39 216.443C106.999 216.064 106.7 215.616 106.512 215.127C106.324 214.638 106.252 214.119 106.301 213.603L108.288 187.994C108.391 186.908 108.938 185.895 109.824 185.151C110.709 184.408 111.869 183.988 113.079 183.973V183.973Z" fill="#FAFAFA"/>
<path d="M153.176 83.0697C153.145 83.4287 152.967 83.7644 152.677 84.0117C152.386 84.259 152.005 84.4002 151.605 84.4078C151.414 84.4105 151.224 84.3769 151.049 84.3094C150.873 84.2418 150.715 84.1417 150.584 84.0156C150.454 83.8895 150.355 83.7402 150.292 83.5772C150.23 83.4143 150.206 83.2414 150.223 83.0697C150.257 82.7119 150.436 82.378 150.726 82.1313C151.015 81.8846 151.395 81.7424 151.794 81.7316C151.985 81.729 152.174 81.7625 152.35 81.8301C152.526 81.8976 152.684 81.9977 152.815 82.1238C152.945 82.2499 153.044 82.3993 153.107 82.5622C153.169 82.7251 153.193 82.898 153.176 83.0697V83.0697Z" fill="#407BFF"/>
<path opacity="0.5" d="M153.176 83.0697C153.145 83.4287 152.967 83.7644 152.677 84.0117C152.386 84.259 152.005 84.4002 151.605 84.4078C151.414 84.4105 151.224 84.3769 151.049 84.3094C150.873 84.2418 150.715 84.1417 150.584 84.0156C150.454 83.8895 150.355 83.7402 150.292 83.5772C150.23 83.4143 150.206 83.2414 150.223 83.0697C150.257 82.7119 150.436 82.378 150.726 82.1313C151.015 81.8846 151.395 81.7424 151.794 81.7316C151.985 81.729 152.174 81.7625 152.35 81.8301C152.526 81.8976 152.684 81.9977 152.815 82.1238C152.945 82.2499 153.044 82.3993 153.107 82.5622C153.169 82.7251 153.193 82.898 153.176 83.0697V83.0697Z" fill="black"/>
<path d="M145.526 84.4078H135.166C134.975 84.4093 134.786 84.375 134.611 84.3071C134.436 84.2391 134.278 84.139 134.148 84.0132C134.018 83.8873 133.918 83.7384 133.856 83.576C133.793 83.4135 133.768 83.2411 133.784 83.0696C133.816 82.7113 133.995 82.3764 134.285 82.1295C134.575 81.8825 134.956 81.7408 135.355 81.7315H145.714C145.905 81.73 146.094 81.7642 146.269 81.8322C146.445 81.9001 146.602 82.0002 146.732 82.1261C146.862 82.252 146.962 82.4009 147.024 82.5633C147.087 82.7257 147.112 82.8982 147.096 83.0696V83.0696C147.064 83.428 146.885 83.7628 146.595 84.0098C146.305 84.2568 145.924 84.3985 145.526 84.4078Z" fill="#407BFF"/>
<path opacity="0.5" d="M145.526 84.4078H135.166C134.975 84.4093 134.786 84.375 134.611 84.3071C134.436 84.2391 134.278 84.139 134.148 84.0132C134.018 83.8873 133.918 83.7384 133.856 83.576C133.793 83.4135 133.768 83.2411 133.784 83.0696C133.816 82.7113 133.995 82.3764 134.285 82.1295C134.575 81.8825 134.956 81.7408 135.355 81.7315H145.714C145.905 81.73 146.094 81.7642 146.269 81.8322C146.445 81.9001 146.602 82.0002 146.732 82.1261C146.862 82.252 146.962 82.4009 147.024 82.5633C147.087 82.7257 147.112 82.8982 147.096 83.0696V83.0696C147.064 83.428 146.885 83.7628 146.595 84.0098C146.305 84.2568 145.924 84.3985 145.526 84.4078Z" fill="black"/>
<path d="M90.2168 115.171L91.4499 117.344C91.8819 118.052 92.3217 118.824 92.7773 119.553C93.6883 121.019 94.6151 122.47 95.589 123.879C97.4479 126.654 99.5769 129.275 101.951 131.71C102.54 132.241 103.176 132.878 103.584 133.168C104.155 133.583 104.765 133.953 105.407 134.273C106.936 135 108.528 135.616 110.166 136.114C113.697 137.17 117.292 138.042 120.934 138.726L120.683 142.627C116.593 142.843 112.488 142.627 108.454 141.983C106.305 141.647 104.199 141.114 102.171 140.39C101.042 139.984 99.963 139.474 98.9506 138.868C98.4266 138.553 97.9279 138.205 97.4583 137.827L96.2174 136.843C93.2204 134.222 90.5595 131.305 88.2847 128.149C87.1459 126.612 86.0699 125.055 85.0881 123.454C84.5933 122.654 84.1064 121.847 83.643 121.033C83.1796 120.219 82.7398 119.426 82.2764 118.506L90.2168 115.171Z" fill="#E58A7B"/>
<path d="M119.365 138.725L122.86 136.502L124.705 142.931C124.705 142.931 121.627 143.908 119.31 142.499L119.365 138.725Z" fill="#E58A7B"/>
<path d="M127.68 135.044L128.921 140.425L124.695 142.931L122.85 136.502L127.68 135.044Z" fill="#E58A7B"/>
<path d="M112.627 93.2148C112.533 93.6255 112.698 94.0007 112.996 94.0574C113.295 94.114 113.617 93.8308 113.711 93.4202C113.805 93.0095 113.64 92.6272 113.342 92.5705C113.043 92.5139 112.721 92.8042 112.627 93.2148Z" fill="#263238"/>
<path d="M112.655 93.9932C112.908 95.3503 113.365 96.6699 114.014 97.9155C113.658 98.0585 113.271 98.1288 112.882 98.1214C112.492 98.1141 112.109 98.0293 111.76 97.873L112.655 93.9932Z" fill="#DF5753"/>
<path d="M113.866 90.7022C113.812 90.7014 113.761 90.6867 113.717 90.6598C113.415 90.5127 113.079 90.4321 112.736 90.4247C112.394 90.4174 112.054 90.4833 111.745 90.6173C111.679 90.6439 111.605 90.6462 111.537 90.6237C111.47 90.6012 111.415 90.5556 111.384 90.4969C111.368 90.4673 111.36 90.4351 111.359 90.4024C111.357 90.3697 111.364 90.3371 111.377 90.3066C111.39 90.2761 111.41 90.2484 111.436 90.2251C111.461 90.2018 111.492 90.1835 111.525 90.1712C111.917 90.0031 112.347 89.9225 112.781 89.936C113.214 89.9496 113.637 90.057 114.015 90.2491C114.045 90.2663 114.072 90.2889 114.092 90.3155C114.113 90.3421 114.127 90.3722 114.135 90.404C114.142 90.4357 114.142 90.4684 114.135 90.5002C114.128 90.532 114.114 90.5622 114.094 90.589C114.069 90.6238 114.036 90.6525 113.996 90.6723C113.956 90.6921 113.911 90.7024 113.866 90.7022V90.7022Z" fill="#263238"/>
<path d="M96.462 94.5312C97.2474 98.3332 98.1113 105.307 95.1582 107.842C95.1582 107.842 96.3128 111.707 104.159 111.707C112.798 111.707 108.275 107.842 108.275 107.842C103.562 106.829 103.696 103.686 104.512 100.762L96.462 94.5312Z" fill="#E58A7B"/>
<path d="M93.9622 108.933C93.3967 107.687 93.491 105.393 93.9072 105.358C95.5409 105.258 104.259 105.237 107.141 106.235C107.523 106.344 107.876 106.519 108.181 106.752C108.487 106.985 108.737 107.27 108.919 107.591C109.101 107.911 109.211 108.262 109.241 108.621C109.272 108.98 109.223 109.341 109.097 109.683L93.9622 108.933Z" fill="#407BFF"/>
<path d="M74.6974 251.339C74.1904 251.337 73.685 251.287 73.1894 251.19C73.164 251.186 73.1405 251.175 73.1222 251.159C73.104 251.143 73.0918 251.121 73.0873 251.098C73.0838 251.075 73.087 251.051 73.0966 251.028C73.1062 251.006 73.1219 250.986 73.1423 250.971C73.213 250.929 74.8074 249.951 75.6477 250.121C75.7385 250.139 75.8241 250.174 75.8986 250.224C75.9731 250.274 76.0348 250.338 76.0797 250.412C76.1481 250.497 76.1849 250.6 76.1849 250.705C76.1849 250.811 76.1481 250.914 76.0797 250.999C75.8861 251.136 75.664 251.237 75.4266 251.295C75.1893 251.353 74.9413 251.368 74.6974 251.339V251.339ZM73.5743 251.013C74.4382 251.141 75.6163 251.141 75.8677 250.844C75.8677 250.844 75.9619 250.73 75.8677 250.532C75.8422 250.489 75.8065 250.451 75.7631 250.422C75.7196 250.392 75.6695 250.372 75.6163 250.362C74.8772 250.395 74.166 250.627 73.5743 251.028V251.013Z" fill="#407BFF"/>
<path d="M73.2205 251.212H73.1498C73.128 251.201 73.1104 251.184 73.0992 251.164C73.088 251.144 73.0838 251.121 73.087 251.099C73.087 251.035 73.2284 249.534 73.8724 249.038C73.954 248.978 74.0481 248.933 74.1493 248.907C74.2506 248.88 74.3567 248.872 74.4615 248.883C74.5639 248.884 74.6627 248.917 74.7414 248.977C74.82 249.036 74.8737 249.118 74.8934 249.208C75.0112 249.789 73.8567 250.922 73.2676 251.219L73.2205 251.212ZM74.3829 249.088C74.27 249.089 74.1613 249.127 74.0766 249.194C73.6685 249.661 73.4299 250.229 73.3933 250.823C73.9824 250.419 74.7206 249.562 74.65 249.215C74.65 249.215 74.65 249.109 74.4457 249.088H74.3829Z" fill="#407BFF"/>
<path d="M66.5615 251.085H72.3343L77.6515 239.042H71.8866L66.5615 251.085Z" fill="#E58A7B"/>
<path d="M72.7893 250.483H66.3097C66.194 250.484 66.0821 250.52 65.9922 250.586C65.9023 250.652 65.8398 250.743 65.8149 250.844L64.676 255.468C64.65 255.58 64.6525 255.697 64.6833 255.808C64.7141 255.92 64.7725 256.024 64.854 256.112C64.9355 256.201 65.0381 256.271 65.1542 256.319C65.2702 256.367 65.3967 256.391 65.5243 256.388C67.7862 256.353 68.8858 256.232 71.7368 256.232C73.4883 256.232 77.1012 256.402 79.5281 256.402C81.955 256.402 82.2613 254.278 81.2717 254.045C76.8263 253.167 75.1534 251.956 73.7318 250.809C73.4736 250.599 73.1375 250.482 72.7893 250.483V250.483Z" fill="#263238"/>
<path d="M119.765 112.904C121.485 115.736 123.182 118.639 124.855 121.514L129.866 130.144L131.122 132.268C131.388 132.783 131.704 133.276 132.065 133.741C132.942 134.694 134.007 135.493 135.207 136.098C138.109 137.591 141.193 138.779 144.396 139.638L143.909 143.518C142.924 143.537 141.938 143.509 140.956 143.433C139.979 143.377 139.007 143.276 138.042 143.129C136.045 142.851 134.088 142.376 132.206 141.713C130.063 140.987 128.103 139.882 126.441 138.463C125.615 137.692 124.89 136.836 124.282 135.914L122.805 133.79C120.873 130.958 119.011 128.112 117.221 125.252C115.438 122.37 113.71 119.482 112.053 116.529L119.765 112.904Z" fill="#E58A7B"/>
<path d="M80.5161 112.154C78.1598 116.693 85.6919 131.023 85.6919 131.023L98.5569 125.642C97.1529 121.576 95.4042 117.614 93.3261 113.79C89.9645 107.779 82.9037 107.517 80.5161 112.154Z" fill="#407BFF"/>
<path opacity="0.8" d="M80.5161 112.154C78.1598 116.693 85.6919 131.023 85.6919 131.023L98.5569 125.642C97.1529 121.576 95.4042 117.614 93.3261 113.79C89.9645 107.779 82.9037 107.517 80.5161 112.154Z" fill="#FAFAFA"/>
<path d="M87.4216 113.082L84.5156 128.623C85.2068 130.088 85.6937 131.023 85.6937 131.023L98.5587 125.642C98.5587 125.642 92.7467 116.587 87.4216 113.082Z" fill="#407BFF"/>
<path opacity="0.7" d="M87.4216 113.082L84.5156 128.623C85.2068 130.088 85.6937 131.023 85.6937 131.023L98.5587 125.642C98.5587 125.642 92.7467 116.587 87.4216 113.082Z" fill="#FAFAFA"/>
<path d="M117.151 109.286C117.151 109.286 123.292 115.545 117.496 154.244H86.6375C86.4176 149.996 89.3943 129.146 84.8311 109.017C88.242 108.425 91.692 108.033 95.1592 107.842C99.5277 107.615 103.907 107.615 108.275 107.842C111.27 108.118 114.238 108.601 117.151 109.286Z" fill="#407BFF"/>
<path opacity="0.8" d="M117.151 109.286C117.151 109.286 123.292 115.545 117.496 154.244H86.6375C86.4176 149.996 89.3943 129.146 84.8311 109.017C88.242 108.425 91.692 108.033 95.1592 107.842C99.5277 107.615 103.907 107.615 108.275 107.842C111.27 108.118 114.238 108.601 117.151 109.286Z" fill="#FAFAFA"/>
<path d="M119.64 118.498L114.872 129.118L119.64 135.37C120.111 129.754 120.111 124.114 119.64 118.498V118.498Z" fill="#407BFF"/>
<path opacity="0.7" d="M119.64 118.498L114.872 129.118L119.64 135.37C120.111 129.754 120.111 124.114 119.64 118.498V118.498Z" fill="#FAFAFA"/>
<path d="M109.642 112.721C107.741 117.394 115.375 131.568 115.375 131.568L129.199 125.288C127.428 121.039 125.158 116.974 122.428 113.16C118.289 107.708 111.731 107.616 109.642 112.721Z" fill="#407BFF"/>
<path opacity="0.8" d="M109.642 112.721C107.741 117.394 115.375 131.568 115.375 131.568L129.199 125.288C127.428 121.039 125.158 116.974 122.428 113.16C118.289 107.708 111.731 107.616 109.642 112.721Z" fill="#FAFAFA"/>
<path d="M143.248 139.823L148.903 137.784L150.474 143.93C150.474 143.93 145.981 145.395 142.714 143.264L143.248 139.823Z" fill="#E58A7B"/>
<path d="M155.138 137.848L154.267 143.342L150.465 143.93L148.902 137.784L155.138 137.848Z" fill="#E58A7B"/>
<path d="M71.8773 239.049H77.6501L73.8251 247.701L68.4844 246.724L71.8773 239.049Z" fill="#CF6F64"/>
<path d="M97.6309 89.4915C96.8455 94.5961 96.0601 97.5485 98.2671 100.671C101.621 105.365 109.059 104.352 111.556 99.5663C113.81 95.2617 114.776 87.6294 109.765 84.5921C108.66 83.9278 107.387 83.5269 106.063 83.427C104.739 83.3271 103.409 83.5314 102.197 84.0209C100.985 84.5103 99.9303 85.2688 99.1318 86.2256C98.3332 87.1823 97.8168 88.3059 97.6309 89.4915V89.4915Z" fill="#E58A7B"/>
<path d="M119.403 80.9101C114.518 76.8391 118.382 75.8054 118.382 75.8054C118.382 75.8054 113.026 73.8088 115.146 78.0851C118.107 84.0465 109.813 82.2128 105.839 78.0851C103.389 75.5363 96.9405 78.1489 97.2547 80.6339C97.5688 83.119 87.4371 81.1933 92.0238 86.6165C92.1102 92.2806 94.5529 97.7888 97.7966 99.2827C103.357 101.839 107.528 94.6877 109.083 88.96C117.471 92.5921 124.461 85.1227 119.403 80.9101Z" fill="#263238"/>
<path d="M104.841 92.3722C104.872 93.6606 105.372 94.9041 106.262 95.9121C107.448 97.2149 108.799 96.4998 109.113 94.9917C109.396 93.6324 109.113 91.3172 107.621 90.5597C106.129 89.8021 104.833 90.8287 104.841 92.3722Z" fill="#E58A7B"/>
<path d="M92.0781 81.3137C94.5987 81.2273 97.0711 81.9527 99.0526 83.3598C99.0526 83.3598 97.631 77.8799 92.0781 81.3137Z" fill="#263238"/>
<path d="M103.977 154.244C103.977 154.244 105.131 175.314 109.396 193.892C110.755 199.776 109.867 206.077 106.042 210.997C94.803 225.448 76.9821 244.691 76.9821 244.691L67.6436 243.75C67.6436 243.75 82.7627 218.481 90.5068 205.928C92.2661 203.096 93.8212 200.505 92.4939 197.432C79.6682 168.086 86.6033 154.244 86.6033 154.244H103.977Z" fill="#407BFF"/>
<path d="M103.977 154.244C103.977 154.244 105.131 175.314 109.396 193.892C110.755 199.776 109.867 206.077 106.042 210.997C94.803 225.448 76.9821 244.691 76.9821 244.691L67.6436 243.75C67.6436 243.75 82.7627 218.481 90.5068 205.928C92.2661 203.096 93.8212 200.505 92.4939 197.432C79.6682 168.086 86.6033 154.244 86.6033 154.244H103.977Z" fill="#4B6E82"/>
<path d="M105.713 172.454L96.775 162.84C96.4373 167.152 99.3276 183.28 109.239 193.192C107.661 186.204 106.522 178.834 105.713 172.454Z" fill="#407BFF"/>
<path opacity="0.4" d="M105.713 172.454L96.775 162.84C96.4373 167.152 99.3276 183.28 109.239 193.192C107.661 186.204 106.522 178.834 105.713 172.454Z" fill="#121212"/>
<path d="M79.6152 243.41L77.7852 246.823L66.5303 244.217L67.4256 241.053L79.6152 243.41Z" fill="#407BFF"/>
<path opacity="0.1" d="M79.6152 243.41L77.7852 246.823L66.5303 244.217L67.4256 241.053L79.6152 243.41Z" fill="black"/>
<path d="M113.152 251.085H118.917L120.606 239.042H114.841L113.152 251.085Z" fill="#E58A7B"/>
<path d="M121.445 251.34C120.849 251.34 120.255 251.29 119.669 251.191C119.642 251.187 119.617 251.175 119.597 251.158C119.577 251.14 119.564 251.117 119.56 251.092C119.555 251.067 119.559 251.041 119.572 251.018C119.584 250.995 119.605 250.976 119.63 250.965C119.717 250.922 121.727 249.889 122.693 250.122C122.784 250.141 122.868 250.177 122.943 250.227C123.017 250.277 123.079 250.34 123.125 250.413C123.187 250.491 123.22 250.585 123.22 250.682C123.22 250.778 123.187 250.872 123.125 250.951C122.898 251.262 122.183 251.34 121.445 251.34ZM120.109 251.014C121.193 251.149 122.654 251.128 122.913 250.802C122.913 250.759 122.984 250.689 122.913 250.533C122.884 250.489 122.846 250.452 122.8 250.422C122.754 250.393 122.701 250.373 122.646 250.363C122.026 250.228 120.816 250.703 120.149 251.028L120.109 251.014Z" fill="#407BFF"/>
<path d="M119.694 251.213C119.668 251.219 119.641 251.219 119.616 251.213C119.598 251.199 119.583 251.182 119.574 251.162C119.564 251.142 119.56 251.121 119.561 251.1C119.561 251.036 119.726 249.634 120.456 249.096C120.562 249.012 120.687 248.949 120.823 248.912C120.959 248.876 121.101 248.866 121.241 248.884C121.618 248.919 121.721 249.089 121.744 249.23C121.854 249.818 120.472 250.944 119.781 251.22L119.694 251.213ZM121.108 249.089C120.931 249.088 120.761 249.146 120.629 249.252C120.192 249.7 119.917 250.259 119.843 250.852C120.558 250.469 121.493 249.584 121.414 249.23C121.414 249.23 121.414 249.117 121.147 249.089H121.108Z" fill="#407BFF"/>
<path d="M119.083 250.483H112.8C112.685 250.483 112.573 250.519 112.484 250.585C112.395 250.651 112.335 250.743 112.313 250.844L111.166 255.468C111.139 255.579 111.14 255.695 111.169 255.806C111.199 255.917 111.255 256.021 111.336 256.109C111.416 256.198 111.517 256.269 111.632 256.317C111.747 256.365 111.872 256.39 111.999 256.388C114.276 256.353 117.559 256.232 120.41 256.232C123.756 256.232 126.639 256.402 130.558 256.402C132.914 256.402 133.582 254.278 132.592 254.045C128.076 253.153 124.392 253.061 120.489 250.894C120.074 250.638 119.586 250.496 119.083 250.483V250.483Z" fill="#263238"/>
<path d="M114.84 239.049H120.613L119.372 247.821L113.717 247.035L114.84 239.049Z" fill="#CF6F64"/>
<path d="M117.495 154.244C117.495 154.244 122.325 168.801 130.305 187.52C132.905 193.609 133.91 199.471 132.104 204.625C126.504 220.626 121.665 244.691 121.665 244.691L112.044 243.75C112.044 243.75 111.675 219.203 115.084 206.551C116.835 200.059 116.238 197.694 114.44 195.549C89.9349 166.16 96.5167 154.265 96.5167 154.265L117.495 154.244Z" fill="#407BFF"/>
<path d="M117.495 154.244C117.495 154.244 122.325 168.801 130.305 187.52C132.905 193.609 133.91 199.471 132.104 204.625C126.504 220.626 121.665 244.691 121.665 244.691L112.044 243.75C112.044 243.75 111.675 219.203 115.084 206.551C116.835 200.059 116.238 197.694 114.44 195.549C89.9349 166.16 96.5167 154.265 96.5167 154.265L117.495 154.244Z" fill="#4B6E82"/>
<path d="M123.33 243.218L122.828 246.674L111.471 244.939L111.133 241.781L123.33 243.218Z" fill="#407BFF"/>
<path opacity="0.1" d="M123.33 243.218L122.828 246.674L111.471 244.939L111.133 241.781L123.33 243.218Z" fill="black"/>
<path d="M206.8 66.3672H196.982V67.0752H206.8V66.3672Z" fill="#407BFF"/>
<path opacity="0.2" d="M206.8 66.3672H196.982V67.0752H206.8V66.3672Z" fill="black"/>
<path d="M178.143 37.1553H231.338C232.756 37.1571 234.115 37.6657 235.118 38.5695C236.121 39.4733 236.685 40.6986 236.687 41.9768V59.7759C236.685 61.054 236.121 62.2793 235.118 63.1831C234.115 64.0869 232.756 64.5955 231.338 64.5973H227.647L229.084 69.8295C226.998 69.6584 224.972 69.1063 223.131 68.2067C221.289 67.3072 219.669 66.0792 218.371 64.5973H178.143C176.725 64.5936 175.367 64.0844 174.365 63.181C173.363 62.2776 172.798 61.0534 172.794 59.7759V41.9768C172.798 40.6992 173.363 39.475 174.365 38.5716C175.367 37.6682 176.725 37.159 178.143 37.1553Z" fill="#407BFF"/>
<path opacity="0.2" d="M178.143 37.1553H231.338C232.756 37.1571 234.115 37.6657 235.118 38.5695C236.121 39.4733 236.685 40.6986 236.687 41.9768V59.7759C236.685 61.054 236.121 62.2793 235.118 63.1831C234.115 64.0869 232.756 64.5955 231.338 64.5973H227.647L229.084 69.8295C226.998 69.6584 224.972 69.1063 223.131 68.2067C221.289 67.3072 219.669 66.0792 218.371 64.5973H178.143C176.725 64.5936 175.367 64.0844 174.365 63.181C173.363 62.2776 172.798 61.0534 172.794 59.7759V41.9768C172.798 40.6992 173.363 39.475 174.365 38.5716C175.367 37.6682 176.725 37.159 178.143 37.1553Z" fill="black"/>
<path d="M207.494 12.1562H206.709V18.0539H207.494V12.1562Z" fill="#407BFF"/>
<path opacity="0.1" d="M207.494 12.1562H206.709V18.0539H207.494V12.1562Z" fill="#FAFAFA"/>
<path d="M199.395 4.39648H146.199C144.784 4.39834 143.427 4.90498 142.425 5.80572C141.423 6.70646 140.857 7.9281 140.851 9.2038V27.0171C140.853 28.2952 141.417 29.5205 142.419 30.4243C143.422 31.3281 144.781 31.8367 146.199 31.8386H149.891L148.422 37.0707C150.512 36.9059 152.542 36.3589 154.39 35.463C156.237 34.567 157.862 33.341 159.166 31.8598H199.395C200.812 31.8561 202.17 31.3469 203.172 30.4435C204.175 29.5401 204.739 28.3159 204.744 27.0383V9.2038C204.735 7.92868 204.169 6.70811 203.167 5.80777C202.165 4.90743 200.809 4.4002 199.395 4.39648Z" fill="#407BFF"/>
<path opacity="0.1" d="M199.395 4.39648H146.199C144.784 4.39834 143.427 4.90498 142.425 5.80572C141.423 6.70646 140.857 7.9281 140.851 9.2038V27.0171C140.853 28.2952 141.417 29.5205 142.419 30.4243C143.422 31.3281 144.781 31.8367 146.199 31.8386H149.891L148.422 37.0707C150.512 36.9059 152.542 36.3589 154.39 35.463C156.237 34.567 157.862 33.341 159.166 31.8598H199.395C200.812 31.8561 202.17 31.3469 203.172 30.4435C204.175 29.5401 204.739 28.3159 204.744 27.0383V9.2038C204.735 7.92868 204.169 6.70811 203.167 5.80777C202.165 4.90743 200.809 4.4002 199.395 4.39648Z" fill="#FAFAFA"/>
<path d="M153.777 14.252H149.422V16.566C149.621 16.332 149.894 16.1457 150.241 16.007C150.596 15.8597 150.986 15.786 151.411 15.786C152.044 15.786 152.568 15.9247 152.984 16.202C153.409 16.4707 153.721 16.8347 153.92 17.294C154.128 17.7447 154.232 18.2473 154.232 18.802C154.232 19.7813 153.955 20.5657 153.4 21.155C152.854 21.7443 152.07 22.039 151.047 22.039C150.38 22.039 149.799 21.922 149.305 21.688C148.811 21.4453 148.425 21.1117 148.148 20.687C147.871 20.2537 147.719 19.751 147.693 19.179H149.474C149.543 19.569 149.704 19.881 149.955 20.115C150.206 20.3403 150.54 20.453 150.956 20.453C151.459 20.453 151.831 20.3013 152.074 19.998C152.325 19.686 152.451 19.2743 152.451 18.763C152.451 18.2777 152.321 17.9007 152.061 17.632C151.801 17.3633 151.433 17.229 150.956 17.229C150.609 17.229 150.315 17.307 150.072 17.463C149.829 17.6103 149.652 17.8097 149.539 18.061H147.758V12.64H153.777V14.252ZM163.109 14.252H158.754V16.566C158.953 16.332 159.226 16.1457 159.573 16.007C159.928 15.8597 160.318 15.786 160.743 15.786C161.375 15.786 161.9 15.9247 162.316 16.202C162.74 16.4707 163.052 16.8347 163.252 17.294C163.46 17.7447 163.564 18.2473 163.564 18.802C163.564 19.7813 163.286 20.5657 162.732 21.155C162.186 21.7443 161.401 22.039 160.379 22.039C159.711 22.039 159.131 21.922 158.637 21.688C158.143 21.4453 157.757 21.1117 157.48 20.687C157.202 20.2537 157.051 19.751 157.025 19.179H158.806C158.875 19.569 159.035 19.881 159.287 20.115C159.538 20.3403 159.872 20.453 160.288 20.453C160.79 20.453 161.163 20.3013 161.406 19.998C161.657 19.686 161.783 19.2743 161.783 18.763C161.783 18.2777 161.653 17.9007 161.393 17.632C161.133 17.3633 160.764 17.229 160.288 17.229C159.941 17.229 159.646 17.307 159.404 17.463C159.161 17.6103 158.983 17.8097 158.871 18.061H157.09V12.64H163.109V14.252ZM165.875 17.333C165.875 20.4443 167.045 22 169.385 22C170.624 22 171.517 21.584 172.063 20.752C172.609 19.92 172.882 18.7803 172.882 17.333C172.882 15.8943 172.609 14.759 172.063 13.927C171.517 13.095 170.624 12.679 169.385 12.679C167.045 12.679 165.875 14.2303 165.875 17.333ZM171.075 17.333C171.075 18.2777 170.958 19.0057 170.724 19.517C170.499 20.0197 170.052 20.271 169.385 20.271C168.709 20.271 168.254 20.0197 168.02 19.517C167.795 19.0057 167.682 18.2777 167.682 17.333C167.682 16.397 167.795 15.6777 168.02 15.175C168.254 14.6637 168.709 14.408 169.385 14.408C170.052 14.408 170.499 14.6637 170.724 15.175C170.958 15.6777 171.075 16.397 171.075 17.333ZM175.467 14.915C175.467 14.473 175.588 14.0613 175.831 13.68C176.082 13.2987 176.451 12.991 176.936 12.757C177.43 12.523 178.024 12.406 178.717 12.406C179.41 12.406 180 12.523 180.485 12.757C180.979 12.991 181.347 13.2987 181.59 13.68C181.841 14.0613 181.967 14.473 181.967 14.915C181.967 15.4177 181.846 15.8467 181.603 16.202C181.36 16.5487 180.996 16.8087 180.511 16.982C181.057 17.19 181.473 17.4933 181.759 17.892C182.054 18.282 182.201 18.7587 182.201 19.322C182.201 19.9287 182.049 20.453 181.746 20.895C181.443 21.3283 181.027 21.6577 180.498 21.883C179.978 22.1083 179.384 22.221 178.717 22.221C178.05 22.221 177.452 22.1083 176.923 21.883C176.403 21.6577 175.991 21.3283 175.688 20.895C175.393 20.453 175.246 19.9287 175.246 19.322C175.246 18.7587 175.389 18.282 175.675 17.892C175.97 17.4933 176.39 17.19 176.936 16.982C176.451 16.8087 176.082 16.5443 175.831 16.189C175.588 15.8337 175.467 15.409 175.467 14.915ZM177.274 15.214C177.274 15.63 177.404 15.9507 177.664 16.176C177.924 16.4013 178.275 16.514 178.717 16.514C179.168 16.514 179.523 16.4013 179.783 16.176C180.043 15.9507 180.173 15.63 180.173 15.214C180.173 14.798 180.039 14.4773 179.77 14.252C179.51 14.018 179.159 13.901 178.717 13.901C178.284 13.901 177.933 14.018 177.664 14.252C177.404 14.4773 177.274 14.798 177.274 15.214ZM177.027 19.218C177.027 19.6773 177.179 20.0413 177.482 20.31C177.785 20.5787 178.197 20.713 178.717 20.713C179.237 20.713 179.649 20.5787 179.952 20.31C180.264 20.0413 180.42 19.6773 180.42 19.218C180.42 18.75 180.26 18.3947 179.939 18.152C179.627 17.9007 179.22 17.775 178.717 17.775C178.223 17.775 177.816 17.9007 177.495 18.152C177.183 18.3947 177.027 18.75 177.027 19.218ZM189.438 15.318C189.3 14.4167 188.84 13.966 188.06 13.966C187.454 13.966 187.012 14.2347 186.734 14.772C186.457 15.3007 186.336 16.1327 186.37 17.268C186.509 16.852 186.778 16.5227 187.176 16.28C187.584 16.0287 188.056 15.903 188.593 15.903C189.477 15.903 190.171 16.1717 190.673 16.709C191.185 17.2377 191.44 17.9917 191.44 18.971C191.44 19.5777 191.319 20.115 191.076 20.583C190.834 21.051 190.47 21.4193 189.984 21.688C189.508 21.9567 188.927 22.091 188.242 22.091C186.908 22.091 185.989 21.6793 185.486 20.856C184.984 20.024 184.732 18.88 184.732 17.424C184.732 15.7513 185.001 14.512 185.538 13.706C186.084 12.9 186.964 12.497 188.177 12.497C189.105 12.497 189.815 12.7613 190.309 13.29C190.803 13.8187 191.085 14.4947 191.154 15.318H189.438ZM186.526 18.841C186.526 19.3263 186.665 19.7293 186.942 20.05C187.228 20.362 187.644 20.518 188.19 20.518C188.658 20.518 189.031 20.3793 189.308 20.102C189.586 19.8247 189.724 19.439 189.724 18.945C189.724 18.425 189.581 18.0263 189.295 17.749C189.018 17.4717 188.641 17.333 188.164 17.333C187.714 17.333 187.328 17.463 187.007 17.723C186.687 17.983 186.526 18.3557 186.526 18.841ZM195.743 19.27C195.882 20.1713 196.35 20.622 197.147 20.622C197.754 20.622 198.192 20.3577 198.46 19.829C198.729 19.2917 198.846 18.4553 198.811 17.32C198.673 17.736 198.4 18.0697 197.992 18.321C197.594 18.5637 197.126 18.685 196.588 18.685C195.704 18.685 195.007 18.4207 194.495 17.892C193.993 17.3547 193.741 16.5963 193.741 15.617C193.741 15.019 193.863 14.486 194.105 14.018C194.348 13.5413 194.708 13.1687 195.184 12.9C195.67 12.6313 196.255 12.497 196.939 12.497C198.274 12.497 199.193 12.9043 199.695 13.719C200.198 14.525 200.449 15.6473 200.449 17.086C200.449 18.724 200.194 19.9677 199.682 20.817C199.18 21.6663 198.335 22.091 197.147 22.091C196.515 22.091 195.969 21.9653 195.509 21.714C195.059 21.4627 194.708 21.1247 194.456 20.7C194.214 20.2667 194.071 19.79 194.027 19.27H195.743ZM198.655 15.747C198.655 15.2617 198.512 14.863 198.226 14.551C197.949 14.2303 197.537 14.07 196.991 14.07C196.523 14.07 196.151 14.2087 195.873 14.486C195.596 14.7633 195.457 15.149 195.457 15.643C195.457 16.163 195.596 16.566 195.873 16.852C196.159 17.1293 196.541 17.268 197.017 17.268C197.459 17.268 197.841 17.138 198.161 16.878C198.491 16.6093 198.655 16.2323 198.655 15.747Z" fill="white"/>
<path d="M178.912 54.154V52.633L183.306 46.718H185.269V52.568H186.465V54.154H185.269V56H183.423V54.154H178.912ZM183.566 48.863L180.784 52.568H183.566V48.863ZM191.904 46.471C192.528 46.471 193.061 46.5793 193.503 46.796C193.953 47.0127 194.291 47.3117 194.517 47.693C194.751 48.0743 194.868 48.499 194.868 48.967C194.868 49.5563 194.707 50.0417 194.387 50.423C194.066 50.7957 193.641 51.0253 193.113 51.112V51.177C194.395 51.5583 195.037 52.3123 195.037 53.439C195.037 54.2277 194.772 54.869 194.244 55.363C193.715 55.8483 192.97 56.091 192.008 56.091C190.985 56.091 190.17 55.8397 189.564 55.337C188.957 54.8257 188.619 54.0587 188.55 53.036H190.344C190.387 53.504 190.539 53.8767 190.799 54.154C191.067 54.4227 191.444 54.557 191.93 54.557C192.346 54.557 192.671 54.4443 192.905 54.219C193.139 53.985 193.256 53.6817 193.256 53.309C193.256 52.867 193.087 52.529 192.749 52.295C192.411 52.061 191.912 51.944 191.254 51.944H190.877V50.449H191.254C192.467 50.4663 193.074 50.046 193.074 49.188C193.074 48.8153 192.965 48.525 192.749 48.317C192.532 48.1003 192.237 47.992 191.865 47.992C191.475 47.992 191.154 48.1177 190.903 48.369C190.651 48.6117 190.508 48.954 190.474 49.396H188.68C188.732 48.46 189.035 47.7407 189.59 47.238C190.144 46.7267 190.916 46.471 191.904 46.471ZM197.489 51.333C197.489 54.4443 198.659 56 200.999 56C202.238 56 203.131 55.584 203.677 54.752C204.223 53.92 204.496 52.7803 204.496 51.333C204.496 49.8943 204.223 48.759 203.677 47.927C203.131 47.095 202.238 46.679 200.999 46.679C198.659 46.679 197.489 48.2303 197.489 51.333ZM202.689 51.333C202.689 52.2777 202.572 53.0057 202.338 53.517C202.113 54.0197 201.666 54.271 200.999 54.271C200.323 54.271 199.868 54.0197 199.634 53.517C199.409 53.0057 199.296 52.2777 199.296 51.333C199.296 50.397 199.409 49.6777 199.634 49.175C199.868 48.6637 200.323 48.408 200.999 48.408C201.666 48.408 202.113 48.6637 202.338 49.175C202.572 49.6777 202.689 50.397 202.689 51.333ZM212.515 48.109L209.161 56H207.263L210.656 48.317H206.405V46.744H212.515V48.109ZM219.376 49.318C219.238 48.4167 218.778 47.966 217.998 47.966C217.392 47.966 216.95 48.2347 216.672 48.772C216.395 49.3007 216.274 50.1327 216.308 51.268C216.447 50.852 216.716 50.5227 217.114 50.28C217.522 50.0287 217.994 49.903 218.531 49.903C219.415 49.903 220.109 50.1717 220.611 50.709C221.123 51.2377 221.378 51.9917 221.378 52.971C221.378 53.5777 221.257 54.115 221.014 54.583C220.772 55.051 220.408 55.4193 219.922 55.688C219.446 55.9567 218.865 56.091 218.18 56.091C216.846 56.091 215.927 55.6793 215.424 54.856C214.922 54.024 214.67 52.88 214.67 51.424C214.67 49.7513 214.939 48.512 215.476 47.706C216.022 46.9 216.902 46.497 218.115 46.497C219.043 46.497 219.753 46.7613 220.247 47.29C220.741 47.8187 221.023 48.4947 221.092 49.318H219.376ZM216.464 52.841C216.464 53.3263 216.603 53.7293 216.88 54.05C217.166 54.362 217.582 54.518 218.128 54.518C218.596 54.518 218.969 54.3793 219.246 54.102C219.524 53.8247 219.662 53.439 219.662 52.945C219.662 52.425 219.519 52.0263 219.233 51.749C218.956 51.4717 218.579 51.333 218.102 51.333C217.652 51.333 217.266 51.463 216.945 51.723C216.625 51.983 216.464 52.3557 216.464 52.841ZM230.309 48.252H225.954V50.566C226.154 50.332 226.427 50.1457 226.773 50.007C227.129 49.8597 227.519 49.786 227.943 49.786C228.576 49.786 229.1 49.9247 229.516 50.202C229.941 50.4707 230.253 50.8347 230.452 51.294C230.66 51.7447 230.764 52.2473 230.764 52.802C230.764 53.7813 230.487 54.5657 229.932 55.155C229.386 55.7443 228.602 56.039 227.579 56.039C226.912 56.039 226.331 55.922 225.837 55.688C225.343 55.4453 224.958 55.1117 224.68 54.687C224.403 54.2537 224.251 53.751 224.225 53.179H226.006C226.076 53.569 226.236 53.881 226.487 54.115C226.739 54.3403 227.072 54.453 227.488 54.453C227.991 54.453 228.364 54.3013 228.606 53.998C228.858 53.686 228.983 53.2743 228.983 52.763C228.983 52.2777 228.853 51.9007 228.593 51.632C228.333 51.3633 227.965 51.229 227.488 51.229C227.142 51.229 226.847 51.307 226.604 51.463C226.362 51.6103 226.184 51.8097 226.071 52.061H224.29V46.64H230.309V48.252Z" fill="white"/>
</svg>
