<svg width="173" height="106" viewBox="0 0 173 106" fill="none" xmlns="http://www.w3.org/2000/svg">
<path d="M85.8237 100.136C130.795 100.136 167.252 98.2176 167.252 95.851C167.252 93.4844 130.795 91.5659 85.8237 91.5659C40.8521 91.5659 4.39539 93.4844 4.39539 95.851C4.39539 98.2176 40.8521 100.136 85.8237 100.136Z" fill="#EAF3FA"/>
<path d="M47.2228 44.4297V95.118H70.4397V58.3563H70.327C70.3834 58.2999 70.4397 58.2435 70.4961 58.1871C70.4961 58.1871 70.5524 58.1308 70.5524 58.0744C70.6088 58.018 70.6651 57.9616 70.6651 57.9616C70.7215 57.9052 70.7215 57.9052 70.7778 57.8488C70.8342 57.7925 70.8342 57.7361 70.8905 57.7361C70.9469 57.6797 70.9469 57.6797 71.0032 57.6233C71.0596 57.5669 71.0596 57.5105 71.1159 57.5105C71.1723 57.4542 71.1723 57.4542 71.2286 57.3978C71.285 57.3414 71.285 57.285 71.3413 57.2286C71.3413 57.1722 71.3977 57.1722 71.3977 57.1159C71.454 57.0595 71.454 57.0031 71.5104 56.9467C71.5104 56.8903 71.5667 56.8903 71.5667 56.8339C71.6231 56.7776 71.6231 56.7212 71.6795 56.6648C71.6795 56.6084 71.7358 56.6084 71.7358 56.552C71.7922 56.4393 71.8485 56.3829 71.9049 56.2701L71.9612 56.3265C71.9612 56.3265 72.0176 56.3265 72.0176 56.3829C72.0176 56.3829 72.0739 56.3829 72.0739 56.4393C72.0739 56.4393 72.0739 56.4956 72.1303 56.4956L72.1866 56.552L72.243 56.6084C72.2993 56.6648 72.2993 56.7212 72.3557 56.7776L72.412 56.8339C72.7501 57.3978 73.0319 58.018 73.4264 58.1871C73.5391 58.2435 73.5954 58.2435 73.7081 58.1871C73.7081 58.1871 73.7081 58.1871 73.7645 58.1871C74.3843 58.018 74.6097 57.1722 75.0606 56.4956L75.1169 56.4393L75.1733 56.3829L75.2296 56.3265L75.286 56.2701L75.3423 56.2137L75.3987 56.1573L75.455 56.101C75.7931 56.8339 75.7931 58.2999 76.7511 58.1307C77.5964 58.018 77.9345 56.101 78.5544 56.2137C78.6107 56.2137 78.6671 56.2137 78.6671 56.2701C78.6671 56.2701 78.6671 56.2701 78.7234 56.2701C78.7798 56.2701 78.7798 56.2701 78.8361 56.3265H78.8925L78.9488 56.3829C78.9488 56.3829 78.9488 56.3829 79.0052 56.3829C79.0615 56.3829 79.0615 56.4393 79.1179 56.4956C79.1742 56.552 79.1742 56.552 79.2306 56.6084C79.2306 56.6084 79.2306 56.6084 79.2869 56.6648L79.3433 56.7212C79.3433 56.7212 79.3433 56.7776 79.3996 56.7776L79.456 56.8339C79.456 56.8339 79.456 56.8903 79.5124 56.8903C79.5124 56.9467 79.5687 56.9467 79.5687 57.0031L79.6251 57.0595C79.6251 57.1159 79.6814 57.1159 79.6814 57.1722C79.6814 57.2286 79.7378 57.2286 79.7378 57.285C79.7378 57.285 79.7378 57.3414 79.7941 57.3414C80.0195 57.6797 80.1886 58.0744 80.414 58.3563H80.0759V95.118H101.94V44.9371L99.2355 44.4297H47.2228Z" fill="#7BBA42"/>
<path d="M113.38 59.8225C113.042 59.6533 112.591 59.6533 112.253 59.5969V60.9501C112.534 60.6118 113.098 60.2171 113.38 59.8225Z" fill="#72A140"/>
<path d="M109.097 55.9883C109.153 56.0447 109.153 56.1575 109.21 56.2139L113.605 53.9022L110.055 47.249C105.491 49.5607 102.109 51.7596 102.109 51.7596L104.307 45.4447L101.997 44.9937V95.1745H108.195V57.3415C108.477 56.8905 108.815 56.4394 109.097 55.9883Z" fill="#72A140"/>
<path d="M116.085 72.7904V63.4872L114 64.6148C114.45 63.8819 114.901 63.2617 114.732 62.6414C114.507 62.0212 112.76 62.6414 112.253 61.9648V95.1744H116.141V74.4255L113.887 73.8053C113.831 73.8053 114.732 73.467 116.085 72.7904Z" fill="#72A140"/>
<path d="M111.069 56.6649C110.449 56.6086 109.83 56.4394 109.21 56.2703C109.548 56.8905 110.055 57.3415 110.224 57.9618C110.562 57.5671 110.844 57.116 111.069 56.6649Z" fill="#72A140"/>
<path d="M72.074 56.4958C72.1303 56.5522 72.1303 56.5522 72.074 56.4958C72.1303 56.5522 72.1303 56.5522 72.074 56.4958Z" fill="#74A441"/>
<path d="M71.116 57.5107C71.0596 57.5671 71.0596 57.6235 71.0033 57.6235C71.0596 57.6235 71.0596 57.5671 71.116 57.5107Z" fill="#74A441"/>
<path d="M72.0176 56.4395C72.0176 56.4969 72.0752 56.4969 72.0176 56.4395C72.0752 56.4969 72.0176 56.4969 72.0176 56.4395Z" fill="#74A441"/>
<path d="M72.4684 56.9468L72.5247 57.0032C72.5247 57.0032 72.4684 57.0032 72.4684 56.9468Z" fill="#74A441"/>
<path d="M72.2993 56.7212L72.3557 56.7776C72.2993 56.7776 72.2993 56.7212 72.2993 56.7212Z" fill="#74A441"/>
<path d="M71.2286 57.3979C71.285 57.3415 71.285 57.2851 71.3413 57.2288C71.285 57.3415 71.2286 57.3415 71.2286 57.3979Z" fill="#74A441"/>
<path d="M71.5104 57.0032C71.4541 57.0596 71.4541 57.1159 71.3977 57.1723C71.4541 57.1159 71.4541 57.0596 71.5104 57.0032Z" fill="#74A441"/>
<path d="M72.3557 56.7776C72.4121 56.834 72.4121 56.8904 72.4684 56.9467C72.4121 56.8904 72.4121 56.834 72.3557 56.7776Z" fill="#74A441"/>
<path d="M71.7358 56.665C71.7922 56.5522 71.8485 56.4958 71.9049 56.3831C71.8485 56.4958 71.7922 56.5522 71.7358 56.665Z" fill="#74A441"/>
<path d="M70.7215 57.9617C70.6651 58.0181 70.6088 58.0744 70.6088 58.0744C70.6088 58.0744 70.6651 58.0181 70.7215 57.9617Z" fill="#74A441"/>
<path d="M70.4961 58.1873C70.4397 58.2436 70.3834 58.3 70.327 58.3564H70.4397V58.2436C70.4397 58.2436 70.4961 58.2436 70.4961 58.1873Z" fill="#74A441"/>
<path d="M70.7778 57.9052C70.8342 57.8489 70.8342 57.7925 70.8905 57.7925C70.8905 57.7925 70.8342 57.8489 70.7778 57.9052Z" fill="#74A441"/>
<path d="M71.9048 56.3831L71.9611 56.4394C71.9611 56.4394 71.9611 56.3831 71.9048 56.3831Z" fill="#74A441"/>
<path d="M71.6795 56.7212C71.6231 56.7776 71.6231 56.834 71.5668 56.8903C71.6231 56.834 71.6795 56.7776 71.6795 56.7212Z" fill="#74A441"/>
<path d="M73.5391 58.4128C73.1447 58.2436 72.8629 57.6234 72.5248 57.0596C72.8629 57.6234 73.0883 58.2436 73.5391 58.4128Z" fill="#74A441"/>
<path d="M80.1322 57.849V58.3565H80.4703C80.2449 58.0182 80.0195 57.6799 79.8505 57.3416C79.9068 57.5107 80.0195 57.6799 80.1322 57.849Z" fill="#74A441"/>
<path d="M79.5123 56.8904C79.5687 56.9468 79.5687 56.9468 79.5123 56.8904C79.5687 56.9468 79.5687 56.9468 79.5123 56.8904Z" fill="#74A441"/>
<path d="M75.5677 56.2139L75.6241 56.1575C75.6241 56.2139 75.5677 56.2139 75.5677 56.2139Z" fill="#74A441"/>
<path d="M75.1733 56.6648C74.7225 57.3414 74.4971 58.1871 73.8772 58.3563C74.4971 58.1871 74.7225 57.3414 75.1733 56.6648Z" fill="#74A441"/>
<path d="M79.7942 57.2851C79.7942 57.2287 79.7378 57.2287 79.7378 57.1724C79.7378 57.2287 79.7942 57.2851 79.7942 57.2851Z" fill="#74A441"/>
<path d="M79.6815 57.116L79.6251 57.0596L79.6815 57.116Z" fill="#74A441"/>
<path d="M75.3987 56.383C75.455 56.383 75.455 56.3266 75.3987 56.383C75.455 56.3266 75.455 56.383 75.3987 56.383Z" fill="#74A441"/>
<path d="M75.1732 56.6648L75.2296 56.6084C75.1732 56.6084 75.1732 56.6648 75.1732 56.6648Z" fill="#74A441"/>
<path d="M75.2296 56.6084L75.286 56.552C75.2296 56.552 75.2296 56.552 75.2296 56.6084Z" fill="#74A441"/>
<path d="M80.1322 57.8489C80.0195 57.6798 79.9068 57.5106 79.8505 57.3415C79.8505 57.3415 79.8505 57.2851 79.7941 57.2851C79.7941 57.2287 79.7378 57.2287 79.7378 57.1724C79.7378 57.116 79.6814 57.116 79.6814 57.0596L79.6251 57.0032C79.6251 56.9468 79.5687 56.9468 79.5687 56.8904C79.5687 56.8904 79.5687 56.8341 79.5124 56.8341L79.456 56.7777C79.456 56.7777 79.456 56.7213 79.3997 56.7213L79.3433 56.6649C79.3433 56.6649 79.3433 56.6649 79.287 56.6085C79.2306 56.5521 79.2306 56.5521 79.1743 56.4958C79.1179 56.4394 79.1179 56.4394 79.0616 56.383C79.0616 56.383 79.0616 56.383 79.0052 56.383L78.9489 56.3266H78.8925C78.8361 56.3266 78.8362 56.3266 78.7798 56.2702C78.7798 56.2702 78.7798 56.2702 78.7234 56.2702C78.6671 56.2702 78.6107 56.2138 78.6107 56.2138C77.9909 56.1011 77.6528 58.0181 76.8075 58.1309C75.8495 58.3564 75.8495 56.8341 75.5114 56.1011L75.455 56.1575L75.3987 56.2138L75.3423 56.2702L75.286 56.3266L75.2296 56.383L75.1733 56.4394L75.1169 56.4958C74.6661 57.1723 74.4407 58.0181 73.8208 58.1872C73.8208 58.1872 73.8208 58.1872 73.7645 58.1872C73.6518 58.2436 73.5391 58.1872 73.4827 58.1872C73.0883 58.0181 72.8065 57.3979 72.4684 56.8341L72.4121 56.7777C72.3557 56.7213 72.3557 56.6649 72.2994 56.6085L72.243 56.5521L72.1866 56.4958C72.1866 56.4958 72.1866 56.4394 72.1303 56.4394C72.1303 56.4394 72.1303 56.4394 72.0739 56.383C72.0739 56.383 72.0176 56.383 72.0176 56.3266L71.9612 56.2702C71.9049 56.383 71.8485 56.4394 71.7922 56.5521C71.7922 56.6085 71.7358 56.6085 71.7358 56.6649C71.6795 56.7213 71.6795 56.7777 71.6231 56.8341C71.6231 56.8904 71.5668 56.8904 71.5668 56.9468C71.5104 57.0032 71.5104 57.0596 71.4541 57.116C71.4541 57.1724 71.3977 57.1724 71.3977 57.2287C71.3414 57.2851 71.3414 57.3415 71.285 57.3979C71.285 57.4543 71.2287 57.4543 71.1723 57.5106C71.116 57.567 71.116 57.6234 71.0596 57.6234C71.0033 57.6798 71.0033 57.6798 70.9469 57.7362C70.8906 57.7926 70.8906 57.8489 70.8342 57.8489C70.7779 57.9053 70.7779 57.9053 70.7215 57.9617C70.6651 58.0181 70.6088 58.0745 70.6088 58.0745C70.6088 58.1309 70.5524 58.1309 70.5524 58.1872L70.4961 58.2436V58.3564V95.1181H80.1886V58.3564V57.8489H80.1322Z" fill="#FECF0A"/>
<path d="M112.196 61.9085C111.915 61.5702 112.027 61.2883 112.196 61.0064V59.6532C111.52 59.6532 110.9 59.7095 110.562 59.3149C109.999 58.6383 111.351 57.6798 111.464 56.6649C111.351 56.6649 111.182 56.6649 111.069 56.6085C110.844 57.0595 110.562 57.5106 110.224 57.9617C110.055 57.3415 109.548 56.834 109.21 56.2702C109.153 56.2702 109.097 56.2702 109.097 56.2138L109.153 56.1574C109.097 56.101 109.097 55.9883 109.041 55.9319C108.759 56.3829 108.477 56.834 108.139 57.2287V95.0617H112.196V61.9085C112.253 61.9085 112.196 61.9085 112.196 61.9085Z" fill="#E9BD1F"/>
<path d="M67.115 40.0883L66.1006 38.3404L65.0863 36.5925L64.0719 38.3404L63.0576 40.0883H65.0863H67.115Z" fill="#7BBA42"/>
<path d="M90.501 30.7852L88.7541 31.8001L87.0072 32.8149L88.8105 33.8298L90.5574 34.7883V32.7586L90.501 30.7852Z" fill="#7BBA42"/>
<path d="M82.499 27.7968L81.3719 26.1053L80.3013 24.4138L79.3433 26.1617L78.4417 27.9659L80.4703 27.9096L82.499 27.7968Z" fill="#7BBA42"/>
<path d="M48.4062 18.0989L50.0967 16.9712L51.7873 15.9L49.984 14.9978L48.1808 14.0957L48.2935 16.1255L48.4062 18.0989Z" fill="#7BBA42"/>
<path d="M100.081 16.7458L100.701 14.8288L101.32 12.9117L99.3482 13.3064L97.3759 13.7575L98.7283 15.2234L100.081 16.7458Z" fill="#7BBA42"/>
<path d="M64.9173 13.0244L65.3118 14.3212L66.1007 13.1936L67.4531 13.2499L66.6079 12.1787L67.0587 10.8819L65.8189 11.2765L64.6919 10.4872L64.7483 11.8404L63.6212 12.6297L64.9173 13.0244Z" fill="#FECF0A"/>
<path d="M94.9527 27.0638L95.798 28.0223L96.0798 26.7819L97.2632 26.2744L96.1361 25.6542L96.0234 24.3574L95.0655 25.2032L93.8257 24.9213L94.3329 26.1053L93.713 27.1766L94.9527 27.0638Z" fill="#FECF0A"/>
<path d="M100.701 38.7352L100.081 39.8065L101.264 39.6373L102.053 40.5958L102.335 39.3554L103.405 38.9044L102.391 38.2841L102.278 37.1001L101.377 37.8895L100.193 37.6639L100.701 38.7352Z" fill="#FECF0A"/>
<path d="M76.8639 38.4531L77.7655 39.5244L78.0473 38.1148L79.3434 37.551L78.1036 36.8744L77.9909 35.4648L76.9766 36.4234L75.5678 36.0851L76.1877 37.3819L75.4551 38.6223L76.8639 38.4531Z" fill="#FECF0A"/>
<path d="M49.8713 34.3371L50.942 35.5211L51.2238 33.9988L52.6889 33.3786L51.3365 32.5892L51.1674 30.9541L49.984 32.0818L48.4625 31.6871L49.1387 33.153L48.2935 34.5062L49.8713 34.3371Z" fill="#FECF0A"/>
<path d="M111.689 22.8351L112.591 23.9064L112.873 22.5532L114.169 21.9894L112.985 21.3128L112.873 19.9032L111.802 20.8617L110.449 20.5234L111.013 21.8202L110.28 23.0043L111.689 22.8351Z" fill="#FECF0A"/>
<path d="M82.499 8.79574L83.3443 9.81063L83.626 8.51382L84.8094 8.00638L83.6824 7.38616L83.5697 6.08936L82.6117 6.99148L81.372 6.70957L81.8792 7.83723L81.2593 8.96489L82.499 8.79574Z" fill="#FECF0A"/>
<path d="M127.862 35.2956L131.525 42.1744L126.51 32.7584L120.762 21.9329L101.884 31.969L106.167 39.9754C107.519 39.2988 109.097 38.4531 110.9 37.4946C123.692 30.785 127.862 35.2956 127.862 35.2956Z" fill="#7BBA42"/>
<path d="M142.626 63.0361L141.837 61.5137L138.682 55.5935L138.569 55.368L138.175 54.635L141.837 61.5137C141.837 61.5137 143.246 67.4903 130.511 74.369C128.707 75.3276 127.13 76.1733 125.833 76.9063L128.989 82.8829L147.867 72.8467L142.626 63.0361Z" fill="#7BBA42"/>
<path d="M138.005 54.2967L136.991 52.3796L118.113 62.4158L122.002 69.7456C128.933 65.9116 137.724 59.9913 138.005 54.2967Z" fill="#7BBA42"/>
<path d="M132.427 43.8097L131.75 42.5692C126.904 39.5809 117.043 43.5841 109.999 47.1926L113.549 53.8458L132.427 43.8097Z" fill="#7BBA42"/>
<path d="M152.037 80.7404L133.216 90.7766L135.413 95.0053L154.291 84.9127L150.741 78.3159L152.037 80.7404Z" fill="#72A140"/>
<path d="M147.911 72.8895L129.057 82.9287L131.307 87.1596L150.161 77.1203L147.911 72.8895Z" fill="#72A140"/>
<path d="M150.741 78.3159L150.121 77.1882L131.3 87.168L127.693 89.0851C128.2 89.1978 128.764 89.2542 129.271 89.2542C128.764 89.8744 128.595 90.7202 128.031 91.2276C128.933 91.3404 129.778 91.3968 130.68 91.2276C130.567 91.6787 130.285 92.0733 130.004 92.4116L133.159 90.7202L152.037 80.684L150.741 78.3159Z" fill="#E9BD1F"/>
<path d="M164.829 61.9649C160.772 55.2553 141.499 54.1277 141.499 54.1277C141.837 54.8607 142.063 55.5936 142.175 56.2702C142.232 56.3266 142.288 56.3266 142.288 56.3266C142.288 56.3266 150.797 58.6383 154.009 63.7692C157.221 68.9564 148.261 73.1851 142.626 62.9798L147.867 72.8468L150.121 77.0756L150.741 78.2032C159.87 82.15 168.886 68.6181 164.829 61.9649Z" fill="#FECF0A"/>
<path d="M141.048 59.9916L138.738 55.6501L141.894 61.5704C141.612 61.0065 141.33 60.4991 141.161 59.9916C141.048 59.9916 141.048 59.9916 141.048 59.9916Z" fill="#FECF0A"/>
<path d="M139.978 51.9852C138.738 50.7447 137.273 50.2373 136.146 50.7447H136.09L137.949 54.2405L138.513 55.3118L138.625 55.5373L140.936 59.8788C140.936 59.8788 140.992 59.8788 140.992 59.8224C142.007 59.2586 142.401 57.7926 142.119 56.1575C142.007 55.4809 141.781 54.7479 141.443 54.015C141.387 53.9022 141.33 53.8458 141.33 53.733C140.992 53.1692 140.485 52.4926 139.978 51.9852Z" fill="#E9BD1F"/>
<path d="M141.837 61.5701L138.175 54.6914L138.569 55.4244L138.005 54.3531L136.146 50.8574H136.202C135.977 50.4627 135.751 50.068 135.47 49.617L134.681 48.0946C129.384 37.7765 137.893 32.6457 140.372 38.2276C142.852 43.8095 140.034 52.0978 140.034 52.0978C140.541 52.6053 141.048 53.2819 141.443 54.0148C141.443 54.0148 151.248 37.4382 147.98 30.2776C144.711 23.1733 128.482 23.117 126.566 32.8148L131.581 42.2308L127.919 35.3521C127.919 35.3521 123.748 30.8414 110.957 37.551C109.153 38.5095 107.576 39.2989 106.223 40.0319C98.1648 44.2606 98.1648 44.2606 98.1648 44.2606L99.2918 44.4861L101.997 44.9936L104.307 45.4446L102.109 51.7595C102.109 51.7595 105.491 49.5606 110.055 47.2489C117.099 43.6404 126.961 39.6372 131.807 42.6255L132.483 43.8659L113.605 53.9021L109.21 56.2138L109.153 56.2701C109.21 56.2701 109.266 56.2701 109.266 56.3265C109.886 56.4957 110.506 56.6648 111.126 56.7212C111.238 56.7212 111.407 56.7212 111.52 56.7776C111.464 57.7925 110.055 58.751 110.619 59.4276C110.957 59.8223 111.633 59.7659 112.253 59.7659C112.647 59.7659 113.042 59.8223 113.38 59.9914C113.098 60.3297 112.534 60.7244 112.253 61.1755C112.027 61.4574 111.971 61.7957 112.253 62.0776C112.253 62.0776 112.253 62.0776 112.253 62.134C112.76 62.8106 114.563 62.1904 114.732 62.8106C114.901 63.4308 114.45 64.1074 114 64.784L116.085 63.6563L118.057 62.585L136.935 52.5489L137.949 54.4659C137.724 60.1606 128.877 66.0808 121.945 69.9148C119.635 71.2116 117.55 72.2265 116.028 72.9595C114.62 73.6361 113.774 73.9744 113.774 73.9744L116.028 74.5946L120.198 75.7223L117.775 81.5297C117.775 81.5297 117.775 81.5297 125.777 77.1882C127.13 76.4552 128.651 75.6095 130.454 74.651C143.246 67.5467 141.837 61.5701 141.837 61.5701Z" fill="#FECF0A"/>
<path d="M53.4778 11.333C53.5905 11.4458 53.7032 11.5586 53.8159 11.7277C53.8722 11.7841 53.9286 11.8969 54.0413 11.9532C54.0976 12.0096 54.0976 12.0096 54.154 12.066C54.2103 12.1224 54.2103 12.1788 54.2667 12.1788C54.4357 12.3479 54.6048 12.5735 54.7739 12.7426C54.8302 12.8554 54.9429 12.9681 55.0556 13.0809C55.112 13.1937 55.2247 13.3064 55.3374 13.4192C55.4501 13.532 55.5064 13.6447 55.6191 13.7575C55.7318 13.8703 55.7882 13.983 55.9009 14.0958C56.0699 14.3213 56.239 14.6032 56.4644 14.8288C56.5771 14.9415 56.6335 15.0543 56.7462 15.2235C56.8589 15.3362 56.9152 15.5054 57.0279 15.6181C57.0843 15.6745 57.1406 15.7309 57.1406 15.7873C57.197 15.8437 57.2533 15.9001 57.2533 15.9564C57.3097 16.0692 57.4224 16.182 57.4787 16.3511C57.8169 16.8586 58.0986 17.3096 58.3804 17.7043C58.4931 17.9298 58.6058 18.099 58.7185 18.2681C58.8312 18.4373 58.9439 18.6064 59.0002 18.7192C59.0566 18.832 59.1693 18.9447 59.1693 19.0011C59.2257 19.0575 59.2257 19.1139 59.2257 19.1139H59.282C59.282 19.1139 59.2257 18.9447 59.1693 18.6628C59.0566 18.3809 58.9439 17.9862 58.7748 17.5352C58.6058 17.0841 58.324 16.5767 58.0423 16.0128C57.8732 15.7309 57.7605 15.449 57.5914 15.2235C57.4224 14.9415 57.2533 14.6596 57.0843 14.4341C56.9152 14.1522 56.6898 13.9267 56.5208 13.6447C56.4081 13.532 56.2954 13.4192 56.239 13.3064C56.1263 13.1937 56.0136 13.0809 55.9572 12.9681C55.8445 12.8554 55.7318 12.7426 55.6755 12.6298C55.5628 12.5171 55.4501 12.4043 55.3937 12.3479C55.1683 12.1788 54.9993 11.9532 54.8302 11.8405C54.6612 11.6713 54.4357 11.5586 54.323 11.4458C54.154 11.333 54.0413 11.2203 53.9286 11.1639C53.7032 10.9947 53.5341 10.9384 53.5341 10.9384L53.4778 10.9947C53.4778 10.9947 53.4778 11.0511 53.5341 11.1075C53.3087 11.1639 53.3651 11.2203 53.4778 11.333Z" fill="#FECF0A"/>
<path d="M67.284 27.2329C67.2276 27.1765 67.2276 27.1202 67.1713 27.1202C67.1149 27.0638 67.0022 26.951 66.9459 26.8946C66.8332 26.7819 66.6641 26.6127 66.6078 26.5563C66.3824 26.3872 66.2697 26.2744 66.2697 26.2744C66.2697 26.2744 66.2697 26.3308 66.326 26.3872C66.3824 26.4436 66.4387 26.5563 66.5514 26.6127C66.6641 26.7255 66.7205 26.8382 66.8895 27.0074C66.9459 27.0638 67.0022 27.1765 67.0586 27.2329C67.1149 27.2893 67.1149 27.3457 67.1713 27.3457C67.2276 27.4021 67.2276 27.4585 67.284 27.5148C67.453 27.684 67.5657 27.9095 67.7348 28.1351C67.7912 28.2478 67.9039 28.3606 67.9602 28.4734C68.0166 28.5861 68.1293 28.6989 68.1856 28.868C68.242 28.9808 68.3547 29.1499 68.411 29.2627C68.4674 29.3755 68.5801 29.5446 68.6364 29.6574C68.8055 29.9393 68.9182 30.2212 69.0309 30.5031C69.1436 30.7851 69.3127 31.067 69.4254 31.3489C69.4817 31.518 69.5381 31.6308 69.5944 31.7999C69.6508 31.9691 69.7071 32.0819 69.7635 32.251C69.8762 32.5329 69.9889 32.8148 70.0452 33.0404C70.1579 33.3223 70.2143 33.5478 70.2706 33.7734C70.327 33.9989 70.3833 34.2244 70.4397 34.3936C70.496 34.5627 70.5524 34.7319 70.5524 34.901C70.6087 35.0138 70.6087 35.1265 70.6651 35.2393C70.6651 35.2957 70.6651 35.3521 70.6651 35.3521H70.7215C70.7215 35.3521 70.6651 34.7319 70.4397 33.7734C70.327 33.3223 70.1579 32.7585 69.9889 32.1946C69.8762 31.9127 69.7635 31.6308 69.6508 31.2925C69.5381 31.0106 69.4254 30.6723 69.2563 30.3904C69.1436 30.1085 68.9745 29.8265 68.8055 29.5446C68.7491 29.4319 68.6364 29.2627 68.5801 29.1499C68.5237 29.0372 68.411 28.868 68.3547 28.7553C68.2983 28.6425 68.1856 28.5297 68.1293 28.3606C68.0729 28.2478 67.9602 28.1351 67.9039 28.0223C67.7348 27.7968 67.5657 27.5712 67.3967 27.4021C67.3967 27.2893 67.3403 27.2329 67.284 27.2329Z" fill="#FECF0A"/>
<path d="M47.7863 38.3403C48.0117 38.5659 48.1808 38.735 48.4062 38.9605C48.5752 39.1861 48.7443 39.3552 48.9133 39.5244C49.0824 39.6935 49.1951 39.8627 49.3642 40.0318C49.4769 40.201 49.5896 40.3137 49.7023 40.4265C49.815 40.5393 49.8713 40.5957 49.9277 40.7084C49.984 40.7648 49.984 40.8212 49.984 40.8212C49.984 40.8212 49.6459 40.2574 49.0824 39.468C48.8006 39.0733 48.4062 38.6223 48.0117 38.1712C47.7863 37.9457 47.5609 37.7201 47.3355 37.4946C47.1101 37.2691 46.8847 37.0435 46.6029 36.818C46.3775 36.5925 46.0957 36.4233 45.8703 36.1978C45.7576 36.085 45.5886 36.0286 45.4759 35.9159C45.3632 35.8031 45.1941 35.7467 45.0814 35.634C44.9687 35.5776 44.7997 35.4648 44.687 35.4084C44.5743 35.352 44.4615 35.2393 44.2925 35.1829C44.0671 35.0701 43.8417 34.901 43.6163 34.8446C43.5599 34.8446 43.5036 34.7882 43.4472 34.7882C43.3909 34.7882 43.3345 34.7318 43.2782 34.7318C43.1655 34.6754 43.0528 34.6191 42.9964 34.6191C42.8273 34.5627 42.6583 34.5063 42.5456 34.4499C42.2638 34.3371 42.1511 34.2808 42.1511 34.2808V34.3371C42.1511 34.3371 42.2075 34.3371 42.2638 34.3935C42.3202 34.4499 42.4329 34.5063 42.5456 34.5627C42.6583 34.6191 42.8273 34.7318 42.9964 34.7882C43.1091 34.8446 43.1655 34.901 43.2782 34.9574C43.3345 34.9574 43.3909 35.0137 43.4472 35.0137C43.5036 35.0701 43.5599 35.0701 43.6163 35.1265C43.8417 35.2393 44.0671 35.4084 44.2925 35.5212C44.4052 35.5776 44.5179 35.6903 44.6306 35.7467C44.7433 35.8031 44.856 35.9159 44.9687 35.9723C45.0814 36.085 45.1941 36.1414 45.3632 36.2542C45.4759 36.3669 45.5886 36.4233 45.7576 36.5361C45.983 36.7052 46.2648 36.9308 46.4902 37.1563C46.7156 37.3818 46.9974 37.551 47.2228 37.7765C47.3355 37.8893 47.4482 38.002 47.5609 38.1148C47.6172 38.1148 47.73 38.2276 47.7863 38.3403Z" fill="#FECF0A"/>
<path d="M71.9612 9.92339C72.0176 10.0362 72.1303 10.2053 72.243 10.3745C72.2993 10.4872 72.3557 10.5436 72.412 10.6564C72.412 10.7128 72.4684 10.7691 72.5247 10.8255C72.5247 10.8819 72.5811 10.9383 72.6374 10.9947C72.7501 11.2202 72.8628 11.4457 72.9755 11.6713C73.0319 11.784 73.0882 11.8968 73.1446 12.0659C73.2009 12.1787 73.2573 12.3479 73.3137 12.4606C73.37 12.5734 73.4263 12.7425 73.4827 12.8553C73.5391 13.0245 73.5954 13.1372 73.6518 13.3064C73.7645 13.5883 73.8772 13.8702 73.9899 14.2085C74.1026 14.4904 74.2153 14.8287 74.2716 15.1106C74.2716 15.167 74.328 15.2798 74.328 15.3362C74.328 15.3925 74.3843 15.5053 74.3843 15.5617C74.4407 15.7308 74.497 15.8436 74.497 16.0128C74.5534 16.2947 74.6661 16.5766 74.7224 16.8585C74.7788 17.1404 74.8351 17.3659 74.8915 17.5915C74.9478 17.817 75.0042 18.0425 75.0606 18.2117C75.1169 18.3808 75.1169 18.55 75.1733 18.7191C75.2296 18.8319 75.2296 18.9447 75.2296 19.0574C75.2296 19.1138 75.2296 19.1702 75.2296 19.1702H75.286C75.286 19.1702 75.286 18.4936 75.1733 17.5351C75.1169 17.0277 75.0042 16.5202 74.8915 15.9C74.8351 15.6181 74.7224 15.2798 74.6661 14.9979C74.5534 14.7159 74.497 14.3777 74.3843 14.0957C74.2716 13.8138 74.1589 13.4755 74.0462 13.1936C73.9899 13.0245 73.9335 12.9117 73.8772 12.7425C73.8208 12.6298 73.7645 12.4606 73.6518 12.3479C73.5954 12.2351 73.4827 12.0659 73.4264 11.9532C73.37 11.8404 73.2573 11.7276 73.2009 11.5585C73.0319 11.333 72.9192 11.1074 72.7501 10.8819C72.6938 10.8255 72.6938 10.7691 72.6374 10.7128C72.5811 10.6564 72.5811 10.6 72.5247 10.6C72.4684 10.4872 72.412 10.4308 72.3557 10.3745C72.243 10.2053 72.1303 10.0925 72.0176 9.97978C71.8485 9.75425 71.7358 9.64148 71.7358 9.64148L71.6794 9.69786C71.6794 9.69786 71.6794 9.75425 71.7358 9.81063C71.8485 9.75425 71.9049 9.81063 71.9612 9.92339Z" fill="#FECF0A"/>
<path d="M87.0635 24.0192C87.0635 24.0192 87.1199 23.85 87.2326 23.6245C87.3453 23.3426 87.458 23.0043 87.6834 22.5532C87.8524 22.1022 88.1342 21.5947 88.4159 21.0873C88.585 20.8054 88.6977 20.5798 88.8667 20.2979C89.0358 20.016 89.2049 19.7341 89.3739 19.5085C89.543 19.2266 89.7684 19.0011 89.9374 18.7192C90.0501 18.6064 90.1628 18.4937 90.2192 18.3809C90.3319 18.2681 90.4446 18.1554 90.501 18.0426C90.6137 17.9298 90.7264 17.8171 90.7827 17.7043C90.8954 17.5915 91.0081 17.4788 91.0645 17.4224C91.2899 17.2532 91.4589 17.0277 91.628 16.9149C91.6843 16.8585 91.7407 16.8585 91.7407 16.8022C91.797 16.7458 91.8534 16.7458 91.8534 16.6894C91.9661 16.633 92.0224 16.5766 92.0788 16.5203C92.2478 16.4075 92.3606 16.2947 92.4733 16.2383C92.6987 16.0692 92.8677 16.0128 92.8677 16.0128L92.8114 15.9564C92.8114 15.9564 92.755 15.9564 92.6987 16.0128C92.6423 16.0128 92.5296 16.0692 92.3606 16.1256C92.2478 16.182 92.0788 16.2383 91.8534 16.3511C91.6843 16.4639 91.4589 16.5203 91.2335 16.6894C91.1208 16.7458 91.0081 16.8022 90.8954 16.9149C90.7827 16.9713 90.67 17.0841 90.5573 17.1405C90.4446 17.2532 90.3319 17.3096 90.2192 17.4224C90.1065 17.5351 89.9938 17.6479 89.8811 17.7607C89.6557 17.9862 89.4303 18.2117 89.2049 18.4937C88.9795 18.7192 88.8104 19.0011 88.585 19.283C88.4159 19.5649 88.1905 19.8468 88.0215 20.1288C87.8524 20.4107 87.6834 20.6926 87.5707 20.9745C87.458 21.2564 87.3453 21.5383 87.2326 21.8203C87.1762 21.933 87.1199 22.1022 87.1199 22.2149C87.0635 22.3277 87.0635 22.4968 87.0071 22.6096C86.9508 22.8351 86.8944 23.0607 86.8381 23.2862C86.7817 23.5117 86.7817 23.6809 86.7817 23.7937C86.7817 23.9628 86.7817 24.0756 86.7817 24.132C86.7817 24.1883 86.7817 24.2447 86.7817 24.2447L87.0635 24.0192Z" fill="#FECF0A"/>
<path d="M102.673 20.0723C102.955 19.6777 103.349 19.2266 103.744 18.7755C103.969 18.55 104.138 18.3245 104.363 18.0989C104.589 17.8734 104.814 17.6479 105.04 17.4223C105.265 17.1968 105.547 17.0277 105.772 16.8021C105.885 16.6894 105.998 16.633 106.167 16.5202C106.279 16.4074 106.392 16.3511 106.561 16.2383C106.674 16.1819 106.787 16.0691 106.956 16.0128C107.068 15.9564 107.181 15.8436 107.294 15.7872C107.519 15.6745 107.745 15.5053 107.97 15.3926C108.026 15.3926 108.083 15.3362 108.139 15.3362C108.195 15.3362 108.252 15.2798 108.308 15.2798C108.421 15.2234 108.477 15.167 108.59 15.167C108.759 15.1106 108.928 14.9979 109.041 14.9979C109.322 14.8851 109.435 14.8287 109.435 14.8287V14.7723C109.435 14.7723 109.379 14.7723 109.322 14.7723C109.266 14.7723 109.153 14.8287 108.984 14.8287C108.872 14.8851 108.703 14.8851 108.477 14.9415C108.308 14.9979 108.083 15.0543 107.857 15.167C107.745 15.2234 107.632 15.2798 107.519 15.3362C107.406 15.3926 107.294 15.4489 107.125 15.5053C107.012 15.5617 106.843 15.6181 106.73 15.7308C106.618 15.7872 106.449 15.9 106.336 15.9564C106.223 16.0691 106.054 16.1255 105.941 16.2383C105.829 16.3511 105.66 16.4074 105.547 16.5202C105.265 16.7457 105.04 16.9149 104.758 17.1404C104.645 17.2532 104.533 17.366 104.42 17.4787C104.307 17.5915 104.194 17.7043 104.082 17.817C103.856 18.0426 103.631 18.2681 103.462 18.55C103.236 18.7755 103.067 19.0011 102.898 19.283C102.842 19.3957 102.729 19.5085 102.673 19.6213C102.617 19.734 102.504 19.8468 102.448 19.9596C102.335 20.1851 102.222 20.3543 102.109 20.5234C101.997 20.6926 101.94 20.8617 101.884 20.9745C101.828 21.0872 101.771 21.2 101.771 21.2564C101.771 21.3128 101.715 21.3691 101.715 21.3691H101.771C101.771 21.4255 102.109 20.8617 102.673 20.0723Z" fill="#FECF0A"/>
<path d="M92.586 36.9871C92.5297 37.0999 92.417 37.2126 92.3606 37.3254C92.2479 37.5509 92.1352 37.7201 92.0225 37.8892C91.9098 38.0584 91.8535 38.2275 91.7971 38.3403C91.7407 38.4531 91.6844 38.5658 91.6844 38.6222C91.628 38.6786 91.6281 38.735 91.6281 38.735C91.6281 38.735 91.9662 38.1711 92.5297 37.3818C92.8114 36.9871 93.2059 36.536 93.6004 36.085C93.8258 35.8594 93.9948 35.6339 94.2202 35.4084C94.4456 35.1828 94.671 34.9573 94.8964 34.7318C95.1219 34.5063 95.4036 34.3371 95.629 34.1116C95.7417 33.9988 95.8544 33.9424 96.0235 33.8297C96.1362 33.7169 96.2489 33.6605 96.4179 33.5477C96.5306 33.4914 96.6434 33.3786 96.8124 33.3222C96.9251 33.2658 97.0378 33.1531 97.1505 33.0967C97.3759 32.9839 97.6013 32.8148 97.8267 32.702C97.8831 32.702 97.9394 32.6456 97.9958 32.6456C98.0521 32.6456 98.1085 32.5892 98.1648 32.5892C98.2775 32.5328 98.3339 32.4765 98.4466 32.4765C98.6157 32.4201 98.7847 32.3073 98.8974 32.3073C99.1792 32.1946 99.2919 32.1382 99.2919 32.1382V32.0818C99.2919 32.0818 99.2355 32.0818 99.1792 32.0818C99.1228 32.0818 99.0101 32.1382 98.8411 32.1382C98.7284 32.1946 98.5593 32.2509 98.3339 32.3073C98.1648 32.3637 97.9394 32.4201 97.714 32.5329C97.6013 32.5892 97.4886 32.6456 97.3759 32.702C97.2632 32.7584 97.1505 32.8148 96.9815 32.8711C96.8688 32.9275 96.756 32.9839 96.587 33.0967C96.4743 33.1531 96.3052 33.2658 96.1925 33.3222C96.0798 33.435 95.9108 33.4914 95.7981 33.6041C95.6854 33.7169 95.5163 33.7733 95.4036 33.886C95.1219 34.1116 94.8964 34.2807 94.6147 34.5063C94.502 34.619 94.3893 34.7318 94.2766 34.8446C94.1639 34.9573 94.0512 35.0701 93.9385 35.1828C93.7131 35.4084 93.4877 35.6339 93.3186 35.8594C93.0932 36.085 92.9241 36.3105 92.7551 36.536C92.7551 36.7616 92.6424 36.8743 92.586 36.9871Z" fill="#FECF0A"/>
</svg>
