<svg width="192" height="160" viewBox="0 0 192 160" fill="none" xmlns="http://www.w3.org/2000/svg">
<g clip-path="url(#clip0_11_265)">
<path d="M180.056 98.1334C177.242 96.0001 174.427 93.8668 172.78 90.77C164.336 75.0109 181.978 56.499 172.162 39.4324C167.22 30.7614 157.403 24.4302 147.793 28.0087C137.565 31.8625 127.955 35.8539 116.971 32.6883C97.7509 27.1141 87.7973 1.03238 66.9293 1.44528C49.768 1.85818 30.6161 19.9571 40.5696 38.7442C48.1206 52.9894 43.3841 64.7571 26.0169 67.2345C8.6497 69.7119 1.09875 90.2883 6.24712 99.0969C11.3955 107.905 21.2804 117.265 11.876 121.187C2.47165 125.11 -0.823309 137.841 0.13772 146.718C1.09875 155.527 2.95216 158.968 2.95216 158.968H183.351C183.351 158.968 190.971 149.127 191.932 126.555C192.344 116.783 190.353 107.217 182.939 100.473C182.047 99.7162 181.017 98.9593 180.056 98.1334Z" fill="#C6FF00"/>
<path opacity="0.7" d="M180.056 98.1334C177.242 96.0001 174.427 93.8668 172.78 90.77C164.336 75.0109 181.978 56.499 172.162 39.4324C167.22 30.7614 157.403 24.4302 147.793 28.0087C137.565 31.8625 127.955 35.8539 116.971 32.6883C97.7509 27.1141 87.7973 1.03238 66.9293 1.44528C49.768 1.85818 30.6161 19.9571 40.5696 38.7442C48.1206 52.9894 43.3841 64.7571 26.0169 67.2345C8.6497 69.7119 1.09875 90.2883 6.24712 99.0969C11.3955 107.905 21.2804 117.265 11.876 121.187C2.47165 125.11 -0.823309 137.841 0.13772 146.718C1.09875 155.527 2.95216 158.968 2.95216 158.968H183.351C183.351 158.968 190.971 149.127 191.932 126.555C192.344 116.783 190.353 107.217 182.939 100.473C182.047 99.7162 181.017 98.9593 180.056 98.1334Z" fill="white"/>
<path d="M184.861 160H12.9736V140.249H19.083V134.469H28.556V108.112H40.0884V113.892H45.3741V130.89H56.2886V121.6H64.4574V129.927H78.7355V118.71H103.585V134.469H107.978V128.206H106.468V124.215H121.089V127.862H118.069V128.688H125.895V120.98H130.082V96.8945H142.369V106.185H147.93V80.1719H158.364V123.251H167.082V133.849H173.191V139.286H184.998V160H184.861ZM15.033 157.935H182.733V141.35H170.926V135.914H164.816V125.316H156.098V82.2364H149.783V108.249H140.104V98.959H131.935V123.045H127.748V130.753H115.804V126.279H109.9V136.533H101.388V120.774H80.6576V131.991H62.398V123.664H58.348V132.955H43.3834V115.957H38.0977V110.176H30.6154V136.533H21.1424V142.314H15.033V157.935Z" fill="#1E2C35"/>
<path d="M33.3611 114.925H31.3018V116.989H33.3611V114.925Z" fill="#1E2C35"/>
<path d="M37.617 114.925H35.5576V116.989H37.617V114.925Z" fill="#1E2C35"/>
<path d="M33.3611 119.191H31.3018V121.256H33.3611V119.191Z" fill="#1E2C35"/>
<path d="M37.617 119.191H35.5576V121.256H37.617V119.191Z" fill="#1E2C35"/>
<path d="M42.2166 119.191H40.1572V121.256H42.2166V119.191Z" fill="#1E2C35"/>
<path d="M42.2166 123.458H40.1572V125.523H42.2166V123.458Z" fill="#1E2C35"/>
<path d="M42.2166 127.794H40.1572V129.858H42.2166V127.794Z" fill="#1E2C35"/>
<path d="M42.2166 132.061H40.1572V134.125H42.2166V132.061Z" fill="#1E2C35"/>
<path d="M42.2166 136.327H40.1572V138.392H42.2166V136.327Z" fill="#1E2C35"/>
<path d="M42.2166 140.662H40.1572V142.727H42.2166V140.662Z" fill="#1E2C35"/>
<path d="M33.3611 123.458H31.3018V125.523H33.3611V123.458Z" fill="#1E2C35"/>
<path d="M37.617 123.458H35.5576V125.523H37.617V123.458Z" fill="#1E2C35"/>
<path d="M33.3611 127.794H31.3018V129.858H33.3611V127.794Z" fill="#1E2C35"/>
<path d="M37.617 127.794H35.5576V129.858H37.617V127.794Z" fill="#1E2C35"/>
<path d="M33.3611 132.061H31.3018V134.125H33.3611V132.061Z" fill="#1E2C35"/>
<path d="M37.617 132.061H35.5576V134.125H37.617V132.061Z" fill="#1E2C35"/>
<path d="M33.3611 136.327H31.3018V138.392H33.3611V136.327Z" fill="#1E2C35"/>
<path d="M23.9568 138.735H21.8975V140.8H23.9568V138.735Z" fill="#1E2C35"/>
<path d="M53.5427 134.125H51.4834V136.19H53.5427V134.125Z" fill="#1E2C35"/>
<path d="M57.6619 134.125H55.6025V136.19H57.6619V134.125Z" fill="#1E2C35"/>
<path d="M152.323 83.6816H150.264V85.7462H152.323V83.6816Z" fill="#1E2C35"/>
<path d="M154.863 83.6816H152.804V85.7462H154.863V83.6816Z" fill="#1E2C35"/>
<path d="M152.323 87.9482H150.264V90.0128H152.323V87.9482Z" fill="#1E2C35"/>
<path d="M154.863 87.9482H152.804V90.0128H154.863V87.9482Z" fill="#1E2C35"/>
<path d="M152.323 92.2148H150.264V94.2794H152.323V92.2148Z" fill="#1E2C35"/>
<path d="M154.863 92.2148H152.804V94.2794H154.863V92.2148Z" fill="#1E2C35"/>
<path d="M152.323 96.5508H150.264V98.6153H152.323V96.5508Z" fill="#1E2C35"/>
<path d="M154.863 96.5508H152.804V98.6153H154.863V96.5508Z" fill="#1E2C35"/>
<path d="M152.323 100.817H150.264V102.882H152.323V100.817Z" fill="#1E2C35"/>
<path d="M154.863 100.817H152.804V102.882H154.863V100.817Z" fill="#1E2C35"/>
<path d="M152.323 105.084H150.264V107.149H152.323V105.084Z" fill="#1E2C35"/>
<path d="M154.863 105.084H152.804V107.149H154.863V105.084Z" fill="#1E2C35"/>
<path d="M152.323 109.419H150.264V111.483H152.323V109.419Z" fill="#1E2C35"/>
<path d="M154.863 109.419H152.804V111.483H154.863V109.419Z" fill="#1E2C35"/>
<path d="M152.323 113.686H150.264V115.75H152.323V113.686Z" fill="#1E2C35"/>
<path d="M154.863 113.686H152.804V115.75H154.863V113.686Z" fill="#1E2C35"/>
<path d="M152.323 117.953H150.264V120.018H152.323V117.953Z" fill="#1E2C35"/>
<path d="M154.863 117.953H152.804V120.018H154.863V117.953Z" fill="#1E2C35"/>
<path d="M134.819 117.953H132.76V120.018H134.819V117.953Z" fill="#1E2C35"/>
<path d="M139.281 117.953H137.222V120.018H139.281V117.953Z" fill="#1E2C35"/>
<path d="M143.743 117.953H141.684V120.018H143.743V117.953Z" fill="#1E2C35"/>
<path d="M134.819 127.243H132.76V129.308H134.819V127.243Z" fill="#1E2C35"/>
<path d="M139.281 127.243H137.222V129.308H139.281V127.243Z" fill="#1E2C35"/>
<path d="M143.743 127.243H141.684V129.308H143.743V127.243Z" fill="#1E2C35"/>
<path d="M134.819 136.533H132.76V138.598H134.819V136.533Z" fill="#1E2C35"/>
<path d="M139.281 136.533H137.222V138.598H139.281V136.533Z" fill="#1E2C35"/>
<path d="M143.743 136.533H141.684V138.598H143.743V136.533Z" fill="#1E2C35"/>
<path d="M152.323 122.288H150.264V124.353H152.323V122.288Z" fill="#1E2C35"/>
<path d="M154.863 122.288H152.804V124.353H154.863V122.288Z" fill="#1E2C35"/>
<path d="M152.323 126.555H150.264V128.619H152.323V126.555Z" fill="#1E2C35"/>
<path d="M154.863 126.555H152.804V128.619H154.863V126.555Z" fill="#1E2C35"/>
<path d="M152.323 130.821H150.264V132.886H152.323V130.821Z" fill="#1E2C35"/>
<path d="M154.863 130.821H152.804V132.886H154.863V130.821Z" fill="#1E2C35"/>
<path d="M159.119 126.555H157.06V128.619H159.119V126.555Z" fill="#1E2C35"/>
<path d="M163.925 126.555H161.865V128.619H163.925V126.555Z" fill="#1E2C35"/>
<path d="M159.119 130.684H157.06V132.748H159.119V130.684Z" fill="#1E2C35"/>
<path d="M163.925 130.684H161.865V132.748H163.925V130.684Z" fill="#1E2C35"/>
<path d="M159.119 134.812H157.06V136.877H159.119V134.812Z" fill="#1E2C35"/>
<path d="M163.925 134.812H161.865V136.877H163.925V134.812Z" fill="#1E2C35"/>
<path d="M159.119 138.942H157.06V141.007H159.119V138.942Z" fill="#1E2C35"/>
<path d="M163.925 138.942H161.865V141.007H163.925V138.942Z" fill="#1E2C35"/>
<path d="M152.323 135.157H150.264V137.222H152.323V135.157Z" fill="#1E2C35"/>
<path d="M154.863 135.157H152.804V137.222H154.863V135.157Z" fill="#1E2C35"/>
<path d="M152.323 139.424H150.264V141.488H152.323V139.424Z" fill="#1E2C35"/>
<path d="M154.863 139.424H152.804V141.488H154.863V139.424Z" fill="#1E2C35"/>
<path d="M37.617 136.327H35.5576V138.392H37.617V136.327Z" fill="#1E2C35"/>
<path d="M33.3611 140.662H31.3018V142.727H33.3611V140.662Z" fill="#1E2C35"/>
<path d="M37.617 140.662H35.5576V142.727H37.617V140.662Z" fill="#1E2C35"/>
<path d="M33.3611 144.929H31.3018V146.993H33.3611V144.929Z" fill="#1E2C35"/>
<path d="M37.617 144.929H35.5576V146.993H37.617V144.929Z" fill="#1E2C35"/>
<path d="M33.3611 149.195H31.3018V151.26H33.3611V149.195Z" fill="#1E2C35"/>
<path d="M37.617 149.195H35.5576V151.26H37.617V149.195Z" fill="#1E2C35"/>
<path d="M146.832 160H127.68V141.075H146.832V148.989H144.772V143.14H129.739V157.935H144.772V150.503H146.832V160Z" fill="#1E2C35"/>
<path d="M178.34 160H159.119V149.058H163.718V151.122H161.178V157.935H176.28V156.421H178.34V160Z" fill="#1E2C35"/>
<path d="M178.339 155.045H176.28V151.122H165.777V149.058H178.339V155.045Z" fill="#1E2C35"/>
<path d="M64.3199 160H45.168V149.058H49.4926V151.122H47.2273V157.935H62.2606V151.122H51.1401V149.058H64.3199V160Z" fill="#1E2C35"/>
<path d="M27.0459 160H18.6025V149.058H23.0645V151.122H20.6619V157.935H24.9865V151.122H24.3687V149.058H27.0459V160Z" fill="#1E2C35"/>
<path d="M139.624 160H134.818V141.075H139.624V160ZM136.878 157.935H137.564V143.14H136.878V157.935Z" fill="#1E2C35"/>
<path d="M124.728 145.411H119.785V143.347H122.669V141.007H115.667V143.347H117.314V145.411H113.607V138.942H124.728V145.411Z" fill="#1E2C35"/>
<path d="M70.2922 141.694H57.7988V135.845H70.2922V141.694ZM59.8582 139.63H68.2329V137.909H59.8582V139.63Z" fill="#1E2C35"/>
<path d="M65.8996 135.845H62.8105V160.068H65.8996V135.845Z" fill="#1E2C35"/>
<path d="M92.3959 2.4082C60.6133 2.4082 34.8027 28.2835 34.8027 60.1458C34.8027 92.0082 92.3959 156.834 92.3959 156.834C92.3959 156.834 149.989 92.077 149.989 60.1458C149.989 28.2835 124.179 2.4082 92.3959 2.4082ZM117.383 88.0856C117.383 88.0856 75.9897 88.0856 68.2328 88.9803C60.476 89.8749 63.1531 81.1351 63.1531 81.1351L88.2085 34.477C93.5628 28.0082 97.2697 35.9222 97.2697 35.9222C97.2697 35.9222 116.49 71.7759 120.403 78.9329C124.247 86.1587 117.383 88.0856 117.383 88.0856Z" fill="#C6FF00"/>
<path d="M92.3961 159.174C91.7097 159.174 91.0918 158.899 90.6113 158.348C88.2088 155.665 32.4004 92.4903 32.4004 60.0774C32.4004 26.9763 59.3092 0 92.3961 0C125.483 0 152.392 26.9763 152.392 60.1462C152.392 92.5591 96.5834 155.733 94.1809 158.417C93.769 158.899 93.0826 159.174 92.3961 159.174ZM92.3961 4.8172C61.9864 4.8172 37.2055 29.6602 37.2055 60.1462C37.2055 87.6043 82.7172 141.901 92.3961 153.118C102.075 141.901 147.587 87.6043 147.587 60.1462C147.587 29.6602 122.806 4.8172 92.3961 4.8172Z" fill="#1E2C35"/>
<path d="M92.3961 80.8607C90.7486 80.8607 89.4443 79.5531 89.4443 77.9015C89.4443 76.2499 90.7486 74.9424 92.3961 74.9424C94.0436 74.9424 95.3478 76.2499 95.3478 77.9015C95.3478 79.5531 93.9749 80.8607 92.3961 80.8607Z" fill="#1E2C35"/>
<path d="M80 18L50 43V71L68 101L94 111L132 85V56L113 18H80Z" fill="#C6FF00"/>
<path fill-rule="evenodd" clip-rule="evenodd" d="M120.002 84.2864C120.002 87.995 116.996 91.0019 113.288 91.0019H72.7161C69.0071 91.0019 66 87.995 66 84.2864V43.7155C66 40.0068 69.0071 37 72.7161 37H113.288C116.996 37 120.002 40.0068 120.002 43.7155V84.2864Z" fill="#8EC23C"/>
<path fill-rule="evenodd" clip-rule="evenodd" d="M92.4803 62.6895C90.1136 62.6895 87.9144 63.4069 86.0873 64.6355L91.511 68.0404V69.9236C91.8229 69.8522 92.1467 69.8112 92.4803 69.8112C94.8802 69.8112 96.8272 71.7576 96.8272 74.159C96.8272 76.5592 94.8802 78.5056 92.4803 78.5056C90.0798 78.5056 88.134 76.5592 88.134 74.159C88.134 72.8985 88.6733 71.7666 89.5301 70.9724C87.0557 70.4682 84.8083 69.3423 82.9581 67.7636C81.7279 69.5907 81.0098 71.7911 81.0098 74.159C81.0098 80.4931 86.1456 85.6286 92.4803 85.6286C98.815 85.6286 103.95 80.4931 103.95 74.159C103.95 67.825 98.815 62.6895 92.4803 62.6895Z" fill="#CAFC9D"/>
<path fill-rule="evenodd" clip-rule="evenodd" d="M105.724 56.5972C105.724 63.9122 99.7943 69.8406 92.4797 69.8406C85.1654 69.8406 79.2354 63.9122 79.2354 56.5972C79.2354 49.2829 85.1654 43.3525 92.4797 43.3525C99.7943 43.3525 105.724 49.2829 105.724 56.5972Z" fill="#CAFC9D"/>
<path fill-rule="evenodd" clip-rule="evenodd" d="M103.461 46.8611C105.011 46.8082 106.257 44.9109 106.257 43.3525H98.8145C100.591 44.2041 102.168 45.4039 103.461 46.8611Z" fill="#CAFC9D"/>
<path fill-rule="evenodd" clip-rule="evenodd" d="M92.4809 62.6895C89.0306 62.6895 85.9386 64.2143 83.8359 66.6255C86.0633 68.5462 88.9348 69.7391 92.0854 69.8315C92.2154 69.8187 92.3475 69.8112 92.4809 69.8112C92.6144 69.8112 92.7462 69.8187 92.8771 69.8315C96.0265 69.7391 98.8992 68.5469 101.126 66.6255C99.0233 64.2143 95.9312 62.6895 92.4809 62.6895Z" fill="#FCF5FF"/>
</g>
<defs>
<clipPath id="clip0_11_265">
<rect width="192" height="160" fill="white"/>
</clipPath>
</defs>
</svg>
