<?xml version="1.0" encoding="utf-8"?>
<!-- Generator: Adobe Illustrator 19.0.0, SVG Export Plug-In . SVG Version: 6.00 Build 0)  -->
<svg version="1.1" id="Layer_1" xmlns="http://www.w3.org/2000/svg" xmlns:xlink="http://www.w3.org/1999/xlink" x="0px" y="0px"
	 viewBox="0 0 155.8 39.3" style="enable-background:new 0 0 155.8 39.3;" xml:space="preserve">
<style type="text/css">
	.st0{fill:#F9BC15;stroke:#F9BC15;stroke-width:4.8305;stroke-miterlimit:10;}
	.st1{fill:#34A851;stroke:#34A851;stroke-width:4.8305;stroke-miterlimit:10;}
	.st2{fill:#547DBF;stroke:#547DBF;stroke-width:4.8305;stroke-miterlimit:10;}
	.st3{fill:#EA4435;}
</style>
<path id="XMLID_8_" class="st0" d="M45.3,34.6c-2.6-1.4-4.6-3.4-6.1-6c-1.5-2.6-2.3-5.5-2.3-8.6c0-3.2,0.8-6.1,2.3-8.6
	c1.5-2.6,3.5-4.5,6.1-5.9c2.6-1.4,5.4-2.1,8.5-2.1s5.9,0.7,8.5,2.1c2.6,1.4,4.6,3.4,6,5.9c1.5,2.6,2.2,5.5,2.2,8.6
	c0,3.2-0.7,6.1-2.2,8.6c-1.5,2.6-3.5,4.5-6.1,6c-2.6,1.4-5.4,2.2-8.5,2.2C50.6,36.8,47.8,36.1,45.3,34.6z M59.2,26.1
	c1.4-1.5,2-3.5,2-6.1c0-2.6-0.7-4.6-2-6.1c-1.4-1.5-3.2-2.3-5.5-2.3c-2.4,0-4.2,0.8-5.5,2.3c-1.4,1.5-2,3.6-2,6.1
	c0,2.6,0.7,4.6,2,6.1c1.4,1.5,3.2,2.3,5.5,2.3S57.8,27.6,59.2,26.1z"/>
<path id="XMLID_5_" class="st1" d="M87.8,34.6c-2.6-1.4-4.6-3.4-6.1-6s-2.3-5.5-2.3-8.6c0-3.2,0.8-6.1,2.3-8.6
	c1.5-2.6,3.5-4.5,6.1-5.9c2.6-1.4,5.4-2.1,8.5-2.1s5.9,0.7,8.5,2.1c2.6,1.4,4.6,3.4,6,5.9c1.5,2.6,2.2,5.5,2.2,8.6
	c0,3.2-0.7,6.1-2.2,8.6c-1.5,2.6-3.5,4.5-6.1,6c-2.6,1.4-5.4,2.2-8.5,2.2S90.4,36.1,87.8,34.6z M101.7,26.1c1.4-1.5,2-3.5,2-6.1
	c0-2.6-0.7-4.6-2-6.1s-3.2-2.3-5.5-2.3c-2.4,0-4.2,0.8-5.5,2.3c-1.4,1.5-2,3.6-2,6.1c0,2.6,0.7,4.6,2,6.1c1.4,1.5,3.2,2.3,5.5,2.3
	C98.6,28.3,100.4,27.6,101.7,26.1z"/>
<path id="XMLID_2_" class="st2" d="M145.1,5.7c2.6,1.4,4.6,3.3,5.9,5.8c1.4,2.5,2.1,5.3,2.1,8.5c0,3.1-0.7,6-2.1,8.5s-3.4,4.4-6,5.8
	c-2.6,1.4-5.6,2.1-9,2.1h-12.9V3.7H136C139.5,3.6,142.5,4.3,145.1,5.7z M141.6,26.2c1.5-1.4,2.3-3.5,2.3-6.2c0-2.7-0.8-4.8-2.3-6.2
	c-1.5-1.4-3.6-2.2-6.3-2.2h-3.1v16.8h3.1C138.1,28.3,140.1,27.6,141.6,26.2z"/>
<polygon id="XMLID_1_" class="st3" points="28.9,13.3 28.9,2 0,2 0,38 15.6,38 15.6,27.7 26.4,27.7 26.4,16.9 15.6,16.9 15.6,13.3 
	"/>
</svg>
