<?xml version="1.0" encoding="utf-8"?>
<!-- Generator: Adobe Illustrator 19.0.0, SVG Export Plug-In . SVG Version: 6.00 Build 0)  -->
<svg version="1.1" id="Layer_1" xmlns="http://www.w3.org/2000/svg" xmlns:xlink="http://www.w3.org/1999/xlink" x="0px" y="0px"
	 viewBox="-111 322.4 632.6 193" style="enable-background:new -111 322.4 632.6 193;" xml:space="preserve">
<style type="text/css">
	.st0{fill:#698E21;}
	.st1{fill:#94998C;}
	.st2{fill:#53C9EE;}
	.st3{fill:#F9BC15;stroke:#F9BC15;stroke-width:10;stroke-miterlimit:10;}
	.st4{fill:#34A851;stroke:#34A851;stroke-width:10;stroke-miterlimit:10;}
	.st5{fill:#547DBF;stroke:#547DBF;stroke-width:10;stroke-miterlimit:10;}
	.st6{fill:#EA4435;}
	.st7{fill:#CCE299;}
	.st8{fill:#FBF4F9;}
</style>
<path class="st0" d="M106.3,428.2c5.6,4.2,11.9,6.9,18.8,7.8c4.6,0.6,9.2,0.6,13.7-0.8c5.7-1.8,8.9-5.7,10-11.4
	c0.3-1.9,0.4-3.7,0.3-5.7c-1.2,0.9-2.3,1.7-3.5,2.4c-3.6,2.1-7.6,3.3-11.8,3.8c-5.9,0.6-11.7,0.4-17.4-1.2
	c-12.2-3.5-20.9-11-24.8-23.2c-3.1-9.7-2.8-19.4,1.6-28.7c4.9-10.3,13.3-16.6,24.3-19.3c7.1-1.8,14.4-1.8,21.5,0.1
	c3.7,1,7,2.7,10.1,5.1c0.2-0.6,0.1-1.2,0.1-1.8c0-0.9,0-1.9,0-2.8c0-0.4,0.1-0.6,0.6-0.6c6.3,0,12.6,0,18.8,0c0.4,0,0.6,0.1,0.5,0.5
	c0,0.2,0,0.3,0,0.5c0,22.2,0,44.4,0,66.7c0,5.8-1,11.4-3.7,16.6c-2.2,4.3-5.3,7.9-9.2,10.7c-4.9,3.5-10.4,5.4-16.4,6.2
	c-8.3,1.1-16.6,0.6-24.7-1.4c-6.5-1.7-12.5-4.5-18-8.5c-0.6-0.5-0.7-0.8-0.2-1.4c3-4.3,6-8.7,9-13
	C106.1,428.5,106.2,428.3,106.3,428.2z M129,407.6c1.6,0,2.7,0,3.8-0.2c4.9-0.7,9-2.8,12.3-6.5c4.2-4.8,5.6-10.6,4.7-16.8
	c-0.7-4.7-2.9-8.6-6.5-11.6c-4.5-3.8-9.8-5.3-15.6-4.8c-4.9,0.4-9.2,2.1-12.7,5.8c-3.2,3.4-4.9,7.4-5.4,12c-0.2,2.1-0.1,4.3,0.3,6.4
	c0.8,4.6,2.9,8.5,6.5,11.4C120.1,406.4,124.6,407.6,129,407.6z"/>
<path class="st0" d="M386.5,418.6c-4.7,5-10.6,7.5-17.2,8.3c-11,1.4-21.2-0.8-29.8-8.2c-5.2-4.5-8.7-10.2-10.5-16.8
	c-3-10.5-2.7-20.9,1.8-30.9c5.1-11.5,14.1-18.2,26.5-20.2c5.5-0.9,11-0.8,16.4,0.6c5,1.4,9.4,3.8,12.8,7.8c0.3-0.2,0.2-0.4,0.2-0.6
	c0-2,0-4.1,0-6.1c0-0.5,0.1-0.7,0.6-0.7c6.2,0,12.4,0,18.6,0c0.7,0,0.7,0.4,0.7,0.9c0,23,0,45.9,0,68.9c0,1.2,0,2.4,0,3.6
	c0,0.4-0.1,0.6-0.6,0.6c-6.3,0-12.5,0-18.8,0c-0.5,0-0.6-0.2-0.6-0.6c0-1.9,0-3.8,0-5.7C386.5,419.1,386.5,418.9,386.5,418.6z
	 M367.7,409.6c1.1,0,2.2,0,3.2-0.2c6.9-0.9,11.8-4.5,14.6-10.8c2.4-5.6,2.5-11.5,0.7-17.4s-5.7-10.1-11.5-12.2
	c-4.1-1.5-8.3-1.5-12.5-0.8c-4.8,0.9-8.7,3.3-11.5,7.3c-2.3,3.3-3.5,6.9-3.8,10.9c-0.4,5.5,0.5,10.6,3.8,15.1c2.1,3,4.9,5.2,8.3,6.5
	C361.7,409.3,364.6,409.7,367.7,409.6z"/>
<path class="st0" d="M471.6,359.5c0-2.4,0-4.6,0-6.8c0-0.6,0.1-0.8,0.7-0.8c6.1,0,12.2,0,18.4,0c0.7,0,0.8,0.2,0.8,0.8
	c0,24.1,0,48.2,0,72.2c0,0.6-0.1,0.8-0.8,0.8c-6.1,0-12.2,0-18.4,0c-0.6,0-0.8-0.2-0.8-0.8c0-2.1,0-4.2,0-6.5
	c-0.4,0.5-0.8,0.9-1.1,1.2c-2.7,2.7-6,4.4-9.6,5.7c-10.8,3.9-26.4,2.3-36.4-6.6c-4.7-4.2-8.1-9.4-10.1-15.4
	c-3.6-11-3.4-21.9,1.4-32.5c5.1-11.4,14-18,26.3-20c5.9-1,11.7-0.9,17.5,0.9C464.2,353.2,468.3,355.5,471.6,359.5z M452.6,409.6
	c1.2,0,2.7-0.1,4.1-0.3c7-1.3,11.9-5.2,14.3-11.9c1.6-4.5,1.8-9.2,0.8-13.9c-1.5-7.1-5.5-12.2-12.5-14.6c-3.7-1.3-7.6-1.4-11.5-0.7
	c-6.3,1-11,4.4-13.8,10.2c-2.1,4.4-2.6,9-2,13.8c0.7,5.4,3.1,9.9,7.3,13.3C443.1,408.6,447.6,409.7,452.6,409.6z"/>
<path class="st0" d="M228.6,358.3c1.3-1.2,2.6-2.3,4.2-3.2c5.6-3.3,11.6-4.9,18.1-4.5c3.6,0.2,7.2,0.8,10.6,2
	c6.7,2.4,10.9,7.3,13.4,13.8c1.9,4.9,2.5,10.1,2.5,15.4c0,14.4,0,28.8,0,43.2c0,0.7-0.2,0.9-0.8,0.8c-6.3,0-12.6,0-18.8,0
	c-0.7,0-0.9-0.2-0.9-0.9c0-14.3,0-28.6,0-42.9c0-2.2-0.2-4.4-1-6.6c-1.2-3.8-3.7-6.3-7.5-7.4c-4.2-1.2-8.3-1.3-12.2,0.9
	c-4.4,2.4-6.6,6.3-7.3,11.1c-0.3,2.2-0.3,4.5-0.3,6.7c0,12.8,0,25.5,0,38.3c0,0.6-0.2,0.7-0.7,0.7c-6.1,0-12.2,0-18.4,0
	c-0.7,0-0.9-0.2-0.9-0.9c0-15.1,0-30.1,0-45.2c0-9,0-17.9,0-26.9c0-0.7,0.2-0.9,0.9-0.9c6.1,0,12.2,0,18.4,0c0.7,0,0.8,0.2,0.8,0.8
	c0,1.6,0,3.2,0,4.8C228.4,357.7,228.4,358,228.6,358.3z"/>
<path class="st0" d="M291.1,389.7c0-6.9,0-13.7,0-20.6c0-0.7-0.2-0.9-0.8-0.9c-2.5,0-5,0-7.4,0c-0.6,0-0.7-0.2-0.7-0.7
	c0-5.4,0-10.8,0-16.2c0-0.5,0.2-0.7,0.7-0.7c2.5,0,5.1,0,7.6,0c0.6,0,0.7-0.1,0.7-0.7c0-6,0-12.1,0-18.1c0-0.7,0.2-0.9,0.9-0.9
	c6.1,0,12.1,0,18.2,0c0.7,0,0.8,0.2,0.8,0.9c0,6,0,12,0,18.1c0,0.7,0.2,0.8,0.9,0.8c4.4,0,8.8,0,13.2,0c0.6,0,0.8,0.2,0.8,0.8
	c0,5.3,0,10.7,0,16c0,0.6-0.1,0.8-0.8,0.8c-4.4,0-8.8,0-13.3,0c-0.4,0-0.7-0.1-0.7,0.6c0,10.6,0,21.3,0.1,31.9c0,2.1,0.5,4.1,1.3,6
	c0.9,2.1,2.7,3,4.8,3.4c2.3,0.4,4.7,0.3,7,0.1c1-0.1,1-0.1,1,0.9c0,5,0,10.1,0,15.1c0,0.6-0.1,0.8-0.7,0.9
	c-5.3,0.5-10.5,0.6-15.8,0.1c-2.9-0.3-5.9-0.7-8.6-1.8c-5-2.1-7.8-5.9-8.6-11.2c-0.3-1.9-0.4-3.7-0.4-5.6
	C291.2,402.3,291.1,396,291.1,389.7z"/>
<path class="st0" d="M199.4,388.9c0,11.9,0,23.9,0,35.8c0,0.7-0.1,1-1,1c-6.1,0-12.3,0-18.5,0c-0.6,0-0.8-0.1-0.8-0.8
	c0-24.1,0-48.2,0-72.3c0-0.6,0.2-0.8,0.8-0.8c6.2,0,12.4,0,18.6,0c0.7,0,0.8,0.2,0.8,0.8C199.4,364.9,199.4,376.9,199.4,388.9z"/>
<path class="st1" d="M507.6,331.1c7.7,0,14,6.3,14,14s-6.3,14-14,14s-14-6.3-14-14S499.9,331.1,507.6,331.1z M518.8,345.2
	c0-6.2-4.9-11.1-11.1-11.2c-6.2-0.1-11.2,5-11.2,11.1s5,11.2,11.1,11.2C513.8,356.3,518.8,351.4,518.8,345.2z"/>
<path class="st2" d="M178.1,333.2c-0.2-5.6,4.9-10.9,11.3-10.8c6.1,0.1,11,4.8,11,10.7c0,6.2-5,10.9-11.1,10.9
	C182.7,344.1,177.9,338.9,178.1,333.2z"/>
<path class="st1" d="M510.1,345.3c1.3,0.4,1.9,1.4,2.4,2.4c0.7,1.3,1.3,2.7,2,4c0.2,0.4,0.1,0.5-0.3,0.5c-1,0-2.1,0-3.1,0
	c-0.3,0-0.4-0.1-0.6-0.3c-0.6-1.1-1.1-2.3-1.7-3.4c-0.8-1.5-1.6-2-3.3-1.8c-0.4,0-0.3,0.3-0.3,0.5c0,1.5,0,3.1,0,4.6
	c0,0.4-0.1,0.5-0.5,0.5c-0.9,0-1.9,0-2.8,0c-0.3,0-0.5-0.1-0.5-0.4c0-4.6,0-9.2,0-13.8c0-0.4,0.1-0.5,0.5-0.5c2.1,0,4.2,0,6.2,0
	c0.7,0,1.4,0.1,2.1,0.3c2,0.6,2.8,2.1,2.6,4.1C512.7,343.7,511.7,344.8,510.1,345.3z M505.3,342.1c0,0.5,0,1.1,0,1.6
	c0,0.2,0.1,0.3,0.3,0.3c0.6,0,1.2,0,1.7,0c1.1-0.1,1.6-0.6,1.7-1.5c0.1-1.1-0.1-2.1-1.7-2.2c-0.6,0-1.2,0-1.8,0
	c-0.3,0-0.3,0.1-0.3,0.4C505.3,341.1,505.3,341.6,505.3,342.1z"/>
<path class="st3" d="M267.4,501.7c-5.3-3-9.5-7.1-12.6-12.4c-3.1-5.3-4.7-11.3-4.7-17.9c0-6.7,1.6-12.6,4.7-17.9
	c3.1-5.3,7.3-9.4,12.6-12.3s11.1-4.4,17.5-4.4s12.3,1.5,17.5,4.4c5.3,2.9,9.5,7.1,12.5,12.3c3.1,5.3,4.6,11.3,4.6,17.9
	c0,6.7-1.5,12.6-4.6,17.9s-7.3,9.4-12.6,12.4s-11.1,4.5-17.5,4.5C278.5,506.2,272.7,504.7,267.4,501.7z M296.2,484
	c2.8-3.1,4.2-7.3,4.2-12.6c0-5.4-1.4-9.6-4.2-12.7s-6.6-4.7-11.4-4.7c-4.9,0-8.7,1.6-11.4,4.7c-2.8,3.1-4.1,7.4-4.1,12.7
	c0,5.3,1.4,9.5,4.1,12.6c2.8,3.1,6.6,4.7,11.4,4.7S293.4,487.2,296.2,484z"/>
<path class="st4" d="M355.5,501.7c-5.3-3-9.5-7.1-12.6-12.4s-4.7-11.3-4.7-17.9c0-6.7,1.6-12.6,4.7-17.9c3.1-5.3,7.3-9.4,12.6-12.3
	s11.1-4.4,17.5-4.4s12.3,1.5,17.5,4.4c5.3,2.9,9.5,7.1,12.5,12.3c3.1,5.3,4.6,11.3,4.6,17.9c0,6.7-1.5,12.6-4.6,17.9
	s-7.3,9.4-12.6,12.4s-11.1,4.5-17.5,4.5S360.8,504.7,355.5,501.7z M384.3,484c2.8-3.1,4.2-7.3,4.2-12.6c0-5.4-1.4-9.6-4.2-12.7
	s-6.6-4.7-11.4-4.7c-4.9,0-8.7,1.6-11.4,4.7c-2.8,3.1-4.1,7.4-4.1,12.7c0,5.3,1.4,9.5,4.1,12.6c2.8,3.1,6.6,4.7,11.4,4.7
	C377.8,488.7,381.6,487.2,384.3,484z"/>
<path class="st5" d="M474.1,441.9c5.3,2.9,9.5,6.8,12.3,12c2.9,5.1,4.3,11,4.3,17.6c0,6.5-1.5,12.4-4.4,17.5s-7,9.1-12.4,12.1
	c-5.4,2.9-11.5,4.4-18.6,4.4h-26.8v-67.7h26.8C462.5,437.6,468.7,439,474.1,441.9z M466.9,484.2c3.1-3,4.7-7.3,4.7-12.8
	c0-5.6-1.6-9.9-4.7-12.9c-3.1-3-7.5-4.6-13-4.6h-6.5v34.8h6.5C459.5,488.7,463.8,487.2,466.9,484.2z"/>
<polygon class="st6" points="233.6,457.6 233.6,434.2 173.7,434.2 173.7,508.7 205.9,508.7 205.9,487.5 228.3,487.5 228.3,465.1 
	205.9,465.1 205.9,457.6 "/>
<path class="st0" d="M56,515.4c13.1,0,23.7-10.6,23.7-23.7V348.5c0-13.1-10.6-23.7-23.7-23.7H-87.3c-13.1,0-23.7,10.6-23.7,23.7
	v143.2c0,13.1,10.6,23.7,23.7,23.7H56L56,515.4z"/>
<path class="st7" d="M-16.6,413.7c-8.4,0-16.1,2.5-22.6,6.9l19.1,12v6.6c1.1-0.3,2.2-0.4,3.4-0.4c8.5,0,15.3,6.9,15.3,15.3
	c0,8.5-6.9,15.3-15.3,15.3c-8.5,0-15.3-6.9-15.3-15.3c0-4.5,1.9-8.4,4.9-11.2c-8.7-1.8-16.7-5.8-23.2-11.3
	c-4.3,6.5-6.9,14.2-6.9,22.6c0,22.4,18.1,40.5,40.5,40.5s40.5-18.1,40.5-40.5S5.8,413.7-16.6,413.7z"/>
<path class="st7" d="M30.2,392.2C30.2,418,9.3,439-16.6,439c-25.8,0-46.8-20.9-46.8-46.8c0-25.8,20.9-46.8,46.8-46.8
	C9.2,345.5,30.2,366.4,30.2,392.2z"/>
<path class="st7" d="M22.2,357.9c5.5-0.2,9.9-6.9,9.9-12.4H5.8C12,348.5,17.6,352.7,22.2,357.9z"/>
<path class="st8" d="M-16.6,413.7c-12.2,0-23.1,5.4-30.5,13.9c7.9,6.8,18,11,29.1,11.3c0.5,0,0.9-0.1,1.4-0.1s0.9,0,1.4,0.1
	c11.1-0.3,21.3-4.5,29.1-11.3C6.5,419.1-4.4,413.7-16.6,413.7z"/>
</svg>
