<svg width="227" height="162" viewBox="0 0 227 162" fill="none" xmlns="http://www.w3.org/2000/svg">
<g clip-path="url(#clip0_13909_1735)">
<path d="M18.6606 143.801C18.6606 143.801 -9.2929 111.133 3.14751 74.9585C15.5879 38.7845 37.6959 26.0304 70.5206 27.7458C103.345 29.5359 115.711 27.7458 132.573 11.4116C149.435 -4.92267 188.854 -5.2956 204.367 19.9143C219.88 45.1243 233.145 90.9199 223.852 112.102C214.56 133.285 200.77 155.362 171.543 157.077C142.315 158.793 40.3938 172.964 18.6606 143.801Z" fill="#E8FFAF"/>
<path d="M49.6113 125.527H173.866V128.436L158.802 143.353L149.584 145.367H79.7381H70.8949L61.5271 139.027L49.6113 125.527Z" fill="#C6FF00"/>
<path d="M163.374 141.414L177.913 126.945C178.063 126.795 178.213 126.572 178.363 126.348C178.588 125.9 178.588 125.378 178.363 124.856C178.138 124.409 177.763 124.036 177.314 123.812C177.089 123.737 176.864 123.663 176.564 123.663H169.819V123.141C169.819 92.3369 145.613 67.2015 114.737 65.9336H114.212V58.4004L114.587 58.2512C118.034 57.207 120.358 54.149 120.358 50.5689C120.358 46.0938 116.685 42.5137 112.264 42.5137C107.767 42.5137 104.17 46.1684 104.17 50.5689C104.17 54.149 106.493 57.207 109.941 58.2512L110.315 58.4004V65.9336H109.791C78.9145 67.2015 54.7081 92.3369 54.7081 123.141V123.663H47.9633C47.7385 123.663 47.4387 123.737 47.2139 123.812C46.7643 124.036 46.3895 124.409 46.1647 124.856C45.9399 125.304 45.9399 125.826 46.1647 126.348C46.2397 126.572 46.3895 126.795 46.6144 126.945L61.1532 141.414C62.7269 142.981 64.9752 144.398 67.6731 145.516C70.3711 146.635 72.9191 147.157 75.1674 147.157H149.285C151.533 147.157 154.156 146.561 156.779 145.442C159.552 144.398 161.801 142.981 163.374 141.414ZM107.992 50.5689C107.992 48.2568 109.866 46.3175 112.264 46.3175C114.587 46.3175 116.535 48.1822 116.535 50.5689C116.535 52.8811 114.662 54.8203 112.264 54.8203C109.941 54.8203 108.067 52.8811 107.992 50.5689ZM58.6051 123.141C58.6051 108.895 64.2258 95.4695 74.343 85.4004C84.4602 75.3314 97.9498 69.7374 112.264 69.7374C126.578 69.7374 140.067 75.3314 150.185 85.4004C160.302 95.4695 165.922 108.895 165.922 123.141V123.663H58.6051V123.141ZM149.435 143.353C149.36 143.353 149.36 143.353 149.435 143.353H75.2423C75.2423 143.353 75.2423 143.353 75.1674 143.353C73.5186 143.353 71.2704 142.831 69.172 141.936C67.0736 141.041 65.1251 139.848 63.926 138.655L52.6847 127.467H171.918L160.676 138.655C159.477 139.848 157.529 141.041 155.43 141.936C153.332 142.831 151.084 143.353 149.435 143.353Z" fill="#1E2C35"/>
<path d="M209.014 157.972C206.466 157.972 204.068 156.481 203.093 154.019L184.358 100.765C176.639 101.436 168.545 95.4694 164.798 86.1462C162.7 80.9252 162.25 75.3313 163.599 70.4833C164.948 65.486 168.021 61.8313 172.142 60.1904C176.264 58.5496 180.986 59.0717 185.407 61.7567C189.754 64.3672 193.276 68.6932 195.374 73.9142C198.972 82.9391 197.398 92.7098 191.702 97.6324L215.084 149.097C216.433 152.378 214.784 156.033 211.562 157.376L211.337 157.45C210.588 157.823 209.763 157.972 209.014 157.972ZM185.857 98.2291L205.192 153.124C206.016 155.138 208.414 156.182 210.513 155.362L210.738 155.287C211.787 154.914 212.536 154.094 212.986 153.124C213.436 152.155 213.435 151.036 213.061 149.992L188.929 96.9612L189.679 96.4391C195.225 92.3369 196.723 83.2374 193.351 74.7346C191.402 69.9612 188.18 66.0081 184.283 63.6214C180.461 61.3092 176.489 60.8617 172.967 62.2043C169.519 63.6214 166.896 66.6794 165.772 71.0054C164.573 75.4059 164.948 80.4777 166.896 85.2512C170.419 93.9777 177.988 99.4971 184.957 98.3783L185.857 98.2291Z" fill="#1E2C35"/>
<path d="M43.2416 91.5913L41.2931 90.4725L55.6071 65.2626L56.5064 65.5609C63.551 67.7239 72.3941 63.3233 77.5652 55.0443C79.7385 51.5388 81.0874 47.7349 81.4622 44.0057L74.4176 55.1935C73.9679 55.9394 73.1436 56.4615 72.2443 56.6106C71.345 56.7598 70.4456 56.536 69.6962 56.0139C68.4222 55.0443 68.1224 53.1051 69.0217 51.688L79.4387 35.13C79.6635 34.757 79.6635 34.3095 79.4387 33.862C79.1389 33.4145 78.7642 33.1162 78.2396 33.1162C77.79 33.1162 77.2654 33.3399 77.0406 33.7874L66.6236 50.42C66.1739 51.1659 65.3496 51.688 64.4503 51.8372C63.551 51.9863 62.6517 51.7626 61.9022 51.2405C60.6282 50.2709 60.3284 48.3316 61.2278 46.9145L71.7197 30.2073C71.9445 29.8344 72.0194 29.3123 71.7946 28.8648C71.5698 28.4173 71.1951 28.1935 70.7454 28.1189C70.2208 28.0443 69.6962 28.2681 69.4714 28.7156L58.8296 45.572C58.3799 46.3178 57.5556 46.8399 56.6563 46.9891C55.757 47.1383 54.8577 46.9145 54.1082 46.3924C52.8342 45.4228 52.4595 43.4836 53.4338 42.0664L60.853 30.2073C57.2558 32.1465 54.0333 35.2046 51.7101 39.0084C46.4641 47.5112 46.4641 57.5057 51.86 62.8012L52.5345 63.4725L36.272 86.967L34.3984 85.699L49.6117 63.6963C44.1409 57.5802 44.2159 46.9145 49.8365 37.8896C52.6843 33.4145 56.5813 29.8344 60.928 27.746C61.6774 27.3731 62.6517 27.5222 63.1763 28.1935C63.7758 28.8648 63.8507 29.7598 63.4011 30.5057L55.3823 43.2598C55.0825 43.7073 55.1574 44.304 55.5321 44.6023C55.757 44.7515 55.9818 44.8261 56.2816 44.7515C56.5813 44.6769 56.8062 44.5278 56.956 44.304L67.5229 27.4476C68.2723 26.3289 69.6213 25.6576 70.9702 25.8068C72.2443 25.9559 73.2935 26.7018 73.818 27.8206C74.3426 28.9394 74.2677 30.2073 73.5932 31.3261L63.1013 48.0333C62.8015 48.4808 62.8765 49.0775 63.2512 49.3758C63.476 49.525 63.7008 49.5996 64.0006 49.525C64.3004 49.4504 64.5252 49.3012 64.6751 49.0775L75.0921 32.5195C75.7665 31.4007 76.9656 30.804 78.2396 30.804C79.5137 30.804 80.7127 31.4753 81.3123 32.5941C81.9867 33.7874 81.9867 35.13 81.3123 36.1742L70.8953 52.8814C70.5955 53.3289 70.6705 53.9255 71.0452 54.2239C71.27 54.3731 71.4948 54.4476 71.7946 54.3731C72.0944 54.2985 72.3192 54.1493 72.4691 53.9256L80.1881 41.7681C80.6378 41.0222 81.5371 40.7239 82.3615 40.9476C83.1858 41.1714 83.7854 41.9918 83.7104 42.8123C83.5605 47.362 82.0617 52.0609 79.4387 56.2377C73.9679 64.9642 64.5252 69.8123 56.6563 67.9476L43.2416 91.5913Z" fill="#1E2C35"/>
<path d="M21.2839 123.44C20.0848 123.44 18.8857 123.141 17.7616 122.47L17.5368 122.321C14.3892 120.382 13.4899 116.279 15.4384 113.147L34.3988 85.6992L36.2723 86.9672L17.3119 114.34C16.0379 116.354 16.7124 119.114 18.7358 120.382L18.9607 120.531C21.059 121.799 23.757 121.202 25.031 119.114L41.2934 90.5473L43.2419 91.6661L26.9795 120.232C25.7055 122.321 23.5321 123.44 21.2839 123.44Z" fill="#1E2C35"/>
<path d="M140.441 19.8398C140.441 19.8398 124.329 32.2211 136.02 52.0608C136.02 52.0608 155.505 41.6189 140.441 19.8398Z" fill="#C6FF00"/>
<path d="M136.02 53.1799C135.645 53.1799 135.27 52.9561 135.045 52.6578C122.98 32.1467 139.617 19.0943 139.767 18.9451C139.992 18.7213 140.291 18.6467 140.591 18.7213C140.891 18.7959 141.191 18.9451 141.341 19.1688C146.437 26.5528 148.235 33.4893 146.736 39.8291C144.638 48.6302 136.844 52.807 136.544 53.0307C136.394 53.1799 136.17 53.1799 136.02 53.1799ZM140.216 21.481C137.144 24.3898 127.851 34.8318 136.394 50.4948C138.418 49.1523 143.064 45.423 144.563 39.307C145.837 33.9368 144.413 27.9699 140.216 21.481Z" fill="#1E2C35"/>
<path d="M167.27 40.874C167.27 40.874 148.385 33.2663 137.068 53.4044C137.068 53.4044 156.029 64.816 167.27 40.874Z" fill="#C6FF00"/>
<path d="M147.485 57.2824C141.34 57.2824 136.769 54.5227 136.469 54.3736C135.944 54.0752 135.794 53.4039 136.094 52.8818C147.785 32.147 167.495 39.7548 167.645 39.8294C167.945 39.9785 168.169 40.2023 168.244 40.426C168.394 40.7244 168.319 41.0227 168.244 41.3211C164.422 49.4509 159.326 54.5227 153.031 56.3874C151.158 57.0586 149.284 57.2824 147.485 57.2824ZM138.642 52.9564C140.816 54.0006 146.436 56.089 152.432 54.299C157.752 52.6581 162.174 48.4067 165.696 41.5448C161.649 40.3515 147.86 37.6664 138.642 52.9564Z" fill="#1E2C35"/>
<path d="M95.8516 113.967C95.8516 113.967 112.639 96.6631 130.325 113.967" stroke="#1E2C35" stroke-width="4" stroke-miterlimit="10" stroke-linecap="round"/>
<path d="M100.797 96.7376C102.619 96.7376 104.095 94.2332 104.095 91.1437C104.095 88.0543 102.619 85.5498 100.797 85.5498C98.9763 85.5498 97.5 88.0543 97.5 91.1437C97.5 94.2332 98.9763 96.7376 100.797 96.7376Z" fill="#1E2C35"/>
<path d="M122.305 96.7376C124.126 96.7376 125.603 94.2332 125.603 91.1437C125.603 88.0543 124.126 85.5498 122.305 85.5498C120.484 85.5498 119.008 88.0543 119.008 91.1437C119.008 94.2332 120.484 96.7376 122.305 96.7376Z" fill="#1E2C35"/>
</g>
<defs>
<clipPath id="clip0_13909_1735">
<rect width="227" height="162" fill="white"/>
</clipPath>
</defs>
</svg>
