<svg width="222" height="185" viewBox="0 0 222 185" fill="none" xmlns="http://www.w3.org/2000/svg">
<g clip-path="url(#clip0_13909_1759)">
<path d="M208.19 113.466C204.935 111 201.681 108.533 199.776 104.952C190.014 86.7308 210.412 65.3266 199.062 45.5932C193.347 35.5674 181.997 28.247 170.885 32.3846C159.059 36.8405 147.947 41.4556 135.248 37.7954C113.024 31.3502 101.515 1.19323 77.3866 1.67065C57.5439 2.14806 35.3995 23.0749 46.9082 44.7975C55.639 61.2685 50.1624 74.8749 30.0816 77.7395C10.0008 80.604 1.27003 104.395 7.22284 114.58C13.1756 124.765 24.605 135.587 13.7312 140.122C2.85745 144.658 -0.952348 159.378 0.158843 169.643C1.27003 179.828 3.41304 183.806 3.41304 183.806H211.999C211.999 183.806 220.81 172.428 221.921 146.329C222.397 135.03 220.095 123.97 211.523 116.172C210.491 115.296 209.301 114.421 208.19 113.466Z" fill="#C6FF00"/>
<path opacity="0.7" d="M208.19 113.466C204.935 111 201.681 108.533 199.776 104.952C190.014 86.7308 210.412 65.3266 199.062 45.5932C193.347 35.5674 181.997 28.247 170.885 32.3846C159.059 36.8405 147.947 41.4556 135.248 37.7954C113.024 31.3502 101.515 1.19323 77.3866 1.67065C57.5439 2.14806 35.3995 23.0749 46.9082 44.7975C55.639 61.2685 50.1624 74.8749 30.0816 77.7395C10.0008 80.604 1.27003 104.395 7.22284 114.58C13.1756 124.765 24.605 135.587 13.7312 140.122C2.85745 144.658 -0.952348 159.378 0.158843 169.643C1.27003 179.828 3.41304 183.806 3.41304 183.806H211.999C211.999 183.806 220.81 172.428 221.921 146.329C222.397 135.03 220.095 123.97 211.523 116.172C210.491 115.296 209.301 114.421 208.19 113.466Z" fill="white"/>
<path d="M213.745 185H15.001V162.164H22.065V155.48H33.0181V125.005H46.3524V131.688H52.464V151.342H65.0839V140.6H74.529V150.228H91.0382V137.258H119.77V155.48H124.85V148.239H123.104V143.624H140.01V147.841H136.518V148.796H145.566V139.884H150.407V112.035H164.615V122.777H171.044V92.6992H183.108V142.51H193.188V154.764H200.252V161.05H213.904V185H213.745ZM17.3821 182.613H211.285V163.437H197.633V157.151H190.569V144.897H180.489V95.0863H173.187V125.164H161.996V114.422H152.55V142.271H147.709V151.183H133.898V146.011H127.072V157.867H117.231V139.645H93.2605V152.615H72.1479V142.987H67.465V153.729H50.1622V134.076H44.0507V127.392H35.3993V157.867H24.4461V164.551H17.3821V182.613Z" fill="#1E2C35"/>
<path d="M38.5745 132.882H36.1934V135.269H38.5745V132.882Z" fill="#1E2C35"/>
<path d="M43.4954 132.882H41.1143V135.269H43.4954V132.882Z" fill="#1E2C35"/>
<path d="M38.5745 137.815H36.1934V140.203H38.5745V137.815Z" fill="#1E2C35"/>
<path d="M43.4954 137.815H41.1143V140.203H43.4954V137.815Z" fill="#1E2C35"/>
<path d="M48.8128 137.815H46.4316V140.203H48.8128V137.815Z" fill="#1E2C35"/>
<path d="M48.8128 142.748H46.4316V145.135H48.8128V142.748Z" fill="#1E2C35"/>
<path d="M48.8128 147.762H46.4316V150.149H48.8128V147.762Z" fill="#1E2C35"/>
<path d="M48.8128 152.694H46.4316V155.081H48.8128V152.694Z" fill="#1E2C35"/>
<path d="M48.8128 157.628H46.4316V160.015H48.8128V157.628Z" fill="#1E2C35"/>
<path d="M48.8128 162.641H46.4316V165.028H48.8128V162.641Z" fill="#1E2C35"/>
<path d="M38.5745 142.748H36.1934V145.135H38.5745V142.748Z" fill="#1E2C35"/>
<path d="M43.4954 142.748H41.1143V145.135H43.4954V142.748Z" fill="#1E2C35"/>
<path d="M38.5745 147.762H36.1934V150.149H38.5745V147.762Z" fill="#1E2C35"/>
<path d="M43.4954 147.762H41.1143V150.149H43.4954V147.762Z" fill="#1E2C35"/>
<path d="M38.5745 152.694H36.1934V155.081H38.5745V152.694Z" fill="#1E2C35"/>
<path d="M43.4954 152.694H41.1143V155.081H43.4954V152.694Z" fill="#1E2C35"/>
<path d="M38.5745 157.628H36.1934V160.015H38.5745V157.628Z" fill="#1E2C35"/>
<path d="M27.7005 160.413H25.3193V162.8H27.7005V160.413Z" fill="#1E2C35"/>
<path d="M61.9094 155.082H59.5283V157.469H61.9094V155.082Z" fill="#1E2C35"/>
<path d="M66.6712 155.082H64.29V157.469H66.6712V155.082Z" fill="#1E2C35"/>
<path d="M176.123 96.7568H173.742V99.1439H176.123V96.7568Z" fill="#1E2C35"/>
<path d="M179.061 96.7568H176.68V99.1439H179.061V96.7568Z" fill="#1E2C35"/>
<path d="M176.123 101.69H173.742V104.078H176.123V101.69Z" fill="#1E2C35"/>
<path d="M179.061 101.69H176.68V104.078H179.061V101.69Z" fill="#1E2C35"/>
<path d="M176.123 106.624H173.742V109.011H176.123V106.624Z" fill="#1E2C35"/>
<path d="M179.061 106.624H176.68V109.011H179.061V106.624Z" fill="#1E2C35"/>
<path d="M176.123 111.637H173.742V114.024H176.123V111.637Z" fill="#1E2C35"/>
<path d="M179.061 111.637H176.68V114.024H179.061V111.637Z" fill="#1E2C35"/>
<path d="M176.123 116.57H173.742V118.957H176.123V116.57Z" fill="#1E2C35"/>
<path d="M179.061 116.57H176.68V118.957H179.061V116.57Z" fill="#1E2C35"/>
<path d="M176.123 121.503H173.742V123.89H176.123V121.503Z" fill="#1E2C35"/>
<path d="M179.061 121.503H176.68V123.89H179.061V121.503Z" fill="#1E2C35"/>
<path d="M176.123 126.517H173.742V128.904H176.123V126.517Z" fill="#1E2C35"/>
<path d="M179.061 126.517H176.68V128.904H179.061V126.517Z" fill="#1E2C35"/>
<path d="M176.123 131.449H173.742V133.836H176.123V131.449Z" fill="#1E2C35"/>
<path d="M179.061 131.449H176.68V133.836H179.061V131.449Z" fill="#1E2C35"/>
<path d="M176.123 136.383H173.742V138.77H176.123V136.383Z" fill="#1E2C35"/>
<path d="M179.061 136.383H176.68V138.77H179.061V136.383Z" fill="#1E2C35"/>
<path d="M155.884 136.383H153.503V138.77H155.884V136.383Z" fill="#1E2C35"/>
<path d="M161.043 136.383H158.662V138.77H161.043V136.383Z" fill="#1E2C35"/>
<path d="M166.202 136.383H163.821V138.77H166.202V136.383Z" fill="#1E2C35"/>
<path d="M155.884 147.125H153.503V149.512H155.884V147.125Z" fill="#1E2C35"/>
<path d="M161.043 147.125H158.662V149.512H161.043V147.125Z" fill="#1E2C35"/>
<path d="M166.202 147.125H163.821V149.512H166.202V147.125Z" fill="#1E2C35"/>
<path d="M155.884 157.866H153.503V160.253H155.884V157.866Z" fill="#1E2C35"/>
<path d="M161.043 157.866H158.662V160.253H161.043V157.866Z" fill="#1E2C35"/>
<path d="M166.202 157.866H163.821V160.253H166.202V157.866Z" fill="#1E2C35"/>
<path d="M176.123 141.396H173.742V143.783H176.123V141.396Z" fill="#1E2C35"/>
<path d="M179.061 141.396H176.68V143.783H179.061V141.396Z" fill="#1E2C35"/>
<path d="M176.123 146.329H173.742V148.716H176.123V146.329Z" fill="#1E2C35"/>
<path d="M179.061 146.329H176.68V148.716H179.061V146.329Z" fill="#1E2C35"/>
<path d="M176.123 151.263H173.742V153.65H176.123V151.263Z" fill="#1E2C35"/>
<path d="M179.061 151.263H176.68V153.65H179.061V151.263Z" fill="#1E2C35"/>
<path d="M183.982 146.329H181.601V148.716H183.982V146.329Z" fill="#1E2C35"/>
<path d="M189.537 146.329H187.156V148.716H189.537V146.329Z" fill="#1E2C35"/>
<path d="M183.982 151.104H181.601V153.491H183.982V151.104Z" fill="#1E2C35"/>
<path d="M189.537 151.104H187.156V153.491H189.537V151.104Z" fill="#1E2C35"/>
<path d="M183.982 155.877H181.601V158.264H183.982V155.877Z" fill="#1E2C35"/>
<path d="M189.537 155.877H187.156V158.264H189.537V155.877Z" fill="#1E2C35"/>
<path d="M183.982 160.651H181.601V163.038H183.982V160.651Z" fill="#1E2C35"/>
<path d="M189.537 160.651H187.156V163.038H189.537V160.651Z" fill="#1E2C35"/>
<path d="M176.123 156.275H173.742V158.662H176.123V156.275Z" fill="#1E2C35"/>
<path d="M179.061 156.275H176.68V158.662H179.061V156.275Z" fill="#1E2C35"/>
<path d="M176.123 161.209H173.742V163.596H176.123V161.209Z" fill="#1E2C35"/>
<path d="M179.061 161.209H176.68V163.596H179.061V161.209Z" fill="#1E2C35"/>
<path d="M43.4954 157.628H41.1143V160.015H43.4954V157.628Z" fill="#1E2C35"/>
<path d="M38.5745 162.641H36.1934V165.028H38.5745V162.641Z" fill="#1E2C35"/>
<path d="M43.4954 162.641H41.1143V165.028H43.4954V162.641Z" fill="#1E2C35"/>
<path d="M38.5745 167.574H36.1934V169.961H38.5745V167.574Z" fill="#1E2C35"/>
<path d="M43.4954 167.574H41.1143V169.961H43.4954V167.574Z" fill="#1E2C35"/>
<path d="M38.5745 172.508H36.1934V174.895H38.5745V172.508Z" fill="#1E2C35"/>
<path d="M43.4954 172.508H41.1143V174.895H43.4954V172.508Z" fill="#1E2C35"/>
<path d="M169.774 185H147.63V163.118H169.774V172.269H167.393V165.505H150.011V182.613H167.393V174.019H169.774V185Z" fill="#1E2C35"/>
<path d="M206.205 185H183.981V172.349H189.299V174.736H186.363V182.613H203.824V180.863H206.205V185Z" fill="#1E2C35"/>
<path d="M206.206 179.271H203.824V174.736H191.681V172.349H206.206V179.271Z" fill="#1E2C35"/>
<path d="M74.37 185H52.2256V172.349H57.2259V174.736H54.6067V182.613H71.9889V174.736H59.1308V172.349H74.37V185Z" fill="#1E2C35"/>
<path d="M31.2724 185H21.5098V172.349H26.6689V174.736H23.8909V182.613H28.8912V174.736H28.1769V172.349H31.2724V185Z" fill="#1E2C35"/>
<path d="M161.44 185H155.884V163.118H161.44V185ZM158.265 182.613H159.059V165.505H158.265V182.613Z" fill="#1E2C35"/>
<path d="M144.216 168.131H138.502V165.744H141.835V163.038H133.74V165.744H135.644V168.131H131.358V160.651H144.216V168.131Z" fill="#1E2C35"/>
<path d="M81.2756 163.835H66.8301V157.071H81.2756V163.835ZM69.2112 161.448H78.8944V159.458H69.2112V161.448Z" fill="#1E2C35"/>
<path d="M76.1957 157.071H72.624V185.08H76.1957V157.071Z" fill="#1E2C35"/>
<path d="M106.833 2.78516C70.0846 2.78516 40.2412 32.7034 40.2412 69.5443C40.2412 106.385 106.833 181.34 106.833 181.34C106.833 181.34 173.425 106.465 173.425 69.5443C173.425 32.7034 143.582 2.78516 106.833 2.78516ZM135.724 101.85C135.724 101.85 87.8637 101.85 78.8948 102.884C69.9259 103.918 73.0213 93.8131 73.0213 93.8131L101.992 39.8647C108.183 32.3852 112.469 41.5357 112.469 41.5357C112.469 41.5357 134.692 82.9916 139.217 91.2669C143.661 99.6217 135.724 101.85 135.724 101.85Z" fill="#C6FF00"/>
<path d="M106.833 184.045C106.039 184.045 105.325 183.727 104.769 183.09C101.991 179.987 37.4629 106.942 37.4629 69.4645C37.4629 31.1914 68.5762 0 106.833 0C145.09 0 176.203 31.1914 176.203 69.5441C176.203 107.022 111.675 180.067 108.897 183.17C108.42 183.727 107.627 184.045 106.833 184.045ZM106.833 5.56989C71.6717 5.56989 43.0188 34.2946 43.0188 69.5441C43.0188 101.292 95.6417 164.073 106.833 177.043C118.024 164.073 170.647 101.292 170.647 69.5441C170.647 34.2946 141.994 5.56989 106.833 5.56989Z" fill="#1E2C35"/>
<path d="M135.724 104.635H77.7832C76.4339 104.635 75.0846 104.316 73.894 103.68C71.9891 102.645 70.5604 100.895 69.9255 98.8261C69.2905 96.7573 69.5286 94.5293 70.5604 92.5401L99.5307 38.5917C100.959 35.8863 103.737 34.2949 106.753 34.2949C109.77 34.2949 112.548 35.9659 113.976 38.5917L142.947 92.5401C143.582 93.7336 143.899 95.0863 143.899 96.439C143.978 100.974 140.327 104.635 135.724 104.635ZM106.833 39.7852C106.357 39.7852 105.166 39.9444 104.452 41.2175L75.4814 95.1659C75.1639 95.8024 75.0846 96.5186 75.2433 97.2347C75.402 97.9508 75.8783 98.5078 76.5132 98.8261C76.9101 99.0648 77.3069 99.1444 77.7832 99.1444H135.724C136.438 99.1444 137.073 98.9057 137.629 98.3487C138.184 97.7917 138.422 97.1551 138.422 96.439C138.422 95.9616 138.343 95.5637 138.105 95.1659L109.135 41.2175C108.42 39.9444 107.309 39.7852 106.833 39.7852Z" fill="#1E2C35"/>
<path d="M106.833 82.6728C105.325 82.6728 104.134 81.4793 104.055 80.047L103.103 59.2793V59.1997V59.1201C103.103 57.0513 104.769 55.3804 106.833 55.3008C106.912 55.3008 106.992 55.3008 107.071 55.3008C109.135 55.3804 110.722 57.1309 110.643 59.1997L109.69 79.9674C109.532 81.4793 108.262 82.6728 106.833 82.6728Z" fill="#1E2C35"/>
<path d="M106.833 93.4944C104.928 93.4944 103.42 91.9825 103.42 90.0729C103.42 88.1632 104.928 86.6514 106.833 86.6514C108.738 86.6514 110.246 88.1632 110.246 90.0729C110.246 91.9825 108.658 93.4944 106.833 93.4944Z" fill="#1E2C35"/>
</g>
<defs>
<clipPath id="clip0_13909_1759">
<rect width="222" height="185" fill="white"/>
</clipPath>
</defs>
</svg>
