<svg width="196" height="180" viewBox="0 0 196 180" fill="none" xmlns="http://www.w3.org/2000/svg">
<g clip-path="url(#clip0_13909_1865)">
<path d="M43.8391 174.581C43.8391 174.581 68.0778 187.182 95.8445 173.928C123.546 160.675 132.562 134.886 146.935 115.561C154.448 105.441 166.796 99.7609 176.204 91.2734C206.258 64.0482 195.412 18.4769 167.907 6.00682C144.126 -4.83105 116.555 -0.979033 82.4511 17.367C48.4124 35.6477 23.8471 47.4649 5.94579 83.9611C-11.9555 120.457 13.6551 156.953 43.8391 174.581Z" fill="#C6FF00"/>
<path opacity="0.7" d="M43.8391 174.581C43.8391 174.581 68.0778 187.182 95.8445 173.928C123.546 160.675 132.562 134.886 146.935 115.561C154.448 105.441 166.796 99.7609 176.204 91.2734C206.258 64.0482 195.412 18.4769 167.907 6.00682C144.126 -4.83105 116.555 -0.979033 82.4511 17.367C48.4124 35.6477 23.8471 47.4649 5.94579 83.9611C-11.9555 120.457 13.6551 156.953 43.8391 174.581Z" fill="white"/>
<path d="M118.058 27.2256C114.726 27.2256 112.047 29.9024 112.047 33.2321H114.464C114.464 31.2735 116.098 29.6413 118.058 29.6413C120.018 29.6413 121.651 31.2735 121.651 33.2321C121.651 34.5379 121.128 34.9949 119.887 35.9742C119.43 36.3007 118.907 36.7577 118.384 37.2147C116.816 38.7816 116.816 40.3485 116.816 40.4791V42.8948H119.234V40.4791C119.234 40.4791 119.234 39.7609 120.083 38.9122C120.475 38.5205 120.932 38.194 121.324 37.8676C122.631 36.8883 124.068 35.7784 124.068 33.2321C124.068 29.9024 121.39 27.2256 118.058 27.2256ZM116.882 44.0047H119.299V46.4204H116.882V44.0047Z" fill="#1E2C35"/>
<path d="M117.467 54.4939C112.828 54.4939 108.451 52.6658 105.184 49.4014C98.3895 42.6114 98.4549 31.3818 105.38 24.4613C108.712 21.1316 113.155 19.2381 117.859 19.1729C122.563 19.1729 127.006 20.9357 130.272 24.2654C137.067 31.1207 137.002 42.2849 130.076 49.2055C126.744 52.5352 122.302 54.4286 117.598 54.4939C117.598 54.4939 117.532 54.4939 117.467 54.4939ZM106.752 25.8323C100.611 31.9694 100.48 41.9585 106.556 48.0304C109.496 50.9683 113.416 52.5353 117.598 52.5353C121.779 52.47 125.764 50.8377 128.704 47.8345C134.846 41.6973 134.976 31.7082 128.9 25.6364C125.96 22.6984 122.04 21.1315 117.859 21.1315C113.743 21.1968 109.758 22.8943 106.752 25.8323Z" fill="#1E2C35"/>
<path d="M145.299 65.3323C145.038 65.3323 144.776 65.267 144.58 65.0711L128.77 49.2714C128.378 48.8796 128.378 48.292 128.77 47.9002C129.162 47.5085 129.75 47.5085 130.142 47.9002L145.952 63.7001C146.344 64.0918 146.344 64.6794 145.952 65.0711C145.756 65.2017 145.56 65.3323 145.299 65.3323Z" fill="#1E2C35"/>
<path d="M107.212 176.735C106.95 176.735 106.624 176.67 106.362 176.54L58.7342 157.475C57.8849 157.149 57.2969 156.3 57.2969 155.321V126.725C57.2969 125.484 58.3422 124.439 59.5835 124.439C60.8249 124.439 61.8702 125.484 61.8702 126.725V153.754L107.212 171.904L152.553 153.754V126.725C152.553 125.484 153.598 124.439 154.84 124.439C156.081 124.439 157.126 125.484 157.126 126.725V155.321C157.126 156.235 156.538 157.084 155.689 157.475L108.061 176.54C107.8 176.735 107.473 176.735 107.212 176.735Z" fill="#1E2C35"/>
<path d="M59.2576 98.3242L45.2109 117.323L92.9043 136.453L107.212 117.388L59.2576 98.3242Z" fill="#C6FF00"/>
<path d="M155.101 98.3242L169.148 117.323L121.455 136.453L107.212 117.388L155.101 98.3242Z" fill="#C6FF00"/>
<path d="M60.1062 98.5851L107.212 79.1945L155.101 98.324L169.148 84.2217L121.977 65.2881L109.498 76.9747L105.578 77.6276L92.9036 65.2881L46.7129 84.2217L60.1062 98.5851Z" fill="#C6FF00"/>
<path d="M107.212 119.608C106.95 119.608 106.624 119.543 106.362 119.412L58.7342 100.348C57.8849 100.022 57.2969 99.1731 57.2969 98.1937C57.2969 97.2797 57.8849 96.431 58.7342 96.0392L106.362 76.975C106.885 76.7792 107.538 76.7792 108.061 76.975L155.689 96.0392C156.538 96.3657 157.126 97.2144 157.126 98.1937C157.126 99.1078 156.538 99.9565 155.689 100.348L108.061 119.478C107.8 119.543 107.473 119.608 107.212 119.608ZM65.7249 98.3243L107.212 114.908L148.698 98.3243L107.212 81.7411L65.7249 98.3243Z" fill="#1E2C35"/>
<path d="M59.584 100.61C58.996 100.61 58.408 100.414 57.9507 99.9566L43.6427 85.6585C43.12 85.1362 42.8587 84.3527 42.9894 83.5693C43.12 82.7858 43.6427 82.1982 44.3614 81.937L91.9894 62.8728C92.8387 62.5464 93.8187 62.7423 94.472 63.3952L108.78 77.6933C109.695 78.6073 109.695 80.0437 108.78 80.8924C107.865 81.8065 106.428 81.8065 105.579 80.8924L92.3813 67.7042L49.3267 84.875L61.152 96.6922C62.0667 97.6063 62.0667 99.0426 61.152 99.8913C60.76 100.348 60.172 100.61 59.584 100.61Z" fill="#1E2C35"/>
<path d="M154.84 100.609C154.252 100.609 153.664 100.414 153.207 99.9565C152.292 99.0425 152.292 97.6061 153.207 96.7574L165.032 84.9402L121.977 67.7693L108.78 80.9576C107.865 81.8716 106.428 81.8716 105.579 80.9576C104.664 80.0435 104.664 78.6072 105.579 77.7584L119.887 63.3297C120.54 62.6768 121.52 62.481 122.369 62.8074L169.997 81.8716C170.716 82.1328 171.239 82.7857 171.369 83.5038C171.5 84.2873 171.304 85.0055 170.716 85.5931L156.473 99.8912C156.016 100.348 155.428 100.609 154.84 100.609Z" fill="#1E2C35"/>
<path d="M92.9043 138.672C92.643 138.672 92.3163 138.607 92.055 138.476L44.427 119.477C43.7737 119.216 43.251 118.629 43.055 117.976C42.859 117.323 42.9897 116.539 43.447 116.017L57.755 96.9528C58.539 95.9735 59.9763 95.7123 60.9563 96.4958C61.9363 97.2792 62.1977 98.7156 61.4137 99.6949L48.935 116.343L92.1857 133.645L105.448 116.017C106.232 115.038 107.67 114.776 108.65 115.56C109.63 116.343 109.891 117.78 109.107 118.759L94.7337 137.758C94.3417 138.346 93.623 138.672 92.9043 138.672Z" fill="#1E2C35"/>
<path d="M121.52 138.673C120.801 138.673 120.148 138.346 119.691 137.759L105.383 118.695C104.599 117.715 104.86 116.279 105.84 115.496C106.82 114.712 108.257 114.973 109.041 115.953L122.304 133.58L165.555 116.279L153.076 99.6304C152.292 98.6511 152.553 97.2148 153.533 96.4313C154.513 95.6479 155.951 95.909 156.735 96.8883L171.043 115.953C171.5 116.54 171.631 117.258 171.435 117.911C171.239 118.564 170.716 119.152 170.063 119.413L122.435 138.477C122.108 138.608 121.781 138.673 121.52 138.673Z" fill="#1E2C35"/>
<path d="M169.932 63.0685C169.67 63.3297 169.54 63.6561 169.54 63.9825C169.54 64.309 169.67 64.7007 169.866 64.9619L173.394 68.6833L169.67 72.2089C169.409 72.47 169.278 72.7965 169.278 73.1229C169.278 73.4493 169.409 73.8411 169.605 74.1022C169.866 74.3634 170.193 74.494 170.52 74.494C170.846 74.494 171.238 74.3634 171.5 74.1675L175.224 70.6419L178.752 74.3634C179.013 74.6245 179.34 74.7551 179.666 74.7551C179.993 74.7551 180.385 74.6245 180.646 74.4287C180.908 74.1675 181.038 73.8411 181.038 73.5146C181.038 73.1882 180.908 72.7965 180.712 72.5353L177.184 68.8139L180.908 65.2883C181.3 64.8966 181.43 64.309 181.234 63.7867C181.169 63.6561 181.104 63.5255 180.973 63.3949C180.45 62.8726 179.601 62.8073 179.078 63.3297L175.354 66.8552L171.826 63.1338C171.304 62.5462 170.454 62.5462 169.932 63.0685Z" fill="#1E2C35"/>
<path d="M23.9776 111.708C23.7162 111.969 23.5856 112.296 23.5856 112.622C23.5856 112.949 23.7162 113.34 23.9122 113.602L27.4402 117.323L23.7162 120.849C23.4549 121.11 23.3242 121.436 23.3242 121.763C23.3242 122.089 23.4549 122.481 23.6509 122.742C23.9122 123.003 24.2389 123.134 24.5656 123.134C24.8922 123.134 25.2842 123.003 25.5456 122.807L29.2696 119.282L32.7976 123.003C33.0589 123.264 33.3856 123.395 33.7122 123.395C34.0389 123.395 34.4309 123.264 34.6922 123.068C34.9536 122.807 35.0842 122.481 35.0842 122.154C35.0842 121.828 34.9536 121.436 34.7576 121.175L31.2296 117.454L34.9536 113.928C35.3456 113.536 35.4762 112.949 35.2802 112.426C35.2149 112.296 35.1496 112.165 35.0189 112.035C34.4962 111.512 33.6469 111.447 33.1242 111.969L29.4002 115.495L25.8722 111.774C25.3496 111.251 24.5002 111.186 23.9776 111.708Z" fill="#1E2C35"/>
<path d="M77.0938 13.5802C76.8324 13.8414 76.7018 14.1678 76.7018 14.4943C76.7018 14.8207 76.8324 15.2124 77.0284 15.4736L80.5564 19.195L76.8324 22.7206C76.5711 22.9817 76.4404 23.3082 76.4404 23.6346C76.4404 23.9611 76.5711 24.3528 76.7671 24.614C77.0284 24.8751 77.3551 25.0057 77.6818 25.0057C78.0084 25.0057 78.4004 24.8751 78.6618 24.6792L82.3858 21.1537L85.9138 24.8751C86.1751 25.1363 86.5018 25.2668 86.8284 25.2668C87.1551 25.2668 87.5471 25.1363 87.8084 24.9404C88.0698 24.6792 88.2004 24.3528 88.2004 24.0264C88.2004 23.6999 88.0698 23.3082 87.8738 23.047L84.3458 19.3256L88.0698 15.8C88.4618 15.4083 88.5924 14.8207 88.3964 14.2984C88.3311 14.1678 88.2658 14.0372 88.1351 13.9067C87.6124 13.3844 86.7631 13.3191 86.2404 13.8414L82.5164 17.3669L78.9884 13.6455C78.4658 13.0579 77.6164 13.0579 77.0938 13.5802Z" fill="#1E2C35"/>
<path d="M190.186 105.702C188.683 105.702 187.507 106.877 187.507 108.379C187.507 109.881 188.748 111.056 190.186 111.056C191.688 111.056 192.864 109.881 192.864 108.379C192.93 106.943 191.688 105.702 190.186 105.702ZM190.186 114.19C186.984 114.19 184.371 111.578 184.371 108.379C184.371 105.18 186.984 102.568 190.186 102.568C193.387 102.568 196 105.18 196 108.379C196 111.643 193.387 114.19 190.186 114.19Z" fill="#1E2C35"/>
<path d="M47.6936 60.0001C46.1909 60.0001 45.0149 61.1752 45.0149 62.6769C45.0149 64.1785 46.2562 65.3537 47.6936 65.3537C49.1962 65.3537 50.3722 64.1785 50.3722 62.6769C50.3722 61.1752 49.1962 60.0001 47.6936 60.0001ZM47.6936 68.4875C44.4922 68.4875 41.8789 65.876 41.8789 62.6769C41.8789 59.4777 44.4922 56.8662 47.6936 56.8662C50.8949 56.8662 53.5082 59.4777 53.5082 62.6769C53.5082 65.876 50.8949 68.4875 47.6936 68.4875Z" fill="#1E2C35"/>
</g>
<defs>
<clipPath id="clip0_13909_1865">
<rect width="196" height="180" fill="white"/>
</clipPath>
</defs>
</svg>
