<svg width="200" height="186" viewBox="0 0 200 186" fill="none" xmlns="http://www.w3.org/2000/svg">
<g clip-path="url(#clip0_13909_1714)">
<path d="M45.1393 180.401C45.1393 180.401 70.0973 193.421 98.6879 179.726C127.211 166.031 136.495 139.382 151.295 119.413C159.031 108.956 171.745 103.086 181.433 94.3159C212.378 66.1831 201.211 19.0928 172.889 6.20705C148.402 -4.99208 120.013 -1.01167 84.8971 17.9459C49.8484 36.836 24.554 49.0471 6.12148 86.7598C-12.3111 124.473 14.0596 162.185 45.1393 180.401Z" fill="#C6FF00"/>
<path opacity="0.7" d="M45.1393 180.401C45.1393 180.401 70.0973 193.421 98.6879 179.726C127.211 166.031 136.495 139.382 151.295 119.413C159.031 108.956 171.745 103.086 181.433 94.3159C212.378 66.1831 201.211 19.0928 172.889 6.20705C148.402 -4.99208 120.013 -1.01167 84.8971 17.9459C49.8484 36.836 24.554 49.0471 6.12148 86.7598C-12.3111 124.473 14.0596 162.185 45.1393 180.401Z" fill="white"/>
<path d="M60.746 139.989H35.9899C33.5681 139.989 31.6172 138.033 31.6172 135.604C31.6172 133.175 33.5681 131.219 35.9899 131.219H60.746C63.1678 131.219 65.1187 133.175 65.1187 135.604C65.0514 138.033 63.1005 139.989 60.746 139.989Z" fill="#C6FF00"/>
<path d="M166.767 139.989H142.011C139.59 139.989 137.639 138.033 137.639 135.604C137.639 133.175 139.59 131.219 142.011 131.219H166.767C169.189 131.219 171.14 133.175 171.14 135.604C171.14 138.033 169.189 139.989 166.767 139.989Z" fill="#C6FF00"/>
<path d="M134.544 115.365H68.819C66.3972 115.365 64.4463 113.409 64.4463 110.98C64.4463 108.551 66.3972 106.595 68.819 106.595H134.544C136.966 106.595 138.917 108.551 138.917 110.98C138.917 113.409 136.966 115.365 134.544 115.365Z" fill="#C6FF00"/>
<path d="M186.142 167.043C185.805 166.706 185.2 166.503 184.46 166.503H182.98C180.491 166.503 177.935 166.436 175.445 166.571C174.773 166.571 173.965 166.571 173.427 165.963C172.889 165.424 172.755 164.614 172.755 163.939C172.822 144.645 172.822 123.528 172.755 99.3758C172.755 98.4313 172.755 96.205 175.445 95.8002C175.916 95.7327 176.185 95.3279 176.32 94.6533C176.387 94.1136 176.185 93.7088 175.715 93.3715C175.176 92.9667 174.504 92.9667 173.427 93.304C171.073 94.0461 169.862 95.9351 169.862 98.971V100.995C169.862 109.765 169.862 118.806 169.862 127.711C169.862 128.453 169.795 129.263 169.256 129.802C168.651 130.342 167.844 130.41 167.238 130.41C160.578 130.342 153.851 130.342 147.326 130.342C145.375 130.342 143.424 130.342 141.406 130.342C137.437 130.342 136.024 131.759 136.024 135.739V141.069C136.024 148.558 136.024 156.383 136.024 164.007C136.024 164.682 135.957 165.424 135.419 165.963C134.88 166.503 134.073 166.571 133.468 166.503C130.911 166.436 128.22 166.436 125.462 166.503C124.79 166.503 123.982 166.503 123.377 165.828C122.839 165.221 122.839 164.412 122.906 163.805C123.108 162.185 122.704 160.769 121.695 159.554C119.542 156.856 116.582 156.248 113.286 157.8C112.815 158.003 112.411 158.272 111.941 158.475C110.931 159.015 109.922 159.554 108.712 159.824C106.693 160.296 104.473 159.217 103.464 157.26C102.455 155.237 102.859 152.875 104.473 151.526C106.155 150.109 108.106 150.109 110.057 151.459C110.192 151.526 110.259 151.593 110.393 151.661C110.595 151.796 110.73 151.931 110.931 151.998C111.537 152.268 112.008 152.268 112.479 151.863C113.084 151.391 113.084 150.851 113.017 150.514C112.95 149.974 112.613 149.57 111.873 149.03C109.452 147.276 107.03 147.006 104.272 148.085L102.859 148.625V145.184C102.859 143.025 102.859 140.867 102.859 138.708C102.859 132.299 102.859 125.687 102.792 119.21C102.792 118.468 102.859 117.659 103.464 117.052C104.07 116.444 104.877 116.377 105.617 116.377C114.161 116.444 122.906 116.444 131.315 116.377H136.428C137.1 116.377 137.773 116.309 138.513 116.242C139.388 116.107 139.993 115.635 140.329 114.69C141.204 112.194 141.002 109.833 139.724 108.011C138.446 106.19 136.293 105.245 133.737 105.245H128.086C120.753 105.245 113.219 105.245 105.819 105.313C105.55 105.313 105.281 105.313 105.012 105.245H98.0825C97.8134 105.245 97.6116 105.313 97.3425 105.313C91.3553 105.313 85.2336 105.313 79.3136 105.313C75.8155 105.313 72.3173 105.313 68.8864 105.313C66.061 105.313 64.2447 106.257 63.101 108.349C62.4956 109.496 62.4956 110.777 62.4956 112.194V112.599C62.4956 115.837 63.101 116.444 66.3301 116.444H72.4518C80.659 116.444 89.1353 116.444 97.4771 116.444C98.1498 116.444 98.9571 116.512 99.4952 117.052C100.033 117.591 100.101 118.401 100.101 119.075C100.033 125.485 100.033 131.961 100.033 138.303C100.033 140.732 100.033 143.16 100.033 145.589C100.033 145.926 100.033 146.264 99.9662 146.601C99.9662 146.803 99.9661 146.938 99.8989 147.141L99.8316 148.558L98.4862 148.018C95.7953 147.006 93.3735 147.276 91.019 149.03C90.3462 149.502 89.9426 150.042 89.8753 150.581C89.8081 150.919 89.9426 151.256 90.2117 151.593C90.4135 151.931 91.019 152.74 92.768 151.526C94.9207 150.042 97.0062 150.109 98.688 151.661C100.168 153.078 100.504 155.574 99.428 157.463C98.3516 159.419 96.1316 160.296 93.9117 159.757C92.8353 159.487 91.9608 159.015 91.0862 158.542C90.7499 158.34 90.4135 158.205 90.0771 158.003C87.5208 156.721 84.9645 156.653 83.0136 157.868C81.13 159.015 80.0536 161.241 79.9863 164.142C79.9863 164.682 79.9191 165.424 79.3809 165.963C78.8427 166.436 78.17 166.503 77.5645 166.503C75.0082 166.436 72.3173 166.368 69.5591 166.503C68.8864 166.503 68.0792 166.503 67.4737 165.896C66.8683 165.289 66.801 164.479 66.801 163.737C66.8683 155.911 66.8683 147.883 66.8683 140.192V135.537C66.8683 131.826 65.321 130.342 61.621 130.342H56.3065C49.5793 130.342 42.583 130.342 35.7213 130.41C35.0485 130.41 34.2413 130.342 33.7031 129.802C33.1649 129.263 33.0977 128.453 33.0977 127.711C33.1649 118.266 33.1649 108.686 33.0977 99.3758V99.3083C33.0977 98.3638 33.0304 97.5543 32.8958 96.8796C32.4249 94.7882 30.6086 93.2365 28.4559 93.1691C27.7832 93.1691 26.7068 93.2365 26.6395 94.316C26.5723 95.2605 26.9086 95.8002 27.8504 95.9351C29.3977 96.2724 30.205 97.2844 30.1377 98.9036C30.1377 99.7806 30.1377 100.725 30.1377 101.602C30.1377 102.007 30.1377 102.412 30.1377 102.817V114.623C30.1377 130.747 30.1377 147.411 30.205 163.805C30.205 164.547 30.1377 165.424 29.5322 166.031C28.9268 166.638 28.1195 166.638 27.3795 166.638C26.0341 166.571 24.6886 166.571 23.4105 166.571C22.1996 166.571 20.9214 166.571 19.6432 166.571C18.1632 166.503 17.2214 166.773 16.4814 167.38V168.662C17.0196 169.404 17.7596 169.606 19.3069 169.606C67.2046 169.606 115.977 169.606 163.067 169.606H184.393C184.594 169.606 184.729 169.606 184.931 169.606C185.805 169.606 186.882 169.337 186.949 168.122C186.478 167.583 186.411 167.313 186.142 167.043ZM63.0338 165.963C62.5628 166.436 61.8229 166.503 61.2847 166.503C57.9883 166.436 54.692 166.503 51.4629 166.503C49.1084 166.503 46.8212 166.503 44.4666 166.503C41.3721 166.503 38.1431 166.503 34.9813 166.503H34.914C34.3086 166.503 33.7031 166.436 33.1649 165.963C32.6268 165.424 32.5595 164.749 32.6268 164.209C32.694 158.138 32.694 151.661 32.6268 143.768C32.6268 143.228 32.694 142.553 33.1649 142.013C33.6358 141.541 34.3758 141.474 34.914 141.474C44.5339 141.541 53.1447 141.541 61.3519 141.474C61.621 141.474 62.4283 141.474 62.9665 142.013C63.5047 142.553 63.5047 143.295 63.5047 143.835C63.5047 149.907 63.4374 157.058 63.5047 164.277C63.5719 164.749 63.5719 165.424 63.0338 165.963ZM63.0338 137.898C62.4956 138.438 61.6883 138.505 61.0829 138.505C57.9211 138.438 54.692 138.438 51.5975 138.438C49.1757 138.438 46.8212 138.438 44.3994 138.438C41.3049 138.438 38.1431 138.438 35.0485 138.505C34.9813 138.505 34.9813 138.505 34.914 138.505C34.3758 138.505 33.7031 138.438 33.2322 137.898C32.6268 137.291 32.694 136.549 32.694 135.874V135.672C32.694 135.065 32.694 134.322 33.2322 133.783C33.7704 133.243 34.5104 133.176 35.0485 133.176C43.3903 133.243 51.9339 133.243 61.1501 133.176H61.2174C63.5719 133.176 63.5719 134.862 63.6392 135.807C63.6392 136.616 63.5719 137.358 63.0338 137.898ZM95.3244 113.543C86.3099 113.543 76.9591 113.543 67.8101 113.543C67.7428 113.543 67.6083 113.543 67.541 113.611C67.3392 113.611 67.1374 113.678 66.8683 113.678C66.5319 113.678 66.061 113.611 65.7246 113.274C65.321 112.936 65.1192 112.329 65.1192 111.587C65.1192 109.698 65.9937 108.618 67.6083 108.416C67.9446 108.349 68.3483 108.349 68.6173 108.349H68.8864C90.4808 108.349 112.008 108.349 133.602 108.349C135.957 108.349 137.369 108.821 137.437 111.385C137.437 111.722 137.437 112.531 136.899 113.139C136.293 113.678 135.553 113.611 135.284 113.611C134.813 113.543 134.409 113.611 133.871 113.611C133.669 113.611 133.4 113.611 133.199 113.611L95.3244 113.543ZM119.879 164.884C119.879 165.019 119.811 165.154 119.811 165.289C119.744 165.896 119.341 166.638 117.793 166.436C117.726 166.436 117.659 166.436 117.591 166.436C113.219 166.436 108.846 166.436 104.541 166.436H101.244H97.6116C93.6426 166.436 89.6062 166.436 85.5699 166.436C85.5026 166.436 85.3008 166.436 85.1663 166.503C85.0317 166.503 84.7626 166.571 84.4936 166.571C83.8208 166.571 82.9463 166.368 82.7445 165.356C82.5427 164.344 82.139 162.725 83.3499 161.376C83.7536 160.904 85.0317 159.554 87.1172 160.229C88.1935 160.566 89.1353 161.106 90.0771 161.578C90.4808 161.781 90.8844 161.983 91.3553 162.185C94.3153 163.602 97.0734 163.265 99.6971 161.241C101.042 160.161 101.984 160.701 102.792 161.308C105.415 163.265 108.106 163.602 111.066 162.253C111.537 162.05 111.941 161.848 112.411 161.578C113.421 161.038 114.497 160.499 115.641 160.161C117.053 159.757 118.331 160.296 119.341 161.646C120.215 162.725 120.013 164.007 119.879 164.884ZM169.256 165.963C168.718 166.503 167.978 166.503 167.44 166.503C164.211 166.503 160.915 166.503 157.686 166.503H154.255C153.111 166.503 151.968 166.503 150.757 166.503C147.662 166.503 144.433 166.503 141.271 166.503C141.204 166.503 141.204 166.503 141.137 166.503C140.666 166.503 139.926 166.436 139.388 165.896C138.849 165.356 138.782 164.614 138.782 164.074C138.849 156.653 138.849 149.367 138.782 143.835C138.782 143.16 138.849 142.486 139.32 142.013C139.859 141.474 140.531 141.406 141.069 141.406C148.806 141.474 157.147 141.474 167.306 141.406C167.911 141.406 168.516 141.474 169.055 141.946C169.593 142.486 169.593 143.16 169.593 143.633C169.526 150.986 169.526 157.733 169.593 164.209C169.862 164.749 169.795 165.424 169.256 165.963ZM169.324 137.898C168.718 138.573 167.776 138.505 167.44 138.505C164.278 138.438 161.049 138.438 157.955 138.438C155.533 138.438 153.111 138.438 150.622 138.438C147.528 138.438 144.298 138.438 141.137 138.505C141.069 138.505 141.069 138.505 141.002 138.505C140.262 138.505 139.724 138.303 139.32 137.898C138.782 137.291 138.782 136.549 138.782 135.942V135.807C138.782 135.672 138.782 135.604 138.782 135.469C138.782 134.997 138.782 134.255 139.32 133.715C139.724 133.311 140.262 133.108 141.069 133.108C149.478 133.176 158.358 133.176 167.507 133.108C168.247 133.108 168.853 133.311 169.189 133.715C169.727 134.255 169.727 134.93 169.66 135.402C169.66 135.537 169.66 135.604 169.66 135.739C169.862 136.414 169.929 137.291 169.324 137.898ZM28.9268 47.6979C29.2631 47.6979 29.5995 47.6979 30.0031 47.6979H30.474H41.9776C60.0065 47.6979 78.7082 47.6979 97.0734 47.6979C97.208 47.6979 97.4098 47.6979 97.5444 47.6979H104.944C105.213 47.6979 105.415 47.6979 105.617 47.6979C123.511 47.7654 141.675 47.7654 159.233 47.7654H173.293C174.033 47.7654 174.705 47.7654 175.311 47.563C176.253 47.2931 176.858 46.6859 176.993 45.674C177.195 44.7295 176.858 43.9199 176.051 43.3802C175.513 43.0428 174.907 42.7055 174.235 42.4357L170.131 40.5466C148.738 30.8992 126.673 20.9144 104.877 11.1321C103.733 10.5923 102.522 9.78277 102.724 7.75883C102.859 6.20715 102.792 4.58799 102.724 3.17124C102.724 2.63152 102.522 1.34969 101.312 1.28223C100.975 1.28223 100.639 1.34969 100.37 1.61955C100.033 1.95687 99.8316 2.49659 99.7643 3.17124C99.6971 5.12771 99.6971 6.74686 99.7643 8.16362C99.8316 9.9177 98.8225 10.6598 97.8807 11.0646C93.6426 12.9536 89.4044 14.8426 85.2336 16.7316C83.7536 17.4063 82.2063 18.0809 80.7263 18.7556L64.1101 26.2441C52.0011 31.7088 39.8921 37.1734 27.8504 42.638C25.4959 43.7175 25.3614 44.7969 25.5632 45.674C25.6977 46.6185 26.2359 47.6979 28.9268 47.6979ZM112.21 17.6087L167.776 42.7055L171.746 44.7295H163.942C161.453 44.7295 158.897 44.7295 156.407 44.7295C148.738 44.7295 140.8 44.662 132.997 44.7969L133.064 44.8644H124.79L122.57 41.2888C122.3 40.9514 122.031 40.5466 121.83 40.1419C121.291 39.1974 120.753 38.3203 120.148 37.4433L118.802 35.3519C116.717 32.0461 114.564 28.8078 112.479 25.7044C111.873 24.7599 111.268 23.8829 110.662 22.9384L104.742 14.168L112.21 17.6087ZM99.6298 16.2594L99.6971 16.1244C99.9661 15.6522 100.437 14.9775 101.244 14.9775C102.119 14.9775 102.59 15.7871 102.792 16.1244C106.492 21.7915 110.192 27.526 113.824 33.193L121.291 44.662H81.13L83.4845 41.0864C84.359 39.7371 85.1663 38.4552 85.9735 37.1734L89.6735 31.5738C93.0371 26.3791 96.3335 21.3192 99.6298 16.2594ZM34.8467 42.7055L87.0499 19.1604L97.8807 14.2354L91.8935 22.8709C90.7499 24.6925 89.539 26.514 88.3953 28.2681C85.1663 33.193 81.9372 38.1854 78.7754 43.1103C78.2373 43.9199 77.4973 44.7295 75.8827 44.7295C65.4556 44.7295 54.8938 44.7295 44.6012 44.7295H39.4212H30.474L34.8467 42.7055Z" fill="#1E2C35"/>
<path d="M94.9205 61.123C91.4896 61.123 88.7314 63.8891 88.7314 67.3298H91.2205C91.2205 65.3059 92.9023 63.6192 94.9205 63.6192C96.9387 63.6192 98.6205 65.3059 98.6205 67.3298C98.6205 68.6791 98.0823 69.1513 96.8041 70.1633C96.3332 70.5006 95.795 70.9729 95.2568 71.4451C93.6423 73.0643 93.6423 74.6834 93.6423 74.8184V77.3146H96.1314V74.8184C96.1314 74.8184 96.1314 74.0763 97.0059 73.1992C97.4096 72.7944 97.8805 72.4571 98.2841 72.1198C99.6295 71.1078 101.11 69.9609 101.11 67.3298C101.11 63.8891 98.2841 61.123 94.9205 61.123ZM93.6423 78.5289H96.1314V81.0251H93.6423V78.5289Z" fill="#1E2C35"/>
<path d="M94.3132 89.3011C89.5369 89.3011 85.0296 87.4121 81.666 84.0389C74.6697 77.0226 74.737 65.4186 81.8678 58.2674C85.2987 54.8267 89.8732 52.8702 94.7168 52.8027C99.5604 52.8027 104.135 54.6243 107.498 58.065C114.495 65.1488 114.427 76.6852 107.297 83.8365C103.866 87.2772 99.2913 89.2336 94.4477 89.3011C94.3804 89.3011 94.3804 89.3011 94.3132 89.3011ZM83.2805 59.7516C76.957 66.0933 76.8224 76.4154 83.0787 82.6896C86.1059 85.7255 90.1423 87.3447 94.4477 87.3447C98.7531 87.2772 102.857 85.5905 105.884 82.4872C112.208 76.1455 112.342 65.8234 106.086 59.5492C103.059 56.5133 99.0222 54.8941 94.7168 54.8941C90.4114 54.9616 86.3751 56.6483 83.2805 59.7516Z" fill="#1E2C35"/>
<path d="M122.904 100.5C122.635 100.5 122.365 100.433 122.164 100.23L105.884 83.9039C105.48 83.4991 105.48 82.892 105.884 82.4872C106.287 82.0824 106.893 82.0824 107.296 82.4872L123.576 98.8137C123.98 99.2185 123.98 99.8256 123.576 100.23C123.442 100.433 123.173 100.5 122.904 100.5Z" fill="#1E2C35"/>
</g>
<defs>
<clipPath id="clip0_13909_1714">
<rect width="200" height="186" fill="white"/>
</clipPath>
</defs>
</svg>
