<svg width="120" height="120" viewBox="0 0 120 120" fill="none" xmlns="http://www.w3.org/2000/svg">
<circle cx="60" cy="60" r="60" fill="#ECFBFF"/>
<circle cx="60" cy="60" r="50" fill="#C1F1FF"/>
<circle cx="60" cy="60" r="40" fill="#53D8FF"/>
<path d="M59.9962 39.1772C71.4899 39.1772 80.8232 48.5106 80.8232 60.0043C80.8232 71.5002 71.4899 80.8335 59.9962 80.8335C48.5003 80.8335 39.167 71.5002 39.167 60.0043C39.167 48.5106 48.5003 39.1772 59.9962 39.1772ZM49.4774 60.8147L57.5003 67.9606C57.7962 68.2272 58.1691 68.3564 58.5399 68.3564C58.9607 68.3564 59.3837 68.1877 59.6899 67.8522L72.092 54.2918C72.3649 53.9939 72.5003 53.6189 72.5003 53.246C72.5003 52.3918 71.8107 51.6897 70.942 51.6897C70.517 51.6897 70.0982 51.8606 69.7878 52.196L58.4274 64.6168L51.5566 58.496C51.2566 58.2314 50.8878 58.1002 50.517 58.1002C49.6524 58.1002 48.9587 58.7981 48.9587 59.6543C48.9587 60.0814 49.1337 60.5064 49.4774 60.8147Z" fill="white"/>
</svg>
