<svg width="180" height="161" viewBox="0 0 180 161" fill="none" xmlns="http://www.w3.org/2000/svg">
<path d="M180 159.283C180.345 157.656 175.722 156.473 173.853 156.769C172.033 157.065 171.591 157.065 171.394 157.607C171.197 158.149 171.984 160.317 171.984 160.317C171.984 160.317 179.558 161.254 180 159.283Z" fill="#2E353C"/>
<path d="M173.164 155.143C173.164 155.143 174.296 157.311 173.902 157.853C173.312 158.691 171.935 157.902 171.935 157.902L171.345 155.734L173.164 155.143Z" fill="#FDB4A1"/>
<path d="M163.721 76.8815C163.721 117.491 131.459 150.411 91.6228 150.411C56.7047 150.411 27.59 125.08 20.9506 91.5185C20.0162 86.7873 19.5244 81.9083 19.5244 76.8815C19.5244 75.9451 19.5244 74.9595 19.5736 74.0231C21.049 34.7447 52.7211 3.30225 91.6228 3.30225C116.459 3.30225 138.393 16.1158 151.377 35.6318C154.967 41.0036 157.819 46.8683 159.934 53.1272C162.344 60.5689 163.721 68.5527 163.721 76.8815Z" fill="#DEFFA9"/>
<path d="M46.623 139.717C46.623 139.717 53.8526 147.898 71.1149 152.333C81.4919 154.994 72.787 164.21 59.6558 156.374C49.7706 150.46 47.3116 144.842 46.623 139.717Z" fill="#DEFFA9"/>
<path d="M164.41 98.4674C164.41 98.4674 170.558 80.2327 166.279 64.6594C164.066 56.6263 173.164 58.8933 173.459 70.8197C173.804 82.6969 165.099 98.9602 164.41 98.4674Z" fill="#DEFFA9"/>
<path opacity="0.5" d="M42.738 28.5842C48.7871 34.3996 55.0822 39.9685 61.3281 45.5375C64.6724 48.4944 68.0166 51.4514 71.3609 54.4577C74.7052 57.4639 77.9019 60.5194 81.2461 63.5257C83.2625 65.3492 85.2789 67.1233 87.2953 68.8975L84.4429 9.36389C84.2953 6.70262 82.1314 4.53418 79.574 4.53418L46.4757 4.73131C43.7216 4.73131 41.6068 7.0476 41.7543 9.85672L42.738 28.5842Z" fill="#F9F8FD"/>
<path opacity="0.1" d="M37.672 76.832V88.6599C37.672 90.237 36.3933 91.469 34.8687 91.469H20.9506C20.0162 86.7379 19.5244 81.8589 19.5244 76.832C19.5244 75.8957 19.5244 74.91 19.5736 73.9736H34.8687C36.3933 74.0229 37.672 75.3043 37.672 76.832Z" fill="#231F20"/>
<path opacity="0.25" d="M159.886 53.1268H147.443C145.869 53.1268 144.64 51.8454 144.64 50.3177V38.4898C144.64 36.9127 145.918 35.6807 147.443 35.6807H151.377C154.918 41.0525 157.82 46.9171 159.886 53.1268Z" fill="#231F20"/>
<path d="M35.2131 74.2197V86.0476C35.2131 87.6246 33.9344 88.8567 32.4098 88.8567H2.80328C1.22951 88.8567 0 87.5753 0 86.0476V74.2197C0 72.6426 1.27869 71.4106 2.80328 71.4106H32.3607C33.9344 71.3613 35.2131 72.6426 35.2131 74.2197Z" fill="#8EC23C"/>
<path d="M12.9831 74.4663H2.65527V86.4913H12.9831V74.4663Z" fill="url(#paint0_radial_973_830)"/>
<path d="M17.5078 76.2403L16.6226 76.0924L16.2292 75.3039C16.18 75.2053 16.0324 75.2053 15.9833 75.3039L15.5898 76.0924L14.7046 76.2403C14.6062 76.2403 14.557 76.3881 14.6062 76.4867L15.2456 77.1274L15.098 78.0145C15.098 78.113 15.1964 78.2116 15.2947 78.1623L16.0816 77.768L16.8685 78.1623C16.9669 78.2116 17.1144 78.113 17.0652 78.0145L16.9177 77.1274L17.557 76.4867C17.7046 76.3881 17.6554 76.2403 17.5078 76.2403Z" fill="#FFED4A"/>
<path d="M15.5893 77.0782C15.5893 76.9797 15.5893 76.8811 15.5402 76.8318C15.5402 76.7825 15.491 76.7825 15.4418 76.7333L15.3926 76.684C15.3434 76.684 15.3434 76.6347 15.2943 76.6347C15.2451 76.5854 15.1959 76.5854 15.0975 76.5854H15.0484H14.9992C14.9008 76.5854 14.8025 76.5854 14.7041 76.5361L15.2943 77.1275L15.1467 78.0146C15.1467 78.0639 15.1959 78.1625 15.2451 78.1625C15.2451 78.1625 15.2451 78.1132 15.2943 78.1132C15.3926 77.916 15.491 77.7189 15.5402 77.4725C15.5402 77.3247 15.5893 77.2261 15.5893 77.0782Z" fill="#F2BF0A"/>
<path d="M16.4259 76.1419C16.4259 76.1912 16.4751 76.2405 16.4751 76.2405C16.5243 76.2898 16.5243 76.2898 16.5735 76.2898C16.6718 76.2898 16.7702 76.2898 16.8194 76.2898C16.9177 76.2898 17.0161 76.2898 17.1636 76.2898C17.3112 76.2898 17.4587 76.2898 17.6063 76.2898C17.6063 76.2405 17.5571 76.2405 17.5079 76.2405L16.6227 76.0927L16.2292 75.3041C16.2292 75.2548 16.18 75.2548 16.1309 75.2056C16.18 75.452 16.3768 76.0434 16.4259 76.1419Z" fill="#8EC23C"/>
<path d="M21.3936 76.2403L20.5083 76.0924L20.1149 75.3039C20.0657 75.2053 19.9182 75.2053 19.869 75.3039L19.4756 76.0924L18.5903 76.2403C18.492 76.2403 18.4428 76.3881 18.4919 76.4867L19.1313 77.1274L18.9838 78.0145C18.9838 78.113 19.0821 78.2116 19.1805 78.1623L19.9674 77.768L20.7542 78.1623C20.8526 78.2116 21.0001 78.113 20.951 78.0145L20.8034 77.1274L21.4428 76.4867C21.5411 76.3881 21.492 76.2403 21.3936 76.2403Z" fill="#FFED4A"/>
<path d="M19.4263 77.0782C19.4263 76.9797 19.4263 76.8811 19.3771 76.8318C19.3771 76.7825 19.3279 76.7825 19.2787 76.7333L19.2295 76.684C19.1804 76.684 19.1804 76.6347 19.1312 76.6347C19.082 76.5854 19.0328 76.5854 18.9345 76.5854H18.8853H18.8361C18.7377 76.5854 18.6394 76.5854 18.541 76.5361L19.1312 77.1275L18.9836 78.0146C18.9836 78.0639 19.0328 78.1625 19.082 78.1625C19.082 78.1625 19.082 78.1132 19.1312 78.1132C19.2295 77.916 19.3279 77.7189 19.3771 77.4725C19.4263 77.3247 19.4263 77.2261 19.4263 77.0782Z" fill="#F2BF0A"/>
<path d="M20.2629 76.1419C20.2629 76.1912 20.312 76.2405 20.312 76.2405C20.3612 76.2898 20.3612 76.2898 20.4104 76.2898C20.5088 76.2898 20.6071 76.2898 20.6563 76.2898C20.7547 76.2898 20.853 76.2898 21.0006 76.2898C21.1481 76.2898 21.2956 76.2898 21.4432 76.2898C21.4432 76.2405 21.394 76.2405 21.3448 76.2405L20.4596 76.0927L20.0661 75.3041C20.0661 75.2548 20.017 75.2548 19.9678 75.2056C20.017 75.452 20.2629 76.0434 20.2629 76.1419Z" fill="#8EC23C"/>
<path d="M25.2295 76.2403L24.3443 76.0924L23.9508 75.3039C23.9017 75.2053 23.7541 75.2053 23.7049 75.3039L23.3115 76.0924L22.4262 76.2403C22.3279 76.2403 22.2787 76.3881 22.3279 76.4867L22.9672 77.1274L22.8197 78.0145C22.8197 78.113 22.9181 78.2116 23.0164 78.1623L23.8033 77.768L24.5902 78.1623C24.6885 78.2116 24.8361 78.113 24.7869 78.0145L24.6394 77.1274L25.2787 76.4867C25.4262 76.3881 25.3771 76.2403 25.2295 76.2403Z" fill="#FFED4A"/>
<path d="M23.311 77.0782C23.311 76.9797 23.311 76.8811 23.2618 76.8318C23.2618 76.7825 23.2127 76.7825 23.1635 76.7333L23.1143 76.684C23.0651 76.684 23.0651 76.6347 23.0159 76.6347C22.9668 76.5854 22.9176 76.5854 22.8192 76.5854H22.77H22.7209C22.6225 76.5854 22.5241 76.5854 22.4258 76.5361L23.0159 77.1275L22.8684 78.0146C22.8684 78.0639 22.9176 78.1625 22.9668 78.1625C22.9668 78.1625 22.9668 78.1132 23.0159 78.1132C23.1143 77.916 23.2127 77.7189 23.2618 77.4725C23.2618 77.3247 23.311 77.2261 23.311 77.0782Z" fill="#F2BF0A"/>
<path d="M24.1476 76.1419C24.1476 76.1912 24.1968 76.2405 24.1968 76.2405C24.246 76.2898 24.246 76.2898 24.2952 76.2898C24.3935 76.2898 24.4919 76.2898 24.5411 76.2898C24.6394 76.2898 24.7378 76.2898 24.8853 76.2898C25.0329 76.2898 25.1804 76.2898 25.3279 76.2898C25.3279 76.2405 25.2788 76.2405 25.2296 76.2405L24.3443 76.0927L23.9509 75.3041C23.9509 75.2548 23.9017 75.2548 23.8525 75.2056C23.9017 75.452 24.0984 76.0434 24.1476 76.1419Z" fill="#8EC23C"/>
<path d="M29.1641 76.2403L28.2789 76.0924L27.8854 75.3039C27.8362 75.2053 27.6887 75.2053 27.6395 75.3039L27.2461 76.0924L26.3608 76.2403C26.2625 76.2403 26.2133 76.3881 26.2625 76.4867L26.9018 77.1274L26.7543 78.0145C26.7543 78.113 26.8526 78.2116 26.951 78.1623L27.7379 77.768L28.5248 78.1623C28.6231 78.2116 28.7707 78.113 28.7215 78.0145L28.5739 77.1274L29.2133 76.4867C29.3608 76.3881 29.3116 76.2403 29.1641 76.2403Z" fill="#FFED4A"/>
<path d="M27.2456 77.0782C27.2456 76.9797 27.2456 76.8811 27.1964 76.8318C27.1964 76.7825 27.1472 76.7825 27.0981 76.7333L27.0489 76.684C26.9997 76.684 26.9997 76.6347 26.9505 76.6347C26.9013 76.5854 26.8522 76.5854 26.7538 76.5854H26.7046H26.6554C26.5571 76.5854 26.4587 76.5854 26.3604 76.5361L26.9505 77.1275L26.803 78.0146C26.803 78.0639 26.8522 78.1625 26.9013 78.1625C26.9013 78.1625 26.9013 78.1132 26.9505 78.1132C27.0489 77.916 27.1472 77.7189 27.1964 77.4725C27.1964 77.3247 27.2456 77.2261 27.2456 77.0782Z" fill="#F2BF0A"/>
<path d="M28.0822 76.1419C28.0822 76.1912 28.1314 76.2405 28.1314 76.2405C28.1806 76.2898 28.1806 76.2898 28.2297 76.2898C28.3281 76.2898 28.4265 76.2898 28.4756 76.2898C28.574 76.2898 28.6724 76.2898 28.8199 76.2898C28.9674 76.2898 29.115 76.2898 29.2625 76.2898C29.2625 76.2405 29.2133 76.2405 29.1642 76.2405L28.2789 76.0927L27.8855 75.3041C27.8855 75.2548 27.8363 75.2548 27.7871 75.2056C27.8363 75.452 28.033 76.0434 28.0822 76.1419Z" fill="#8EC23C"/>
<path d="M33.0489 76.2403L32.1636 76.0924L31.7702 75.3039C31.721 75.2053 31.5735 75.2053 31.5243 75.3039L31.1308 76.0924L30.2456 76.2403C30.1472 76.2403 30.098 76.3881 30.1472 76.4867L30.7866 77.1274L30.639 78.0145C30.639 78.113 30.7374 78.2116 30.8357 78.1623L31.6226 77.768L32.4095 78.1623C32.5079 78.2116 32.6554 78.113 32.6062 78.0145L32.4587 77.1274L33.098 76.4867C33.1964 76.3881 33.1472 76.2403 33.0489 76.2403Z" fill="#FFED4A"/>
<path d="M31.0815 77.0782C31.0815 76.9797 31.0815 76.8811 31.0324 76.8318C31.0324 76.7825 30.9832 76.7825 30.934 76.7333L30.8848 76.684C30.8356 76.684 30.8356 76.6347 30.7865 76.6347C30.7373 76.5854 30.6881 76.5854 30.5897 76.5854H30.5405H30.4914C30.393 76.5854 30.2946 76.5854 30.1963 76.5361L30.7865 77.1275L30.6389 78.0146C30.6389 78.0639 30.6881 78.1625 30.7373 78.1625C30.7373 78.1625 30.7373 78.1132 30.7865 78.1132C30.8848 77.916 30.9832 77.7189 31.0324 77.4725C31.0815 77.3247 31.0815 77.2261 31.0815 77.0782Z" fill="#F2BF0A"/>
<path d="M31.9181 76.1419C31.9181 76.1912 31.9673 76.2405 31.9673 76.2405C32.0165 76.2898 32.0165 76.2898 32.0657 76.2898C32.164 76.2898 32.2624 76.2898 32.3116 76.2898C32.4099 76.2898 32.5083 76.2898 32.6558 76.2898C32.8034 76.2898 32.9509 76.2898 33.0985 76.2898C33.0985 76.2405 33.0493 76.2405 33.0001 76.2405L32.1149 76.0927L31.7214 75.3041C31.7214 75.2548 31.6722 75.2548 31.623 75.2056C31.6722 75.452 31.9181 76.0434 31.9181 76.1419Z" fill="#8EC23C"/>
<path d="M12.1479 83.1398C12.0496 83.2877 11.902 83.4355 11.7545 83.5834C10.7709 84.569 9.44301 85.1604 7.9676 85.1604H7.67252C6.00038 85.1604 4.47579 84.3719 3.49219 83.1398C4.37743 81.8585 5.80366 80.9714 7.47579 80.8728C6.34465 80.725 5.50858 79.7393 5.50858 78.5565C5.50858 77.2752 6.54137 76.2402 7.82006 76.2402C9.09874 76.2402 10.1315 77.2752 10.1315 78.5565C10.1315 79.7393 9.29547 80.6757 8.16432 80.8728C9.83645 80.9714 11.2627 81.8092 12.1479 83.1398Z" fill="white"/>
<path d="M24.9344 80.0352H15.0491C14.7049 80.0352 14.459 80.3309 14.459 80.6266C14.459 80.9715 14.7541 81.2179 15.0491 81.2179H24.9344C25.2787 81.2179 25.5246 80.9223 25.5246 80.6266C25.5737 80.2816 25.2787 80.0352 24.9344 80.0352Z" fill="#E0E2E5"/>
<path d="M18.541 82.4009H15.0491C14.7049 82.4009 14.459 82.6966 14.459 82.9923C14.459 83.3373 14.7541 83.5837 15.0491 83.5837H18.541C18.8852 83.5837 19.1311 83.288 19.1311 82.9923C19.1803 82.6966 18.8852 82.4009 18.541 82.4009Z" fill="#E0E2E5"/>
<path d="M24.1474 82.4009H20.6556C20.3113 82.4009 20.0654 82.6966 20.0654 82.9923C20.0654 83.3373 20.3605 83.5837 20.6556 83.5837H24.1474C24.4917 83.5837 24.7376 83.288 24.7376 82.9923C24.7867 82.6966 24.4917 82.4009 24.1474 82.4009Z" fill="#E0E2E5"/>
<path d="M30.0488 82.4009H26.557C26.2127 82.4009 25.9668 82.6966 25.9668 82.9923C25.9668 83.3373 26.2619 83.5837 26.557 83.5837H30.0488C30.393 83.5837 30.6389 83.288 30.6389 82.9923C30.6389 82.6966 30.3438 82.4009 30.0488 82.4009Z" fill="#E0E2E5"/>
<path d="M32.6558 80.0352H26.9017C26.5574 80.0352 26.3115 80.3309 26.3115 80.6266C26.3115 80.9715 26.6066 81.2179 26.9017 81.2179H32.6066C32.9509 81.2179 33.1968 80.9223 33.1968 80.6266C33.2459 80.2816 33 80.0352 32.6558 80.0352Z" fill="#E0E2E5"/>
<path d="M132.738 86.393C132.738 86.393 165.886 111.774 173.951 155.685L171.197 157.015L137.066 119.56C137.066 119.56 99.0988 108.57 101.164 88.8572C103.279 69.1933 132.738 86.393 132.738 86.393Z" fill="#0E2851"/>
<path d="M123.64 86.8857C123.64 86.8857 123.05 117.441 117.787 125.178C109.722 137.056 79.3775 149.376 79.3775 149.376C79.3775 149.376 73.3283 148.44 68.1152 146.419L94.2792 121.433C94.2792 121.433 94.8202 101.523 95.7054 88.8571L123.64 86.8857Z" fill="#132D60"/>
<path d="M155.557 85.3583C156.246 84.5697 156.787 83.7319 157.672 83.1405C154.918 77.0295 139.426 49.2832 134.459 48.2976C131.656 47.7555 123.098 51.0081 134.656 63.0824C137.361 66.0394 155.508 85.4075 155.557 85.3583Z" fill="#FDCEA3"/>
<path opacity="0.25" d="M123.492 93.1941C123.64 92.8491 123.738 92.4549 123.787 92.1099C123.837 91.8142 123.886 91.5185 123.886 91.2228C123.837 90.8285 123.64 90.4343 123.246 90.2864C122.853 90.1386 122.41 90.1879 121.968 90.2864C121.427 90.385 120.935 90.5821 120.443 90.7793C119.951 90.9764 119.459 91.2228 119.017 91.4692C118.181 91.8635 117.246 92.2085 116.361 92.4056C114.541 92.7999 112.673 92.7013 110.902 92.3563C110.017 92.1592 109.082 91.8142 108.197 91.7649C107.41 91.7156 106.574 91.8635 105.787 92.0606C104.902 92.2577 104.066 92.5042 103.181 92.652C102.394 92.7506 101.558 92.7999 100.771 92.7999C99.8857 92.7999 99.0005 92.7999 98.1152 92.8984L98.1644 88.8572L103.82 88.118L131.41 85.7031C131.41 85.7031 132 92.8491 123.197 97.876C123.64 97.1367 123.197 93.8841 123.492 93.1941Z" fill="#231F20"/>
<path d="M120.246 22.2271C120.246 22.2271 134.066 28.6338 138.148 43.6651C138.148 43.6651 132.148 55.8379 129.64 52.4374C127.082 49.0862 120.246 22.2271 120.246 22.2271Z" fill="#39B54A"/>
<path d="M86.4104 85.9C86.4104 85.9 124.082 93.736 132.394 84.7665C143.853 72.4458 134.558 22.5223 113.361 19.2697C83.2136 14.5878 86.4104 85.9 86.4104 85.9Z" fill="#3C4275"/>
<path opacity="0.25" d="M94.1803 82.8941C95.1639 82.5984 96.0983 82.2534 97.0328 81.9084C98.0655 81.5141 99.0491 81.1199 100.131 80.8735C102.098 80.4299 104.066 80.3314 106.082 80.3806C107.115 80.3806 108.148 80.4792 109.18 80.5285C110.164 80.5778 111.148 80.627 112.131 80.6763C113.705 80.8242 115.672 81.2184 117.098 80.2821C117.688 79.8878 118.131 79.2964 118.525 78.705C118.82 78.2615 119.066 77.7194 119.459 77.3744C120.049 76.8816 120.836 76.9308 121.574 76.9308C122.213 76.9308 122.852 76.8816 123.443 76.783C124.377 76.5859 125.066 75.9945 125.508 75.1567C126.246 73.6782 126.59 71.904 126.836 70.2777C127.131 68.0599 127.229 65.8422 127.279 63.6245C127.328 61.4068 127.377 59.2383 127.18 57.0699C126.984 54.9014 126.688 52.733 126.344 50.5645C126 48.3961 125.607 46.2276 125.262 44.0592C124.918 41.8415 124.574 39.6237 124.18 37.3567C123.492 33.1184 122.656 28.8801 121.77 24.6418C121.82 24.6418 121.869 24.5925 121.869 24.4939L121.918 23.459C136.918 36.3711 142.229 74.3189 132.492 84.8161C124.18 93.7856 86.5082 85.9496 86.5082 85.9496C86.5082 85.9496 86.5082 85.4568 86.459 84.5697C87.0491 84.5204 87.6393 84.4218 88.2295 84.3233C90.1967 83.9783 92.2131 83.4854 94.1803 82.8941Z" fill="#231F20"/>
<path d="M122.459 7.6391C122.509 6.80129 122.213 5.96348 121.771 5.32281C121.771 5.22424 121.771 5.12567 121.82 5.02711C121.918 2.36584 119.853 0.0988281 117.197 0.000262478C116.115 -0.0490203 115.082 0.295959 114.246 0.887353C113.853 0.690222 113.41 0.591656 112.918 0.591656C110.902 0.493091 109.23 2.07014 109.131 4.09074C107.705 4.58356 106.672 5.86492 106.623 7.44197C106.574 8.47691 106.968 9.46256 107.656 10.1525C107.607 10.4482 107.558 10.6946 107.558 10.9903C107.41 14.243 109.968 16.9535 113.213 17.1014C114.984 17.1507 116.607 16.4114 117.738 15.2287C119.41 14.933 120.738 13.5038 120.836 11.7296C120.836 11.3846 120.787 11.0396 120.738 10.6946C121.672 10.054 122.41 8.92045 122.459 7.6391Z" fill="#2D305E"/>
<path d="M114.148 11.9265C114.148 11.9265 114.345 16.5098 114.984 17.7911C115.624 19.0725 118.132 20.9452 114.837 21.783C111.542 22.6208 107.263 20.2553 107.46 19.0232C107.656 17.7911 109.771 17.0026 110.41 14.637C111.05 12.2714 110.804 11.4829 110.804 11.4829L114.148 11.9265Z" fill="#FDCEA3"/>
<path opacity="0.25" d="M114.985 17.7911C114.345 16.5098 114.149 11.9265 114.149 11.9265L111.001 11.5322C111.099 11.6308 111.198 11.7294 111.198 11.9265C111.444 13.75 111.935 14.9327 112.722 16.4605C113.362 17.6926 114.985 19.3189 114.345 20.6003C114.001 21.2409 113.509 21.6352 112.919 21.9309C113.558 21.9802 114.247 21.9309 114.837 21.7831C118.132 20.9452 115.624 19.0725 114.985 17.7911Z" fill="#D66E85"/>
<path d="M115.722 15.7707C114.05 16.9534 110.411 14.095 110.657 11.9266C110.755 11.2366 110.903 10.0538 110.903 10.0538C110.903 10.0538 110.066 9.26532 110.558 8.27967C110.952 7.54043 111.444 8.27967 111.444 8.27967L111.739 7.39258L118.132 8.82178C118.132 8.82178 118.083 9.31461 117.935 10.0538C118.427 9.906 118.722 10.2017 118.722 10.4481C118.673 11.2859 117.788 12.4194 117.542 11.8773C117.148 13.6022 116.657 15.13 115.722 15.7707Z" fill="#FDCEA3"/>
<path opacity="0.25" d="M112.033 7.49121C112.082 7.58978 112.132 7.68834 112.23 7.73762C112.525 8.18117 113.509 8.27974 114.05 8.32902C117.984 8.82185 117.345 9.90607 117.591 10.5467C117.787 11.0889 117.443 11.8774 117.443 12.5181C117.541 12.1238 117.64 11.7788 117.738 11.3846C117.836 10.8917 117.935 10.4482 117.984 10.1032C118.082 9.36396 118.181 8.87113 118.181 8.87113L112.033 7.49121Z" fill="#D66E85"/>
<path opacity="0.25" d="M111.198 8.4277C111.198 8.4277 111.05 8.132 110.903 8.23056C110.755 8.37841 110.558 9.11766 110.804 9.46263C110.804 9.46263 110.657 8.72339 110.853 8.52626C111.05 8.37841 111.247 8.62483 111.198 8.4277Z" fill="#D66E85"/>
<path d="M114.443 21.8328C114.443 21.8328 115.033 24.5433 114.64 25.4304C114.246 26.3175 107.754 24.4448 106.623 22.7199C105.394 20.7978 106.623 18.1366 107.459 18.728C111.59 21.7835 114.443 21.8328 114.443 21.8328Z" fill="#F8FCDC"/>
<path d="M114.394 21.8329C114.394 21.8329 115.525 24.987 117.246 24.8884C118.967 24.7898 120.689 23.1635 120.541 22.4243C120.394 21.685 117.492 19.5659 116.213 19.4673C115.721 21.1429 114.394 21.8329 114.394 21.8329Z" fill="#F8FCDC"/>
<path d="M105.787 19.7134C105.787 19.7134 102.738 20.6498 108.787 34.2025C114.836 47.7553 106.525 87.6744 106.525 87.6744C106.525 87.6744 86.6065 93.5883 83.6557 87.4772C80.7049 81.3662 84.295 26.0216 105.787 19.7134Z" fill="#8EC641"/>
<path opacity="0.25" d="M91.377 62.2444C92.5574 60.9138 93.5902 59.4353 94.4262 57.8582C95.3115 56.2319 96 54.507 96.6885 52.7821C98.0164 49.4801 99.2459 46.0303 101.508 43.2705C101.41 43.5662 101.361 43.8619 101.311 44.1576C100.77 46.4246 100.279 48.7409 100.525 51.1065C100.623 52.1414 100.918 53.1271 101.311 54.0634C101.705 54.9505 102.148 55.8376 102.492 56.774C102.836 57.7597 102.984 58.7453 102.885 59.731C102.738 60.963 102.295 62.1458 101.951 63.3286C101.164 65.6942 100.279 68.0105 99.6885 70.4253C99.0983 72.7909 98.7541 75.2058 99.0492 77.6699C99.3442 80.2326 99.8361 82.7953 100.082 85.358C100.229 86.6394 100.328 87.8714 100.328 89.1528C94.2295 90.3849 85.5246 91.3212 83.6557 87.4772C82.6229 85.358 82.4262 77.4235 83.4098 67.6162C86.4098 66.4334 89.2131 64.7085 91.377 62.2444Z" fill="#231F20"/>
<path d="M94.6725 62.5892C96.9348 64.2155 101.066 62.5892 101.263 57.9566C101.459 53.324 98.7053 53.4719 100.427 48.8886C102.148 44.3053 104.509 39.377 101.017 39.2291C97.5249 39.0813 94.4757 43.566 93.8856 46.6216C93.2462 49.6771 94.6725 62.5892 94.6725 62.5892Z" fill="#FDCEA3"/>
<path opacity="0.25" d="M101.509 40.1657C100.87 40.1165 100.181 40.215 99.5416 40.3629C98.8531 40.5107 98.1646 40.7571 97.5253 41.0035C97.2302 41.1514 96.8859 41.25 96.5908 41.3978C97.8203 40.0672 99.3449 39.1308 100.968 39.1801C102.099 39.2294 102.591 39.7715 102.738 40.6586C102.443 40.4122 102.001 40.215 101.509 40.1657Z" fill="white"/>
<path opacity="0.25" d="M93.8856 46.622C94.1807 45.2421 94.9184 43.6158 95.9512 42.2358C96.0003 44.01 96.443 45.7842 96.738 47.5584C97.0331 49.3326 97.3774 51.156 97.6233 52.9302C97.7708 53.8173 97.8692 54.7044 98.0167 55.5915C98.1643 56.38 98.4102 57.1685 98.7053 57.9078C99.0003 58.647 99.7872 60.569 100.869 59.9777C99.7872 63.0825 96.5905 64.0188 94.6725 62.6389C94.6725 62.5896 93.2462 49.6775 93.8856 46.622Z" fill="#D66E85"/>
<path d="M120.492 22.3745C120.492 22.3745 134.951 45.3896 129.787 88.6599C129.787 88.6599 139.623 94.9188 141.492 88.857C143.361 82.8445 139.476 32.6746 120.492 22.3745Z" fill="#8EC641"/>
<path d="M89.3611 114.682L75.0004 116.259C74.3611 116.308 73.7218 116.407 73.1316 116.308C72.984 116.308 72.8857 116.308 72.7381 116.308L69.5906 116.653C69.4431 116.653 69.2955 116.702 69.1972 116.751C68.607 116.998 67.9677 117.047 67.3283 117.096L52.3775 118.723C47.7054 119.216 43.7218 115.815 43.4759 111.084L42.4431 91.1244L41.4103 71.707L38.2627 13.2083C38.0168 8.37859 41.6562 4.48525 46.3775 4.43597L83.9513 4.3374C88.3283 4.3374 92.0168 8.03361 92.2136 12.6169L96.689 105.663C96.9349 110.197 93.689 114.189 89.3611 114.682Z" fill="#2D305E"/>
<path d="M94.4273 17.9888C94.8207 17.9888 95.165 18.3337 95.165 18.728L95.3125 21.9314C95.3125 22.3257 95.0174 22.7199 94.624 22.7199C94.2305 22.7199 93.8863 22.3749 93.8863 21.9807L93.7387 18.7773C93.6896 18.383 93.9846 18.0381 94.4273 17.9888Z" fill="#2D305E"/>
<path d="M94.2303 25.3813C94.9188 25.3813 95.509 25.9235 95.5582 26.6627L95.8041 32.2317C95.8533 32.9709 95.3123 33.5623 94.6238 33.6116C93.9352 33.6116 93.3451 33.0695 93.2959 32.3302L93.05 26.7613C93.0008 26.022 93.5418 25.3813 94.2303 25.3813Z" fill="#2D305E"/>
<path d="M94.6239 33.4141C95.3124 33.4141 95.9026 33.9562 95.9517 34.6954L96.1976 40.2644C96.2468 41.0036 95.7058 41.595 95.0173 41.6443C94.3288 41.6936 93.7386 41.1022 93.6894 40.3629L93.4435 34.7447C93.3944 34.0547 93.9353 33.4141 94.6239 33.4141Z" fill="#2D305E"/>
<path d="M48.4429 2.90814L86.0167 2.80957C90.3937 2.80957 94.0823 6.50578 94.279 11.0891L98.7544 104.135C98.9511 108.62 95.7052 112.661 91.3773 113.154L77.0167 114.731C76.3773 114.78 75.738 114.879 75.1478 114.78C75.0003 114.78 74.9019 114.731 74.7544 114.78L71.6069 115.125C71.4593 115.125 71.361 115.174 71.2134 115.224C70.6232 115.47 69.9839 115.519 69.3446 115.569L54.3937 117.195C49.7216 117.688 45.738 114.287 45.4921 109.556L40.3282 11.6312C40.0823 6.80148 43.7216 2.90814 48.4429 2.90814Z" fill="#3C4275"/>
<path d="M48.8368 6.11168L86.0171 5.91455C88.8696 5.91455 91.3286 8.32941 91.4762 11.3357L95.9516 104.184C96.0991 107.141 93.9352 109.803 91.0827 110.098L54.4434 113.992C51.3942 114.337 48.7876 112.07 48.5909 108.965L43.4762 11.8285C43.3286 8.67439 45.7385 6.11168 48.8368 6.11168Z" fill="#F9F8FD"/>
<path d="M63.3943 6.9985L72.1484 6.94922C72.296 6.94922 72.4435 7.09707 72.4435 7.24492C72.4435 7.39276 72.3452 7.54061 72.1976 7.54061L63.4435 7.58989C63.296 7.58989 63.1484 7.44205 63.1484 7.2942C63.1484 7.14635 63.2468 6.9985 63.3943 6.9985Z" fill="#E0E2E5"/>
<path d="M65.1647 110.788L80.7549 109.162C80.9024 109.162 81.05 109.261 81.05 109.409C81.05 109.556 80.9516 109.704 80.8041 109.704L65.2139 111.331C65.0664 111.331 64.9188 111.232 64.9188 111.084C64.8696 110.936 65.0172 110.788 65.1647 110.788Z" fill="#EAEDF2"/>
<path opacity="0.15" d="M50.2132 70.6718L90.1968 68.0599C91.3771 67.9613 92.2624 66.9264 92.2132 65.6943L89.8525 16.6579C89.8034 15.4258 88.7706 14.3909 87.5903 14.4402L47.3116 14.9823C46.0329 14.9823 45.0493 16.0665 45.0984 17.3971L47.7542 68.5034C47.8525 69.7848 48.9345 70.7704 50.2132 70.6718Z" fill="url(#paint1_radial_973_830)"/>
<path d="M88.9185 88.759L87.3448 88.6604L86.6071 87.2805C86.5579 87.1819 86.4595 87.1326 86.3612 87.1819C86.3612 87.1819 86.312 87.1819 86.312 87.2312H86.2628C86.2136 87.2805 86.2136 87.2805 86.1644 87.3298L85.5251 88.8576L84.0005 89.2025C83.9513 89.2025 83.9022 89.2518 83.9022 89.2518C83.9022 89.2518 83.9022 89.2518 83.853 89.3011C83.853 89.3011 83.853 89.3011 83.8038 89.3504C83.7546 89.4489 83.7546 89.5968 83.853 89.6954L85.0333 90.7303L84.8366 92.3566C84.7874 92.5538 85.0333 92.7016 85.23 92.603L86.5579 91.716L87.9841 92.3566C88.0333 92.4059 88.1317 92.4059 88.1808 92.3566L88.23 92.3073L88.2792 92.2581V92.2088C88.2792 92.2088 88.2792 92.2088 88.2792 92.1595C88.2792 92.1102 88.2792 92.1102 88.2792 92.0609L87.9349 90.4839L88.9185 89.3504L88.9677 89.2518C89.2628 89.0054 89.1644 88.759 88.9185 88.759Z" fill="#FFCE00"/>
<path d="M82.1312 89.3503L80.5574 89.2517L79.7705 87.8718C79.7213 87.7732 79.623 87.724 79.5246 87.7732C79.5246 87.7732 79.4754 87.7732 79.4754 87.8225H79.4262C79.3771 87.8718 79.3771 87.8718 79.3279 87.9211L78.6885 89.4489L77.1148 89.7938C77.0656 89.7938 77.0164 89.8431 77.0164 89.8431C77.0164 89.8431 77.0164 89.8431 76.9672 89.8924C76.9672 89.8924 76.9672 89.8924 76.918 89.9417C76.8689 90.0402 76.8689 90.1881 76.9672 90.2867L78.1476 91.3216L77.9508 92.9479C77.9017 93.1451 78.1476 93.2929 78.3443 93.1943L79.7213 92.3073L81.1476 92.9479C81.1967 92.9972 81.2951 92.9972 81.3443 92.9479L81.3935 92.8986L81.4426 92.8494V92.8001C81.4426 92.8001 81.4426 92.8001 81.4426 92.7508C81.4426 92.7015 81.4426 92.7015 81.4426 92.6522L81.0984 91.0752L82.082 89.9417L82.1312 89.8431C82.4262 89.5967 82.3279 89.3503 82.1312 89.3503Z" fill="#FFCE00"/>
<path d="M75.2464 89.8927L73.6726 89.7942L72.8857 88.365C72.8366 88.2664 72.7382 88.2171 72.6398 88.2664C72.6398 88.2664 72.5907 88.2664 72.5907 88.3157H72.5415C72.4923 88.365 72.4923 88.365 72.4431 88.4142L71.8038 89.942L70.23 90.287C70.1808 90.287 70.1316 90.3363 70.1316 90.3363C70.1316 90.3363 70.1316 90.3363 70.0825 90.3856C70.0825 90.3856 70.0825 90.3856 70.0333 90.4348C69.9841 90.5334 69.9841 90.6813 70.0825 90.7798L71.2628 91.8148L71.0661 93.4411C71.0169 93.6382 71.2628 93.7861 71.4595 93.6875L72.8366 92.8004L74.2628 93.4411C74.312 93.4904 74.4103 93.4904 74.4595 93.4411L74.5087 93.3918L74.5579 93.3425V93.2932C74.5579 93.2932 74.5579 93.2932 74.5579 93.244C74.5579 93.1947 74.5579 93.1947 74.5579 93.1454L74.2136 91.5684L75.2464 90.4348L75.2956 90.3363C75.5907 90.1884 75.4923 89.942 75.2464 89.8927Z" fill="#FFCE00"/>
<path d="M68.0661 90.484L66.4923 90.3855L65.7054 88.9563C65.6563 88.8577 65.5579 88.8084 65.4103 88.8577C65.4103 88.8577 65.3612 88.8577 65.3612 88.907H65.312C65.2628 88.9563 65.2628 88.9563 65.2136 89.0056L64.5743 90.5333L63.0005 90.8783C62.9513 90.8783 62.9022 90.9276 62.9022 90.9276C62.9022 90.9276 62.9022 90.9276 62.853 90.9769C62.853 90.9769 62.8038 90.9769 62.8038 91.0262C62.7546 91.1247 62.7546 91.2726 62.853 91.3711L64.0825 92.4061L63.8858 94.0324C63.8366 94.2295 64.0825 94.3774 64.2792 94.2788L65.6562 93.3917L67.1317 94.0324C67.1808 94.0817 67.2792 94.0817 67.3284 94.0324C67.3776 94.0324 67.3776 93.9831 67.3776 93.9831L67.4267 93.9338V93.8846C67.4267 93.8846 67.4267 93.8846 67.4267 93.8353C67.4267 93.786 67.4267 93.786 67.4267 93.7367L67.0825 92.1597L68.1153 91.0262L68.1644 90.9276C68.3612 90.7797 68.2628 90.5333 68.0661 90.484Z" fill="#FFCE00"/>
<path d="M61.0821 91.0754L59.4591 90.9768L58.6722 89.5476C58.623 89.449 58.5247 89.3997 58.3771 89.449C58.3771 89.449 58.328 89.449 58.328 89.4983H58.2788C58.2296 89.5476 58.2296 89.5476 58.1804 89.5969L57.5411 91.1739L55.9673 91.5682C55.9181 91.5682 55.8689 91.6175 55.8689 91.6175C55.8689 91.6175 55.8689 91.6175 55.8198 91.6667L55.7706 91.716C55.7214 91.8146 55.7214 91.9624 55.8198 92.061L57.0493 93.0959L56.8526 94.7223C56.8034 94.9194 57.0493 95.0673 57.246 94.9687L58.623 94.0816L60.0985 94.7223C60.1476 94.7716 60.246 94.7716 60.2952 94.7223C60.3444 94.7223 60.3444 94.673 60.3444 94.673L60.3935 94.6237V94.5744C60.3935 94.5744 60.3935 94.5744 60.3935 94.5252C60.3935 94.4759 60.3935 94.4759 60.3935 94.4266L60.0493 92.8495L61.0821 91.6667L61.1804 91.5682C61.3771 91.3711 61.2788 91.1246 61.0821 91.0754Z" fill="#FFCE00"/>
<path d="M73.0336 75.748L54.3451 76.8815C53.7058 76.9308 53.214 77.4729 53.2632 78.1136C53.3123 78.7543 53.8533 79.2471 54.4927 79.1978L73.1812 78.0643C73.8205 78.015 74.3123 77.4729 74.2632 76.8322C74.214 76.1916 73.673 75.6987 73.0336 75.748Z" fill="#E0E2E5"/>
<path d="M61.1814 80.9717L54.5912 81.3659C53.9519 81.4152 53.4601 81.9573 53.5093 82.598C53.5584 83.2387 54.0994 83.7315 54.7388 83.6822L61.3289 83.288C61.9683 83.2387 62.4601 82.6966 62.4109 82.0559C62.3617 81.4645 61.8207 80.9717 61.1814 80.9717Z" fill="#E0E2E5"/>
<path d="M71.7546 80.3311L65.1645 80.7253C64.5251 80.7746 64.0333 81.3167 64.0825 81.9574C64.1317 82.5981 64.6727 83.0909 65.312 83.0416L71.9022 82.6473C72.5415 82.5981 73.0333 82.056 72.9841 81.4153C72.9841 80.7746 72.394 80.3311 71.7546 80.3311Z" fill="#E0E2E5"/>
<path d="M82.8699 79.6904L76.2797 80.0847C75.6404 80.134 75.1485 80.6761 75.1977 81.3167C75.2469 81.9574 75.7879 82.4502 76.4272 82.401L83.0174 82.0067C83.6567 81.9574 84.1485 81.4153 84.0994 80.7746C84.0502 80.134 83.5092 79.6411 82.8699 79.6904Z" fill="#E0E2E5"/>
<path d="M87.5417 74.8608L76.7221 75.5015C76.0827 75.5508 75.5909 76.0929 75.6401 76.7336C75.6893 77.3742 76.2303 77.8671 76.8696 77.8178L87.6893 77.1771C88.3286 77.1278 88.8204 76.5857 88.7713 75.945C88.7221 75.3044 88.1811 74.8115 87.5417 74.8608Z" fill="#E0E2E5"/>
<path d="M55.1811 106.747L91.0828 103.248C92.4106 103.1 93.4434 101.474 93.3451 99.6008C93.2959 97.728 92.1647 96.2988 90.8369 96.3974L54.9352 99.65C53.509 99.7979 52.427 101.474 52.4762 103.445C52.5254 105.416 53.7549 106.895 55.1811 106.747Z" fill="url(#paint2_radial_973_830)"/>
<path d="M41.5578 28.8306C42.0004 28.8306 42.3447 29.1755 42.3939 29.6191L43.1316 43.4183C43.1316 43.8618 42.8365 44.2068 42.3939 44.2561C41.9513 44.2561 41.607 43.9111 41.5578 43.5168L40.8201 29.6684C40.7709 29.2248 41.1152 28.8798 41.5578 28.8306Z" fill="#2D305E"/>
<path d="M37.9184 48.3468C37.9184 48.3468 34.4757 49.0367 34.1315 45.3898C33.7872 41.7429 41.361 34.1041 44.4593 35.7304C47.5577 37.3567 45.7872 40.6587 43.0331 42.1864C40.279 43.7142 39.5905 46.2276 39.5905 46.2276L37.9184 48.3468Z" fill="#FDCEA3"/>
<path opacity="0.25" d="M44.2133 36.8638C43.2789 36.6174 42.2953 36.6667 41.41 36.9624C40.2789 37.3566 39.3444 38.1944 38.5084 39.0815C37.5739 40.0179 36.7871 41.1021 35.9018 42.0385C35.41 42.5313 34.9182 43.0734 34.4756 43.6155C35.9018 39.7222 41.8526 34.3011 44.5084 35.7303C45.8362 36.4202 46.2789 37.4552 46.1313 38.4901C45.7379 37.7016 45.0985 37.1595 44.2133 36.8638Z" fill="white"/>
<path opacity="0.25" d="M36.2953 46.9667C37.328 46.7696 38.2625 46.1289 38.951 45.439C39.6887 44.6997 40.2789 43.8619 40.9182 43.0241C41.5576 42.2356 42.4428 41.792 43.328 41.3485C43.9182 41.0528 44.5084 40.7571 45.0985 40.4121C44.5576 41.1021 43.8198 41.6935 42.9838 42.137C40.2297 43.6648 39.5412 46.1782 39.5412 46.1782L37.869 48.2974C37.869 48.2974 35.4592 48.7902 34.4756 46.8189C35.1149 47.016 35.7051 47.1146 36.2953 46.9667Z" fill="#D66E85"/>
<path opacity="0.15" d="M43.623 37.948C43.623 37.948 40.4754 39.9193 39.5902 39.0815C38.6558 38.2437 41.8033 35.8781 42.3443 35.6317C42.8361 35.3853 43.1312 36.8638 43.623 37.948Z" fill="url(#paint3_radial_973_830)"/>
<path d="M38.558 55.9855C38.558 55.9855 35.1154 56.6754 34.7711 53.0285C34.4269 49.3816 42.0006 41.7427 45.099 43.3691C48.1974 44.9954 46.4269 48.2973 43.6728 49.8251C40.9187 51.3529 40.2301 53.8663 40.2301 53.8663L38.558 55.9855Z" fill="#FDCEA3"/>
<path opacity="0.25" d="M43.722 44.2564C42.6892 44.5028 41.8039 45.0449 40.9187 45.587C40.0334 46.1291 39.1974 46.7698 38.3613 47.3612C37.7711 47.8047 37.2302 48.2483 36.5908 48.5932C38.9515 45.3406 43.0334 42.285 45.099 43.3693C45.5416 43.6157 45.8367 43.8621 46.0826 44.1085C45.3449 44.0099 44.5089 44.0592 43.722 44.2564Z" fill="white"/>
<path opacity="0.25" d="M35.2134 51.0077C35.2134 51.2048 35.2134 51.4512 35.2626 51.6484C35.3609 52.0919 35.5085 52.5355 35.8036 52.8804C36.1478 53.2254 36.6396 53.4225 37.1314 53.4225C37.82 53.4718 38.5577 53.324 39.197 52.979C39.8855 52.5847 40.3281 51.9441 40.9183 51.4512C41.5085 50.9091 42.197 50.5149 42.8855 50.1206C43.5249 49.7263 44.1642 49.2828 44.656 48.7407C45.6396 47.755 46.4757 46.4737 46.6724 45.0938C47.1642 46.7694 45.6888 48.79 43.7216 49.8742C40.9675 51.4019 40.279 53.9154 40.279 53.9154L38.6068 56.0345C38.6068 56.0345 35.1642 56.7245 34.82 53.0776C34.7216 52.4369 34.8691 51.7469 35.2134 51.0077Z" fill="#D66E85"/>
<path opacity="0.15" d="M44.2626 45.5869C44.2626 45.5869 41.1151 47.5582 40.2298 46.7204C39.2954 45.8826 42.4429 43.517 42.9839 43.2706C43.4757 43.0242 43.7708 44.552 44.2626 45.5869Z" fill="url(#paint4_radial_973_830)"/>
<path opacity="0.15" d="M102.787 40.7573C102.787 40.7573 101.115 42.6794 100.869 44.5521C100.574 46.4741 101.263 46.7205 101.263 46.7205C101.263 46.7205 102.984 42.7286 102.787 40.7573Z" fill="url(#paint5_radial_973_830)"/>
<path d="M39.8363 63.2301C39.8363 63.2301 36.3937 63.92 36.0494 60.2731C35.7052 56.6262 43.279 48.9874 46.3773 50.6137C49.4757 52.24 47.7052 55.542 44.9511 57.0697C42.197 58.5975 41.5085 61.1109 41.5085 61.1109L39.8363 63.2301Z" fill="#FDCEA3"/>
<path opacity="0.25" d="M45.8853 51.3035C43.7706 50.8107 41.705 51.9442 40.082 53.2255C42.2951 51.1556 44.8033 49.7757 46.3279 50.5642C47.4099 51.1556 47.9017 51.9442 47.9509 52.782C47.5083 52.092 46.7706 51.5006 45.8853 51.3035Z" fill="white"/>
<path opacity="0.25" d="M37.3777 62.1458C37.9187 62.1458 38.4105 61.8994 38.8531 61.5544C39.3449 61.1109 39.5416 60.4702 39.8859 59.8788C40.2302 59.2874 40.7711 58.8931 41.3613 58.4989C41.9515 58.1539 42.5416 57.8582 43.181 57.6118C43.8695 57.3161 44.5089 57.0204 45.1482 56.7247C45.4925 56.5276 45.8859 56.3304 46.2302 56.1333C45.8367 56.4783 45.4433 56.774 45.0007 57.0204C42.2466 58.5482 41.558 61.0616 41.558 61.0616L39.8859 63.1807C39.8859 63.1807 37.6728 63.6243 36.5908 61.8994C36.7875 62.0965 37.0826 62.1458 37.3777 62.1458Z" fill="#D66E85"/>
<path opacity="0.15" d="M45.4921 52.7819C45.4921 52.7819 42.3446 54.7532 41.4593 53.9154C40.5249 53.0776 43.6724 50.712 44.2134 50.4656C44.7544 50.2685 45.0495 51.747 45.4921 52.7819Z" fill="url(#paint6_radial_973_830)"/>
<path d="M41.5576 76.0436C41.5576 76.0436 36.3937 73.2345 36.0494 69.5876C35.7052 65.9406 43.279 58.3018 46.3773 59.9281C49.4757 61.5545 47.7052 64.8564 44.9511 66.3842C42.197 67.912 41.5085 70.4254 41.5085 70.4254L41.5576 76.0436Z" fill="#FDCEA3"/>
<path opacity="0.25" d="M46.4265 60.6179C45.4429 60.1251 44.3609 60.3222 43.3773 60.7165C42.3445 61.1107 41.4593 61.7514 40.5248 62.3428C40.4757 62.3921 40.3773 62.4414 40.3281 62.4907C42.4921 60.5193 44.9511 59.1887 46.4265 59.9772C47.7052 60.6672 48.1478 61.6528 48.0494 62.6385C47.7052 61.8007 47.2626 61.0122 46.4265 60.6179Z" fill="white"/>
<path opacity="0.25" d="M38.6064 73.8258C38.754 73.5793 38.9015 73.2836 39.0491 73.0372C39.1966 72.7415 39.4425 72.4951 39.6392 72.2487C39.9835 71.8544 40.3769 71.4602 40.5737 70.9181C40.8196 70.376 40.8196 69.7353 40.9671 69.1439C41.213 67.9611 42.2458 67.2219 43.2786 66.729C44.2622 66.1869 45.4425 65.8912 46.2786 65.1027C46.9179 64.5606 47.3114 63.7228 47.9015 63.1807C47.5081 64.4127 46.3769 65.5955 44.9999 66.384C42.2458 67.9118 41.5573 70.4252 41.5573 70.4252L41.6064 76.0435C41.6064 76.0928 40.131 75.3042 38.6064 73.8258Z" fill="#D66E85"/>
<path opacity="0.15" d="M45.5409 62.146C45.5409 62.146 42.3934 64.1173 41.5081 63.2795C40.5737 62.4417 43.7213 60.0761 44.2622 59.8297C44.8032 59.5833 45.0983 61.1111 45.5409 62.146Z" fill="url(#paint7_radial_973_830)"/>
<path d="M114.492 22.3252C115.377 24.9372 116.115 27.5985 116.853 30.2104C117.541 32.8717 118.181 35.533 118.82 38.2435C120 43.6154 120.935 49.0365 121.623 54.5069C122.263 59.9773 122.656 65.4477 122.656 70.9673C122.656 73.7272 122.509 76.487 122.312 79.1976C122.066 81.9574 121.673 84.6679 121.132 87.3785C121.574 84.6679 121.918 81.9574 122.115 79.1976C122.312 76.4377 122.41 73.7272 122.361 70.9673C122.312 68.2075 122.263 65.4969 122.066 62.7371C121.869 59.9773 121.623 57.2667 121.279 54.5561C120.935 51.8456 120.541 49.135 120.099 46.4245C119.656 43.7139 119.115 41.0034 118.574 38.3421C118.033 35.6316 117.394 32.9703 116.705 30.309C115.968 27.5985 115.279 24.9372 114.492 22.3252Z" fill="#F8FCDC"/>
<path d="M67.8199 103.248L67.279 102.508C67.279 102.508 67.2298 102.508 67.1806 102.508L66.6888 102.558L66.738 103.297L66.3445 103.346L66.0986 100.734L67.0331 100.636C67.2298 100.636 67.3773 100.636 67.5249 100.685C67.6724 100.734 67.7708 100.833 67.8691 100.981C67.9675 101.129 68.0167 101.276 68.0167 101.474C68.0167 101.671 68.0167 101.819 67.9183 101.966C67.8691 102.114 67.7216 102.213 67.574 102.311L68.1642 103.1L67.8199 103.248ZM67.4757 101.227C67.3773 101.129 67.2298 101.129 67.0331 101.129L66.5413 101.178L66.6396 102.213L67.1314 102.164C67.3281 102.164 67.4265 102.114 67.5249 102.016C67.6232 101.917 67.6232 101.769 67.6232 101.621C67.6232 101.424 67.574 101.276 67.4757 101.227Z" fill="white"/>
<path d="M70.279 102.607L70.3282 103.001L68.6561 103.149L68.4102 100.537L70.0331 100.389L70.0823 100.783L68.8528 100.882L68.902 101.572L69.9839 101.473L70.0331 101.868L68.9511 101.966L69.0003 102.705L70.279 102.607Z" fill="white"/>
<path d="M72.541 100.192L71.8033 102.853L71.4098 102.902L70.2295 100.389L70.6721 100.34L71.6065 102.262L72.1967 100.192H72.541Z" fill="white"/>
<path d="M72.7871 100.192L73.1806 100.143L73.4265 102.755L73.033 102.804L72.7871 100.192Z" fill="white"/>
<path d="M75.6892 102.164L75.7383 102.558L74.0662 102.706L73.8203 100.094L75.4433 99.9458L75.4924 100.34L74.2629 100.439L74.3121 101.129L75.3941 101.03L75.4433 101.424L74.3613 101.523L74.4105 102.262L75.6892 102.164Z" fill="white"/>
<path d="M79.1803 99.6006L78.6885 102.262L78.2459 102.311L77.5082 100.438L77.1147 102.41L76.6721 102.459L75.6885 99.9456L76.1311 99.8963L76.8688 101.818L77.2623 99.7977L77.6557 99.7484L78.3934 101.67L78.7868 99.6499L79.1803 99.6006Z" fill="white"/>
<path d="M159.295 91.026C159.295 91.026 162.246 88.6604 161.164 86.0484C160.131 83.4364 158.558 84.4221 158.558 84.4221C158.558 84.4221 159.394 88.2661 159 89.104C158.607 89.9418 158.263 91.0753 159.295 91.026Z" fill="#DBA783"/>
<path d="M159.788 92.0607C159.788 92.0607 162.738 89.6951 161.656 87.0831C160.624 84.4711 159.05 85.4568 159.05 85.4568C159.05 85.4568 159.886 89.3008 159.492 90.1386C159.099 90.9764 158.755 92.1099 159.788 92.0607Z" fill="#E8B48E"/>
<path d="M160.623 92.7999C160.623 92.7999 163.574 90.4343 162.492 87.8223C161.46 85.2104 159.886 86.196 159.886 86.196C159.886 86.196 160.722 90.0401 160.328 90.8779C159.935 91.7157 159.591 92.8492 160.623 92.7999Z" fill="#F4C095"/>
<path d="M152.115 80.3807C152.115 80.3807 154.082 78.853 155.164 78.7544C155.164 78.7544 156.984 82.4506 158.017 83.2884C159.05 84.0769 161.558 84.1755 163.132 86.4425C163.968 87.6253 164.755 88.9559 164.705 89.9416C164.656 90.9272 163.623 93.3421 162.984 93.3914C162.345 93.4407 162.689 91.7651 162.837 90.7301C162.935 89.6952 162.541 88.6602 161.705 88.0196C160.869 87.3789 159.64 88.0688 159.64 88.0688C159.64 88.0688 161.361 90.188 161.066 90.6808C160.722 91.1737 159.837 89.9909 158.656 89.1038C157.525 88.2167 155.312 86.9353 155.41 85.7033C155.558 84.4219 152.115 80.3807 152.115 80.3807Z" fill="#FDCEA3"/>
<path opacity="0.2" d="M160.23 90.2375C160.23 90.2375 160.427 89.7939 160.624 89.9418C160.821 90.0896 161.017 90.6318 160.87 90.5825C160.722 90.5825 160.378 90.4839 160.23 90.2375Z" fill="white"/>
<path opacity="0.2" d="M162.935 93.2929C162.935 93.2929 163.23 92.8001 163.377 92.7015C163.525 92.603 163.623 92.7015 163.623 92.7015C163.623 92.7015 163.18 93.4408 162.935 93.2929Z" fill="white"/>
<path d="M75.0493 24.3457L62.2624 24.395C55.9674 24.395 51.0985 29.619 51.3936 36.0257L52.0821 49.9235C52.3772 56.3795 57.8362 61.3078 64.0821 61.0121L76.869 60.3714C82.8198 60.0757 87.3444 54.8518 87.0493 48.6914L86.3608 35.4343C86.0657 29.274 81.0002 24.3457 75.0493 24.3457Z" fill="white"/>
<path d="M78.3447 43.0732C77.7054 43.0732 77.1152 42.9253 76.6234 42.5804C76.1808 42.2847 75.5906 42.3832 75.1972 42.7282C74.8529 43.0239 74.4103 43.1718 73.8693 43.1718C73.2299 43.1718 72.689 43.0239 72.2463 42.7282C71.8037 42.4325 71.2135 42.4818 70.8201 42.8268C70.4267 43.1225 69.9349 43.3196 69.3447 43.3196C68.7545 43.3196 68.2135 43.1718 67.8201 42.8761C67.3775 42.5804 66.7873 42.5311 66.3447 42.8761C65.9021 43.221 65.3611 43.4182 64.7217 43.4182C64.1316 43.4182 63.6398 43.2703 63.2955 43.0239C62.8037 42.6789 62.2627 42.6296 61.7709 42.9746C61.2791 43.3196 60.689 43.566 60.0496 43.566C59.9513 43.566 59.8529 43.566 59.8037 43.566L60.0988 49.7757C60.148 50.4656 60.7381 51.057 61.4267 51.0077L67.1808 50.8106L66.984 47.3115C66.9349 46.5723 67.525 45.9316 68.2627 45.9316L71.3119 45.833C72.0496 45.833 72.6398 46.3751 72.689 47.1637L72.8857 50.6135L78.4431 50.4163C79.0824 50.367 79.6234 49.8249 79.5742 49.135L79.1808 42.8761C78.9349 42.9746 78.6398 43.0732 78.3447 43.0732Z" fill="#FE573C"/>
<path d="M61.7708 34.4487C61.0823 34.4487 60.4921 34.9415 60.2954 35.5822L58.8692 40.9047C58.6233 41.8411 59.4102 42.5804 60.6397 42.5804C61.8692 42.5311 62.9512 41.7426 63.0987 40.8062L63.9839 34.3994L61.7708 34.4487Z" fill="#FE573C"/>
<path d="M64.0332 34.4487L63.1479 40.8555C63.0004 41.7918 63.8856 42.5311 65.1151 42.4818C66.3446 42.4325 67.3282 41.644 67.3282 40.7569L67.4266 34.3994L64.0332 34.4487Z" fill="#FFCE00"/>
<path d="M67.3777 34.3994L67.2793 40.7569C67.2793 41.644 68.2137 42.4325 69.4432 42.3832C70.6236 42.3339 71.5088 41.5454 71.4104 40.6583L70.7219 34.3501L67.3777 34.3994Z" fill="#FE573C"/>
<path d="M70.7217 34.3501L71.4102 40.6583C71.5086 41.5454 72.5414 42.2846 73.7709 42.2846C74.9512 42.2353 75.7381 41.4468 75.4922 40.5597L74.0168 34.3008L70.7217 34.3501Z" fill="#FFCE00"/>
<path d="M79.574 40.4611L77.7051 35.3357C77.4592 34.695 76.8691 34.2515 76.1805 34.2515L74.0166 34.3007L75.492 40.5597C75.6887 41.4468 76.8199 42.186 78.0002 42.1367C79.2297 42.1367 79.8691 41.3482 79.574 40.4611Z" fill="#FE573C"/>
<path d="M169.131 51.0076H143.557C141.737 51.0076 140.213 49.5291 140.213 47.6564V38.2926C140.213 36.4692 141.688 34.9414 143.557 34.9414H169.131C170.951 34.9414 172.475 36.4199 172.475 38.2926V47.6564C172.475 49.5291 170.951 51.0076 169.131 51.0076Z" fill="#8EC641"/>
<path d="M149.213 37.7998H145.524C143.951 37.7998 142.672 39.0812 142.672 40.6582V45.9315C142.672 47.5085 143.951 48.7899 145.524 48.7899H149.213C150.787 48.7899 152.065 47.5085 152.065 45.9315V40.7075C152.065 39.0812 150.787 37.7998 149.213 37.7998Z" fill="white"/>
<path d="M164.951 42.9253H155.853C155.557 42.9253 155.312 43.1717 155.312 43.4674C155.312 43.7631 155.557 44.0095 155.853 44.0095H164.951C165.246 44.0095 165.492 43.7631 165.492 43.4674C165.492 43.1717 165.246 42.9253 164.951 42.9253Z" fill="#E0E2E5"/>
<path d="M159.049 45.0938H155.853C155.557 45.0938 155.312 45.3402 155.312 45.6359C155.312 45.9316 155.557 46.178 155.853 46.178H159.049C159.344 46.178 159.59 45.9316 159.59 45.6359C159.639 45.3402 159.393 45.0938 159.049 45.0938Z" fill="#E0E2E5"/>
<path d="M164.213 45.0938H161.017C160.721 45.0938 160.476 45.3402 160.476 45.6359C160.476 45.9316 160.721 46.178 161.017 46.178H164.213C164.508 46.178 164.754 45.9316 164.754 45.6359C164.754 45.3402 164.508 45.0938 164.213 45.0938Z" fill="#E0E2E5"/>
<path d="M169.574 45.0938H166.377C166.082 45.0938 165.836 45.3402 165.836 45.6359C165.836 45.9316 166.082 46.178 166.377 46.178H169.574C169.869 46.178 170.115 45.9316 170.115 45.6359C170.164 45.3402 169.918 45.0938 169.574 45.0938Z" fill="#E0E2E5"/>
<path d="M149.803 44.3055C149.065 44.3055 145.033 44.3055 144.885 44.3055C144.147 44.2069 143.41 45.094 144.147 45.094C144.885 45.094 149.606 45.094 149.754 45.094C150.246 45.094 150.442 45.0447 150.688 44.749C150.688 44.5026 150.541 44.3055 149.803 44.3055Z" fill="#FF6D42"/>
<path opacity="0.25" d="M144.443 44.3545C144.443 44.3545 144.344 44.4037 144.738 44.5516C145.131 44.6994 145.033 44.5516 145.623 44.6502C146.213 44.7487 146.607 44.6009 147.295 44.6994C147.984 44.798 147.443 44.6502 148.672 44.6994C149.902 44.7487 150.59 44.3545 150.197 44.3052C149.803 44.3052 144.639 44.3052 144.443 44.3545Z" fill="#231F20"/>
<path opacity="0.25" d="M144.197 44.7489C144.098 44.7489 144.59 44.5518 144.59 44.5518C144.59 44.5518 144.393 44.7982 144.197 44.7489Z" fill="#231F20"/>
<path opacity="0.1" d="M144.541 44.6997C144.492 44.6997 144.737 44.5519 144.737 44.5519C144.787 44.5026 144.688 44.6997 144.541 44.6997Z" fill="#231F20"/>
<path opacity="0.25" d="M144.689 44.7489C144.59 44.7489 144.984 44.5518 144.984 44.5518C144.984 44.5518 144.885 44.7982 144.689 44.7489Z" fill="#231F20"/>
<path opacity="0.1" d="M145.032 44.6996C144.983 44.6996 145.18 44.5024 145.18 44.5024C145.18 44.5024 145.18 44.7489 145.032 44.6996Z" fill="#231F20"/>
<path opacity="0.25" d="M145.278 44.7982C145.18 44.7982 145.524 44.5518 145.524 44.5518C145.524 44.5518 145.475 44.8475 145.278 44.7982Z" fill="#231F20"/>
<path opacity="0.1" d="M145.622 44.6996C145.573 44.6996 145.721 44.5024 145.721 44.5024C145.721 44.5517 145.721 44.7489 145.622 44.6996Z" fill="#231F20"/>
<path opacity="0.25" d="M145.819 44.7982C145.721 44.7982 145.967 44.5518 145.967 44.5518C145.967 44.5518 146.016 44.8475 145.819 44.7982Z" fill="#231F20"/>
<path opacity="0.1" d="M146.114 44.7489C146.065 44.7489 146.164 44.5518 146.164 44.5518C146.114 44.5518 146.213 44.7489 146.114 44.7489Z" fill="#231F20"/>
<path opacity="0.25" d="M146.409 44.7982C146.311 44.7982 146.508 44.5518 146.508 44.5518C146.459 44.601 146.606 44.8475 146.409 44.7982Z" fill="#231F20"/>
<path opacity="0.1" d="M146.656 44.7489C146.606 44.7489 146.606 44.5518 146.606 44.5518C146.606 44.5518 146.803 44.7489 146.656 44.7489Z" fill="#231F20"/>
<path opacity="0.25" d="M146.901 44.7982C146.803 44.7982 146.901 44.5518 146.901 44.5518C146.901 44.601 147.147 44.8475 146.901 44.7982Z" fill="#231F20"/>
<path opacity="0.1" d="M147.147 44.7489C147.098 44.7489 147.049 44.5518 147.049 44.5518C147.049 44.5518 147.295 44.7489 147.147 44.7489Z" fill="#231F20"/>
<path opacity="0.25" d="M147.492 44.7982C147.394 44.7982 147.394 44.5518 147.394 44.5518C147.443 44.601 147.738 44.8475 147.492 44.7982Z" fill="#231F20"/>
<path opacity="0.1" d="M147.689 44.7489C147.639 44.7489 147.541 44.5518 147.541 44.5518C147.541 44.5518 147.885 44.7489 147.689 44.7489Z" fill="#231F20"/>
<path opacity="0.25" d="M148.033 44.7982C147.935 44.7982 147.886 44.5518 147.886 44.5518C147.837 44.601 148.279 44.8475 148.033 44.7982Z" fill="#231F20"/>
<path opacity="0.1" d="M148.18 44.7489C148.131 44.7489 147.983 44.5518 147.983 44.5518C147.983 44.5518 148.377 44.7489 148.18 44.7489Z" fill="#231F20"/>
<path opacity="0.25" d="M148.623 44.7982C148.524 44.7982 148.377 44.5518 148.377 44.5518C148.377 44.5518 148.869 44.8475 148.623 44.7982Z" fill="#231F20"/>
<path opacity="0.1" d="M148.77 44.6996C148.672 44.6996 148.524 44.5024 148.524 44.5024C148.475 44.5517 148.918 44.7489 148.77 44.6996Z" fill="#231F20"/>
<path opacity="0.25" d="M149.114 44.7982C149.016 44.7982 148.819 44.5518 148.819 44.5518C148.819 44.5518 149.41 44.8475 149.114 44.7982Z" fill="#231F20"/>
<path opacity="0.1" d="M149.262 44.6996C149.164 44.6996 148.967 44.5024 148.967 44.5024C148.918 44.5517 149.41 44.7489 149.262 44.6996Z" fill="#231F20"/>
<path opacity="0.25" d="M149.705 44.7982C149.557 44.7982 149.312 44.5518 149.312 44.5518C149.312 44.5518 150 44.7982 149.705 44.7982Z" fill="#231F20"/>
<path opacity="0.1" d="M149.804 44.6996C149.705 44.6996 149.41 44.5024 149.41 44.5024C149.41 44.5024 150 44.6996 149.804 44.6996Z" fill="#231F20"/>
<path opacity="0.25" d="M150.246 44.7489C150.098 44.7489 149.803 44.5024 149.803 44.5024C149.754 44.5517 150.541 44.7981 150.246 44.7489Z" fill="#231F20"/>
<path opacity="0.1" d="M150.295 44.6503C150.197 44.6503 149.853 44.5024 149.853 44.5024C149.853 44.5024 150.492 44.6996 150.295 44.6503Z" fill="#231F20"/>
<path d="M144.688 43.1226C144.541 43.2212 144.147 43.5661 144.541 43.5661C144.934 43.5661 150.295 43.7633 150.197 43.4676C150.049 43.1719 150.246 43.024 150 43.0733C149.705 43.1226 144.688 43.1226 144.688 43.1226Z" fill="#FFAE07"/>
<path d="M149.803 42.5312C149.065 42.5312 145.032 42.5312 144.885 42.5312C144.393 42.5312 143.901 42.6791 143.95 42.8762C143.901 43.0734 144.098 43.2705 144.836 43.2705C145.573 43.2705 149.606 43.2705 149.754 43.2705C150.246 43.2705 150.737 43.1226 150.688 42.9255C150.688 42.7777 150.541 42.5805 149.803 42.5312Z" fill="#FF6D42"/>
<path d="M149.803 43.4185C149.065 43.4185 145.032 43.4185 144.885 43.4185C144.393 43.4185 143.901 43.5663 143.95 43.7634C143.901 43.9606 144.098 44.1577 144.836 44.1577C145.573 44.1577 149.606 44.1577 149.754 44.1577C150.246 44.1577 150.737 44.0099 150.688 43.8127C150.688 43.6156 150.541 43.4185 149.803 43.4185Z" fill="#FF6D42"/>
<path d="M145.525 44.1576C144.394 44.0591 144.099 44.4041 144.541 44.4041C144.935 44.4041 149.853 44.8969 150.295 44.3055C150.492 44.0591 149.607 44.0591 149.361 44.0591C149.066 44.0591 145.525 44.1576 145.525 44.1576Z" fill="#EF2F30"/>
<path opacity="0.15" d="M144.345 43.4677C144.345 43.4677 144.64 43.3691 145.132 43.517C145.623 43.6648 145.919 43.5662 146.361 43.5662C146.804 43.5662 147.394 43.5662 147.591 43.7141C147.787 43.8619 148.525 44.0591 148.525 44.0591C148.525 44.0591 149.164 43.4677 149.361 43.4677C149.558 43.4677 150.05 43.4184 150.05 43.4184C150.05 43.4184 149.41 43.3198 148.869 43.3198C148.427 43.3691 144.64 43.2705 144.345 43.4677Z" fill="#231F20"/>
<path opacity="0.75" d="M148.181 39.8697C148.181 39.8697 148.476 39.8204 148.427 39.9683C148.427 40.1161 148.181 39.8697 148.181 39.8697Z" fill="#F4EC87"/>
<path opacity="0.75" d="M148.771 41.0523C148.771 41.0523 149.066 41.003 149.016 41.1509C148.967 41.348 148.771 41.0523 148.771 41.0523Z" fill="#F4EC87"/>
<path opacity="0.5" d="M148.722 40.1656C148.722 40.1656 148.918 40.1163 148.918 40.2642C148.869 40.3627 148.722 40.1656 148.722 40.1656Z" fill="#F4EC87"/>
<path opacity="0.5" d="M149.558 41.3975C149.558 41.3975 149.754 41.3482 149.754 41.4961C149.705 41.5947 149.558 41.3975 149.558 41.3975Z" fill="#F4EC87"/>
<path opacity="0.5" d="M149.41 40.5596C149.41 40.5596 149.607 40.5104 149.607 40.6582C149.607 40.7568 149.41 40.5596 149.41 40.5596Z" fill="#F4EC87"/>
<path d="M148.377 40.3135C148.377 40.3135 148.426 40.4613 148.524 40.412C148.623 40.412 148.377 40.3135 148.377 40.3135Z" fill="#F4EC87"/>
<path d="M149.066 40.6089C149.263 40.6089 149.214 40.5103 149.115 40.461C148.968 40.4118 149.066 40.6089 149.066 40.6089Z" fill="#F4EC87"/>
<path opacity="0.5" d="M148.427 40.9048C148.623 40.9048 148.574 40.8062 148.476 40.7569C148.328 40.7077 148.427 40.9048 148.427 40.9048Z" fill="#F4EC87"/>
<path d="M148.968 40.8062C148.968 40.8062 149.017 40.954 149.115 40.954C149.263 40.954 149.115 40.8062 148.968 40.8062Z" fill="#F4EC87"/>
<path d="M148.672 40.5103C148.672 40.5103 148.623 40.7074 148.722 40.7074C148.82 40.7074 148.722 40.5595 148.672 40.5103Z" fill="#F4EC87"/>
<path d="M149.066 40.2148C149.165 40.2148 149.312 40.1655 149.165 40.1162C149.116 40.1162 149.066 40.2148 149.066 40.2148Z" fill="#F4EC87"/>
<path opacity="0.75" d="M147.885 40.5596C147.885 40.5596 147.59 40.5104 147.639 40.6582C147.688 40.8061 147.885 40.5596 147.885 40.5596Z" fill="#F4EC87"/>
<path opacity="0.75" d="M147.098 41.4468C147.098 41.4468 146.803 41.3976 146.852 41.5454C146.901 41.6933 147.098 41.4468 147.098 41.4468Z" fill="#F4EC87"/>
<path opacity="0.5" d="M146.902 40.609C146.902 40.609 146.705 40.5597 146.705 40.7075C146.705 40.8061 146.902 40.609 146.902 40.609Z" fill="#F4EC87"/>
<path opacity="0.5" d="M146.508 41.2003C146.508 41.2003 146.312 41.151 146.312 41.2988C146.361 41.3481 146.508 41.2003 146.508 41.2003Z" fill="#F4EC87"/>
<path opacity="0.5" d="M145.869 41.4962C145.869 41.4962 145.672 41.4469 145.672 41.5947C145.721 41.6933 145.869 41.4962 145.869 41.4962Z" fill="#F4EC87"/>
<path opacity="0.5" d="M145.967 40.6583C145.967 40.6583 145.771 40.609 145.771 40.7568C145.82 40.8554 145.967 40.6583 145.967 40.6583Z" fill="#F4EC87"/>
<path d="M147.345 40.6582C147.345 40.6582 147.295 40.8061 147.197 40.7568C147.099 40.7075 147.345 40.6582 147.345 40.6582Z" fill="#F4EC87"/>
<path d="M145.524 41.2002C145.524 41.2002 145.475 41.348 145.377 41.2988C145.278 41.2495 145.524 41.2002 145.524 41.2002Z" fill="#F4EC87"/>
<path d="M146.312 40.6582C146.115 40.6582 146.164 40.5596 146.263 40.5104C146.41 40.4611 146.312 40.6582 146.312 40.6582Z" fill="#F4EC87"/>
<path d="M148.574 41.5454C148.377 41.5454 148.426 41.4468 148.525 41.3976C148.672 41.3483 148.574 41.5454 148.574 41.5454Z" fill="#F4EC87"/>
<path opacity="0.5" d="M147.836 41.2495C147.64 41.2495 147.689 41.1509 147.787 41.1017C147.984 41.0524 147.836 41.2495 147.836 41.2495Z" fill="#F4EC87"/>
<path d="M145.967 41.0034C145.967 41.0034 145.918 41.1513 145.82 41.1513C145.672 41.1513 145.869 41.0034 145.967 41.0034Z" fill="#F4EC87"/>
<path d="M147.098 40.9048C147.098 40.9048 147.147 41.1019 147.049 41.1019C146.951 41.1019 147.049 40.9541 147.098 40.9048Z" fill="#F4EC87"/>
<path d="M145.033 40.8552C144.934 40.8552 144.787 40.8059 144.934 40.7566C145.033 40.7074 145.033 40.8552 145.033 40.8552Z" fill="#F4EC87"/>
<path opacity="0.25" d="M144.492 46.0303C144.295 46.0303 144.295 46.6709 144.787 46.7695C145.279 46.8681 146.066 46.7202 146.066 46.7202C146.066 46.7202 145.426 46.7202 145.033 46.4738C144.64 46.2767 144.64 46.0303 144.492 46.0303Z" fill="white"/>
<path opacity="0.25" d="M144 44.6504C143.951 44.6504 143.951 44.8475 144.098 44.8968C144.295 44.9461 144.541 44.8968 144.541 44.8968C144.541 44.8968 144.295 44.8968 144.148 44.7982C144.049 44.749 144.049 44.6504 144 44.6504Z" fill="white"/>
<path opacity="0.25" d="M144.344 41.7919C144.148 41.8905 144.394 40.8063 145.033 40.3627C145.525 40.067 146.312 39.6728 146.312 39.6728C146.312 39.6728 146.853 39.5742 145.082 41.0527C144.689 41.3484 144.541 41.6933 144.344 41.7919Z" fill="white"/>
<path opacity="0.25" d="M143.951 45.636C143.951 45.636 144.098 45.636 144.393 45.5375C144.688 45.4389 144.738 45.7346 145.18 45.6853C145.623 45.636 145.82 45.9317 146.311 45.6853C146.803 45.4389 146.656 45.5867 147.246 45.5375C147.787 45.4882 147.836 45.8824 148.279 45.6853C148.672 45.4882 148.869 46.0796 149.459 45.8824C150.049 45.636 149.852 45.5375 149.951 45.5867C150.049 45.5867 150.049 45.7839 150.295 45.6853C150.541 45.5867 150.541 45.5375 150.541 45.5375L150.393 45.3403C150.393 45.3403 150.147 45.0446 149.557 45.0446C148.967 45.0446 147.738 45.0939 146.803 45.0939C145.918 45.0939 145.082 44.9461 144.688 45.0446C144.246 45.1432 143.852 45.5375 143.951 45.636Z" fill="#231F20"/>
<path opacity="0.25" d="M150.591 45.143C150.591 45.143 150.837 45.2908 150.787 45.3894C150.738 45.488 150.345 45.3401 150.345 45.3401C150.345 45.3401 150.689 45.3894 150.64 45.2908C150.541 45.143 150.492 45.0937 150.591 45.143Z" fill="white"/>
<path opacity="0.5" d="M143.754 45.1922C143.754 45.1922 143.606 45.5372 143.656 45.6358C143.754 45.7343 143.803 45.6851 144 45.4879C144.197 45.2908 144.197 45.0937 144.492 45.1922C144.836 45.2908 145.082 45.3894 145.033 45.2908C144.983 45.1922 144.738 45.0444 144.492 45.0444C144.246 45.0444 143.803 44.9458 143.754 45.1922Z" fill="white"/>
<path opacity="0.5" d="M149.017 45.4389C149.017 45.4389 149.312 45.8332 149.508 45.7346C149.705 45.6361 149.558 45.2418 149.558 45.2418C149.558 45.2418 149.41 45.1925 149.459 45.3897C149.558 45.6361 149.017 45.4389 149.017 45.4389Z" fill="white"/>
<path opacity="0.1" d="M144.836 44.2066C144.836 44.2066 145.623 44.3544 146.312 44.3544C147 44.3544 147.148 44.3052 148.23 44.3052C149.312 44.3052 150.099 44.3052 150.148 44.2066C150.197 44.108 150.246 44.108 150.246 44.108C150.246 44.108 150.689 43.9109 149.754 43.9109C148.82 43.8616 148.377 44.108 147.591 44.0095C146.804 43.9109 144.689 44.0095 144.836 44.2066Z" fill="#231F20"/>
<path opacity="0.1" d="M150.442 44.5024C150.442 44.5024 150.639 44.5516 150.541 44.6995C150.393 44.9459 149.901 44.8966 149.901 44.8966C149.901 44.8966 150.492 44.7488 150.442 44.6502C150.344 44.5516 150.344 44.4531 150.442 44.5024Z" fill="#231F20"/>
<path opacity="0.25" d="M150.345 43.9112C150.443 43.9112 149.951 43.714 149.951 43.714C149.951 43.6648 150.148 43.9112 150.345 43.9112Z" fill="#231F20"/>
<path opacity="0.1" d="M149.951 43.8124C150 43.8124 149.754 43.6646 149.754 43.6646C149.754 43.6646 149.852 43.8617 149.951 43.8124Z" fill="#231F20"/>
<path opacity="0.25" d="M149.803 43.911C149.901 43.911 149.508 43.7139 149.508 43.7139C149.508 43.7139 149.606 43.9603 149.803 43.911Z" fill="#231F20"/>
<path opacity="0.1" d="M149.459 43.8617C149.508 43.8617 149.312 43.6646 149.312 43.6646C149.312 43.6646 149.361 43.8617 149.459 43.8617Z" fill="#231F20"/>
<path opacity="0.25" d="M149.213 43.911C149.311 43.911 148.967 43.6646 148.967 43.6646C148.967 43.7138 149.016 43.9602 149.213 43.911Z" fill="#231F20"/>
<path opacity="0.1" d="M148.918 43.8617C148.967 43.8617 148.819 43.6646 148.819 43.6646C148.819 43.6646 148.77 43.911 148.918 43.8617Z" fill="#231F20"/>
<path opacity="0.25" d="M148.721 43.9603C148.819 43.9603 148.573 43.7139 148.573 43.7139C148.573 43.7139 148.475 44.0096 148.721 43.9603Z" fill="#231F20"/>
<path opacity="0.1" d="M148.426 43.8617C148.475 43.8617 148.377 43.6646 148.377 43.6646C148.377 43.7138 148.278 43.911 148.426 43.8617Z" fill="#231F20"/>
<path opacity="0.25" d="M148.131 43.9603C148.229 43.9603 148.032 43.7139 148.032 43.7139C148.032 43.7139 147.885 44.0096 148.131 43.9603Z" fill="#231F20"/>
<path opacity="0.1" d="M147.836 43.8617C147.885 43.8617 147.885 43.6646 147.885 43.6646C147.885 43.7138 147.689 43.911 147.836 43.8617Z" fill="#231F20"/>
<path opacity="0.25" d="M147.59 43.9603C147.688 43.9603 147.59 43.7139 147.59 43.7139C147.59 43.7139 147.344 44.0096 147.59 43.9603Z" fill="#231F20"/>
<path opacity="0.1" d="M147.344 43.8617C147.393 43.8617 147.442 43.6646 147.442 43.6646C147.442 43.7138 147.196 43.911 147.344 43.8617Z" fill="#231F20"/>
<path opacity="0.25" d="M147 43.9603C147.098 43.9603 147.098 43.7139 147.098 43.7139C147.098 43.7139 146.754 44.0096 147 43.9603Z" fill="#231F20"/>
<path opacity="0.1" d="M146.803 43.8617C146.852 43.8617 146.951 43.6646 146.951 43.6646C146.951 43.7138 146.655 43.911 146.803 43.8617Z" fill="#231F20"/>
<path opacity="0.25" d="M146.508 43.9603C146.606 43.9603 146.655 43.7139 146.655 43.7139C146.655 43.7139 146.262 44.0096 146.508 43.9603Z" fill="#231F20"/>
<path opacity="0.1" d="M146.311 43.8617C146.36 43.8617 146.508 43.6646 146.508 43.6646C146.508 43.7138 146.164 43.911 146.311 43.8617Z" fill="#231F20"/>
<path opacity="0.25" d="M145.918 43.9603C146.016 43.9603 146.164 43.7139 146.164 43.7139C146.115 43.7139 145.623 43.9603 145.918 43.9603Z" fill="#231F20"/>
<path opacity="0.1" d="M145.771 43.8617C145.869 43.8617 146.017 43.6646 146.017 43.6646C146.017 43.6646 145.574 43.911 145.771 43.8617Z" fill="#231F20"/>
<path opacity="0.25" d="M145.378 43.9603C145.476 43.9603 145.673 43.7139 145.673 43.7139C145.722 43.7139 145.132 43.9603 145.378 43.9603Z" fill="#231F20"/>
<path opacity="0.1" d="M145.279 43.8617C145.377 43.8617 145.574 43.6646 145.574 43.6646C145.574 43.6646 145.082 43.8617 145.279 43.8617Z" fill="#231F20"/>
<path opacity="0.25" d="M144.787 43.911C144.935 43.911 145.181 43.6646 145.181 43.6646C145.181 43.7138 144.492 43.9602 144.787 43.911Z" fill="#231F20"/>
<path opacity="0.1" d="M144.689 43.8124C144.787 43.8124 145.082 43.6152 145.082 43.6152C145.082 43.6645 144.492 43.8616 144.689 43.8124Z" fill="#231F20"/>
<path opacity="0.25" d="M144.295 43.911C144.443 43.911 144.738 43.6646 144.738 43.6646C144.738 43.6646 144 43.911 144.295 43.911Z" fill="#231F20"/>
<path opacity="0.1" d="M144.197 43.8124C144.295 43.8124 144.639 43.6646 144.639 43.6646C144.639 43.6646 144 43.8124 144.197 43.8124Z" fill="#231F20"/>
<path opacity="0.5" d="M147.935 43.6648C147.935 43.6648 148.279 43.9112 148.476 43.8619C148.672 43.7633 148.82 43.6648 148.82 43.6648C148.82 43.6648 148.426 43.4676 148.476 43.6648C148.525 43.8619 147.935 43.6648 147.935 43.6648Z" fill="white"/>
<path opacity="0.15" d="M143.951 43.0239C143.951 43.0239 144.394 42.9254 144.492 42.8268C144.591 42.7282 144.591 43.2211 145.033 43.0732C145.476 42.9254 145.722 43.3689 146.263 43.1718C146.804 42.9746 146.656 43.0239 147.541 43.0239C148.427 43.0732 148.131 43.0239 148.722 43.0732C149.312 43.1718 149.41 43.3196 149.656 43.1225C149.902 42.9254 150.148 43.0732 150.246 42.9254C150.394 42.8268 150.689 42.9254 150.591 42.6789C150.541 42.4325 150.836 42.334 149.509 42.334C148.181 42.334 148.033 42.334 147.295 42.334C146.558 42.334 146.41 42.4325 145.771 42.334C145.131 42.2354 144.591 42.1861 144.345 42.2847C144.148 42.4818 143.951 43.0239 143.951 43.0239Z" fill="#231F20"/>
<path opacity="0.25" d="M144.934 42.2353C144.934 42.2353 144.59 42.0382 144.836 41.9396C145.082 41.8411 145.327 41.9889 145.327 41.9889C145.327 41.9889 144.983 41.8904 144.983 42.0382C145.032 42.1861 144.934 42.2353 144.934 42.2353Z" fill="white"/>
<path opacity="0.25" d="M143.951 42.2354C143.902 42.1861 143.508 42.0382 143.607 42.1861C143.705 42.3832 143.754 42.4818 143.754 42.4818C143.754 42.4818 143.754 42.2847 143.852 42.2847C143.902 42.2847 143.951 42.2354 143.951 42.2354Z" fill="white"/>
<path opacity="0.25" d="M146.066 42.3339C146.263 42.3831 146.361 42.2353 146.705 42.3339C147.099 42.4324 147 42.5803 147.541 42.4817C148.033 42.3831 147.787 42.531 147.345 42.3831C146.853 42.2846 146.607 42.1367 146.361 42.1367C146.115 42.1367 145.968 42.2846 146.066 42.3339Z" fill="white"/>
<path opacity="0.25" d="M148.081 42.334C147.885 42.6297 148.229 42.2355 148.622 42.334C148.967 42.4326 149.016 42.5804 149.311 42.4326C149.606 42.334 149.409 42.334 149.803 42.3833C150.196 42.4326 149.754 42.1862 149.606 42.1862C149.459 42.1862 149.409 42.4819 149.065 42.334C148.672 42.2355 148.278 41.9398 148.081 42.334Z" fill="white"/>
<path opacity="0.25" d="M149.017 42.7777C149.017 42.7777 149.312 43.172 149.508 42.9749C149.754 42.827 149.558 42.6299 149.558 42.6299C149.558 42.6299 149.508 42.9749 149.361 42.827C149.213 42.7284 149.017 42.7777 149.017 42.7777Z" fill="white"/>
<path opacity="0.25" d="M150.492 42.6791C150.492 42.6791 150.836 42.8762 150.787 42.6791C150.738 42.4819 150.64 42.4819 150.64 42.4819C150.64 42.4819 150.787 42.6298 150.64 42.6298C150.591 42.6298 150.492 42.6791 150.492 42.6791Z" fill="white"/>
<path opacity="0.25" d="M150.345 42.186C150.345 42.1367 150.591 41.841 150.738 41.8903C150.837 41.9396 150.689 42.186 150.689 42.2845C150.689 42.4324 150.541 42.186 150.541 42.1367C150.541 42.0874 150.345 42.2353 150.345 42.186Z" fill="white"/>
<path d="M145.82 42.6792C145.82 42.6299 145.574 42.4821 145.574 42.285C145.623 42.0878 145.623 41.9893 145.77 41.9893C145.918 41.9893 145.721 42.1864 145.869 42.3835C146.016 42.5807 145.967 42.5807 146.213 42.5314C146.459 42.4821 146.508 42.285 146.606 42.4328C146.705 42.5807 146.508 42.5314 146.311 42.6299C146.164 42.7285 146.213 42.9256 146.016 42.8763C145.77 42.8271 145.328 42.7285 145.426 42.5807C145.524 42.4821 145.82 42.6792 145.82 42.6792Z" fill="#349E16"/>
<path d="M143.705 42.7778C143.705 42.8764 143.656 43.0242 143.902 42.8764C144.148 42.7285 144.148 42.4328 144.443 42.5314C144.738 42.63 144.836 42.7778 145.082 42.5807C145.279 42.3835 145.426 42.2357 145.279 42.2357C145.131 42.2357 144.787 42.5807 144.59 42.3835C144.394 42.1864 144.394 41.7921 144.148 41.9893C143.902 42.1864 144.148 42.285 144 42.4328C143.853 42.5807 143.705 42.5807 143.705 42.7778Z" fill="#349E16"/>
<path d="M147.688 42.7284C148.082 42.827 148.033 42.827 148.279 42.7284C148.475 42.6298 148.377 42.5806 148.18 42.5806C147.934 42.6298 147.688 42.7284 147.688 42.7284Z" fill="#349E16"/>
<path d="M150 42.7284C150.197 42.7284 150.099 42.6792 150.344 42.6299C150.64 42.5806 150.984 42.5806 150.984 42.3835C150.984 42.1863 150.492 42.5806 150.295 42.4327C150.099 42.2849 150.197 41.8906 150.049 42.0385C149.902 42.0878 149.558 42.6791 150 42.7284Z" fill="#349E16"/>
<path opacity="0.25" d="M150.295 40.7568C150.295 40.7568 149.754 40.3626 148.082 40.4611C146.41 40.5597 146.312 41.9889 145.623 42.7281C144.935 43.4674 144.984 43.1717 145.131 44.4038C145.279 45.6358 144.885 46.9665 145.476 46.9665C146.066 46.9665 146.705 47.1636 146.754 47.1143C146.804 47.065 150.295 40.7568 150.295 40.7568Z" fill="#231F20"/>
<path d="M152.115 45.6854C151.377 45.6854 147.344 45.6854 147.197 45.6854C146.459 45.5868 145.721 46.4739 146.459 46.4739C147.197 46.4739 151.918 46.4739 152.065 46.4739C152.557 46.4739 152.754 46.4246 153 46.1289C153.049 45.9318 152.902 45.7347 152.115 45.6854Z" fill="#FF6D42"/>
<path opacity="0.25" d="M146.803 45.7837C146.803 45.7837 146.705 45.8329 147.098 45.9808C147.491 46.1286 147.393 45.9808 147.983 46.0794C148.573 46.1779 148.967 46.0301 149.655 46.1286C150.344 46.2272 149.803 46.0794 151.032 46.1286C152.262 46.1779 152.95 45.7837 152.557 45.7344C152.164 45.7344 146.95 45.7344 146.803 45.7837Z" fill="#231F20"/>
<path opacity="0.25" d="M146.508 46.1783C146.41 46.1783 146.902 45.9811 146.902 45.9811C146.902 45.9319 146.705 46.2276 146.508 46.1783Z" fill="#231F20"/>
<path opacity="0.1" d="M146.902 46.1289C146.853 46.1289 147.099 45.9811 147.099 45.9811C147.099 45.9318 147 46.1289 146.902 46.1289Z" fill="#231F20"/>
<path opacity="0.25" d="M147.049 46.1781C146.951 46.1781 147.344 45.981 147.344 45.981C147.344 45.981 147.246 46.2274 147.049 46.1781Z" fill="#231F20"/>
<path opacity="0.1" d="M147.394 46.1288C147.344 46.1288 147.541 45.9316 147.541 45.9316C147.541 45.9316 147.492 46.1288 147.394 46.1288Z" fill="#231F20"/>
<path opacity="0.25" d="M147.64 46.2274C147.541 46.2274 147.886 45.981 147.886 45.981C147.886 45.981 147.836 46.2274 147.64 46.2274Z" fill="#231F20"/>
<path opacity="0.1" d="M147.935 46.1288C147.886 46.1288 148.033 45.9316 148.033 45.9316C148.033 45.9809 148.082 46.1781 147.935 46.1288Z" fill="#231F20"/>
<path opacity="0.25" d="M148.132 46.2274C148.033 46.2274 148.279 45.981 148.279 45.981C148.279 45.981 148.378 46.2767 148.132 46.2274Z" fill="#231F20"/>
<path opacity="0.1" d="M148.427 46.1288C148.378 46.1288 148.476 45.9316 148.476 45.9316C148.476 45.9809 148.574 46.1781 148.427 46.1288Z" fill="#231F20"/>
<path opacity="0.25" d="M148.721 46.2274C148.623 46.2274 148.819 45.981 148.819 45.981C148.819 45.981 148.967 46.2767 148.721 46.2274Z" fill="#231F20"/>
<path opacity="0.1" d="M149.016 46.1781C148.967 46.1781 148.967 45.981 148.967 45.981C148.967 45.981 149.164 46.1781 149.016 46.1781Z" fill="#231F20"/>
<path opacity="0.25" d="M149.261 46.2274C149.163 46.2274 149.261 45.981 149.261 45.981C149.261 46.0302 149.507 46.2767 149.261 46.2274Z" fill="#231F20"/>
<path opacity="0.1" d="M149.508 46.1781C149.458 46.1781 149.409 45.981 149.409 45.981C149.409 45.981 149.655 46.1781 149.508 46.1781Z" fill="#231F20"/>
<path opacity="0.25" d="M149.852 46.2274C149.754 46.2274 149.754 45.981 149.754 45.981C149.754 46.0302 150.098 46.2767 149.852 46.2274Z" fill="#231F20"/>
<path opacity="0.1" d="M150.049 46.1781C150 46.1781 149.901 45.981 149.901 45.981C149.901 45.981 150.196 46.1781 150.049 46.1781Z" fill="#231F20"/>
<path opacity="0.25" d="M150.344 46.2274C150.245 46.2274 150.196 45.981 150.196 45.981C150.196 45.981 150.59 46.2767 150.344 46.2274Z" fill="#231F20"/>
<path opacity="0.1" d="M150.54 46.1781C150.491 46.1781 150.344 45.981 150.344 45.981C150.344 45.981 150.688 46.1781 150.54 46.1781Z" fill="#231F20"/>
<path opacity="0.25" d="M150.934 46.2274C150.836 46.2274 150.688 45.981 150.688 45.981C150.738 45.981 151.229 46.2767 150.934 46.2274Z" fill="#231F20"/>
<path opacity="0.1" d="M151.082 46.1288C150.983 46.1288 150.836 45.9316 150.836 45.9316C150.836 45.9809 151.279 46.1781 151.082 46.1288Z" fill="#231F20"/>
<path opacity="0.25" d="M151.476 46.2274C151.377 46.2274 151.181 45.981 151.181 45.981C151.131 45.981 151.722 46.2274 151.476 46.2274Z" fill="#231F20"/>
<path opacity="0.1" d="M151.573 46.1288C151.475 46.1288 151.278 45.9316 151.278 45.9316C151.278 45.9316 151.77 46.1288 151.573 46.1288Z" fill="#231F20"/>
<path opacity="0.25" d="M152.065 46.2274C151.918 46.2274 151.672 45.981 151.672 45.981C151.672 45.981 152.36 46.2274 152.065 46.2274Z" fill="#231F20"/>
<path opacity="0.1" d="M152.164 46.1288C152.066 46.1288 151.771 45.9316 151.771 45.9316C151.771 45.9316 152.361 46.1288 152.164 46.1288Z" fill="#231F20"/>
<path opacity="0.25" d="M152.557 46.1781C152.409 46.1781 152.114 45.9316 152.114 45.9316C152.114 45.9316 152.852 46.2273 152.557 46.1781Z" fill="#231F20"/>
<path opacity="0.1" d="M152.656 46.0795C152.557 46.0795 152.213 45.9316 152.213 45.9316C152.213 45.9316 152.852 46.1288 152.656 46.0795Z" fill="#231F20"/>
<path d="M147 44.5518C146.852 44.6504 146.459 44.9953 146.852 44.9953C147.246 44.9953 152.607 45.1925 152.508 44.8968C152.361 44.6011 152.557 44.4532 152.311 44.5025C152.066 44.5518 147 44.5518 147 44.5518Z" fill="#FFAE07"/>
<path d="M152.114 43.9604C151.377 43.9604 147.344 43.9604 147.196 43.9604C146.705 43.9604 146.213 44.1083 146.262 44.3054C146.213 44.5026 146.41 44.6997 147.147 44.6997C147.885 44.6997 151.918 44.6997 152.065 44.6997C152.557 44.6997 153.049 44.5518 153 44.3547C153.049 44.2069 152.901 43.9604 152.114 43.9604Z" fill="#FF6D42"/>
<path d="M152.114 44.8477C151.377 44.8477 147.344 44.8477 147.196 44.8477C146.705 44.8477 146.213 44.9955 146.262 45.1926C146.213 45.3898 146.41 45.5869 147.147 45.5869C147.885 45.5869 151.918 45.5869 152.065 45.5869C152.557 45.5869 153.049 45.4391 153 45.2419C153.049 45.0448 152.901 44.8477 152.114 44.8477Z" fill="#FF6D42"/>
<path d="M147.885 45.5868C146.754 45.4883 146.459 45.8333 146.902 45.8333C147.295 45.8333 152.213 46.3261 152.656 45.7347C152.852 45.4883 151.967 45.4883 151.721 45.4883C151.426 45.4883 147.885 45.5868 147.885 45.5868Z" fill="#EF2F30"/>
<path opacity="0.15" d="M146.705 44.8969C146.705 44.8969 147 44.7983 147.492 44.9462C147.984 45.094 148.279 44.9954 148.721 44.9954C149.164 44.9954 149.754 44.9954 149.951 45.1433C150.148 45.2911 150.885 45.4883 150.885 45.4883C150.885 45.4883 151.525 44.8969 151.721 44.8969C151.918 44.8969 152.41 44.8476 152.41 44.8476C152.41 44.8476 151.771 44.749 151.23 44.749C150.787 44.7983 147 44.6997 146.705 44.8969Z" fill="#231F20"/>
<path opacity="0.75" d="M150.541 41.2989C150.541 41.2989 150.836 41.2496 150.787 41.3975C150.738 41.5453 150.541 41.2989 150.541 41.2989Z" fill="#F4EC87"/>
<path opacity="0.75" d="M151.082 42.4815C151.082 42.4815 151.377 42.4322 151.328 42.5801C151.328 42.7279 151.082 42.4815 151.082 42.4815Z" fill="#F4EC87"/>
<path opacity="0.5" d="M151.082 41.5948C151.082 41.5948 151.279 41.5455 151.279 41.6934C151.23 41.7919 151.082 41.5948 151.082 41.5948Z" fill="#F4EC87"/>
<path opacity="0.5" d="M151.869 42.8267C151.869 42.8267 152.066 42.7774 152.066 42.9253C152.017 43.0239 151.869 42.8267 151.869 42.8267Z" fill="#F4EC87"/>
<path opacity="0.5" d="M151.771 41.9888C151.771 41.9888 151.967 41.9396 151.967 42.0874C151.918 42.186 151.771 41.9888 151.771 41.9888Z" fill="#F4EC87"/>
<path d="M150.737 41.7427C150.737 41.7427 150.786 41.8905 150.885 41.8412C150.934 41.792 150.737 41.7427 150.737 41.7427Z" fill="#F4EC87"/>
<path d="M151.427 42.0381C151.623 42.0381 151.574 41.9395 151.476 41.8902C151.328 41.841 151.427 42.0381 151.427 42.0381Z" fill="#F4EC87"/>
<path opacity="0.5" d="M150.787 42.334C150.984 42.334 150.935 42.2354 150.836 42.1861C150.689 42.1368 150.787 42.334 150.787 42.334Z" fill="#F4EC87"/>
<path d="M151.328 42.2354C151.328 42.2354 151.377 42.3832 151.476 42.3832C151.623 42.3832 151.476 42.2354 151.328 42.2354Z" fill="#F4EC87"/>
<path d="M151.033 41.9395C151.033 41.9395 150.984 42.1366 151.082 42.1366C151.131 42.1366 151.082 41.9887 151.033 41.9395Z" fill="#F4EC87"/>
<path d="M151.426 41.644C151.524 41.644 151.672 41.5947 151.524 41.5454C151.426 41.5454 151.426 41.644 151.426 41.644Z" fill="#F4EC87"/>
<path opacity="0.75" d="M150.246 41.9395C150.246 41.9395 149.95 41.8902 150 42.0381C150 42.2352 150.246 41.9395 150.246 41.9395Z" fill="#F4EC87"/>
<path opacity="0.75" d="M149.41 42.876C149.41 42.876 149.115 42.8268 149.164 42.9746C149.213 43.1225 149.41 42.876 149.41 42.876Z" fill="#F4EC87"/>
<path opacity="0.5" d="M149.213 42.0382C149.213 42.0382 149.017 41.9889 149.017 42.1367C149.066 42.186 149.213 42.0382 149.213 42.0382Z" fill="#F4EC87"/>
<path opacity="0.5" d="M148.869 42.6295C148.869 42.6295 148.672 42.5802 148.672 42.728C148.721 42.7773 148.869 42.6295 148.869 42.6295Z" fill="#F4EC87"/>
<path opacity="0.5" d="M148.18 42.9254C148.18 42.9254 147.983 42.8761 147.983 43.0239C148.033 43.1225 148.18 42.9254 148.18 42.9254Z" fill="#F4EC87"/>
<path opacity="0.5" d="M148.279 42.0875C148.279 42.0875 148.082 42.0382 148.082 42.186C148.131 42.2846 148.279 42.0875 148.279 42.0875Z" fill="#F4EC87"/>
<path d="M149.655 42.0874C149.655 42.0874 149.606 42.2352 149.508 42.186C149.459 42.1367 149.655 42.0874 149.655 42.0874Z" fill="#F4EC87"/>
<path d="M147.885 42.6294C147.885 42.6294 147.835 42.7772 147.737 42.728C147.639 42.6787 147.885 42.6294 147.885 42.6294Z" fill="#F4EC87"/>
<path d="M148.672 42.0874C148.476 42.0874 148.525 41.9888 148.623 41.9396C148.771 41.8903 148.672 42.0874 148.672 42.0874Z" fill="#F4EC87"/>
<path d="M150.934 42.9746C150.737 42.9746 150.787 42.876 150.885 42.8268C151.032 42.7775 150.934 42.9746 150.934 42.9746Z" fill="#F4EC87"/>
<path opacity="0.5" d="M150.197 42.6787C150 42.6787 150.049 42.5801 150.148 42.5309C150.295 42.4816 150.197 42.6787 150.197 42.6787Z" fill="#F4EC87"/>
<path d="M148.328 42.4326C148.328 42.4326 148.279 42.5805 148.18 42.5805C148.033 42.5805 148.18 42.4326 148.328 42.4326Z" fill="#F4EC87"/>
<path d="M149.458 42.334C149.458 42.334 149.508 42.5311 149.409 42.5311C149.311 42.5311 149.409 42.3833 149.458 42.334Z" fill="#F4EC87"/>
<path d="M147.393 42.2844C147.295 42.2844 147.147 42.2351 147.295 42.1858C147.393 42.1366 147.393 42.2844 147.393 42.2844Z" fill="#F4EC87"/>
<path opacity="0.25" d="M146.852 47.4595C146.656 47.4595 146.656 48.1001 147.147 48.1987C147.639 48.2973 148.426 48.1494 148.426 48.1494C148.426 48.1494 147.787 48.1494 147.393 47.903C146.951 47.6566 147 47.4595 146.852 47.4595Z" fill="white"/>
<path opacity="0.25" d="M146.311 46.0796C146.261 46.0796 146.261 46.2767 146.409 46.326C146.606 46.3753 146.852 46.326 146.852 46.326C146.852 46.326 146.606 46.326 146.458 46.2274C146.36 46.1782 146.409 46.0796 146.311 46.0796Z" fill="white"/>
<path opacity="0.25" d="M146.705 43.2211C146.508 43.3197 146.754 42.2355 147.393 41.7919C147.885 41.4962 148.672 41.102 148.672 41.102C148.672 41.102 149.213 41.0034 147.442 42.4819C147.049 42.7776 146.902 43.1225 146.705 43.2211Z" fill="white"/>
<path opacity="0.25" d="M146.262 47.0652C146.262 47.0652 146.41 47.0652 146.705 46.9667C147 46.8681 147.049 47.1638 147.491 47.1145C147.934 47.0652 148.131 47.3609 148.623 47.1145C149.114 46.9174 148.967 47.0159 149.557 46.9667C150.098 46.9174 150.147 47.3116 150.59 47.1145C150.983 46.9174 151.18 47.5088 151.77 47.3116C152.36 47.0652 152.164 46.9667 152.262 47.0159C152.36 47.0159 152.36 47.2131 152.606 47.1145C152.852 46.9666 152.852 46.9667 152.852 46.9667L152.705 46.7695C152.705 46.7695 152.459 46.4738 151.869 46.4738C151.278 46.4738 150.049 46.5231 149.114 46.5231C148.229 46.5231 147.393 46.3753 147 46.4738C146.606 46.5724 146.213 46.9667 146.262 47.0652Z" fill="#231F20"/>
<path opacity="0.25" d="M152.951 46.5229C152.951 46.5229 153.197 46.6707 153.148 46.7693C153.099 46.8679 152.705 46.72 152.705 46.72C152.705 46.72 153.049 46.7693 153 46.6707C152.902 46.5722 152.803 46.4736 152.951 46.5229Z" fill="white"/>
<path opacity="0.5" d="M146.065 46.5722C146.065 46.5722 145.918 46.9171 145.967 47.0157C146.065 47.1143 146.115 47.065 146.311 46.8679C146.508 46.6707 146.508 46.4736 146.803 46.5722C147.147 46.6707 147.393 46.7693 147.344 46.6707C147.295 46.5722 147.049 46.4243 146.803 46.4243C146.557 46.4736 146.115 46.375 146.065 46.5722Z" fill="white"/>
<path opacity="0.5" d="M151.377 46.8681C151.377 46.8681 151.672 47.2624 151.869 47.1638C152.065 47.0653 151.918 46.671 151.918 46.671C151.918 46.671 151.77 46.6217 151.82 46.8189C151.869 47.0653 151.377 46.8681 151.377 46.8681Z" fill="white"/>
<path opacity="0.1" d="M147.196 45.6358C147.196 45.6358 147.983 45.7836 148.671 45.7836C149.36 45.7836 149.507 45.7344 150.589 45.7344C151.671 45.7344 152.458 45.7344 152.507 45.6358C152.557 45.5372 152.606 45.5372 152.606 45.5372C152.606 45.5372 153.048 45.3401 152.114 45.3401C151.18 45.2908 150.737 45.5372 149.95 45.4387C149.114 45.3401 147.048 45.4387 147.196 45.6358Z" fill="#231F20"/>
<path opacity="0.1" d="M152.803 45.9318C152.803 45.9318 152.999 45.981 152.901 46.1289C152.754 46.3753 152.262 46.326 152.262 46.326C152.262 46.326 152.852 46.1782 152.803 46.0796C152.704 45.9318 152.704 45.8332 152.803 45.9318Z" fill="#231F20"/>
<path opacity="0.25" d="M152.655 45.2909C152.754 45.2909 152.262 45.0938 152.262 45.0938C152.262 45.0938 152.458 45.3402 152.655 45.2909Z" fill="#231F20"/>
<path opacity="0.1" d="M152.311 45.2416C152.36 45.2416 152.114 45.0938 152.114 45.0938C152.065 45.0938 152.164 45.2909 152.311 45.2416Z" fill="#231F20"/>
<path opacity="0.25" d="M152.163 45.3404C152.262 45.3404 151.868 45.1433 151.868 45.1433C151.868 45.094 151.967 45.3897 152.163 45.3404Z" fill="#231F20"/>
<path opacity="0.1" d="M151.819 45.2909C151.869 45.2909 151.672 45.0938 151.672 45.0938C151.672 45.0938 151.672 45.2909 151.819 45.2909Z" fill="#231F20"/>
<path opacity="0.25" d="M151.573 45.3402C151.671 45.3402 151.327 45.0938 151.327 45.0938C151.327 45.143 151.376 45.3894 151.573 45.3402Z" fill="#231F20"/>
<path opacity="0.1" d="M151.229 45.2909C151.278 45.2909 151.131 45.0938 151.131 45.0938C151.18 45.0938 151.131 45.2909 151.229 45.2909Z" fill="#231F20"/>
<path opacity="0.25" d="M151.032 45.3895C151.13 45.3895 150.884 45.1431 150.884 45.1431C150.884 45.1431 150.835 45.3895 151.032 45.3895Z" fill="#231F20"/>
<path opacity="0.1" d="M150.786 45.2909C150.836 45.2909 150.737 45.0938 150.737 45.0938C150.737 45.0938 150.639 45.3402 150.786 45.2909Z" fill="#231F20"/>
<path opacity="0.25" d="M150.442 45.3895C150.54 45.3895 150.343 45.1431 150.343 45.1431C150.393 45.1431 150.245 45.4388 150.442 45.3895Z" fill="#231F20"/>
<path opacity="0.1" d="M150.196 45.2909C150.246 45.2909 150.246 45.0938 150.246 45.0938C150.246 45.143 150.049 45.3402 150.196 45.2909Z" fill="#231F20"/>
<path opacity="0.25" d="M149.95 45.3895C150.048 45.3895 149.95 45.1431 149.95 45.1431C149.95 45.1431 149.704 45.4388 149.95 45.3895Z" fill="#231F20"/>
<path opacity="0.1" d="M149.704 45.2909C149.754 45.2909 149.803 45.0938 149.803 45.0938C149.803 45.143 149.557 45.3402 149.704 45.2909Z" fill="#231F20"/>
<path opacity="0.25" d="M149.361 45.3895C149.46 45.3895 149.46 45.1431 149.46 45.1431C149.41 45.1431 149.115 45.4388 149.361 45.3895Z" fill="#231F20"/>
<path opacity="0.1" d="M149.164 45.2909C149.213 45.2909 149.312 45.0938 149.312 45.0938C149.312 45.143 148.968 45.3402 149.164 45.2909Z" fill="#231F20"/>
<path opacity="0.25" d="M148.82 45.3895C148.918 45.3895 148.968 45.1431 148.968 45.1431C149.017 45.1431 148.574 45.4388 148.82 45.3895Z" fill="#231F20"/>
<path opacity="0.1" d="M148.672 45.2909C148.721 45.2909 148.869 45.0938 148.869 45.0938C148.869 45.143 148.476 45.3402 148.672 45.2909Z" fill="#231F20"/>
<path opacity="0.25" d="M148.23 45.3895C148.328 45.3895 148.476 45.1431 148.476 45.1431C148.476 45.1431 147.984 45.3895 148.23 45.3895Z" fill="#231F20"/>
<path opacity="0.1" d="M148.082 45.2909C148.18 45.2909 148.328 45.0938 148.328 45.0938C148.377 45.0938 147.934 45.2909 148.082 45.2909Z" fill="#231F20"/>
<path opacity="0.25" d="M147.738 45.3895C147.836 45.3895 148.033 45.1431 148.033 45.1431C148.033 45.1431 147.443 45.3895 147.738 45.3895Z" fill="#231F20"/>
<path opacity="0.1" d="M147.59 45.2909C147.689 45.2909 147.885 45.0938 147.885 45.0938C147.934 45.0938 147.443 45.2909 147.59 45.2909Z" fill="#231F20"/>
<path opacity="0.25" d="M147.148 45.3402C147.295 45.3402 147.541 45.0938 147.541 45.0938C147.541 45.0938 146.853 45.3894 147.148 45.3402Z" fill="#231F20"/>
<path opacity="0.1" d="M147.049 45.2416C147.147 45.2416 147.442 45.0444 147.442 45.0444C147.442 45.0937 146.852 45.2908 147.049 45.2416Z" fill="#231F20"/>
<path opacity="0.25" d="M146.606 45.3402C146.754 45.3402 147.049 45.0938 147.049 45.0938C147.098 45.0938 146.311 45.3402 146.606 45.3402Z" fill="#231F20"/>
<path opacity="0.1" d="M146.557 45.2417C146.655 45.2417 147 45.0938 147 45.0938C147 45.0446 146.36 45.2417 146.557 45.2417Z" fill="#231F20"/>
<path opacity="0.5" d="M150.295 45.0446C150.295 45.0446 150.639 45.2911 150.836 45.2418C151.033 45.1432 151.18 45.0446 151.18 45.0446C151.18 45.0446 150.787 44.8475 150.836 45.0446C150.885 45.2911 150.295 45.0446 150.295 45.0446Z" fill="white"/>
<path opacity="0.15" d="M146.262 44.4531C146.262 44.4531 146.704 44.3546 146.803 44.256C146.901 44.1574 146.901 44.6503 147.344 44.5024C147.786 44.3546 148.032 44.7981 148.573 44.601C149.114 44.4038 148.967 44.4531 149.852 44.4531C150.737 44.5024 150.442 44.4531 151.032 44.5024C151.622 44.601 151.721 44.7488 151.967 44.5517C152.213 44.3546 152.458 44.5024 152.557 44.3546C152.704 44.256 152.999 44.3546 152.901 44.1081C152.852 43.8617 153.147 43.7632 151.819 43.7632C150.491 43.7632 150.344 43.7632 149.606 43.7632C148.868 43.7632 148.721 43.8617 148.081 43.7632C147.442 43.6646 146.901 43.6153 146.655 43.7139C146.458 43.911 146.262 44.4531 146.262 44.4531Z" fill="#231F20"/>
<path opacity="0.25" d="M147.294 43.6645C147.294 43.6645 146.95 43.4674 147.196 43.3688C147.442 43.2703 147.688 43.4181 147.688 43.4181C147.688 43.4181 147.344 43.3196 147.344 43.4674C147.393 43.6153 147.294 43.6645 147.294 43.6645Z" fill="white"/>
<path opacity="0.25" d="M146.311 43.6646C146.262 43.6153 145.869 43.4674 145.967 43.6153C146.065 43.8124 146.114 43.911 146.114 43.911C146.114 43.911 146.114 43.7139 146.213 43.7139C146.262 43.7139 146.311 43.6646 146.311 43.6646Z" fill="white"/>
<path opacity="0.25" d="M148.426 43.7137C148.623 43.763 148.721 43.6152 149.066 43.7137C149.459 43.8123 149.361 43.9601 149.902 43.8616C150.394 43.763 150.148 43.9109 149.705 43.763C149.213 43.6644 148.967 43.5166 148.721 43.5166C148.476 43.5659 148.328 43.7137 148.426 43.7137Z" fill="white"/>
<path opacity="0.25" d="M150.393 43.7632C150.196 44.0589 150.541 43.6647 150.934 43.7632C151.278 43.8618 151.327 44.0096 151.622 43.8618C151.918 43.7632 151.721 43.7632 152.114 43.8125C152.508 43.8618 152.065 43.6154 151.918 43.6154C151.77 43.6154 151.721 43.9111 151.377 43.7632C150.983 43.6647 150.639 43.369 150.393 43.7632Z" fill="white"/>
<path opacity="0.25" d="M151.327 44.2069C151.327 44.2069 151.622 44.6012 151.819 44.4041C152.065 44.2562 151.868 44.0591 151.868 44.0591C151.868 44.0591 151.819 44.4041 151.671 44.2562C151.573 44.1576 151.327 44.2069 151.327 44.2069Z" fill="white"/>
<path opacity="0.25" d="M152.853 44.1083C152.853 44.1083 153.197 44.3054 153.148 44.1083C153.098 43.9111 153 43.9111 153 43.9111C153 43.9111 153.148 44.059 153 44.059C152.951 44.059 152.853 44.1083 152.853 44.1083Z" fill="white"/>
<path opacity="0.25" d="M152.705 43.6152C152.705 43.5659 152.951 43.2702 153.099 43.3195C153.197 43.3688 153.049 43.6152 153.049 43.7137C153.049 43.8616 152.902 43.6152 152.902 43.5659C152.902 43.4673 152.705 43.6645 152.705 43.6152Z" fill="white"/>
<path d="M148.18 44.1084C148.18 44.0591 147.934 43.9113 147.934 43.7142C147.984 43.517 147.984 43.4185 148.131 43.4185C148.279 43.4185 148.082 43.6156 148.229 43.8127C148.377 44.0099 148.328 44.0099 148.574 43.9606C148.82 43.9113 148.869 43.7142 148.967 43.862C149.066 44.0099 148.869 43.9606 148.672 44.0591C148.525 44.1577 148.574 44.3548 148.328 44.3055C148.082 44.2563 147.639 44.1577 147.738 44.0099C147.885 43.9113 148.18 44.1084 148.18 44.1084Z" fill="#349E16"/>
<path d="M146.066 44.207C146.066 44.3056 146.016 44.4534 146.262 44.3056C146.508 44.1577 146.508 43.862 146.803 43.9606C147.098 44.0591 147.197 44.207 147.443 44.0099C147.639 43.8127 147.787 43.6649 147.639 43.6649C147.492 43.6649 147.147 44.0099 146.951 43.8127C146.754 43.6156 146.754 43.2213 146.508 43.4185C146.262 43.6156 146.508 43.7142 146.361 43.862C146.213 44.0099 146.066 44.0099 146.066 44.207Z" fill="#349E16"/>
<path d="M150 44.1576C150.393 44.2562 150.344 44.2562 150.59 44.1576C150.787 44.059 150.689 44.0098 150.492 44.0098C150.295 44.059 150 44.1576 150 44.1576Z" fill="#349E16"/>
<path d="M152.36 44.1576C152.557 44.1576 152.458 44.1084 152.704 44.0591C152.999 44.0098 153.343 44.0098 153.343 43.8127C153.343 43.6155 152.852 44.0098 152.655 43.8619C152.458 43.7141 152.557 43.3198 152.409 43.4677C152.212 43.517 151.868 44.1084 152.36 44.1576Z" fill="#349E16"/>
<path d="M174.394 28.3871C174.394 24.7895 171.443 21.8325 167.853 21.8325C164.263 21.8325 161.312 24.7895 161.312 28.3871C161.312 28.3871 160.476 31.9355 167.853 41.2992C173.951 33.6111 174.394 29.8163 174.394 28.7321C174.394 28.5843 174.394 28.4857 174.394 28.3871ZM167.853 31.7876C165.984 31.7876 164.459 30.2599 164.459 28.3871C164.459 26.5144 165.984 24.9866 167.853 24.9866C169.722 24.9866 171.246 26.5144 171.246 28.3871C171.197 30.2599 169.672 31.7876 167.853 31.7876Z" fill="#53D8FF"/>
<defs>
<radialGradient id="paint0_radial_973_830" cx="0" cy="0" r="1" gradientUnits="userSpaceOnUse" gradientTransform="translate(-2.29664 71.642) scale(22.2353 19.5766)">
<stop stop-color="#FFB801"/>
<stop offset="1" stop-color="#FFF501"/>
</radialGradient>
<radialGradient id="paint1_radial_973_830" cx="0" cy="0" r="1" gradientUnits="userSpaceOnUse" gradientTransform="translate(126.466 -16.6699) rotate(176.956) scale(141.462 122.421)">
<stop stop-color="#FDAB47"/>
<stop offset="1" stop-color="#FA594D"/>
</radialGradient>
<radialGradient id="paint2_radial_973_830" cx="0" cy="0" r="1" gradientUnits="userSpaceOnUse" gradientTransform="translate(94.7591 64.0129) rotate(177.864) scale(52.8162 71.9292)">
<stop stop-color="#53D8FF"/>
<stop offset="1" stop-color="#48CEF3"/>
</radialGradient>
<radialGradient id="paint3_radial_973_830" cx="0" cy="0" r="1" gradientUnits="userSpaceOnUse" gradientTransform="translate(41.5464 37.4265) rotate(-177.783) scale(1.9887 1.99283)">
<stop stop-color="#FDAB47"/>
<stop offset="1" stop-color="#FA594D"/>
</radialGradient>
<radialGradient id="paint4_radial_973_830" cx="0" cy="0" r="1" gradientUnits="userSpaceOnUse" gradientTransform="translate(42.1897 45.089) rotate(-177.783) scale(1.9887 1.99283)">
<stop stop-color="#FDAB47"/>
<stop offset="1" stop-color="#FA594D"/>
</radialGradient>
<radialGradient id="paint5_radial_973_830" cx="0" cy="0" r="1" gradientUnits="userSpaceOnUse" gradientTransform="translate(101.778 43.7427) rotate(-177.783) scale(2.22276 2.22738)">
<stop stop-color="#FDAB47"/>
<stop offset="1" stop-color="#FA594D"/>
</radialGradient>
<radialGradient id="paint6_radial_973_830" cx="0" cy="0" r="1" gradientUnits="userSpaceOnUse" gradientTransform="translate(43.4361 52.3045) rotate(-177.783) scale(1.9887 1.99283)">
<stop stop-color="#FDAB47"/>
<stop offset="1" stop-color="#FA594D"/>
</radialGradient>
<radialGradient id="paint7_radial_973_830" cx="0" cy="0" r="1" gradientUnits="userSpaceOnUse" gradientTransform="translate(43.4864 61.6482) rotate(-177.783) scale(1.9887 1.99283)">
<stop stop-color="#FDAB47"/>
<stop offset="1" stop-color="#FA594D"/>
</radialGradient>
</defs>
</svg>
