<svg width="71" height="81" viewBox="0 0 71 81" fill="none" xmlns="http://www.w3.org/2000/svg">
<path d="M34.417 4.69336L34.4934 4.74466C34.468 4.77031 34.4425 4.82161 34.417 4.84725C33.8566 5.53978 33.4744 6.3349 33.0923 7.13003C33.0413 7.13003 32.9904 7.10438 32.9394 7.10438L32.914 7.20698C32.8885 7.25827 32.8375 7.30957 32.8121 7.36087L32.7611 7.33522C32.328 7.05308 31.895 6.77094 31.4619 6.4888C31.3854 6.4375 31.2835 6.36055 31.1816 6.30926L31.2071 6.28361C31.5383 5.71933 31.9459 5.20634 32.379 4.71901H34.417V4.69336Z" fill="#FFCBA4"/>
<path d="M25.1182 15.8003C28.3281 12.6455 30.4171 7.56695 30.9775 6.15625C31.0539 6.1819 31.1558 6.2332 31.2323 6.25885C31.3342 6.31014 31.4106 6.36144 31.5125 6.43839C31.9456 6.72053 32.3787 7.00267 32.8117 7.28481L32.8627 7.31046C30.952 10.1319 30.2132 11.1065 27.9714 13.774C27.5893 14.2357 27.2071 14.6718 26.7231 15.0309C26.2136 15.3899 25.6531 15.5951 25.1182 15.8003Z" fill="#00BAAA"/>
<path d="M18.9788 42.6554C17.8579 43.0658 16.686 43.2454 15.4887 43.1684C14.5461 43.0915 13.629 42.8606 12.7119 42.6298C11.3107 42.2451 9.8586 41.7834 8.83959 40.8087C8.68673 40.6548 8.53388 40.5009 8.4065 40.3214L8.33008 40.2701C9.04339 38.5516 9.83313 36.8587 10.7248 35.2428C11.0814 34.576 11.4636 33.9091 11.5655 33.1653C11.6674 32.2675 11.3617 31.3442 11.0814 30.4721C10.7502 29.4205 10.4445 28.3432 10.2407 27.266C9.80765 24.8806 9.73123 22.4439 10.4191 20.1355C10.4445 20.0585 10.47 19.9559 10.4955 19.879C10.8012 18.9813 11.5145 18.2375 12.3807 17.9297C12.7119 17.8271 13.043 17.7501 13.3742 17.7501C14.113 17.6988 14.9027 17.8271 15.6415 17.8527C16.3803 17.904 17.1446 17.8784 17.8834 17.8014C20.3035 17.5449 22.6982 16.6729 25.0165 15.8264C25.042 15.8264 25.0674 15.8008 25.0929 15.8008C25.6534 15.5956 26.1883 15.3904 26.6724 15.057C27.1564 14.7235 27.5385 14.2618 27.9207 13.8002C30.1625 11.1326 30.8758 10.1323 32.812 7.33657C32.8374 7.28527 32.8884 7.23397 32.9139 7.18267L32.9393 7.08008C32.9903 7.08008 33.0412 7.10573 33.0922 7.10573C33.8055 7.28527 34.4933 7.64436 35.0283 8.15734C35.3085 8.41383 35.5633 8.72162 35.7671 9.08071C35.4104 9.4911 33.4998 11.6713 32.226 13.8771C30.8249 16.3138 29.1435 18.8274 26.596 19.9816C25.8317 20.3407 25.0165 20.5459 24.2013 20.7767C22.3925 21.3154 20.6092 21.9566 18.8514 22.7004C19.7431 23.7007 20.4819 24.8036 21.1187 25.9835C21.399 26.4965 21.6537 27.0608 21.6537 27.6507C21.6537 28.7536 20.7876 29.6513 20.1761 30.5747C20.0997 30.6773 20.0488 30.7799 20.0233 30.9081C19.9978 31.0364 19.9978 31.139 19.9978 31.2672C20.2016 34.9094 19.9723 38.6029 19.3355 42.1938L19.259 42.5272C19.1317 42.6041 19.1317 42.6041 18.9788 42.6554Z" fill="#00BAAA"/>
<path d="M18.5964 22.7513C16.2527 23.9824 13.4504 24.0081 11.0811 22.8026C10.9283 22.7256 10.8009 22.9821 10.9538 23.0591C13.4249 24.2902 16.3291 24.2646 18.7492 22.9821C18.9276 22.8795 18.7747 22.6487 18.5964 22.7513Z" fill="#06967E"/>
<path d="M18.5715 23.1106C17.5524 24.2648 16.3551 25.1882 14.9794 25.8807C14.8266 25.9576 14.903 26.2141 15.0813 26.1372C16.4825 25.419 17.7308 24.47 18.8007 23.2901C18.9026 23.1619 18.6988 22.9567 18.5715 23.1106Z" fill="#06967E"/>
<path d="M18.5708 23.5978C17.7811 24.4956 16.9913 25.3933 16.2016 26.291C16.0742 26.4192 16.3035 26.5988 16.4054 26.4705L18.7746 23.7774C18.902 23.6491 18.6982 23.4696 18.5708 23.5978Z" fill="#06967E"/>
<path d="M17.6542 28.9837C15.9474 29.9071 14.4188 31.1126 13.0686 32.5233C12.9413 32.6515 13.1451 32.8311 13.2725 32.7028C14.5972 31.2921 16.1002 30.1379 17.8071 29.2146C17.9854 29.112 17.8071 28.8811 17.6542 28.9837Z" fill="#06967E"/>
<path d="M17.6029 30.6255C16.1762 31.2667 14.9025 32.1388 13.7815 33.216C13.6542 33.3443 13.858 33.5238 13.9853 33.3956C15.0808 32.344 16.3291 31.5232 17.6793 30.9076C17.8576 30.8307 17.7557 30.5485 17.6029 30.6255Z" fill="#06967E"/>
<path d="M32.8373 6.92596C30.621 9.77301 28.3791 12.5944 26.1628 15.4415C25.1692 15.8006 24.1502 16.1596 23.1567 16.5444C22.9783 16.5957 23.0802 16.8778 23.2586 16.8009C24.2012 16.4674 25.1183 16.134 26.0609 15.7749C26.1118 15.8262 26.2137 15.8519 26.2647 15.7749C26.2901 15.7493 26.3156 15.698 26.3411 15.6723C26.392 15.6467 26.443 15.6467 26.4939 15.621C26.5958 15.5954 26.5958 15.4671 26.5449 15.4158C28.7103 12.6457 30.8757 9.87561 33.0411 7.1055C33.143 6.97725 32.9392 6.79771 32.8373 6.92596Z" fill="#06967E"/>
<path d="M26.7486 17.3646C26.6213 17.9033 26.4939 18.4419 26.3665 18.9549C26.3156 19.1344 26.5958 19.1857 26.6467 19.0062C26.7741 18.4676 26.9015 17.9289 27.0289 17.4159C27.0798 17.2364 26.7996 17.1851 26.7486 17.3646Z" fill="#06967E"/>
<path d="M27.5132 17.5699C27.3094 18.0316 27.1056 18.4676 26.9018 18.9293C26.8254 19.0832 27.0802 19.2114 27.1566 19.0575C27.3604 18.5958 27.5642 18.1598 27.768 17.6981C27.8189 17.5186 27.5897 17.3903 27.5132 17.5699Z" fill="#06967E"/>
<path d="M46.3398 0V2.71881H30.7998V0C30.7998 0 33.5257 1.5133 38.5698 1.5133C43.6139 1.5133 46.3398 0 46.3398 0Z" fill="#FFDF77"/>
<path d="M30.7998 0H46.3398C46.3398 0 43.6139 1.5133 38.5698 1.5133C33.5257 1.5133 30.7998 0 30.7998 0Z" fill="#EDC24A"/>
<path d="M46.3398 2.71875V5.43756H30.7998V2.71875C30.7998 2.71875 33.5257 4.23205 38.5698 4.23205C43.6139 4.23205 46.3398 2.71875 46.3398 2.71875Z" fill="#F4B34A"/>
<path d="M30.7998 2.71875H46.3398C46.3398 2.71875 43.6139 4.23205 38.5698 4.23205C33.5257 4.23205 30.7998 2.71875 30.7998 2.71875Z" fill="#EDC24A"/>
<path d="M44.9899 0.564332C44.9899 0.410437 45.2701 0.436086 45.2701 0.589981C45.2191 1.30816 45.1682 2.00068 45.0918 2.71886C45.0918 2.87276 44.8115 2.84711 44.8115 2.69321C44.8879 1.97503 44.9389 1.28251 44.9899 0.564332Z" fill="#FFEA92"/>
<path d="M43.1555 1.02625C43.1555 0.872351 43.4358 0.898 43.4358 1.0519C43.4103 1.59053 43.3848 2.15481 43.3593 2.69344C43.3593 2.84734 43.0791 2.82169 43.0791 2.66779C43.1046 2.10351 43.13 1.56488 43.1555 1.02625Z" fill="#FFEA92"/>
<path d="M41.5509 1.4364C41.5509 1.28251 41.8311 1.30816 41.8311 1.46205C41.8311 1.82114 41.8311 2.20588 41.8056 2.56496C41.8056 2.71886 41.5254 2.69321 41.5254 2.53932C41.5509 2.18023 41.5509 1.82114 41.5509 1.4364Z" fill="#FFEA92"/>
<path d="M39.8438 1.5907C39.8438 1.4368 40.1241 1.46245 40.1241 1.61635C40.1241 1.94979 40.0986 2.30888 40.0986 2.64231C40.0986 2.79621 39.8184 2.77056 39.8184 2.61666C39.8184 2.25758 39.8184 1.92414 39.8438 1.5907Z" fill="#FFEA92"/>
<path d="M38.4423 1.56464V2.66755C38.4423 2.82145 38.1621 2.7958 38.1621 2.6419V1.56464C38.1621 1.41075 38.4423 1.41075 38.4423 1.56464Z" fill="#FFEA92"/>
<path d="M36.3536 1.46179C36.3536 1.3079 36.6338 1.33355 36.6338 1.48744C36.6338 1.87218 36.6084 2.25692 36.6084 2.64165C36.6084 2.79555 36.3281 2.7699 36.3281 2.616C36.3281 2.25692 36.3536 1.84653 36.3536 1.46179Z" fill="#FFEA92"/>
<path d="M34.9775 1.33412C34.9775 1.77016 35.003 2.18054 35.003 2.61658C35.003 2.77047 34.7227 2.74482 34.7227 2.59093C34.7227 2.15489 34.6973 1.74451 34.6973 1.30847C34.6973 1.15458 34.952 1.18023 34.9775 1.33412Z" fill="#FFEA92"/>
<path d="M33.3222 1.05146C33.3477 1.5388 33.3477 2.02613 33.3732 2.51346C33.3732 2.66736 33.0929 2.64171 33.0929 2.48782C33.0675 2.00048 33.0675 1.51315 33.042 1.02581C33.042 0.897569 33.3222 0.897568 33.3222 1.05146Z" fill="#FFEA92"/>
<path d="M31.8193 0.487442C31.8448 1.25692 31.8957 2.00074 31.9212 2.77022C31.9212 2.92411 31.6664 2.89846 31.641 2.74457C31.6155 1.97509 31.5645 1.23127 31.5391 0.461793C31.5391 0.307898 31.7938 0.333547 31.8193 0.487442Z" fill="#FFEA92"/>
<path d="M45.55 3.15515C45.55 3.00126 45.8302 3.02691 45.8302 3.1808L45.7793 5.28403C45.7793 5.43793 45.499 5.41228 45.499 5.25838L45.55 3.15515Z" fill="#FFD366"/>
<path d="M43.7413 3.745C43.7413 3.5911 44.0215 3.61675 44.0215 3.77065C44.0215 4.30928 43.996 4.87356 43.996 5.41219C43.996 5.56609 43.7158 5.54044 43.7158 5.38654C43.7158 4.84791 43.7413 4.30928 43.7413 3.745Z" fill="#FFD366"/>
<path d="M42.0341 4.23256C42.0596 4.64295 42.0596 5.05333 42.0851 5.46372C42.0851 5.61761 41.8049 5.59196 41.8049 5.43807C41.7794 5.02768 41.7794 4.6173 41.7539 4.20691C41.7539 4.05302 42.0341 4.07866 42.0341 4.23256Z" fill="#FFD366"/>
<path d="M40.2002 4.36049V5.38645C40.2002 5.54035 39.9199 5.5147 39.9199 5.36081V4.33484C39.9454 4.18094 40.2002 4.20659 40.2002 4.36049Z" fill="#FFD366"/>
<path d="M38.4931 4.36049L38.5186 5.36081C38.5186 5.5147 38.2384 5.48905 38.2384 5.33516L38.2129 4.33484C38.2129 4.18094 38.4931 4.20659 38.4931 4.36049Z" fill="#FFD366"/>
<path d="M36.9648 4.25752L36.9903 5.25783C36.9903 5.41173 36.71 5.38608 36.71 5.23219C36.71 4.89875 36.71 4.56531 36.6846 4.23187C36.6846 4.10362 36.9648 4.10362 36.9648 4.25752Z" fill="#FFD366"/>
<path d="M35.0802 4.2323C35.0802 4.07841 35.3604 4.10406 35.3604 4.25795L35.3349 5.38651C35.3349 5.54041 35.0547 5.51476 35.0547 5.36086L35.0802 4.2323Z" fill="#FFD366"/>
<path d="M33.4238 3.6935C33.4493 4.20648 33.4493 4.71946 33.4747 5.23245C33.4747 5.38634 33.1945 5.36069 33.1945 5.2068C33.169 4.69381 33.169 4.18083 33.1436 3.66785C33.1436 3.51395 33.3983 3.5396 33.4238 3.6935Z" fill="#FFD366"/>
<path d="M31.539 3.15444L31.7683 5.36027C31.7938 5.51417 31.5135 5.56546 31.4881 5.41157C31.4116 4.66774 31.3352 3.92392 31.2588 3.20574C31.2588 3.05185 31.539 3.00055 31.539 3.15444Z" fill="#FFD366"/>
<path d="M34.6458 5.59183C35.4101 5.10449 36.2508 4.7454 37.1424 4.56586C37.6264 4.46326 38.1359 4.43762 38.569 4.64281C38.7728 4.7454 38.9766 4.92495 39.0021 5.15579C39.0276 5.36098 38.9002 5.54053 38.7728 5.69442C37.8302 6.87428 36.1998 7.23337 35.0279 8.18239C34.4929 7.66941 33.8051 7.31032 33.0918 7.13077C33.4739 6.33565 33.8561 5.54053 34.4165 4.848C34.442 4.82235 34.4675 4.77105 34.4929 4.7454C34.6967 4.51456 34.9515 4.30937 35.2317 4.23242C35.0789 4.69411 34.8496 5.13014 34.5948 5.54053L34.6458 5.59183Z" fill="#FFCBA4"/>
<path d="M12.9156 12.3116L12.941 12.286C13.6289 12.0808 14.3422 11.8499 14.9281 11.4139C15.4631 11.0035 15.8198 10.4136 16.1255 9.798C16.5076 9.02852 16.8133 8.20775 16.9916 7.36133L17.0681 7.38698C17.654 7.66912 18.1126 8.1821 18.4183 8.74638C18.4692 8.84898 18.5202 8.92593 18.5456 9.02852C18.7749 9.51586 18.9023 10.0545 18.9787 10.6188C19.0042 10.8753 19.0297 11.1318 19.1316 11.3882C19.2589 11.773 19.5392 12.0808 19.8449 12.3373C19.9213 12.3886 19.9977 12.4399 20.0487 12.5168C20.1251 12.6451 20.0996 12.8502 20.0232 12.9785C19.9468 13.1324 19.8449 13.235 19.743 13.3632C19.4882 13.748 19.4373 14.2609 19.3863 14.7483C19.3354 15.21 19.208 15.7229 18.8513 16.0564C18.673 16.2103 18.4692 16.2872 18.2654 16.3642C18.0361 16.4411 17.8068 16.4668 17.5776 16.4924V16.5181C17.603 16.9798 17.7304 17.4158 17.9087 17.8262C17.17 17.9031 16.4312 17.9288 15.6669 17.8775C14.9026 17.8262 14.1384 17.7236 13.3996 17.7749L13.3741 17.4158C13.4505 16.8002 13.476 16.1846 13.4251 15.5691C13.3996 15.1843 13.3232 14.7996 13.0429 14.5431C12.6608 14.4661 12.3042 14.3635 11.973 14.1327C11.5144 13.7993 11.2851 13.235 11.3361 12.6707C11.3616 12.5681 11.3616 12.4655 11.4125 12.3886C11.5908 12.0551 12.0239 11.9269 12.3806 12.0295C12.5844 12.0551 12.7627 12.1577 12.9156 12.3116Z" fill="#FFCBA4"/>
<path d="M6.19053 24.8284C5.93577 25.3671 5.63007 25.9057 5.29889 26.393L5.22246 26.3417C3.99964 26.0339 2.87872 25.3158 2.06351 24.3667L2.01256 24.3154C2.39469 23.7768 2.70039 23.2125 2.92967 22.597C2.59849 22.8278 2.29279 23.033 1.98708 23.2382C1.78328 23.3921 1.52853 23.546 1.29925 23.4434C0.713312 22.8791 0.28023 22.1609 0.0254754 21.3658L0 21.3145C2.29279 20.6733 4.02512 18.7239 5.32436 16.6976C5.93577 15.7486 6.47076 14.7483 6.95479 13.7223C7.69358 12.1321 8.25404 10.4649 9.19663 8.97725C10.1392 7.4896 11.5149 6.1815 13.2217 5.84806C15.4636 5.38637 17.8583 6.84838 18.6735 9.0029L18.5716 9.0542C18.5206 8.95161 18.4952 8.87466 18.4442 8.77206C18.1385 8.20778 17.6799 7.6948 17.094 7.41266L17.0176 7.38701C16.8393 8.23343 16.5335 9.0542 16.1514 9.82368C15.8457 10.4393 15.4636 11.0035 14.9541 11.4396C14.3936 11.9013 13.6548 12.1065 12.967 12.3116H12.916C12.7632 12.1577 12.5849 12.0552 12.3811 11.9782C12.0244 11.8756 11.5658 12.0039 11.413 12.3373C11.362 12.4142 11.3366 12.5168 11.3366 12.6194C11.2601 13.1581 11.5149 13.748 11.9734 14.0814C12.2792 14.3123 12.6613 14.3892 13.0434 14.4918C13.3236 14.7483 13.4001 15.133 13.4255 15.5178C13.4765 16.1334 13.4765 16.7489 13.3746 17.3645L13.4001 17.7236C13.0689 17.7493 12.7377 17.8006 12.4065 17.9032C11.5149 18.2109 10.8016 18.9548 10.5213 19.8525C10.4959 19.9294 10.4704 20.032 10.4449 20.109C9.78256 22.4174 9.83351 24.8541 10.2666 27.2394L10.1647 27.2651C8.83997 27.5216 7.43882 27.3677 6.216 26.7778L6.24148 26.7265C6.24148 26.1109 6.24148 25.4697 6.24148 24.8284H6.19053Z" fill="#FF3F6E"/>
<path d="M16.4822 6.54043C15.8198 8.64366 14.4951 10.4391 12.6864 11.6959C12.5335 11.7985 12.6864 12.0293 12.8392 11.9268C14.6989 10.6186 16.0746 8.77191 16.7624 6.59173C16.8134 6.41219 16.5331 6.36089 16.4822 6.54043Z" fill="#BF1B52"/>
<path d="M13.9353 5.69392C10.9547 6.84813 9.78283 10.0286 8.48359 12.7218C6.87864 16.0562 5.04441 19.288 2.9809 22.3659C2.879 22.5198 3.0828 22.6993 3.1847 22.5454C5.06988 19.724 6.75126 16.8 8.25431 13.7734C9.65546 10.9263 10.7764 7.20722 14.0118 5.95041C14.1901 5.87347 14.1137 5.61697 13.9353 5.69392Z" fill="#BF1B52"/>
<path d="M15.8457 6.05325C8.22854 9.51588 8.6871 19.6473 3.94867 25.5466C3.84677 25.6748 4.05057 25.88 4.15247 25.7261C6.62359 22.6482 7.64261 18.8009 9.01828 15.1587C10.3685 11.6191 12.3301 7.95129 15.9221 6.30974C16.1004 6.25844 15.9985 5.9763 15.8457 6.05325Z" fill="#BF1B52"/>
<path d="M11.5147 13.8761C9.60401 17.3644 7.89716 20.9553 6.36863 24.6488C6.2922 24.8026 6.54696 24.9309 6.62338 24.777C8.12643 21.0835 9.85876 17.4926 11.7694 14.0044C11.8458 13.8505 11.5911 13.7222 11.5147 13.8761Z" fill="#BF1B52"/>
<path d="M13.094 14.6965C9.85864 17.9796 9.09438 22.6733 7.28562 26.7516C7.2092 26.9055 7.46395 27.0337 7.54038 26.8798C9.32366 22.8272 10.0879 18.1334 13.2978 14.876C13.4252 14.7478 13.2214 14.5682 13.094 14.6965Z" fill="#BF1B52"/>
<path d="M17.5015 16.3125C16.3041 16.2869 15.2087 15.9021 14.2406 15.2096C14.0878 15.107 13.9095 15.3122 14.0623 15.4148C15.0813 16.1586 16.2532 16.5434 17.527 16.5947C17.7053 16.5947 17.6798 16.3125 17.5015 16.3125Z" fill="#F7B589"/>
<path d="M17.4502 59.0957C17.1699 64.0973 16.9152 69.8427 16.4057 74.7673C16.2274 74.8186 16.0745 74.8699 15.8962 74.9212C15.0555 75.1521 14.1638 75.229 13.3486 74.9982C13.1448 74.9469 12.941 74.8699 12.7627 74.7673C12.9665 71.9972 13.2722 68.7141 12.9665 65.944C13.96 64.559 14.9536 63.1996 15.9216 61.7889C16.4566 61.0194 17.0171 60.2499 17.3483 59.3778C17.3737 59.3009 17.4247 59.1983 17.4502 59.0957Z" fill="#273435"/>
<path d="M5.32391 78.7689L5.40033 78.7176C6.6741 78.7432 7.97335 78.7689 9.24712 78.7946C9.34902 78.9997 9.42545 79.2562 9.42545 79.4871V79.5384C8.0243 79.7179 6.5722 79.4614 5.17105 79.6666L5.1201 79.6923C4.02466 78.3329 3.05659 76.8709 2.19043 75.3319V75.2293C2.31781 75.0498 2.44518 74.8446 2.57256 74.665L2.67446 74.742C3.54063 76.0757 4.43227 77.4351 5.32391 78.7689Z" fill="#FF3F6E"/>
<path d="M23.1562 78.6662C20.5578 78.5893 17.9338 78.4867 15.3353 78.4098C14.7748 78.3841 14.1889 78.3841 13.6284 78.2815L13.5265 78.1276C13.5011 77.8711 13.5011 77.6403 13.4756 77.3838H13.5775C14.622 77.7172 15.7174 77.6916 16.8129 77.6916C18.8254 77.6916 20.8125 77.8198 22.7996 78.0507L22.8505 78.025C22.9524 78.2559 23.0543 78.4611 23.1562 78.6662Z" fill="#FF3F6E"/>
<path d="M15.8708 75.203C16.8134 75.1517 17.756 75.3826 18.6476 75.6134C19.5647 75.8699 20.4818 76.1521 21.3225 76.6137C21.9339 76.9728 22.4689 77.4602 22.8256 78.0244L22.7746 78.0501C20.7875 77.7936 18.775 77.691 16.7879 77.691C15.6925 77.691 14.597 77.7167 13.5525 77.3832H13.4506C13.3997 76.5881 13.3487 75.793 13.3232 74.9978C14.1385 75.2287 15.0301 75.1517 15.8708 74.9209C15.8708 75.0235 15.8708 75.1004 15.8708 75.203Z" fill="#FF3F6E"/>
<path d="M6.44453 77.3318C7.10689 77.3831 7.76925 77.4857 8.32971 77.8191C8.71184 78.05 9.04302 78.3834 9.24683 78.7938C7.97305 78.7682 6.67381 78.7425 5.40004 78.7169L5.32361 78.7682C4.4065 77.4344 3.54033 76.1006 2.67417 74.7156L2.57227 74.6386C3.0563 73.9205 3.56581 73.2279 4.04984 72.5098C4.48292 73.3049 5.19623 73.8948 5.93502 74.4591C6.08787 75.3825 6.2662 76.3058 6.41905 77.2549L6.44453 77.3318Z" fill="#FF3F6E"/>
<path d="M12.4058 57.1718L12.5841 57.377C12.3039 57.5822 12.0492 57.8386 11.8454 58.1208C11.0301 54.7351 10.5716 51.2468 10.1895 47.7842C11.0811 50.8877 12.1511 53.9656 12.4058 57.1718Z" fill="#273435"/>
<path d="M12.9409 65.944C10.7755 68.9193 8.5846 71.8433 6.34276 74.7417C6.21538 74.6647 6.08801 74.5622 5.96063 74.4596C5.22184 73.9209 4.50853 73.3054 4.07545 72.5102C4.04997 72.4589 4.0245 72.4076 3.99902 72.3563C4.55948 72.0229 4.94161 71.4073 5.27279 70.8174C7.54011 66.7648 8.8903 62.1736 11.6162 58.4032C11.6926 58.3006 11.769 58.198 11.8455 58.1211C12.0747 57.8389 12.304 57.5824 12.5842 57.3772L12.4059 57.172C12.1512 53.9659 11.0812 50.888 10.1896 47.8101C9.52719 45.5017 8.94125 43.1932 8.86483 40.7822C9.88385 41.7825 11.3359 42.2442 12.7371 42.6033C13.6542 42.8342 14.5713 43.0906 15.5139 43.1419C16.6858 43.2189 17.8831 43.0394 19.004 42.629C19.1824 44.9887 18.9531 47.3484 18.7493 49.6825C18.52 51.9909 18.3162 54.2993 17.985 56.5821C17.8831 57.4285 17.7558 58.2749 17.4755 59.0701C17.45 59.1727 17.3991 59.2496 17.3736 59.3522C17.017 60.2243 16.482 60.9938 15.947 61.7632C14.928 63.1996 13.9599 64.5846 12.9409 65.944Z" fill="#273435"/>
<path d="M12.6858 57.5054L10.4695 47.4766C10.4185 47.2971 10.1638 47.3997 10.2147 47.5792L12.4311 57.608C12.4565 57.7619 12.7113 57.685 12.6858 57.5054Z" fill="#121C1C"/>
<path d="M17.0429 59.1213C15.6163 61.2758 14.1897 63.4304 12.7885 65.6105C12.6866 65.7644 12.8904 65.944 12.9923 65.7901C14.4189 63.6355 15.8456 61.481 17.2467 59.3008C17.3486 59.1469 17.1448 58.9674 17.0429 59.1213Z" fill="#121C1C"/>
<path d="M14.8009 43.1423C14.2404 43.8861 13.5271 44.4761 12.6864 44.8865C12.5336 44.9634 12.61 45.2199 12.7883 45.143C13.6545 44.7069 14.4188 44.0913 15.0047 43.2962C15.1066 43.168 14.9028 42.9884 14.8009 43.1423Z" fill="#121C1C"/>
<path d="M13.9602 49.8364C13.2214 47.374 12.1769 45.0143 11.8203 42.4751C11.7948 42.2955 11.5146 42.3212 11.5401 42.5007C12.1515 46.7328 14.6481 50.5289 14.3678 54.8892C14.0876 59.4804 11.4891 63.4561 9.01798 67.1495C7.66779 69.1758 6.29211 71.2021 5.22215 73.4079C5.14572 73.5618 5.40047 73.6901 5.4769 73.5362C7.46398 69.458 10.4446 66.021 12.5081 61.9941C13.4762 60.096 14.2659 58.0441 14.5461 55.9152C14.8264 53.812 14.5462 51.8113 13.9602 49.8364Z" fill="#121C1C"/>
<path d="M12.4059 57.4025C12.1766 57.6334 11.9473 57.8899 11.7181 58.1207C11.5907 58.2489 11.7945 58.4285 11.9219 58.3002C12.1511 58.0694 12.3804 57.8129 12.6097 57.5821C12.7626 57.4538 12.5333 57.2743 12.4059 57.4025Z" fill="#121C1C"/>
<path d="M17.7308 46.0402C16.8646 47.0918 15.9984 48.1434 15.1323 49.1951C15.0304 49.3233 15.2342 49.5285 15.3361 49.3746C16.2022 48.323 17.0684 47.2714 17.9346 46.2198C18.0365 46.0915 17.8327 45.912 17.7308 46.0402Z" fill="#121C1C"/>
<path d="M17.5777 47.7336C16.9663 48.4261 16.3804 49.1186 15.769 49.7855C15.6416 49.9138 15.8709 50.0933 15.9728 49.965C16.5842 49.2725 17.1701 48.58 17.7816 47.9131C17.8835 47.7849 17.6796 47.6053 17.5777 47.7336Z" fill="#121C1C"/>
<path d="M15.8705 63.7384C15.0553 65.0722 14.2401 66.4059 13.4504 67.7397C13.3485 67.8936 13.6032 68.0218 13.7051 67.8679C14.5203 66.5342 15.3355 65.2004 16.1253 63.8667C16.2272 63.7128 15.9724 63.5845 15.8705 63.7384Z" fill="#121C1C"/>
<path d="M16.1259 64.9181C15.3871 66.3288 14.6738 67.7139 13.935 69.1246C13.8586 69.2785 14.1134 69.4067 14.1898 69.2528C14.9286 67.8421 15.6419 66.4571 16.3807 65.0463C16.4571 64.8925 16.2278 64.7642 16.1259 64.9181Z" fill="#121C1C"/>
<path d="M70.4395 71.9209V74.6397H56.9375V71.9209C56.9375 71.9209 59.3067 73.4342 63.6885 73.4342C68.0703 73.4342 70.4395 71.9209 70.4395 71.9209Z" fill="#FFDF77"/>
<path d="M56.9375 71.9209H70.4395C70.4395 71.9209 68.0703 73.4342 63.6885 73.4342C59.3067 73.4342 56.9375 71.9209 56.9375 71.9209Z" fill="#EDC24A"/>
<path d="M70.4395 74.6396V77.3585H56.9375V74.6396C56.9375 74.6396 59.3067 76.1529 63.6885 76.1529C68.0703 76.1529 70.4395 74.6396 70.4395 74.6396Z" fill="#F4B34A"/>
<path d="M56.9375 74.6396H70.4395C70.4395 74.6396 68.0703 76.1529 63.6885 76.1529C59.3067 76.1529 56.9375 74.6396 56.9375 74.6396Z" fill="#EDC24A"/>
<path d="M69.2679 72.4852C69.2679 72.3313 69.5227 72.357 69.4972 72.5109C69.4463 73.2291 69.3953 73.9216 69.3444 74.6398C69.3444 74.7937 69.0896 74.768 69.1151 74.6141C69.1915 73.9216 69.2425 73.2034 69.2679 72.4852Z" fill="#FFEA92"/>
<path d="M67.6622 72.9471C67.6622 72.7932 67.917 72.8189 67.8915 72.9728C67.866 73.5114 67.8405 74.0757 67.8151 74.6143C67.8151 74.7682 67.5603 74.7426 67.5858 74.5887C67.6113 74.0244 67.6367 73.4858 67.6622 72.9471Z" fill="#FFEA92"/>
<path d="M66.2872 73.3827C66.2872 73.2288 66.5165 73.2544 66.5165 73.4083C66.5165 73.7674 66.5165 74.1522 66.491 74.5113C66.491 74.6651 66.2617 74.6395 66.2617 74.4856C66.2617 74.1009 66.2617 73.7418 66.2872 73.3827Z" fill="#FFEA92"/>
<path d="M64.7841 73.5116C64.7841 73.3577 65.0389 73.3834 65.0134 73.5372C65.0134 73.8707 64.9879 74.2298 64.9879 74.5632C64.9879 74.7171 64.7332 74.6915 64.7586 74.5376C64.7586 74.1785 64.7841 73.845 64.7841 73.5116Z" fill="#FFEA92"/>
<path d="M63.5865 73.4851V74.588C63.5865 74.7419 63.3573 74.7162 63.3573 74.5623V73.4594C63.3318 73.3312 63.5865 73.3312 63.5865 73.4851Z" fill="#FFEA92"/>
<path d="M61.7774 73.3827C61.7774 73.2288 62.0067 73.2544 62.0067 73.4083C62.0067 73.7931 61.9812 74.1778 61.9812 74.5626C61.9812 74.7164 61.752 74.6908 61.752 74.5369C61.752 74.1778 61.752 73.7931 61.7774 73.3827Z" fill="#FFEA92"/>
<path d="M60.5554 73.2546C60.5554 73.6906 60.5809 74.101 60.5809 74.537C60.5809 74.6909 60.3516 74.6653 60.3516 74.5114C60.3516 74.0754 60.3262 73.665 60.3262 73.2289C60.3262 73.1007 60.5554 73.1007 60.5554 73.2546Z" fill="#FFEA92"/>
<path d="M59.1287 72.9724C59.1542 73.4597 59.1542 73.947 59.1796 74.4344C59.1796 74.5883 58.9504 74.5626 58.9504 74.4087C58.9249 73.9214 58.9249 73.434 58.8994 72.9467C58.8994 72.8185 59.1287 72.8185 59.1287 72.9724Z" fill="#FFEA92"/>
<path d="M57.8289 72.4083C57.8544 73.1778 57.9053 73.9216 57.9308 74.6911C57.9308 74.845 57.7015 74.8194 57.7015 74.6655C57.6761 73.896 57.6251 73.1522 57.5996 72.3827C57.5742 72.2288 57.8034 72.2544 57.8289 72.4083Z" fill="#FFEA92"/>
<path d="M69.752 75.0761C69.752 74.9222 69.9813 74.9478 69.9813 75.1017L69.9558 77.2049C69.9558 77.3588 69.7266 77.3332 69.7266 77.1793L69.752 75.0761Z" fill="#FFD366"/>
<path d="M68.172 75.6659C68.172 75.512 68.4012 75.5376 68.4012 75.6915C68.4012 76.2302 68.3758 76.7945 68.3758 77.3331C68.3758 77.487 68.1465 77.4613 68.1465 77.3074C68.172 76.7688 68.172 76.2302 68.172 75.6659Z" fill="#FFD366"/>
<path d="M66.6941 76.1535C66.6941 76.5638 66.7196 76.9742 66.7196 77.3846C66.7196 77.5385 66.4903 77.5129 66.4903 77.359C66.4903 76.9486 66.4648 76.5382 66.4648 76.1278C66.4648 75.9739 66.6941 75.9996 66.6941 76.1535Z" fill="#FFD366"/>
<path d="M65.115 76.2814V77.3074C65.115 77.4612 64.8857 77.4356 64.8857 77.2817V76.2557C64.8857 76.1018 65.115 76.1275 65.115 76.2814Z" fill="#FFD366"/>
<path d="M63.6375 76.2814V77.2817C63.6375 77.4356 63.4082 77.41 63.4082 77.2561V76.2557C63.3827 76.1018 63.612 76.1275 63.6375 76.2814Z" fill="#FFD366"/>
<path d="M62.3133 76.1784V77.1787C62.3133 77.3326 62.084 77.307 62.084 77.1531C62.084 76.8196 62.084 76.4862 62.084 76.1528C62.0585 76.0245 62.2878 76.0245 62.3133 76.1784Z" fill="#FFD366"/>
<path d="M60.6573 76.1532C60.6573 75.9993 60.8866 76.025 60.8866 76.1788L60.8611 77.3074C60.8611 77.4613 60.6318 77.4357 60.6318 77.2818L60.6573 76.1532Z" fill="#FFD366"/>
<path d="M59.2049 75.6144C59.2049 76.1274 59.2303 76.6404 59.2303 77.1533C59.2303 77.3072 59.0011 77.2816 59.0011 77.1277C59.0011 76.6147 58.9756 76.1017 58.9756 75.5887C58.9756 75.4349 59.2049 75.4605 59.2049 75.6144Z" fill="#FFD366"/>
<path d="M57.574 75.0753L57.7778 77.2812C57.8033 77.4351 57.5485 77.4864 57.5485 77.3325C57.4721 76.5886 57.4212 75.8448 57.3447 75.1266C57.3447 74.9727 57.574 74.9214 57.574 75.0753Z" fill="#FFD366"/>
<path d="M55.8164 66.457V69.1758H69.3184V66.457C69.3184 66.457 66.9492 67.9703 62.5674 67.9703C58.1856 67.9703 55.8164 66.457 55.8164 66.457Z" fill="#FFDF77"/>
<path d="M69.3184 66.457H55.8164C55.8164 66.457 58.1856 67.9703 62.5674 67.9703C66.9492 67.9703 69.3184 66.457 69.3184 66.457Z" fill="#EDC24A"/>
<path d="M55.8164 69.1758V71.8946H69.3184V69.1758C69.3184 69.1758 66.9492 70.6891 62.5674 70.6891C58.1856 70.6891 55.8164 69.1758 55.8164 69.1758Z" fill="#F4B34A"/>
<path d="M69.3184 69.1758H55.8164C55.8164 69.1758 58.1856 70.6891 62.5674 70.6891C66.9492 70.6891 69.3184 69.1758 69.3184 69.1758Z" fill="#EDC24A"/>
<path d="M56.9879 67.0214C56.9879 66.8675 56.7332 66.8931 56.7586 67.047C56.8096 67.7652 56.8605 68.4577 56.9115 69.1759C56.9115 69.3298 57.1662 69.3041 57.1408 69.1502C57.0898 68.4577 57.0389 67.7395 56.9879 67.0214Z" fill="#FFEA92"/>
<path d="M58.5934 67.4833C58.5934 67.3294 58.3386 67.355 58.3641 67.5089C58.3896 68.0476 58.415 68.6118 58.4405 69.1505C58.4405 69.3044 58.6953 69.2787 58.6698 69.1248C58.6443 68.5862 58.6188 68.0219 58.5934 67.4833Z" fill="#FFEA92"/>
<path d="M59.9939 67.9188C59.9939 67.7649 59.7646 67.7906 59.7646 67.9445C59.7646 68.3036 59.7646 68.6883 59.7901 69.0474C59.7901 69.2013 60.0194 69.1756 60.0194 69.0217C59.9939 68.637 59.9939 68.2779 59.9939 67.9188Z" fill="#FFEA92"/>
<path d="M61.4723 68.0468C61.4723 67.8929 61.2175 67.9185 61.243 68.0724C61.243 68.4058 61.2685 68.7649 61.2685 69.0984C61.2685 69.2523 61.5232 69.2266 61.4978 69.0727C61.4978 68.7393 61.4978 68.3802 61.4723 68.0468Z" fill="#FFEA92"/>
<path d="M62.6943 68.047V69.1499C62.6943 69.3038 62.9236 69.2782 62.9236 69.1243V68.0214C62.9236 67.8675 62.6943 67.8931 62.6943 68.047Z" fill="#FFEA92"/>
<path d="M64.5037 67.9442C64.5037 67.7903 64.2744 67.816 64.2744 67.9699C64.2744 68.3546 64.2999 68.7393 64.2999 69.1241C64.2999 69.278 64.5292 69.2523 64.5292 69.0984C64.5037 68.7137 64.5037 68.329 64.5037 67.9442Z" fill="#FFEA92"/>
<path d="M65.7013 67.8165C65.7013 68.2526 65.6758 68.663 65.6758 69.099C65.6758 69.2529 65.9051 69.2272 65.9051 69.0734C65.9051 68.6373 65.9305 68.2269 65.9305 67.7909C65.956 67.637 65.7013 67.6626 65.7013 67.8165Z" fill="#FFEA92"/>
<path d="M67.1271 67.5343C67.1017 68.0216 67.1016 68.509 67.0762 68.9963C67.0762 69.1502 67.3055 69.1246 67.3055 68.9707C67.3309 68.4833 67.3309 67.996 67.3564 67.5087C67.3819 67.3548 67.1271 67.3804 67.1271 67.5343Z" fill="#FFEA92"/>
<path d="M68.4525 66.9445C68.427 67.7139 68.3761 68.4578 68.3506 69.2272C68.3506 69.3811 68.5799 69.3555 68.5799 69.2016C68.6053 68.4321 68.6563 67.6883 68.6818 66.9188C68.6818 66.7649 68.4525 66.7906 68.4525 66.9445Z" fill="#FFEA92"/>
<path d="M56.5047 69.6122C56.5047 69.4583 56.2754 69.4839 56.2754 69.6378L56.3009 71.7411C56.3009 71.895 56.5301 71.8693 56.5301 71.7154L56.5047 69.6122Z" fill="#FFD366"/>
<path d="M58.0838 70.2274C58.0838 70.0735 57.8545 70.0992 57.8545 70.2531C57.8545 70.7917 57.88 71.356 57.88 71.8946C57.88 72.0485 58.1092 72.0229 58.1092 71.869C58.1092 71.3047 58.0838 70.766 58.0838 70.2274Z" fill="#FFD366"/>
<path d="M59.5616 70.6886C59.5616 71.099 59.5361 71.5094 59.5361 71.9198C59.5361 72.0737 59.7654 72.048 59.7654 71.8941C59.7654 71.4837 59.7909 71.0734 59.7909 70.663C59.8164 70.5091 59.5871 70.5347 59.5616 70.6886Z" fill="#FFD366"/>
<path d="M61.1406 70.8175V71.8435C61.1406 71.9974 61.3699 71.9717 61.3699 71.8178V70.7919C61.3954 70.638 61.1406 70.6636 61.1406 70.8175Z" fill="#FFD366"/>
<path d="M62.6436 70.8175V71.8178C62.6436 71.9717 62.8728 71.9461 62.8728 71.7922V70.7919C62.8728 70.638 62.6436 70.6636 62.6436 70.8175Z" fill="#FFD366"/>
<path d="M63.9688 70.7404V71.7407C63.9688 71.8946 64.198 71.8689 64.198 71.715C64.198 71.3816 64.198 71.0482 64.198 70.7147C64.198 70.5608 63.9688 70.5865 63.9688 70.7404Z" fill="#FFD366"/>
<path d="M65.5994 70.6893C65.5994 70.5354 65.3701 70.5611 65.3701 70.715L65.3956 71.8435C65.3956 71.9974 65.6249 71.9718 65.6249 71.8179L65.5994 70.6893Z" fill="#FFD366"/>
<path d="M67.0509 70.1505C67.0509 70.6635 67.0254 71.1765 67.0254 71.6895C67.0254 71.8434 67.2547 71.8177 67.2547 71.6638C67.2547 71.1508 67.2801 70.6379 67.2801 70.1249C67.3056 69.971 67.0509 69.9966 67.0509 70.1505Z" fill="#FFD366"/>
<path d="M68.6812 69.6115L68.4774 71.8173C68.4519 71.9712 68.7067 72.0225 68.7067 71.8686C68.7831 71.1248 68.834 70.381 68.9105 69.6628C68.9359 69.5089 68.7067 69.4576 68.6812 69.6115Z" fill="#FFD366"/>
<path d="M67.1016 66.4313C64.07 67.5855 60.6817 67.5855 57.6502 66.4056C57.4973 66.3543 57.3954 66.5595 57.5483 66.6108C60.6308 67.8163 64.07 67.842 67.178 66.6621C67.3308 66.6108 67.2544 66.38 67.1016 66.4313Z" fill="#FFD366"/>
<path d="M56.1221 44.707V47.4258H69.624V44.707C69.624 44.707 67.2548 46.2203 62.8731 46.2203C58.4913 46.2203 56.1221 44.707 56.1221 44.707Z" fill="#FFDF77"/>
<path d="M69.624 44.707H56.1221C56.1221 44.707 58.4913 46.2203 62.8731 46.2203C67.2548 46.2203 69.624 44.707 69.624 44.707Z" fill="#EDC24A"/>
<path d="M56.1221 47.4258V50.1446H69.624V47.4258C69.624 47.4258 67.2548 48.9391 62.8731 48.9391C58.4913 48.9391 56.1221 47.4258 56.1221 47.4258Z" fill="#F4B34A"/>
<path d="M69.624 47.4258H56.1221C56.1221 47.4258 58.4913 48.9391 62.8731 48.9391C67.2548 48.9391 69.624 47.4258 69.624 47.4258Z" fill="#EDC24A"/>
<path d="M57.2936 45.2714C57.2936 45.1175 57.0388 45.1431 57.0643 45.297C57.1152 46.0152 57.1662 46.7077 57.2171 47.4259C57.2171 47.5798 57.4719 47.5541 57.4464 47.4002C57.3955 46.6821 57.3445 45.9895 57.2936 45.2714Z" fill="#FFEA92"/>
<path d="M58.899 45.7069C58.899 45.553 58.6443 45.5787 58.6698 45.7326C58.6952 46.2712 58.7207 46.8355 58.7462 47.3741C58.7462 47.528 59.0009 47.5024 58.9755 47.3485C58.95 46.8098 58.9245 46.2712 58.899 45.7069Z" fill="#FFEA92"/>
<path d="M60.2996 46.1434C60.2996 45.9895 60.0703 46.0152 60.0703 46.1691C60.0703 46.5282 60.0703 46.9129 60.0958 47.272C60.0958 47.4259 60.3251 47.4002 60.3251 47.2463C60.2996 46.8873 60.2996 46.5282 60.2996 46.1434Z" fill="#FFEA92"/>
<path d="M61.7779 46.2714C61.7779 46.1175 61.5232 46.1431 61.5487 46.297C61.5487 46.6305 61.5741 46.9895 61.5741 47.323C61.5741 47.4769 61.8289 47.4512 61.8034 47.2973C61.8034 46.9639 61.8034 46.6305 61.7779 46.2714Z" fill="#FFEA92"/>
<path d="M63 46.2716V47.3745C63 47.5284 63.2293 47.5028 63.2293 47.3489V46.246C63.2293 46.0921 63 46.1177 63 46.2716Z" fill="#FFEA92"/>
<path d="M64.8094 46.1688C64.8094 46.0149 64.5801 46.0406 64.5801 46.1945C64.5801 46.5792 64.6056 46.9639 64.6056 47.3487C64.6056 47.5026 64.8348 47.4769 64.8348 47.323C64.8094 46.9383 64.8094 46.5536 64.8094 46.1688Z" fill="#FFEA92"/>
<path d="M66.0069 46.0412C66.0069 46.4772 65.9814 46.8876 65.9814 47.3236C65.9814 47.4775 66.2107 47.4519 66.2107 47.298C66.2107 46.8619 66.2362 46.4515 66.2362 46.0155C66.2617 45.8616 66.0069 45.8873 66.0069 46.0412Z" fill="#FFEA92"/>
<path d="M67.4328 45.7589C67.4073 46.2463 67.4073 46.7336 67.3818 47.2209C67.3818 47.3748 67.6111 47.3492 67.6111 47.1953C67.6366 46.7079 67.6366 46.2206 67.6621 45.7333C67.6621 45.5794 67.4328 45.605 67.4328 45.7589Z" fill="#FFEA92"/>
<path d="M68.7582 45.1687C68.7327 45.9381 68.6817 46.6819 68.6562 47.4514C68.6562 47.6053 68.8855 47.5797 68.8855 47.4258C68.911 46.6563 68.962 45.9125 68.9874 45.143C68.9874 45.0148 68.7582 45.0148 68.7582 45.1687Z" fill="#FFEA92"/>
<path d="M56.8103 47.8622C56.8103 47.7083 56.5811 47.7339 56.5811 47.8878L56.6065 49.9911C56.6065 50.145 56.8358 50.1193 56.8358 49.9654L56.8103 47.8622Z" fill="#FFD366"/>
<path d="M58.3894 48.452C58.3894 48.2981 58.1602 48.3238 58.1602 48.4777C58.1602 49.0163 58.1856 49.5806 58.1856 50.1192C58.1856 50.2731 58.4149 50.2475 58.4149 50.0936C58.4149 49.5549 58.3894 48.9907 58.3894 48.452Z" fill="#FFD366"/>
<path d="M59.8673 48.9138C59.8673 49.3242 59.8418 49.7345 59.8418 50.1449C59.8418 50.2988 60.0711 50.2732 60.0711 50.1193C60.0711 49.7089 60.0966 49.2985 60.0966 48.8881C60.122 48.7599 59.8673 48.7599 59.8673 48.9138Z" fill="#FFD366"/>
<path d="M61.4463 49.0417V50.0677C61.4463 50.2216 61.6756 50.1959 61.6756 50.042V49.016C61.701 48.8878 61.4463 48.8878 61.4463 49.0417Z" fill="#FFD366"/>
<path d="M62.9492 49.0417V50.042C62.9492 50.1959 63.1785 50.1703 63.1785 50.0164V49.016C63.1785 48.8878 62.9492 48.8878 62.9492 49.0417Z" fill="#FFD366"/>
<path d="M64.2744 48.965V49.9653C64.2744 50.1192 64.5037 50.0935 64.5037 49.9396C64.5037 49.6062 64.5037 49.2728 64.5037 48.9393C64.5037 48.7854 64.2744 48.8111 64.2744 48.965Z" fill="#FFD366"/>
<path d="M65.9051 48.9393C65.9051 48.7854 65.6758 48.8111 65.6758 48.965L65.7013 50.0935C65.7013 50.2474 65.9305 50.2218 65.9305 50.0679L65.9051 48.9393Z" fill="#FFD366"/>
<path d="M67.3565 48.3747C67.3565 48.8877 67.3311 49.4007 67.3311 49.9137C67.3311 50.0675 67.5603 50.0419 67.5603 49.888C67.5603 49.375 67.5858 48.862 67.5858 48.3491C67.6113 48.2208 67.3565 48.2208 67.3565 48.3747Z" fill="#FFD366"/>
<path d="M68.9868 47.8615L68.783 50.0673C68.7576 50.2212 69.0123 50.2725 69.0123 50.1186C69.0887 49.3748 69.1397 48.6309 69.2161 47.9128C69.2416 47.7589 68.9868 47.7076 68.9868 47.8615Z" fill="#FFD366"/>
<path d="M67.4072 44.6813C64.3756 45.8355 60.9874 45.8355 57.9558 44.6556C57.803 44.6043 57.7011 44.8095 57.8539 44.8608C60.9365 46.0663 64.3756 46.092 67.4836 44.9121C67.611 44.8352 67.5346 44.6043 67.4072 44.6813Z" fill="#FFD366"/>
<path d="M69.0381 50.2217V52.9405H55.5361V50.2217C55.5361 50.2217 57.9053 51.735 62.2871 51.735C66.6689 51.735 69.0381 50.2217 69.0381 50.2217Z" fill="#FFDF77"/>
<path d="M55.5107 50.2217H69.0127C69.0127 50.2217 66.6435 51.735 62.2617 51.735C57.88 51.735 55.5107 50.2217 55.5107 50.2217Z" fill="#EDC24A"/>
<path d="M69.0381 52.9404V55.6592H55.5361V52.9404C55.5361 52.9404 57.9053 54.4537 62.2871 54.4537C66.6689 54.4537 69.0381 52.9404 69.0381 52.9404Z" fill="#F4B34A"/>
<path d="M55.5107 52.9404H69.0127C69.0127 52.9404 66.6435 54.4537 62.2617 54.4537C57.88 54.4537 55.5107 52.9404 55.5107 52.9404Z" fill="#EDC24A"/>
<path d="M67.8666 50.786C67.8666 50.6321 68.1213 50.6578 68.0958 50.8117C68.0449 51.5298 67.9939 52.2224 67.943 52.9405C67.943 53.0944 67.6882 53.0688 67.7137 52.9149C67.7647 52.1967 67.8156 51.4785 67.8666 50.786Z" fill="#FFEA92"/>
<path d="M66.2354 51.2216C66.2354 51.0677 66.4902 51.0933 66.4647 51.2472C66.4392 51.7858 66.4138 52.3501 66.3883 52.8888C66.3883 53.0426 66.1335 53.017 66.159 52.8631C66.21 52.3245 66.2354 51.7858 66.2354 51.2216Z" fill="#FFEA92"/>
<path d="M64.8604 51.6581C64.8604 51.5042 65.0897 51.5298 65.0897 51.6837C65.0897 52.0428 65.0897 52.4276 65.0642 52.7866C65.0642 52.9405 64.835 52.9149 64.835 52.761C64.8604 52.4019 64.8604 52.0172 64.8604 51.6581Z" fill="#FFEA92"/>
<path d="M63.3573 51.786C63.3573 51.6321 63.6121 51.6578 63.5866 51.8117C63.5866 52.1451 63.5611 52.5042 63.5611 52.8376C63.5611 52.9915 63.3064 52.9659 63.3319 52.812C63.3573 52.4785 63.3573 52.1451 63.3573 51.786Z" fill="#FFEA92"/>
<path d="M62.1598 51.7863V52.8892C62.1598 53.0431 61.9305 53.0174 61.9305 52.8635V51.7606C61.905 51.6067 62.1598 51.6324 62.1598 51.7863Z" fill="#FFEA92"/>
<path d="M60.3507 51.6835C60.3507 51.5296 60.5799 51.5552 60.5799 51.7091C60.5799 52.0939 60.5545 52.4786 60.5545 52.8633C60.5545 53.0172 60.3252 52.9916 60.3252 52.8377C60.3252 52.4529 60.3507 52.0682 60.3507 51.6835Z" fill="#FFEA92"/>
<path d="M59.1287 51.5558C59.1287 51.9918 59.1542 52.4022 59.1542 52.8383C59.1542 52.9922 58.9249 52.9665 58.9249 52.8126C58.9249 52.3766 58.8994 51.9662 58.8994 51.5302C58.8994 51.3763 59.1287 51.4019 59.1287 51.5558Z" fill="#FFEA92"/>
<path d="M57.7273 51.2736C57.7528 51.7609 57.7528 52.2482 57.7783 52.7356C57.7783 52.8895 57.549 52.8638 57.549 52.7099C57.5235 52.2226 57.5235 51.7353 57.4981 51.2479C57.4726 51.094 57.7019 51.1197 57.7273 51.2736Z" fill="#FFEA92"/>
<path d="M56.402 50.6833C56.4274 51.4528 56.4784 52.1966 56.5039 52.9661C56.5039 53.12 56.2746 53.0943 56.2746 52.9404C56.2491 52.1709 56.1982 51.4271 56.1727 50.6576C56.1472 50.5294 56.402 50.5294 56.402 50.6833Z" fill="#FFEA92"/>
<path d="M68.3253 53.3768C68.3253 53.2229 68.5546 53.2486 68.5546 53.4025L68.5291 55.5057C68.5291 55.6596 68.2998 55.634 68.2998 55.4801L68.3253 53.3768Z" fill="#FFD366"/>
<path d="M66.7706 53.9667C66.7706 53.8128 66.9999 53.8384 66.9999 53.9923C66.9999 54.531 66.9744 55.0952 66.9744 55.6339C66.9744 55.7878 66.7451 55.7621 66.7451 55.6082C66.7451 55.0696 66.7451 54.5053 66.7706 53.9667Z" fill="#FFD366"/>
<path d="M65.2674 54.4284C65.2674 54.8388 65.2928 55.2492 65.2928 55.6596C65.2928 55.8135 65.0636 55.7878 65.0636 55.6339C65.0636 55.2235 65.0381 54.8132 65.0381 54.4028C65.0381 54.2745 65.2674 54.2745 65.2674 54.4284Z" fill="#FFD366"/>
<path d="M63.6883 54.5563V55.5823C63.6883 55.7362 63.459 55.7106 63.459 55.5567V54.5307C63.459 54.4025 63.6883 54.4025 63.6883 54.5563Z" fill="#FFD366"/>
<path d="M62.2106 54.5563V55.5567C62.2106 55.7106 61.9813 55.6849 61.9813 55.531V54.5307C61.9558 54.4025 62.2106 54.4025 62.2106 54.5563Z" fill="#FFD366"/>
<path d="M60.8863 54.4796V55.4799C60.8863 55.6338 60.6571 55.6082 60.6571 55.4543C60.6571 55.1209 60.6571 54.7874 60.6571 54.454C60.6316 54.3001 60.8863 54.3257 60.8863 54.4796Z" fill="#FFD366"/>
<path d="M59.2306 54.4286C59.2306 54.2747 59.4598 54.3003 59.4598 54.4542L59.4344 55.5828C59.4344 55.7367 59.2051 55.711 59.2051 55.5572L59.2306 54.4286Z" fill="#FFD366"/>
<path d="M57.7781 53.8894C57.7781 54.4023 57.8036 54.9153 57.8036 55.4283C57.8036 55.5822 57.5743 55.5565 57.5743 55.4027C57.5743 54.8897 57.5488 54.3767 57.5488 53.8637C57.5488 53.7355 57.7781 53.7355 57.7781 53.8894Z" fill="#FFD366"/>
<path d="M56.1727 53.3761L56.3765 55.5819C56.4019 55.7358 56.1472 55.7871 56.1472 55.6332C56.0708 54.8894 56.0198 54.1456 55.9434 53.4274C55.9179 53.2735 56.1472 53.2222 56.1727 53.3761Z" fill="#FFD366"/>
<path d="M57.4717 55.5566V58.2754H70.9737V55.5566C70.9737 55.5566 68.6044 57.0699 64.2227 57.0699C59.8409 57.0699 57.4717 55.5566 57.4717 55.5566Z" fill="#FFDF77"/>
<path d="M70.999 55.5566H57.4971C57.4971 55.5566 59.8663 57.0699 64.2481 57.0699C68.6298 57.0699 70.999 55.5566 70.999 55.5566Z" fill="#EDC24A"/>
<path d="M57.4717 58.2754V60.9942H70.9737V58.2754C70.9737 58.2754 68.6044 59.7887 64.2227 59.7887C59.8409 59.7887 57.4717 58.2754 57.4717 58.2754Z" fill="#F4B34A"/>
<path d="M70.999 58.2754H57.4971C57.4971 58.2754 59.8663 59.7887 64.2481 59.7887C68.6298 59.7887 70.999 58.2754 70.999 58.2754Z" fill="#EDC24A"/>
<path d="M58.6686 56.121C58.6686 55.9671 58.4138 55.9927 58.4393 56.1466C58.4902 56.8648 58.5412 57.5573 58.5921 58.2755C58.5921 58.4294 58.8469 58.4037 58.8214 58.2499C58.745 57.5573 58.694 56.8391 58.6686 56.121Z" fill="#FFEA92"/>
<path d="M60.274 56.5829C60.274 56.429 60.0193 56.4546 60.0448 56.6085C60.0702 57.1472 60.0957 57.7115 60.1212 58.2501C60.1212 58.404 60.3759 58.3783 60.3505 58.2244C60.2995 57.6858 60.2995 57.1215 60.274 56.5829Z" fill="#FFEA92"/>
<path d="M61.6492 57.0184C61.6492 56.8645 61.4199 56.8902 61.4199 57.0441C61.4199 57.4032 61.4199 57.7879 61.4454 58.147C61.4454 58.3009 61.6747 58.2752 61.6747 58.1213C61.6747 57.7366 61.6492 57.3775 61.6492 57.0184Z" fill="#FFEA92"/>
<path d="M63.1529 57.1473C63.1529 56.9934 62.8982 57.0191 62.9237 57.173C62.9237 57.5064 62.9491 57.8655 62.9491 58.199C62.9491 58.3528 63.2039 58.3272 63.1784 58.1733C63.1784 57.8399 63.1529 57.4808 63.1529 57.1473Z" fill="#FFEA92"/>
<path d="M64.3496 57.1466V58.2495C64.3496 58.4034 64.5789 58.3778 64.5789 58.2239V57.121C64.6044 56.9671 64.3496 56.9927 64.3496 57.1466Z" fill="#FFEA92"/>
<path d="M66.159 57.0438C66.159 56.8899 65.9297 56.9156 65.9297 57.0695C65.9297 57.4542 65.9552 57.8389 65.9552 58.2237C65.9552 58.3776 66.1844 58.3519 66.1844 58.198C66.1844 57.8133 66.1844 57.4286 66.159 57.0438Z" fill="#FFEA92"/>
<path d="M67.3819 56.9162C67.3819 57.3522 67.3564 57.7626 67.3564 58.1986C67.3564 58.3525 67.5857 58.3269 67.5857 58.173C67.5857 57.7369 67.6112 57.3265 67.6112 56.8905C67.6112 56.7366 67.3819 56.7623 67.3819 56.9162Z" fill="#FFEA92"/>
<path d="M68.8078 56.6339C68.7823 57.1213 68.7823 57.6086 68.7568 58.0959C68.7568 58.2498 68.9861 58.2242 68.9861 58.0703C69.0116 57.5829 69.0116 57.0956 69.0371 56.6083C69.0371 56.4544 68.8078 56.48 68.8078 56.6339Z" fill="#FFEA92"/>
<path d="M70.1078 56.0441C70.0823 56.8136 70.0313 57.5574 70.0059 58.3269C70.0059 58.4808 70.2351 58.4551 70.2351 58.3012C70.2606 57.5317 70.3116 56.7879 70.337 56.0184C70.3625 55.8645 70.1332 55.8902 70.1078 56.0441Z" fill="#FFEA92"/>
<path d="M58.1853 58.7118C58.1853 58.5579 57.9561 58.5835 57.9561 58.7374L57.9815 60.8407C57.9815 60.9946 58.2108 60.9689 58.2108 60.815L58.1853 58.7118Z" fill="#FFD366"/>
<path d="M59.7644 59.327C59.7644 59.1731 59.5352 59.1988 59.5352 59.3527C59.5352 59.8913 59.5606 60.4556 59.5606 60.9942C59.5606 61.1481 59.7899 61.1225 59.7899 60.9686C59.7644 60.4043 59.7644 59.8657 59.7644 59.327Z" fill="#FFD366"/>
<path d="M61.2423 59.7892C61.2423 60.1996 61.2168 60.61 61.2168 61.0204C61.2168 61.1743 61.4461 61.1486 61.4461 60.9947C61.4461 60.5843 61.4716 60.1739 61.4716 59.7636C61.4716 59.6097 61.2423 59.6353 61.2423 59.7892Z" fill="#FFD366"/>
<path d="M62.8213 59.9171V60.9431C62.8213 61.097 63.0506 61.0713 63.0506 60.9174V59.8915C63.0506 59.7376 62.8213 59.7632 62.8213 59.9171Z" fill="#FFD366"/>
<path d="M64.2988 59.9171V60.9174C64.2988 61.0713 64.5281 61.0457 64.5281 60.8918V59.8915C64.5536 59.7376 64.2988 59.7632 64.2988 59.9171Z" fill="#FFD366"/>
<path d="M65.624 59.84V60.8403C65.624 60.9942 65.8533 60.9685 65.8533 60.8147C65.8533 60.4812 65.8533 60.1478 65.8533 59.8143C65.8788 59.6604 65.624 59.6861 65.624 59.84Z" fill="#FFD366"/>
<path d="M67.2801 59.7889C67.2801 59.635 67.0508 59.6607 67.0508 59.8146L67.0763 60.9432C67.0763 61.097 67.3055 61.0714 67.3055 60.9175L67.2801 59.7889Z" fill="#FFD366"/>
<path d="M68.7315 59.2501C68.7315 59.7631 68.7061 60.2761 68.7061 60.7891C68.7061 60.943 68.9353 60.9173 68.9353 60.7634C68.9353 60.2505 68.9608 59.7375 68.9608 59.2245C68.9608 59.0706 68.7315 59.0962 68.7315 59.2501Z" fill="#FFD366"/>
<path d="M70.3618 58.7368L70.158 60.9426C70.1326 61.0965 70.3873 61.1478 70.3873 60.9939C70.4637 60.2501 70.5147 59.5063 70.5911 58.7881C70.5911 58.6085 70.3618 58.5829 70.3618 58.7368Z" fill="#FFD366"/>
<path d="M69.1397 60.9941V63.7129H55.6377V60.9941C55.6377 60.9941 58.0069 62.5074 62.3887 62.5074C66.7705 62.5074 69.1397 60.9941 69.1397 60.9941Z" fill="#FFDF77"/>
<path d="M55.6377 60.9941H69.1397C69.1397 60.9941 66.7705 62.5074 62.3887 62.5074C58.0069 62.5074 55.6377 60.9941 55.6377 60.9941Z" fill="#EDC24A"/>
<path d="M69.1397 63.7129V66.4317H55.6377V63.7129C55.6377 63.7129 58.0069 65.2262 62.3887 65.2262C66.7705 65.2262 69.1397 63.7129 69.1397 63.7129Z" fill="#F4B34A"/>
<path d="M55.6377 63.7129H69.1397C69.1397 63.7129 66.7705 65.2262 62.3887 65.2262C58.0069 65.2262 55.6377 63.7129 55.6377 63.7129Z" fill="#EDC24A"/>
<path d="M67.9681 61.5585C67.9681 61.4046 68.2229 61.4302 68.1974 61.5841C68.1464 62.3023 68.0955 62.9948 68.0445 63.713C68.0445 63.8669 67.7898 63.8412 67.8153 63.6874C67.8917 62.9948 67.9172 62.2766 67.9681 61.5585Z" fill="#FFEA92"/>
<path d="M66.3624 62.0204C66.3624 61.8665 66.6171 61.8921 66.5917 62.046C66.5662 62.5847 66.5407 63.149 66.5152 63.6876C66.5152 63.8415 66.2605 63.8158 66.286 63.6619C66.3114 63.0977 66.3369 62.559 66.3624 62.0204Z" fill="#FFEA92"/>
<path d="M64.9874 62.4559C64.9874 62.302 65.2167 62.3277 65.2167 62.4816C65.2167 62.8407 65.2167 63.2254 65.1912 63.5845C65.1912 63.7384 64.9619 63.7127 64.9619 63.5588C64.9619 63.1741 64.9619 62.815 64.9874 62.4559Z" fill="#FFEA92"/>
<path d="M63.4843 62.5848C63.4843 62.4309 63.7391 62.4566 63.7136 62.6105C63.7136 62.9439 63.6881 63.303 63.6881 63.6365C63.6881 63.7904 63.4333 63.7647 63.4588 63.6108C63.4588 63.2517 63.4843 62.9183 63.4843 62.5848Z" fill="#FFEA92"/>
<path d="M62.2867 62.5583V63.6612C62.2867 63.8151 62.0575 63.7895 62.0575 63.6356V62.5327C62.032 62.4044 62.2867 62.4044 62.2867 62.5583Z" fill="#FFEA92"/>
<path d="M60.4776 62.4559C60.4776 62.302 60.7069 62.3277 60.7069 62.4816C60.7069 62.8663 60.6814 63.2511 60.6814 63.6358C60.6814 63.7897 60.4521 63.764 60.4521 63.6101C60.4521 63.2511 60.4521 62.8407 60.4776 62.4559Z" fill="#FFEA92"/>
<path d="M59.2556 62.3283C59.2556 62.7643 59.2811 63.1747 59.2811 63.6107C59.2811 63.7646 59.0518 63.739 59.0518 63.5851C59.0518 63.149 59.0264 62.7386 59.0264 62.3026C59.0264 62.1487 59.2556 62.1744 59.2556 62.3283Z" fill="#FFEA92"/>
<path d="M57.8289 62.0456C57.8544 62.5329 57.8544 63.0203 57.8798 63.5076C57.8798 63.6615 57.6506 63.6359 57.6506 63.482C57.6251 62.9946 57.6251 62.5073 57.5996 62.02C57.5996 61.8917 57.8289 61.8917 57.8289 62.0456Z" fill="#FFEA92"/>
<path d="M56.5291 61.4816C56.5546 62.2511 56.6055 62.9949 56.631 63.7644C56.631 63.9183 56.4017 63.8926 56.4017 63.7387C56.3762 62.9692 56.3253 62.2254 56.2998 61.4559C56.2743 61.302 56.5036 61.3277 56.5291 61.4816Z" fill="#FFEA92"/>
<path d="M68.4522 64.1493C68.4522 63.9954 68.6815 64.021 68.6815 64.1749L68.656 66.2782C68.656 66.4321 68.4268 66.4064 68.4268 66.2525L68.4522 64.1493Z" fill="#FFD366"/>
<path d="M66.8722 64.7391C66.8722 64.5852 67.1014 64.6109 67.1014 64.7648C67.1014 65.3034 67.076 65.8677 67.076 66.4063C67.076 66.5602 66.8467 66.5346 66.8467 66.3807C66.8722 65.842 66.8722 65.3034 66.8722 64.7391Z" fill="#FFD366"/>
<path d="M65.3943 65.2267C65.3943 65.6371 65.4198 66.0475 65.4198 66.4579C65.4198 66.6118 65.1905 66.5861 65.1905 66.4322C65.1905 66.0218 65.165 65.6114 65.165 65.2011C65.165 65.0472 65.3943 65.0728 65.3943 65.2267Z" fill="#FFD366"/>
<path d="M63.8152 65.3546V66.3806C63.8152 66.5345 63.5859 66.5088 63.5859 66.3549V65.329C63.5859 65.1751 63.8152 65.2007 63.8152 65.3546Z" fill="#FFD366"/>
<path d="M62.3377 65.3546V66.3549C62.3377 66.5088 62.1084 66.4832 62.1084 66.3293V65.329C62.0829 65.1751 62.3122 65.2007 62.3377 65.3546Z" fill="#FFD366"/>
<path d="M60.9871 65.2517V66.252C60.9871 66.4059 60.7578 66.3802 60.7578 66.2263C60.7578 65.8929 60.7578 65.5594 60.7578 65.226C60.7578 65.0978 60.9871 65.0978 60.9871 65.2517Z" fill="#FFD366"/>
<path d="M59.3575 65.2264C59.3575 65.0725 59.5868 65.0982 59.5868 65.2521L59.5613 66.3807C59.5613 66.5345 59.332 66.5089 59.332 66.355L59.3575 65.2264Z" fill="#FFD366"/>
<path d="M57.9051 64.6876C57.9051 65.2006 57.9305 65.7136 57.9305 66.2266C57.9305 66.3805 57.7013 66.3548 57.7013 66.2009C57.7013 65.688 57.6758 65.175 57.6758 64.662C57.6758 64.5081 57.9051 64.5337 57.9051 64.6876Z" fill="#FFD366"/>
<path d="M56.2742 64.1486L56.478 66.3544C56.5035 66.5083 56.2487 66.5596 56.2487 66.4057C56.1723 65.6619 56.1213 64.9181 56.0449 64.1999C56.0449 64.046 56.2742 63.9947 56.2742 64.1486Z" fill="#FFD366"/>
<path opacity="0.52" d="M61.2678 61.0713C61.2678 61.0713 62.7199 76.2299 65.7515 77.3585H59.1533L61.2678 61.0713Z" fill="#281F1B"/>
<path d="M61.9815 74.7158V77.4346H48.4795V74.7158C48.4795 74.7158 50.8487 76.2291 55.2305 76.2291C59.6123 76.2291 61.9815 74.7158 61.9815 74.7158Z" fill="#FFDF77"/>
<path d="M48.4795 74.7158H61.9815C61.9815 74.7158 59.6123 76.2291 55.2305 76.2291C50.8487 76.2291 48.4795 74.7158 48.4795 74.7158Z" fill="#EDC24A"/>
<path d="M59.2042 75.7167C59.2042 75.5628 59.4589 75.5884 59.4335 75.7423C59.408 76.281 59.3825 76.8452 59.357 77.3839C59.357 77.5378 59.1023 77.5121 59.1278 77.3582C59.1532 76.8196 59.1787 76.281 59.2042 75.7167Z" fill="#FFEA92"/>
<path d="M57.8292 76.1522C57.8292 75.9983 58.0585 76.024 58.0585 76.1779C58.0585 76.537 58.0585 76.9217 58.033 77.2808C58.033 77.4347 57.8037 77.409 57.8037 77.2551C57.8037 76.8961 57.8037 76.5113 57.8292 76.1522Z" fill="#FFEA92"/>
<path d="M56.3261 76.2811C56.3261 76.1272 56.5808 76.1529 56.5554 76.3068C56.5554 76.6402 56.5299 76.9993 56.5299 77.3327C56.5299 77.4866 56.2751 77.461 56.3006 77.3071C56.3006 76.9737 56.3261 76.6402 56.3261 76.2811Z" fill="#FFEA92"/>
<path d="M55.1285 76.2804V77.3833C55.1285 77.5372 54.8993 77.5116 54.8993 77.3577V76.2548C54.8738 76.1009 55.1285 76.1265 55.1285 76.2804Z" fill="#FFEA92"/>
<path d="M53.3194 76.1776C53.3194 76.0237 53.5487 76.0494 53.5487 76.2033C53.5487 76.588 53.5232 76.9727 53.5232 77.3575C53.5232 77.5114 53.2939 77.4857 53.2939 77.3318C53.2939 76.9471 53.2939 76.5623 53.3194 76.1776Z" fill="#FFEA92"/>
<path d="M52.0965 76.0499C52.0965 76.486 52.1219 76.8964 52.1219 77.3324C52.1219 77.4863 51.8927 77.4606 51.8927 77.3067C51.8927 76.8707 51.8672 76.4603 51.8672 76.0243C51.8672 75.8704 52.0965 75.896 52.0965 76.0499Z" fill="#FFEA92"/>
<path d="M50.6707 75.7677C50.6962 76.2551 50.6962 76.7424 50.7216 77.2297C50.7216 77.3836 50.4924 77.358 50.4924 77.2041C50.4669 76.7167 50.4669 76.2294 50.4414 75.7421C50.4414 75.5882 50.6707 75.6138 50.6707 75.7677Z" fill="#FFEA92"/>
<path d="M49.3709 75.1774C49.3964 75.9469 49.4473 76.6907 49.4728 77.4602C49.4728 77.6141 49.2435 77.5885 49.2435 77.4346C49.218 76.6651 49.1671 75.9213 49.1416 75.1518C49.1161 75.0235 49.3454 75.0235 49.3709 75.1774Z" fill="#FFEA92"/>
<path d="M47.3584 69.2529V71.9717H60.8604V69.2529C60.8604 69.2529 58.4912 70.7662 54.1094 70.7662C49.7276 70.7662 47.3584 69.2529 47.3584 69.2529Z" fill="#FFDF77"/>
<path d="M60.8604 69.2529H47.3584C47.3584 69.2529 49.7276 70.7662 54.1094 70.7662C58.4912 70.7662 60.8604 69.2529 60.8604 69.2529Z" fill="#EDC24A"/>
<path d="M47.3584 71.9717V74.6905H60.8604V71.9717C60.8604 71.9717 58.4912 73.485 54.1094 73.485C49.7276 73.485 47.3584 71.9717 47.3584 71.9717Z" fill="#F4B34A"/>
<path d="M60.8604 71.9717H47.3584C47.3584 71.9717 49.7276 73.485 54.1094 73.485C58.4912 73.485 60.8604 71.9717 60.8604 71.9717Z" fill="#EDC24A"/>
<path d="M48.5299 69.8173C48.5299 69.6634 48.2751 69.689 48.3006 69.8429C48.3516 70.5611 48.4025 71.2536 48.4535 71.9718C48.4535 72.1257 48.7082 72.1 48.6828 71.9461C48.6318 71.228 48.5808 70.5354 48.5299 69.8173Z" fill="#FFEA92"/>
<path d="M50.1354 70.2792C50.1354 70.1253 49.8806 70.1509 49.9061 70.3048C49.9316 70.8435 49.957 71.4077 49.9825 71.9464C49.9825 72.1003 50.2373 72.0746 50.2118 71.9207C50.1863 71.3564 50.1608 70.8178 50.1354 70.2792Z" fill="#FFEA92"/>
<path d="M51.5359 70.6893C51.5359 70.5354 51.3066 70.5611 51.3066 70.715C51.3066 71.0741 51.3066 71.4588 51.3321 71.8179C51.3321 71.9718 51.5614 71.9461 51.5614 71.7922C51.5359 71.4332 51.5359 71.0741 51.5359 70.6893Z" fill="#FFEA92"/>
<path d="M53.0143 70.8173C53.0143 70.6634 52.7595 70.689 52.785 70.8429C52.785 71.1764 52.8105 71.5354 52.8105 71.8689C52.8105 72.0228 53.0652 71.9971 53.0397 71.8432C53.0397 71.5098 53.0398 71.1763 53.0143 70.8173Z" fill="#FFEA92"/>
<path d="M54.2363 70.8171V71.92C54.2363 72.0739 54.4656 72.0482 54.4656 71.8943V70.7914C54.4656 70.6632 54.2363 70.6632 54.2363 70.8171Z" fill="#FFEA92"/>
<path d="M56.0457 70.7147C56.0457 70.5608 55.8164 70.5865 55.8164 70.7404C55.8164 71.1251 55.8419 71.5098 55.8419 71.8946C55.8419 72.0485 56.0712 72.0228 56.0712 71.8689C56.0457 71.5098 56.0457 71.0995 56.0457 70.7147Z" fill="#FFEA92"/>
<path d="M57.2432 70.5871C57.2432 71.0231 57.2178 71.4335 57.2178 71.8695C57.2178 72.0234 57.4471 71.9978 57.4471 71.8439C57.4471 71.4078 57.4725 70.9974 57.4725 70.5614C57.498 70.4075 57.2432 70.4332 57.2432 70.5871Z" fill="#FFEA92"/>
<path d="M58.6691 70.3048C58.6436 70.7922 58.6436 71.2795 58.6182 71.7668C58.6182 71.9207 58.8474 71.8951 58.8474 71.7412C58.8729 71.2538 58.8729 70.7665 58.8984 70.2792C58.9239 70.1253 58.6691 70.1509 58.6691 70.3048Z" fill="#FFEA92"/>
<path d="M59.9945 69.7404C59.969 70.5098 59.9181 71.2537 59.8926 72.0231C59.8926 72.177 60.1219 72.1514 60.1219 71.9975C60.1473 71.228 60.1983 70.4842 60.2238 69.7147C60.2238 69.5608 59.9945 69.5865 59.9945 69.7404Z" fill="#FFEA92"/>
<path d="M48.0467 72.4081C48.0467 72.2542 47.8174 72.2798 47.8174 72.4337L47.8429 74.537C47.8429 74.6909 48.0721 74.6652 48.0721 74.5113L48.0467 72.4081Z" fill="#FFD366"/>
<path d="M49.6258 72.9979C49.6258 72.844 49.3965 72.8697 49.3965 73.0236C49.3965 73.5622 49.422 74.1265 49.422 74.6651C49.422 74.819 49.6512 74.7934 49.6512 74.6395C49.6512 74.1008 49.6258 73.5622 49.6258 72.9979Z" fill="#FFD366"/>
<path d="M51.1036 73.4845C51.1036 73.8949 51.0781 74.3053 51.0781 74.7157C51.0781 74.8696 51.3074 74.8439 51.3074 74.69C51.3074 74.2796 51.3329 73.8692 51.3329 73.4589C51.3584 73.305 51.1291 73.3306 51.1036 73.4845Z" fill="#FFD366"/>
<path d="M52.6826 73.6134V74.6394C52.6826 74.7933 52.9119 74.7676 52.9119 74.6137V73.5878C52.9374 73.4339 52.6826 73.4595 52.6826 73.6134Z" fill="#FFD366"/>
<path d="M54.1855 73.6134V74.6137C54.1855 74.7676 54.4148 74.742 54.4148 74.5881V73.5878C54.4148 73.4339 54.1855 73.4595 54.1855 73.6134Z" fill="#FFD366"/>
<path d="M55.5107 73.5104V74.5108C55.5107 74.6647 55.74 74.639 55.74 74.4851C55.74 74.1517 55.74 73.8182 55.74 73.4848C55.74 73.3566 55.5107 73.3566 55.5107 73.5104Z" fill="#FFD366"/>
<path d="M57.1414 73.4852C57.1414 73.3313 56.9121 73.357 56.9121 73.5109L56.9376 74.6394C56.9376 74.7933 57.1669 74.7677 57.1669 74.6138L57.1414 73.4852Z" fill="#FFD366"/>
<path d="M58.5929 72.9464C58.5929 73.4594 58.5674 73.9724 58.5674 74.4854C58.5674 74.6393 58.7967 74.6136 58.7967 74.4597C58.7967 73.9467 58.8221 73.4338 58.8221 72.9208C58.8476 72.7669 58.5929 72.7925 58.5929 72.9464Z" fill="#FFD366"/>
<path d="M60.2232 72.4074L60.0194 74.6132C59.9939 74.7671 60.2486 74.8184 60.2486 74.6645C60.3251 73.9207 60.376 73.1769 60.4525 72.4587C60.4779 72.3048 60.2486 72.2535 60.2232 72.4074Z" fill="#FFD366"/>
<path d="M58.6435 69.2272C55.612 70.3814 52.2237 70.3814 49.1922 69.2015C49.0393 69.1502 48.9374 69.3554 49.0903 69.4067C52.1728 70.6122 55.612 70.6379 58.72 69.458C58.8728 69.3811 58.7964 69.1759 58.6435 69.2272Z" fill="#FFD366"/>
<path d="M61.0645 66.5088V69.2533H47.5625V66.5344C47.5625 66.5344 49.9317 68.0477 54.3135 68.0477C58.6953 68.0477 61.0645 66.5088 61.0645 66.5088Z" fill="#FFDF77"/>
<path d="M47.5625 66.5088H61.0645C61.0645 66.5088 58.6953 68.0221 54.3135 68.0221C49.9317 68.0221 47.5625 66.5088 47.5625 66.5088Z" fill="#EDC24A"/>
<path d="M58.2872 67.535C58.2872 67.3811 58.542 67.4068 58.5165 67.5607C58.491 68.0993 58.4655 68.6636 58.4401 69.2022C58.4401 69.3561 58.1853 69.3305 58.2108 69.1766C58.2363 68.638 58.2617 68.0737 58.2872 67.535Z" fill="#FFEA92"/>
<path d="M56.9122 67.9706C56.9122 67.8167 57.1415 67.8423 57.1415 67.9962C57.1415 68.3553 57.1415 68.7401 57.116 69.0991C57.116 69.253 56.8867 69.2274 56.8867 69.0735C56.8867 68.6888 56.8867 68.3297 56.9122 67.9706Z" fill="#FFEA92"/>
<path d="M55.4091 68.0995C55.4091 67.9456 55.6639 67.9712 55.6384 68.1251C55.6384 68.4586 55.6129 68.8177 55.6129 69.1511C55.6129 69.305 55.3582 69.2793 55.3836 69.1255C55.3836 68.792 55.4091 68.4329 55.4091 68.0995Z" fill="#FFEA92"/>
<path d="M54.1863 68.0988V69.2017C54.1863 69.3556 53.957 69.3299 53.957 69.176V68.0731C53.957 67.9192 54.1863 67.9449 54.1863 68.0988Z" fill="#FFEA92"/>
<path d="M52.4024 67.996C52.4024 67.8421 52.6317 67.8677 52.6317 68.0216C52.6317 68.4064 52.6062 68.7911 52.6062 69.1758C52.6062 69.3297 52.377 69.3041 52.377 69.1502C52.377 68.7654 52.377 68.3807 52.4024 67.996Z" fill="#FFEA92"/>
<path d="M51.1804 67.8683C51.1804 68.3043 51.2059 68.7147 51.2059 69.1508C51.2059 69.3047 50.9766 69.279 50.9766 69.1251C50.9766 68.6891 50.9512 68.2787 50.9512 67.8427C50.9512 67.6888 51.1804 67.7144 51.1804 67.8683Z" fill="#FFEA92"/>
<path d="M49.7537 67.5861C49.7792 68.0734 49.7792 68.5607 49.8046 69.0481C49.8046 69.202 49.5754 69.1763 49.5754 69.0224C49.5499 68.5351 49.5499 68.0478 49.5244 67.5604C49.5244 67.4065 49.7537 67.4322 49.7537 67.5861Z" fill="#FFEA92"/>
<path d="M48.4285 66.9962C48.454 67.7657 48.5049 68.5095 48.5304 69.279C48.5304 69.4329 48.3011 69.4072 48.3011 69.2534C48.2756 68.4839 48.2247 67.7401 48.1992 66.9706C48.1992 66.8167 48.4285 66.8423 48.4285 66.9962Z" fill="#FFEA92"/>
<path d="M47.7666 61.0713V63.7901H61.2686V61.0713C61.2686 61.0713 58.8994 62.5846 54.5176 62.5846C50.1358 62.5846 47.7666 61.0713 47.7666 61.0713Z" fill="#FFDF77"/>
<path d="M61.2686 61.0713H47.7666C47.7666 61.0713 50.1358 62.5846 54.5176 62.5846C58.8994 62.5846 61.2686 61.0713 61.2686 61.0713Z" fill="#EDC24A"/>
<path d="M47.7666 63.79V66.5088H61.2686V63.79C61.2686 63.79 58.8994 65.3033 54.5176 65.3033C50.1358 65.3033 47.7666 63.79 47.7666 63.79Z" fill="#F4B34A"/>
<path d="M61.2686 63.79H47.7666C47.7666 63.79 50.1358 65.3033 54.5176 65.3033C58.8994 65.3033 61.2686 63.79 61.2686 63.79Z" fill="#EDC24A"/>
<path d="M48.9381 61.6356C48.9381 61.4817 48.6833 61.5074 48.7088 61.6613C48.7598 62.3794 48.8107 63.072 48.8617 63.7901C48.8617 63.944 49.1164 63.9184 49.091 63.7645C49.04 63.072 48.9891 62.3538 48.9381 61.6356Z" fill="#FFEA92"/>
<path d="M50.5436 62.0975C50.5436 61.9436 50.2888 61.9693 50.3143 62.1232C50.3398 62.6618 50.3652 63.2261 50.3907 63.7647C50.3907 63.9186 50.6455 63.893 50.62 63.7391C50.5945 63.2004 50.569 62.6362 50.5436 62.0975Z" fill="#FFEA92"/>
<path d="M51.9441 62.5331C51.9441 62.3792 51.7148 62.4048 51.7148 62.5587C51.7148 62.9178 51.7148 63.3026 51.7403 63.6616C51.7403 63.8155 51.9696 63.7899 51.9696 63.636C51.9441 63.2513 51.9441 62.8922 51.9441 62.5331Z" fill="#FFEA92"/>
<path d="M53.4225 62.661C53.4225 62.5071 53.1677 62.5328 53.1932 62.6867C53.1932 63.0201 53.2187 63.3792 53.2187 63.7126C53.2187 63.8665 53.4734 63.8409 53.448 63.687C53.448 63.3535 53.4479 62.9945 53.4225 62.661Z" fill="#FFEA92"/>
<path d="M54.6445 62.6613V63.7642C54.6445 63.9181 54.8738 63.8924 54.8738 63.7385V62.6356C54.8738 62.4817 54.6445 62.5074 54.6445 62.6613Z" fill="#FFEA92"/>
<path d="M56.4539 62.5585C56.4539 62.4046 56.2246 62.4302 56.2246 62.5841C56.2246 62.9689 56.2501 63.3536 56.2501 63.7383C56.2501 63.8922 56.4794 63.8666 56.4794 63.7127C56.4539 63.3279 56.4539 62.9432 56.4539 62.5585Z" fill="#FFEA92"/>
<path d="M57.6515 62.4308C57.6515 62.8668 57.626 63.2772 57.626 63.7133C57.626 63.8672 57.8553 63.8415 57.8553 63.6876C57.8553 63.2516 57.8807 62.8412 57.8807 62.4052C57.9062 62.2513 57.6515 62.2769 57.6515 62.4308Z" fill="#FFEA92"/>
<path d="M59.0773 62.1486C59.0518 62.6359 59.0518 63.1232 59.0264 63.6106C59.0264 63.7645 59.2556 63.7388 59.2556 63.5849C59.2811 63.0976 59.2811 62.6103 59.3066 62.1229C59.3066 61.969 59.0773 61.9947 59.0773 62.1486Z" fill="#FFEA92"/>
<path d="M60.4027 61.5587C60.3772 62.3282 60.3263 63.072 60.3008 63.8415C60.3008 63.9954 60.5301 63.9698 60.5301 63.8159C60.5555 63.0464 60.6065 62.3026 60.632 61.5331C60.632 61.3792 60.4027 61.4048 60.4027 61.5587Z" fill="#FFEA92"/>
<path d="M48.4549 64.2264C48.4549 64.0725 48.2256 64.0982 48.2256 64.2521L48.2511 66.3553C48.2511 66.5092 48.4803 66.4836 48.4803 66.3297L48.4549 64.2264Z" fill="#FFD366"/>
<path d="M50.034 64.8417C50.034 64.6878 49.8047 64.7134 49.8047 64.8673C49.8047 65.406 49.8302 65.9702 49.8302 66.5089C49.8302 66.6628 50.0594 66.6371 50.0594 66.4832C50.0594 65.9189 50.034 65.3803 50.034 64.8417Z" fill="#FFD366"/>
<path d="M51.5118 65.3029C51.5118 65.7133 51.4863 66.1236 51.4863 66.534C51.4863 66.6879 51.7156 66.6623 51.7156 66.5084C51.7156 66.098 51.7411 65.6876 51.7411 65.2772C51.7666 65.1233 51.5373 65.149 51.5118 65.3029Z" fill="#FFD366"/>
<path d="M53.0908 65.4318V66.4577C53.0908 66.6116 53.3201 66.586 53.3201 66.4321V65.4061C53.3456 65.2522 53.0908 65.2779 53.0908 65.4318Z" fill="#FFD366"/>
<path d="M54.5938 65.4318V66.4321C54.5938 66.586 54.823 66.5603 54.823 66.4064V65.4061C54.823 65.2522 54.5938 65.2779 54.5938 65.4318Z" fill="#FFD366"/>
<path d="M55.9189 65.3546V66.3549C55.9189 66.5088 56.1482 66.4832 56.1482 66.3293C56.1482 65.9959 56.1482 65.6624 56.1482 65.329C56.1482 65.1751 55.9189 65.2007 55.9189 65.3546Z" fill="#FFD366"/>
<path d="M57.5496 65.3036C57.5496 65.1497 57.3203 65.1753 57.3203 65.3292L57.3458 66.4578C57.3458 66.6117 57.5751 66.586 57.5751 66.4322L57.5496 65.3036Z" fill="#FFD366"/>
<path d="M59.0011 64.7648C59.0011 65.2778 58.9756 65.7908 58.9756 66.3037C58.9756 66.4576 59.2049 66.432 59.2049 66.2781C59.2049 65.7651 59.2303 65.2521 59.2303 64.7391C59.2558 64.5852 59.0011 64.6109 59.0011 64.7648Z" fill="#FFD366"/>
<path d="M60.6314 64.2257L60.4276 66.4315C60.4021 66.5854 60.6569 66.6367 60.6569 66.4828C60.7333 65.739 60.7842 64.9951 60.8607 64.277C60.8861 64.1231 60.6569 64.0974 60.6314 64.2257Z" fill="#FFD366"/>
<path d="M59.0517 61.0455C56.0202 62.1997 52.6319 62.1997 49.6004 61.0199C49.4475 60.9686 49.3456 61.1738 49.4985 61.2251C52.581 62.4306 56.0202 62.4562 59.1282 61.2764C59.281 61.2251 59.1791 60.9942 59.0517 61.0455Z" fill="#FFD366"/>
<path d="M57.8288 77.4609L57.8543 81.0005H46.1865C46.7215 79.0512 51.0269 77.7687 51.8166 77.5635C51.893 77.5379 51.944 77.5379 51.944 77.5379C53.7782 77.7431 55.6634 77.7174 57.4976 77.4866L57.8288 77.4609Z" fill="#273435"/>
<path d="M39.767 75.5879C41.5503 75.947 43.3845 76.0752 45.2187 75.9983V76.0239V78.6914H33.7803C34.3662 75.9213 39.6906 75.5879 39.6906 75.5879C39.6906 75.5879 39.716 75.5879 39.767 75.5879Z" fill="#273435"/>
<path d="M49.7531 55.2231H49.6766C49.1162 57.8137 47.9188 60.2503 47.4348 62.8665C47.2055 64.1234 47.1546 65.4315 47.0272 66.6883C46.7215 69.8431 45.9572 72.921 45.1929 75.9733C43.3587 76.0759 41.55 75.922 39.7412 75.5629C41.1678 67.7142 42.5945 59.8656 44.2504 52.0683C45.0401 48.4004 45.8553 44.6813 45.8044 40.9365C45.9317 40.9622 46.0336 40.9878 46.161 41.0135C46.7724 43.168 47.4093 45.3225 48.0462 47.4771C48.4283 48.8365 48.8359 50.1959 49.1416 51.5809C49.3964 52.7864 49.6002 53.9919 49.7531 55.2231Z" fill="#00BAAA"/>
<path d="M58.1347 70.8686C58.1347 73.0488 58.0328 75.229 57.829 77.4091V77.4604H57.4978C55.6635 77.6913 53.7784 77.7169 51.9441 77.5117C51.9441 77.5117 51.8932 77.5117 51.8168 77.5374L51.7913 77.4861C51.7913 73.6131 51.0525 69.7914 50.6449 65.944C50.2628 62.3787 50.1863 58.7879 49.7278 55.2226C49.5749 54.0171 49.3711 52.786 49.1164 51.6061C48.8107 50.2211 48.4285 48.8616 48.0209 47.5022C47.384 45.3477 46.7726 43.1932 46.1357 41.0387C49.6768 41.6799 53.4217 40.9874 56.5042 39.1406C57.9054 44.8347 56.1476 50.8366 56.4788 56.6846C56.6826 60.1986 57.6252 63.6099 57.9563 67.0982C58.1092 68.355 58.1347 69.6118 58.1347 70.8686Z" fill="#00BAAA"/>
<path d="M46.7222 42.4239C46.6458 42.2444 46.391 42.3469 46.4674 42.5265C47.1808 44.3732 47.7922 46.2713 48.3017 48.195C47.5119 47.0151 46.7477 45.8352 45.9579 44.6554C45.856 44.5015 45.6268 44.6554 45.7287 44.8093C46.5184 46.0148 47.3081 47.1946 48.0979 48.4001C48.1743 48.5027 48.3017 48.4514 48.3271 48.3745C48.8112 50.3238 49.1933 52.2732 49.4735 54.2738C49.499 54.4533 49.7792 54.4277 49.7538 54.2482C49.2188 50.1956 48.1998 46.22 46.7222 42.4239Z" fill="#06967E"/>
<path d="M47.7661 48.2975C47.1802 47.8358 46.5688 47.3742 45.9828 46.9381C45.83 46.8355 45.6516 47.0407 45.8045 47.1433L47.5878 48.5027C47.7152 48.6053 47.8935 48.4001 47.7661 48.2975Z" fill="#06967E"/>
<path d="M52.0973 42.6037C51.5113 43.6296 50.9509 44.6556 50.3649 45.6815C50.2885 45.8354 50.5178 45.9637 50.6197 45.8098C51.2056 44.7838 51.7661 43.7579 52.352 42.7319C52.4284 42.578 52.1737 42.4498 52.0973 42.6037Z" fill="#06967E"/>
<path d="M52.4539 43.6545C51.9189 44.4239 51.4094 45.2191 50.8745 45.9885C50.7726 46.1424 50.9764 46.322 51.0783 46.1681C51.6132 45.3986 52.1227 44.6035 52.6577 43.834C52.7596 43.7058 52.5558 43.5262 52.4539 43.6545Z" fill="#06967E"/>
<path d="M55.5111 63.6101C55.078 61.353 54.4412 59.1215 54.2119 56.8131C54.0081 54.556 54.3902 52.3758 54.9252 50.17C55.5111 47.8615 56.148 45.5531 56.0971 43.1421C56.0971 42.9626 55.8168 42.9882 55.8168 43.1678V43.1934C54.5685 42.8856 53.5495 42.1161 52.9126 40.9876C52.8362 40.8337 52.6069 40.9876 52.6834 41.1415C53.3712 42.347 54.4921 43.1678 55.8168 43.4755C55.8168 47.682 53.7278 51.555 53.8552 55.7871C53.9316 57.9417 54.4412 60.0192 54.8997 62.1225C55.4092 64.4565 55.7914 66.8419 55.9442 69.2273C56.148 71.9461 56.0971 74.6649 55.8168 77.3837C55.7914 77.5633 56.0716 77.6146 56.0971 77.435C56.5811 72.8182 56.4028 68.15 55.5111 63.6101Z" fill="#06967E"/>
<path d="M48.8869 51.1957C46.747 59.3521 45.1165 67.6112 44.0466 75.9728C44.0211 76.1523 44.3013 76.2036 44.3268 76.0241C45.4222 67.6625 47.0272 59.3778 49.1671 51.247C49.1926 51.0675 48.9378 51.0162 48.8869 51.1957Z" fill="#06967E"/>
<path d="M44.1746 62.4042C43.3848 63.8405 42.5951 65.2512 41.8054 66.6876C41.7289 66.8415 41.9582 66.9697 42.0601 66.8158C42.8498 65.3795 43.6396 63.9688 44.4293 62.5324C44.5057 62.3529 44.251 62.2503 44.1746 62.4042Z" fill="#06967E"/>
<path d="M43.7412 64.8927C43.41 65.5083 43.0788 66.0982 42.7731 66.7138C42.6967 66.8677 42.926 66.9959 43.0279 66.842C43.3591 66.2265 43.6902 65.6365 43.9959 65.021C44.0724 64.8671 43.8176 64.7388 43.7412 64.8927Z" fill="#06967E"/>
<path d="M52.8104 60.9679C52.199 62.3786 51.5621 63.7893 50.9507 65.2C50.8742 65.3539 51.129 65.4822 51.2054 65.3283C51.8168 63.9176 52.4537 62.5069 53.0651 61.0962C53.1415 60.9423 52.8868 60.814 52.8104 60.9679Z" fill="#06967E"/>
<path d="M53.5751 61.7378C52.9382 63.0972 52.3268 64.4567 51.6899 65.8161C51.6135 65.97 51.8682 66.0982 51.9447 65.9443C52.5816 64.5849 53.193 63.2255 53.8299 61.8661C53.8808 61.6865 53.6515 61.5583 53.5751 61.7378Z" fill="#06967E"/>
<path d="M54.3388 16.5177C54.7209 15.979 55.154 15.5173 55.7399 15.2096C56.5042 14.8248 57.4213 14.7992 58.211 15.1326C58.4913 15.2352 58.746 15.3891 58.9753 15.5943C59.2046 15.7995 59.4084 16.056 59.6122 16.2868C59.8924 16.6459 60.1981 17.005 60.3 17.441C60.4529 18.031 60.2236 18.6465 59.9688 19.2108C59.9179 19.2878 59.8924 19.3904 59.8415 19.4673C58.9243 21.3653 58.0072 23.289 57.0646 25.1871C57.0137 25.1358 56.9373 25.0588 56.8863 25.0075C55.5871 23.879 53.9312 23.1864 52.2243 23.0582C52.1479 23.0582 52.0969 23.0582 52.0205 23.0582C52.1988 20.9293 52.8867 18.8774 53.9821 17.0563C54.084 16.8767 54.2114 16.6972 54.3388 16.5177Z" fill="#FF3F6E"/>
<path d="M57.0648 25.2126C57.9819 23.3145 58.9245 21.3909 59.8416 19.4928C59.8926 19.4159 59.918 19.3133 59.969 19.2363L60.0709 19.2876C59.8926 22.5194 58.8481 25.6486 57.5743 28.6239C57.1157 29.6755 56.6317 30.7271 56.4534 31.8557C56.0967 34.1641 57.0648 36.4726 57.1412 38.8066C56.9374 38.9349 56.7336 39.0631 56.5298 39.1914C53.4473 41.0381 49.7024 41.7306 46.1613 41.0894C46.0339 41.0637 45.932 41.0381 45.8046 41.0125C45.7537 41.0125 45.7282 40.9868 45.6773 40.9868C45.6263 40.9868 45.6008 40.9612 45.5754 40.9355C45.5499 40.9099 45.5499 40.8586 45.5499 40.8329C45.5754 40.3712 45.6263 39.9352 45.6518 39.4735L45.5244 39.2683C47.486 38.0628 49.1929 36.4469 50.7978 34.7797C51.9952 33.5486 53.167 32.2661 54.0842 30.8297C54.8229 29.6499 55.3834 28.3931 55.9439 27.1106C56.2496 26.4437 56.5298 25.7769 56.8355 25.11L56.861 25.0843C56.9374 25.0843 57.0138 25.1613 57.0648 25.2126Z" fill="#FF3F6E"/>
<path d="M52.0206 23.0838C52.097 23.0838 52.1479 23.0838 52.2244 23.0838C51.7403 24.5971 51.4601 26.1617 51.3327 27.7263H51.2818C49.3202 29.6243 47.5878 31.7532 45.881 33.8821C45.8046 33.9846 45.7281 34.0872 45.6517 34.1898C45.5753 32.7791 45.5498 31.3941 45.5498 29.9834C45.5498 28.6496 45.6008 27.3415 45.83 26.0334C46.3141 23.3403 47.6388 20.8266 49.2947 18.6465C49.6513 18.1848 50.008 17.7487 50.4666 17.3896C50.8487 17.1075 51.2818 16.928 51.7149 16.7997C52.5555 16.5432 53.4727 16.5176 54.3643 16.5176C54.2369 16.6971 54.1095 16.9023 53.9822 17.0819C52.8612 18.9029 52.1989 20.9549 52.0206 23.0838Z" fill="#FF3F6E"/>
<path d="M59.6372 19.4162C58.7456 21.2629 57.8794 23.1096 56.9878 24.9564C56.9113 25.1103 57.1661 25.2385 57.2425 25.0846C58.1342 23.2379 59.0003 21.3911 59.892 19.5444C59.9684 19.3905 59.7136 19.2623 59.6372 19.4162Z" fill="#BF1B52"/>
<path d="M54.2113 16.7486C53.2942 18.7236 52.6063 20.8012 52.1478 22.9044C52.0968 23.084 52.377 23.1353 52.428 22.9557C52.8866 20.8525 53.5744 18.8262 54.466 16.8512C54.5425 16.6973 54.2877 16.5691 54.2113 16.7486Z" fill="#BF1B52"/>
<path d="M50.2885 21.5969C48.8109 23.3153 47.5371 25.1877 46.4927 27.1884C46.4162 27.3423 46.671 27.4705 46.7474 27.3166C47.7919 25.3416 49.0402 23.4949 50.5178 21.7764C50.6197 21.6482 50.4159 21.4686 50.2885 21.5969Z" fill="#BF1B52"/>
<path d="M50.4413 23.3152C49.1165 24.8542 47.9956 26.547 47.104 28.3681C47.0276 28.522 47.2823 28.6503 47.3587 28.4964C48.2504 26.7009 49.3458 25.0337 50.6705 23.5204C50.7724 23.3665 50.5686 23.1614 50.4413 23.3152Z" fill="#BF1B52"/>
<path d="M55.7906 30.548C54.5933 31.8561 53.4214 33.1642 52.2241 34.4723C52.0967 34.6006 52.326 34.7801 52.4279 34.6519C53.6252 33.3438 54.7971 32.0357 55.9944 30.7276C56.1218 30.5993 55.8925 30.4198 55.7906 30.548Z" fill="#BF1B52"/>
<path d="M55.4341 32.4461C54.5425 33.549 53.498 34.4724 52.3006 35.2419C52.1478 35.3445 52.3006 35.5753 52.4535 35.4727C53.6508 34.7032 54.7208 33.7542 55.6379 32.6513C55.7653 32.4974 55.536 32.3179 55.4341 32.4461Z" fill="#BF1B52"/>
<path d="M44.1995 40.8335L43.5117 43.8601L28.5576 40.4231L29.2455 37.3965C29.2455 37.3965 31.4873 39.6536 36.3531 40.7822C41.2189 41.9107 44.1995 40.8335 44.1995 40.8335Z" fill="#FFDF77"/>
<path d="M29.2451 37.3965L44.1992 40.8335C44.1992 40.8335 41.1931 41.8851 36.3528 40.7822C31.487 39.6793 29.2451 37.3965 29.2451 37.3965Z" fill="#EDC24A"/>
<path d="M40.8618 41.2699C40.9128 41.0904 41.1675 41.193 41.1166 41.3469C40.9637 41.9368 40.7854 42.5524 40.6325 43.1423C40.5816 43.3219 40.3268 43.2193 40.3778 43.0654C40.5561 42.4498 40.709 41.8599 40.8618 41.2699Z" fill="#FFEA92"/>
<path d="M39.2313 41.3725C39.2822 41.1929 39.537 41.2955 39.486 41.4494C39.3841 41.8598 39.2822 42.2702 39.2058 42.6549C39.1548 42.8345 38.9001 42.7319 38.951 42.578C39.0275 42.1932 39.1294 41.7829 39.2313 41.3725Z" fill="#FFEA92"/>
<path d="M37.5507 41.141C37.6016 40.9615 37.8564 41.0641 37.8054 41.218C37.7035 41.6027 37.6016 41.9875 37.4997 42.3465C37.4488 42.5261 37.194 42.4235 37.245 42.2696C37.3469 41.9105 37.4488 41.5258 37.5507 41.141Z" fill="#FFEA92"/>
<path d="M36.1999 40.8334L35.9197 42.0389C35.8687 42.2185 35.614 42.1159 35.6649 41.962L35.9451 40.7565C35.9706 40.5769 36.2254 40.6539 36.1999 40.8334Z" fill="#FFEA92"/>
<path d="M34.2129 40.269C34.2638 40.0894 34.5186 40.192 34.4676 40.3459C34.3657 40.7819 34.2638 41.1923 34.1365 41.6284C34.0855 41.8079 33.8307 41.7053 33.8817 41.5514C34.0091 41.1154 34.111 40.6793 34.2129 40.269Z" fill="#FFEA92"/>
<path d="M32.9143 39.808C32.8124 40.2697 32.7105 40.7571 32.6086 41.2187C32.5831 41.3983 32.3029 41.3213 32.3538 41.1418C32.4557 40.6801 32.5576 40.1928 32.6595 39.7311C32.685 39.5516 32.9398 39.6285 32.9143 39.808Z" fill="#FFEA92"/>
<path d="M31.411 39.1411C31.3091 39.6797 31.2072 40.2183 31.0798 40.7826C31.0543 40.9621 30.7996 40.8852 30.825 40.7056C30.9269 40.167 31.0288 39.6284 31.1562 39.0641C31.1817 38.8846 31.4364 38.9615 31.411 39.1411Z" fill="#FFEA92"/>
<path d="M30.0862 38.1664C29.9333 39.0129 29.7805 39.8593 29.6276 40.7057C29.6022 40.8853 29.3474 40.8083 29.3729 40.6288C29.5257 39.7823 29.6786 38.9359 29.8314 38.0895C29.8824 37.91 30.1371 37.9869 30.0862 38.1664Z" fill="#FFEA92"/>
<path d="M29.3724 31.0869L28.6846 34.1135L43.6386 37.5505L44.3265 34.5239C44.3265 34.5239 41.3204 35.5755 36.48 34.4726C31.6142 33.344 29.3724 31.0869 29.3724 31.0869Z" fill="#FFDF77"/>
<path d="M44.3271 34.5239L29.373 31.0869C29.373 31.0869 31.6149 33.344 36.4807 34.4726C41.3465 35.5755 44.3271 34.5239 44.3271 34.5239Z" fill="#EDC24A"/>
<path d="M28.6849 34.0879L27.9971 37.1145L42.9511 40.5515L43.639 37.5249C43.639 37.5249 40.6329 38.5765 35.7925 37.4736C30.9267 36.345 28.6849 34.0879 28.6849 34.0879Z" fill="#F4B34A"/>
<path d="M43.6386 37.5249L28.6846 34.0879C28.6846 34.0879 30.9264 36.345 35.7922 37.4736C40.658 38.5765 43.6386 37.5249 43.6386 37.5249Z" fill="#EDC24A"/>
<path d="M30.5195 32.0107C30.545 31.8312 30.2903 31.8056 30.2648 31.9594C30.1374 32.7546 30.01 33.5497 29.8826 34.3448C29.8572 34.5244 30.1119 34.55 30.1374 34.3961C30.2648 33.601 30.3922 32.8059 30.5195 32.0107Z" fill="#FFEA92"/>
<path d="M32.2 32.9082C32.2255 32.7287 31.9707 32.703 31.9453 32.8569C31.8434 33.4725 31.716 34.0881 31.6141 34.678C31.5886 34.8575 31.8434 34.8832 31.8688 34.7293C31.9707 34.1394 32.0727 33.5238 32.2 32.9082Z" fill="#FFEA92"/>
<path d="M33.6275 33.7549C33.653 33.5753 33.3982 33.5497 33.3728 33.7036C33.2963 34.114 33.1944 34.5244 33.118 34.9347C33.0925 35.1143 33.3473 35.1399 33.3728 34.986C33.4492 34.55 33.5511 34.1396 33.6275 33.7549Z" fill="#FFEA92"/>
<path d="M35.2319 34.2676C35.2574 34.088 35.0026 34.0624 34.9772 34.2163C34.9007 34.601 34.8243 34.9858 34.7479 35.3705C34.7224 35.55 34.9772 35.5757 35.0026 35.4218C35.1045 35.0371 35.181 34.6523 35.2319 34.2676Z" fill="#FFEA92"/>
<path d="M36.5823 34.5756L36.3021 35.7811C36.2511 35.9606 36.5314 35.9863 36.5568 35.8324L36.8371 34.6269C36.888 34.4473 36.6333 34.396 36.5823 34.5756Z" fill="#FFEA92"/>
<path d="M38.6207 34.9082C38.6461 34.7287 38.3914 34.703 38.3659 34.8569C38.2895 35.2929 38.1876 35.729 38.1112 36.1394C38.0857 36.3189 38.3404 36.3446 38.3659 36.1907C38.4423 35.7803 38.5188 35.3442 38.6207 34.9082Z" fill="#FFEA92"/>
<path d="M39.9956 35.063C39.8937 35.5246 39.7663 35.9863 39.6644 36.4737C39.6134 36.6532 39.8937 36.6789 39.9191 36.525C40.021 36.0633 40.1484 35.6016 40.2503 35.1143C40.3013 34.9347 40.021 34.9091 39.9956 35.063Z" fill="#FFEA92"/>
<path d="M41.6267 35.1137C41.4993 35.6524 41.3464 36.191 41.2191 36.7296C41.1681 36.9092 41.4483 36.9348 41.4738 36.7809C41.6012 36.2423 41.754 35.7037 41.8814 35.165C41.9324 34.9855 41.6776 34.9598 41.6267 35.1137Z" fill="#FFEA92"/>
<path d="M43.2311 34.8061C43.0018 35.6526 42.7726 36.4733 42.5433 37.3197C42.4923 37.4993 42.7726 37.5249 42.798 37.371C43.0273 36.5246 43.2566 35.7038 43.4859 34.8574C43.5623 34.6779 43.2821 34.6522 43.2311 34.8061Z" fill="#FFEA92"/>
<path d="M29.347 34.7549C29.3725 34.5753 29.1177 34.5497 29.0923 34.7036L28.6082 37.0377C28.5828 37.2172 28.8375 37.2429 28.863 37.089L29.347 34.7549Z" fill="#FFD366"/>
<path d="M30.9268 35.8066C30.9522 35.6271 30.6975 35.6015 30.672 35.7553C30.5446 36.3709 30.4173 36.9609 30.2899 37.5764C30.2644 37.756 30.5192 37.7816 30.5446 37.6277C30.6975 37.0122 30.8249 36.4222 30.9268 35.8066Z" fill="#FFD366"/>
<path d="M32.481 36.7046C32.3536 37.1663 32.2517 37.6023 32.1243 38.064C32.0734 38.2435 32.3536 38.2692 32.3791 38.1153C32.5065 37.6536 32.6084 37.2175 32.7358 36.7559C32.7867 36.5763 32.5065 36.5507 32.481 36.7046Z" fill="#FFD366"/>
<path d="M34.1877 37.2427L33.9329 38.3969C33.882 38.5764 34.1622 38.6021 34.1877 38.4482L34.4424 37.2939C34.4934 37.1144 34.2132 37.0888 34.1877 37.2427Z" fill="#FFD366"/>
<path d="M35.8439 37.6274L35.5892 38.7303C35.5382 38.9099 35.8185 38.9355 35.8439 38.7816L36.0987 37.6787C36.1496 37.4992 35.8694 37.4735 35.8439 37.6274Z" fill="#FFD366"/>
<path d="M37.3215 37.8842L37.0667 38.9871C37.0158 39.1666 37.296 39.1923 37.3215 39.0384C37.3979 38.6793 37.4998 38.3202 37.5762 37.9355C37.6272 37.7559 37.3724 37.7046 37.3215 37.8842Z" fill="#FFD366"/>
<path d="M39.1549 38.2432C39.1803 38.0636 38.9256 38.038 38.9001 38.1919L38.6453 39.4487C38.6199 39.6282 38.8746 39.6539 38.9001 39.5L39.1549 38.2432Z" fill="#FFD366"/>
<path d="M40.8875 38.0122C40.7346 38.5765 40.6073 39.1407 40.4544 39.7307C40.4035 39.9102 40.6837 39.9359 40.7092 39.782C40.862 39.2177 40.9894 38.6534 41.1423 38.0635C41.1932 37.8839 40.9385 37.8583 40.8875 38.0122Z" fill="#FFD366"/>
<path d="M42.8237 37.8585L42.0594 40.2695C42.0085 40.4234 42.2632 40.5516 42.3142 40.3721C42.5689 39.577 42.8237 38.7562 43.0785 37.9611C43.1294 37.7815 42.8746 37.6789 42.8237 37.8585Z" fill="#FFD366"/>
<path d="M41.8816 33.908C38.2132 34.421 34.4938 33.5489 31.4367 31.4713C31.2839 31.3687 31.131 31.5739 31.2584 31.6765C34.3919 33.8054 38.1877 34.7031 41.9071 34.1901C42.0854 34.1645 42.0345 33.8823 41.8816 33.908Z" fill="#FFD366"/>
<path d="M45.2435 31.5483L44.5556 34.5749L29.6016 31.1379L30.2894 28.1113C30.2894 28.1113 32.5312 30.3685 37.397 31.497C42.2374 32.5999 45.2435 31.5483 45.2435 31.5483Z" fill="#FFDF77"/>
<path d="M30.2891 28.1113L45.2431 31.5483C45.2431 31.5483 42.237 32.5999 37.3967 31.497C32.5309 30.3685 30.2891 28.1113 30.2891 28.1113Z" fill="#EDC24A"/>
<path d="M41.9058 31.9584C41.9567 31.7789 42.2115 31.8815 42.1605 32.0354C42.0077 32.6253 41.8293 33.2409 41.6765 33.8308C41.6255 34.0103 41.3708 33.9078 41.4217 33.7539C41.5746 33.1639 41.7529 32.5483 41.9058 31.9584Z" fill="#FFEA92"/>
<path d="M40.2498 32.0863C40.3008 31.9068 40.5555 32.0094 40.5046 32.1633C40.4027 32.5737 40.3008 32.9841 40.2243 33.3688C40.1734 33.5483 39.9186 33.4457 39.9696 33.2919C40.0715 32.8815 40.1479 32.4967 40.2498 32.0863Z" fill="#FFEA92"/>
<path d="M38.5692 31.8559C38.6202 31.6763 38.8749 31.7789 38.824 31.9328C38.7221 32.3176 38.6202 32.7023 38.5183 33.0614C38.4673 33.2409 38.2126 33.1383 38.2635 32.9844C38.3654 32.5997 38.4673 32.215 38.5692 31.8559Z" fill="#FFEA92"/>
<path d="M37.2438 31.5222L36.9636 32.7277C36.9127 32.9072 36.6579 32.8046 36.7088 32.6507L36.9891 31.4452C37.0146 31.2913 37.2693 31.3683 37.2438 31.5222Z" fill="#FFEA92"/>
<path d="M35.2568 30.9584C35.3078 30.7789 35.5625 30.8815 35.5116 31.0354C35.4097 31.4714 35.3078 31.8818 35.1804 32.3178C35.1294 32.4974 34.8747 32.3948 34.9256 32.2409C35.053 31.8048 35.1549 31.3944 35.2568 30.9584Z" fill="#FFEA92"/>
<path d="M33.9582 30.4963C33.8563 30.958 33.7544 31.4453 33.6525 31.907C33.6271 32.0865 33.3468 32.0096 33.3978 31.8301C33.4997 31.3684 33.6016 30.881 33.7035 30.4194C33.729 30.2398 33.9837 30.3424 33.9582 30.4963Z" fill="#FFEA92"/>
<path d="M32.4549 29.8295C32.353 30.3682 32.2511 30.9068 32.1237 31.4711C32.0983 31.6506 31.8435 31.5737 31.869 31.3941C31.9709 30.8555 32.0728 30.3169 32.2002 29.7526C32.2256 29.573 32.4804 29.65 32.4549 29.8295Z" fill="#FFEA92"/>
<path d="M31.1301 28.8549C30.9773 29.7013 30.8244 30.5478 30.6716 31.3942C30.6461 31.5737 30.3914 31.4968 30.4168 31.3172C30.5697 30.4708 30.7225 29.6244 30.8754 28.778C30.9009 28.5984 31.1556 28.6754 31.1301 28.8549Z" fill="#FFEA92"/>
<path d="M31.8685 22.1348L31.1807 25.1614L46.1347 28.5983L46.8226 25.5717C46.8226 25.5717 43.8165 26.6234 38.9761 25.5205C34.1358 24.4175 31.8685 22.1348 31.8685 22.1348Z" fill="#FFDF77"/>
<path d="M46.8232 25.5717L31.8691 22.1348C31.8691 22.1348 34.111 24.3919 38.9768 25.5205C43.8426 26.649 46.8232 25.5717 46.8232 25.5717Z" fill="#EDC24A"/>
<path d="M31.181 25.1357L30.4932 28.1623L45.4472 31.5993L46.1351 28.5727C46.1351 28.5727 43.129 29.6243 38.2886 28.5214C33.4228 27.3929 31.181 25.1357 31.181 25.1357Z" fill="#F4B34A"/>
<path d="M46.1347 28.5727L31.1807 25.1357C31.1807 25.1357 33.4225 27.3929 38.2883 28.5214C43.1541 29.65 46.1347 28.5727 46.1347 28.5727Z" fill="#EDC24A"/>
<path d="M33.0156 23.0586C33.0411 22.8791 32.7863 22.8534 32.7609 23.0073C32.6335 23.8024 32.5061 24.5975 32.3787 25.3927C32.3533 25.5722 32.608 25.5979 32.6335 25.444C32.7863 24.6488 32.9137 23.8537 33.0156 23.0586Z" fill="#FFEA92"/>
<path d="M34.6961 23.9561C34.7216 23.7765 34.4668 23.7509 34.4414 23.9048C34.3395 24.5203 34.2121 25.1359 34.1102 25.7259C34.0847 25.9054 34.3395 25.931 34.3649 25.7771C34.4668 25.1872 34.5942 24.5716 34.6961 23.9561Z" fill="#FFEA92"/>
<path d="M36.1236 24.8027C36.1491 24.6232 35.8943 24.5975 35.8688 24.7514C35.7924 25.1618 35.6905 25.5722 35.6141 25.9826C35.5886 26.1621 35.8434 26.1878 35.8688 26.0339C35.9453 25.5979 36.0472 25.2131 36.1236 24.8027Z" fill="#FFEA92"/>
<path d="M37.7534 25.3154C37.7789 25.1359 37.5241 25.1102 37.4986 25.2641C37.4222 25.6489 37.3458 26.0336 37.2694 26.4183C37.2439 26.5979 37.4986 26.6235 37.5241 26.4696C37.6005 26.0849 37.677 25.7002 37.7534 25.3154Z" fill="#FFEA92"/>
<path d="M39.0784 25.6234L38.7982 26.8289C38.7472 27.0085 39.0274 27.0341 39.0529 26.8802L39.3332 25.6747C39.3841 25.4952 39.1293 25.4439 39.0784 25.6234Z" fill="#FFEA92"/>
<path d="M41.1168 25.9561C41.1422 25.7765 40.8875 25.7509 40.862 25.9048C40.7856 26.3408 40.6837 26.7768 40.6073 27.1872C40.5818 27.3668 40.8365 27.3924 40.862 27.2385C40.9384 26.8281 41.0149 26.3921 41.1168 25.9561Z" fill="#FFEA92"/>
<path d="M42.4917 26.1361C42.3898 26.5978 42.2624 27.0595 42.1605 27.5468C42.1095 27.7264 42.3898 27.752 42.4152 27.5981C42.5171 27.1365 42.6445 26.6748 42.7464 26.1874C42.7974 26.0079 42.5171 25.9566 42.4917 26.1361Z" fill="#FFEA92"/>
<path d="M44.1228 26.1869C43.9954 26.7255 43.8425 27.2642 43.7152 27.8028C43.6642 27.9824 43.9444 28.008 43.9699 27.8541C44.0973 27.3155 44.2501 26.7768 44.3775 26.2382C44.4539 26.0587 44.1737 26.0074 44.1228 26.1869Z" fill="#FFEA92"/>
<path d="M45.7272 25.8793C45.4979 26.7257 45.2687 27.5465 45.0394 28.3929C44.9884 28.5725 45.2687 28.5981 45.2941 28.4442C45.5234 27.5978 45.7527 26.777 45.982 25.9306C46.0584 25.7511 45.7782 25.6998 45.7272 25.8793Z" fill="#FFEA92"/>
<path d="M31.8431 25.8027C31.8686 25.6232 31.6138 25.5975 31.5884 25.7514L31.1043 28.0855C31.0789 28.2651 31.3336 28.2907 31.3591 28.1368L31.8431 25.8027Z" fill="#FFD366"/>
<path d="M33.4482 26.8545C33.4737 26.675 33.219 26.6493 33.1935 26.8032C33.0661 27.4188 32.9387 28.0087 32.8114 28.6243C32.7859 28.8038 33.0406 28.8295 33.0661 28.6756C33.1935 28.0857 33.3209 27.4701 33.4482 26.8545Z" fill="#FFD366"/>
<path d="M34.9771 27.7514C34.8497 28.2131 34.7478 28.6492 34.6204 29.1108C34.5695 29.2904 34.8497 29.316 34.8752 29.1621C35.0026 28.7005 35.1045 28.2644 35.2318 27.8027C35.2828 27.6232 35.0026 27.5975 34.9771 27.7514Z" fill="#FFD366"/>
<path d="M36.6838 28.3158L36.429 29.47C36.3781 29.6496 36.6583 29.6752 36.6838 29.5213L36.9385 28.3671C36.9895 28.1876 36.7347 28.1363 36.6838 28.3158Z" fill="#FFD366"/>
<path d="M38.34 28.6753L38.0853 29.7782C38.0343 29.9577 38.3146 29.9834 38.34 29.8295L38.5948 28.7266C38.6457 28.547 38.3655 28.5214 38.34 28.6753Z" fill="#FFD366"/>
<path d="M39.8176 28.932L39.5628 30.0349C39.5119 30.2145 39.7921 30.2401 39.8176 30.0862C39.894 29.7272 39.9959 29.3681 40.0723 28.9833C40.1233 28.8038 39.8685 28.7525 39.8176 28.932Z" fill="#FFD366"/>
<path d="M41.6509 29.291C41.6764 29.1115 41.4217 29.0858 41.3962 29.2397L41.1414 30.4965C41.116 30.6761 41.3707 30.7017 41.3962 30.5478L41.6509 29.291Z" fill="#FFD366"/>
<path d="M43.3836 29.06C43.2307 29.6243 43.1034 30.1886 42.9505 30.7785C42.8996 30.9581 43.1798 30.9837 43.2053 30.8298C43.3581 30.2655 43.4855 29.7013 43.6383 29.1113C43.7148 28.9318 43.4345 28.9061 43.3836 29.06Z" fill="#FFD366"/>
<path d="M45.3198 28.9059L44.5555 31.3169C44.5046 31.4708 44.7593 31.599 44.8103 31.4195C45.065 30.6244 45.3198 29.8036 45.5745 29.0085C45.6255 28.8546 45.3707 28.7263 45.3198 28.9059Z" fill="#FFD366"/>
<path d="M44.3777 24.9558C40.7093 25.4688 36.9899 24.5968 33.9328 22.5192C33.78 22.4166 33.6271 22.6218 33.7545 22.7244C36.888 24.8532 40.6838 25.751 44.4032 25.238C44.5815 25.2123 44.5561 24.9302 44.3777 24.9558Z" fill="#FFD366"/>
<path d="M48.097 22.6479L47.4092 25.6745L32.4551 22.2375L33.1429 19.2109C33.1429 19.2109 35.3848 21.4681 40.2506 22.5966C45.1164 23.7252 48.097 22.6479 48.097 22.6479Z" fill="#FFDF77"/>
<path d="M33.1426 19.2109L48.0967 22.6479C48.0967 22.6479 45.0905 23.6995 40.2502 22.5966C35.4099 21.4937 33.1426 19.2109 33.1426 19.2109Z" fill="#EDC24A"/>
<path d="M44.7593 23.058C44.8102 22.8785 45.065 22.9811 45.014 23.135C44.8612 23.7249 44.6829 24.3405 44.53 24.9304C44.4791 25.11 44.2243 25.0074 44.2753 24.8535C44.4281 24.2635 44.581 23.6736 44.7593 23.058Z" fill="#FFEA92"/>
<path d="M43.1033 23.1869C43.1543 23.0074 43.409 23.11 43.3581 23.2639C43.2562 23.6743 43.1543 24.0847 43.0779 24.4694C43.0269 24.6489 42.7722 24.5463 42.8231 24.3924C42.8995 24.0077 43.0014 23.5973 43.1033 23.1869Z" fill="#FFEA92"/>
<path d="M41.4228 22.9555C41.4737 22.7759 41.7285 22.8785 41.6775 23.0324C41.5756 23.4172 41.4737 23.8019 41.3718 24.161C41.3209 24.3405 41.0661 24.2379 41.1171 24.084C41.219 23.6993 41.3209 23.3402 41.4228 22.9555Z" fill="#FFEA92"/>
<path d="M40.072 22.6479L39.7917 23.8534C39.7408 24.0329 39.486 23.9303 39.537 23.7764L39.8172 22.5709C39.8682 22.3914 40.1229 22.4683 40.072 22.6479Z" fill="#FFEA92"/>
<path d="M38.1103 22.058C38.1613 21.8785 38.416 21.9811 38.3651 22.135C38.2632 22.571 38.1613 22.9814 38.0339 23.4174C37.983 23.597 37.7282 23.4944 37.7792 23.3405C37.8811 22.9301 38.0084 22.4941 38.1103 22.058Z" fill="#FFEA92"/>
<path d="M36.8118 21.6215C36.7099 22.0832 36.608 22.5705 36.506 23.0322C36.4806 23.2118 36.2003 23.1348 36.2513 22.9553C36.3532 22.4936 36.4551 22.0063 36.557 21.5446C36.5825 21.365 36.8372 21.442 36.8118 21.6215Z" fill="#FFEA92"/>
<path d="M35.3084 20.9294C35.2065 21.468 35.1046 22.0067 34.9772 22.5709C34.9518 22.7505 34.697 22.6735 34.7225 22.494C34.8244 21.9554 34.9263 21.4167 35.0537 20.8524C35.0791 20.6985 35.3339 20.7755 35.3084 20.9294Z" fill="#FFEA92"/>
<path d="M33.9837 19.9543C33.8308 20.8007 33.6779 21.6471 33.5251 22.4936C33.4996 22.6731 33.2449 22.5962 33.2703 22.4166C33.4232 21.5702 33.576 20.7238 33.7289 19.8774C33.7544 19.6978 34.0091 19.8004 33.9837 19.9543Z" fill="#FFEA92"/>
<path d="M31.8177 12.6191L31.1299 15.6457L46.084 19.0827L46.7718 16.0561C46.7718 16.0561 43.7657 17.1077 38.9254 16.0048C34.085 14.9019 31.8177 12.6191 31.8177 12.6191Z" fill="#FFDF77"/>
<path d="M46.7724 16.0561L31.8184 12.6191C31.8184 12.6191 34.0602 14.8763 38.926 16.0048C43.7918 17.1334 46.7724 16.0561 46.7724 16.0561Z" fill="#EDC24A"/>
<path d="M31.1302 15.6201L30.4424 18.6467L45.3965 22.0837L46.0843 19.0571C46.0843 19.0571 43.0782 20.1087 38.2379 19.0058C33.3975 17.9029 31.1302 15.6201 31.1302 15.6201Z" fill="#F4B34A"/>
<path d="M46.1093 19.0571L31.1553 15.6201C31.1553 15.6201 33.3971 17.8772 38.2629 19.0058C43.1287 20.1344 46.1093 19.0571 46.1093 19.0571Z" fill="#EDC24A"/>
<path d="M32.9648 13.543C32.9903 13.3634 32.7356 13.3378 32.7101 13.4917C32.5827 14.2868 32.4553 15.0819 32.328 15.877C32.3025 16.0566 32.5572 16.0822 32.5827 15.9283C32.7356 15.1332 32.8629 14.3381 32.9648 13.543Z" fill="#FFEA92"/>
<path d="M34.6453 14.4404C34.6708 14.2609 34.4161 14.2352 34.3906 14.3891C34.2887 15.0047 34.1613 15.6203 34.0594 16.2102C34.0339 16.3898 34.2887 16.4154 34.3142 16.2615C34.4161 15.6716 34.5434 15.056 34.6453 14.4404Z" fill="#FFEA92"/>
<path d="M36.0728 15.2871C36.0983 15.1076 35.8435 15.0819 35.8181 15.2358C35.7416 15.6462 35.6397 16.0566 35.5633 16.467C35.5378 16.6465 35.7926 16.6722 35.8181 16.5183C35.8945 16.0822 35.9964 15.6975 36.0728 15.2871Z" fill="#FFEA92"/>
<path d="M37.7026 15.7998C37.7281 15.6203 37.4733 15.5946 37.4479 15.7485C37.3714 16.1332 37.295 16.518 37.2186 16.9027C37.1931 17.0823 37.4479 17.1079 37.4733 16.954C37.5498 16.5693 37.6262 16.1845 37.7026 15.7998Z" fill="#FFEA92"/>
<path d="M39.0276 16.1078L38.7474 17.3133C38.6964 17.4929 38.9767 17.5185 39.0021 17.3646L39.2824 16.1591C39.3333 15.9796 39.0786 15.9283 39.0276 16.1078Z" fill="#FFEA92"/>
<path d="M41.066 16.4404C41.0915 16.2609 40.8367 16.2352 40.8112 16.3891C40.7348 16.8252 40.6329 17.2612 40.5565 17.6716C40.531 17.8511 40.7858 17.8768 40.8112 17.7229C40.8877 17.3125 40.9896 16.8765 41.066 16.4404Z" fill="#FFEA92"/>
<path d="M42.4409 16.6205C42.339 17.0822 42.2116 17.5439 42.1097 18.0312C42.0587 18.2108 42.339 18.2364 42.3644 18.0825C42.4663 17.6208 42.5937 17.1591 42.6956 16.6718C42.7466 16.4923 42.4918 16.441 42.4409 16.6205Z" fill="#FFEA92"/>
<path d="M44.072 16.6713C43.9446 17.2099 43.7918 17.7486 43.6644 18.2872C43.6134 18.4667 43.8937 18.4924 43.9191 18.3385C44.0465 17.7999 44.1994 17.2612 44.3267 16.7226C44.4032 16.543 44.1229 16.4917 44.072 16.6713Z" fill="#FFEA92"/>
<path d="M45.7018 16.3637C45.4725 17.2101 45.2433 18.0309 45.014 18.8773C44.963 19.0568 45.2433 19.0825 45.2687 18.9286C45.498 18.0822 45.7273 17.2614 45.9566 16.415C46.0075 16.2354 45.7273 16.1841 45.7018 16.3637Z" fill="#FFEA92"/>
<path d="M31.7923 16.2871C31.8178 16.1076 31.5631 16.0819 31.5376 16.2358L31.0535 18.5699C31.0281 18.7494 31.2828 18.7751 31.3083 18.6212L31.7923 16.2871Z" fill="#FFD366"/>
<path d="M33.3975 17.3389C33.4229 17.1593 33.1682 17.1337 33.1427 17.2876C33.0153 17.9032 32.888 18.4931 32.7606 19.1087C32.7351 19.2882 32.9899 19.3139 33.0153 19.16C33.1427 18.57 33.2701 17.9545 33.3975 17.3389Z" fill="#FFD366"/>
<path d="M34.9263 18.2358C34.7989 18.6975 34.697 19.1335 34.5697 19.5952C34.5187 19.7748 34.7989 19.8004 34.8244 19.6465C34.9518 19.1848 35.0537 18.7488 35.1811 18.2871C35.232 18.1076 34.9518 18.0819 34.9263 18.2358Z" fill="#FFD366"/>
<path d="M36.633 18.8002L36.3782 19.9544C36.3273 20.134 36.6075 20.1596 36.633 20.0057L36.8878 18.8515C36.9387 18.672 36.684 18.6207 36.633 18.8002Z" fill="#FFD366"/>
<path d="M38.2893 19.1596L38.0345 20.2626C37.9835 20.4421 38.2638 20.4677 38.2893 20.3139L38.544 19.2109C38.595 19.0314 38.3147 19.0057 38.2893 19.1596Z" fill="#FFD366"/>
<path d="M39.7668 19.4164L39.512 20.5193C39.4611 20.6989 39.7413 20.7245 39.7668 20.5706C39.8432 20.2115 39.9451 19.8524 40.0215 19.4677C40.0725 19.2882 39.8177 19.2369 39.7668 19.4164Z" fill="#FFD366"/>
<path d="M41.6002 19.7754C41.6256 19.5959 41.3709 19.5702 41.3454 19.7241L41.0907 20.9809C41.0652 21.1604 41.3199 21.1861 41.3454 21.0322L41.6002 19.7754Z" fill="#FFD366"/>
<path d="M43.3328 19.5444C43.18 20.1087 43.0526 20.673 42.8997 21.2629C42.8488 21.4424 43.129 21.4681 43.1545 21.3142C43.3073 20.7499 43.4347 20.1856 43.5876 19.5957C43.664 19.4162 43.3838 19.3905 43.3328 19.5444Z" fill="#FFD366"/>
<path d="M45.269 19.3902L44.5047 21.8013C44.4538 21.9552 44.7085 22.0834 44.7595 21.9039C45.0143 21.1087 45.269 20.288 45.5238 19.4928C45.5747 19.3389 45.32 19.2107 45.269 19.3902Z" fill="#FFD366"/>
<path d="M44.327 15.4402C40.6585 15.9532 36.9391 15.0811 33.882 13.0035C33.7292 12.901 33.5763 13.1061 33.7037 13.2087C36.8372 15.3376 40.633 16.2353 44.3524 15.7224C44.5308 15.6967 44.5053 15.4146 44.327 15.4402Z" fill="#FFD366"/>
<path d="M51.3068 27.7265C51.4342 26.1619 51.7399 24.5973 52.1984 23.084C53.9053 23.2122 55.5612 23.9048 56.8604 25.0333L56.835 25.059C56.5292 25.7258 56.249 26.3927 55.9433 27.0596C55.3829 28.3164 54.8224 29.5989 54.0836 30.7787C53.1665 32.2407 51.9946 33.4975 50.7973 34.7287C49.1923 36.3959 47.4855 38.0118 45.5239 39.2173C45.422 39.2686 45.3201 39.3455 45.2182 39.3968C43.9699 40.628 42.8744 42.0131 41.9573 43.5264C41.6771 43.988 41.3968 44.501 40.9128 44.7575C40.4797 44.9884 39.9447 44.9884 39.4607 44.8345C38.9767 44.6806 38.5691 44.4241 38.136 44.1419C37.9067 43.988 37.652 43.8085 37.652 43.5264C37.652 43.3725 37.7284 43.2186 37.8303 43.0903C38.3907 42.2182 38.9512 41.3718 39.5117 40.4998C38.5436 40.6023 37.8303 41.8592 36.8877 41.6027C37.5755 39.9098 39.3079 38.9095 41.0147 38.2683C41.728 38.0118 42.5178 37.7553 43.0273 37.191L43.1292 37.268C43.9444 36.242 44.7596 35.216 45.6003 34.1901C45.6767 34.0875 45.7531 33.9849 45.8296 33.8823C47.5364 31.7534 49.2433 29.5989 51.2304 27.7265H51.3068Z" fill="#FFCBA4"/>
<path d="M32.0222 42.013C30.6466 41.9617 29.5002 41.3461 28.8633 40.4484C28.8123 40.3714 28.8633 40.2688 28.9397 40.2432C29.118 39.9097 29.9842 39.7815 30.4682 39.8841C31.1815 40.0123 31.8949 40.2175 32.5572 40.4484C32.9903 40.6023 33.7291 40.8331 33.9074 41.2178C34.2895 41.936 32.5827 42.0386 32.0222 42.013Z" fill="#FFCBA4"/>
<path d="M50.0589 13.7221L49.3711 16.7487L34.417 13.3118L35.1048 10.2852C35.1048 10.2852 37.3467 12.5423 42.2125 13.6708C47.0783 14.7994 50.0589 13.7221 50.0589 13.7221Z" fill="#FFDF77"/>
<path d="M35.1045 10.2852L50.0586 13.7221C50.0586 13.7221 47.0525 14.7738 42.2121 13.6708C37.3718 12.5679 35.1045 10.2852 35.1045 10.2852Z" fill="#EDC24A"/>
<path d="M46.7212 14.1322C46.7722 13.9527 47.0269 14.0553 46.976 14.2092C46.8231 14.7991 46.6448 15.4147 46.4919 16.0046C46.441 16.1842 46.1862 16.0816 46.2372 15.9277C46.4155 15.3378 46.5683 14.7478 46.7212 14.1322Z" fill="#FFEA92"/>
<path d="M45.0916 14.2611C45.1426 14.0816 45.3973 14.1842 45.3464 14.3381C45.2445 14.7485 45.1426 15.1589 45.0661 15.5436C45.0152 15.7231 44.7604 15.6206 44.8114 15.4667C44.8878 15.0819 44.9897 14.6715 45.0916 14.2611Z" fill="#FFEA92"/>
<path d="M43.4101 14.0297C43.461 13.8502 43.7158 13.9528 43.6648 14.1067C43.5629 14.4914 43.461 14.8761 43.3591 15.2352C43.3082 15.4148 43.0534 15.3122 43.1044 15.1583C43.2063 14.7992 43.3082 14.4144 43.4101 14.0297Z" fill="#FFEA92"/>
<path d="M42.0593 13.7221L41.779 14.9276C41.7281 15.1072 41.4733 15.0046 41.5243 14.8507L41.8045 13.6452C41.83 13.4656 42.0847 13.5426 42.0593 13.7221Z" fill="#FFEA92"/>
<path d="M40.0723 13.1322C40.1232 12.9527 40.378 13.0553 40.327 13.2092C40.2251 13.6452 40.1232 14.0556 39.9958 14.4916C39.9449 14.6712 39.6901 14.5686 39.7411 14.4147C39.8685 14.0043 39.9704 13.5683 40.0723 13.1322Z" fill="#FFEA92"/>
<path d="M38.7737 12.6957C38.6718 13.1574 38.5699 13.6448 38.468 14.1064C38.4425 14.286 38.1623 14.209 38.2132 14.0295C38.3151 13.5678 38.417 13.0805 38.5189 12.6188C38.5444 12.4392 38.7991 12.5162 38.7737 12.6957Z" fill="#FFEA92"/>
<path d="M37.2703 12.0297C37.1684 12.5684 37.0665 13.107 36.9392 13.6713C36.9137 13.8508 36.6589 13.7739 36.6844 13.5943C36.7863 13.0557 36.8882 12.5171 37.0156 11.9528C37.0411 11.7732 37.2958 11.8502 37.2703 12.0297Z" fill="#FFEA92"/>
<path d="M35.9456 11.0285C35.7927 11.8749 35.6399 12.7214 35.487 13.5678C35.4615 13.7473 35.2068 13.6704 35.2323 13.4908C35.3851 12.6444 35.538 11.798 35.6908 10.9516C35.7163 10.772 35.9965 10.8746 35.9456 11.0285Z" fill="#FFEA92"/>
<path d="M61.9303 10.9523C62.0322 10.6958 62.0831 10.388 61.9303 10.1571C61.6755 9.82369 61.1405 9.95194 60.7584 10.1315C60.3763 10.311 59.8922 10.5162 59.5611 10.2597C59.7649 9.6698 59.9687 9.10552 60.1725 8.51558C60.4272 7.82306 60.631 6.95099 60.147 6.38671C59.7649 5.95067 59.1025 5.89937 58.5166 5.79678C57.7013 5.64288 56.9116 5.25814 56.2747 4.69386C56.1983 4.64256 56.1219 4.61691 56.0709 4.53997C55.485 4.05263 55.2812 3.07797 55.6888 2.41109C56.1474 1.59032 57.2428 1.25688 58.109 1.53902C58.6185 1.71856 59.1025 2.052 59.6375 2.1546C59.9941 2.20589 60.3508 2.1546 60.7075 2.25719C61.7265 2.56498 61.9303 3.97569 62.7455 4.64256C62.9238 4.79646 63.1276 4.89906 63.2805 5.05295C63.8154 5.64288 63.5352 6.5919 63.2295 7.33572C63.7645 7.59222 64.3759 8.02825 64.2485 8.59253C64.1976 8.82337 64.0193 9.00292 63.8919 9.20811C63.5862 9.6698 63.5097 10.2597 63.3059 10.7727C62.7455 12.2091 61.0386 13.0555 59.5611 12.6964C59.6884 12.6451 59.8413 12.6194 59.9687 12.5938C60.8094 12.4656 61.5991 11.7987 61.9303 10.9523Z" fill="#273435"/>
<path d="M61.9052 10.1572C62.058 10.388 62.0071 10.6958 61.9052 10.9523C61.574 11.7987 60.7843 12.4656 59.8926 12.6452C59.7652 12.6708 59.6124 12.6965 59.485 12.7478C59.4595 12.7734 59.4086 12.7991 59.3831 12.8247C59.2812 12.9017 59.2303 13.0299 59.1538 13.1325C58.8991 13.6711 58.4405 14.5945 58.1858 15.1331C57.396 14.7997 56.4789 14.8253 55.7147 15.2101C55.1542 15.5179 54.6956 15.9796 54.3135 16.5182C53.4219 16.5438 52.5048 16.5695 51.6641 16.8003C52.199 15.4153 53.0397 14.0559 52.9633 12.5682C52.9124 12.5426 52.8614 12.5169 52.785 12.4913C52.5557 12.3887 52.3519 12.2861 52.2245 12.0809C52.0717 11.8244 52.1481 11.491 52.2245 11.2088C52.9124 8.7465 54.2116 6.46372 55.9439 4.59134L55.9694 4.54004C56.0458 4.59134 56.0968 4.64264 56.1732 4.69393C56.8101 5.25821 57.5998 5.64295 58.415 5.79685C59.001 5.89944 59.6633 5.95074 60.0455 6.38678C60.5295 6.95106 60.3257 7.79748 60.071 8.51566C59.8671 9.10559 59.6633 9.66987 59.4595 10.2598C59.7907 10.5163 60.2748 10.3111 60.6569 10.1316C61.1154 9.95201 61.6759 9.82376 61.9052 10.1572Z" fill="#FFCBA4"/>
<path d="M58.6445 13.0044C56.8867 13.4661 55.078 13.3379 53.3966 12.6197C53.2437 12.5428 53.1163 12.7992 53.2692 12.8762C55.027 13.62 56.9122 13.7483 58.7464 13.2609C58.8993 13.2096 58.8228 12.9531 58.6445 13.0044Z" fill="#F7B589"/>
</svg>
