<svg width="72" height="51" viewBox="0 0 72 51" fill="none" xmlns="http://www.w3.org/2000/svg">
<path opacity="0.46" d="M36.9051 50.3731C53.6509 50.3731 67.2261 49.1056 67.2261 47.542C67.2261 45.9785 53.6509 44.7109 36.9051 44.7109C20.1592 44.7109 6.58398 45.9785 6.58398 47.542C6.58398 49.1056 20.1592 50.3731 36.9051 50.3731Z" fill="#CACACA"/>
<path d="M72 0L49.2676 6.39926L54.7622 11.9609C48.6645 18.1591 41.0423 25.9488 40.8413 26.3174C40.5063 26.9372 34.5761 14.8255 34.5761 14.8255L18.5947 32.4988L12.765 24.7762L0 39.0321L11.9107 30.9242L18.3434 39.3169L32.6999 24.7259L38.8311 37.2397L60.1899 17.4556L66.1033 23.436L72 0Z" fill="#D03240"/>
<path d="M39.0654 37.2732L60.6085 17.8912L59.3856 16.417L39.0654 37.2732Z" fill="#AE2436"/>
<path d="M18.3438 39.3166L33.521 26.3673L32.7169 24.7256L18.3438 39.3166Z" fill="#AE2436"/>
<path d="M11.9107 30.9238L0 39.0318L12.7148 31.9792L11.9107 30.9238Z" fill="#AE2436"/>
<path d="M49.7868 25.2954C47.1232 20.7053 39.9701 22.7658 39.9534 22.7658C37.8929 25.3959 35.2125 29.4666 33.9729 34.0734C31.8119 42.0474 34.4587 46.0511 34.4587 46.0511C34.4587 46.0511 35.9329 49.1334 44.5937 48.2791C47.542 47.9776 50.2223 48.0948 52.4838 48.0446C56.32 40.2214 52.4671 29.8854 49.7868 25.2954Z" fill="#404799"/>
<path d="M59.8377 41.9805C60.022 34.9949 53.5892 22.7492 49.0327 19.6836H42.6334C42.6334 19.6836 41.4608 20.8395 39.9531 22.766C39.9866 22.766 47.123 20.7055 49.7865 25.2955C52.4669 29.8855 56.3198 40.2215 52.4836 48.0279C56.8726 47.9442 59.7037 47.2741 59.8377 41.9805Z" fill="#3B448E"/>
<path d="M42.6338 19.6833C42.6338 19.6833 37.2732 11.8267 41.0423 11.9607C44.8115 12.0947 44.1247 13.4516 46.4867 13.2003C48.8488 12.949 49.3011 11.2571 52.0316 12.2957C54.7622 13.3343 48.4467 20.4204 48.4467 20.4204L42.6338 19.6833Z" fill="#404799"/>
<path d="M48.2453 30.3046C48.7478 30.3046 49.1666 29.8858 49.1666 29.3833C49.1666 28.8807 48.7478 28.4619 48.2453 28.4619H43.0689H40.9917C40.4891 28.4619 40.0703 28.8807 40.0703 29.3833C40.0703 29.8858 40.4891 30.3046 40.9917 30.3046H43.0689C43.9568 30.3046 44.7106 30.8239 45.0624 31.5778H40.9917C40.4891 31.5778 40.0703 31.9966 40.0703 32.4991C40.0703 33.0017 40.4891 33.4205 40.9917 33.4205H45.0624C44.7106 34.1743 43.9568 34.6937 43.0689 34.6937H40.9917C40.6231 34.6937 40.2713 34.9282 40.1373 35.2632C40.0033 35.615 40.0871 36.0171 40.3551 36.2683L45.5315 41.1599C45.699 41.3274 45.9335 41.4112 46.168 41.4112C46.4193 41.4112 46.6538 41.3107 46.8381 41.1264C47.1899 40.7579 47.1732 40.1883 46.8046 39.8365L43.2867 36.5196C45.0959 36.4191 46.5868 35.1292 46.9889 33.4205H48.2453C48.7478 33.4205 49.1666 33.0017 49.1666 32.4991C49.1666 31.9966 48.7478 31.5778 48.2453 31.5778H46.9889C46.8716 31.1255 46.7041 30.6732 46.4361 30.3046H48.2453Z" fill="#E9F4F9"/>
<path d="M45.8665 48.1617C45.8665 48.1617 40.3719 48.1617 38.948 45.1631C38.948 45.1631 38.6799 47.5251 40.8577 48.3962C40.8577 48.413 44.7274 48.5302 45.8665 48.1617Z" fill="#3B448E"/>
<path d="M47.8604 17.8913C47.8604 17.8913 49.6528 15.1775 50.1386 11.9443C50.1386 11.9443 53.8408 11.5926 52.4839 14.4571C52.4839 14.4571 51.8976 16.3334 49.6026 19.0304L47.8604 17.8913Z" fill="#3B448E"/>
<path d="M42.6844 19.9683C42.4834 19.9683 42.2824 19.8678 42.1651 19.7003C41.9809 19.4155 42.0646 19.0469 42.3327 18.8627C42.4499 18.7789 45.4653 16.8357 49.6365 18.3266C49.9548 18.4439 50.1223 18.7789 50.0051 19.0972C49.8878 19.4155 49.5528 19.583 49.2345 19.4657C45.6495 18.1926 43.1032 19.8008 43.0027 19.8678C42.9022 19.9348 42.785 19.9683 42.6844 19.9683Z" fill="#18186B"/>
<path d="M50.4571 20.9564C50.3901 20.9564 50.3231 20.9397 50.2561 20.9229C44.996 19.0802 41.6288 20.8726 41.5953 20.8894C41.3105 21.0569 40.942 20.9397 40.7745 20.6549C40.6069 20.3701 40.7242 20.0015 41.009 19.834C41.1598 19.7503 44.8955 17.7735 50.6581 19.8005C50.9764 19.9178 51.1439 20.2528 51.0267 20.5711C50.9429 20.8056 50.7084 20.9564 50.4571 20.9564Z" fill="#1C1980"/>
<path d="M46.8384 25.3458C46.7546 25.3458 46.6876 25.329 46.6038 25.2955C46.3023 25.1615 46.1515 24.8097 46.2855 24.5082C47.8267 20.8562 46.5033 20.1359 46.4866 20.1359C46.5033 20.1359 46.4196 20.1024 46.4196 20.1024L46.9556 19.0303C47.0226 19.0638 47.6257 19.3318 47.9775 20.1862C48.4465 21.3253 48.2455 22.9502 47.3744 24.994C47.2907 25.2118 47.0729 25.3458 46.8384 25.3458Z" fill="#1C1980"/>
<path d="M51.9652 27.0711C51.6302 27.1214 51.3287 26.8868 51.2784 26.5518C51.2784 26.535 51.1276 25.4294 50.5581 24.173C49.821 22.5313 48.7824 21.4089 47.459 20.8226C47.1574 20.6886 47.0234 20.3368 47.1574 20.0185C47.2914 19.717 47.6432 19.583 47.9615 19.717C51.781 21.4089 52.4678 26.2 52.5013 26.401C52.518 26.7193 52.2835 27.0209 51.9652 27.0711Z" fill="#1C1980"/>
<path fill-rule="evenodd" clip-rule="evenodd" d="M12.7148 44.6943C12.7148 44.6943 22.1462 44.1582 31.5776 44.6943H12.7148Z" fill="#F1E28E"/>
<path d="M31.5776 44.6943H12.7148V47.2071H31.5776V44.6943Z" fill="#CA9A27"/>
<mask id="mask0_3_9412" style="mask-type:luminance" maskUnits="userSpaceOnUse" x="12" y="44" width="20" height="4">
<path d="M31.5776 44.6943H12.7148V47.2071H31.5776V44.6943Z" fill="white"/>
</mask>
<g mask="url(#mask0_3_9412)">
<path d="M13.5527 48.0118V44.3096" stroke="#ECD757" stroke-width="1.8694" stroke-miterlimit="10"/>
<path d="M14.9932 47.9278V44.2256" stroke="#ECD757" stroke-width="1.8694" stroke-miterlimit="10"/>
<path d="M16.4346 47.8604V44.1582" stroke="#ECD757" stroke-width="1.8694" stroke-miterlimit="10"/>
<path d="M17.8916 47.71V44.0078" stroke="#ECD757" stroke-width="1.8694" stroke-miterlimit="10"/>
<path d="M19.332 47.8272V44.125" stroke="#ECD757" stroke-width="1.8694" stroke-miterlimit="10"/>
<path d="M20.7725 47.8272V44.125" stroke="#ECD757" stroke-width="1.8694" stroke-miterlimit="10"/>
<path d="M22.2139 48.0118V44.3096" stroke="#ECD757" stroke-width="1.8694" stroke-miterlimit="10"/>
<path d="M23.6543 47.8272V44.125" stroke="#ECD757" stroke-width="1.8694" stroke-miterlimit="10"/>
<path d="M27.9766 47.9952V44.293" stroke="#ECD757" stroke-width="1.8694" stroke-miterlimit="10"/>
<path d="M25.0947 47.8272V44.125" stroke="#ECD757" stroke-width="1.8694" stroke-miterlimit="10"/>
<path d="M29.417 47.8272V44.125" stroke="#ECD757" stroke-width="1.8694" stroke-miterlimit="10"/>
<path d="M26.5352 47.8946V44.1924" stroke="#ECD757" stroke-width="1.8694" stroke-miterlimit="10"/>
<path d="M30.8574 47.7774V44.0752" stroke="#ECD757" stroke-width="1.8694" stroke-miterlimit="10"/>
</g>
<path fill-rule="evenodd" clip-rule="evenodd" d="M11.8936 41.7793C11.8936 41.7793 21.3249 41.2432 30.7563 41.7793H11.8936Z" fill="#F1E28E"/>
<path d="M30.7563 41.7793H11.8936V44.2921H30.7563V41.7793Z" fill="#CA9A27"/>
<mask id="mask1_3_9412" style="mask-type:luminance" maskUnits="userSpaceOnUse" x="11" y="41" width="20" height="4">
<path d="M30.7563 41.7793H11.8936V44.2921H30.7563V41.7793Z" fill="white"/>
</mask>
<g mask="url(#mask1_3_9412)">
<path d="M12.748 45.08V41.3945" stroke="#ECD757" stroke-width="1.8694" stroke-miterlimit="10"/>
<path d="M14.1885 45.0127V41.3105" stroke="#ECD757" stroke-width="1.8694" stroke-miterlimit="10"/>
<path d="M15.6299 44.9453V41.2432" stroke="#ECD757" stroke-width="1.8694" stroke-miterlimit="10"/>
<path d="M17.0703 44.795V41.0928" stroke="#ECD757" stroke-width="1.8694" stroke-miterlimit="10"/>
<path d="M18.5107 44.9121V41.21" stroke="#ECD757" stroke-width="1.8694" stroke-miterlimit="10"/>
<path d="M19.9512 44.9121V41.21" stroke="#ECD757" stroke-width="1.8694" stroke-miterlimit="10"/>
<path d="M21.3916 45.0967V41.3945" stroke="#ECD757" stroke-width="1.8694" stroke-miterlimit="10"/>
<path d="M22.8496 44.9121V41.21" stroke="#ECD757" stroke-width="1.8694" stroke-miterlimit="10"/>
<path d="M27.1719 45.0801V41.3779" stroke="#ECD757" stroke-width="1.8694" stroke-miterlimit="10"/>
<path d="M24.29 44.9121V41.21" stroke="#ECD757" stroke-width="1.8694" stroke-miterlimit="10"/>
<path d="M28.6123 44.8955V41.1934" stroke="#ECD757" stroke-width="1.8694" stroke-miterlimit="10"/>
<path d="M25.7305 44.9795V41.2773" stroke="#ECD757" stroke-width="1.8694" stroke-miterlimit="10"/>
<path d="M30.0527 44.8623V41.1602" stroke="#ECD757" stroke-width="1.8694" stroke-miterlimit="10"/>
</g>
<path d="M28.4279 48.1956C33.1834 48.1956 37.0384 44.3406 37.0384 39.5851C37.0384 34.8297 33.1834 30.9746 28.4279 30.9746C23.6724 30.9746 19.8174 34.8297 19.8174 39.5851C19.8174 44.3406 23.6724 48.1956 28.4279 48.1956Z" fill="#CA9A27"/>
<path d="M28.0597 48.1956C32.8152 48.1956 36.6702 44.3406 36.6702 39.5851C36.6702 34.8297 32.8152 30.9746 28.0597 30.9746C23.3043 30.9746 19.4492 34.8297 19.4492 39.5851C19.4492 44.3406 23.3043 48.1956 28.0597 48.1956Z" fill="#ECD757"/>
<path d="M28.0597 48.1956C32.8152 48.1956 36.6702 44.3406 36.6702 39.5851C36.6702 34.8297 32.8152 30.9746 28.0597 30.9746C23.3043 30.9746 19.4492 34.8297 19.4492 39.5851C19.4492 44.3406 23.3043 48.1956 28.0597 48.1956Z" fill="#ECD757"/>
<path d="M28.0595 46.537C31.899 46.537 35.0116 43.4244 35.0116 39.5849C35.0116 35.7454 31.899 32.6328 28.0595 32.6328C24.22 32.6328 21.1074 35.7454 21.1074 39.5849C21.1074 43.4244 24.22 46.537 28.0595 46.537Z" fill="#CA9A27"/>
<path d="M28.0599 32.6494C28.0097 32.6494 27.9594 32.6494 27.9092 32.6494C31.6784 32.7332 34.6937 35.8155 34.6937 39.5847C34.6937 43.3707 31.6616 46.453 27.9092 46.5201C27.9594 46.5201 28.0097 46.5201 28.0599 46.5201C31.8961 46.5201 35.012 43.4042 35.012 39.568C35.012 35.7318 31.8961 32.6494 28.0599 32.6494Z" fill="#F1E28E"/>
<path d="M21.5765 39.5847C21.5765 35.8323 24.5583 32.7667 28.294 32.6494C28.2103 32.6494 28.1433 32.6494 28.0595 32.6494C24.2233 32.6494 21.1074 35.7653 21.1074 39.6015C21.1074 43.4377 24.2233 46.5536 28.0595 46.5536C28.1433 46.5536 28.2103 46.5536 28.294 46.5536C24.5751 46.4028 21.5765 43.3539 21.5765 39.5847Z" fill="#B68D24"/>
<path fill-rule="evenodd" clip-rule="evenodd" d="M29.1489 36.7541C29.4001 37.1059 29.5844 37.4745 29.6849 37.8933H30.9581L30.4723 39.3675H29.7687C29.5677 40.8919 28.4955 42.0813 27.0046 42.2991L29.2829 45.5154H27.4737L25.1954 42.3326V40.8751H26.435C27.3396 40.8751 28.0935 40.2553 28.2778 39.401H24.8604L25.3462 37.9268H28.1605C27.8757 37.2567 27.2056 36.7877 26.4183 36.7877H24.8604L25.3462 35.3135H30.9413L30.4555 36.7877L29.1489 36.7541Z" fill="#B68D24"/>
<path fill-rule="evenodd" clip-rule="evenodd" d="M29.4671 36.4525C29.7183 36.8043 29.9026 37.1729 30.0031 37.5917H31.2763L30.7905 39.0658H30.0869C29.8859 40.5903 28.8137 41.7797 27.3228 41.9974L29.6011 45.2138H27.8086L25.5304 42.0309V40.5568H26.77C27.6746 40.5568 28.4284 39.937 28.6127 39.0826H25.1953L25.6811 37.6084H28.4955C28.2107 36.9383 27.5406 36.4693 26.7532 36.4693H25.1953L25.6811 34.9951H31.2763L30.7905 36.4693L29.4671 36.4525Z" fill="#ECD757"/>
</svg>
