<svg width="82" height="82" viewBox="0 0 82 82" fill="none" xmlns="http://www.w3.org/2000/svg">
<g filter="url(#filter0_d_4_3)">
<path d="M68.8715 13.8995C60.0342 1.82185 44.9026 1.06668 43.9661 1.0236C32.0325 0.471167 23.5124 6.54798 20.4414 8.80841C18.2105 10.4505 15.1167 12.7692 12.2285 16.8466C10.9112 18.7067 6.32254 25.6096 6.24894 34.8971C6.13473 49.334 17.0177 58.7305 18.9948 60.3676C29.6823 69.2218 48.3772 73.6311 62.3971 63.5301C78.8636 51.6679 78.6961 27.3277 68.8715 13.8995Z" fill="#F4F7FA"/>
<path d="M50.2929 62.6179C49.8792 62.4735 49.1051 61.7943 48.9782 61.5333C48.1229 59.8025 46.3133 56.6678 46.8539 54.6988C46.9453 54.3617 48.5366 54.3693 48.8158 54.1007C49.831 53.8575 50.1964 53.8372 51.0467 53.1352C53.5593 51.0598 50.0239 45.4214 55.6379 44.8867C59.7495 44.4939 62.7265 46.5085 63.5768 40.4418C64.427 34.3752 71.4801 24.4845 76.9216 29.9886C80.0433 33.1487 75.2845 37.4541 76.3581 41.5974C77.3784 45.5354 75.2439 48.1481 71.0004 49.4886C66.7569 50.8267 68.4345 52.8996 68.8177 56.5183C69.2796 60.8643 62.861 60.2637 59.922 59.7341C57.5541 59.3058 51.237 59.8152 50.2929 62.6179Z" fill="url(#paint0_linear_4_3)"/>
<mask id="mask0_4_3" style="mask-type:luminance" maskUnits="userSpaceOnUse" x="45" y="28" width="33" height="36">
<path d="M45.9961 53.9848C46.3133 56.9776 46.5138 60.0388 46.8184 63.0544C48.4681 63.5435 50.4198 64.0807 51.2269 62.099C52.3487 59.3445 57.5618 59.2912 59.9246 59.7296C62.8484 60.2719 69.2822 60.8624 68.8152 56.5189C68.4269 52.9027 66.7544 50.8298 70.9954 49.4918C75.2389 48.1538 77.3708 45.5386 76.3531 41.6006C75.2795 37.4573 80.0383 33.1518 76.9165 29.9918C71.4776 24.4851 64.4194 34.3859 63.5743 40.4425C62.7291 46.499 59.7317 44.5199 55.6379 44.8823C50.0467 45.3789 53.4933 51.1618 51.0696 53.0877C49.1711 54.5955 48.0493 54.0101 45.9961 53.9848Z" fill="white"/>
</mask>
<g mask="url(#mask0_4_3)">
<path d="M47.933 58.3001L47.9102 58.2139C54.9125 56.4654 61.1915 52.6186 66.0645 47.0968C70.7014 41.841 74.0058 35.1763 75.62 27.8223L75.7088 27.8425C74.0921 35.2117 70.7801 41.8892 66.133 47.1576C61.2473 52.6921 54.9531 56.5465 47.933 58.3001Z" fill="#FCFDFE"/>
<path d="M69.2193 58.3032C65.8184 56.3342 59.7145 55.0139 55.6131 55.356L55.6055 55.2673C59.7246 54.9227 65.8514 56.2506 69.265 58.2272L69.2193 58.3032Z" fill="#FCFDFE"/>
<path d="M50.659 57.5859L50.6133 57.5074C52.4635 56.4354 53.702 54.469 54.2883 51.6637C54.7198 49.6085 54.7984 47.158 54.5218 44.3807L54.6106 44.373C54.8873 47.158 54.8086 49.6187 54.3746 51.684C53.7858 54.512 52.5345 56.4988 50.659 57.5859Z" fill="#FCFDFE"/>
<path d="M66.7621 46.38L66.7139 46.3039C70.097 44.1043 74.3431 44.2184 77.3075 44.7049L77.2922 44.7936C74.3431 44.3121 70.1224 44.1956 66.7621 46.38Z" fill="#FCFDFE"/>
<path d="M71.8712 38.6888L71.7849 38.6635C72.3255 36.7908 72.8356 32.8603 70.1758 27.5894L70.257 27.5488C71.1555 29.3278 71.7925 31.2132 72.0971 32.9946C72.4448 35.0473 72.3686 36.9631 71.8712 38.6888Z" fill="#FCFDFE"/>
</g>
<mask id="mask1_4_3" style="mask-type:luminance" maskUnits="userSpaceOnUse" x="54" y="10" width="23" height="50">
<path d="M61.671 59.5167C59.4654 59.1923 57.2599 58.8173 55.0595 58.3941C55.0239 58.427 54.3006 53.6375 56.5797 51.1262C61.0847 46.2607 58.0492 41.8944 57.1838 39.3071C55.798 35.658 56.5087 31.2258 60.5339 32.0545C64.4551 32.7691 65.049 24.7106 64.3714 18.502C63.7927 15.4813 66.6505 11.8145 69.4981 10.9757C72.4067 10.0482 75.3102 11.9488 76.201 17.9698C77.5487 24.9437 72.4498 29.1504 70.5641 32.6449C68.7063 36.0761 73.0285 38.8535 69.5489 41.8944C66.6251 44.5958 62.9374 46.5395 64.2851 49.9326C65.6734 53.2954 65.3409 56.0399 61.671 59.5167Z" fill="white"/>
</mask>
<g mask="url(#mask1_4_3)">
<path d="M61.671 59.5171C59.4654 59.1927 57.2599 58.8177 55.0595 58.3945C55.0239 58.4274 54.3006 53.6379 56.5797 51.1266C61.0847 46.2611 58.0492 41.8948 57.1838 39.3075C55.8133 35.6609 56.5341 31.7153 60.2497 31.657C64.3714 31.5125 65.1176 24.7008 64.3714 18.5049C63.7927 15.4843 66.6505 11.8174 69.4981 10.9786C72.4067 10.0511 75.3102 11.9517 76.201 17.9728C77.5487 24.9466 72.4498 29.1533 70.5641 32.6478C68.7063 36.079 73.0285 38.8564 69.5489 41.8974C66.6251 44.5987 62.9374 46.5424 64.2851 49.9356C65.6734 53.2958 65.3409 56.0403 61.671 59.5171Z" fill="url(#paint1_linear_4_3)"/>
</g>
<mask id="mask2_4_3" style="mask-type:luminance" maskUnits="userSpaceOnUse" x="54" y="10" width="23" height="50">
<path d="M61.671 59.5167C59.4654 59.1923 57.2599 58.8173 55.0595 58.3941C55.0239 58.427 54.3006 53.6375 56.5797 51.1262C61.0847 46.2607 58.0492 41.8944 57.1838 39.3071C55.798 35.658 56.5087 31.2258 60.5339 32.0545C64.4551 32.7691 65.049 24.7106 64.3714 18.502C63.7927 15.4813 66.6505 11.8145 69.4981 10.9757C72.4067 10.0482 75.3102 11.9488 76.201 17.9698C77.5487 24.9437 72.4498 29.1504 70.5641 32.6449C68.7063 36.0761 73.0285 38.8535 69.5489 41.8944C66.6251 44.5958 62.9374 46.5395 64.2851 49.9326C65.6734 53.2954 65.3409 56.0399 61.671 59.5167Z" fill="white"/>
</mask>
<g mask="url(#mask2_4_3)">
<path d="M58.7216 59.8008L58.6328 59.7983C58.6328 59.7552 60.7419 49.6821 64.3763 39.8776C64.8788 38.2912 65.4245 36.6897 65.9524 35.1413C67.3661 30.9955 68.8254 26.7078 69.5183 22.4378C70.2924 17.666 70.0183 13.3682 68.6731 9.29838L68.7594 9.27051C70.1071 13.353 70.3863 17.666 69.6071 22.4505C68.9117 26.7255 67.4498 31.0183 66.0361 35.1667C65.5082 36.715 64.9626 38.3166 64.4601 39.9029C60.7952 49.7885 58.7267 59.7425 58.7216 59.8008Z" fill="#FCFDFE"/>
<path d="M68.5865 27.1287L68.5205 27.0679C70.9798 24.3386 73.9467 20.4614 75.5406 18.3784C76.8248 16.7008 76.8299 16.7033 76.8832 16.7109L76.8756 16.754L76.8934 16.7945C76.8274 16.8402 76.2893 17.5421 75.6091 18.4316C74.0178 20.5197 71.0484 24.3994 68.5865 27.1287Z" fill="#FCFDFE"/>
<path d="M69.3301 23.3881C68.8225 20.261 67.5307 18.2033 66.5383 17.03C65.4419 15.7326 64.4318 15.1675 64.3303 15.1548C64.3303 15.1548 64.3404 15.1548 64.3506 15.1472L64.2998 15.0737C64.3226 15.0585 64.348 15.061 64.4089 15.0889C64.6805 15.208 65.6982 15.8415 66.7667 17.1669C68.1119 18.8343 69.0281 20.9833 69.4164 23.3755L69.3301 23.3881Z" fill="#FCFDFE"/>
<path d="M62.3008 46.2942L62.212 46.2841C62.5597 43.3749 61.8795 40.2453 60.1942 36.9813C59.3161 35.2784 58.1943 33.6135 56.8619 32.0271C56.7654 31.9131 56.7324 31.8725 56.7197 31.8523L56.7984 31.8066C56.806 31.8193 56.8619 31.8852 56.9304 31.9688C58.2679 33.5603 59.3922 35.2328 60.2755 36.9408C61.9683 40.2199 62.651 43.3673 62.3008 46.2942Z" fill="#FCFDFE"/>
<path d="M63.2949 43.2302L63.2188 43.1821C65.8633 38.9146 71.4419 38.6181 71.4901 38.6333L71.5231 38.6764L71.4926 38.7195L71.4774 38.6764L71.4723 38.7195C71.3835 38.722 65.8989 39.0312 63.2949 43.2302Z" fill="#FCFDFE"/>
<path d="M59.0897 58.1591L59.0009 58.1566C59.0466 56.8895 58.5948 54.7305 56.1685 51.6363C56.0365 51.4691 56.0365 51.4691 56.0416 51.4437L56.1304 51.4564L56.0847 51.4513L56.1253 51.4336C56.1329 51.4463 56.1812 51.5096 56.2395 51.5806C58.6811 54.695 59.1379 56.8769 59.0897 58.1591Z" fill="#FCFDFE"/>
<path d="M59.6507 55.7712L59.5645 55.7459C59.8436 54.7829 60.9451 52.895 65.1734 51.0755C65.2318 51.0502 65.2699 51.0349 65.2826 51.0273L65.3232 51.1059C65.3079 51.1135 65.2699 51.1312 65.209 51.1566C61.0136 52.9634 59.9248 54.8235 59.6507 55.7712Z" fill="#FCFDFE"/>
</g>
<path d="M71.7389 38.316C71.7389 53.133 59.7139 65.6921 44.3742 66.3915C28.4407 67.1188 15.0654 54.8663 15.0654 38.9977C15.0654 23.129 28.4407 10.5573 44.3742 10.8994C59.7164 11.2288 71.7389 23.499 71.7389 38.316Z" fill="url(#paint2_linear_4_3)"/>
<path d="M73.5202 38.316C73.5202 53.133 61.4951 65.6921 46.1555 66.3915C30.2219 67.1188 16.8467 54.8663 16.8467 38.9977C16.8467 23.129 30.2219 10.5573 46.1555 10.8994C61.4951 11.2288 73.5202 23.499 73.5202 38.316Z" fill="url(#paint3_linear_4_3)"/>
<path d="M71.8282 38.3367C71.8282 52.2971 60.4859 64.1087 46.0447 64.7397C31.0781 65.3935 18.543 53.8683 18.543 38.9804C18.543 24.0924 31.0781 12.2632 46.0422 12.5571C60.4859 12.8384 71.8282 24.3762 71.8282 38.3367Z" fill="url(#paint4_linear_4_3)"/>
<path d="M40.222 39.6745C41.3844 38.1692 41.9656 35.9189 41.9656 32.921C41.9656 30.055 41.3742 27.8477 40.1941 26.3045C39.0139 24.7612 37.3185 23.9883 35.113 23.9883C30.6106 23.9883 28.3594 26.9659 28.3594 32.921C28.3594 35.8403 28.9457 38.0729 30.1207 39.6162C31.2958 41.1595 32.9608 41.9324 35.113 41.9324C37.3566 41.9324 39.0596 41.1797 40.222 39.6745ZM35.1511 37.8854C34.4988 37.8854 34.0242 37.4774 33.7323 36.6639C33.4379 35.8505 33.2907 34.6138 33.2907 32.9591C33.2907 31.3043 33.4379 30.0752 33.7323 29.2744C34.0267 28.4737 34.4988 28.0733 35.1511 28.0733C36.4048 28.0733 37.0317 29.7027 37.0317 32.9591C37.0292 36.2433 36.4048 37.8854 35.1511 37.8854Z" fill="white"/>
<path d="M60.239 37.7185C59.0588 36.1753 57.3634 35.4023 55.1579 35.4023C50.6555 35.4023 48.4043 38.3799 48.4043 44.3351C48.4043 47.2417 48.9906 49.4667 50.1657 51.01C51.3408 52.5533 53.0057 53.3262 55.1579 53.3262C57.4015 53.3262 59.107 52.5735 60.2669 51.0683C61.4293 49.563 62.0105 47.3178 62.0105 44.3351C62.0105 41.469 61.4217 39.2643 60.239 37.7185ZM55.1985 49.302C54.5463 49.302 54.0716 48.894 53.7798 48.0805C53.4854 47.2671 53.3382 46.0304 53.3382 44.3757C53.3382 42.7209 53.4854 41.4918 53.7798 40.691C54.0742 39.8903 54.5463 39.4899 55.1985 39.4899C56.4523 39.4899 57.0792 41.1193 57.0792 44.3757C57.0766 47.6599 56.4523 49.302 55.1985 49.302Z" fill="white"/>
<path d="M54.9117 24.6951C54.8 24.505 54.5944 24.3809 54.3762 24.3809H51.4727C51.0159 24.3809 50.5971 24.6368 50.3763 25.0347L35.3691 52.0484C35.2625 52.2409 35.265 52.4817 35.3767 52.6717C35.4884 52.8618 35.694 52.9834 35.9122 52.9834H39.1863C39.4121 52.9834 39.6202 52.8567 39.7319 52.6591L54.9193 25.3159C55.0259 25.1259 55.0234 24.8851 54.9117 24.6951Z" fill="white"/>
<g opacity="0.3">
<path opacity="0.3" d="M33.8056 26.735C32.864 23.6687 32.9071 19.011 37.5009 12.1309C25.6485 15.5392 16.8467 26.2712 16.8467 39.1091C16.8467 54.9752 30.2219 67.2302 46.1555 66.5029C52.0309 66.2343 57.409 64.2323 61.8048 61.0545C61.6677 56.8226 60.7464 52.1902 58.1526 47.9177C51.0234 36.1695 36.7623 36.3545 33.8056 26.735Z" fill="url(#paint5_linear_4_3)"/>
</g>
<mask id="mask3_4_3" style="mask-type:luminance" maskUnits="userSpaceOnUse" x="4" y="0" width="62" height="46">
<path d="M41.3695 0C14.6748 0 11.6546 22.7665 11.6546 22.7665H4V24.8344L19.0503 45.5001L37.4381 21.5096H30.1947L40.4456 9.51561C40.4456 9.51561 52.2245 11.6164 56.2904 12.9797C61.544 14.9133 65.6759 19.3024 65.6759 19.3024C65.6759 19.3024 61.5719 0 41.3695 0Z" fill="white"/>
</mask>
<g mask="url(#mask3_4_3)">
<path d="M65.1095 23.3213V23.4075C64.3126 22.3736 62.8862 20.9367 62.0309 20.1056C62.0157 20.0675 61.9878 20.0321 61.9725 19.994C61.4954 18.9069 60.8533 17.7311 60.0132 16.5553C59.1782 15.3769 58.1198 14.2188 56.8838 13.1494C56.7366 13.01 56.5641 12.8884 56.4067 12.7566C56.3255 12.6933 56.2443 12.6274 56.1631 12.564L56.0438 12.4677C56.0006 12.4348 55.9575 12.4069 55.9169 12.374C55.7468 12.2523 55.5768 12.1281 55.4067 12.004L55.2798 11.9102L55.1453 11.8241C55.0565 11.7658 54.9677 11.7075 54.8788 11.6492C54.5286 11.4085 54.1504 11.1981 53.7824 10.9777C53.5946 10.8712 53.3966 10.7724 53.2063 10.671C53.1124 10.6203 53.0159 10.5671 52.9195 10.519C52.8205 10.4734 52.7215 10.4252 52.6225 10.3796C51.0439 9.62191 49.3206 9.072 47.5542 8.77044C47.3334 8.73497 47.1126 8.70202 46.8892 8.66654C46.6684 8.63614 46.4425 8.6184 46.2217 8.59306L45.8867 8.55758L45.5517 8.53984L45.2167 8.51957C45.105 8.5145 44.9959 8.50436 44.8817 8.50436C44.6583 8.50436 44.435 8.50183 44.2116 8.49929C44.1558 8.49929 44.0974 8.49676 44.0466 8.49929L43.8969 8.5069L43.6 8.5221L43.303 8.5373C43.2776 8.5373 43.2599 8.53731 43.2243 8.53984L42.9198 8.56265L42.5137 8.59052L42.2091 8.61333L42.1584 8.61586H42.1406C42.1406 8.61586 42.034 8.61586 42.2117 8.6184L41.5543 8.70963C41.4452 8.72483 41.3361 8.73497 41.2295 8.75777L40.9071 8.81859L40.5848 8.87941L40.4249 8.90982C40.3716 8.91996 40.3183 8.93516 40.2676 8.94783C40.0569 8.99851 39.8463 9.0492 39.6381 9.09988C39.5316 9.12269 39.43 9.15563 39.3285 9.18604L39.0214 9.27727L38.7143 9.36596L38.4148 9.47746C38.2143 9.54842 38.0138 9.61177 37.8209 9.68779C37.6281 9.76635 37.4326 9.84238 37.2397 9.92347C35.7093 10.5697 34.3337 11.4059 33.1637 12.3613L32.9429 12.5361L32.7348 12.7237C32.5952 12.8478 32.4531 12.9644 32.3211 13.0911C32.316 13.0962 32.3109 13.1013 32.3059 13.1063C32.0495 13.3597 31.7881 13.5979 31.5572 13.859C31.4963 13.9223 31.4353 13.9882 31.377 14.0515L31.2856 14.1478L31.2018 14.2492C31.0902 14.381 30.9785 14.5153 30.8668 14.6445C30.8389 14.6775 30.811 14.7079 30.7831 14.7408L30.7069 14.8422C30.6536 14.9106 30.6029 14.979 30.5521 15.0449C30.4531 15.1818 30.344 15.3059 30.2526 15.4478C29.4938 16.5299 28.9126 17.612 28.5192 18.6434C28.1233 19.6722 27.8872 20.6377 27.7502 21.4917C27.7349 21.5981 27.7197 21.7046 27.707 21.8085C27.6943 21.9124 27.674 22.0112 27.669 22.1126C27.6512 22.3128 27.636 22.5054 27.6182 22.6878C27.608 22.8728 27.608 23.0527 27.5979 23.22C27.5954 23.3036 27.5877 23.3872 27.5877 23.4658C27.5903 23.5469 27.5928 23.6254 27.5954 23.7015C27.5979 23.8535 27.6004 23.998 27.603 24.1323C27.603 24.1703 27.608 24.1905 27.6106 24.2159C27.6131 24.2412 27.6182 24.2666 27.6207 24.2894C27.6258 24.3375 27.6309 24.3299 27.636 24.373C27.6385 24.411 27.6436 24.4262 27.6461 24.4262H35.1357L30.5851 29.2233L20.0067 40.2239L4.87012 24.4262H12.8267C12.8369 24.4262 12.8496 24.297 12.8623 24.1956C12.8927 23.9751 12.9257 23.7623 12.9613 23.5013C12.9816 23.372 12.9993 23.2504 13.0222 23.111C13.0323 23.0426 13.045 22.9792 13.0552 22.9058C13.0653 22.8348 13.0755 22.7588 13.0907 22.698C13.1465 22.4369 13.2049 22.1607 13.2658 21.8668C13.2988 21.7198 13.3318 21.5703 13.3648 21.4182C13.4003 21.2636 13.4435 21.1091 13.4866 20.9494C13.5729 20.6301 13.6567 20.2956 13.7607 19.951C13.8724 19.6089 13.9891 19.2516 14.1084 18.8816C14.1668 18.6966 14.2429 18.5116 14.314 18.3241C14.3851 18.1391 14.4587 17.9465 14.5348 17.7514C15.1515 16.2106 15.9967 14.5305 17.1236 12.8453C18.2454 11.1576 19.6768 9.47493 21.3747 7.91645C21.5803 7.71625 21.8087 7.53379 22.027 7.3412C22.1387 7.24744 22.2478 7.15114 22.3595 7.05738L22.5295 6.91547L22.7021 6.77863C22.9356 6.59871 23.1716 6.41625 23.4051 6.23126L23.5828 6.09442L23.768 5.96518C23.8924 5.87648 24.0142 5.79032 24.1386 5.70416C24.6234 5.34939 25.1462 5.03262 25.6665 4.70319C25.9279 4.54354 26.1995 4.39402 26.4685 4.23944C26.6005 4.16342 26.7375 4.0874 26.872 4.01137C27.0116 3.94042 27.1487 3.86946 27.2883 3.79597C29.5014 2.64295 31.948 1.76868 34.4886 1.24412C34.8058 1.18583 35.1256 1.12501 35.4454 1.06419C35.7652 1.00844 36.0875 0.967897 36.4098 0.922283L36.892 0.856396L37.3768 0.810782L37.8615 0.767702C38.024 0.752497 38.1839 0.737292 38.3463 0.72969C38.6686 0.714485 38.9935 0.679008 39.3184 0.663803C39.397 0.661269 39.4808 0.630859 39.5595 0.630859H39.8031L40.2879 0.656201L40.7726 0.671405C40.9351 0.671405 41.095 0.691678 41.2574 0.699281L42.2193 0.755031C42.4376 0.757565 42.2954 0.760099 42.3513 0.762633L42.3766 0.765168L42.4274 0.770236L42.5264 0.782906L42.7294 0.805713L43.133 0.853862L43.336 0.876669L43.435 0.889339L43.5594 0.904544L44.0695 0.975499L44.5796 1.04899L44.8334 1.087C44.9172 1.09967 44.9908 1.11741 45.0695 1.13261C45.3791 1.19597 45.6913 1.25932 46.0009 1.32014C46.1557 1.35055 46.308 1.39109 46.4603 1.42911L46.9197 1.54568L47.374 1.66225L47.8232 1.79655C48.1201 1.88778 48.4196 1.97394 48.714 2.07531C49.0059 2.1792 49.2978 2.2831 49.5871 2.387C51.8891 3.2562 53.988 4.41683 55.795 5.76752C55.9093 5.85114 56.0209 5.93477 56.1351 6.01839C56.2443 6.10455 56.3534 6.19325 56.4625 6.28194C56.6783 6.45679 56.8965 6.62658 57.1046 6.8065C57.5158 7.17395 57.9244 7.52366 58.3 7.90631C58.3965 8.00007 58.4879 8.09383 58.5843 8.18506L58.7239 8.32444L58.8584 8.46888C59.0361 8.66148 59.2137 8.85407 59.3863 9.04159L59.5183 9.18351L59.6426 9.33048C59.7239 9.42931 59.8076 9.52561 59.8863 9.62444C60.0487 9.81957 60.2162 10.0071 60.3634 10.2073C61.1883 11.2665 61.8862 12.3385 62.4649 13.3977C62.7466 13.9122 62.9979 14.4241 63.2212 14.9283C63.9065 16.4716 64.3481 17.9389 64.6247 19.2465C64.6552 19.4112 64.6882 19.5709 64.7186 19.7305C64.7491 19.8876 64.7846 20.0422 64.8024 20.1968C64.8455 20.5059 64.8887 20.7999 64.9293 21.0837C64.9623 21.3701 64.9826 21.6438 65.0054 21.9048C65.0156 22.034 65.0283 22.1607 65.0384 22.2874C65.0435 22.4116 65.0714 22.5307 65.0765 22.6498C65.0714 22.888 65.1095 23.1135 65.1095 23.3213Z" fill="url(#paint6_linear_4_3)"/>
<path opacity="0.4" d="M65.1093 23.321V23.4072C64.3124 22.3733 62.886 20.9364 62.0307 20.1052C62.0155 20.0672 61.9875 20.0318 61.9723 19.9937C61.4952 18.9066 60.8531 17.7308 60.013 16.5549C59.178 15.3766 58.1196 14.2185 56.8836 13.1491C56.7364 13.0097 56.5638 12.8881 56.4065 12.7563C56.3253 12.6929 56.2441 12.6271 56.1628 12.5637L56.0436 12.4674C56.0004 12.4345 55.9573 12.4066 55.9167 12.3737C55.7466 12.252 55.5766 12.1278 55.4065 12.0037L55.2796 11.9099L55.1451 11.8237C55.0563 11.7655 54.9674 11.7072 54.8786 11.6489C54.5284 11.4082 54.1502 11.1978 53.7822 10.9774C53.5944 10.8709 53.3964 10.7721 53.2061 10.6707C53.1122 10.62 53.0157 10.5668 52.9193 10.5187C52.8203 10.4731 52.7213 10.4249 52.6223 10.3793C51.0437 9.6216 49.3204 9.0717 47.554 8.77014C47.3331 8.73466 47.1123 8.70172 46.889 8.66624C46.6682 8.63583 46.4423 8.61809 46.2215 8.59275L45.8865 8.55727L45.5515 8.53953L45.2165 8.51926C45.1048 8.51419 44.9957 8.50405 44.8814 8.50405C44.6581 8.50405 44.4348 8.50152 44.2114 8.49899C44.1556 8.49899 44.0972 8.49645 44.0464 8.49899L43.8967 8.50659L43.5998 8.52179L43.3028 8.537C43.2774 8.537 43.2597 8.537 43.2241 8.53953L42.9196 8.56234L42.5135 8.59021L42.2089 8.61302L42.1582 8.61556H42.1404C42.1404 8.61556 42.0338 8.61556 42.2115 8.61809L41.5541 8.70932C41.445 8.72452 41.3359 8.73466 41.2293 8.75747L40.9069 8.81828L40.5846 8.8791L40.4247 8.90951C40.3714 8.91965 40.3181 8.93485 40.2674 8.94752C40.0567 8.99821 39.8461 9.04889 39.6379 9.09957C39.5313 9.12238 39.4298 9.15532 39.3283 9.18573L39.0212 9.27696L38.7141 9.36565L38.4146 9.47716C38.2141 9.54811 38.0136 9.61146 37.8207 9.68749C37.6278 9.76604 37.4324 9.84207 37.2395 9.92316C35.7091 10.5694 34.3335 11.4056 33.1635 12.361L32.9427 12.5358L32.7346 12.7234C32.595 12.8475 32.4529 12.9641 32.3209 13.0908C32.3158 13.0959 32.3107 13.1009 32.3057 13.106C35.6685 9.14772 41.1125 6.57812 47.2595 6.57812C53.5563 6.57812 59.1196 9.27696 62.4571 13.3974C62.7388 13.9119 62.9901 14.4238 63.2134 14.928C63.8987 16.4713 64.3403 17.9386 64.6169 19.2462C64.6474 19.4109 64.6804 19.5705 64.7108 19.7302C64.7413 19.8873 64.7768 20.0419 64.7946 20.1965C64.8377 20.5056 64.8809 20.7996 64.9215 21.0834C64.9545 21.3698 64.9748 21.6435 64.9976 21.9045C65.0078 22.0337 65.0205 22.1604 65.0306 22.2871C65.0357 22.4113 65.0636 22.5304 65.0687 22.6495C65.0712 22.8877 65.1093 23.1132 65.1093 23.321Z" fill="url(#paint7_linear_4_3)"/>
</g>
<path d="M9.4668 68.7861V71.0947C9.4668 71.8397 14.1367 72.4454 19.8954 72.4454C25.6541 72.4454 30.3241 71.8397 30.3241 71.0947V68.7861H9.4668Z" fill="url(#paint8_linear_4_3)"/>
<path d="M19.8954 70.1369C25.655 70.1369 30.3241 69.5322 30.3241 68.7862C30.3241 68.0403 25.655 67.4355 19.8954 67.4355C14.1359 67.4355 9.4668 68.0403 9.4668 68.7862C9.4668 69.5322 14.1359 70.1369 19.8954 70.1369Z" fill="url(#paint9_linear_4_3)"/>
<path d="M19.8956 70.2311C14.7942 70.2311 9.46191 69.7446 9.46191 68.8069C9.46191 68.7563 9.47968 68.665 9.53298 68.665C9.58374 68.665 9.56343 68.736 9.56343 68.7867C9.56343 69.3822 13.807 70.0436 19.8982 70.0436C25.9894 70.0436 30.2329 69.3797 30.2329 68.7867C30.2329 68.736 30.2405 68.6878 30.2938 68.6878C30.3446 68.6878 30.3319 68.7563 30.3319 68.8069C30.3293 69.7446 24.997 70.2311 19.8956 70.2311Z" fill="url(#paint10_linear_4_3)"/>
<path d="M18.9113 68.8622C19.0128 68.7913 19.122 68.7229 19.2387 68.6519C19.3529 68.5835 19.5052 68.5201 19.688 68.4644C19.8707 68.4086 20.0991 68.363 20.3758 68.3276C20.6499 68.2921 20.995 68.2743 21.4062 68.2718C21.8097 68.2693 22.1879 68.2819 22.5407 68.3098C22.8934 68.3377 23.2056 68.3782 23.4746 68.434C23.7437 68.4897 23.9619 68.5556 24.1294 68.6367C24.297 68.7178 24.3959 68.809 24.4289 68.9129L25.604 68.9256C25.6903 68.9256 25.7639 68.9332 25.8299 68.9459C25.8959 68.9585 25.9264 68.9763 25.9264 68.9966V69.0929L24.4162 69.0776C24.3629 69.1967 24.2284 69.3032 24.0127 69.402C23.797 69.5008 23.5203 69.5845 23.1853 69.658L22.6346 69.5819C22.5863 69.5743 22.5457 69.5642 22.5127 69.5541C22.4823 69.5414 22.4645 69.5313 22.4645 69.516C22.4645 69.4983 22.5077 69.4755 22.5914 69.4527C22.6777 69.4299 22.7716 69.3995 22.8782 69.364C22.9848 69.3285 23.0889 69.288 23.1929 69.2398C23.2944 69.1917 23.363 69.1359 23.3985 69.0675L19.8352 69.032C19.7413 69.1005 19.6372 69.1689 19.5204 69.2348C19.4037 69.3007 19.2514 69.3615 19.0585 69.4147C18.8656 69.4679 18.6271 69.511 18.3428 69.5439C18.056 69.5769 17.6956 69.5946 17.2616 69.5971C16.9342 69.5997 16.617 69.587 16.3048 69.5591C15.9926 69.5338 15.716 69.4932 15.4749 69.44C15.2338 69.3868 15.0358 69.3235 14.881 69.2449C14.7262 69.1663 14.6399 69.0776 14.6221 68.9788L13.6551 68.9687C13.5688 68.9687 13.4952 68.9611 13.4267 68.9484C13.3607 68.9357 13.3252 68.918 13.3252 68.8977V68.8014L14.6475 68.8141C14.7059 68.7127 14.8252 68.624 15.0079 68.548C15.1906 68.472 15.414 68.4061 15.6779 68.3453L16.1195 68.4061C16.254 68.4238 16.32 68.4467 16.32 68.472C16.32 68.4847 16.2921 68.5024 16.2363 68.5227C16.1804 68.5429 16.1145 68.5683 16.0383 68.5962C15.9622 68.624 15.8886 68.657 15.8175 68.695C15.7464 68.733 15.6931 68.7761 15.6576 68.8242L18.9113 68.8622ZM15.65 68.9915C15.6754 69.0548 15.7363 69.1081 15.8251 69.1562C15.914 69.2018 16.0256 69.2398 16.1601 69.2702C16.2947 69.3007 16.4444 69.3209 16.6119 69.3361C16.7794 69.3488 16.9571 69.3564 17.1398 69.3564C17.353 69.3564 17.5408 69.3463 17.7007 69.3285C17.8581 69.3108 17.9976 69.288 18.1195 69.2576C18.2388 69.2272 18.3454 69.1942 18.4342 69.1537C18.523 69.1131 18.6042 69.0726 18.6753 69.0244L15.65 68.9915ZM23.4061 68.9053C23.3807 68.842 23.3148 68.7837 23.2132 68.7355C23.1117 68.6874 22.9823 68.6469 22.8275 68.6139C22.6701 68.581 22.4874 68.5556 22.2793 68.5404C22.0711 68.5252 21.8427 68.5176 21.5915 68.5176C21.3681 68.5176 21.1752 68.5277 21.0153 68.548C20.8554 68.5658 20.7158 68.5911 20.5966 68.624C20.4798 68.657 20.3783 68.6925 20.2945 68.7355C20.2108 68.7786 20.1346 68.8242 20.0636 68.8724L23.4061 68.9053Z" fill="#FCB048"/>
<path d="M19.8961 67.5801C15.2465 67.5801 10.404 67.9881 9.62988 68.7787C9.66034 68.8066 9.68826 68.837 9.71364 68.8674C10.3659 68.3175 14.3632 67.7651 19.8935 67.7651C25.566 67.7651 29.6268 68.3479 30.1191 68.9105C30.1445 68.8801 30.1699 68.8497 30.1978 68.8218C29.5608 68.0033 24.6294 67.5801 19.8961 67.5801Z" fill="url(#paint11_linear_4_3)"/>
<path d="M6.56836 66.3613V68.6699C6.56836 69.4149 11.2383 70.0206 16.997 70.0206C22.7557 70.0206 27.4256 69.4149 27.4256 68.6699V66.3613H6.56836Z" fill="url(#paint12_linear_4_3)"/>
<path d="M16.997 67.7121C22.7566 67.7121 27.4256 67.1074 27.4256 66.3614C27.4256 65.6155 22.7566 65.0107 16.997 65.0107C11.2374 65.0107 6.56836 65.6155 6.56836 66.3614C6.56836 67.1074 11.2374 67.7121 16.997 67.7121Z" fill="url(#paint13_linear_4_3)"/>
<path d="M16.9972 67.8063C11.8958 67.8063 6.56348 67.3198 6.56348 66.3821C6.56348 66.3315 6.58124 66.2402 6.63454 66.2402C6.6853 66.2402 6.665 66.3112 6.665 66.3619C6.665 66.9574 10.9085 67.6188 16.9997 67.6188C23.0909 67.6188 27.3345 66.9549 27.3345 66.3619C27.3345 66.3112 27.3421 66.263 27.3954 66.263C27.4461 66.263 27.4334 66.3315 27.4334 66.3821C27.4309 67.3198 22.096 67.8063 16.9972 67.8063Z" fill="url(#paint14_linear_4_3)"/>
<path d="M16.01 66.4345C16.1115 66.3636 16.2206 66.2951 16.3374 66.2242C16.4516 66.1558 16.6039 66.0924 16.7866 66.0367C16.9693 65.9809 17.1977 65.9353 17.4744 65.8998C17.7485 65.8643 18.0937 65.8466 18.5048 65.8441C18.9084 65.8415 19.2865 65.8542 19.6393 65.8821C19.9921 65.91 20.3043 65.9505 20.5733 66.0062C20.8423 66.062 21.0606 66.1279 21.2281 66.209C21.3956 66.2901 21.4946 66.3813 21.5276 66.4852L22.7027 66.4979C22.789 66.4979 22.8626 66.5055 22.9285 66.5181C22.9945 66.5308 23.025 66.5485 23.025 66.5688V66.6651L21.5149 66.6499C21.4616 66.769 21.3271 66.8754 21.1113 66.9743C20.8956 67.0731 20.619 67.1567 20.2839 67.2302L19.7332 67.1542C19.685 67.1466 19.6444 67.1365 19.6114 67.1263C19.5784 67.1137 19.5632 67.1035 19.5632 67.0883C19.5632 67.0706 19.6063 67.0478 19.6901 67.025C19.7764 67.0022 19.8703 66.9717 19.9769 66.9363C20.0834 66.9008 20.1875 66.8602 20.2916 66.8121C20.3931 66.764 20.4616 66.7082 20.4971 66.6398L16.9338 66.6043C16.8399 66.6727 16.7358 66.7411 16.6191 66.807C16.5023 66.8729 16.3501 66.9337 16.1572 66.987C15.9643 67.0402 15.7257 67.0832 15.4414 67.1162C15.1547 67.1491 14.7943 67.1669 14.3603 67.1694C14.0329 67.1719 13.7156 67.1593 13.4034 67.1314C13.0913 67.1061 12.8146 67.0655 12.5735 67.0123C12.3324 66.9591 12.1344 66.8957 11.9796 66.8172C11.8248 66.7386 11.7385 66.6499 11.7207 66.5511L10.7538 66.5409C10.6675 66.5409 10.5939 66.5333 10.5253 66.5207C10.4594 66.508 10.4238 66.4903 10.4238 66.47V66.3737L11.7461 66.3864C11.8045 66.285 11.9238 66.1963 12.1065 66.1203C12.2893 66.0443 12.5126 65.9784 12.7766 65.9201L13.2182 65.9809C13.3527 65.9986 13.4187 66.0215 13.4187 66.0468C13.4187 66.0595 13.3907 66.0772 13.3349 66.0975C13.2791 66.1178 13.2131 66.1431 13.1369 66.171C13.0608 66.1988 12.9872 66.2318 12.9161 66.2698C12.8451 66.3078 12.7918 66.3509 12.7562 66.399L16.01 66.4345ZM12.7512 66.5663C12.7766 66.6296 12.8375 66.6829 12.9263 66.731C13.0151 66.7766 13.1268 66.8146 13.2613 66.845C13.3958 66.8755 13.5456 66.8957 13.7131 66.9109C13.8806 66.9236 14.0582 66.9312 14.241 66.9312C14.4542 66.9312 14.642 66.9211 14.8019 66.9033C14.9592 66.8856 15.0988 66.8628 15.2206 66.8324C15.3399 66.802 15.4465 66.769 15.5354 66.7285C15.6242 66.6879 15.7054 66.6474 15.7765 66.5992L12.7512 66.5663ZM20.5073 66.4801C20.4819 66.4168 20.4159 66.3585 20.3144 66.3103C20.2129 66.2622 20.0834 66.2216 19.9286 66.1887C19.7713 66.1558 19.5885 66.1304 19.3804 66.1152C19.1723 66.1 18.9439 66.0924 18.6926 66.0924C18.4693 66.0924 18.2764 66.1025 18.1165 66.1228C17.9566 66.1406 17.817 66.1659 17.6977 66.1988C17.581 66.2318 17.4795 66.2673 17.3957 66.3103C17.312 66.3534 17.2358 66.399 17.1648 66.4472L20.5073 66.4801Z" fill="#FCB048"/>
<path d="M16.9967 65.1553C12.3471 65.1553 7.50456 65.5633 6.73047 66.3539C6.76092 66.3818 6.78884 66.4122 6.81422 66.4426C7.46649 65.8927 11.4638 65.3403 16.9941 65.3403C22.6666 65.3403 26.7274 65.9231 27.2197 66.4857C27.2451 66.4553 27.2705 66.4249 27.2984 66.397C26.6614 65.5785 21.73 65.1553 16.9967 65.1553Z" fill="url(#paint15_linear_4_3)"/>
<path d="M9.06836 63.9414V66.25C9.06836 66.995 13.7383 67.6007 19.497 67.6007C25.2557 67.6007 29.9256 66.995 29.9256 66.25V63.9414H9.06836Z" fill="url(#paint16_linear_4_3)"/>
<path d="M19.498 65.2922C25.2575 65.2922 29.9266 64.6875 29.9266 63.9415C29.9266 63.1955 25.2575 62.5908 19.498 62.5908C13.7384 62.5908 9.06934 63.1955 9.06934 63.9415C9.06934 64.6875 13.7384 65.2922 19.498 65.2922Z" fill="url(#paint17_linear_4_3)"/>
<path d="M19.4972 65.3864C14.3958 65.3864 9.06348 64.8998 9.06348 63.9622C9.06348 63.9115 9.08124 63.8203 9.13454 63.8203C9.1853 63.8203 9.165 63.8913 9.165 63.942C9.165 64.5375 13.4085 65.1989 19.4997 65.1989C25.5909 65.1989 29.8345 64.5349 29.8345 63.942C29.8345 63.8913 29.8421 63.8431 29.8954 63.8431C29.9461 63.8431 29.9334 63.9115 29.9334 63.9622C29.9309 64.8998 24.5986 65.3864 19.4972 65.3864Z" fill="url(#paint18_linear_4_3)"/>
<path d="M18.5129 64.0175C18.6144 63.9466 18.7235 63.8781 18.8403 63.8072C18.9545 63.7388 19.1068 63.6754 19.2895 63.6197C19.4723 63.5639 19.7007 63.5183 19.9773 63.4828C20.2514 63.4474 20.5966 63.4296 21.0077 63.4271C21.4113 63.4245 21.7894 63.4372 22.1422 63.4651C22.495 63.493 22.8072 63.5335 23.0762 63.5893C23.3452 63.645 23.5635 63.7109 23.731 63.792C23.8985 63.8731 23.9975 63.9643 24.0305 64.0682L25.2056 64.0809C25.2919 64.0809 25.3655 64.0885 25.4315 64.1012C25.4975 64.1138 25.5279 64.1316 25.5279 64.1518V64.2481L24.0178 64.2329C23.9645 64.352 23.83 64.4585 23.6143 64.5573C23.3985 64.6561 23.1219 64.7398 22.7869 64.8132L22.2361 64.7372C22.1879 64.7296 22.1473 64.7195 22.1143 64.7093C22.0813 64.6967 22.0661 64.6865 22.0661 64.6713C22.0661 64.6536 22.1092 64.6308 22.193 64.608C22.2793 64.5852 22.3732 64.5548 22.4798 64.5193C22.5864 64.4838 22.6904 64.4433 22.7945 64.3951C22.896 64.347 22.9645 64.2912 23.0001 64.2228L19.4367 64.1873C19.3428 64.2557 19.2388 64.3242 19.122 64.39C19.0053 64.4559 18.853 64.5167 18.6601 64.57C18.4672 64.6232 18.2286 64.6663 17.9444 64.6992C17.6576 64.7321 17.2972 64.7499 16.8632 64.7524C16.5358 64.755 16.2185 64.7423 15.9064 64.7144C15.5942 64.6891 15.3176 64.6485 15.0764 64.5953C14.8353 64.5421 14.6374 64.4787 14.4826 64.4002C14.3277 64.3216 14.2414 64.2329 14.2237 64.1341L13.2567 64.124C13.1704 64.124 13.0968 64.1164 13.0283 64.1037C12.9623 64.091 12.9268 64.0733 12.9268 64.053V63.9567L14.2491 63.9694C14.3074 63.868 14.4267 63.7793 14.6094 63.7033C14.7922 63.6273 15.0155 63.5614 15.2795 63.5031L15.7211 63.5639C15.8556 63.5817 15.9216 63.6045 15.9216 63.6298C15.9216 63.6425 15.8937 63.6602 15.8378 63.6805C15.782 63.7008 15.716 63.7261 15.6399 63.754C15.5637 63.7819 15.4901 63.8148 15.4191 63.8528C15.348 63.8908 15.2947 63.9339 15.2592 63.982L18.5129 64.0175ZM15.2516 64.1493C15.2769 64.2127 15.3379 64.2659 15.4267 64.314C15.5155 64.3596 15.6272 64.3976 15.7617 64.4281C15.8962 64.4585 16.046 64.4787 16.2135 64.4939C16.381 64.5066 16.5586 64.5142 16.7414 64.5142C16.9546 64.5142 17.1424 64.5041 17.3023 64.4863C17.4596 64.4686 17.5992 64.4458 17.721 64.4154C17.8403 64.385 17.9469 64.352 18.0357 64.3115C18.1246 64.2709 18.2058 64.2304 18.2769 64.1822L15.2516 64.1493ZM23.0077 64.0631C22.9823 63.9998 22.9163 63.9415 22.8148 63.8934C22.7133 63.8452 22.5838 63.8047 22.429 63.7717C22.2717 63.7388 22.0889 63.7134 21.8808 63.6982C21.6727 63.683 21.4443 63.6754 21.193 63.6754C20.9697 63.6754 20.7768 63.6856 20.6169 63.7058C20.457 63.7236 20.3174 63.7489 20.1981 63.7819C20.0814 63.8148 19.9799 63.8503 19.8961 63.8934C19.8123 63.9364 19.7362 63.982 19.6651 64.0302L23.0077 64.0631Z" fill="#FCB048"/>
<path d="M19.4996 62.7383C14.85 62.7383 10.0075 63.1463 9.2334 63.9369C9.26385 63.9648 9.29177 63.9952 9.31715 64.0256C9.96942 63.4757 13.9668 62.9233 19.4971 62.9233C25.1695 62.9233 29.2303 63.5061 29.7227 64.0687C29.748 64.0383 29.7734 64.0079 29.8013 63.98C29.1643 63.1615 24.2304 62.7383 19.4996 62.7383Z" fill="url(#paint19_linear_4_3)"/>
<path d="M10.5889 61.5156V63.8242C10.5889 64.5692 15.2588 65.1749 21.0175 65.1749C26.7762 65.1749 31.4461 64.5692 31.4461 63.8242V61.5156H10.5889Z" fill="url(#paint20_linear_4_3)"/>
<path d="M21.0146 62.8664C26.7741 62.8664 31.4432 62.2617 31.4432 61.5157C31.4432 60.7698 26.7741 60.165 21.0146 60.165C15.255 60.165 10.5859 60.7698 10.5859 61.5157C10.5859 62.2617 15.255 62.8664 21.0146 62.8664Z" fill="url(#paint21_linear_4_3)"/>
<path d="M21.0148 62.9606C15.9134 62.9606 10.5811 62.4741 10.5811 61.5364C10.5811 61.4858 10.5988 61.3945 10.6521 61.3945C10.7029 61.3945 10.6826 61.4655 10.6826 61.5162C10.6826 62.1117 14.9261 62.7731 21.0173 62.7731C27.1085 62.7731 31.352 62.1092 31.352 61.5162C31.352 61.4655 31.3596 61.4173 31.4129 61.4173C31.4637 61.4173 31.451 61.4858 31.451 61.5364C31.451 62.4741 26.1161 62.9606 21.0148 62.9606Z" fill="url(#paint22_linear_4_3)"/>
<path d="M20.0305 61.5917C20.132 61.5208 20.2411 61.4524 20.3579 61.3814C20.4721 61.313 20.6244 61.2496 20.8071 61.1939C20.9898 61.1381 21.2183 61.0925 21.4949 61.057C21.769 61.0216 22.1142 61.0038 22.5253 61.0013C22.9289 60.9988 23.307 61.0114 23.6598 61.0393C24.0126 61.0672 24.3248 61.1077 24.5938 61.1635C24.8628 61.2192 25.0811 61.2851 25.2486 61.3662C25.4161 61.4473 25.5151 61.5385 25.5481 61.6424L26.7232 61.6551C26.8095 61.6551 26.8831 61.6627 26.9491 61.6754C27.015 61.688 27.0455 61.7058 27.0455 61.7261V61.8224L25.5354 61.8071C25.4821 61.9262 25.3476 62.0327 25.1318 62.1315C24.9161 62.2303 24.6395 62.314 24.3045 62.3875L23.7537 62.3114C23.7055 62.3038 23.6649 62.2937 23.6319 62.2836C23.6014 62.2709 23.5837 62.2608 23.5837 62.2455C23.5837 62.2278 23.6268 62.205 23.7106 62.1822C23.7969 62.1594 23.8908 62.129 23.9974 62.0935C24.104 62.058 24.208 62.0175 24.3121 61.9693C24.4136 61.9212 24.4821 61.8654 24.5176 61.797L20.9543 61.7615C20.8604 61.8299 20.7563 61.8984 20.6396 61.9643C20.5228 62.0301 20.3706 62.091 20.1777 62.1442C19.9848 62.1974 19.7462 62.2405 19.462 62.2734C19.1752 62.3064 18.8148 62.3241 18.3808 62.3266C18.0534 62.3292 17.7361 62.3165 17.4239 62.2886C17.1118 62.2633 16.8351 62.2227 16.594 62.1695C16.3529 62.1163 16.1549 62.053 16.0001 61.9744C15.8453 61.8958 15.759 61.8071 15.7413 61.7083L14.7743 61.6982C14.688 61.6982 14.6144 61.6906 14.5459 61.6779C14.4799 61.6652 14.4443 61.6475 14.4443 61.6272V61.5309L15.7666 61.5436C15.825 61.4422 15.9443 61.3535 16.127 61.2775C16.3098 61.2015 16.5331 61.1356 16.7971 61.0773L17.2387 61.1381C17.3732 61.1559 17.4392 61.1787 17.4392 61.204C17.4392 61.2167 17.4113 61.2344 17.3554 61.2547C17.2996 61.275 17.2336 61.3003 17.1575 61.3282C17.0813 61.3561 17.0077 61.389 16.9366 61.427C16.8656 61.465 16.8123 61.5081 16.7768 61.5563L20.0305 61.5917ZM16.7691 61.721C16.7945 61.7843 16.8554 61.8376 16.9443 61.8857C17.0331 61.9313 17.1448 61.9693 17.2793 61.9997C17.4138 62.0301 17.5635 62.0504 17.731 62.0656C17.8986 62.0783 18.0762 62.0859 18.2589 62.0859C18.4721 62.0859 18.66 62.0758 18.8198 62.058C18.9772 62.0403 19.1168 62.0175 19.2386 61.9871C19.3579 61.9567 19.4645 61.9237 19.5533 61.8832C19.6422 61.8426 19.7234 61.8021 19.7944 61.7539L16.7691 61.721ZM24.5253 61.6348C24.4999 61.5715 24.4339 61.5132 24.3324 61.465C24.2309 61.4169 24.1014 61.3763 23.9466 61.3434C23.7892 61.3105 23.6065 61.2851 23.3984 61.2699C23.1903 61.2547 22.9619 61.2471 22.7106 61.2471C22.4873 61.2471 22.2944 61.2572 22.1345 61.2775C21.9746 61.2953 21.835 61.3206 21.7157 61.3535C21.599 61.3865 21.4974 61.422 21.4137 61.465C21.3299 61.5081 21.2538 61.5537 21.1827 61.6019L24.5253 61.6348Z" fill="#FCB048"/>
<path d="M21.0172 60.3096C16.3676 60.3096 11.5251 60.7176 10.751 61.5082C10.7814 61.5361 10.8094 61.5665 10.8347 61.5969C11.487 61.047 15.4843 60.4946 21.0146 60.4946C26.6871 60.4946 30.7479 61.0774 31.2402 61.64C31.2656 61.6096 31.291 61.5792 31.3189 61.5513C30.6819 60.7328 25.748 60.3096 21.0172 60.3096Z" fill="url(#paint23_linear_4_3)"/>
<path d="M9.4668 58.8984V61.207C9.4668 61.9521 14.1367 62.5577 19.8954 62.5577C25.6541 62.5577 30.3241 61.9521 30.3241 61.207V58.8984H9.4668Z" fill="url(#paint24_linear_4_3)"/>
<path d="M19.8954 60.2492C25.655 60.2492 30.3241 59.6445 30.3241 58.8985C30.3241 58.1526 25.655 57.5479 19.8954 57.5479C14.1359 57.5479 9.4668 58.1526 9.4668 58.8985C9.4668 59.6445 14.1359 60.2492 19.8954 60.2492Z" fill="url(#paint25_linear_4_3)"/>
<path d="M19.8956 60.3434C14.7942 60.3434 9.46191 59.8569 9.46191 58.9193C9.46191 58.8686 9.47968 58.7773 9.53298 58.7773C9.58374 58.7773 9.56343 58.8483 9.56343 58.899C9.56343 59.4945 13.807 60.1559 19.8982 60.1559C25.9894 60.1559 30.2329 59.492 30.2329 58.899C30.2329 58.8483 30.2405 58.8002 30.2938 58.8002C30.3446 58.8002 30.3319 58.8686 30.3319 58.9193C30.3293 59.8569 24.997 60.3434 19.8956 60.3434Z" fill="url(#paint26_linear_4_3)"/>
<path d="M18.9107 58.9746C19.0123 58.9036 19.1214 58.8352 19.2381 58.7642C19.3524 58.6958 19.5046 58.6325 19.6874 58.5767C19.8701 58.521 20.0985 58.4753 20.3752 58.4399C20.6493 58.4044 20.9944 58.3866 21.4056 58.3841C21.8091 58.3816 22.1873 58.3942 22.5401 58.4221C22.8929 58.45 23.205 58.4905 23.4741 58.5463C23.7431 58.602 23.9614 58.6679 24.1289 58.749C24.2964 58.8301 24.3954 58.9213 24.4284 59.0252L25.6034 59.0379C25.6897 59.0379 25.7633 59.0455 25.8293 59.0582C25.8953 59.0709 25.9258 59.0886 25.9258 59.1089V59.2052L24.4157 59.19C24.3624 59.3091 24.2278 59.4155 24.0121 59.5143C23.7964 59.6132 23.5197 59.6968 23.1847 59.7703L22.634 59.6942C22.5858 59.6866 22.5452 59.6765 22.5122 59.6664C22.4817 59.6537 22.4639 59.6436 22.4639 59.6284C22.4639 59.6106 22.5071 59.5878 22.5908 59.565C22.6771 59.5422 22.771 59.5118 22.8776 59.4763C22.9842 59.4408 23.0883 59.4003 23.1923 59.3521C23.2939 59.304 23.3624 59.2482 23.3979 59.1798L19.8371 59.1469C19.7432 59.2153 19.6391 59.2837 19.5224 59.3496C19.4057 59.4155 19.2534 59.4763 19.0605 59.5295C18.8676 59.5827 18.629 59.6258 18.3448 59.6588C18.058 59.6917 17.6976 59.7095 17.2636 59.712C16.9362 59.7145 16.6189 59.7019 16.3068 59.674C15.9946 59.6486 15.7179 59.6081 15.4768 59.5549C15.2357 59.5017 15.0378 59.4383 14.8829 59.3597C14.7281 59.2812 14.6418 59.1925 14.6241 59.0937L13.6571 59.0835C13.5708 59.0835 13.4972 59.0759 13.4287 59.0633C13.3627 59.0506 13.3271 59.0328 13.3271 59.0126V58.9163L14.6494 58.9289C14.7078 58.8276 14.8271 58.7389 15.0098 58.6629C15.1926 58.5868 15.4159 58.521 15.6799 58.4627L16.1215 58.5235C16.256 58.5412 16.322 58.564 16.322 58.5894C16.322 58.602 16.2941 58.6198 16.2382 58.6401C16.1824 58.6603 16.1164 58.6857 16.0403 58.7135C15.9641 58.7414 15.8905 58.7744 15.8195 58.8124C15.7484 58.8504 15.6951 58.8935 15.6596 58.9416L18.9107 58.9746ZM15.6494 59.1063C15.6748 59.1697 15.7357 59.2229 15.8245 59.271C15.9134 59.3167 16.025 59.3547 16.1596 59.3851C16.2941 59.4155 16.4438 59.4358 16.6113 59.451C16.7788 59.4636 16.9565 59.4712 17.1392 59.4712C17.3524 59.4712 17.5402 59.4611 17.7001 59.4434C17.8575 59.4256 17.9971 59.4028 18.1189 59.3724C18.2382 59.342 18.3448 59.3091 18.4336 59.2685C18.5224 59.228 18.6036 59.1874 18.6747 59.1393L15.6494 59.1063ZM23.4055 59.0202C23.3802 58.9568 23.3142 58.8985 23.2126 58.8504C23.1111 58.8022 22.9817 58.7617 22.8269 58.7287C22.6695 58.6958 22.4868 58.6705 22.2787 58.6553C22.0706 58.6401 21.8421 58.6325 21.5909 58.6325C21.3675 58.6325 21.1746 58.6426 21.0147 58.6629C20.8548 58.6806 20.7153 58.7059 20.596 58.7389C20.4792 58.7718 20.3777 58.8073 20.294 58.8504C20.2102 58.8935 20.1341 58.9391 20.063 58.9872L23.4055 59.0202Z" fill="#FCB048"/>
<path d="M19.8961 57.6953C15.2465 57.6953 10.404 58.1033 9.62988 58.894C9.66034 58.9218 9.68826 58.9522 9.71364 58.9826C10.3659 58.4327 14.3632 57.8803 19.8935 57.8803C25.566 57.8803 29.6268 58.4631 30.1191 59.0257C30.1445 58.9953 30.1699 58.9649 30.1978 58.937C29.5608 58.1185 24.6294 57.6953 19.8961 57.6953Z" fill="url(#paint27_linear_4_3)"/>
<path d="M6.56836 56.4736V58.7822C6.56836 59.5272 11.2383 60.1329 16.997 60.1329C22.7557 60.1329 27.4256 59.5272 27.4256 58.7822V56.4736H6.56836Z" fill="url(#paint28_linear_4_3)"/>
<path d="M16.997 57.8244C22.7566 57.8244 27.4256 57.2197 27.4256 56.4737C27.4256 55.7278 22.7566 55.123 16.997 55.123C11.2374 55.123 6.56836 55.7278 6.56836 56.4737C6.56836 57.2197 11.2374 57.8244 16.997 57.8244Z" fill="url(#paint29_linear_4_3)"/>
<path d="M16.9972 57.9186C11.8958 57.9186 6.56348 57.4321 6.56348 56.4945C6.56348 56.4438 6.58124 56.3525 6.63454 56.3525C6.6853 56.3525 6.665 56.4235 6.665 56.4742C6.665 57.0697 10.9085 57.7311 16.9997 57.7311C23.0909 57.7311 27.3345 57.0672 27.3345 56.4742C27.3345 56.4235 27.3421 56.3753 27.3954 56.3753C27.4461 56.3753 27.4334 56.4438 27.4334 56.4945C27.4309 57.4321 22.096 57.9186 16.9972 57.9186Z" fill="url(#paint30_linear_4_3)"/>
<path d="M16.01 56.5468C16.1115 56.4759 16.2206 56.4074 16.3374 56.3365C16.4516 56.2681 16.6039 56.2047 16.7866 56.149C16.9693 56.0932 17.1977 56.0476 17.4744 56.0121C17.7485 55.9766 18.0937 55.9589 18.5048 55.9564C18.9084 55.9538 19.2865 55.9665 19.6393 55.9944C19.9921 56.0223 20.3043 56.0628 20.5733 56.1186C20.8423 56.1743 21.0606 56.2402 21.2281 56.3213C21.3956 56.4024 21.4946 56.4936 21.5276 56.5975L22.7027 56.6102C22.789 56.6102 22.8626 56.6178 22.9285 56.6304C22.9945 56.6431 23.025 56.6609 23.025 56.6811V56.7774L21.5149 56.7622C21.4616 56.8813 21.3271 56.9878 21.1113 57.0866C20.8956 57.1854 20.619 57.269 20.2839 57.3425L19.7332 57.2665C19.685 57.2589 19.6444 57.2488 19.6114 57.2386C19.5784 57.226 19.5632 57.2158 19.5632 57.2006C19.5632 57.1829 19.6063 57.1601 19.6901 57.1373C19.7764 57.1145 19.8703 57.0841 19.9769 57.0486C20.0834 57.0131 20.1875 56.9726 20.2916 56.9244C20.3931 56.8763 20.4616 56.8205 20.4971 56.7521L16.9338 56.7166C16.8399 56.785 16.7358 56.8534 16.6191 56.9193C16.5023 56.9852 16.3501 57.046 16.1572 57.0993C15.9643 57.1525 15.7257 57.1956 15.4414 57.2285C15.1547 57.2614 14.7943 57.2792 14.3603 57.2817C14.0329 57.2842 13.7156 57.2716 13.4034 57.2437C13.0913 57.2184 12.8146 57.1778 12.5735 57.1246C12.3324 57.0714 12.1344 57.008 11.9796 56.9295C11.8248 56.8509 11.7385 56.7622 11.7207 56.6634L10.7538 56.6533C10.6675 56.6533 10.5939 56.6457 10.5253 56.633C10.4594 56.6203 10.4238 56.6026 10.4238 56.5823V56.486L11.7461 56.4987C11.8045 56.3973 11.9238 56.3086 12.1065 56.2326C12.2893 56.1566 12.5126 56.0907 12.7766 56.0324L13.2182 56.0932C13.3527 56.111 13.4187 56.1338 13.4187 56.1591C13.4187 56.1718 13.3907 56.1895 13.3349 56.2098C13.2791 56.2301 13.2131 56.2554 13.1369 56.2833C13.0608 56.3111 12.9872 56.3441 12.9161 56.3821C12.8451 56.4201 12.7918 56.4632 12.7562 56.5113L16.01 56.5468ZM12.7512 56.6786C12.7766 56.7419 12.8375 56.7952 12.9263 56.8433C13.0151 56.8889 13.1268 56.9269 13.2613 56.9573C13.3958 56.9878 13.5456 57.008 13.7131 57.0232C13.8806 57.0359 14.0582 57.0435 14.241 57.0435C14.4542 57.0435 14.642 57.0334 14.8019 57.0156C14.9592 56.9979 15.0988 56.9751 15.2206 56.9447C15.3399 56.9143 15.4465 56.8813 15.5354 56.8408C15.6242 56.8002 15.7054 56.7597 15.7765 56.7115L12.7512 56.6786ZM20.5073 56.5924C20.4819 56.5291 20.4159 56.4733 20.3144 56.4226C20.2129 56.3745 20.0834 56.334 19.9286 56.301C19.7713 56.2681 19.5885 56.2427 19.3804 56.2275C19.1723 56.2123 18.9439 56.2047 18.6926 56.2047C18.4693 56.2047 18.2764 56.2149 18.1165 56.2351C17.9566 56.2529 17.817 56.2782 17.6977 56.3111C17.581 56.3441 17.4795 56.3796 17.3957 56.4226C17.312 56.4657 17.2358 56.5113 17.1648 56.5595L20.5073 56.5924Z" fill="#FCB048"/>
<path d="M16.9967 55.2676C12.3471 55.2676 7.50456 55.6756 6.73047 56.4662C6.76092 56.4941 6.78884 56.5245 6.81422 56.5549C7.46649 56.005 11.4638 55.4526 16.9941 55.4526C22.6666 55.4526 26.7274 56.0354 27.2197 56.598C27.2451 56.5676 27.2705 56.5372 27.2984 56.5093C26.6614 55.6908 21.73 55.2676 16.9967 55.2676Z" fill="url(#paint31_linear_4_3)"/>
<path d="M9.06836 54.0527V56.3613C9.06836 57.1063 13.7383 57.712 19.497 57.712C25.2557 57.712 29.9256 57.1063 29.9256 56.3613V54.0527H9.06836Z" fill="url(#paint32_linear_4_3)"/>
<path d="M19.498 55.4035C25.2575 55.4035 29.9266 54.7988 29.9266 54.0528C29.9266 53.3069 25.2575 52.7021 19.498 52.7021C13.7384 52.7021 9.06934 53.3069 9.06934 54.0528C9.06934 54.7988 13.7384 55.4035 19.498 55.4035Z" fill="url(#paint33_linear_4_3)"/>
<path d="M19.4972 55.4977C14.3958 55.4977 9.06348 55.0112 9.06348 54.0736C9.06348 54.0229 9.08124 53.9316 9.13454 53.9316C9.1853 53.9316 9.165 54.0026 9.165 54.0533C9.165 54.6488 13.4085 55.3102 19.4997 55.3102C25.5909 55.3102 29.8345 54.6463 29.8345 54.0533C29.8345 54.0026 29.8421 53.9545 29.8954 53.9545C29.9461 53.9545 29.9334 54.0229 29.9334 54.0736C29.9309 55.0137 24.5986 55.4977 19.4972 55.4977Z" fill="url(#paint34_linear_4_3)"/>
<path d="M18.5129 54.1289C18.6144 54.0579 18.7235 53.9895 18.8403 53.9185C18.9545 53.8501 19.1068 53.7867 19.2895 53.731C19.4723 53.6752 19.7007 53.6296 19.9773 53.5942C20.2514 53.5587 20.5966 53.5409 21.0077 53.5384C21.4113 53.5359 21.7894 53.5485 22.1422 53.5764C22.495 53.6043 22.8072 53.6448 23.0762 53.7006C23.3452 53.7563 23.5635 53.8222 23.731 53.9033C23.8985 53.9844 23.9975 54.0756 24.0305 54.1795L25.2056 54.1922C25.2919 54.1922 25.3655 54.1998 25.4315 54.2125C25.4975 54.2252 25.5279 54.2429 25.5279 54.2632V54.3595L24.0178 54.3443C23.9645 54.4634 23.83 54.5698 23.6143 54.6686C23.3985 54.7675 23.1219 54.8511 22.7869 54.9246L22.2361 54.8485C22.1879 54.8409 22.1473 54.8308 22.1143 54.8207C22.0813 54.808 22.0661 54.7979 22.0661 54.7827C22.0661 54.7649 22.1092 54.7421 22.193 54.7193C22.2793 54.6965 22.3732 54.6661 22.4798 54.6306C22.5864 54.5951 22.6904 54.5546 22.7945 54.5064C22.896 54.4583 22.9645 54.4025 23.0001 54.3341L19.4367 54.2986C19.3428 54.3671 19.2388 54.4355 19.122 54.5014C19.0053 54.5673 18.853 54.6281 18.6601 54.6813C18.4672 54.7345 18.2286 54.7776 17.9444 54.8105C17.6576 54.8435 17.2972 54.8612 16.8632 54.8637C16.5358 54.8663 16.2185 54.8536 15.9064 54.8257C15.5942 54.8004 15.3176 54.7598 15.0764 54.7066C14.8353 54.6534 14.6374 54.5901 14.4826 54.5115C14.3277 54.4329 14.2414 54.3443 14.2237 54.2454L13.2567 54.2353C13.1704 54.2353 13.0968 54.2277 13.0283 54.215C12.9623 54.2023 12.9268 54.1846 12.9268 54.1643V54.068L14.2491 54.0807C14.3074 53.9793 14.4267 53.8906 14.6094 53.8146C14.7922 53.7386 15.0155 53.6727 15.2795 53.6119L15.7211 53.6727C15.8556 53.6905 15.9216 53.7133 15.9216 53.7386C15.9216 53.7513 15.8937 53.769 15.8378 53.7893C15.782 53.8096 15.716 53.8349 15.6399 53.8628C15.5637 53.8906 15.4901 53.9236 15.4191 53.9616C15.348 53.9996 15.2947 54.0427 15.2592 54.0908L18.5129 54.1289ZM15.2516 54.2606C15.2769 54.324 15.3379 54.3772 15.4267 54.4253C15.5155 54.471 15.6272 54.509 15.7617 54.5394C15.8962 54.5698 16.046 54.5901 16.2135 54.6053C16.381 54.6179 16.5586 54.6255 16.7414 54.6255C16.9546 54.6255 17.1424 54.6154 17.3023 54.5977C17.4596 54.5799 17.5992 54.5571 17.721 54.5267C17.8403 54.4963 17.9469 54.4634 18.0357 54.4228C18.1246 54.3823 18.2058 54.3417 18.2769 54.2936L15.2516 54.2606ZM23.0077 54.1745C22.9823 54.1111 22.9163 54.0528 22.8148 54.0047C22.7133 53.9565 22.5838 53.916 22.429 53.883C22.2717 53.8501 22.0889 53.8248 21.8808 53.8096C21.6727 53.7943 21.4443 53.7867 21.193 53.7867C20.9697 53.7867 20.7768 53.7969 20.6169 53.8172C20.457 53.8349 20.3174 53.8602 20.1981 53.8932C20.0814 53.9261 19.9799 53.9616 19.8961 54.0047C19.8123 54.0478 19.7362 54.0934 19.6651 54.1415L23.0077 54.1745Z" fill="#FCB048"/>
<path d="M19.4996 52.8496C14.85 52.8496 10.0075 53.2576 9.2334 54.0482C9.26385 54.0761 9.29177 54.1065 9.31715 54.1369C9.96942 53.587 13.9668 53.0346 19.4971 53.0346C25.1695 53.0346 29.2303 53.6174 29.7227 54.18C29.748 54.1496 29.7734 54.1192 29.8013 54.0913C29.1643 53.2728 24.2304 52.8496 19.4996 52.8496Z" fill="url(#paint35_linear_4_3)"/>
<path d="M7.76855 51.6279V53.9365C7.76855 54.6815 12.4385 55.2872 18.1972 55.2872C23.9559 55.2872 28.6258 54.6815 28.6258 53.9365V51.6279H7.76855Z" fill="url(#paint36_linear_4_3)"/>
<path d="M18.1982 52.9787C23.9577 52.9787 28.6268 52.374 28.6268 51.628C28.6268 50.8821 23.9577 50.2773 18.1982 50.2773C12.4386 50.2773 7.76953 50.8821 7.76953 51.628C7.76953 52.374 12.4386 52.9787 18.1982 52.9787Z" fill="url(#paint37_linear_4_3)"/>
<path d="M18.1974 53.0729C13.096 53.0729 7.76367 52.5864 7.76367 51.6487C7.76367 51.5981 7.78144 51.5068 7.83474 51.5068C7.8855 51.5068 7.86519 51.5778 7.86519 51.6285C7.86519 52.224 12.1087 52.8854 18.1999 52.8854C24.2911 52.8854 28.5346 52.2215 28.5346 51.6285C28.5346 51.5778 28.5423 51.5296 28.5956 51.5296C28.6463 51.5296 28.6336 51.5981 28.6336 51.6487C28.6311 52.5864 23.2962 53.0729 18.1974 53.0729Z" fill="url(#paint38_linear_4_3)"/>
<path d="M18.1978 50.4248C13.5482 50.4248 8.70573 50.8328 7.93164 51.6234C7.9621 51.6513 7.99001 51.6817 8.01539 51.7121C8.66766 51.1622 12.665 50.6098 18.1953 50.6098C23.8677 50.6098 27.9285 51.1926 28.4209 51.7552C28.4463 51.7248 28.4717 51.6944 28.4996 51.6665C27.8625 50.848 22.9312 50.4248 18.1978 50.4248Z" fill="url(#paint39_linear_4_3)"/>
<path d="M31.5911 53.2578L29.7053 54.5958C29.0962 55.0292 31.3094 59.1775 34.6468 63.8631C37.9843 68.5487 41.1847 71.9976 41.7938 71.5643L43.6796 70.2263L31.5911 53.2578Z" fill="url(#paint40_linear_4_3)"/>
<path d="M43.6796 70.2259C43.0704 70.6592 39.87 67.2103 36.5326 62.5247C33.1951 57.8391 30.982 53.6883 31.5911 53.2575C32.2002 52.8241 35.4006 56.2731 38.7381 60.9586C42.0781 65.6442 44.2887 69.7926 43.6796 70.2259Z" fill="url(#paint41_linear_4_3)"/>
<path d="M36.4561 62.5779C33.4993 58.427 30.804 53.8073 31.5705 53.2625C31.6136 53.2321 31.6974 53.194 31.7278 53.2371C31.7583 53.2802 31.6872 53.303 31.6441 53.3309C31.1593 53.6755 33.078 57.5122 36.6084 62.4689C40.1387 67.4231 43.1387 70.4945 43.626 70.1473C43.6691 70.1169 43.7122 70.0966 43.7427 70.1397C43.7732 70.1828 43.7097 70.2106 43.6666 70.2411C42.9001 70.7859 39.4129 66.7288 36.4561 62.5779Z" fill="url(#paint42_linear_4_3)"/>
<path d="M38.6215 61.0448C35.9261 57.2614 32.7866 53.559 31.6928 53.3867C31.6877 53.4273 31.6801 53.4678 31.6699 53.5084C32.4973 53.7212 35.2637 56.6532 38.4692 61.1538C41.7559 65.7684 43.6366 69.4099 43.464 70.1372C43.5021 70.1398 43.5427 70.1423 43.5807 70.1499C43.8752 69.1515 41.3625 64.8941 38.6215 61.0448Z" fill="url(#paint43_linear_4_3)"/>
<path d="M60.3691 37.7907C60.5011 37.6842 60.6762 37.5119 60.7752 37.2559C60.8818 36.9797 60.8082 36.8581 60.9427 36.6858C61.1128 36.4678 61.463 36.3741 61.7041 36.4805C61.7549 36.5033 61.8158 36.5337 61.8539 36.5996C61.9605 36.7795 61.7244 37.0912 61.5341 37.2559C61.392 37.3801 61.3336 37.3725 61.1813 37.4764C61.0341 37.5803 60.8488 37.7577 60.6991 38.0871L60.3691 37.7907Z" fill="url(#paint44_linear_4_3)"/>
<path d="M68.2778 36.2833C68.1154 36.2377 67.887 36.1465 67.6941 35.9488C67.4885 35.7359 67.5088 35.594 67.3184 35.4876C67.0748 35.3533 66.7169 35.404 66.5393 35.594C66.5012 35.6346 66.4581 35.6878 66.4479 35.7638C66.42 35.9716 66.7601 36.1642 66.9986 36.2453C67.1788 36.3036 67.2296 36.2732 67.4098 36.3137C67.5849 36.3517 67.826 36.4429 68.09 36.6888L68.2778 36.2833Z" fill="url(#paint45_linear_4_3)"/>
<path d="M67.5217 36.5396C67.4176 37.0389 67.9582 37.4823 68.3465 37.9182C69.1282 38.7925 69.948 40.3535 69.646 41.694C69.481 42.4264 68.9557 43.217 68.212 43.5921C67.4126 43.995 66.9329 43.6276 66.1004 44.1091C66.0395 44.1445 64.9862 44.7679 64.9558 45.6067C64.9177 46.6432 66.4456 47.748 67.7526 47.8317C70.1434 47.9863 73.0241 44.811 72.8896 41.6611C72.7424 38.2324 69.0521 35.5108 67.9912 35.972C67.8263 36.0455 67.5801 36.2584 67.5217 36.5396Z" fill="url(#paint46_linear_4_3)"/>
<path d="M66.4574 72.0476L66.3711 72.9168L66.7772 72.8433L67.0487 72.0273L66.4574 72.0476Z" fill="url(#paint47_linear_4_3)"/>
<path d="M68.927 55.9961C68.8839 57.5394 68.691 58.8596 68.4651 59.9366C68.2189 61.0973 68.0768 61.2975 68.0006 62.0982C67.8331 63.8417 68.3966 64.0926 68.5006 66.0641C68.6148 68.241 68.0362 69.9718 67.8078 70.6332C67.6073 71.2109 67.3991 71.6772 67.2418 71.999C67.0413 72.1739 66.7367 72.1055 66.4144 72.0396C66.2951 70.0655 66.1479 68.2055 66.0286 66.2314C65.6454 63.2614 65.2621 60.2889 64.8789 57.3189C66.2266 56.878 67.5768 56.437 68.927 55.9961Z" fill="url(#paint48_linear_4_3)"/>
<path opacity="0.3" d="M66.4124 72.0425C66.2932 70.0684 66.1459 68.2084 66.0267 66.2343C65.6434 63.2643 65.2602 60.2918 64.877 57.3218C66.2272 56.8809 67.5774 56.44 68.9276 55.999C68.9251 56.1004 68.92 56.1992 68.9149 56.3006C67.0216 57.9427 66.651 59.2427 66.6688 60.1296C66.6916 61.2066 67.2804 61.7388 67.1662 63.2998C67.085 64.4148 66.7475 64.6125 66.7475 65.6185C66.7475 66.916 67.3058 67.6433 67.5774 68.3934C67.8388 69.1181 67.9327 70.1419 67.4251 71.6016C67.3591 71.7511 67.2957 71.8879 67.2398 72.002C67.0393 72.1743 66.7348 72.1059 66.4124 72.0425Z" fill="url(#paint49_linear_4_3)"/>
<path d="M66.6097 73.2129C66.8026 72.9747 66.9777 72.9924 67.0107 72.8328C67.0361 72.7061 66.9549 72.554 66.8381 72.4983C66.6732 72.4197 66.4777 72.5515 66.4321 72.5819C66.1326 72.7872 66.2214 73.0938 65.9372 73.2332C65.8788 73.261 65.79 73.2914 65.6935 73.3852C65.6529 73.4232 65.5539 73.5221 65.5793 73.5854C65.6072 73.6614 65.79 73.6538 65.9625 73.6488C66.1681 73.6412 66.2722 73.6386 66.3712 73.5727C66.5031 73.484 66.46 73.3979 66.6097 73.2129Z" fill="url(#paint50_linear_4_3)"/>
<path d="M66.2012 65.7806L66.96 66.0771L67.1808 65.7299L66.5869 65.332L66.2012 65.7806Z" fill="url(#paint51_linear_4_3)"/>
<path d="M67.3591 66.2619C67.3135 65.9603 67.448 65.8437 67.349 65.7094C67.2729 65.6055 67.1054 65.5599 66.9835 65.6081C66.8135 65.6765 66.7779 65.9096 66.7703 65.9628C66.717 66.3227 67.0038 66.4646 66.915 66.7687C66.8972 66.8295 66.8566 66.9182 66.8617 67.05C66.8642 67.1057 66.8668 67.2451 66.9328 67.2704C67.0089 67.3009 67.1257 67.164 67.2373 67.0322C67.3718 66.8751 67.4404 66.7966 67.4581 66.6825C67.486 66.5203 67.3947 66.4925 67.3591 66.2619Z" fill="url(#paint52_linear_4_3)"/>
<path d="M62.9228 54.623C61.5117 57.4967 61.032 59.894 60.8492 61.4601C60.7325 62.4661 60.7452 63.0895 61.0345 63.7155C62.0751 65.9531 65.7019 66.1026 66.2526 66.1178C66.4328 65.7478 66.6156 65.3753 66.7958 65.0053C66.4633 64.387 65.8796 63.5279 64.8821 62.902C64.1157 62.4205 63.8162 62.5244 63.6233 62.2001C62.8543 60.9026 67.0014 58.0897 66.3821 56.217C66.1714 55.5708 65.3466 54.9119 62.9228 54.623Z" fill="url(#paint53_linear_4_3)"/>
<path d="M65.983 44.2906C64.4577 44.5516 63.2953 44.8253 62.7775 45.6236C62.2293 46.4674 63.0999 47.1009 63.3384 48.9483C63.7014 51.7789 62.072 52.8357 62.539 55.6865C62.6151 56.1528 62.7319 56.5659 62.8562 56.9181C63.077 57.539 63.5034 58.0635 64.0618 58.4132C64.4805 58.6768 64.9907 58.9403 65.5896 59.1507C67.1378 59.6904 67.8992 59.3762 69.9804 59.4953C73.3838 59.6904 73.894 60.6762 75.432 60.068C76.9852 59.4548 78.1121 57.8 77.7822 57.093C77.5842 56.6698 76.9624 56.9333 76.069 56.4138C74.9168 55.7423 75.1122 54.8275 74.1782 54.0444C72.8356 52.9167 71.5463 54.0546 70.3991 53.0764C69.2393 52.0856 69.0997 49.6731 69.5921 48.2362C69.9144 47.2986 69.9195 46.2799 70.1606 45.3169C70.1809 45.2358 70.1961 45.1091 70.1453 44.9647C69.955 44.4122 68.9423 44.3058 68.1759 44.2323C67.0058 44.1208 66.1074 44.2703 65.983 44.2906Z" fill="url(#paint54_linear_4_3)"/>
<path opacity="0.3" d="M75.2524 58.9967C74.7803 58.6825 75.0367 57.793 74.3387 57.3216C73.6915 56.8832 73.1865 57.4559 72.2296 57.1645C71.0038 56.7895 71.0698 55.6111 69.8947 55.2361C69.0495 54.9649 68.7957 55.5047 67.5775 55.5275C66.3618 55.5503 64.7679 55.0511 63.7603 53.7637C63.3314 53.2164 63.0929 52.6335 62.9609 52.0938C62.636 53.1429 62.2832 54.1565 62.5345 55.6846C62.636 56.3029 62.8086 56.8326 62.9786 57.2481C63.136 57.6359 63.405 57.9704 63.7477 58.2086C64.2172 58.5355 64.8288 58.8852 65.5826 59.1487C67.1308 59.6885 67.8922 59.3743 69.9734 59.4934C73.3768 59.6885 73.887 60.6743 75.425 60.0661C76.4173 59.6733 77.2346 58.8573 77.6102 58.1326C76.2701 59.1158 75.595 59.2248 75.2524 58.9967Z" fill="url(#paint55_linear_4_3)"/>
<path d="M65.0999 41.6553C65.0999 41.6553 64.6786 42.4434 64.6533 42.9958C64.6279 43.5483 65.2522 43.5077 65.2522 43.5077L65.2294 43.8574C65.2091 44.1564 65.0162 44.4124 64.7345 44.5163L64.4883 44.6075C64.4883 44.6075 66.0974 44.9522 66.9781 44.3313L66.7243 44.306C66.3664 44.2705 66.0821 43.9892 66.0441 43.6293L66.0288 43.4798C66.0288 43.4798 66.308 41.7566 65.0999 41.6553Z" fill="url(#paint56_linear_4_3)"/>
<path d="M61.1382 37.9485C61.3767 38.3996 60.9808 38.9749 60.727 39.5019C60.2169 40.5587 59.8615 42.2844 60.5189 43.4881C60.8793 44.147 61.6026 44.7628 62.4224 44.9174C63.3031 45.0846 63.6609 44.6006 64.5949 44.8312C64.6634 44.8489 65.8461 45.1581 66.1076 45.9563C66.4299 46.9421 65.2675 48.4246 64.034 48.8655C61.7777 49.6714 58.1332 47.4135 57.3921 44.3497C56.585 41.0123 59.3819 37.3809 60.529 37.5329C60.7067 37.5583 61.0036 37.6951 61.1382 37.9485Z" fill="url(#paint57_linear_4_3)"/>
<path d="M65.3515 42.4384C65.4352 42.4308 65.5038 42.3269 65.5596 42.3573C65.6205 42.3903 65.6129 42.5449 65.5596 42.6513C65.5164 42.74 65.4479 42.7907 65.4098 42.8135C65.4733 42.9022 65.557 43.039 65.59 43.2215C65.6662 43.6219 65.453 43.9412 65.3642 44.1312C64.9657 44.9776 65.585 46.3182 66.2652 46.9948C66.8184 47.5447 67.0773 47.3242 67.4072 47.7728C68.0494 48.647 67.1636 49.6075 67.4961 50.7858C68.0011 52.5749 70.831 53.1071 70.9478 53.1273C70.9934 53.1349 71.0239 53.14 71.0721 53.1476C72.3411 53.3478 74.2649 53.6544 75.6202 52.6129C76.6329 51.8349 77.0999 50.4792 77.0212 49.2856C77.0009 48.9714 76.907 47.7804 75.9324 46.8073C75.7776 46.6527 74.8639 45.7404 73.6304 45.7303C72.9756 45.7252 72.8436 45.9533 72.3437 45.8114C71.6584 45.6162 71.2371 44.9954 70.9757 44.6102C70.4935 43.9006 70.6889 43.7486 70.3437 43.4014C69.6661 42.7172 68.8691 43.2544 68.1433 42.6513C67.4301 42.0558 67.859 41.2499 67.1712 40.7355C66.4606 40.2059 65.1002 40.3909 64.8083 41.0219C64.5647 41.5667 65.0977 42.4587 65.3515 42.4384Z" fill="url(#paint58_linear_4_3)"/>
</g>
<defs>
<filter id="filter0_d_4_3" x="0.870117" y="0.630859" width="81.1299" height="81.0205" filterUnits="userSpaceOnUse" color-interpolation-filters="sRGB">
<feFlood flood-opacity="0" result="BackgroundImageFix"/>
<feColorMatrix in="SourceAlpha" type="matrix" values="0 0 0 0 0 0 0 0 0 0 0 0 0 0 0 0 0 0 127 0" result="hardAlpha"/>
<feOffset dy="4"/>
<feGaussianBlur stdDeviation="2"/>
<feComposite in2="hardAlpha" operator="out"/>
<feColorMatrix type="matrix" values="0 0 0 0 0 0 0 0 0 0 0 0 0 0 0 0 0 0 0.25 0"/>
<feBlend mode="normal" in2="BackgroundImageFix" result="effect1_dropShadow_4_3"/>
<feBlend mode="normal" in="SourceGraphic" in2="effect1_dropShadow_4_3" result="shape"/>
</filter>
<linearGradient id="paint0_linear_4_3" x1="80.2105" y1="37.1083" x2="15.0628" y2="79.1079" gradientUnits="userSpaceOnUse">
<stop offset="0.00359712" stop-color="#E38DDD"/>
<stop offset="1" stop-color="#9571F6"/>
</linearGradient>
<linearGradient id="paint1_linear_4_3" x1="69.5084" y1="11.958" x2="60.8713" y2="58.8273" gradientUnits="userSpaceOnUse">
<stop stop-color="#FF9085"/>
<stop offset="1" stop-color="#FB6FBB"/>
</linearGradient>
<linearGradient id="paint2_linear_4_3" x1="23.4478" y1="76.7054" x2="66.0858" y2="-4.92809" gradientUnits="userSpaceOnUse">
<stop stop-color="#444B8C"/>
<stop offset="0.9964" stop-color="#26264F"/>
</linearGradient>
<linearGradient id="paint3_linear_4_3" x1="-2.71939" y1="130.051" x2="39.9186" y2="48.4173" gradientUnits="userSpaceOnUse">
<stop stop-color="#AA80F9"/>
<stop offset="0.9964" stop-color="#6165D7"/>
</linearGradient>
<linearGradient id="paint4_linear_4_3" x1="60.2079" y1="22.0372" x2="-14.0597" y2="104.32" gradientUnits="userSpaceOnUse">
<stop stop-color="#AA80F9"/>
<stop offset="0.9964" stop-color="#6165D7"/>
</linearGradient>
<linearGradient id="paint5_linear_4_3" x1="16.8472" y1="39.3309" x2="61.804" y2="39.3309" gradientUnits="userSpaceOnUse">
<stop stop-color="#AA80F9"/>
<stop offset="0.9964" stop-color="#6165D7"/>
</linearGradient>
<linearGradient id="paint6_linear_4_3" x1="22.0069" y1="41.6839" x2="50.8129" y2="2.14473" gradientUnits="userSpaceOnUse">
<stop stop-color="#FCB148"/>
<stop offset="0.0520724" stop-color="#FDBA46"/>
<stop offset="0.1424" stop-color="#FFC244"/>
<stop offset="0.3183" stop-color="#FFC444"/>
<stop offset="0.4849" stop-color="#FDB946"/>
<stop offset="0.7754" stop-color="#F99C4D"/>
<stop offset="0.8658" stop-color="#F8924F"/>
<stop offset="1" stop-color="#F8924F"/>
</linearGradient>
<linearGradient id="paint7_linear_4_3" x1="45.4635" y1="22.6935" x2="56.112" y2="8.07731" gradientUnits="userSpaceOnUse">
<stop stop-color="#FCB148"/>
<stop offset="0.0520724" stop-color="#FDBA46"/>
<stop offset="0.1424" stop-color="#FFC244"/>
<stop offset="0.3183" stop-color="#FFC444"/>
<stop offset="0.4849" stop-color="#FDB946"/>
<stop offset="0.7754" stop-color="#F99C4D"/>
<stop offset="0.8658" stop-color="#F8924F"/>
<stop offset="1" stop-color="#F8924F"/>
</linearGradient>
<linearGradient id="paint8_linear_4_3" x1="7.68409" y1="70.6159" x2="31.6779" y2="70.6159" gradientUnits="userSpaceOnUse">
<stop stop-color="#FCB148"/>
<stop offset="0.0520724" stop-color="#FDBA46"/>
<stop offset="0.1424" stop-color="#FFC244"/>
<stop offset="0.3183" stop-color="#FFC444"/>
<stop offset="0.4849" stop-color="#FDB946"/>
<stop offset="0.7754" stop-color="#F99C4D"/>
<stop offset="0.8658" stop-color="#F8924F"/>
<stop offset="1" stop-color="#F8924F"/>
</linearGradient>
<linearGradient id="paint9_linear_4_3" x1="19.7913" y1="67.9174" x2="21.0524" y2="78.4909" gradientUnits="userSpaceOnUse">
<stop stop-color="#FFDB44"/>
<stop offset="1" stop-color="#FEEF06"/>
</linearGradient>
<linearGradient id="paint10_linear_4_3" x1="19.7365" y1="67.4463" x2="20.1238" y2="70.6936" gradientUnits="userSpaceOnUse">
<stop stop-color="#FFDB44"/>
<stop offset="1" stop-color="#FEEF06"/>
</linearGradient>
<linearGradient id="paint11_linear_4_3" x1="20.1021" y1="70.3527" x2="19.7162" y2="67.1169" gradientUnits="userSpaceOnUse">
<stop offset="0.00359712" stop-color="#F36F56"/>
<stop offset="0.3059" stop-color="#F99C4C"/>
<stop offset="0.545" stop-color="#FDB946"/>
<stop offset="0.6817" stop-color="#FFC444"/>
<stop offset="0.8038" stop-color="#FFC244"/>
<stop offset="0.8667" stop-color="#FEBA46"/>
<stop offset="0.916" stop-color="#FCAD49"/>
<stop offset="0.958" stop-color="#F99A4D"/>
<stop offset="0.9955" stop-color="#F58152"/>
<stop offset="1" stop-color="#F57E53"/>
</linearGradient>
<linearGradient id="paint12_linear_4_3" x1="4.7851" y1="68.1905" x2="28.7789" y2="68.1905" gradientUnits="userSpaceOnUse">
<stop stop-color="#FCB148"/>
<stop offset="0.0520724" stop-color="#FDBA46"/>
<stop offset="0.1424" stop-color="#FFC244"/>
<stop offset="0.3183" stop-color="#FFC444"/>
<stop offset="0.4849" stop-color="#FDB946"/>
<stop offset="0.7754" stop-color="#F99C4D"/>
<stop offset="0.8658" stop-color="#F8924F"/>
<stop offset="1" stop-color="#F8924F"/>
</linearGradient>
<linearGradient id="paint13_linear_4_3" x1="16.8923" y1="65.4919" x2="18.1534" y2="76.0655" gradientUnits="userSpaceOnUse">
<stop stop-color="#FFDB44"/>
<stop offset="1" stop-color="#FEEF06"/>
</linearGradient>
<linearGradient id="paint14_linear_4_3" x1="16.8375" y1="65.0208" x2="17.2248" y2="68.2681" gradientUnits="userSpaceOnUse">
<stop stop-color="#FFDB44"/>
<stop offset="1" stop-color="#FEEF06"/>
</linearGradient>
<linearGradient id="paint15_linear_4_3" x1="17.2021" y1="67.9272" x2="16.8162" y2="64.6914" gradientUnits="userSpaceOnUse">
<stop offset="0.00359712" stop-color="#F36F56"/>
<stop offset="0.3059" stop-color="#F99C4C"/>
<stop offset="0.545" stop-color="#FDB946"/>
<stop offset="0.6817" stop-color="#FFC444"/>
<stop offset="0.8038" stop-color="#FFC244"/>
<stop offset="0.8667" stop-color="#FEBA46"/>
<stop offset="0.916" stop-color="#FCAD49"/>
<stop offset="0.958" stop-color="#F99A4D"/>
<stop offset="0.9955" stop-color="#F58152"/>
<stop offset="1" stop-color="#F57E53"/>
</linearGradient>
<linearGradient id="paint16_linear_4_3" x1="7.28656" y1="65.7719" x2="31.2804" y2="65.7719" gradientUnits="userSpaceOnUse">
<stop stop-color="#FCB148"/>
<stop offset="0.0520724" stop-color="#FDBA46"/>
<stop offset="0.1424" stop-color="#FFC244"/>
<stop offset="0.3183" stop-color="#FFC444"/>
<stop offset="0.4849" stop-color="#FDB946"/>
<stop offset="0.7754" stop-color="#F99C4D"/>
<stop offset="0.8658" stop-color="#F8924F"/>
<stop offset="1" stop-color="#F8924F"/>
</linearGradient>
<linearGradient id="paint17_linear_4_3" x1="19.3947" y1="63.0734" x2="20.6558" y2="73.6469" gradientUnits="userSpaceOnUse">
<stop stop-color="#FFDB44"/>
<stop offset="1" stop-color="#FEEF06"/>
</linearGradient>
<linearGradient id="paint18_linear_4_3" x1="19.339" y1="62.6023" x2="19.7263" y2="65.8496" gradientUnits="userSpaceOnUse">
<stop stop-color="#FFDB44"/>
<stop offset="1" stop-color="#FEEF06"/>
</linearGradient>
<linearGradient id="paint19_linear_4_3" x1="19.704" y1="65.5091" x2="19.3181" y2="62.2733" gradientUnits="userSpaceOnUse">
<stop offset="0.00359712" stop-color="#F36F56"/>
<stop offset="0.3059" stop-color="#F99C4C"/>
<stop offset="0.545" stop-color="#FDB946"/>
<stop offset="0.6817" stop-color="#FFC444"/>
<stop offset="0.8038" stop-color="#FFC244"/>
<stop offset="0.8667" stop-color="#FEBA46"/>
<stop offset="0.916" stop-color="#FCAD49"/>
<stop offset="0.958" stop-color="#F99A4D"/>
<stop offset="0.9955" stop-color="#F58152"/>
<stop offset="1" stop-color="#F57E53"/>
</linearGradient>
<linearGradient id="paint20_linear_4_3" x1="8.80476" y1="63.3455" x2="32.7986" y2="63.3455" gradientUnits="userSpaceOnUse">
<stop stop-color="#FCB148"/>
<stop offset="0.0520724" stop-color="#FDBA46"/>
<stop offset="0.1424" stop-color="#FFC244"/>
<stop offset="0.3183" stop-color="#FFC444"/>
<stop offset="0.4849" stop-color="#FDB946"/>
<stop offset="0.7754" stop-color="#F99C4D"/>
<stop offset="0.8658" stop-color="#F8924F"/>
<stop offset="1" stop-color="#F8924F"/>
</linearGradient>
<linearGradient id="paint21_linear_4_3" x1="20.9115" y1="60.6469" x2="22.1727" y2="71.2205" gradientUnits="userSpaceOnUse">
<stop stop-color="#FFDB44"/>
<stop offset="1" stop-color="#FEEF06"/>
</linearGradient>
<linearGradient id="paint22_linear_4_3" x1="20.8567" y1="60.1758" x2="21.244" y2="63.4231" gradientUnits="userSpaceOnUse">
<stop stop-color="#FFDB44"/>
<stop offset="1" stop-color="#FEEF06"/>
</linearGradient>
<linearGradient id="paint23_linear_4_3" x1="21.2218" y1="63.0822" x2="20.8358" y2="59.8464" gradientUnits="userSpaceOnUse">
<stop offset="0.00359712" stop-color="#F36F56"/>
<stop offset="0.3059" stop-color="#F99C4C"/>
<stop offset="0.545" stop-color="#FDB946"/>
<stop offset="0.6817" stop-color="#FFC444"/>
<stop offset="0.8038" stop-color="#FFC244"/>
<stop offset="0.8667" stop-color="#FEBA46"/>
<stop offset="0.916" stop-color="#FCAD49"/>
<stop offset="0.958" stop-color="#F99A4D"/>
<stop offset="0.9955" stop-color="#F58152"/>
<stop offset="1" stop-color="#F57E53"/>
</linearGradient>
<linearGradient id="paint24_linear_4_3" x1="7.68409" y1="60.7289" x2="31.6779" y2="60.7289" gradientUnits="userSpaceOnUse">
<stop stop-color="#FCB148"/>
<stop offset="0.0520724" stop-color="#FDBA46"/>
<stop offset="0.1424" stop-color="#FFC244"/>
<stop offset="0.3183" stop-color="#FFC444"/>
<stop offset="0.4849" stop-color="#FDB946"/>
<stop offset="0.7754" stop-color="#F99C4D"/>
<stop offset="0.8658" stop-color="#F8924F"/>
<stop offset="1" stop-color="#F8924F"/>
</linearGradient>
<linearGradient id="paint25_linear_4_3" x1="19.7913" y1="58.0303" x2="21.0524" y2="68.6039" gradientUnits="userSpaceOnUse">
<stop stop-color="#FFDB44"/>
<stop offset="1" stop-color="#FEEF06"/>
</linearGradient>
<linearGradient id="paint26_linear_4_3" x1="19.7365" y1="57.5592" x2="20.1238" y2="60.8065" gradientUnits="userSpaceOnUse">
<stop stop-color="#FFDB44"/>
<stop offset="1" stop-color="#FEEF06"/>
</linearGradient>
<linearGradient id="paint27_linear_4_3" x1="20.1021" y1="60.466" x2="19.7162" y2="57.2302" gradientUnits="userSpaceOnUse">
<stop offset="0.00359712" stop-color="#F36F56"/>
<stop offset="0.3059" stop-color="#F99C4C"/>
<stop offset="0.545" stop-color="#FDB946"/>
<stop offset="0.6817" stop-color="#FFC444"/>
<stop offset="0.8038" stop-color="#FFC244"/>
<stop offset="0.8667" stop-color="#FEBA46"/>
<stop offset="0.916" stop-color="#FCAD49"/>
<stop offset="0.958" stop-color="#F99A4D"/>
<stop offset="0.9955" stop-color="#F58152"/>
<stop offset="1" stop-color="#F57E53"/>
</linearGradient>
<linearGradient id="paint28_linear_4_3" x1="4.7851" y1="58.3034" x2="28.7789" y2="58.3034" gradientUnits="userSpaceOnUse">
<stop stop-color="#FCB148"/>
<stop offset="0.0520724" stop-color="#FDBA46"/>
<stop offset="0.1424" stop-color="#FFC244"/>
<stop offset="0.3183" stop-color="#FFC444"/>
<stop offset="0.4849" stop-color="#FDB946"/>
<stop offset="0.7754" stop-color="#F99C4D"/>
<stop offset="0.8658" stop-color="#F8924F"/>
<stop offset="1" stop-color="#F8924F"/>
</linearGradient>
<linearGradient id="paint29_linear_4_3" x1="16.8923" y1="55.6048" x2="18.1534" y2="66.1784" gradientUnits="userSpaceOnUse">
<stop stop-color="#FFDB44"/>
<stop offset="1" stop-color="#FEEF06"/>
</linearGradient>
<linearGradient id="paint30_linear_4_3" x1="16.8375" y1="55.1337" x2="17.2248" y2="58.3811" gradientUnits="userSpaceOnUse">
<stop stop-color="#FFDB44"/>
<stop offset="1" stop-color="#FEEF06"/>
</linearGradient>
<linearGradient id="paint31_linear_4_3" x1="17.2021" y1="58.0401" x2="16.8162" y2="54.8043" gradientUnits="userSpaceOnUse">
<stop offset="0.00359712" stop-color="#F36F56"/>
<stop offset="0.3059" stop-color="#F99C4C"/>
<stop offset="0.545" stop-color="#FDB946"/>
<stop offset="0.6817" stop-color="#FFC444"/>
<stop offset="0.8038" stop-color="#FFC244"/>
<stop offset="0.8667" stop-color="#FEBA46"/>
<stop offset="0.916" stop-color="#FCAD49"/>
<stop offset="0.958" stop-color="#F99A4D"/>
<stop offset="0.9955" stop-color="#F58152"/>
<stop offset="1" stop-color="#F57E53"/>
</linearGradient>
<linearGradient id="paint32_linear_4_3" x1="7.28656" y1="55.8839" x2="31.2804" y2="55.8839" gradientUnits="userSpaceOnUse">
<stop stop-color="#FCB148"/>
<stop offset="0.0520724" stop-color="#FDBA46"/>
<stop offset="0.1424" stop-color="#FFC244"/>
<stop offset="0.3183" stop-color="#FFC444"/>
<stop offset="0.4849" stop-color="#FDB946"/>
<stop offset="0.7754" stop-color="#F99C4D"/>
<stop offset="0.8658" stop-color="#F8924F"/>
<stop offset="1" stop-color="#F8924F"/>
</linearGradient>
<linearGradient id="paint33_linear_4_3" x1="19.3947" y1="53.1853" x2="20.6558" y2="63.7589" gradientUnits="userSpaceOnUse">
<stop stop-color="#FFDB44"/>
<stop offset="1" stop-color="#FEEF06"/>
</linearGradient>
<linearGradient id="paint34_linear_4_3" x1="19.339" y1="52.7142" x2="19.7263" y2="55.9615" gradientUnits="userSpaceOnUse">
<stop stop-color="#FFDB44"/>
<stop offset="1" stop-color="#FEEF06"/>
</linearGradient>
<linearGradient id="paint35_linear_4_3" x1="19.704" y1="55.621" x2="19.3181" y2="52.3852" gradientUnits="userSpaceOnUse">
<stop offset="0.00359712" stop-color="#F36F56"/>
<stop offset="0.3059" stop-color="#F99C4C"/>
<stop offset="0.545" stop-color="#FDB946"/>
<stop offset="0.6817" stop-color="#FFC444"/>
<stop offset="0.8038" stop-color="#FFC244"/>
<stop offset="0.8667" stop-color="#FEBA46"/>
<stop offset="0.916" stop-color="#FCAD49"/>
<stop offset="0.958" stop-color="#F99A4D"/>
<stop offset="0.9955" stop-color="#F58152"/>
<stop offset="1" stop-color="#F57E53"/>
</linearGradient>
<linearGradient id="paint36_linear_4_3" x1="5.98515" y1="53.4584" x2="29.979" y2="53.4584" gradientUnits="userSpaceOnUse">
<stop stop-color="#FCB148"/>
<stop offset="0.0520724" stop-color="#FDBA46"/>
<stop offset="0.1424" stop-color="#FFC244"/>
<stop offset="0.3183" stop-color="#FFC444"/>
<stop offset="0.4849" stop-color="#FDB946"/>
<stop offset="0.7754" stop-color="#F99C4D"/>
<stop offset="0.8658" stop-color="#F8924F"/>
<stop offset="1" stop-color="#F8924F"/>
</linearGradient>
<linearGradient id="paint37_linear_4_3" x1="18.0933" y1="50.7598" x2="19.3544" y2="61.3335" gradientUnits="userSpaceOnUse">
<stop stop-color="#FFDB44"/>
<stop offset="1" stop-color="#FEEF06"/>
</linearGradient>
<linearGradient id="paint38_linear_4_3" x1="18.0375" y1="50.2887" x2="18.4248" y2="53.5361" gradientUnits="userSpaceOnUse">
<stop stop-color="#FFDB44"/>
<stop offset="1" stop-color="#FEEF06"/>
</linearGradient>
<linearGradient id="paint39_linear_4_3" x1="18.4032" y1="53.1955" x2="18.0172" y2="49.9597" gradientUnits="userSpaceOnUse">
<stop offset="0.00359712" stop-color="#F36F56"/>
<stop offset="0.3059" stop-color="#F99C4C"/>
<stop offset="0.545" stop-color="#FDB946"/>
<stop offset="0.6817" stop-color="#FFC444"/>
<stop offset="0.8038" stop-color="#FFC244"/>
<stop offset="0.8667" stop-color="#FEBA46"/>
<stop offset="0.916" stop-color="#FCAD49"/>
<stop offset="0.958" stop-color="#F99A4D"/>
<stop offset="0.9955" stop-color="#F58152"/>
<stop offset="1" stop-color="#F57E53"/>
</linearGradient>
<linearGradient id="paint40_linear_4_3" x1="29.0647" y1="52.8665" x2="42.9433" y2="72.4093" gradientUnits="userSpaceOnUse">
<stop stop-color="#FCB148"/>
<stop offset="0.0520724" stop-color="#FDBA46"/>
<stop offset="0.1424" stop-color="#FFC244"/>
<stop offset="0.3183" stop-color="#FFC444"/>
<stop offset="0.4849" stop-color="#FDB946"/>
<stop offset="0.7754" stop-color="#F99C4D"/>
<stop offset="0.8658" stop-color="#F8924F"/>
<stop offset="1" stop-color="#F8924F"/>
</linearGradient>
<linearGradient id="paint41_linear_4_3" x1="38.2843" y1="61.1532" x2="30.4001" y2="68.3217" gradientUnits="userSpaceOnUse">
<stop stop-color="#FFDB44"/>
<stop offset="1" stop-color="#FEEF06"/>
</linearGradient>
<linearGradient id="paint42_linear_4_3" x1="38.6368" y1="60.8352" x2="36.2155" y2="63.0367" gradientUnits="userSpaceOnUse">
<stop stop-color="#FFDB44"/>
<stop offset="1" stop-color="#FEEF06"/>
</linearGradient>
<linearGradient id="paint43_linear_4_3" x1="36.4771" y1="62.8167" x2="38.8897" y2="60.6231" gradientUnits="userSpaceOnUse">
<stop offset="0.00359712" stop-color="#F36F56"/>
<stop offset="0.3059" stop-color="#F99C4C"/>
<stop offset="0.545" stop-color="#FDB946"/>
<stop offset="0.6817" stop-color="#FFC444"/>
<stop offset="0.8038" stop-color="#FFC244"/>
<stop offset="0.8667" stop-color="#FEBA46"/>
<stop offset="0.916" stop-color="#FCAD49"/>
<stop offset="0.958" stop-color="#F99A4D"/>
<stop offset="0.9955" stop-color="#F58152"/>
<stop offset="1" stop-color="#F57E53"/>
</linearGradient>
<linearGradient id="paint44_linear_4_3" x1="61.0632" y1="36.8783" x2="61.4569" y2="39.1769" gradientUnits="userSpaceOnUse">
<stop stop-color="#FFC444"/>
<stop offset="0.9964" stop-color="#F36F56"/>
</linearGradient>
<linearGradient id="paint45_linear_4_3" x1="67.2813" y1="35.7133" x2="67.8145" y2="37.9837" gradientUnits="userSpaceOnUse">
<stop stop-color="#FFC444"/>
<stop offset="0.9964" stop-color="#F36F56"/>
</linearGradient>
<linearGradient id="paint46_linear_4_3" x1="68.4" y1="38.8687" x2="70.4" y2="57.0761" gradientUnits="userSpaceOnUse">
<stop stop-color="#FF9085"/>
<stop offset="1" stop-color="#FB6FBB"/>
</linearGradient>
<linearGradient id="paint47_linear_4_3" x1="66.7634" y1="73.9871" x2="66.465" y2="65.5039" gradientUnits="userSpaceOnUse">
<stop stop-color="#FFC444"/>
<stop offset="0.9964" stop-color="#F36F56"/>
</linearGradient>
<linearGradient id="paint48_linear_4_3" x1="66.9817" y1="57.6602" x2="68.2174" y2="73.1708" gradientUnits="userSpaceOnUse">
<stop stop-color="#311944"/>
<stop offset="1" stop-color="#893976"/>
</linearGradient>
<linearGradient id="paint49_linear_4_3" x1="66.9822" y1="57.6605" x2="68.218" y2="73.1712" gradientUnits="userSpaceOnUse">
<stop stop-color="#311944"/>
<stop offset="1" stop-color="#893976"/>
</linearGradient>
<linearGradient id="paint50_linear_4_3" x1="66.0626" y1="74.0552" x2="67.3154" y2="69.3245" gradientUnits="userSpaceOnUse">
<stop stop-color="#FF9085"/>
<stop offset="1" stop-color="#FB6FBB"/>
</linearGradient>
<linearGradient id="paint51_linear_4_3" x1="67.733" y1="66.6507" x2="62.0285" y2="61.7364" gradientUnits="userSpaceOnUse">
<stop stop-color="#FFC444"/>
<stop offset="0.9964" stop-color="#F36F56"/>
</linearGradient>
<linearGradient id="paint52_linear_4_3" x1="67.608" y1="67.2325" x2="64.9858" y2="63.0986" gradientUnits="userSpaceOnUse">
<stop stop-color="#FF9085"/>
<stop offset="1" stop-color="#FB6FBB"/>
</linearGradient>
<linearGradient id="paint53_linear_4_3" x1="72.7718" y1="60.7425" x2="58.2613" y2="60.0819" gradientUnits="userSpaceOnUse">
<stop stop-color="#311944"/>
<stop offset="1" stop-color="#893976"/>
</linearGradient>
<linearGradient id="paint54_linear_4_3" x1="67.0056" y1="37.9706" x2="70.6033" y2="58.9801" gradientUnits="userSpaceOnUse">
<stop stop-color="#FF9085"/>
<stop offset="1" stop-color="#FB6FBB"/>
</linearGradient>
<linearGradient id="paint55_linear_4_3" x1="61.3165" y1="46.2677" x2="71.1819" y2="58.929" gradientUnits="userSpaceOnUse">
<stop stop-color="#FF9085"/>
<stop offset="1" stop-color="#FB6FBB"/>
</linearGradient>
<linearGradient id="paint56_linear_4_3" x1="64.7692" y1="42.7642" x2="66.4795" y2="45.3287" gradientUnits="userSpaceOnUse">
<stop stop-color="#FFC444"/>
<stop offset="0.9964" stop-color="#F36F56"/>
</linearGradient>
<linearGradient id="paint57_linear_4_3" x1="60.936" y1="40.4293" x2="64.0277" y2="58.4839" gradientUnits="userSpaceOnUse">
<stop stop-color="#FF9085"/>
<stop offset="1" stop-color="#FB6FBB"/>
</linearGradient>
<linearGradient id="paint58_linear_4_3" x1="74.1627" y1="53.418" x2="67.1306" y2="39.6532" gradientUnits="userSpaceOnUse">
<stop stop-color="#444B8C"/>
<stop offset="0.9964" stop-color="#26264F"/>
</linearGradient>
</defs>
</svg>
