<svg width="40" height="41" viewBox="0 0 40 41" fill="none" xmlns="http://www.w3.org/2000/svg">
<path fill-rule="evenodd" clip-rule="evenodd" d="M8.3034 0.386719H27.1186C27.2876 0.386719 27.433 0.447987 27.5526 0.569507L30.9987 4.07406C31.1182 4.19558 31.1784 4.34352 31.1784 4.51544V30.7229C31.1784 31.0667 30.9027 31.3471 30.5647 31.3471H8.3034C7.96537 31.3471 7.68958 31.0667 7.68958 30.7229V1.01089C7.68958 0.667114 7.96529 0.386719 8.3034 0.386719Z" fill="#ECEFF1"/>
<path fill-rule="evenodd" clip-rule="evenodd" d="M8.30339 0.386719H9.42623V31.3471H8.30339C7.96535 31.3471 7.68964 31.0667 7.68964 30.7229V1.01089C7.68964 0.667114 7.96527 0.386719 8.30339 0.386719Z" fill="#D1D1D6"/>
<path fill-rule="evenodd" clip-rule="evenodd" d="M27.3727 0.439453C27.4379 0.469775 27.4979 0.512678 27.5525 0.568163L30.9986 4.07272C31.0532 4.1282 31.0954 4.18924 31.1252 4.25558H27.6796C27.5106 4.25558 27.3727 4.11539 27.3727 3.94346V0.439453Z" fill="#A79BA7"/>
<path fill-rule="evenodd" clip-rule="evenodd" d="M12.4829 27.257C12.1434 27.257 11.8681 26.9771 11.8681 26.6318C11.8681 26.2866 12.1434 26.0066 12.4829 26.0066H26.3851C26.7246 26.0066 26.9998 26.2866 26.9998 26.6318C26.9998 26.9771 26.7246 27.257 26.3851 27.257H12.4829ZM12.4829 6.4242C12.1434 6.4242 11.8681 6.14427 11.8681 5.79901C11.8681 5.45375 12.1434 5.17383 12.4829 5.17383H22.4625C22.802 5.17383 23.0773 5.45375 23.0773 5.79901C23.0773 6.14427 22.802 6.4242 22.4625 6.4242H12.4829ZM12.4829 10.5907C12.1434 10.5907 11.8681 10.3108 11.8681 9.96556C11.8681 9.6203 12.1434 9.34037 12.4829 9.34037H26.3851C26.7246 9.34037 26.9998 9.6203 26.9998 9.96556C26.9998 10.3108 26.7246 10.5907 26.3851 10.5907H12.4829ZM12.4829 14.7573C12.1434 14.7573 11.8681 14.4774 11.8681 14.1321C11.8681 13.7868 12.1434 13.5069 12.4829 13.5069H26.3851C26.7246 13.5069 26.9998 13.7868 26.9998 14.1321C26.9998 14.4774 26.7246 14.7573 26.3851 14.7573H12.4829ZM12.4829 18.9238C12.1434 18.9238 11.8681 18.6439 11.8681 18.2987C11.8681 17.9534 12.1434 17.6735 12.4829 17.6735H26.3851C26.7246 17.6735 26.9998 17.9534 26.9998 18.2987C26.9998 18.6439 26.7246 18.9238 26.3851 18.9238H12.4829ZM12.4829 23.0904C12.1434 23.0904 11.8681 22.8105 11.8681 22.4652C11.8681 22.1199 12.1434 21.84 12.4829 21.84H26.3851C26.7246 21.84 26.9998 22.1199 26.9998 22.4652C26.9998 22.8105 26.7246 23.0904 26.3851 23.0904H12.4829Z" fill="#A79BA7"/>
<path d="M34.67 34.9664C37.6142 31.9722 37.6142 27.1176 34.67 24.1234C31.7258 21.1292 26.9523 21.1292 24.008 24.1234C21.0638 27.1176 21.0638 31.9722 24.008 34.9664C26.9523 37.9606 31.7258 37.9606 34.67 34.9664Z" fill="#FE646F"/>
<path fill-rule="evenodd" clip-rule="evenodd" d="M29.3455 21.875C33.5099 21.875 36.8858 25.3082 36.8858 29.5433C36.8858 33.7784 33.5099 37.2116 29.3455 37.2116C29.1407 37.2116 28.938 37.203 28.7374 37.1867C32.6174 36.8718 35.6695 33.5702 35.6695 29.5433C35.6695 25.5165 32.6174 22.2149 28.7374 21.8999C28.9379 21.8836 29.1407 21.875 29.3455 21.875Z" fill="#FD4755"/>
<path fill-rule="evenodd" clip-rule="evenodd" d="M27.7402 29.5447L25.7113 27.4814C25.2694 27.032 25.2694 26.2982 25.7113 25.8488C26.1533 25.3994 26.8747 25.3994 27.3167 25.8488L29.3455 27.9121L31.3743 25.8488C31.8162 25.3994 32.5377 25.3994 32.9797 25.8488C33.4216 26.2982 33.4216 27.032 32.9797 27.4814L30.9508 29.5447L32.9797 31.6079C33.4216 32.0573 33.4216 32.7911 32.9797 33.2405C32.5377 33.6899 31.8162 33.6899 31.3743 33.2405L29.3455 31.1772L27.3167 33.2405C26.8747 33.6899 26.1533 33.6899 25.7113 33.2405C25.2694 32.7911 25.2694 32.0574 25.7113 31.6079L27.7402 29.5447Z" fill="#ECEFF1"/>
<path fill-rule="evenodd" clip-rule="evenodd" d="M27.7402 29.5446L25.7113 27.4813C25.2694 27.0319 25.2694 26.2981 25.7113 25.8487C26.0312 25.5235 26.4974 25.4337 26.8982 25.5793C26.7453 25.6348 26.6018 25.7246 26.4798 25.8487C26.0378 26.2981 26.0378 27.0319 26.4798 27.4813L28.5086 29.5446L26.4798 31.6078C26.0378 32.0573 26.0378 32.791 26.4798 33.2404C26.6019 33.3646 26.7453 33.4543 26.8982 33.5099C26.4974 33.6555 26.0312 33.5657 25.7113 33.2404C25.2694 32.791 25.2694 32.0573 25.7113 31.6078L27.7402 29.5446ZM29.3455 27.9121L31.3743 25.8488C31.6941 25.5235 32.1604 25.4337 32.5612 25.5793C32.4083 25.6349 32.2648 25.7247 32.1428 25.8488L29.7297 28.3028L29.3455 27.9121ZM32.5612 33.51C32.1604 33.6556 31.6941 33.5658 31.3743 33.2405L29.3455 31.1772L29.7297 30.7865L32.1428 33.2405C32.2649 33.3646 32.4083 33.4543 32.5612 33.51Z" fill="#D1D1D6"/>
<path fill-rule="evenodd" clip-rule="evenodd" d="M7.58806 9.93359C9.16658 9.93359 10.4461 11.2349 10.4461 12.8402C10.4461 13.4578 10.2567 14.0304 9.93379 14.5011C9.39181 15.2911 9.23067 16.1877 9.46297 17.1216L11.0269 23.4092H4.14923L5.71315 17.1216C5.94545 16.1877 5.78431 15.291 5.24233 14.501C4.91936 14.0303 4.73001 13.4578 4.73001 12.8402C4.73001 11.2349 6.00954 9.93359 7.58806 9.93359Z" fill="#E3A76F"/>
<path fill-rule="evenodd" clip-rule="evenodd" d="M7.58803 9.93359C9.16655 9.93359 10.4461 11.2349 10.4461 12.8402C10.4461 13.4578 10.2567 14.0304 9.93376 14.5011C9.39178 15.2911 9.23064 16.1877 9.46294 17.1216L11.0269 23.4092H9.88327L8.31935 17.1216C8.08713 16.1877 8.24827 15.2911 8.79017 14.5011C9.11314 14.0304 9.30249 13.4578 9.30249 12.8402C9.30249 11.434 8.32073 10.2612 7.01624 9.99181C7.20104 9.95368 7.39223 9.93359 7.58803 9.93359Z" fill="#C48958"/>
<path fill-rule="evenodd" clip-rule="evenodd" d="M1.03058 24.9141H14.1455C14.4836 24.9141 14.7602 25.1954 14.7602 25.5392V27.3307C14.7602 27.6746 14.4836 27.9559 14.1455 27.9559H1.03058C0.69247 27.9559 0.415833 27.6746 0.415833 27.3307V25.5392C0.415833 25.1953 0.692393 24.9141 1.03058 24.9141Z" fill="#8D9CA8"/>
<path fill-rule="evenodd" clip-rule="evenodd" d="M12.8241 24.9141H14.1455C14.4836 24.9141 14.7602 25.1954 14.7602 25.5392V27.3307C14.7602 27.6746 14.4836 27.9559 14.1455 27.9559H12.8241C13.1622 27.9559 13.4388 27.6746 13.4388 27.3307V25.5392C13.4388 25.1953 13.1623 24.9141 12.8241 24.9141Z" fill="#8192A5"/>
<path fill-rule="evenodd" clip-rule="evenodd" d="M2.82713 22.4512H12.3491C13.9034 22.4512 15.1751 23.7446 15.1751 25.3253V25.5001C15.1751 25.7153 15.0025 25.8909 14.7909 25.8909H0.385195C0.173567 25.8909 0.000976562 25.7153 0.000976562 25.5001V25.3253C0.000976562 23.7445 1.27274 22.4512 2.82713 22.4512Z" fill="#ECBA78"/>
<path fill-rule="evenodd" clip-rule="evenodd" d="M10.812 22.4512H12.349C13.9034 22.4512 15.175 23.7446 15.175 25.3253V25.5001C15.175 25.7153 15.0024 25.8909 14.7908 25.8909H13.2539C13.4655 25.8909 13.6381 25.7153 13.6381 25.5001V25.3253C13.6382 23.7446 12.3664 22.4512 10.812 22.4512Z" fill="#E3A76F"/>
</svg>
