<svg width="400" height="400" viewBox="0 0 400 400" fill="none" xmlns="http://www.w3.org/2000/svg">
<mask id="mask0_13671_2195" style="mask-type:luminance" maskUnits="userSpaceOnUse" x="40" y="38" width="320" height="321">
<path d="M200 358.666C111.635 358.666 40 287.031 40 198.666C40 110.301 111.635 38.666 200 38.666C288.365 38.666 360 110.301 360 198.666C360 230.374 350.773 259.934 334.863 284.797L314.789 265.634C324.46 252.023 330.147 235.385 330.147 217.417C330.147 185.043 311.685 156.981 284.716 143.182V106.074C284.716 94.2913 275.164 84.7407 263.383 84.7407H140C128.219 84.7407 118.667 94.2913 118.667 106.074V270.113C118.667 281.894 128.219 291.446 140 291.446H208.512C219.98 297.391 233.004 300.75 246.813 300.75C263.985 300.75 279.945 295.555 293.207 286.651L316.227 308.627C287.063 339.439 245.775 358.666 200 358.666Z" fill="white"/>
</mask>
<g mask="url(#mask0_13671_2195)">
<path d="M200 358.666C111.635 358.666 40 287.031 40 198.666C40 110.301 111.635 38.666 200 38.666C288.365 38.666 360 110.301 360 198.666C360 230.374 350.773 259.934 334.863 284.797L314.789 265.634C324.46 252.023 330.147 235.385 330.147 217.417C330.147 185.043 311.685 156.981 284.716 143.182V106.074C284.716 94.2913 275.164 84.7407 263.383 84.7407H140C128.219 84.7407 118.667 94.2913 118.667 106.074V270.113C118.667 281.894 128.219 291.446 140 291.446H208.512C219.98 297.391 233.004 300.75 246.813 300.75C263.985 300.75 279.945 295.555 293.207 286.651L316.227 308.627C287.063 339.439 245.775 358.666 200 358.666Z" fill="url(#paint0_linear_13671_2195)"/>
</g>
<mask id="mask1_13671_2195" style="mask-type:luminance" maskUnits="userSpaceOnUse" x="118" y="84" width="167" height="208">
<path d="M208.512 291.446H140C128.219 291.446 118.667 281.894 118.667 270.113V106.074C118.667 94.2916 128.219 84.741 140 84.741H263.383C275.164 84.741 284.716 94.2916 284.716 106.074V143.182C273.345 137.366 260.463 134.084 246.813 134.084C229.453 134.084 213.333 139.392 199.986 148.474H139.867C136.259 148.474 133.333 151.4 133.333 155.008C133.333 158.616 136.259 161.541 139.867 161.541H184.988C178.64 168.56 173.472 176.664 169.793 185.541H139.867C136.259 185.541 133.333 188.466 133.333 192.074C133.333 195.682 136.259 198.608 139.867 198.608H165.612C164.216 204.653 163.48 210.948 163.48 217.417C163.48 219.161 163.533 220.89 163.639 222.608H139.867C136.259 222.608 133.333 225.533 133.333 229.141C133.333 232.749 136.259 235.674 139.867 235.674H165.487C167.403 244.245 170.641 252.324 174.973 259.674H139.867C136.259 259.674 133.333 262.6 133.333 266.208C133.333 269.816 136.259 272.741 139.867 272.741H184.493C191.254 280.354 199.391 286.717 208.512 291.446Z" fill="white"/>
</mask>
<g mask="url(#mask1_13671_2195)">
<path d="M208.512 291.446H140C128.219 291.446 118.667 281.894 118.667 270.113V106.074C118.667 94.2916 128.219 84.741 140 84.741H263.383C275.164 84.741 284.716 94.2916 284.716 106.074V143.182C273.345 137.366 260.463 134.084 246.813 134.084C229.453 134.084 213.333 139.392 199.986 148.474H139.867C136.259 148.474 133.333 151.4 133.333 155.008C133.333 158.616 136.259 161.541 139.867 161.541H184.988C178.64 168.56 173.472 176.664 169.793 185.541H139.867C136.259 185.541 133.333 188.466 133.333 192.074C133.333 195.682 136.259 198.608 139.867 198.608H165.612C164.216 204.653 163.48 210.948 163.48 217.417C163.48 219.161 163.533 220.89 163.639 222.608H139.867C136.259 222.608 133.333 225.533 133.333 229.141C133.333 232.749 136.259 235.674 139.867 235.674H165.487C167.403 244.245 170.641 252.324 174.973 259.674H139.867C136.259 259.674 133.333 262.6 133.333 266.208C133.333 269.816 136.259 272.741 139.867 272.741H184.493C191.254 280.354 199.391 286.717 208.512 291.446Z" fill="url(#paint1_linear_13671_2195)"/>
</g>
<mask id="mask2_13671_2195" style="mask-type:luminance" maskUnits="userSpaceOnUse" x="0" y="0" width="400" height="400">
<path d="M0 400H400V-2.08616e-05H0V400Z" fill="white"/>
</mask>
<g mask="url(#mask2_13671_2195)">
<path d="M139.867 111.409H193.467C197.075 111.409 200 114.334 200 117.942C200 121.55 197.075 124.476 193.467 124.476H139.867C136.259 124.476 133.333 121.55 133.333 117.942C133.333 114.334 136.259 111.409 139.867 111.409Z" fill="#100F0D"/>
<path d="M139.867 148.475H260.133C263.743 148.475 266.667 151.401 266.667 155.009C266.667 158.617 263.743 161.542 260.133 161.542H139.867C136.259 161.542 133.333 158.617 133.333 155.009C133.333 151.401 136.259 148.475 139.867 148.475Z" fill="#D7D6D4"/>
<path d="M139.867 185.542H260.133C263.743 185.542 266.667 188.467 266.667 192.075C266.667 195.683 263.743 198.608 260.133 198.608H139.867C136.259 198.608 133.333 195.683 133.333 192.075C133.333 188.467 136.259 185.542 139.867 185.542Z" fill="#D7D6D4"/>
<path d="M139.867 222.608H260.133C263.743 222.608 266.667 225.533 266.667 229.141C266.667 232.749 263.743 235.675 260.133 235.675H139.867C136.259 235.675 133.333 232.749 133.333 229.141C133.333 225.533 136.259 222.608 139.867 222.608Z" fill="#D7D6D4"/>
<path d="M139.867 259.676H260.133C263.743 259.676 266.667 262.601 266.667 266.209C266.667 269.817 263.743 272.742 260.133 272.742H139.867C136.259 272.742 133.333 269.817 133.333 266.209C133.333 262.601 136.259 259.676 139.867 259.676Z" fill="#D7D6D4"/>
<path d="M384.2 61.899H304.092C300.36 61.899 297.333 65.083 297.333 69.0123V108.638C297.333 112.566 300.36 115.751 304.092 115.751H384.2C387.933 115.751 390.959 112.566 390.959 108.638V69.0123C390.959 65.083 387.933 61.899 384.2 61.899Z" fill="white"/>
<path d="M317.333 97.334C321.752 97.334 325.333 93.7527 325.333 89.334C325.333 84.9153 321.752 81.334 317.333 81.334C312.915 81.334 309.333 84.9153 309.333 89.334C309.333 93.7527 312.915 97.334 317.333 97.334Z" fill="#CEC2DC"/>
<path d="M344 81.334H370.667C375.084 81.334 378.667 84.9167 378.667 89.334C378.667 93.7513 375.084 97.334 370.667 97.334H344C339.583 97.334 336 93.7513 336 89.334C336 84.9167 339.583 81.334 344 81.334Z" fill="#D7D6D4"/>
<path fill-rule="evenodd" clip-rule="evenodd" d="M317.892 217.418C317.892 256.383 286.303 287.97 247.34 287.97C208.376 287.97 176.789 256.383 176.789 217.418C176.789 178.454 208.376 146.867 247.34 146.867C286.303 146.867 317.892 178.454 317.892 217.418ZM246.813 300.751C263.985 300.751 279.945 295.556 293.207 286.652L347.471 338.455L367.153 315.622L314.789 265.635C324.46 252.024 330.147 235.386 330.147 217.418C330.147 171.395 292.836 134.084 246.813 134.084C200.789 134.084 163.48 171.395 163.48 217.418C163.48 263.442 200.789 300.751 246.813 300.751Z" fill="#CEC2DC"/>
</g>
<mask id="mask3_13671_2195" style="mask-type:luminance" maskUnits="userSpaceOnUse" x="283" y="157" width="35" height="122">
<path d="M283.113 278.239C284.147 275.735 284.716 272.99 284.716 270.113V157.569C304.641 170.038 317.892 192.179 317.892 217.417C317.892 243.326 303.927 265.971 283.113 278.239Z" fill="white"/>
</mask>
<g mask="url(#mask3_13671_2195)">
<path d="M283.113 278.239C284.147 275.735 284.716 272.99 284.716 270.113V157.569C304.641 170.038 317.892 192.179 317.892 217.417C317.892 243.326 303.927 265.971 283.113 278.239Z" fill="url(#paint2_linear_13671_2195)"/>
</g>
<mask id="mask4_13671_2195" style="mask-type:luminance" maskUnits="userSpaceOnUse" x="176" y="146" width="109" height="142">
<path d="M247.34 287.969C230.797 287.969 215.585 282.275 203.554 272.741H260.133C263.742 272.741 266.666 269.815 266.666 266.207C266.666 262.599 263.742 259.674 260.133 259.674H190.838C185.53 252.589 181.524 244.467 179.174 235.674H260.133C263.742 235.674 266.666 232.749 266.666 229.141C266.666 225.533 263.742 222.607 260.133 222.607H176.977C176.852 220.894 176.789 219.162 176.789 217.417C176.789 210.903 177.672 204.595 179.324 198.607H260.133C263.742 198.607 266.666 195.682 266.666 192.074C266.666 188.466 263.742 185.541 260.133 185.541H184.384C189.157 176.13 195.977 167.937 204.261 161.541H260.133C263.742 161.541 266.666 158.615 266.666 155.007C266.666 151.399 263.742 148.474 260.133 148.474H232.293C237.14 147.421 242.177 146.866 247.34 146.866C261.066 146.866 273.878 150.787 284.716 157.569V270.113C284.716 272.99 284.146 275.735 283.113 278.239C272.624 284.422 260.396 287.969 247.34 287.969Z" fill="white"/>
</mask>
<g mask="url(#mask4_13671_2195)">
<path d="M247.34 287.969C230.797 287.969 215.585 282.275 203.554 272.741H260.133C263.742 272.741 266.666 269.815 266.666 266.207C266.666 262.599 263.742 259.674 260.133 259.674H190.838C185.53 252.589 181.524 244.467 179.174 235.674H260.133C263.742 235.674 266.666 232.749 266.666 229.141C266.666 225.533 263.742 222.607 260.133 222.607H176.977C176.852 220.894 176.789 219.162 176.789 217.417C176.789 210.903 177.672 204.595 179.324 198.607H260.133C263.742 198.607 266.666 195.682 266.666 192.074C266.666 188.466 263.742 185.541 260.133 185.541H184.384C189.157 176.13 195.977 167.937 204.261 161.541H260.133C263.742 161.541 266.666 158.615 266.666 155.007C266.666 151.399 263.742 148.474 260.133 148.474H232.293C237.14 147.421 242.177 146.866 247.34 146.866C261.066 146.866 273.878 150.787 284.716 157.569V270.113C284.716 272.99 284.146 275.735 283.113 278.239C272.624 284.422 260.396 287.969 247.34 287.969Z" fill="url(#paint3_linear_13671_2195)"/>
</g>
<path d="M260.133 161.541H204.261C212.384 155.27 221.912 150.729 232.293 148.474H260.133C263.743 148.474 266.667 151.4 266.667 155.008C266.667 158.616 263.743 161.541 260.133 161.541Z" fill="#E4E4E3"/>
<path d="M260.134 198.607H179.324C180.582 194.051 182.286 189.678 184.384 185.541H260.134C263.743 185.541 266.667 188.466 266.667 192.074C266.667 195.682 263.743 198.607 260.134 198.607Z" fill="#E4E4E3"/>
<path d="M260.134 235.674H179.175C178.048 231.459 177.303 227.092 176.978 222.607H260.134C263.743 222.607 266.667 225.532 266.667 229.14C266.667 232.748 263.743 235.674 260.134 235.674Z" fill="#E4E4E3"/>
<path d="M260.134 272.741H203.555C198.775 268.953 194.498 264.56 190.839 259.675H260.134C263.743 259.675 266.667 262.6 266.667 266.208C266.667 269.816 263.743 272.741 260.134 272.741Z" fill="#E4E4E3"/>
<path d="M247.334 289.333C207.2 289.333 174.667 257.097 174.667 217.333C174.667 177.569 207.2 145.333 247.334 145.333C287.467 145.333 320 177.569 320 217.333C320 257.097 287.467 289.333 247.334 289.333ZM203.555 272.741C215.586 282.276 230.798 287.969 247.34 287.969C260.396 287.969 272.624 284.422 283.114 278.24C303.927 265.972 317.892 243.326 317.892 217.417C317.892 192.18 304.642 170.038 284.716 157.569C273.879 150.788 261.067 146.866 247.34 146.866C242.178 146.866 237.14 147.421 232.294 148.474C221.912 150.729 212.384 155.27 204.262 161.541C195.978 167.937 189.158 176.13 184.384 185.541C182.286 189.678 180.582 194.052 179.324 198.608C177.672 204.596 176.79 210.904 176.79 217.417C176.79 219.162 176.852 220.894 176.978 222.608C177.303 227.093 178.048 231.46 179.175 235.674C181.524 244.468 185.531 252.589 190.839 259.674C194.498 264.56 198.775 268.953 203.555 272.741Z" fill="#DFD7E8"/>
<path d="M259.898 217.333L277.483 199.816C279.131 198.082 280.034 195.78 279.999 193.396C279.966 191.012 278.998 188.736 277.302 187.049C275.606 185.364 273.315 184.401 270.918 184.368C268.518 184.334 266.2 185.23 264.456 186.868L246.832 204.385L229.247 186.868C228.4 185.978 227.383 185.266 226.255 184.773C225.127 184.281 223.911 184.018 222.679 184.001C221.447 183.984 220.224 184.212 219.083 184.672C217.942 185.133 216.904 185.816 216.032 186.682C215.162 187.548 214.474 188.578 214.011 189.713C213.547 190.848 213.318 192.064 213.335 193.289C213.352 194.513 213.616 195.721 214.112 196.842C214.607 197.964 215.324 198.974 216.22 199.816L233.835 217.333L216.22 234.85C215.324 235.692 214.607 236.702 214.112 237.824C213.616 238.945 213.352 240.153 213.335 241.377C213.318 242.602 213.547 243.817 214.011 244.953C214.474 246.088 215.162 247.118 216.032 247.984C216.904 248.849 217.942 249.533 219.083 249.994C220.224 250.454 221.447 250.682 222.679 250.665C223.911 250.648 225.127 250.385 226.255 249.893C227.383 249.4 228.4 248.688 229.247 247.798L246.871 230.281L264.496 247.798C266.256 249.338 268.54 250.154 270.886 250.078C273.23 250.004 275.456 249.042 277.112 247.392C278.768 245.74 279.728 243.524 279.798 241.194C279.867 238.864 279.039 236.594 277.483 234.85L259.898 217.333Z" fill="#FF2000"/>
<path d="M347.468 338.457L367.15 315.622L370.114 318.453C372.99 321.198 374.711 325.033 374.9 329.116C375.09 333.197 373.73 337.19 371.122 340.217C368.512 343.244 364.868 345.056 360.99 345.254C357.111 345.453 353.316 344.022 350.44 341.277L347.476 338.448L347.468 338.457Z" fill="#E5DCEE"/>
<path fill-rule="evenodd" clip-rule="evenodd" d="M72.5841 122.955C72.6788 120.818 72.4774 118.647 71.9348 116.458C70.4881 110.593 63.8374 107.125 56.9601 106.239C52.7454 105.698 48.4107 106.145 45.0107 107.731C42.8734 108.727 41.1134 110.173 40.0521 112.139C38.6588 114.719 38.3574 116.926 38.9281 118.798C39.5001 120.683 40.9188 122.198 42.7668 123.414C48.8281 127.41 59.4334 128.259 64.2708 126.59C67.1228 125.607 69.8921 124.381 72.5841 122.955ZM75.0854 121.562C75.0614 119.661 74.8228 117.742 74.3454 115.811C72.6721 109.035 65.2081 104.685 57.2641 103.662C49.3241 102.639 41.0654 104.967 37.8828 110.862C36.0628 114.231 35.8121 117.135 36.5561 119.585C37.2961 122.021 39.0534 124.039 41.4388 125.614C48.0894 129.997 59.7374 130.891 65.0521 129.059C67.5094 128.21 69.9108 127.187 72.2481 126.017C70.9121 133.678 65.9308 140.935 59.2828 147.475C44.8348 161.69 22.4152 172.479 10.2064 176.446C9.55008 176.659 9.18609 177.386 9.39022 178.071C9.59382 178.757 10.2913 179.141 10.947 178.927C23.398 174.882 46.2534 163.863 60.9868 149.367C68.5988 141.881 74.0214 133.451 74.9481 124.59C92.1548 114.989 106.284 97.5687 118.365 82.9074C118.815 82.3674 118.755 81.5447 118.233 81.0754C117.712 80.61 116.928 80.6687 116.479 81.2127C104.891 95.2741 91.4414 111.999 75.0854 121.562Z" fill="#100F0D"/>
<path d="M380 237.333C384.417 237.333 388 240.916 388 245.333C388 249.75 384.417 253.333 380 253.333C375.583 253.333 372 249.75 372 245.333C372 240.916 375.583 237.333 380 237.333Z" fill="#E6E5E4"/>
<path fill-rule="evenodd" clip-rule="evenodd" d="M87.4014 297.506C87.4761 297.684 87.5574 297.861 87.6427 298.041C89.4601 301.862 91.4934 303.997 93.9654 305.032L94.0481 305.065C92.3948 306.357 90.8974 307.801 89.7548 309.185C89.2828 309.756 88.6601 310.94 87.9854 312.153C87.3734 310.06 86.3734 308.58 85.1148 306.726C84.1521 305.313 83.1454 304.249 81.9068 303.382C82.8681 302.864 83.7841 302.256 84.5828 301.546C85.9121 300.364 86.7908 298.994 87.4014 297.506ZM77.8454 300.525C79.2734 299.99 80.7761 299.278 81.9348 298.248C83.3108 297.025 83.8708 295.449 84.2454 293.79C84.7281 291.658 84.9214 289.389 85.5068 287.254C85.7228 286.461 86.1401 286.161 86.3188 286.029C86.7708 285.693 87.2281 285.602 87.6574 285.637C88.1668 285.676 88.8668 285.878 89.3281 286.777C89.3934 286.906 89.4788 287.102 89.5361 287.37C89.5774 287.568 89.6054 288.182 89.6494 288.437C89.7601 289.062 89.8521 289.688 89.9401 290.316C90.2294 292.408 90.3961 294.185 91.3108 296.108C92.5521 298.717 93.7961 300.313 95.4828 301.021C97.1148 301.705 99.0641 301.576 101.556 301.04C101.793 300.98 102.028 300.928 102.26 300.885C103.359 300.684 104.409 301.442 104.625 302.594C104.841 303.745 104.143 304.866 103.053 305.12C102.827 305.173 102.603 305.222 102.381 305.269C99.0134 306.146 95.1148 309.277 92.8494 312.018C92.1521 312.864 91.1294 315.228 90.0868 316.734C89.3174 317.848 88.4521 318.58 87.7254 318.84C87.2387 319.014 86.8294 318.986 86.4908 318.898C85.9974 318.772 85.5894 318.49 85.2761 318.044C85.1054 317.8 84.9468 317.473 84.8708 317.054C84.8348 316.853 84.8308 316.342 84.8321 316.11C84.6188 315.341 84.3588 314.59 84.1694 313.814C83.7174 311.961 82.8308 310.789 81.7774 309.24C80.7921 307.79 79.7334 306.878 78.1814 306.152C77.9801 306.1 76.3507 305.68 75.7761 305.44C74.9361 305.086 74.5348 304.494 74.3894 304.176C74.1428 303.636 74.1174 303.164 74.1668 302.769C74.2401 302.188 74.4881 301.69 74.9281 301.289C75.2001 301.04 75.6068 300.797 76.1521 300.678C76.5721 300.586 77.6894 300.533 77.8454 300.525Z" fill="#CEC2DC"/>
<defs>
<linearGradient id="paint0_linear_13671_2195" x1="198.763" y1="-13.434" x2="202.04" y2="548.462" gradientUnits="userSpaceOnUse">
<stop stop-color="#F6F6F6"/>
<stop offset="1" stop-color="#F2F2F2"/>
</linearGradient>
<linearGradient id="paint1_linear_13671_2195" x1="201.691" y1="84.741" x2="201.691" y2="291.446" gradientUnits="userSpaceOnUse">
<stop stop-color="white"/>
<stop offset="0.71875" stop-color="#FCFDFD"/>
<stop offset="1" stop-color="#FCFDFD"/>
</linearGradient>
<linearGradient id="paint2_linear_13671_2195" x1="198.763" y1="-13.4341" x2="202.04" y2="548.462" gradientUnits="userSpaceOnUse">
<stop stop-color="#F9F9F9"/>
<stop offset="1" stop-color="#F7F7F7"/>
</linearGradient>
<linearGradient id="paint3_linear_13671_2195" x1="201.69" y1="84.7408" x2="201.69" y2="291.446" gradientUnits="userSpaceOnUse">
<stop stop-color="white"/>
<stop offset="0.71875" stop-color="#FEFFFF"/>
<stop offset="1" stop-color="#FEFFFF"/>
</linearGradient>
</defs>
</svg>
