<svg width="168" height="156" viewBox="0 0 168 156" fill="none" xmlns="http://www.w3.org/2000/svg">
<g clip-path="url(#clip0_2038_291)">
<path d="M159.068 24.3088C159.068 24.3088 148.161 3.69819 124.014 0.631405C99.9112 -2.43538 83.0798 12.4475 65.3058 20.1145C56.0149 24.1284 45.3774 22.5499 35.5479 24.4892C4.03947 30.7129 -7.85474 69.4536 5.29621 91.5074C16.6518 110.585 36.67 120.507 67.191 122.807C97.667 125.107 119.077 127.768 146.366 109.051C173.61 90.3799 171.815 51.4137 159.068 24.3088Z" fill="#C6FF00"/>
<path opacity="0.8" d="M159.068 24.3088C159.068 24.3088 148.161 3.69819 124.014 0.631405C99.9112 -2.43538 83.0798 12.4475 65.3058 20.1145C56.0149 24.1284 45.3774 22.5499 35.5479 24.4892C4.03947 30.7129 -7.85474 69.4536 5.29621 91.5074C16.6518 110.585 36.67 120.507 67.191 122.807C97.667 125.107 119.077 127.768 146.366 109.051C173.61 90.3799 171.815 51.4137 159.068 24.3088Z" fill="white"/>
<path d="M50.9429 147.115C70.4516 147.115 86.2665 142.633 86.2665 137.103C86.2665 131.574 70.4516 127.091 50.9429 127.091C31.4343 127.091 15.6194 131.574 15.6194 137.103C15.6194 142.633 31.4343 147.115 50.9429 147.115Z" fill="#C6FF00"/>
<path opacity="0.53" d="M50.9429 147.115C70.4516 147.115 86.2665 142.633 86.2665 137.103C86.2665 131.574 70.4516 127.091 50.9429 127.091C31.4343 127.091 15.6194 131.574 15.6194 137.103C15.6194 142.633 31.4343 147.115 50.9429 147.115Z" fill="white"/>
<path d="M116.249 139.719C135.038 139.719 150.271 138.346 150.271 136.652C150.271 134.958 135.038 133.585 116.249 133.585C97.4589 133.585 82.2268 134.958 82.2268 136.652C82.2268 138.346 97.4589 139.719 116.249 139.719Z" fill="#C6FF00"/>
<path opacity="0.53" d="M116.249 139.719C135.038 139.719 150.271 138.346 150.271 136.652C150.271 134.958 135.038 133.585 116.249 133.585C97.4589 133.585 82.2268 134.958 82.2268 136.652C82.2268 138.346 97.4589 139.719 116.249 139.719Z" fill="white"/>
<path d="M84.5609 115.23H146.276C149.059 115.23 151.303 112.975 151.303 110.179V5.2767C151.303 2.48051 149.059 0.225525 146.276 0.225525H84.5609C81.7781 0.225525 79.5339 2.48051 79.5339 5.2767V110.179C79.5339 112.975 81.7781 115.23 84.5609 115.23Z" fill="#263238" stroke="#263238" stroke-miterlimit="10" stroke-linecap="round" stroke-linejoin="round"/>
<path d="M143.897 111.306H86.9847C85.1445 111.306 83.6633 109.818 83.6633 107.969V7.48655C83.6633 5.63746 85.1445 4.14917 86.9847 4.14917H143.852C145.693 4.14917 147.174 5.63746 147.174 7.48655V107.969C147.174 109.818 145.693 111.306 143.897 111.306Z" fill="white" stroke="#263238" stroke-miterlimit="10" stroke-linecap="round" stroke-linejoin="round"/>
<path d="M115.217 47.8057C123.769 47.8057 130.702 40.8395 130.702 32.2463C130.702 23.6531 123.769 16.6869 115.217 16.6869C106.665 16.6869 99.7317 23.6531 99.7317 32.2463C99.7317 40.8395 106.665 47.8057 115.217 47.8057Z" fill="#C6FF00"/>
<path opacity="0.53" d="M115.217 47.8057C123.769 47.8057 130.702 40.8395 130.702 32.2463C130.702 23.6531 123.769 16.6869 115.217 16.6869C106.665 16.6869 99.7317 23.6531 99.7317 32.2463C99.7317 40.8395 106.665 47.8057 115.217 47.8057Z" fill="white"/>
<path d="M120.064 36.6661C118.987 36.6661 118.089 37.3876 117.82 38.3798H111.716C111.491 37.568 110.863 36.9367 110.055 36.7112V35.9896H120.558C120.872 35.9896 121.096 35.7641 121.186 35.4935L122.443 28.954C122.488 28.7736 122.443 28.5932 122.308 28.4579C122.174 28.3226 121.994 28.2324 121.815 28.2324H110.055V25.3009C110.055 25.0303 109.875 24.8048 109.606 24.7146L106.195 23.6322C105.881 23.542 105.522 23.7224 105.387 24.0381C105.297 24.3538 105.477 24.7146 105.791 24.8499L108.753 25.797V36.8013C107.766 37.0719 107.093 37.9739 107.093 39.0563C107.093 40.3642 108.125 41.4015 109.427 41.4015C110.504 41.4015 111.402 40.6799 111.671 39.6877H117.775C118.044 40.6799 118.942 41.4015 120.019 41.4015C121.321 41.4015 122.353 40.3642 122.353 39.0563C122.398 37.7484 121.366 36.6661 120.064 36.6661ZM112.883 29.4952H114.678V34.7719H112.883V29.4952ZM115.935 29.4952H117.73V34.7719H115.935V29.4952ZM120.019 34.7719H118.987V29.4952H121.007L120.019 34.7719ZM111.626 29.4952V34.7719H110.01V29.4952H111.626ZM109.427 40.1387C108.843 40.1387 108.349 39.6426 108.349 39.0563C108.349 38.47 108.843 37.9739 109.427 37.9739C110.01 37.9739 110.504 38.47 110.504 39.0563C110.504 39.6426 110.055 40.1387 109.427 40.1387ZM120.064 40.1387C119.481 40.1387 118.987 39.6426 118.987 39.0563C118.987 38.47 119.481 37.9739 120.064 37.9739C120.648 37.9739 121.141 38.47 121.141 39.0563C121.141 39.6426 120.692 40.1387 120.064 40.1387Z" fill="#263238"/>
<path d="M122.937 32.2463C125.465 32.2463 127.515 30.1867 127.515 27.6461C127.515 25.1055 125.465 23.046 122.937 23.046C120.408 23.046 118.359 25.1055 118.359 27.6461C118.359 30.1867 120.408 32.2463 122.937 32.2463Z" fill="white" stroke="#263238" stroke-miterlimit="10"/>
<path d="M120.827 27.1049L122.578 29.5854L125.764 25.5264" stroke="#263238" stroke-miterlimit="10" stroke-linecap="round" stroke-linejoin="round"/>
<path d="M143.897 4.14917H86.9847C85.1445 4.14917 83.6633 5.63746 83.6633 7.48655V9.87684H120.333L122.263 7.66695H147.174V7.48655C147.174 5.63746 145.693 4.14917 143.897 4.14917Z" fill="#C6FF00"/>
<path d="M150.316 97.0998V100.527C150.316 100.708 150.45 100.843 150.63 100.843C150.809 100.843 150.944 100.708 150.944 100.527V97.0998C150.944 96.9194 150.809 96.7841 150.63 96.7841C150.45 96.7841 150.316 96.9194 150.316 97.0998Z" fill="white"/>
<path d="M150.316 84.0208V91.0564C150.316 91.1917 150.45 91.327 150.63 91.327C150.809 91.327 150.944 91.1917 150.944 91.0564V84.0208C150.944 83.8855 150.809 83.7502 150.63 83.7502C150.45 83.7051 150.316 83.8404 150.316 84.0208Z" fill="white"/>
<path d="M48.8784 127.903L34.6503 127.362C34.0219 127.317 33.4833 127.858 33.5731 128.444C33.6179 128.715 33.7526 128.895 34.0668 128.895C35.0991 128.895 35.6377 128.534 35.6377 128.534L46.8587 131.917C46.8587 131.962 50.584 132.864 48.8784 127.903Z" fill="#263238" stroke="#263238" stroke-miterlimit="10" stroke-linecap="round" stroke-linejoin="round"/>
<path d="M48.3398 115.726V129.03L28.9051 139.178C28.9051 139.178 27.4239 141.207 29.1295 141.433C31.284 141.703 31.3737 139.719 31.3737 139.719C31.3737 139.719 52.4691 133.27 52.9179 133.27C53.3668 133.27 73.3401 138.682 73.3401 138.682C73.3401 138.682 72.5322 139.584 74.0133 140.035C75.4945 140.486 75.5842 138.682 75.1354 138.005C74.6866 137.329 53.3668 128.083 53.3668 128.083V115.996L48.3398 115.726Z" fill="#263238" stroke="#263238" stroke-miterlimit="10" stroke-linecap="round" stroke-linejoin="round"/>
<path d="M78.9953 86.6817C78.0079 86.5013 77.1102 86.2307 76.2125 85.7346C75.0456 85.1032 73.3849 84.0208 71.5446 82.4423C67.8193 79.2853 64.2286 72.7459 61.0867 69.2281C57.9448 65.7103 51.8855 63.8161 43.223 64.7181C34.5604 65.6201 30.2067 69.1379 28.5011 73.6479C26.7955 78.1578 26.5711 82.4423 24.7757 86.4111C22.9804 90.3799 19.1652 91.8231 19.8385 95.882C20.5118 99.941 24.4615 106.616 32.5406 111.802C40.6197 116.989 50.1799 118.928 60.8174 117.801C71.4549 116.673 75.8535 112.028 79.5788 106.616C83.3042 101.204 83.753 94.7545 83.1695 91.3721C82.7656 88.4857 80.7907 86.9974 78.9953 86.6817Z" fill="white" stroke="#263238" stroke-miterlimit="10" stroke-linecap="round" stroke-linejoin="round"/>
<path opacity="0.17" d="M38.0614 70.4909C36.311 71.2576 34.6951 72.34 33.2589 73.7832C29.3091 77.6167 31.0147 82.9384 29.7579 87.7641C29.0847 90.3348 27.8728 92.5898 27.8728 92.5898C27.8728 92.5898 29.3989 102.241 35.5928 106.075C41.7868 109.863 51.751 112.479 60.1442 110.9C68.5824 109.367 73.0259 104.857 75.0905 101.069C77.1552 97.2801 76.3024 91.0564 70.9612 87.4484C65.6201 83.8404 62.2089 76.5794 57.4063 73.1067C51.7061 68.9575 44.2105 67.7398 38.0614 70.4909Z" fill="black"/>
<path d="M80.656 87.313C80.252 87.313 79.8032 87.3581 79.3992 87.4032C79.3992 87.4032 76.9306 87.2679 75.3597 91.2367C73.7888 95.2055 74.9109 99.5802 72.8911 102.737C70.8713 105.894 69.3004 106.255 56.3739 106.345C43.4473 106.435 38.959 108.735 33.7973 101.925C28.6357 95.1153 30.6555 91.7779 26.3915 90.1994C24.282 89.4327 22.9355 89.7033 21.9031 90.47C20.5566 92.0485 19.4794 93.5368 19.8834 95.8369C20.5566 99.8959 24.5064 106.571 32.5855 111.757C40.6645 116.944 50.2248 118.883 60.8623 117.755C71.4997 116.628 75.8983 111.983 79.6237 106.571C83.349 101.159 83.7979 94.7094 83.2144 91.3269C82.9002 89.3876 81.8679 88.0346 80.656 87.313Z" fill="white"/>
<mask id="mask0_2038_291" style="mask-type:luminance" maskUnits="userSpaceOnUse" x="19" y="87" width="65" height="32">
<path d="M80.656 87.313C80.252 87.313 79.8032 87.3581 79.3992 87.4032C79.3992 87.4032 76.9306 87.2679 75.3597 91.2367C73.7888 95.2055 74.9109 99.5802 72.8911 102.737C70.8713 105.894 69.3004 106.255 56.3739 106.345C43.4473 106.435 38.959 108.735 33.7973 101.925C28.6357 95.1153 30.6555 91.7779 26.3915 90.1994C24.282 89.4327 22.9355 89.7033 21.9031 90.47C20.5566 92.0485 19.4794 93.5368 19.8834 95.8369C20.5566 99.8959 24.5064 106.571 32.5855 111.757C40.6645 116.944 50.2248 118.883 60.8623 117.755C71.4997 116.628 75.8983 111.983 79.6237 106.571C83.349 101.159 83.7979 94.7094 83.2144 91.3269C82.9002 89.3876 81.8679 88.0346 80.656 87.313Z" fill="white"/>
</mask>
<g mask="url(#mask0_2038_291)">
<path opacity="0.17" d="M80.656 87.313C80.252 87.313 79.8032 87.3581 79.3992 87.4032C79.3992 87.4032 76.9306 87.2679 75.3597 91.2367C73.7888 95.2055 74.9109 99.5802 72.8911 102.737C70.8713 105.894 69.3004 106.255 56.3739 106.345C43.4473 106.435 38.959 108.735 33.7973 101.925C28.6357 95.1153 30.6555 91.7779 26.3915 90.1994C24.282 89.4327 22.9355 89.7033 21.9031 90.47C20.5566 92.0485 19.4794 93.5368 19.8834 95.8369C20.5566 99.8959 24.5064 106.571 32.5855 111.757C40.6645 116.944 50.2248 118.883 60.8623 117.755C71.4997 116.628 75.8983 111.983 79.6237 106.571C83.349 101.159 83.7979 94.7094 83.2144 91.3269C82.9002 89.3876 81.8679 88.0346 80.656 87.313Z" fill="black"/>
</g>
<path d="M80.656 87.313C80.252 87.313 79.8032 87.3581 79.3992 87.4032C79.3992 87.4032 76.9306 87.2679 75.3597 91.2367C73.7888 95.2055 74.9109 99.5802 72.8911 102.737C70.8713 105.894 69.3004 106.255 56.3739 106.345C43.4473 106.435 38.959 108.735 33.7973 101.925C28.6357 95.1153 30.6555 91.7779 26.3915 90.1994C24.282 89.4327 22.9355 89.7033 21.9031 90.47C20.5566 92.0485 19.4794 93.5368 19.8834 95.8369C20.5566 99.8959 24.5064 106.571 32.5855 111.757C40.6645 116.944 50.2248 118.883 60.8622 117.755C71.4997 116.628 75.8983 111.983 79.6237 106.571C83.349 101.159 83.7979 94.7094 83.2144 91.3269C82.9002 89.3876 81.8679 88.0346 80.656 87.313Z" stroke="#263238" stroke-miterlimit="10" stroke-linecap="round" stroke-linejoin="round"/>
<path d="M42.7292 82.9384C42.7292 82.9384 37.5676 88.5759 36.0864 93.9879C34.6052 99.3998 36.9841 105.398 41.1583 106.841C45.3324 108.284 51.3918 106.255 54.1746 105.127C56.9573 104 61.1315 106.029 65.7546 106.165C70.3776 106.3 71.0509 97.0095 69.9288 91.5074C68.8067 86.0052 63.8695 80.9991 59.022 80.2324C54.1746 79.4657 45.1978 79.8716 42.7292 82.9384Z" fill="#263238" stroke="#263238" stroke-miterlimit="10" stroke-linecap="round" stroke-linejoin="round"/>
<path d="M59.9197 48.1665C59.9197 48.1665 64.3632 50.3764 66.5625 50.9627C68.7618 51.549 73.7888 51.549 74.0132 53.3981C74.2825 55.2471 73.2502 65.3495 72.6667 68.6418C72.0832 71.934 71.9934 76.8048 72.3525 78.0676C72.6667 79.3304 73.699 81.3599 72.532 83.3894C71.3651 85.4189 70.6918 88.0347 67.9988 87.5837C65.3057 87.1778 64.6325 85.2385 64.6325 85.2385L48.2948 87.268C48.2948 87.268 47.038 80.5932 45.6018 74.7302C44.1655 68.8222 41.248 60.4336 41.4724 56.3746C41.7417 52.3157 46.9034 49.7901 50.539 48.6175C54.1297 47.4449 59.9197 48.1665 59.9197 48.1665Z" fill="#C6FF00"/>
<mask id="mask1_2038_291" style="mask-type:luminance" maskUnits="userSpaceOnUse" x="41" y="47" width="34" height="41">
<path d="M59.9197 48.1665C59.9197 48.1665 64.3632 50.3764 66.5625 50.9627C68.7618 51.549 73.7888 51.549 74.0132 53.3981C74.2825 55.2471 73.2502 65.3495 72.6667 68.6418C72.0832 71.934 71.9934 76.8048 72.3525 78.0676C72.6667 79.3304 73.699 81.3599 72.532 83.3894C71.3651 85.4189 70.6918 88.0347 67.9988 87.5837C65.3057 87.1778 64.6325 85.2385 64.6325 85.2385L48.2948 87.268C48.2948 87.268 47.038 80.5932 45.6018 74.7302C44.1655 68.8222 41.248 60.4336 41.4724 56.3746C41.7417 52.3157 46.9034 49.7901 50.539 48.6175C54.1297 47.4449 59.9197 48.1665 59.9197 48.1665Z" fill="white"/>
</mask>
<g mask="url(#mask1_2038_291)">
<path opacity="0.17" d="M72.0384 59.1709C71.6344 60.5238 69.7044 65.4397 69.7044 65.4397C69.7044 65.4397 70.4674 60.9297 71.006 57.3218C71.4998 53.7138 71.6344 54.1197 69.9737 54.1197C68.313 54.1197 65.3507 52.7216 64.3183 52.1804C63.286 51.6843 63.8246 52.8118 62.7923 52.0451C61.76 51.2784 60.2339 48.843 60.2339 48.843C57.4062 48.2116 46.1404 49.6097 45.1081 52.8569C44.4348 55.0217 44.749 66.1162 45.5569 74.5499C45.5569 74.6401 45.6018 74.6852 45.6018 74.7754C46.5893 78.7892 47.442 83.1639 47.9358 85.5091C48.4295 86.1856 48.9681 86.7268 49.5516 87.1327L64.4979 85.2836C66.3381 83.2541 67.8193 80.4579 68.313 79.8716C68.8965 79.1951 70.7367 77.9323 70.8714 76.7598C71.006 75.5872 70.3777 67.6045 71.006 64.7632C71.4549 62.5984 71.8588 60.0729 72.0384 59.1709ZM68.4028 72.2498C66.7421 74.4597 62.2537 72.8812 59.6953 71.9792C57.1369 71.0772 54.803 73.7832 52.0202 73.1518C49.1925 72.5204 52.6486 68.3712 56.2393 68.2359C59.83 68.1006 58.9323 67.9653 62.119 64.1318C65.3058 60.2533 67.2358 63.7259 68.5374 66.7025C69.8391 69.6791 68.4028 72.2498 68.4028 72.2498Z" fill="black"/>
</g>
<mask id="mask2_2038_291" style="mask-type:luminance" maskUnits="userSpaceOnUse" x="41" y="47" width="34" height="41">
<path d="M59.9197 48.1665C59.9197 48.1665 64.3632 50.3764 66.5625 50.9627C68.7618 51.549 73.7888 51.549 74.0132 53.3981C74.2825 55.2471 73.2502 65.3495 72.6667 68.6418C72.0832 71.934 71.9934 76.8048 72.3525 78.0676C72.6667 79.3304 73.699 81.3599 72.532 83.3894C71.3651 85.4189 70.6918 88.0347 67.9988 87.5837C65.3057 87.1778 64.6325 85.2385 64.6325 85.2385L48.2948 87.268C48.2948 87.268 47.038 80.5932 45.6018 74.7302C44.1655 68.8222 41.248 60.4336 41.4724 56.3746C41.7417 52.3157 46.9034 49.7901 50.539 48.6175C54.1297 47.4449 59.9197 48.1665 59.9197 48.1665Z" fill="white"/>
</mask>
<g mask="url(#mask2_2038_291)">
<path d="M72.2178 53.4883C72.2178 53.4883 72.1281 57.4571 71.4548 59.5316C70.7815 61.6513 69.6146 65.3495 69.6146 67.4692C69.6146 69.5889 70.0185 72.6106 69.3453 74.5499C68.672 76.4891 65.6648 79.5108 65.6648 82.4874" stroke="#263238" stroke-miterlimit="10" stroke-linecap="round" stroke-linejoin="round"/>
</g>
<path d="M59.9197 48.1665C59.9197 48.1665 64.3632 50.3764 66.5625 50.9627C68.7618 51.549 73.7888 51.549 74.0132 53.3981C74.2825 55.2472 73.2502 65.3495 72.6667 68.6418C72.0832 71.9341 71.9934 76.8048 72.3525 78.0676C72.6667 79.3304 73.699 81.3599 72.532 83.3894C71.3651 85.4189 70.6918 88.0347 67.9988 87.5837C65.3057 87.1778 64.6325 85.2385 64.6325 85.2385L48.2948 87.268C48.2948 87.268 47.038 80.5932 45.6018 74.7302C44.1655 68.8222 41.248 60.4336 41.4724 56.3746C41.7417 52.3157 46.9034 49.7901 50.539 48.6175C54.1297 47.4449 59.9197 48.1665 59.9197 48.1665Z" stroke="#263238" stroke-miterlimit="10" stroke-linecap="round" stroke-linejoin="round"/>
<path d="M46.9033 69.0026C46.9033 69.0026 47.3971 75.0009 47.8908 77.6618C48.3845 80.3226 48.4743 82.3972 48.4743 82.3972C48.4743 82.3972 50.494 81.9913 50.898 83.5698C51.302 85.1483 50.8082 87.4484 49.1475 88.7112C47.4868 89.974 45.1978 90.8309 43.5371 90.2897C41.8764 89.7485 41.2929 85.5542 41.2929 82.9835C41.2929 80.3677 41.2929 76.9853 40.5298 75.046C39.8117 73.1067 41.9661 66.7927 46.9033 69.0026Z" fill="#C6FF00"/>
<mask id="mask3_2038_291" style="mask-type:luminance" maskUnits="userSpaceOnUse" x="40" y="68" width="12" height="23">
<path d="M46.9033 69.0026C46.9033 69.0026 47.3971 75.0009 47.8908 77.6618C48.3845 80.3226 48.4743 82.3972 48.4743 82.3972C48.4743 82.3972 50.494 81.9913 50.898 83.5698C51.302 85.1483 50.8082 87.4484 49.1475 88.7112C47.4868 89.974 45.1978 90.8309 43.5371 90.2897C41.8764 89.7485 41.2929 85.5542 41.2929 82.9835C41.2929 80.3677 41.2929 76.9853 40.5298 75.046C39.8117 73.1067 41.9661 66.7927 46.9033 69.0026Z" fill="white"/>
</mask>
<g mask="url(#mask3_2038_291)">
<path opacity="0.17" d="M48.8333 84.8777C47.6214 85.1483 44.8835 85.5542 44.6142 84.4718C44.3449 83.3894 46.1403 82.1266 46.1403 82.1266L47.5765 82.2619V81.3148C47.5765 81.3148 46.9033 75.7224 46.23 73.6479C45.5568 71.6184 41.8763 73.6479 40.5298 75.0459C41.2928 76.9852 41.2928 80.3677 41.2928 82.9835C41.2928 85.5993 41.8763 89.7936 43.537 90.2897C45.1977 90.7858 47.4868 89.974 49.1475 88.7112C50.09 88.0347 50.6286 86.9974 50.8979 85.9601C50.494 85.1483 49.4617 84.7424 48.8333 84.8777Z" fill="black"/>
</g>
<path d="M46.9033 69.0026C46.9033 69.0026 47.3971 75.0009 47.8908 77.6618C48.3845 80.3226 48.4743 82.3972 48.4743 82.3972C48.4743 82.3972 50.494 81.9913 50.898 83.5698C51.302 85.1483 50.8082 87.4484 49.1475 88.7112C47.4868 89.974 45.1978 90.8309 43.5371 90.2897C41.8764 89.7485 41.2929 85.5542 41.2929 82.9835C41.2929 80.3677 41.2929 76.9853 40.5298 75.046C39.8117 73.1067 41.9661 66.7927 46.9033 69.0026Z" stroke="#263238" stroke-miterlimit="10" stroke-linecap="round" stroke-linejoin="round"/>
<path d="M48.9232 82.6227C48.9232 82.6227 47.9357 82.5325 46.1404 82.1266C44.3899 81.7207 43.3127 82.5325 42.9536 84.9228" stroke="#263238" stroke-miterlimit="10" stroke-linecap="round" stroke-linejoin="round"/>
<path d="M51.6163 51.8196C51.6163 51.8196 51.347 55.5178 50.7635 58.8101C50.18 62.1024 48.8335 64.222 48.8335 64.222C48.8335 64.222 48.8335 56.7355 47.6666 53.0824C46.4996 49.4744 46.9035 46.8586 48.654 47.6704C50.4493 48.5273 51.6163 51.8196 51.6163 51.8196Z" fill="#263238" stroke="#263238" stroke-miterlimit="10" stroke-linecap="round" stroke-linejoin="round"/>
<path d="M50.6736 52.0451C50.6736 52.0451 50.4043 54.4805 50.6736 56.6904C50.9429 58.9003 51.3469 60.2984 51.3469 60.2984L53.6809 57.863L52.6934 60.7945L57.9897 64.1769L61.2662 59.1258L59.3362 56.9159C59.3362 56.9159 62.3434 58.5846 62.6127 58.4944C62.882 58.4042 62.2088 54.3001 60.7725 51.7745C59.3362 49.2489 55.3416 47.7155 53.995 48.1665C52.6036 48.6175 50.4492 50.7823 50.6736 52.0451Z" fill="#C6FF00" stroke="#263238" stroke-miterlimit="10" stroke-linecap="round" stroke-linejoin="round"/>
<path d="M53.4565 54.8412C53.4565 54.8412 56.1496 62.8239 57.3165 62.5984C58.4835 62.3278 59.067 53.7589 59.067 53.7589C59.067 53.7589 56.6433 55.6079 53.4565 54.8412Z" fill="white"/>
<mask id="mask4_2038_291" style="mask-type:luminance" maskUnits="userSpaceOnUse" x="53" y="53" width="7" height="10">
<path d="M53.4565 54.8412C53.4565 54.8412 56.1496 62.8239 57.3165 62.5984C58.4835 62.3278 59.067 53.7589 59.067 53.7589C59.067 53.7589 56.6433 55.6079 53.4565 54.8412Z" fill="white"/>
</mask>
<g mask="url(#mask4_2038_291)">
<path d="M53.4565 54.8412C53.4565 54.8412 56.1496 62.8239 57.3165 62.5984C58.4835 62.3278 59.067 53.7589 59.067 53.7589C59.067 53.7589 56.6433 55.6079 53.4565 54.8412Z" fill="#C6FF00"/>
</g>
<mask id="mask5_2038_291" style="mask-type:luminance" maskUnits="userSpaceOnUse" x="53" y="53" width="7" height="10">
<path d="M53.4565 54.8412C53.4565 54.8412 56.1496 62.8239 57.3165 62.5984C58.4835 62.3278 59.067 53.7589 59.067 53.7589C59.067 53.7589 56.6433 55.6079 53.4565 54.8412Z" fill="white"/>
</mask>
<g mask="url(#mask5_2038_291)">
<path opacity="0.53" d="M53.4565 54.8412C53.4565 54.8412 56.1496 62.8239 57.3165 62.5984C58.4835 62.3278 59.067 53.7589 59.067 53.7589C59.067 53.7589 56.6433 55.6079 53.4565 54.8412Z" fill="white"/>
</g>
<path d="M53.4565 54.8412C53.4565 54.8412 56.1496 62.8239 57.3165 62.5984C58.4835 62.3278 59.067 53.7589 59.067 53.7589C59.067 53.7589 56.6433 55.6079 53.4565 54.8412Z" stroke="#263238" stroke-miterlimit="10" stroke-linecap="round" stroke-linejoin="round"/>
<path d="M46.5893 47.1743C46.5893 47.1743 49.5965 52.5863 51.8856 54.4354C54.04 56.1492 57.3166 56.8708 58.9324 54.9315C60.5033 52.9922 60.9521 48.6175 60.8624 45.8213C60.7726 43.0251 58.7528 41.1761 56.5087 38.9211C54.2645 36.6661 50.8084 33.6895 48.5642 35.2229C46.2303 36.7112 45.8263 45.4154 46.5893 47.1743Z" fill="white"/>
<mask id="mask6_2038_291" style="mask-type:luminance" maskUnits="userSpaceOnUse" x="46" y="34" width="15" height="23">
<path d="M46.5893 47.1743C46.5893 47.1743 49.5965 52.5863 51.8856 54.4354C54.04 56.1492 57.3166 56.8708 58.9324 54.9315C60.5033 52.9922 60.9521 48.6175 60.8624 45.8213C60.7726 43.0251 58.7528 41.1761 56.5087 38.9211C54.2645 36.6661 50.8084 33.6895 48.5642 35.2229C46.2303 36.7112 45.8263 45.4154 46.5893 47.1743Z" fill="white"/>
</mask>
<g mask="url(#mask6_2038_291)">
<path d="M58.8874 54.9315C58.9323 54.8864 58.9772 54.7962 59.0221 54.706C58.2142 55.0217 57.3165 55.2923 56.3291 55.3374C53.3218 55.4727 51.3918 52.7216 51.3918 52.7216C51.3918 52.7216 51.1225 52.3157 49.5516 49.4293C47.9807 46.5429 48.5193 38.5603 48.5193 38.5603C48.5193 38.5603 49.6863 40.1388 52.9628 40.9055C56.2393 41.6721 58.7079 41.8074 58.7079 41.8074L58.5732 41.0408C57.9449 40.3192 57.2267 39.6427 56.4637 38.876C54.2195 36.621 50.7635 33.6444 48.5193 35.1778C46.2751 36.7112 45.8263 45.3703 46.5893 47.1292C46.5893 47.1292 49.5965 52.5412 51.8856 54.3903C53.9951 56.1041 57.3165 56.8708 58.8874 54.9315Z" fill="#C6FF00"/>
</g>
<mask id="mask7_2038_291" style="mask-type:luminance" maskUnits="userSpaceOnUse" x="46" y="34" width="15" height="23">
<path d="M46.5893 47.1743C46.5893 47.1743 49.5965 52.5863 51.8856 54.4354C54.04 56.1492 57.3166 56.8708 58.9324 54.9315C60.5033 52.9922 60.9521 48.6175 60.8624 45.8213C60.7726 43.0251 58.7528 41.1761 56.5087 38.9211C54.2645 36.6661 50.8084 33.6895 48.5642 35.2229C46.2303 36.7112 45.8263 45.4154 46.5893 47.1743Z" fill="white"/>
</mask>
<g mask="url(#mask7_2038_291)">
<path opacity="0.53" d="M58.8874 54.9315C58.9323 54.8864 58.9772 54.7962 59.0221 54.706C58.2142 55.0217 57.3165 55.2923 56.3291 55.3374C53.3218 55.4727 51.3918 52.7216 51.3918 52.7216C51.3918 52.7216 51.1225 52.3157 49.5516 49.4293C47.9807 46.5429 48.5193 38.5603 48.5193 38.5603C48.5193 38.5603 49.6863 40.1388 52.9628 40.9055C56.2393 41.6721 58.7079 41.8074 58.7079 41.8074L58.5732 41.0408C57.9449 40.3192 57.2267 39.6427 56.4637 38.876C54.2195 36.621 50.7635 33.6444 48.5193 35.1778C46.2751 36.7112 45.8263 45.3703 46.5893 47.1292C46.5893 47.1292 49.5965 52.5412 51.8856 54.3903C53.9951 56.1041 57.3165 56.8708 58.8874 54.9315Z" fill="white"/>
</g>
<mask id="mask8_2038_291" style="mask-type:luminance" maskUnits="userSpaceOnUse" x="46" y="34" width="15" height="23">
<path d="M46.5893 47.1743C46.5893 47.1743 49.5965 52.5863 51.8856 54.4354C54.04 56.1492 57.3166 56.8708 58.9324 54.9315C60.5033 52.9922 60.9521 48.6175 60.8624 45.8213C60.7726 43.0251 58.7528 41.1761 56.5087 38.9211C54.2645 36.6661 50.8084 33.6895 48.5642 35.2229C46.2303 36.7112 45.8263 45.4154 46.5893 47.1743Z" fill="white"/>
</mask>
<g mask="url(#mask8_2038_291)">
<path d="M49.866 46.5881C49.866 46.5881 51.796 47.0842 52.559 45.9116" stroke="#263238" stroke-miterlimit="10" stroke-linecap="round" stroke-linejoin="round"/>
</g>
<mask id="mask9_2038_291" style="mask-type:luminance" maskUnits="userSpaceOnUse" x="46" y="34" width="15" height="23">
<path d="M46.5893 47.1743C46.5893 47.1743 49.5965 52.5863 51.8856 54.4354C54.04 56.1492 57.3166 56.8708 58.9324 54.9315C60.5033 52.9922 60.9521 48.6175 60.8624 45.8213C60.7726 43.0251 58.7528 41.1761 56.5087 38.9211C54.2645 36.6661 50.8084 33.6895 48.5642 35.2229C46.2303 36.7112 45.8263 45.4154 46.5893 47.1743Z" fill="white"/>
</mask>
<g mask="url(#mask9_2038_291)">
<path d="M56.374 45.0546C56.374 45.0546 58.2143 45.5507 58.9773 44.1075" stroke="#263238" stroke-miterlimit="10" stroke-linecap="round" stroke-linejoin="round"/>
</g>
<mask id="mask10_2038_291" style="mask-type:luminance" maskUnits="userSpaceOnUse" x="46" y="34" width="15" height="23">
<path d="M46.5893 47.1743C46.5893 47.1743 49.5965 52.5863 51.8856 54.4354C54.04 56.1492 57.3166 56.8708 58.9324 54.9315C60.5033 52.9922 60.9521 48.6175 60.8624 45.8213C60.7726 43.0251 58.7528 41.1761 56.5087 38.9211C54.2645 36.6661 50.8084 33.6895 48.5642 35.2229C46.2303 36.7112 45.8263 45.4154 46.5893 47.1743Z" fill="white"/>
</mask>
<g mask="url(#mask10_2038_291)">
<path d="M48.5193 44.9194C48.5193 44.9194 49.776 43.5664 52.0202 43.9723" stroke="#263238" stroke-miterlimit="10" stroke-linecap="round" stroke-linejoin="round"/>
</g>
<mask id="mask11_2038_291" style="mask-type:luminance" maskUnits="userSpaceOnUse" x="46" y="34" width="15" height="23">
<path d="M46.5893 47.1743C46.5893 47.1743 49.5965 52.5863 51.8856 54.4354C54.04 56.1492 57.3166 56.8708 58.9324 54.9315C60.5033 52.9922 60.9521 48.6175 60.8624 45.8213C60.7726 43.0251 58.7528 41.1761 56.5087 38.9211C54.2645 36.6661 50.8084 33.6895 48.5642 35.2229C46.2303 36.7112 45.8263 45.4154 46.5893 47.1743Z" fill="white"/>
</mask>
<g mask="url(#mask11_2038_291)">
<path d="M55.6558 43.4762C55.6558 43.4762 56.4188 42.033 58.8425 42.3036" stroke="#263238" stroke-miterlimit="10" stroke-linecap="round" stroke-linejoin="round"/>
</g>
<mask id="mask12_2038_291" style="mask-type:luminance" maskUnits="userSpaceOnUse" x="46" y="34" width="15" height="23">
<path d="M46.5893 47.1743C46.5893 47.1743 49.5965 52.5863 51.8856 54.4354C54.04 56.1492 57.3166 56.8708 58.9324 54.9315C60.5033 52.9922 60.9521 48.6175 60.8624 45.8213C60.7726 43.0251 58.7528 41.1761 56.5087 38.9211C54.2645 36.6661 50.8084 33.6895 48.5642 35.2229C46.2303 36.7112 45.8263 45.4154 46.5893 47.1743Z" fill="white"/>
</mask>
<g mask="url(#mask12_2038_291)">
<path d="M54.4441 49.3391C54.4441 49.3391 55.7008 49.8352 56.1946 48.7528" stroke="#263238" stroke-miterlimit="10" stroke-linecap="round" stroke-linejoin="round"/>
</g>
<mask id="mask13_2038_291" style="mask-type:luminance" maskUnits="userSpaceOnUse" x="46" y="34" width="15" height="23">
<path d="M46.5893 47.1743C46.5893 47.1743 49.5965 52.5863 51.8856 54.4354C54.04 56.1492 57.3166 56.8708 58.9324 54.9315C60.5033 52.9922 60.9521 48.6175 60.8624 45.8213C60.7726 43.0251 58.7528 41.1761 56.5087 38.9211C54.2645 36.6661 50.8084 33.6895 48.5642 35.2229C46.2303 36.7112 45.8263 45.4154 46.5893 47.1743Z" fill="white"/>
</mask>
<g mask="url(#mask13_2038_291)">
<path d="M54.3992 51.4588C54.3992 51.4588 56.5985 51.7294 57.4962 50.4666" stroke="#263238" stroke-miterlimit="10" stroke-linecap="round" stroke-linejoin="round"/>
</g>
<path d="M46.5893 47.1743C46.5893 47.1743 49.5965 52.5863 51.8856 54.4354C54.04 56.1492 57.3166 56.8708 58.9324 54.9315C60.5033 52.9922 60.9521 48.6175 60.8624 45.8213C60.7726 43.0251 58.7528 41.1761 56.5087 38.9211C54.2645 36.6661 50.8084 33.6895 48.5642 35.2229C46.2303 36.7112 45.8263 45.4154 46.5893 47.1743Z" stroke="#263238" stroke-miterlimit="10" stroke-linecap="round" stroke-linejoin="round"/>
<path d="M48.7436 85.6444C48.7436 85.6444 48.6539 83.9757 48.9232 82.6227C49.1925 81.2697 49.6862 80.6834 49.6862 79.15C49.6862 77.6166 49.7759 77.0303 50.7634 77.0303C51.7508 77.0303 53.6808 77.1205 53.7706 77.797C53.8604 78.4735 53.9501 78.8794 53.5013 78.7892C53.0973 78.699 51.302 78.6088 51.302 78.6088L51.0327 79.2853C51.0327 79.2853 53.0525 79.9618 53.4564 80.2324C53.8604 80.503 53.9501 82.3521 53.9501 83.3443C53.9501 84.3365 53.5462 85.1032 52.6036 85.464C51.6611 85.7797 50.8532 84.6071 50.8532 84.6071C50.8532 84.6071 51.0327 85.8699 50.0901 86.2758C49.2822 86.7719 48.5192 86.1856 48.7436 85.6444Z" fill="white" stroke="#263238" stroke-miterlimit="10" stroke-linecap="round" stroke-linejoin="round"/>
<path d="M52.6036 74.8205L51.1224 87.719C51.0327 88.4406 51.6161 89.072 52.3343 89.072L63.645 88.5759C64.1387 88.5759 64.5876 88.2151 64.7222 87.719L68.268 75.0911C68.4925 74.3244 67.909 73.5577 67.1011 73.5577L53.7257 73.7832C53.1422 73.7832 52.6485 74.2342 52.6036 74.8205Z" fill="white" stroke="#263238" stroke-miterlimit="10" stroke-linecap="round" stroke-linejoin="round"/>
<path opacity="0.17" d="M53.1422 75.3617L51.7957 87.2229C51.7059 87.8994 52.2445 88.4857 52.9178 88.4406L63.3308 87.9896C63.8246 87.9896 64.2285 87.6288 64.3183 87.1778L67.5499 75.5872C67.7294 74.8656 67.1908 74.1891 66.4727 74.1891L54.1745 74.3695C53.6808 74.3695 53.232 74.8205 53.1422 75.3617Z" fill="black"/>
<path d="M52.828 78.2932L51.7957 87.2229" stroke="#263238" stroke-width="0.75" stroke-miterlimit="10" stroke-linecap="round" stroke-linejoin="round"/>
<path d="M54.9375 74.3694H54.2194C53.6808 74.3694 53.2319 74.7753 53.1422 75.3616L52.9626 76.7597" stroke="#263238" stroke-width="0.75" stroke-miterlimit="10" stroke-linecap="round" stroke-linejoin="round"/>
<path d="M70.0634 82.5325C70.0634 82.5325 68.7169 80.5031 67.7295 80.5031C66.742 80.5031 62.2088 83.1188 61.0418 83.8855C59.8748 84.6522 61.1315 84.9679 61.1315 84.9679C61.1315 84.9679 60.8622 85.464 61.4008 85.9601C61.8946 86.4562 62.3434 86.4562 62.3434 86.4562C62.3434 86.4562 62.5229 86.7719 63.0167 87.0425C63.5104 87.3131 64.5427 87.3131 64.5427 87.3131C64.5427 87.3131 64.9467 87.6288 66.3829 87.6288C67.8192 87.6288 69.1657 87.5386 69.9736 86.5464C70.7367 85.5993 70.6469 84.562 70.0634 82.5325Z" fill="white" stroke="#263238" stroke-miterlimit="10" stroke-linecap="round" stroke-linejoin="round"/>
<path d="M61.0867 84.9679C61.0867 84.9679 66.4727 84.0208 67.4602 83.0286" stroke="#263238" stroke-miterlimit="10" stroke-linecap="round" stroke-linejoin="round"/>
<path d="M62.2537 86.5013C62.2537 86.5013 66.6074 85.8248 67.9539 85.0581" stroke="#263238" stroke-miterlimit="10" stroke-linecap="round" stroke-linejoin="round"/>
<path d="M64.4529 87.3582C64.4529 87.3582 67.1459 87.1778 68.3129 86.6817" stroke="#263238" stroke-miterlimit="10" stroke-linecap="round" stroke-linejoin="round"/>
<path d="M40.4851 91.3721C40.4851 91.3721 57.9 88.9818 64.9468 89.7936" stroke="white" stroke-miterlimit="10"/>
<path d="M63.4656 115.636C63.4656 115.636 68.313 113.606 76.033 115.636C76.033 115.636 75.2251 116.899 70.2879 117.891C65.3507 118.883 63.4656 115.636 63.4656 115.636Z" fill="white" stroke="#263238" stroke-miterlimit="10" stroke-linecap="round" stroke-linejoin="round"/>
<path d="M63.8694 89.7936C63.5553 89.974 63.2411 90.1544 62.9269 90.2446C62.119 90.5603 60.4583 91.4623 59.785 94.0781C58.8873 97.5958 63.3757 107.067 63.9592 111.216C64.5427 115.365 64.9915 116.989 64.9915 116.989C64.9915 116.989 66.6971 117.44 69.4799 117.891C72.2627 118.342 73.295 116.853 73.295 116.853C73.295 116.853 74.5518 106.48 72.7115 100.167C70.8713 93.8526 70.5571 90.9211 68.2232 90.0191C66.5176 89.3877 64.5876 89.3426 63.8694 89.7936Z" fill="white"/>
<mask id="mask14_2038_291" style="mask-type:luminance" maskUnits="userSpaceOnUse" x="59" y="89" width="15" height="29">
<path d="M63.8694 89.7936C63.5553 89.974 63.2411 90.1544 62.9269 90.2446C62.119 90.5603 60.4583 91.4623 59.785 94.0781C58.8873 97.5958 63.3757 107.067 63.9592 111.216C64.5427 115.365 64.9915 116.989 64.9915 116.989C64.9915 116.989 66.6971 117.44 69.4799 117.891C72.2627 118.342 73.295 116.853 73.295 116.853C73.295 116.853 74.5518 106.48 72.7115 100.167C70.8713 93.8526 70.5571 90.9211 68.2232 90.0191C66.5176 89.3877 64.5876 89.3426 63.8694 89.7936Z" fill="white"/>
</mask>
<g mask="url(#mask14_2038_291)">
<path d="M72.6667 118.071C72.6667 118.071 73.2053 107.833 70.3327 99.3547C67.4602 90.8309 64.9916 91.1015 62.882 92.8153C60.8174 94.5291 60.6827 98.3174 61.8497 102.106C63.0167 105.894 64.9916 110.088 65.2609 113.651C65.5302 117.169 65.1262 119.559 66.5625 119.695C67.9539 119.785 72.532 120.687 72.6667 118.071Z" fill="#C6FF00"/>
</g>
<mask id="mask15_2038_291" style="mask-type:luminance" maskUnits="userSpaceOnUse" x="59" y="89" width="15" height="29">
<path d="M63.8694 89.7936C63.5553 89.974 63.2411 90.1544 62.9269 90.2446C62.119 90.5603 60.4583 91.4623 59.785 94.0781C58.8873 97.5958 63.3757 107.067 63.9592 111.216C64.5427 115.365 64.9915 116.989 64.9915 116.989C64.9915 116.989 66.6971 117.44 69.4799 117.891C72.2627 118.342 73.295 116.853 73.295 116.853C73.295 116.853 74.5518 106.48 72.7115 100.167C70.8713 93.8526 70.5571 90.9211 68.2232 90.0191C66.5176 89.3877 64.5876 89.3426 63.8694 89.7936Z" fill="white"/>
</mask>
<g mask="url(#mask15_2038_291)">
<path opacity="0.53" d="M72.6667 118.071C72.6667 118.071 73.2053 107.833 70.3327 99.3547C67.4602 90.8309 64.9916 91.1015 62.882 92.8153C60.8174 94.5291 60.6827 98.3174 61.8497 102.106C63.0167 105.894 64.9916 110.088 65.2609 113.651C65.5302 117.169 65.1262 119.559 66.5625 119.695C67.9539 119.785 72.532 120.687 72.6667 118.071Z" fill="white"/>
</g>
<path d="M63.8694 89.7936C63.5553 89.974 63.2411 90.1544 62.9269 90.2446C62.119 90.5603 60.4583 91.4623 59.785 94.0781C58.8873 97.5958 63.3757 107.067 63.9592 111.216C64.5427 115.365 64.9915 116.989 64.9915 116.989C64.9915 116.989 66.6971 117.44 69.4799 117.891C72.2627 118.342 73.295 116.853 73.295 116.853C73.295 116.853 74.5518 106.48 72.7115 100.167C70.8713 93.8526 70.5571 90.9211 68.2232 90.0191C66.5176 89.3877 64.5876 89.3426 63.8694 89.7936Z" stroke="#263238" stroke-miterlimit="10" stroke-linecap="round" stroke-linejoin="round"/>
<path d="M63.4656 115.636C63.4656 115.636 71.2305 117.575 76.033 115.636C76.033 115.636 73.2054 128.715 71.1856 134.487C69.1658 140.26 69.2556 142.966 68.9414 146.123C68.6272 149.28 66.6972 154.827 64.2286 155.729C61.76 156.631 61.5356 152.347 63.1963 148.153C64.857 143.958 65.5751 138.907 64.9019 132.819C64.2286 126.73 63.4656 115.636 63.4656 115.636Z" fill="#C6FF00"/>
<mask id="mask16_2038_291" style="mask-type:luminance" maskUnits="userSpaceOnUse" x="62" y="115" width="15" height="41">
<path d="M63.4656 115.636C63.4656 115.636 71.2305 117.575 76.033 115.636C76.033 115.636 73.2054 128.715 71.1856 134.487C69.1658 140.26 69.2556 142.966 68.9414 146.123C68.6272 149.28 66.6972 154.827 64.2286 155.729C61.76 156.631 61.5356 152.347 63.1963 148.153C64.857 143.958 65.5751 138.907 64.9019 132.819C64.2286 126.73 63.4656 115.636 63.4656 115.636Z" fill="white"/>
</mask>
<g mask="url(#mask16_2038_291)">
<path opacity="0.17" d="M73.5645 120.687C74.1929 118.883 74.5071 117.214 74.6866 116.042C71.6345 116.763 67.8643 116.402 65.5752 116.042C65.8445 119.605 66.428 129.526 66.1138 136.156C65.7548 143.823 63.9145 146.845 62.5231 150.272C62.1192 151.896 62.0294 153.384 62.2987 154.422C63.0169 155.053 64.3634 154.782 65.7548 153.61C68.2234 151.535 68.762 144.049 69.0313 139.99C69.2557 135.886 72.3976 124.114 73.5645 120.687Z" fill="black"/>
</g>
<path d="M63.4656 115.636C63.4656 115.636 71.2305 117.575 76.033 115.636C76.033 115.636 73.2054 128.715 71.1856 134.487C69.1658 140.26 69.2556 142.966 68.9414 146.123C68.6272 149.28 66.6972 154.827 64.2286 155.729C61.76 156.631 61.5356 152.347 63.1963 148.153C64.857 143.958 65.5751 138.907 64.9019 132.819C64.2286 126.73 63.4656 115.636 63.4656 115.636Z" stroke="#263238" stroke-miterlimit="10" stroke-linecap="round" stroke-linejoin="round"/>
<path d="M71.455 132.097L71.3203 142.696L72.218 142.245L71.455 132.097Z" fill="#C6FF00" stroke="#263238" stroke-miterlimit="10" stroke-linecap="round" stroke-linejoin="round"/>
<path d="M71.6792 130.97L72.5769 141.207L73.3399 140.666L71.6792 130.97Z" fill="#C6FF00" stroke="#263238" stroke-miterlimit="10" stroke-linecap="round" stroke-linejoin="round"/>
<path d="M60.2338 116.312C60.2338 116.312 56.5084 114.373 48.3396 115.726C48.3396 115.726 49.9105 118.206 53.187 119.018C56.4636 119.83 60.2338 116.312 60.2338 116.312Z" fill="white" stroke="#263238" stroke-miterlimit="10" stroke-linecap="round" stroke-linejoin="round"/>
<path d="M57.9895 90.6053C57.9895 90.6053 53.95 88.8916 51.0325 91.6426C48.1151 94.3937 49.0128 100.212 49.2372 101.339C49.4616 102.467 49.686 103.729 49.686 103.729L50.2695 118.071L58.1242 118.206C58.1242 118.206 59.6053 106.796 60.7274 101.835C61.8495 96.8742 61.8046 92.9505 57.9895 90.6053Z" fill="white"/>
<mask id="mask17_2038_291" style="mask-type:luminance" maskUnits="userSpaceOnUse" x="48" y="90" width="14" height="29">
<path d="M57.9895 90.6053C57.9895 90.6053 53.95 88.8916 51.0325 91.6426C48.1151 94.3937 49.0128 100.212 49.2372 101.339C49.4616 102.467 49.686 103.729 49.686 103.729L50.2695 118.071L58.1242 118.206C58.1242 118.206 59.6053 106.796 60.7274 101.835C61.8495 96.8742 61.8046 92.9505 57.9895 90.6053Z" fill="white"/>
</mask>
<g mask="url(#mask17_2038_291)">
<path d="M57.2715 93.7172C52.6933 92.1387 51.661 96.333 51.2571 99.9861C50.8531 103.639 50.8531 116.898 50.9878 117.665C50.9878 117.755 51.0775 117.846 51.1673 117.981L58.0794 118.071C58.0794 118.071 59.5606 106.661 60.6827 101.7C60.7724 101.339 60.8173 101.023 60.9071 100.663C60.9071 98.588 60.4582 94.7996 57.2715 93.7172Z" fill="#C6FF00"/>
</g>
<mask id="mask18_2038_291" style="mask-type:luminance" maskUnits="userSpaceOnUse" x="48" y="90" width="14" height="29">
<path d="M57.9895 90.6053C57.9895 90.6053 53.95 88.8916 51.0325 91.6426C48.1151 94.3937 49.0128 100.212 49.2372 101.339C49.4616 102.467 49.686 103.729 49.686 103.729L50.2695 118.071L58.1242 118.206C58.1242 118.206 59.6053 106.796 60.7274 101.835C61.8495 96.8742 61.8046 92.9505 57.9895 90.6053Z" fill="white"/>
</mask>
<g mask="url(#mask18_2038_291)">
<path opacity="0.53" d="M57.2715 93.7172C52.6933 92.1387 51.661 96.333 51.2571 99.9861C50.8531 103.639 50.8531 116.898 50.9878 117.665C50.9878 117.755 51.0775 117.846 51.1673 117.981L58.0794 118.071C58.0794 118.071 59.5606 106.661 60.6827 101.7C60.7724 101.339 60.8173 101.023 60.9071 100.663C60.9071 98.588 60.4582 94.7996 57.2715 93.7172Z" fill="white"/>
</g>
<path d="M57.9895 90.6053C57.9895 90.6053 53.95 88.8916 51.0325 91.6426C48.1151 94.3937 49.0128 100.212 49.2372 101.339C49.4616 102.467 49.686 103.729 49.686 103.729L50.2695 118.071L58.1242 118.206C58.1242 118.206 59.6053 106.796 60.7274 101.835C61.8495 96.8742 61.8046 92.9505 57.9895 90.6053Z" stroke="#263238" stroke-miterlimit="10" stroke-linecap="round" stroke-linejoin="round"/>
<path d="M48.3396 115.726C48.3396 115.726 49.8208 126.55 51.257 131.511C52.6933 136.472 54.1745 142.335 54.1745 148.198C54.1745 154.061 58.8873 156.541 60.144 155.414C61.4008 154.286 60.3685 148.649 59.3361 145.717C58.3038 142.786 56.9573 135.434 57.4061 131.601C57.855 127.768 60.2338 116.267 60.2338 116.267C60.2338 116.267 52.3791 116.763 48.3396 115.726Z" fill="#C6FF00"/>
<mask id="mask19_2038_291" style="mask-type:luminance" maskUnits="userSpaceOnUse" x="48" y="115" width="13" height="41">
<path d="M48.3396 115.726C48.3396 115.726 49.8208 126.55 51.257 131.511C52.6933 136.472 54.1745 142.335 54.1745 148.198C54.1745 154.061 58.8873 156.541 60.144 155.414C61.4008 154.286 60.3685 148.649 59.3361 145.717C58.3038 142.786 56.9573 135.434 57.4061 131.601C57.855 127.768 60.2338 116.267 60.2338 116.267C60.2338 116.267 52.3791 116.763 48.3396 115.726Z" fill="white"/>
</mask>
<g mask="url(#mask19_2038_291)">
<path opacity="0.17" d="M56.2392 128.94C56.7778 119.244 59.2464 116.357 59.2464 116.357L59.022 116.312C57.1817 116.357 53.6359 116.447 50.6736 116.087C50.8531 118.612 51.4815 126.595 52.9178 133.27C54.6682 141.343 54.3989 145.943 55.7006 149.596C57.0022 153.249 59.7401 156 59.7401 153.023C59.7401 150.047 55.7006 138.637 56.2392 128.94Z" fill="black"/>
</g>
<path d="M48.3396 115.726C48.3396 115.726 49.8208 126.55 51.257 131.511C52.6933 136.472 54.1745 142.335 54.1745 148.198C54.1745 154.061 58.8873 156.541 60.144 155.414C61.4008 154.286 60.3685 148.649 59.3361 145.717C58.3038 142.786 56.9573 135.434 57.4061 131.601C57.855 127.768 60.2338 116.267 60.2338 116.267C60.2338 116.267 52.3791 116.763 48.3396 115.726Z" stroke="#263238" stroke-miterlimit="10" stroke-linecap="round" stroke-linejoin="round"/>
<path d="M50.8981 129.481L50.4492 140.666L51.0327 140.892L50.8981 129.481Z" fill="#C6FF00" stroke="#263238" stroke-miterlimit="10" stroke-linecap="round" stroke-linejoin="round"/>
<path d="M51.2571 129.932L51.7059 141.117L52.6036 140.305L51.2571 129.932Z" fill="#C6FF00" stroke="#263238" stroke-miterlimit="10" stroke-linecap="round" stroke-linejoin="round"/>
<path d="M49.0129 36.4857C49.0129 36.4857 46.7687 43.9722 48.3396 50.3764C49.9106 56.7806 49.1924 63.9514 49.0129 67.8751C48.8334 71.8439 47.442 75.1361 44.2552 77.6617C41.0685 80.1873 36.8045 79.7814 33.6178 77.5715C30.431 75.3616 29.4436 69.1379 31.194 64.7632C32.9445 60.3885 37.2982 52.7216 38.555 48.7528C39.8117 44.784 39.0487 42.7545 39.4078 39.0564C39.7219 35.3582 41.9213 28.5932 46.4545 27.1049C50.9878 25.5715 56.2841 25.6617 59.8748 30.5776C63.4655 35.4484 63.8245 42.98 64.1387 45.4154C64.4529 47.8508 65.4852 48.7077 67.505 49.1136C69.5248 49.5195 69.1657 50.9627 67.6845 51.1431C66.2034 51.3235 62.2536 50.2862 61.1764 48.843C60.0992 47.3998 60.9969 45.1448 59.1566 42.98C57.2266 40.7702 50.8531 39.9133 49.0129 36.4857Z" fill="#263238" stroke="#263238" stroke-miterlimit="10" stroke-linecap="round" stroke-linejoin="round"/>
<path d="M47.3073 65.6652C47.3522 68.8673 47.1727 71.5733 46.4097 73.1067C44.2104 77.6618 41.0236 77.6167 37.2085 76.9402" stroke="white" stroke-miterlimit="10" stroke-linecap="round" stroke-linejoin="round"/>
<path d="M49.0129 36.4857C49.0129 36.4857 44.8387 41.0858 45.512 47.1743C45.871 50.5568 46.8136 56.7805 47.1727 62.418" stroke="white" stroke-miterlimit="10" stroke-linecap="round" stroke-linejoin="round"/>
<path d="M35.2335 67.2888C34.1115 68.3261 33.3933 67.6947 33.3933 67.6947" stroke="white" stroke-miterlimit="10" stroke-linecap="round" stroke-linejoin="round"/>
<path d="M39.2283 46.9488C39.2283 46.9488 40.126 57.0962 37.6573 63.1847C37.2085 64.3122 36.7597 65.2142 36.3557 65.8456" stroke="white" stroke-miterlimit="10" stroke-linecap="round" stroke-linejoin="round"/>
<path d="M60.1888 35.1778C58.977 33.9601 57.1816 32.7424 54.4886 32.5169C48.6537 32.0659 48.519 35.2229 48.519 35.2229C48.519 35.2229 46.1851 30.0364 54.4886 29.8109" stroke="white" stroke-miterlimit="10" stroke-linecap="round" stroke-linejoin="round"/>
<path d="M62.119 38.1544C62.119 38.1544 61.8946 37.5681 61.4009 36.7563" stroke="white" stroke-miterlimit="10" stroke-linecap="round" stroke-linejoin="round"/>
</g>
<defs>
<clipPath id="clip0_2038_291">
<rect width="168" height="156" fill="white"/>
</clipPath>
</defs>
</svg>
