<svg width="24" height="24" viewBox="0 0 24 24" fill="none" xmlns="http://www.w3.org/2000/svg">
<path d="M24 4.5L22.5 10.5H19.5V22.5H4.5V10.5H1.5L0 4.5L9 1.5C9 1.91406 9.07812 2.30078 9.23438 2.66016C9.39062 3.01953 9.60547 3.33984 9.87891 3.62109C10.1523 3.90234 10.4688 4.11719 10.8281 4.26562C11.1875 4.41406 11.5781 4.49219 12 4.5C12.4141 4.5 12.8008 4.42188 13.1602 4.26562C13.5195 4.10938 13.8398 3.89453 14.1211 3.62109C14.4023 3.34766 14.6172 3.03125 14.7656 2.67188C14.9141 2.3125 14.9922 1.92188 15 1.5L24 4.5ZM22.207 5.48438L16.0664 3.43359C15.8789 3.82422 15.6445 4.17578 15.3633 4.48828C15.082 4.80078 14.7617 5.07031 14.4023 5.29688C14.043 5.52344 13.6641 5.69531 13.2656 5.8125C12.8672 5.92969 12.4453 5.99219 12 6C11.5625 6 11.1406 5.94141 10.7344 5.82422C10.3281 5.70703 9.94922 5.53516 9.59766 5.30859C9.24609 5.08203 8.92969 4.8125 8.64844 4.5C8.36719 4.1875 8.12891 3.83203 7.93359 3.43359L1.79297 5.48438L2.67188 9H6V21H18V9H21.3281L22.207 5.48438Z" fill="#A8A6CC"/>
</svg>
