<svg width="102" height="53" viewBox="0 0 102 53" fill="none" xmlns="http://www.w3.org/2000/svg">
<path d="M1.45569 11.768H99.8664C100.301 11.768 100.529 11.2518 100.236 10.9308L91.1685 1" stroke="#48CEF3" stroke-width="1.5" stroke-linecap="round"/>
<path d="M100.544 40.8551H2.13358C1.699 40.8551 1.47132 41.3713 1.76434 41.6922L10.8314 51.623" stroke="#48CEF3" stroke-width="1.5" stroke-linecap="round"/>
<path d="M7.68549 20.6718L6.86849 24.7568H13.5565L13.2335 26.3718H6.54549L5.69049 30.6658H13.4615L13.1385 32.3188H3.46749L6.12749 19.0188H15.5135L15.1905 20.6718H7.68549ZM21.2174 27.2458L24.1434 32.3188H22.2054L20.0394 28.4428L16.3534 32.3188H14.2254L19.2984 27.1128L16.5244 22.2488H18.4244L20.4764 25.8968L23.9724 22.2488H26.0434L21.2174 27.2458ZM30.6448 32.4328C29.6821 32.4328 28.8398 32.2555 28.1178 31.9008C27.3958 31.5335 26.8384 31.0268 26.4458 30.3808C26.0531 29.7222 25.8568 28.9558 25.8568 28.0818C25.8568 26.9545 26.1101 25.9412 26.6168 25.0418C27.1234 24.1425 27.8264 23.4395 28.7258 22.9328C29.6251 22.4135 30.6448 22.1538 31.7848 22.1538C33.7734 22.1538 35.1541 22.8822 35.9268 24.3388L34.3878 25.1938C33.8558 24.2312 32.9438 23.7498 31.6518 23.7498C30.9044 23.7498 30.2268 23.9335 29.6188 24.3008C29.0234 24.6555 28.5548 25.1558 28.2128 25.8018C27.8708 26.4478 27.6998 27.1825 27.6998 28.0058C27.6998 28.8925 27.9594 29.5892 28.4788 30.0958C29.0108 30.5898 29.7581 30.8368 30.7208 30.8368C31.3288 30.8368 31.8924 30.7165 32.4118 30.4758C32.9438 30.2352 33.3808 29.8805 33.7228 29.4118L35.0528 30.3618C34.5841 31.0078 33.9571 31.5145 33.1718 31.8818C32.3864 32.2492 31.5441 32.4328 30.6448 32.4328ZM43.7444 22.1538C44.897 22.1538 45.79 22.4452 46.4234 23.0278C47.0694 23.6105 47.3924 24.4338 47.3924 25.4978C47.3924 25.8652 47.3544 26.2578 47.2784 26.6758L46.1574 32.3188H44.3334L45.4544 26.6758C45.5177 26.3338 45.5494 26.0552 45.5494 25.8398C45.5494 25.1812 45.353 24.6745 44.9604 24.3198C44.5677 23.9652 43.985 23.7878 43.2124 23.7878C42.2244 23.7878 41.4074 24.0602 40.7614 24.6048C40.128 25.1368 39.7037 25.9348 39.4884 26.9988L38.4244 32.3188H36.6004L39.4124 18.2208H41.2364L40.1914 23.4268C41.0907 22.5782 42.275 22.1538 43.7444 22.1538ZM61.0647 22.2488L59.0697 32.3188H57.3217L57.5687 31.0838C57.1127 31.5145 56.5807 31.8502 55.9727 32.0908C55.3773 32.3188 54.725 32.4328 54.0157 32.4328C53.1543 32.4328 52.388 32.2618 51.7167 31.9198C51.0453 31.5652 50.5197 31.0585 50.1397 30.3998C49.7597 29.7412 49.5697 28.9685 49.5697 28.0818C49.5697 26.9418 49.8167 25.9222 50.3107 25.0228C50.8047 24.1235 51.4823 23.4205 52.3437 22.9138C53.2177 22.4072 54.193 22.1538 55.2697 22.1538C56.131 22.1538 56.8657 22.3058 57.4737 22.6098C58.0943 22.9138 58.5693 23.3635 58.8987 23.9588L59.2407 22.2488H61.0647ZM54.4147 30.8368C55.162 30.8368 55.8333 30.6595 56.4287 30.3048C57.0367 29.9375 57.5053 29.4308 57.8347 28.7848C58.1767 28.1388 58.3477 27.4042 58.3477 26.5808C58.3477 25.6815 58.088 24.9848 57.5687 24.4908C57.0493 23.9968 56.3083 23.7498 55.3457 23.7498C54.5983 23.7498 53.927 23.9335 53.3317 24.3008C52.7363 24.6555 52.2677 25.1558 51.9257 25.8018C51.5837 26.4478 51.4127 27.1825 51.4127 28.0058C51.4127 28.8925 51.6723 29.5892 52.1917 30.0958C52.7237 30.5898 53.4647 30.8368 54.4147 30.8368ZM69.6838 22.1538C70.8365 22.1538 71.7295 22.4452 72.3628 23.0278C73.0088 23.6105 73.3318 24.4338 73.3318 25.4978C73.3318 25.8652 73.2938 26.2578 73.2178 26.6758L72.0968 32.3188H70.2728L71.3938 26.6758C71.4572 26.3338 71.4888 26.0552 71.4888 25.8398C71.4888 25.1812 71.2925 24.6745 70.8998 24.3198C70.5072 23.9652 69.9245 23.7878 69.1518 23.7878C68.1638 23.7878 67.3468 24.0602 66.7008 24.6048C66.0675 25.1368 65.6432 25.9348 65.4278 26.9988L64.3638 32.3188H62.5398L64.5348 22.2488H66.2828L66.0358 23.5408C66.9478 22.6162 68.1638 22.1538 69.6838 22.1538ZM87.1561 22.2488L85.4271 30.9508C85.0724 32.7495 84.4011 34.0605 83.4131 34.8838C82.4378 35.7072 81.1014 36.1188 79.4041 36.1188C78.4541 36.1188 77.5864 35.9922 76.8011 35.7388C76.0158 35.4982 75.3508 35.1498 74.8061 34.6938L75.8131 33.2878C76.2184 33.6552 76.7441 33.9465 77.3901 34.1618C78.0488 34.3898 78.7644 34.5038 79.5371 34.5038C80.7024 34.5038 81.6018 34.2378 82.2351 33.7058C82.8811 33.1738 83.3181 32.3505 83.5461 31.2358L83.6981 30.5138C82.7354 31.4385 81.5194 31.9008 80.0501 31.9008C79.1634 31.9008 78.3781 31.7362 77.6941 31.4068C77.0228 31.0775 76.4971 30.6025 76.1171 29.9818C75.7498 29.3612 75.5661 28.6328 75.5661 27.7968C75.5661 26.7455 75.8068 25.7892 76.2881 24.9278C76.7821 24.0665 77.4661 23.3888 78.3401 22.8948C79.2141 22.4008 80.2021 22.1538 81.3041 22.1538C82.1654 22.1538 82.9254 22.3185 83.5841 22.6478C84.2554 22.9645 84.7494 23.4458 85.0661 24.0918L85.4271 22.2488H87.1561ZM80.4111 30.3048C81.1711 30.3048 81.8488 30.1402 82.4441 29.8108C83.0521 29.4688 83.5208 29.0002 83.8501 28.4048C84.1921 27.7968 84.3631 27.1128 84.3631 26.3528C84.3631 25.5422 84.0971 24.9088 83.5651 24.4528C83.0458 23.9842 82.3111 23.7498 81.3611 23.7498C80.6011 23.7498 79.9171 23.9208 79.3091 24.2628C78.7138 24.5922 78.2451 25.0608 77.9031 25.6688C77.5738 26.2642 77.4091 26.9355 77.4091 27.6828C77.4091 28.5062 77.6751 29.1522 78.2071 29.6208C78.7391 30.0768 79.4738 30.3048 80.4111 30.3048ZM90.4133 27.8538V27.9678C90.4133 28.9052 90.6793 29.6208 91.2113 30.1148C91.7433 30.5962 92.5413 30.8368 93.6053 30.8368C94.2259 30.8368 94.8086 30.7355 95.3533 30.5328C95.8979 30.3175 96.3539 30.0325 96.7213 29.6778L97.5003 30.9888C97.0063 31.4448 96.4046 31.7995 95.6953 32.0528C94.9859 32.3062 94.2386 32.4328 93.4533 32.4328C92.4653 32.4328 91.6103 32.2555 90.8883 31.9008C90.1663 31.5462 89.6089 31.0395 89.2163 30.3808C88.8236 29.7222 88.6273 28.9495 88.6273 28.0628C88.6273 26.9355 88.8679 25.9222 89.3493 25.0228C89.8433 24.1235 90.5209 23.4205 91.3823 22.9138C92.2563 22.4072 93.2316 22.1538 94.3083 22.1538C95.6763 22.1538 96.7656 22.5465 97.5763 23.3318C98.3996 24.1045 98.8113 25.1622 98.8113 26.5048C98.8113 26.9102 98.7669 27.3598 98.6783 27.8538H90.4133ZM94.2323 23.6738C93.3329 23.6738 92.5603 23.9272 91.9143 24.4338C91.2683 24.9405 90.8313 25.6372 90.6033 26.5238H97.1013C97.1519 25.6245 96.9113 24.9278 96.3793 24.4338C95.8599 23.9272 95.1443 23.6738 94.2323 23.6738Z" fill="#8BC63E"/>
</svg>
