<svg width="20" height="20" viewBox="0 0 20 20" fill="none" xmlns="http://www.w3.org/2000/svg">
<path d="M9.99963 19.6733C15.3421 19.6733 19.6731 15.3424 19.6731 9.99988C19.6731 4.65737 15.3421 0.326416 9.99963 0.326416C4.65713 0.326416 0.326172 4.65737 0.326172 9.99988C0.326172 15.3424 4.65713 19.6733 9.99963 19.6733Z" fill="#F5B811"/>
<path d="M10.0001 18.2269C14.5435 18.2269 18.2267 14.5437 18.2267 10.0003C18.2267 5.45686 14.5435 1.77368 10.0001 1.77368C5.45662 1.77368 1.77344 5.45686 1.77344 10.0003C1.77344 14.5437 5.45662 18.2269 10.0001 18.2269Z" fill="url(#paint0_linear_9326_14758)"/>
<path d="M9.99928 17.3117C5.96745 17.3117 2.6875 14.0316 2.6875 9.99977C2.6875 5.96794 5.96766 2.68799 9.99928 2.68799C14.0311 2.68799 17.3113 5.96815 17.3113 9.99977C17.3113 14.0318 14.0311 17.3117 9.99928 17.3117ZM9.99928 2.87848C6.07252 2.87848 2.87779 6.07301 2.87779 9.99997C2.87779 13.9269 6.07252 17.1217 9.99928 17.1217C13.926 17.1217 17.1208 13.9269 17.1208 9.99997C17.1208 6.07301 13.9262 2.87848 9.99928 2.87848Z" fill="url(#paint1_linear_9326_14758)"/>
<path d="M9.99985 2.0607C14.4953 2.0607 18.1461 5.66679 18.223 10.1438C18.2238 10.0958 18.2267 10.0484 18.2267 10.0003C18.2267 5.45686 14.5434 1.77344 10 1.77344C5.45666 1.77344 1.77344 5.45666 1.77344 10.0003C1.77344 10.0484 1.77627 10.0958 1.77708 10.1438C1.85381 5.66679 5.50464 2.0607 9.99985 2.0607Z" fill="url(#paint2_linear_9326_14758)"/>
<path opacity="0.2" d="M18.2227 4.90531C17.9733 4.50346 17.6949 4.12146 17.3908 3.76172L5.75977 18.696C6.18125 18.9019 6.61994 19.078 7.0728 19.2218L18.2227 4.90531Z" fill="url(#paint3_linear_9326_14758)"/>
<path opacity="0.2" d="M19.1716 6.92354C19.087 6.6711 18.9939 6.4229 18.8894 6.18018L8.47461 19.5529C8.73475 19.5941 8.99894 19.6231 9.26555 19.6431L19.1716 6.92354Z" fill="url(#paint4_linear_9326_14758)"/>
<path fill-rule="evenodd" clip-rule="evenodd" d="M10.034 10.0693C9.39387 10.0693 8.79909 10.2634 8.30493 10.5957L9.77181 11.5166V12.0259C9.85618 12.0066 9.94376 11.9955 10.034 11.9955C10.683 11.9955 11.2096 12.5219 11.2096 13.1714C11.2096 13.8206 10.683 14.3471 10.034 14.3471C9.38472 14.3471 8.85846 13.8206 8.85846 13.1714C8.85846 12.8305 9.00432 12.5244 9.23607 12.3096C8.56683 12.1732 7.959 11.8687 7.45858 11.4417C7.12586 11.9359 6.93164 12.531 6.93164 13.1714C6.93164 14.8846 8.32068 16.2736 10.034 16.2736C11.7473 16.2736 13.1362 14.8846 13.1362 13.1714C13.1362 11.4583 11.7473 10.0693 10.034 10.0693Z" fill="#D47922"/>
<path fill-rule="evenodd" clip-rule="evenodd" d="M13.6174 8.42108C13.6174 10.3995 12.0135 12.003 10.0352 12.003C8.05697 12.003 6.45312 10.3995 6.45312 8.42108C6.45312 6.44282 8.05697 4.83887 10.0352 4.83887C12.0135 4.83887 13.6174 6.44282 13.6174 8.42108Z" fill="#D47922"/>
<path fill-rule="evenodd" clip-rule="evenodd" d="M13.0048 5.7878C13.4239 5.77349 13.761 5.26035 13.761 4.83887H11.748C12.2286 5.06918 12.655 5.39368 13.0048 5.7878Z" fill="#D47922"/>
<path fill-rule="evenodd" clip-rule="evenodd" d="M9.85233 9.88672C9.21223 9.88672 8.61744 10.0808 8.12329 10.4131L9.59017 11.334V11.8433C9.67454 11.824 9.76212 11.8129 9.85233 11.8129C10.5014 11.8129 11.028 12.3393 11.028 12.9888C11.028 13.638 10.5014 14.1644 9.85233 14.1644C9.20308 14.1644 8.67682 13.638 8.67682 12.9888C8.67682 12.6479 8.82268 12.3418 9.05443 12.127C8.38519 11.9906 7.77736 11.6861 7.27694 11.2591C6.94422 11.7533 6.75 12.3484 6.75 12.9888C6.75 14.702 8.13904 16.0909 9.85233 16.0909C11.5656 16.0909 12.9546 14.702 12.9546 12.9888C12.9546 11.2757 11.5656 9.88672 9.85233 9.88672Z" fill="#FBF6EF" fill-opacity="0.7"/>
<path fill-rule="evenodd" clip-rule="evenodd" d="M13.4357 8.23846C13.4357 10.2169 11.8319 11.8203 9.85357 11.8203C7.87533 11.8203 6.27148 10.2169 6.27148 8.23846C6.27148 6.2602 7.87533 4.65625 9.85357 4.65625C11.8319 4.65625 13.4357 6.2602 13.4357 8.23846Z" fill="#FBF6EF" fill-opacity="0.7"/>
<path fill-rule="evenodd" clip-rule="evenodd" d="M12.8231 5.60519C13.2423 5.59087 13.5794 5.07774 13.5794 4.65625H11.5664C12.0469 4.88656 12.4734 5.21106 12.8231 5.60519Z" fill="#FBF6EF"/>
<defs>
<linearGradient id="paint0_linear_9326_14758" x1="10.0002" y1="-1.33529" x2="10.0002" y2="19.7075" gradientUnits="userSpaceOnUse">
<stop stop-color="#F07D11"/>
<stop offset="0.5066" stop-color="#F5B811"/>
<stop offset="1" stop-color="#F07D11"/>
</linearGradient>
<linearGradient id="paint1_linear_9326_14758" x1="9.99938" y1="2.63444" x2="9.99938" y2="17.3719" gradientUnits="userSpaceOnUse">
<stop stop-color="#F5B64B"/>
<stop offset="0.5002" stop-color="#F5C889"/>
<stop offset="1" stop-color="#F5B64B"/>
</linearGradient>
<linearGradient id="paint2_linear_9326_14758" x1="9.99995" y1="3.28179" x2="9.99995" y2="13.9868" gradientUnits="userSpaceOnUse">
<stop stop-color="#F07D11"/>
<stop offset="0.5066" stop-color="#F5B811"/>
<stop offset="1" stop-color="#F07D11"/>
</linearGradient>
<linearGradient id="paint3_linear_9326_14758" x1="16.1226" y1="7.30007" x2="6.20844" y2="17.9813" gradientUnits="userSpaceOnUse">
<stop stop-color="white"/>
<stop offset="1" stop-color="#FEFAF3" stop-opacity="0"/>
</linearGradient>
<linearGradient id="paint4_linear_9326_14758" x1="17.5557" y1="9.16443" x2="8.67833" y2="18.7287" gradientUnits="userSpaceOnUse">
<stop stop-color="white"/>
<stop offset="1" stop-color="#FEFAF3" stop-opacity="0"/>
</linearGradient>
</defs>
</svg>
