<svg width="130" height="130" viewBox="0 0 130 130" fill="none" xmlns="http://www.w3.org/2000/svg">
<circle cx="65" cy="65" r="65" fill="#8BC63E" fill-opacity="0.2"/>
<circle cx="65.0001" cy="65.0001" r="53.1818" fill="#8BC63E" fill-opacity="0.2"/>
<path d="M103.124 95.7086C98.4183 92.1227 90.3552 83.2512 100.968 69.3221C114.088 52.0767 98.3769 45.0085 83.3285 45.7547C71.2235 46.3558 57.5846 31.1209 43.9872 33.8362C25.9334 37.4429 37.6653 52.9887 25.4152 61.3627C14.9684 68.5138 19.4456 90.2779 33.0223 95.7086H103.124Z" fill="#DCEDF9"/>
<path d="M111.622 64.0987C111.539 61.5492 109.176 60.5543 107.58 62.399C106.668 63.4561 105.797 64.99 105.631 67.0213C105.258 71.5814 109.259 70.2548 110.751 67.809C111.394 66.7933 111.663 65.4045 111.622 64.0987Z" fill="#DCEDF9"/>
<path d="M67.7618 32.9241C65.2538 32.4473 63.7821 34.5616 65.233 36.51C66.0829 37.6293 67.368 38.8108 69.3371 39.3911C73.7107 40.7177 73.2754 36.5514 71.2026 34.5616C70.3113 33.7325 69.0262 33.1728 67.7618 32.9241Z" fill="#DCEDF9"/>
<path d="M26.2235 56.3465C27.2391 54.0043 25.4773 52.0973 23.2594 53.113C21.995 53.6933 20.5648 54.709 19.5491 56.4916C17.3105 60.4713 21.4768 60.9481 23.8605 59.352C24.8969 58.6887 25.726 57.5487 26.2235 56.3465Z" fill="#DCEDF9"/>
<path d="M66.2695 99.2531C90.0577 99.2531 109.342 97.9818 109.342 96.4134C109.342 94.8451 90.0577 93.5737 66.2695 93.5737C42.4814 93.5737 23.1973 94.8451 23.1973 96.4134C23.1973 97.9818 42.4814 99.2531 66.2695 99.2531Z" fill="#DCEDF9"/>
<path d="M108.16 73.1566C105.528 75.7891 108.471 76.0171 106.523 78.0069C104.761 79.831 102.149 78.0484 102.336 82.4841C102.377 83.4583 101.672 84.1631 100.678 84.5362C99.04 85.1373 97.4647 84.5776 96.4698 83.4583C96.3869 83.3754 96.304 83.2718 96.2418 83.1681C95.4956 82.1525 95.2261 80.7844 95.7858 79.4164C96.2418 78.3178 97.0294 77.2193 98.4389 76.784C101.735 75.7683 99.9106 71.3948 102.688 71.2082C106.046 70.9802 106.17 69.7365 108.554 68.0783C111.083 66.3372 111.746 69.5915 108.16 73.1566Z" fill="#0077EB"/>
<path d="M106.979 71.7055C106.896 71.7884 100.781 78.0897 96.4698 83.4581C96.3869 83.3752 96.304 83.2716 96.2418 83.168C100.574 77.7787 106.647 71.519 106.709 71.436C106.772 71.3739 106.896 71.3739 106.958 71.436C107.041 71.5397 107.062 71.6433 106.979 71.7055Z" fill="#0059D3"/>
<path d="M108.844 81.9451C104.719 84.3703 108.305 85.5932 105.258 87.4587C102.481 89.1584 99.807 86.1114 98.6048 91.6872C98.3353 92.9101 97.2367 93.5734 95.8894 93.7185C93.6716 93.9465 91.8683 92.7443 90.9977 91.0446C90.9355 90.8995 90.8733 90.7752 90.8111 90.6301C90.21 89.1169 90.3137 87.3136 91.4537 85.8005C92.3657 84.5568 93.713 83.4583 95.5993 83.3754C100.035 83.1681 99.1644 77.1363 102.688 77.7996C106.937 78.5872 107.497 77.0948 111 75.789C114.669 74.4002 114.441 78.6494 108.844 81.9451Z" fill="#008EFF"/>
<path d="M107.829 79.7688C107.704 79.831 98.066 85.7176 90.9771 91.0239C90.9149 90.8788 90.8527 90.7545 90.7905 90.6094C97.9001 85.3031 107.497 79.4579 107.601 79.3957C107.704 79.3335 107.849 79.3749 107.912 79.4786C107.974 79.5822 107.932 79.7066 107.829 79.7688Z" fill="#0077EB"/>
<path d="M28.2757 43.0393C29.6852 46.4801 26.8869 45.5681 27.9026 48.1383C28.8353 50.5013 31.903 49.8587 30.0375 53.8799C29.623 54.7504 29.9961 55.7039 30.7837 56.4087C32.0481 57.5901 33.7478 57.6938 35.0744 57.0512C35.178 56.989 35.2817 56.9476 35.3853 56.8854C36.4631 56.2428 37.2508 55.0614 37.2715 53.5897C37.2923 52.3875 36.9813 51.0816 35.8413 50.1489C33.1882 47.931 36.5668 44.6146 34.0587 43.3709C31.0532 41.8578 31.4056 40.6763 29.851 38.2304C28.2135 35.6187 26.3687 38.3755 28.2757 43.0393Z" fill="#0077EB"/>
<path d="M29.9337 42.1682C29.9752 42.2718 33.188 50.4386 35.0949 57.0715C35.1986 57.0093 35.3022 56.9678 35.4059 56.9056C33.4782 50.2728 30.3068 42.1475 30.2654 42.0438C30.2239 41.9609 30.1203 41.8987 30.0374 41.9402C29.9337 41.9817 29.8923 42.0853 29.9337 42.1682Z" fill="#0059D3"/>
<path d="M24.2544 52.0559C27.2392 55.8076 23.4461 55.6625 25.6432 58.4815C27.6331 61.0517 31.219 59.1655 30.3484 64.8035C30.1619 66.0264 30.9495 67.0628 32.1724 67.6639C34.1623 68.6795 36.2765 68.1821 37.7068 66.897C37.8311 66.7933 37.9348 66.6897 38.0384 66.5653C39.137 65.3838 39.6759 63.6634 39.1784 61.8394C38.7639 60.3677 37.914 58.8546 36.1729 58.0877C32.1103 56.3051 35.0743 50.9988 31.5506 50.3562C27.2807 49.5686 27.3221 47.9932 24.5032 45.5266C21.4977 42.9149 20.1918 46.9776 24.2544 52.0559Z" fill="#008EFF"/>
<path d="M25.9542 50.377C26.0371 50.4806 32.9394 59.4143 37.6861 66.9177C37.8104 66.8141 37.9141 66.7104 38.0177 66.5861C33.2711 59.0826 26.4102 50.2111 26.3273 50.1075C26.2444 50.0039 26.0993 49.9831 26.0164 50.0661C25.9127 50.1282 25.892 50.2733 25.9542 50.377Z" fill="#0077EB"/>
<path d="M44.4018 48.781C45.604 47.9519 48.6302 49.9832 50.2055 52.4705L48.8168 48.553C48.3193 48.1177 47.428 47.4959 46.0393 46.9984C43.8836 46.2315 41.7279 45.0293 42.9301 44.2209C44.0701 43.454 46.7855 45.1951 48.4229 47.4544L46.6196 42.4176C46.288 42.1689 45.7698 41.8579 45.0443 41.5885C43.6763 41.1117 42.329 40.3448 43.0959 39.8266C43.7592 39.3706 45.2723 40.2826 46.3087 41.547L45.7283 39.9095C45.4589 39.4328 45.0858 38.7488 44.4847 38.1477C43.0959 36.7175 42.0595 35.1007 43.1166 34.8727C44.1945 34.6447 45.9356 37.4429 46.2051 39.9717L46.4953 40.8008C46.2673 38.9561 46.9305 36.7175 47.8426 36.6553C48.7546 36.5724 48.1949 38.0233 47.4487 39.2462C46.8891 40.179 46.7233 40.9252 46.6818 41.319L48.0913 45.278C47.7389 42.3554 48.7753 38.8317 50.247 38.7073C51.6979 38.583 50.7859 40.8837 49.6044 42.8321C48.7131 44.3038 48.4644 45.4853 48.3815 46.1071L50.0812 50.8538C49.7703 47.9726 50.8066 44.4696 52.2576 44.4489C53.3769 44.4489 53.0245 46.0035 51.6979 48.2214C50.8066 49.7345 50.5164 51.0818 50.4128 51.7865L51.2212 54.0251C51.0968 54.1288 50.9517 54.1702 50.8066 54.1702L50.4957 53.2789C50.0397 52.8436 49.107 52.0974 47.5109 51.5378C45.3552 50.8123 43.1996 49.6101 44.4018 48.781Z" fill="#008EFF"/>
<path d="M33.8099 82.0074C32.5662 82.7744 33.2502 86.3603 34.8877 88.7854L31.8408 85.9457C31.6335 85.3032 31.4262 84.246 31.5298 82.7744C31.6957 80.4943 31.4469 78.0277 30.2033 78.8154C29.0425 79.5408 29.5607 82.7329 30.9909 85.1373L27.0941 81.4893C26.9905 81.0747 26.9075 80.4943 26.949 79.7274C27.0526 78.2972 26.8868 76.7426 26.1199 77.2401C25.4359 77.6753 25.6639 79.4165 26.4308 80.8881L25.1664 79.7067C24.8348 79.2714 24.358 78.6495 24.0471 77.8619C23.2802 76.0171 22.2231 74.4211 21.5805 75.3124C20.938 76.2037 22.8242 78.919 25.042 80.1834L25.6846 80.7845C24.0886 79.831 21.7671 79.5616 21.3318 80.37C20.8965 81.1783 22.4511 81.2198 23.8813 81.0332C24.9591 80.8881 25.7053 81.0332 26.0784 81.1576L29.1461 84.0388C26.6174 82.5464 22.9693 82.1111 22.2645 83.3962C21.5805 84.6813 24.0471 84.7642 26.3064 84.4533C28.0268 84.2253 29.1876 84.4533 29.7887 84.6399L33.4782 88.0807C30.9495 86.6505 27.3221 86.2152 26.7417 87.521C26.2857 88.5367 27.861 88.8476 30.4313 88.516C32.1724 88.288 33.5197 88.5574 34.2037 88.7647L35.9448 90.3815C36.0899 90.2985 36.1936 90.1949 36.235 90.0705L35.551 89.428C35.323 88.8476 35.0328 87.6869 35.1365 85.9872C35.2816 83.6864 35.0536 81.2198 33.8099 82.0074Z" fill="#008EFF"/>
<path d="M96.1589 49.9624H30.2239V95.5013H96.1589V49.9624Z" fill="#FFAA01"/>
<path d="M96.1589 49.9624V52.885L63.181 82.0904L30.2239 52.885V49.9624L63.181 79.2714L96.1589 49.9624Z" fill="#F88800"/>
<path d="M56.8383 73.5304L32.1308 95.5018H30.2239V94.341L55.4081 71.9343L56.8383 73.5304Z" fill="#F88800"/>
<path d="M96.1589 94.5068V95.5018H94.0654L69.3579 73.5304L70.7881 71.9343L96.1589 94.5068Z" fill="#F88800"/>
<path d="M30.2239 49.9624L63.181 79.2714L96.1589 49.9624H30.2239Z" fill="#FDCC50"/>
<path d="M48.2157 81.9457H31.7993C32.0688 80.3082 33.3746 79.106 34.9085 79.106L40.0075 79.1267L45.1065 79.106C46.6404 79.106 47.9462 80.2874 48.2157 81.9457Z" fill="white"/>
<path d="M33.9756 81.697H33.0844V96.9941H33.9756V81.697Z" fill="white"/>
<path d="M46.9097 81.6968H46.0184V96.9939H46.9097V81.6968Z" fill="white"/>
<path d="M46.039 85.9875H33.9962V86.8581H46.039V85.9875Z" fill="#DCEDF9"/>
<path d="M35.9863 61.342C35.9863 61.342 33.2503 64.9901 32.8772 68.1822C32.6284 70.4415 35.9863 73.7994 35.9863 73.7994L37.1471 73.219L35.9863 70.6074C35.5718 69.343 35.0743 68.8455 35.4474 67.5604L36.2765 65.7571L35.9863 61.342Z" fill="#0077EB"/>
<path d="M44.6299 61.28C44.6299 61.28 47.3245 65.1768 47.5525 68.3689C47.7391 71.1257 44.4433 73.7789 44.4433 73.7789L43.4899 73.3021L44.8164 70.6697C45.231 69.4053 45.4176 68.6384 44.8579 67.2496L44.1532 65.7365L44.6299 61.28Z" fill="#0077EB"/>
<path d="M36.5458 69.6748L34.7218 75.4579C34.7218 75.4579 42.5776 76.4528 44.982 75.8102L43.7591 69.509L44.6089 61.3008C43.4275 60.8033 42.1838 60.4924 40.9194 60.3888C39.0539 60.2644 37.8931 60.5546 35.9862 61.3423L36.5458 69.6748Z" fill="#008EFF"/>
<path d="M38.515 63.0833C40.2561 62.876 41.8729 61.6945 41.9351 61.6323C41.9765 61.5909 41.9765 61.5494 41.9558 61.4872C41.9143 61.4458 41.8729 61.4458 41.8107 61.4665C41.79 61.4872 39.883 62.876 38.059 62.8967C37.9968 62.8967 37.9553 62.9382 37.9553 63.0003C37.9553 63.0625 37.9968 63.104 38.059 63.104C38.2248 63.104 38.3699 63.104 38.515 63.0833Z" fill="#0077EB"/>
<path d="M39.9038 94.0503L40.0489 95.3147L41.4169 95.3561L41.5206 94.299L39.9038 94.0503Z" fill="#F9AF8B"/>
<path d="M39.6964 73.82C39.6964 73.82 36.1727 73.6334 34.9912 74.6076C33.8098 75.5818 34.0378 78.3801 35.2607 79.147C36.4836 79.9139 38.5357 81.4063 38.5357 81.4063L39.8415 94.4855L41.5827 94.5477C41.5827 94.5477 43.1787 81.4271 42.3703 78.8775C41.5619 76.3073 39.6964 73.82 39.6964 73.82Z" fill="#001030"/>
<path d="M41.7486 93.864C41.8523 94.1749 41.7901 94.4651 41.7072 94.7553L39.7173 94.7138C39.6551 94.4236 39.6344 94.1335 39.6759 93.8433L41.7486 93.864Z" fill="#2E3052"/>
<path d="M44.6713 73.7166H35.4474L34.5976 68.742C34.5147 68.3067 34.8463 67.9128 35.3023 67.9128H44.8371C45.2724 67.9128 45.604 68.3067 45.5418 68.742L44.6713 73.7166Z" fill="white"/>
<path d="M43.925 74.7946H36.1936C35.779 74.7946 35.4474 74.463 35.4474 74.0484V73.7168H44.6712V74.0484C44.6712 74.463 44.3396 74.7946 43.925 74.7946Z" fill="#DCEDF9"/>
<path d="M40.0905 71.8306C40.5369 71.8306 40.8989 71.4687 40.8989 71.0222C40.8989 70.5758 40.5369 70.2139 40.0905 70.2139C39.644 70.2139 39.2821 70.5758 39.2821 71.0222C39.2821 71.4687 39.644 71.8306 40.0905 71.8306Z" fill="#DCEDF9"/>
<path d="M34.1414 90.4646L33.8512 91.729L35.0741 91.957L35.5509 90.8377L34.1414 90.4646Z" fill="#F9AF8B"/>
<path d="M41.479 73.592C41.479 73.592 39.116 72.7836 37.748 74.4833C36.3593 76.183 34.0585 90.568 34.0585 90.568L35.6338 91.2313L40.7328 78.463C40.7328 78.463 44.8784 80.826 45.3758 77.4681C45.7904 74.7942 41.479 73.592 41.479 73.592Z" fill="#2E3052"/>
<path d="M36.007 90.5683C36.007 90.8999 35.8619 91.1694 35.6753 91.4389L33.7269 90.7548C33.7477 90.4439 33.8306 90.1537 33.9757 89.8843L36.007 90.5683Z" fill="#524E84"/>
<path d="M34.784 91.5215C34.784 91.5215 34.0378 91.1484 33.8306 91.107C33.6233 91.0655 31.82 92.3299 31.3018 92.3299C30.3898 92.3092 30.0788 93.6565 30.6178 93.843C32.1309 94.3819 34.9291 94.3198 34.9291 94.3198C34.9291 94.3198 35.551 92.6408 35.5717 92.0604C35.5717 91.4801 35.1779 91.7702 34.784 91.5215Z" fill="#008EFF"/>
<path d="M33.1674 92.724C33.1881 92.7447 33.2296 92.7447 33.2503 92.724C33.3125 92.7032 33.3332 92.6411 33.3125 92.5789C33.3125 92.5581 33.1259 92.1229 32.815 91.9156C32.4212 91.6461 32.0481 91.8327 32.0274 91.8327C31.9652 91.8534 31.9445 91.9363 31.9859 91.9778C32.0067 92.04 32.0896 92.0399 32.131 92.0192C32.131 92.0192 32.4005 91.8949 32.6699 92.0814C32.9187 92.2472 33.0845 92.6411 33.0845 92.6411C33.126 92.6825 33.1467 92.7032 33.1674 92.724Z" fill="white"/>
<path d="M33.5405 92.4544C33.5612 92.4752 33.6026 92.4752 33.6234 92.4544C33.6855 92.4337 33.7063 92.3715 33.6855 92.3093C33.6855 92.2886 33.499 91.8533 33.1881 91.646C32.7943 91.3766 32.4212 91.5631 32.4004 91.5631C32.3382 91.5839 32.3175 91.6668 32.359 91.7082C32.3797 91.7704 32.4626 91.7704 32.5041 91.7497C32.5041 91.7497 32.7735 91.6253 33.043 91.8119C33.2917 91.9777 33.4575 92.3715 33.4575 92.3715C33.4783 92.4337 33.499 92.4544 33.5405 92.4544Z" fill="white"/>
<path d="M32.6906 92.89C32.7113 92.9107 32.7528 92.9107 32.7735 92.89C32.8357 92.8692 32.8564 92.8071 32.8357 92.7449C32.8357 92.7242 32.6491 92.2889 32.3382 92.0816C31.9444 91.8121 31.5713 91.9987 31.5506 91.9987C31.4884 92.0194 31.4677 92.1023 31.5091 92.1438C31.5298 92.206 31.6128 92.206 31.6542 92.1852C31.6542 92.1852 31.9237 92.0609 32.1931 92.2474C32.4419 92.4132 32.6077 92.8071 32.6077 92.8071C32.6491 92.8693 32.6699 92.89 32.6906 92.89Z" fill="white"/>
<path d="M40.567 95.2734C40.567 95.2734 41.3132 95.0454 41.5412 95.0454C41.7485 95.0454 43.2202 96.5378 43.6969 96.6C44.5675 96.7244 44.6089 98.0509 44.0907 98.1338C42.5776 98.3826 39.9452 97.8644 39.9452 97.8644C39.9452 97.8644 39.6343 96.1854 39.7172 95.6465C39.8415 95.1076 40.1525 95.4392 40.567 95.2734Z" fill="#008EFF"/>
<path d="M41.8937 96.6621C41.873 96.6621 41.8315 96.6621 41.8108 96.6414C41.7694 96.6207 41.7486 96.5378 41.7694 96.4963C41.7694 96.4756 42.0181 96.1025 42.329 95.9574C42.7436 95.7709 43.0545 95.9989 43.0752 96.0196C43.1167 96.061 43.1374 96.1232 43.0959 96.1647C43.0545 96.2061 42.9923 96.2269 42.9508 96.1854C42.9508 96.1854 42.7228 96.0196 42.4326 96.144C42.1839 96.2683 41.9559 96.6 41.9559 96.6C41.9352 96.6414 41.9145 96.6621 41.8937 96.6621Z" fill="white"/>
<path d="M41.5828 96.3719C41.5621 96.3719 41.5206 96.3719 41.4999 96.3511C41.4584 96.3304 41.4377 96.2475 41.4584 96.206C41.4584 96.1853 41.7072 95.8122 42.0181 95.6671C42.4327 95.4806 42.7436 95.7086 42.7643 95.7293C42.8058 95.7708 42.8265 95.8329 42.785 95.8744C42.7436 95.9159 42.6814 95.9366 42.6399 95.8951C42.6399 95.8951 42.4119 95.7293 42.1217 95.8537C41.873 95.978 41.645 96.3097 41.645 96.3097C41.645 96.3511 41.6035 96.3511 41.5828 96.3719Z" fill="white"/>
<path d="M42.3084 96.9109C42.2877 96.9109 42.2462 96.9109 42.2255 96.8902C42.184 96.8695 42.1633 96.7866 42.184 96.7451C42.184 96.7244 42.4328 96.3513 42.7437 96.2062C43.1582 96.0196 43.4692 96.2476 43.4899 96.2684C43.5313 96.3098 43.5521 96.372 43.5106 96.4135C43.4692 96.4549 43.407 96.4756 43.3655 96.4342C43.3655 96.4342 43.1375 96.2684 42.8473 96.3927C42.5986 96.5171 42.3706 96.8487 42.3706 96.8487C42.3499 96.8902 42.3291 96.9109 42.3084 96.9109Z" fill="white"/>
<path d="M42.6192 53.0928C42.6192 53.0928 43.7385 54.8339 43.6141 56.6372C43.4898 58.4405 43.78 60.534 42.1632 60.4304C40.5464 60.3475 37.6653 61.073 36.7532 59.6635C35.8412 58.2747 42.6192 53.0928 42.6192 53.0928Z" fill="#2E3052"/>
<path d="M43.0337 56.2844C43.0337 56.2844 43.3239 58.8961 42.0803 59.6215C40.8366 60.347 39.9453 59.5386 39.9453 59.5386C39.9453 59.5386 42.5777 55.8905 43.0337 56.2844Z" fill="#000B29"/>
<path d="M37.8934 56.2641C37.8934 56.2641 37.4581 55.663 37.1265 56.1605C36.7948 56.6579 37.2716 58.1089 38.08 57.7565L37.8934 56.2641Z" fill="#FC8664"/>
<path d="M37.8725 57.3209C37.8518 57.3209 37.8104 57.3002 37.8104 57.2795C37.686 56.8235 37.23 56.6576 37.2093 56.6576C37.1678 56.6369 37.1471 56.5955 37.1678 56.5747C37.1885 56.5333 37.23 56.5126 37.2507 56.5333C37.2714 56.5333 37.7896 56.7406 37.9347 57.2587C37.9555 57.2587 37.9347 57.3002 37.8725 57.3209C37.8933 57.3209 37.8933 57.3002 37.8725 57.3209Z" fill="#FD664D"/>
<path d="M37.4165 57.0932C37.3958 57.0932 37.3958 57.0932 37.375 57.0725C37.3336 57.0517 37.3336 57.0103 37.3543 56.9688C37.3543 56.9688 37.4372 56.8445 37.603 56.7615C37.6445 56.7408 37.686 56.7615 37.686 56.803C37.7067 56.8445 37.686 56.8859 37.6445 56.8859C37.5201 56.9481 37.4372 57.0517 37.4372 57.0517C37.458 57.0725 37.4372 57.0932 37.4165 57.0932Z" fill="#FD664D"/>
<path d="M42.4741 56.2641C42.4741 56.2641 42.9094 55.663 43.2411 56.1605C43.5727 56.6579 43.096 58.1089 42.2876 57.7565L42.4741 56.2641Z" fill="#FC8664"/>
<path d="M42.4948 57.3209C42.5155 57.3209 42.5569 57.3002 42.5569 57.2795C42.6813 56.8235 43.1373 56.6576 43.158 56.6576C43.1995 56.6369 43.2202 56.5955 43.1995 56.5747C43.1788 56.5333 43.1373 56.5126 43.1166 56.5333C43.0959 56.5333 42.5777 56.7406 42.4326 57.2587C42.4118 57.2587 42.4326 57.3002 42.4948 57.3209C42.474 57.3209 42.474 57.3002 42.4948 57.3209Z" fill="#FD664D"/>
<path d="M42.9508 57.0932C42.9715 57.0932 42.9715 57.0932 42.9923 57.0725C43.0337 57.0517 43.0337 57.0103 43.013 56.9688C43.013 56.9688 42.9301 56.8445 42.7643 56.7615C42.7228 56.7408 42.6813 56.7615 42.6813 56.803C42.6606 56.8445 42.6813 56.8859 42.7228 56.8859C42.8472 56.9481 42.9301 57.0517 42.9301 57.0517C42.9094 57.0725 42.9301 57.0932 42.9508 57.0932Z" fill="#FD664D"/>
<path d="M41.2719 58.9998V60.4507C41.2719 60.4507 40.8367 61.1762 40.2563 61.2384C39.6759 61.2798 39.1577 60.5958 39.1577 60.5958V59.1034L41.2719 58.9998Z" fill="#F9AF8B"/>
<path d="M41.2719 58.9998V59.6423C40.8781 60.0776 40.1941 60.2227 39.1577 60.0776V59.1034L41.2719 58.9998Z" fill="#FC8664"/>
<path d="M42.8056 55.2896C42.7849 55.8492 42.7227 56.554 42.619 57.1136C42.5983 57.2587 42.5569 57.3831 42.5361 57.5074C42.2252 58.5645 41.479 60.3886 39.3441 59.6424C38.4113 59.3107 37.976 58.2536 37.7688 57.1965C37.6444 56.471 37.6237 55.7456 37.6237 55.2274C37.6237 54.6885 37.9346 54.2117 38.3906 53.9423C39.655 53.2375 40.9608 53.4862 41.8521 53.8386C42.4532 54.0459 42.8263 54.647 42.8056 55.2896Z" fill="#F9AF8B"/>
<path d="M39.0747 56.7613C39.1778 56.7613 39.2613 56.6407 39.2613 56.4919C39.2613 56.3431 39.1778 56.2224 39.0747 56.2224C38.9717 56.2224 38.8882 56.3431 38.8882 56.4919C38.8882 56.6407 38.9717 56.7613 39.0747 56.7613Z" fill="#2E3052"/>
<path d="M41.251 56.7613C41.354 56.7613 41.4376 56.6407 41.4376 56.4919C41.4376 56.3431 41.354 56.2224 41.251 56.2224C41.148 56.2224 41.0645 56.3431 41.0645 56.4919C41.0645 56.6407 41.148 56.7613 41.251 56.7613Z" fill="#2E3052"/>
<path d="M38.7223 55.559C38.8674 55.5175 39.1576 55.4553 39.4892 55.4553C39.5722 55.4553 39.6343 55.5382 39.6136 55.6004C39.5929 55.6626 39.5514 55.7041 39.4685 55.7041C39.2612 55.7041 38.7016 55.7248 38.4321 55.8284C38.4321 55.787 38.4529 55.7248 38.4943 55.6833C38.5565 55.6419 38.6394 55.6004 38.7223 55.559Z" fill="#2E3052"/>
<path d="M41.5828 55.5795C41.4377 55.538 41.1475 55.4758 40.8159 55.4758C40.733 55.4758 40.6708 55.5587 40.6915 55.6209C40.7122 55.6831 40.7537 55.7246 40.8366 55.7246C41.0439 55.7246 41.6035 55.7453 41.873 55.8489C41.873 55.8075 41.8523 55.7453 41.8108 55.7038C41.7486 55.6417 41.6657 55.6002 41.5828 55.5795Z" fill="#2E3052"/>
<path d="M40.2146 57.632C40.1524 57.632 40.111 57.632 40.0695 57.5905C40.0281 57.5698 39.9866 57.5283 39.9659 57.4247C39.9452 57.176 40.0074 56.3883 40.0074 56.3469C40.0074 56.3054 40.0488 56.2847 40.0903 56.2847C40.1317 56.2847 40.1525 56.3261 40.1525 56.3676C40.1525 56.3676 40.0903 57.176 40.111 57.4247C40.111 57.4661 40.1317 57.4869 40.1525 57.4869C40.2146 57.5283 40.3597 57.4869 40.4219 57.4662C40.4634 57.4454 40.5048 57.4662 40.5048 57.5076C40.5255 57.5491 40.5048 57.5905 40.4634 57.5905C40.4426 57.5905 40.3183 57.632 40.2146 57.632Z" fill="#FC8664"/>
<path d="M39.3442 58.0671C39.4064 58.3366 39.5722 58.8133 40.1526 58.8133C40.733 58.8133 40.8988 58.3781 40.961 58.0671H39.3442Z" fill="white"/>
<path d="M40.1317 59.207C39.9659 59.207 39.8208 59.124 39.8001 59.1033C39.7586 59.0826 39.7586 59.0411 39.7794 58.9997C39.8001 58.9582 39.8415 58.9582 39.883 58.9789C39.883 58.9789 40.0074 59.0619 40.1317 59.0619C40.2768 59.0619 40.4012 58.9789 40.4012 58.9789C40.4427 58.9582 40.4841 58.9789 40.5048 58.9997C40.5256 59.0411 40.5048 59.0826 40.4841 59.1033C40.4634 59.124 40.3183 59.207 40.1317 59.207Z" fill="#FC8664"/>
<path d="M43.0751 55.1653C43.0544 55.2275 42.9922 55.2689 42.9093 55.2897C42.9093 55.4347 42.9093 55.6213 42.8885 55.7871C42.8056 56.782 42.5569 56.9479 42.4947 56.6991C42.4532 56.5333 42.4533 55.6006 42.474 55.2897C42.2874 55.2689 42.1009 55.2482 42.1009 55.2482L41.8729 54.2947L41.79 55.2482C41.4376 55.3726 40.6499 55.186 40.6499 55.186L40.3805 54.2325L40.2147 55.1446C39.6965 55.3933 39.0539 55.2275 39.0539 55.2275L38.9088 54.2533L38.5564 55.2275C38.5564 55.2275 37.4579 55.6213 37.4371 55.2275C37.4371 54.9995 37.603 54.3569 37.7481 53.8387C37.8931 53.2998 38.2662 52.823 38.743 52.5743C40.111 51.8488 41.562 52.2219 42.0594 52.5329C43.1165 53.1754 43.0751 55.1653 43.0751 55.1653Z" fill="#2E3052"/>
<path d="M38.0589 53.1755C38.0589 53.1755 37.1469 54.2534 36.8567 56.1811C36.5665 58.1087 36.152 59.539 37.3127 60.1815C38.5771 60.8655 38.4528 59.456 38.4528 59.0829C38.432 58.6891 37.3542 57.6527 38.0797 54.6887C38.287 53.7145 38.0589 53.1755 38.0589 53.1755Z" fill="#2E3052"/>
<path d="M37.8518 57.1553C37.8518 57.176 37.8518 57.2589 37.8518 57.3626C37.8518 57.4455 37.8518 57.5284 37.8725 57.632C37.914 58.2746 38.0384 59.4146 38.4115 59.7877C38.5565 59.9328 38.8467 60.0157 39.1784 60.0572V59.539C38.826 59.3731 38.5565 59.1037 38.3493 58.772C38.2249 58.4818 37.9969 58.0466 37.8933 57.3418L37.8518 57.1553Z" fill="#000B29"/>
<path d="M42.6607 57.9635C42.7523 57.9635 42.8265 57.8892 42.8265 57.7977C42.8265 57.7061 42.7523 57.6318 42.6607 57.6318C42.5691 57.6318 42.4949 57.7061 42.4949 57.7977C42.4949 57.8892 42.5691 57.9635 42.6607 57.9635Z" fill="white"/>
<path d="M91.205 43.9512H87.2667C86.9558 43.9512 86.7278 43.7024 86.7278 43.4123V39.474C86.7278 39.1631 86.9765 38.9351 87.2667 38.9351H91.205C91.5159 38.9351 91.7439 39.1838 91.7439 39.474V43.4123C91.7646 43.7232 91.5159 43.9512 91.205 43.9512Z" fill="#FFAA01"/>
<path d="M90.9564 41.4435C90.9564 41.8581 90.8113 42.2312 90.5626 42.5421C90.2517 42.9152 89.775 43.164 89.236 43.164C88.6971 43.164 88.2204 42.9152 87.9095 42.5421C87.6607 42.2519 87.5156 41.8581 87.5156 41.4435C87.5156 40.4901 88.2826 39.7231 89.236 39.7231C90.1895 39.7231 90.9564 40.4901 90.9564 41.4435Z" fill="#FDCC50"/>
<path d="M90.5625 42.5418C90.2515 42.9149 89.7748 43.1636 89.2359 43.1636C88.697 43.1636 88.2202 42.9149 87.9093 42.5418L87.93 42.5003C87.9715 42.4174 88.0129 42.3552 88.0751 42.3138C88.1373 42.2516 88.1995 42.2309 88.2824 42.1894C88.5519 42.1065 88.8213 42.0236 88.9664 41.7748C88.7799 41.6919 88.6762 41.5261 88.6141 41.4017C88.4275 41.4432 88.2824 41.0908 88.386 40.9872C88.4275 40.9457 88.469 40.9457 88.5104 40.9457C88.5519 40.5726 88.8421 40.2617 89.2152 40.2617C89.5883 40.2617 89.8992 40.5934 89.9199 40.9457C89.9614 40.9457 90.0028 40.9457 90.0443 40.9872C90.1479 41.0908 90.0028 41.4432 89.8163 41.4017C89.7748 41.5261 89.6297 41.6919 89.5053 41.7541C89.6504 42.0028 89.8784 42.1065 90.1686 42.1894C90.2515 42.2101 90.3137 42.2516 90.3759 42.3138C90.4381 42.3759 90.4795 42.4381 90.521 42.5003L90.5625 42.5418Z" fill="white"/>
<path d="M25.7881 70.7317H21.8498C21.5389 70.7317 21.3109 70.483 21.3109 70.1928V66.2545C21.3109 65.9436 21.5596 65.7156 21.8498 65.7156H25.7881C26.099 65.7156 26.327 65.9643 26.327 66.2545V70.1928C26.3478 70.483 26.099 70.7317 25.7881 70.7317Z" fill="#FFAA01"/>
<path d="M23.9021 66.5446C23.2595 66.5031 22.7206 67.0213 22.7206 67.6431C22.7206 67.8504 22.7828 68.037 22.8657 68.2028C23.0108 68.4515 23.1559 68.7003 23.301 68.949L23.8192 69.8817L24.6068 68.4515C24.6483 68.3686 24.7104 68.2857 24.7519 68.2028C24.8555 68.037 24.9177 67.8297 24.897 67.6224C24.9177 67.0628 24.4617 66.586 23.9021 66.5446ZM23.8192 67.9748C23.5704 67.9748 23.3631 67.7675 23.3631 67.5188C23.3631 67.27 23.5704 67.0628 23.8192 67.0628C24.0679 67.0628 24.2752 67.27 24.2752 67.5188C24.2959 67.7675 24.0886 67.9748 23.8192 67.9748Z" fill="white"/>
<path d="M108.533 45.6096C109.155 45.6096 109.653 46.1071 109.653 46.7289C109.653 47.3508 109.155 47.8482 108.533 47.8482C107.911 47.8482 107.414 47.3508 107.414 46.7289C107.393 46.1278 107.911 45.6096 108.533 45.6096ZM108.533 47.5166C108.969 47.5166 109.3 47.1642 109.3 46.7496C109.3 46.3144 108.948 45.9827 108.533 45.9827C108.098 45.9827 107.766 46.3351 107.766 46.7496C107.746 47.1642 108.098 47.5166 108.533 47.5166Z" fill="#008EFF"/>
<path d="M104.471 41.6714C105.093 41.6714 105.59 42.1689 105.59 42.7907C105.59 43.4125 105.093 43.91 104.471 43.91C103.849 43.91 103.351 43.4125 103.351 42.7907C103.351 42.1689 103.87 41.6714 104.471 41.6714ZM104.471 43.5783C104.906 43.5783 105.238 43.226 105.238 42.8114C105.238 42.3761 104.885 42.0445 104.471 42.0445C104.035 42.0445 103.704 42.3969 103.704 42.8114C103.704 43.226 104.056 43.5783 104.471 43.5783Z" fill="#FFAA01"/>
<path d="M103.082 38.0232C103.186 38.0232 103.268 38.1061 103.268 38.2097V38.9974C103.268 39.101 103.186 39.1839 103.082 39.1839C102.978 39.1839 102.895 39.101 102.895 38.9974V38.2097C102.916 38.1061 102.999 38.0232 103.082 38.0232Z" fill="#008EFF"/>
<path d="M103.082 36.6553C103.186 36.6553 103.268 36.7382 103.268 36.8418V37.6295C103.268 37.7331 103.186 37.816 103.082 37.816C102.978 37.816 102.895 37.7331 102.895 37.6295V36.8418C102.916 36.7382 102.999 36.6553 103.082 36.6553Z" fill="#008EFF"/>
<path d="M102.004 37.7332H102.709C102.812 37.7332 102.895 37.8161 102.895 37.9197C102.895 38.0233 102.812 38.1063 102.709 38.1063H102.004C101.9 38.1063 101.818 38.0233 101.818 37.9197C101.818 37.8161 101.9 37.7332 102.004 37.7332Z" fill="#008EFF"/>
<path d="M103.476 37.7332H104.18C104.284 37.7332 104.367 37.8161 104.367 37.9197C104.367 38.0233 104.284 38.1063 104.18 38.1063H103.476C103.372 38.1063 103.289 38.0233 103.289 37.9197C103.31 37.8161 103.393 37.7332 103.476 37.7332Z" fill="#008EFF"/>
<path d="M109.3 42.376C109.404 42.376 109.487 42.4589 109.487 42.5625V43.3502C109.487 43.4538 109.404 43.5367 109.3 43.5367C109.197 43.5367 109.114 43.4538 109.114 43.3502V42.5625C109.114 42.4589 109.197 42.376 109.3 42.376Z" fill="#FFAA01"/>
<path d="M109.3 41.0081C109.404 41.0081 109.487 41.091 109.487 41.1946V41.9823C109.487 42.0859 109.404 42.1688 109.3 42.1688C109.197 42.1688 109.114 42.0859 109.114 41.9823V41.1946C109.114 41.091 109.197 41.0081 109.3 41.0081Z" fill="#FFAA01"/>
<path d="M108.202 42.0857H108.907C109.01 42.0857 109.093 42.1686 109.093 42.2722C109.093 42.3759 109.01 42.4588 108.907 42.4588H108.202C108.098 42.4588 108.015 42.3759 108.015 42.2722C108.015 42.1686 108.119 42.0857 108.202 42.0857Z" fill="#FFAA01"/>
<path d="M109.694 42.0857H110.399C110.503 42.0857 110.586 42.1686 110.586 42.2722C110.586 42.3759 110.503 42.4588 110.399 42.4588H109.694C109.591 42.4588 109.508 42.3759 109.508 42.2722C109.508 42.1686 109.591 42.0857 109.694 42.0857Z" fill="#FFAA01"/>
<path d="M38.9295 31.2656C39.5513 31.2656 40.0488 31.7631 40.0488 32.3849C40.0488 33.0068 39.5513 33.5042 38.9295 33.5042C38.3076 33.5042 37.8102 33.0068 37.8102 32.3849C37.7894 31.7631 38.3076 31.2656 38.9295 31.2656ZM38.9295 31.618C38.4942 31.618 38.1625 31.9704 38.1625 32.3849C38.1625 32.8202 38.5149 33.1519 38.9295 33.1519C39.3648 33.1519 39.6964 32.7995 39.6964 32.3849C39.6964 31.9704 39.344 31.618 38.9295 31.618Z" fill="#008EFF"/>
<path d="M34.8254 27.5554C35.4472 27.5554 35.9447 28.0529 35.9447 28.6747C35.9447 29.2965 35.4472 29.794 34.8254 29.794C34.2035 29.794 33.7061 29.2965 33.7061 28.6747C33.7061 28.0529 34.2035 27.5554 34.8254 27.5554ZM34.8254 27.9078C34.3901 27.9078 34.0584 28.2602 34.0584 28.6747C34.0584 29.11 34.4108 29.4416 34.8254 29.4416C35.2606 29.4416 35.5923 29.0893 35.5923 28.6747C35.5923 28.2602 35.2606 27.9078 34.8254 27.9078Z" fill="#FFAA01"/>
<path d="M33.3539 33.9815C33.3539 34.0851 33.4368 34.168 33.5404 34.168H34.3281C34.4317 34.168 34.5146 34.0851 34.5146 33.9815C34.5146 33.8778 34.4317 33.7949 34.3281 33.7949H33.5404C33.4161 33.7949 33.3539 33.8778 33.3539 33.9815Z" fill="#008EFF"/>
<path d="M31.9858 33.9822C31.9858 34.0858 32.0688 34.1688 32.1724 34.1688H32.96C33.0637 34.1688 33.1466 34.0858 33.1466 33.9822C33.1466 33.8786 33.0637 33.7957 32.96 33.7957H32.1724C32.0688 33.7957 31.9858 33.8786 31.9858 33.9822Z" fill="#008EFF"/>
<path d="M33.0428 32.8831V33.5878C33.0428 33.6915 33.1258 33.7744 33.2294 33.7744C33.333 33.7744 33.4159 33.6915 33.4159 33.5878V32.8831C33.4159 32.7794 33.333 32.6965 33.2294 32.6965C33.1258 32.7173 33.0428 32.7794 33.0428 32.8831Z" fill="#008EFF"/>
<path d="M33.043 34.3758V35.0805C33.043 35.1841 33.1259 35.2671 33.2295 35.2671C33.3332 35.2671 33.4161 35.1841 33.4161 35.0805V34.3758C33.4161 34.2721 33.3332 34.1892 33.2295 34.1892C33.1259 34.1892 33.043 34.2721 33.043 34.3758Z" fill="#008EFF"/>
<path d="M41.5826 27.908C41.5826 28.0116 41.6656 28.0945 41.7692 28.0945H42.5568C42.6605 28.0945 42.7434 28.0116 42.7434 27.908C42.7434 27.8043 42.6605 27.7214 42.5568 27.7214H41.7692C41.6656 27.7214 41.5826 27.8043 41.5826 27.908Z" fill="#FFAA01"/>
<path d="M40.2146 27.908C40.2146 28.0116 40.2975 28.0945 40.4011 28.0945H41.1888C41.2924 28.0945 41.3754 28.0116 41.3754 27.908C41.3754 27.8043 41.2924 27.7214 41.1888 27.7214H40.4011C40.2975 27.7214 40.2146 27.8043 40.2146 27.908Z" fill="#FFAA01"/>
<path d="M41.2924 26.8091V27.5139C41.2924 27.6175 41.3753 27.7004 41.4789 27.7004C41.5825 27.7004 41.6655 27.6175 41.6655 27.5139V26.8091C41.6655 26.7055 41.5825 26.6226 41.4789 26.6226C41.3753 26.6226 41.2924 26.7262 41.2924 26.8091Z" fill="#FFAA01"/>
<path d="M41.2924 28.3015V29.0063C41.2924 29.1099 41.3753 29.1928 41.4789 29.1928C41.5825 29.1928 41.6655 29.1099 41.6655 29.0063V28.3015C41.6655 28.1979 41.5825 28.115 41.4789 28.115C41.3753 28.115 41.2924 28.1979 41.2924 28.3015Z" fill="#FFAA01"/>
<path d="M88.4484 33.3386C88.4691 33.3386 88.4899 33.3386 88.5313 33.3386C88.8008 33.2764 88.9459 33.2557 88.9459 33.2557C89.0288 33.235 89.0702 33.1728 89.0702 33.0899C89.0495 33.007 88.9873 32.9655 88.9044 32.9862C88.9044 32.9862 88.7386 33.007 88.4691 33.0899C88.3862 33.1106 88.3448 33.1935 88.3655 33.2557C88.3448 33.2764 88.3862 33.3179 88.4484 33.3386Z" fill="#DCEDF9"/>
<path d="M79.8049 39.7226C79.6598 39.9506 79.5354 40.1994 79.4111 40.4481C79.3903 40.5103 79.3074 40.531 79.2452 40.531H79.2245C79.1416 40.4896 79.1209 40.4067 79.1623 40.3445C79.2867 40.0957 79.4318 39.847 79.5769 39.5983C79.6183 39.5361 79.7013 39.5154 79.7842 39.5361C79.8256 39.5775 79.8463 39.6605 79.8049 39.7226Z" fill="#DCEDF9"/>
<path d="M79.0587 41.2151C78.955 41.4638 78.8514 41.7333 78.7477 41.982C78.727 42.0442 78.6441 42.0857 78.5612 42.065C78.5612 42.065 78.5612 42.065 78.5405 42.065C78.4575 42.0442 78.4161 41.9613 78.4575 41.8784C78.5612 41.6089 78.6648 41.3395 78.7685 41.0907C78.7892 41.0286 78.8928 40.9871 78.955 41.0078C79.0587 41.0493 79.1001 41.1322 79.0587 41.2151Z" fill="#DCEDF9"/>
<path d="M77.7942 45.2985C77.732 45.2777 77.6699 45.2155 77.6906 45.1534C77.732 44.8839 77.7735 44.5937 77.815 44.3243C77.8357 44.2413 77.8979 44.1999 77.9808 44.2206C78.0637 44.2413 78.1259 44.3035 78.1051 44.3864C78.0637 44.6559 78.0015 44.9254 77.9808 45.1948C77.9808 45.257 77.8979 45.3192 77.7942 45.2985C77.815 45.2985 77.815 45.2985 77.7942 45.2985Z" fill="#DCEDF9"/>
<path d="M78.3953 42.6039C78.4782 42.6246 78.5197 42.7076 78.499 42.7697C78.4575 42.8941 78.4368 43.0185 78.3953 43.1428C78.3539 43.2879 78.3124 43.433 78.2917 43.5781C78.271 43.661 78.188 43.7025 78.1051 43.6818C78.0222 43.661 77.9808 43.5988 78.0015 43.5159C78.043 43.3708 78.0637 43.2257 78.1051 43.0807C78.1466 42.9563 78.1673 42.8319 78.2088 42.7076C78.2295 42.6246 78.3124 42.5832 78.3953 42.6039Z" fill="#DCEDF9"/>
<path d="M80.2403 39.0179C80.1988 39.0801 80.1366 39.1008 80.0744 39.08C80.0537 39.08 80.0537 39.0801 80.033 39.0593C79.9708 39.0179 79.9501 38.935 79.9915 38.8728C80.1574 38.6448 80.3232 38.396 80.489 38.1888C80.5305 38.1266 80.6341 38.1058 80.6963 38.1473C80.7585 38.1888 80.7792 38.2717 80.7377 38.3339C80.5719 38.5619 80.4061 38.7899 80.2403 39.0179Z" fill="#DCEDF9"/>
<path d="M87.6814 33.5666C87.4119 33.6495 87.1424 33.7531 86.873 33.8568C86.8523 33.8775 86.8108 33.8775 86.7901 33.8568C86.7486 33.8361 86.7072 33.8153 86.6864 33.7739C86.645 33.7117 86.6864 33.6288 86.7693 33.5873C87.0388 33.4837 87.329 33.3801 87.5984 33.2971C87.6814 33.2764 87.7643 33.3179 87.785 33.3801C87.8057 33.463 87.7643 33.5459 87.6814 33.5666Z" fill="#DCEDF9"/>
<path d="M85.2977 34.5824C85.2563 34.6031 85.2148 34.6031 85.1941 34.6031C85.1526 34.6031 85.1112 34.5616 85.0904 34.5409C85.049 34.4787 85.0697 34.3958 85.1526 34.3544C85.4013 34.2093 85.6708 34.0849 85.9403 33.9605C86.0232 33.9191 86.1061 33.9605 86.1475 34.0227C86.189 34.0849 86.1475 34.1678 86.0854 34.2093C85.8159 34.3129 85.5464 34.4373 85.2977 34.5824Z" fill="#DCEDF9"/>
<path d="M82.4786 36.5102C82.4372 36.5516 82.3957 36.5516 82.3335 36.5516C82.3128 36.5516 82.2921 36.5309 82.2714 36.5102C82.2092 36.448 82.2092 36.3651 82.2714 36.3029C82.4786 36.1163 82.7066 35.9298 82.9347 35.7432C82.9968 35.7018 83.1005 35.7018 83.1419 35.764C83.2041 35.8262 83.1834 35.9091 83.1212 35.9505C82.8932 36.1371 82.6859 36.3236 82.4786 36.5102Z" fill="#DCEDF9"/>
<path d="M83.8261 35.4529C83.7846 35.4736 83.7431 35.4943 83.7017 35.4736C83.6602 35.4736 83.6395 35.4529 83.6188 35.4114C83.5773 35.3492 83.5773 35.2663 83.6602 35.2249C83.909 35.059 84.137 34.8932 84.4064 34.7481C84.4686 34.7067 84.5723 34.7274 84.6137 34.7896C84.6552 34.8518 84.6344 34.9347 84.5723 34.9761C84.3028 35.142 84.0541 35.3078 83.8261 35.4529Z" fill="#DCEDF9"/>
<path d="M81.2765 37.6915C81.2351 37.7329 81.1729 37.7537 81.1315 37.7329C81.1107 37.7329 81.09 37.7122 81.0693 37.7122C81.0071 37.6707 81.0071 37.5671 81.0485 37.5256C81.2351 37.3184 81.4424 37.0904 81.6289 36.9038C81.6911 36.8416 81.774 36.8416 81.8362 36.9038C81.8984 36.966 81.8984 37.0489 81.8362 37.1111C81.6496 37.2769 81.4631 37.4842 81.2765 37.6915Z" fill="#DCEDF9"/>
<path d="M88.5934 32.3852L88.2825 30.0637L96.1797 31.183L88.5934 32.3852Z" fill="#008EFF"/>
<path d="M96.1799 31.1829L88.8837 32.9862L88.5106 33.4007L88.5935 32.3851L96.1799 31.1829Z" fill="#0077EB"/>
<path d="M88.5106 33.4006H89.1532L88.8837 32.9861L88.5106 33.4006Z" fill="#0059D3"/>
<path d="M89.7957 32.7582L88.8837 32.9862L90.3553 35.1004L96.1798 31.1829L89.7957 32.7582Z" fill="#008EFF"/>
</svg>
