<svg width="50" height="27" viewBox="0 0 50 27" fill="none" xmlns="http://www.w3.org/2000/svg">
<path d="M1.21872 6.16862H47.8664C48.301 6.16862 48.5287 5.65242 48.2357 5.33149L44.2809 1" stroke="#FB9008" stroke-width="1.5" stroke-linecap="round"/>
<path d="M48.7812 20.1304H2.13356C1.69897 20.1304 1.47129 20.6466 1.76431 20.9676L5.71907 25.2991" stroke="#FB9008" stroke-width="1.5" stroke-linecap="round"/>
<path d="M4.4826 10.876L4.0956 12.811H7.2636L7.1106 13.576H3.9426L3.5376 15.61H7.2186L7.0656 16.393H2.4846L3.7446 10.093H8.1906L8.0376 10.876H4.4826ZM10.8924 13.99L12.2784 16.393H11.3604L10.3344 14.557L8.58843 16.393H7.58043L9.98343 13.927L8.66943 11.623H9.56943L10.5414 13.351L12.1974 11.623H13.1784L10.8924 13.99ZM15.358 16.447C14.902 16.447 14.503 16.363 14.161 16.195C13.819 16.021 13.555 15.781 13.369 15.475C13.183 15.163 13.09 14.8 13.09 14.386C13.09 13.852 13.21 13.372 13.45 12.946C13.69 12.52 14.023 12.187 14.449 11.947C14.875 11.701 15.358 11.578 15.898 11.578C16.84 11.578 17.494 11.923 17.86 12.613L17.131 13.018C16.879 12.562 16.447 12.334 15.835 12.334C15.481 12.334 15.16 12.421 14.872 12.595C14.59 12.763 14.368 13 14.206 13.306C14.044 13.612 13.963 13.96 13.963 14.35C13.963 14.77 14.086 15.1 14.332 15.34C14.584 15.574 14.938 15.691 15.394 15.691C15.682 15.691 15.949 15.634 16.195 15.52C16.447 15.406 16.654 15.238 16.816 15.016L17.446 15.466C17.224 15.772 16.927 16.012 16.555 16.186C16.183 16.36 15.784 16.447 15.358 16.447ZM21.5631 11.578C22.1091 11.578 22.5321 11.716 22.8321 11.992C23.1381 12.268 23.2911 12.658 23.2911 13.162C23.2911 13.336 23.2731 13.522 23.2371 13.72L22.7061 16.393H21.8421L22.3731 13.72C22.4031 13.558 22.4181 13.426 22.4181 13.324C22.4181 13.012 22.3251 12.772 22.1391 12.604C21.9531 12.436 21.6771 12.352 21.3111 12.352C20.8431 12.352 20.4561 12.481 20.1501 12.739C19.8501 12.991 19.6491 13.369 19.5471 13.873L19.0431 16.393H18.1791L19.5111 9.71505H20.3751L19.8801 12.181C20.3061 11.779 20.8671 11.578 21.5631 11.578ZM29.7675 11.623L28.8225 16.393H27.9945L28.1115 15.808C27.8955 16.012 27.6435 16.171 27.3555 16.285C27.0735 16.393 26.7645 16.447 26.4285 16.447C26.0205 16.447 25.6575 16.366 25.3395 16.204C25.0215 16.036 24.7725 15.796 24.5925 15.484C24.4125 15.172 24.3225 14.806 24.3225 14.386C24.3225 13.846 24.4395 13.363 24.6735 12.937C24.9075 12.511 25.2285 12.178 25.6365 11.938C26.0505 11.698 26.5125 11.578 27.0225 11.578C27.4305 11.578 27.7785 11.65 28.0665 11.794C28.3605 11.938 28.5855 12.151 28.7415 12.433L28.9035 11.623H29.7675ZM26.6175 15.691C26.9715 15.691 27.2895 15.607 27.5715 15.439C27.8595 15.265 28.0815 15.025 28.2375 14.719C28.3995 14.413 28.4805 14.065 28.4805 13.675C28.4805 13.249 28.3575 12.919 28.1115 12.685C27.8655 12.451 27.5145 12.334 27.0585 12.334C26.7045 12.334 26.3865 12.421 26.1045 12.595C25.8225 12.763 25.6005 13 25.4385 13.306C25.2765 13.612 25.1955 13.96 25.1955 14.35C25.1955 14.77 25.3185 15.1 25.5645 15.34C25.8165 15.574 26.1675 15.691 26.6175 15.691ZM33.8502 11.578C34.3962 11.578 34.8192 11.716 35.1192 11.992C35.4252 12.268 35.5782 12.658 35.5782 13.162C35.5782 13.336 35.5602 13.522 35.5242 13.72L34.9932 16.393H34.1292L34.6602 13.72C34.6902 13.558 34.7052 13.426 34.7052 13.324C34.7052 13.012 34.6122 12.772 34.4262 12.604C34.2402 12.436 33.9642 12.352 33.5982 12.352C33.1302 12.352 32.7432 12.481 32.4372 12.739C32.1372 12.991 31.9362 13.369 31.8342 13.873L31.3302 16.393H30.4662L31.4112 11.623H32.2392L32.1222 12.235C32.5542 11.797 33.1302 11.578 33.8502 11.578ZM42.1266 11.623L41.3076 15.745C41.1396 16.597 40.8216 17.218 40.3536 17.608C39.8916 17.998 39.2586 18.193 38.4546 18.193C38.0046 18.193 37.5936 18.133 37.2216 18.013C36.8496 17.899 36.5346 17.734 36.2766 17.518L36.7536 16.852C36.9456 17.026 37.1946 17.164 37.5006 17.266C37.8126 17.374 38.1516 17.428 38.5176 17.428C39.0696 17.428 39.4956 17.302 39.7956 17.05C40.1016 16.798 40.3086 16.408 40.4166 15.88L40.4886 15.538C40.0326 15.976 39.4566 16.195 38.7606 16.195C38.3406 16.195 37.9686 16.117 37.6446 15.961C37.3266 15.805 37.0776 15.58 36.8976 15.286C36.7236 14.992 36.6366 14.647 36.6366 14.251C36.6366 13.753 36.7506 13.3 36.9786 12.892C37.2126 12.484 37.5366 12.163 37.9506 11.929C38.3646 11.695 38.8326 11.578 39.3546 11.578C39.7626 11.578 40.1226 11.656 40.4346 11.812C40.7526 11.962 40.9866 12.19 41.1366 12.496L41.3076 11.623H42.1266ZM38.9316 15.439C39.2916 15.439 39.6126 15.361 39.8946 15.205C40.1826 15.043 40.4046 14.821 40.5606 14.539C40.7226 14.251 40.8036 13.927 40.8036 13.567C40.8036 13.183 40.6776 12.883 40.4256 12.667C40.1796 12.445 39.8316 12.334 39.3816 12.334C39.0216 12.334 38.6976 12.415 38.4096 12.577C38.1276 12.733 37.9056 12.955 37.7436 13.243C37.5876 13.525 37.5096 13.843 37.5096 14.197C37.5096 14.587 37.6356 14.893 37.8876 15.115C38.1396 15.331 38.4876 15.439 38.9316 15.439ZM43.6694 14.278V14.332C43.6694 14.776 43.7954 15.115 44.0474 15.349C44.2994 15.577 44.6774 15.691 45.1814 15.691C45.4754 15.691 45.7514 15.643 46.0094 15.547C46.2674 15.445 46.4834 15.31 46.6574 15.142L47.0264 15.763C46.7924 15.979 46.5074 16.147 46.1714 16.267C45.8354 16.387 45.4814 16.447 45.1094 16.447C44.6414 16.447 44.2364 16.363 43.8944 16.195C43.5524 16.027 43.2884 15.787 43.1024 15.475C42.9164 15.163 42.8234 14.797 42.8234 14.377C42.8234 13.843 42.9374 13.363 43.1654 12.937C43.3994 12.511 43.7204 12.178 44.1284 11.938C44.5424 11.698 45.0044 11.578 45.5144 11.578C46.1624 11.578 46.6784 11.764 47.0624 12.136C47.4524 12.502 47.6474 13.003 47.6474 13.639C47.6474 13.831 47.6264 14.044 47.5844 14.278H43.6694ZM45.4784 12.298C45.0524 12.298 44.6864 12.418 44.3804 12.658C44.0744 12.898 43.8674 13.228 43.7594 13.648H46.8374C46.8614 13.222 46.7474 12.892 46.4954 12.658C46.2494 12.418 45.9104 12.298 45.4784 12.298Z" fill="#FB9008"/>
</svg>
