<svg width="140" height="72" viewBox="0 0 140 72" fill="none" xmlns="http://www.w3.org/2000/svg">
<path d="M1.62885 15.8598H137.866C138.301 15.8598 138.529 15.3436 138.236 15.0226L125.433 1" stroke="#48CEF3" stroke-width="1.5" stroke-linecap="round"/>
<path d="M138.371 56H2.13359C1.69901 56 1.47132 56.5162 1.76434 56.8371L14.5674 70.8598" stroke="#48CEF3" stroke-width="1.5" stroke-linecap="round"/>
<path d="M10.7275 27.062L9.60952 32.652H18.7615L18.3195 34.862H9.16752L7.99752 40.738H18.6315L18.1895 43H4.95552L8.59552 24.8H21.4395L20.9975 27.062H10.7275ZM29.2448 36.058L33.2488 43H30.5968L27.6328 37.696L22.5888 43H19.6768L26.6188 35.876L22.8228 29.22H25.4228L28.2308 34.212L33.0148 29.22H35.8488L29.2448 36.058ZM42.1455 43.156C40.8281 43.156 39.6755 42.9133 38.6875 42.428C37.6995 41.9253 36.9368 41.232 36.3995 40.348C35.8621 39.4467 35.5935 38.398 35.5935 37.202C35.5935 35.6593 35.9401 34.2727 36.6335 33.042C37.3268 31.8113 38.2888 30.8493 39.5195 30.156C40.7501 29.4453 42.1455 29.09 43.7055 29.09C46.4268 29.09 48.3161 30.0867 49.3735 32.08L47.2675 33.25C46.5395 31.9327 45.2915 31.274 43.5235 31.274C42.5008 31.274 41.5735 31.5253 40.7415 32.028C39.9268 32.5133 39.2855 33.198 38.8175 34.082C38.3495 34.966 38.1155 35.9713 38.1155 37.098C38.1155 38.3113 38.4708 39.2647 39.1815 39.958C39.9095 40.634 40.9321 40.972 42.2495 40.972C43.0815 40.972 43.8528 40.8073 44.5635 40.478C45.2915 40.1487 45.8895 39.6633 46.3575 39.022L48.1775 40.322C47.5361 41.206 46.6781 41.8993 45.6035 42.402C44.5288 42.9047 43.3761 43.156 42.1455 43.156ZM60.0713 29.09C61.6486 29.09 62.8706 29.4887 63.7373 30.286C64.6213 31.0833 65.0633 32.21 65.0633 33.666C65.0633 34.1687 65.0113 34.706 64.9073 35.278L63.3733 43H60.8773L62.4112 35.278C62.4979 34.81 62.5413 34.4287 62.5413 34.134C62.5413 33.2327 62.2726 32.5393 61.7353 32.054C61.1979 31.5687 60.4006 31.326 59.3433 31.326C57.9913 31.326 56.8733 31.6987 55.9893 32.444C55.1226 33.172 54.5419 34.264 54.2473 35.72L52.7913 43H50.2953L54.1433 23.708H56.6393L55.2093 30.832C56.4399 29.6707 58.0606 29.09 60.0713 29.09ZM83.7727 29.22L81.0427 43H78.6507L78.9887 41.31C78.3647 41.8993 77.6367 42.3587 76.8047 42.688C75.99 43 75.0974 43.156 74.1267 43.156C72.948 43.156 71.8994 42.922 70.9807 42.454C70.062 41.9687 69.3427 41.2753 68.8227 40.374C68.3027 39.4727 68.0427 38.4153 68.0427 37.202C68.0427 35.642 68.3807 34.2467 69.0567 33.016C69.7327 31.7853 70.66 30.8233 71.8387 30.13C73.0347 29.4367 74.3694 29.09 75.8427 29.09C77.0214 29.09 78.0267 29.298 78.8587 29.714C79.708 30.13 80.358 30.7453 80.8087 31.56L81.2767 29.22H83.7727ZM74.6727 40.972C75.6954 40.972 76.614 40.7293 77.4287 40.244C78.2607 39.7413 78.902 39.048 79.3527 38.164C79.8207 37.28 80.0547 36.2747 80.0547 35.148C80.0547 33.9173 79.6994 32.964 78.9887 32.288C78.278 31.612 77.264 31.274 75.9467 31.274C74.924 31.274 74.0054 31.5253 73.1907 32.028C72.376 32.5133 71.7347 33.198 71.2667 34.082C70.7987 34.966 70.5647 35.9713 70.5647 37.098C70.5647 38.3113 70.92 39.2647 71.6307 39.958C72.3587 40.634 73.3727 40.972 74.6727 40.972ZM95.5673 29.09C97.1447 29.09 98.3667 29.4887 99.2333 30.286C100.117 31.0833 100.559 32.21 100.559 33.666C100.559 34.1687 100.507 34.706 100.403 35.278L98.8693 43H96.3733L97.9073 35.278C97.994 34.81 98.0373 34.4287 98.0373 34.134C98.0373 33.2327 97.7687 32.5393 97.2313 32.054C96.694 31.5687 95.8967 31.326 94.8393 31.326C93.4873 31.326 92.3693 31.6987 91.4853 32.444C90.6187 33.172 90.038 34.264 89.7433 35.72L88.2873 43H85.7913L88.5213 29.22H90.9133L90.5753 30.988C91.8233 29.7227 93.4873 29.09 95.5673 29.09ZM119.477 29.22L117.111 41.128C116.625 43.5893 115.707 45.3833 114.355 46.51C113.02 47.6367 111.191 48.2 108.869 48.2C107.569 48.2 106.381 48.0267 105.307 47.68C104.232 47.3507 103.322 46.874 102.577 46.25L103.955 44.326C104.509 44.8287 105.229 45.2273 106.113 45.522C107.014 45.834 107.993 45.99 109.051 45.99C110.645 45.99 111.876 45.626 112.743 44.898C113.627 44.17 114.225 43.0433 114.537 41.518L114.745 40.53C113.427 41.7953 111.763 42.428 109.753 42.428C108.539 42.428 107.465 42.2027 106.529 41.752C105.61 41.3013 104.891 40.6513 104.371 39.802C103.868 38.9527 103.617 37.956 103.617 36.812C103.617 35.3733 103.946 34.0647 104.605 32.886C105.281 31.7073 106.217 30.78 107.413 30.104C108.609 29.428 109.961 29.09 111.469 29.09C112.647 29.09 113.687 29.3153 114.589 29.766C115.507 30.1993 116.183 30.858 116.617 31.742L117.111 29.22H119.477ZM110.247 40.244C111.287 40.244 112.214 40.0187 113.029 39.568C113.861 39.1 114.502 38.4587 114.953 37.644C115.421 36.812 115.655 35.876 115.655 34.836C115.655 33.7267 115.291 32.86 114.563 32.236C113.852 31.5947 112.847 31.274 111.547 31.274C110.507 31.274 109.571 31.508 108.739 31.976C107.924 32.4267 107.283 33.068 106.815 33.9C106.364 34.7147 106.139 35.6333 106.139 36.656C106.139 37.7827 106.503 38.6667 107.231 39.308C107.959 39.932 108.964 40.244 110.247 40.244ZM123.934 36.89V37.046C123.934 38.3287 124.298 39.308 125.026 39.984C125.754 40.6427 126.846 40.972 128.302 40.972C129.151 40.972 129.949 40.8333 130.694 40.556C131.439 40.2613 132.063 39.8713 132.566 39.386L133.632 41.18C132.956 41.804 132.133 42.2893 131.162 42.636C130.191 42.9827 129.169 43.156 128.094 43.156C126.742 43.156 125.572 42.9133 124.584 42.428C123.596 41.9427 122.833 41.2493 122.296 40.348C121.759 39.4467 121.49 38.3893 121.49 37.176C121.49 35.6333 121.819 34.2467 122.478 33.016C123.154 31.7853 124.081 30.8233 125.26 30.13C126.456 29.4367 127.791 29.09 129.264 29.09C131.136 29.09 132.627 29.6273 133.736 30.702C134.863 31.7593 135.426 33.2067 135.426 35.044C135.426 35.5987 135.365 36.214 135.244 36.89H123.934ZM129.16 31.17C127.929 31.17 126.872 31.5167 125.988 32.21C125.104 32.9033 124.506 33.8567 124.194 35.07H133.086C133.155 33.8393 132.826 32.886 132.098 32.21C131.387 31.5167 130.408 31.17 129.16 31.17Z" fill="#8BC63E"/>
</svg>
