<svg id="Layer_1" data-name="Layer 1" xmlns="http://www.w3.org/2000/svg" viewBox="0 0 49.58 49.47"><defs><style>.cls-1{fill:#8bc63e;}</style></defs><path class="cls-1" d="M49.79,18.42V19c-.7,1.84-1.4,3.69-2.11,5.53a1.18,1.18,0,0,0,0,.92c.71,1.84,1.41,3.69,2.11,5.53v.58a3.07,3.07,0,0,1-1.08,1.26L44.83,36a1,1,0,0,0-.4.67c-.26,1.78-.56,3.56-.84,5.34A1.7,1.7,0,0,1,42,43.55l-5.34.84a.9.9,0,0,0-.64.37c-1.06,1.32-2.13,2.62-3.19,3.94a3.11,3.11,0,0,1-1.22,1h-.68c-1.82-.7-3.63-1.39-5.44-2.1a1.16,1.16,0,0,0-.93,0c-1.84.71-3.69,1.4-5.54,2.1h-.59a3.2,3.2,0,0,1-1.26-1.08c-1-1.29-2.09-2.57-3.13-3.87a1,1,0,0,0-.67-.39c-1.77-.27-3.53-.56-5.3-.84A1.7,1.7,0,0,1,6.41,41.9c-.28-1.76-.57-3.52-.84-5.29a1,1,0,0,0-.4-.67c-1.28-1-2.56-2.06-3.84-3.09A3.11,3.11,0,0,1,.21,31.56V31c.7-1.84,1.4-3.69,2.11-5.53a1.18,1.18,0,0,0,0-.92C1.61,22.69.91,20.84.21,19v-.58a3.13,3.13,0,0,1,1-1.17c1.35-1.07,2.68-2.17,4-3.24a.87.87,0,0,0,.35-.59c.27-1.78.57-3.56.85-5.34A1.71,1.71,0,0,1,8.06,6.43c1.77-.27,3.53-.57,5.3-.83A1,1,0,0,0,14,5.2c1.1-1.37,2.21-2.73,3.31-4.09A1.69,1.69,0,0,1,19.67.49l4.92,1.89a1.09,1.09,0,0,0,.83,0C27,1.74,28.66,1.13,30.29.5a1.71,1.71,0,0,1,2.4.64q1.66,2,3.32,4.09a.86.86,0,0,0,.58.36c1.8.27,3.6.57,5.4.85A1.68,1.68,0,0,1,43.59,8c.28,1.78.58,3.55.85,5.34a1,1,0,0,0,.39.66c1.29,1,2.56,2.07,3.84,3.1A3.32,3.32,0,0,1,49.79,18.42Zm-31,9.3h.1L21.34,31a15.94,15.94,0,0,0,1,1.29,1.52,1.52,0,0,0,2.07.14,1.55,1.55,0,0,0,.37-2,5.22,5.22,0,0,0-.34-.48c-.82-1.09-1.63-2.2-2.47-3.28-.22-.29-.18-.41.16-.52a4.61,4.61,0,0,0,2.75-5.24A4.69,4.69,0,0,0,21,17.33a31.09,31.09,0,0,0-3.48-.06c-1.24,0-1.83.58-1.83,1.84v12a1.55,1.55,0,1,0,3.1.09C18.82,30,18.8,28.88,18.8,27.72ZM37.4,25c0,2,0,4.06,0,6.09A1.54,1.54,0,0,0,39,32.72c1,0,2,0,3,0a1.54,1.54,0,1,0,0-3.08c-.42,0-.84,0-1.26,0-.21,0-.28-.07-.28-.27q0-1.26,0-2.52c0-.27.12-.31.35-.3.4,0,.81,0,1.21,0a1.55,1.55,0,0,0,0-3.09c-.42,0-.84,0-1.25,0-.24,0-.31-.07-.31-.3,0-.82,0-1.65,0-2.47,0-.24.06-.34.32-.33s.71,0,1.07,0a1.55,1.55,0,1,0,0-3.09H39.17a1.59,1.59,0,0,0-1.77,1.79C37.39,21,37.4,23,37.4,25Zm-9.3,0c0,2,0,4.06,0,6.08a1.54,1.54,0,0,0,1.64,1.64h2.95a1.54,1.54,0,0,0,1.6-1.52,1.56,1.56,0,0,0-1.61-1.57,10.44,10.44,0,0,0-1.12,0c-.31,0-.38-.11-.37-.39,0-.45,0-.9,0-1.35s-.14-1,.08-1.26.84-.06,1.29-.1h.14a1.55,1.55,0,1,0,0-3.09H31.49c-.19,0-.3,0-.3-.26,0-.86,0-1.71,0-2.56,0-.21.08-.28.29-.28h1.16a1.55,1.55,0,1,0,0-3.09c-.9,0-1.81,0-2.71,0a1.59,1.59,0,0,0-1.82,1.8ZM6.41,25v6a1.55,1.55,0,1,0,3.09.12q0-2.05,0-4.11c0-.38.07-.55.49-.51a7.5,7.5,0,0,0,1.06,0,1.55,1.55,0,0,0,0-3.09,10.28,10.28,0,0,0-1.11,0c-.35,0-.48-.06-.46-.44a18.92,18.92,0,0,0,0-2.13c0-.46.15-.58.57-.53a5.61,5.61,0,0,0,.82,0,1.55,1.55,0,1,0,0-3.09H8.19a1.59,1.59,0,0,0-1.78,1.79Z" transform="translate(-0.21 -0.27)"/><path class="cls-1" d="M18.8,22c0-.51,0-.93,0-1.35,0-.2.07-.28.28-.28.46,0,.93,0,1.4,0a1.53,1.53,0,0,1,0,3.06c-.52,0-1.2.23-1.54-.07S18.85,22.39,18.8,22Z" transform="translate(-0.21 -0.27)"/></svg>