<svg width="147" height="158" viewBox="0 0 147 158" fill="none" xmlns="http://www.w3.org/2000/svg">
<path opacity="0.5" d="M66.0988 157.854C101.608 157.854 130.394 152.023 130.394 144.83C130.394 137.637 101.608 131.806 66.0988 131.806C30.5896 131.806 1.80371 137.637 1.80371 144.83C1.80371 152.023 30.5896 157.854 66.0988 157.854Z" fill="#C4C4C4"/>
<path d="M116.693 102.367L112.02 84.3318C110.218 77.3741 107.573 70.5905 104.128 64.0875C99.1417 54.6758 88.0587 46.8318 78.4229 41.6257C76.9698 40.8403 76.0219 39.4671 75.8695 37.9338L75.8593 37.8298C75.6887 36.108 76.5423 34.4333 78.1041 33.4523C86.5815 28.1281 98.775 16.1566 102.249 12.6783C100.616 9.26862 97.1236 6.27841 93.585 4.92296C92.8612 4.64618 92.106 4.43478 91.3283 4.27347C87.5247 3.48644 83.1646 3.93599 79.0919 4.15079C77.5892 4.23017 76.1251 4.27729 74.7437 4.21786C71.2687 4.06801 67.9036 2.36829 64.2758 1.17203C60.9362 0.0708679 57.373 -0.600275 53.2969 0.758991C50.7859 1.59612 48.081 3.20159 45.1128 5.95621C39.7976 10.8881 34.9187 12.0339 30.9403 13.6648C35.3365 18.016 46.2526 28.514 54.0508 33.4251C55.6257 34.4172 56.5104 36.0918 56.338 37.8302L56.3278 37.9329C56.1758 39.4662 55.2275 40.8399 53.7748 41.6248C44.139 46.831 33.0556 54.675 28.0694 64.0867C24.6245 70.5897 21.9798 77.3737 20.177 84.3309L15.5044 102.366C12.9841 112.093 15.4815 122.264 22.3755 130.349C26.9474 135.712 33.2207 139.88 40.4751 142.374C56.9 148.023 75.2977 148.023 91.7231 142.374C98.9779 139.88 105.251 135.712 109.823 130.349C116.715 122.265 119.213 112.094 116.693 102.367Z" fill="url(#paint0_linear_9070_18059)"/>
<g opacity="0.4">
<path opacity="0.4" d="M112.771 103.383L108.098 85.348C106.379 78.7109 103.839 72.196 100.548 65.9842C95.5112 56.4766 83.3173 48.8745 76.4963 45.1898C73.864 43.7669 72.1231 41.2037 71.8382 38.3336L71.8285 38.2313C71.5037 34.9682 73.0833 31.823 75.9496 30.0222C82.7047 25.7797 92.0969 16.9573 97.028 12.1434C95.7094 10.6716 93.9286 9.39342 92.1377 8.70742C91.6508 8.52148 91.1019 8.36442 90.5067 8.24089C89.3283 7.99722 87.9274 7.87836 86.2234 7.87836C85.5243 7.87836 84.8022 7.90043 84.0746 7.931C84.8255 7.98746 85.4916 8.09019 86.0876 8.24046C86.5745 8.36399 87.0241 8.52063 87.4231 8.70699C87.438 8.71421 87.4524 8.72058 87.4672 8.72779C89.9553 9.91174 90.5678 13.1859 88.765 15.269C84.5399 20.15 78.6447 26.5872 74.1658 30.0218C71.8183 31.8226 70.5248 34.9677 70.7906 38.2309L70.7995 38.3332C71.0325 41.2037 72.458 43.7669 74.6137 45.1894C80.1997 48.8745 90.1862 56.4761 94.3111 65.9838C97.0063 72.1956 99.0864 78.7105 100.494 85.3476L104.321 103.382C106.107 111.797 104.307 120.669 99.3814 127.722C96.0172 132.539 91.3914 136.282 86.0036 138.544C79.6576 141.209 72.9598 142.561 66.0977 142.561C74.4765 142.561 82.6546 141.209 90.404 138.544C96.9825 136.282 102.631 132.539 106.739 127.722C112.753 120.669 114.951 111.798 112.771 103.383Z" fill="#467607"/>
</g>
<path opacity="0.5" d="M66.0987 146.612C61.2754 146.612 56.4518 145.2 51.9019 142.376C47.8827 139.881 44.4073 135.713 41.8743 130.351C38.0546 122.265 36.6711 112.094 38.0673 102.367L40.6559 84.3322C41.6552 77.3741 43.1202 70.591 45.0288 64.088C47.7914 54.6763 53.9323 46.8322 59.2709 41.6261C60.0758 40.8408 60.6009 39.4675 60.6854 37.9342L60.6909 37.8315C60.7868 36.0927 60.2965 34.418 59.4242 33.4264C57.1632 30.8564 52.481 23.968 48.1807 17.3593C44.7885 12.0755 47.0957 5.83523 51.553 1.45688C49.5421 2.38867 47.406 3.82902 45.1128 5.95706C44.181 6.8222 43.2628 7.56721 42.3603 8.2218C42.3603 8.22137 42.3599 8.22094 42.3599 8.22052C41.5903 8.77832 40.8334 9.26735 40.0888 9.70417C40.0582 9.72242 40.0268 9.74195 39.9963 9.75935C39.8069 9.86972 39.6193 9.9733 39.4321 10.0769C39.3485 10.1227 39.2644 10.1707 39.1816 10.2153C39.0212 10.3019 38.862 10.3838 38.7028 10.4662C38.5928 10.523 38.4829 10.5803 38.3742 10.6343C35.6693 11.9897 33.1638 12.7542 30.9403 13.6661C35.3365 18.0173 46.2526 28.5153 54.0508 33.4264C55.6257 34.418 56.5104 36.0927 56.338 37.8315L56.3278 37.9342C56.1758 39.4675 55.2279 40.8412 53.7748 41.6261C44.139 46.8322 33.0556 54.6763 28.0694 64.088C24.6245 70.591 21.9798 77.3746 20.177 84.3322L15.5044 102.367C12.9841 112.094 15.4815 122.265 22.3755 130.351C26.9474 135.713 33.2207 139.881 40.4751 142.376C48.6876 145.2 57.3929 146.612 66.0987 146.612Z" fill="#609B13"/>
<path d="M71.8276 36.5324C71.5042 36.608 71.1119 36.931 70.8016 37.4018C70.4892 37.8705 70.2549 38.4792 70.1814 39.082L70.1547 39.3083C70.1279 39.5558 70.1292 39.7837 70.1521 39.9871C70.1759 40.2019 70.22 40.3483 70.2837 40.5631L74.9809 40.5224C74.9809 40.5665 74.9834 40.4332 74.9834 40.4332C75.0148 39.6954 74.6761 39.1487 74.0826 39.3371C74.3764 39.2391 74.6676 38.9886 74.9227 38.7021C75.1778 38.413 75.396 38.0933 75.5242 37.8L75.5247 37.7987L71.2172 35.9229C71.2087 36.4042 71.4481 36.6258 71.8276 36.5324Z" fill="#F2F2F2"/>
<path d="M82.6047 37.6438C82.9371 37.1 82.8331 35.88 82.1352 34.8556L82.0015 34.665C81.7069 34.2482 81.3562 33.9463 81.0421 33.7995L81.0425 33.7986C80.826 33.6921 80.6274 33.6657 80.4818 33.7188C80.3387 33.7719 80.2551 33.9039 80.2313 34.1043C80.2517 33.9349 80.216 33.7222 80.126 33.4807C80.0764 33.3609 79.9995 33.2353 79.9138 33.1045C79.8267 32.9742 79.7291 32.8384 79.5882 32.7098C79.4506 32.5811 79.3105 32.4449 79.1327 32.3273C78.9518 32.2118 78.7557 32.0997 78.5486 32.0004C78.3312 31.9159 78.1016 31.8412 77.8681 31.7809C77.6346 31.7325 77.3956 31.7113 77.1583 31.6977C77.163 31.699 77.0594 31.6892 76.991 31.6935C76.9189 31.6956 76.8471 31.6986 76.8471 31.6986C76.224 31.705 75.6857 31.899 75.3669 32.1116L75.3665 32.1108C74.8944 32.4381 74.863 32.7764 75.2251 32.9891C74.9271 32.7934 74.3269 32.7577 73.643 32.9993C72.9621 33.2366 72.2663 33.7753 71.838 34.3946C71.838 34.3946 71.7968 34.4524 71.7556 34.5101C71.7183 34.5682 71.6805 34.626 71.6805 34.626C71.3477 35.1371 71.2254 35.5921 71.2178 35.9224L75.5248 37.7983C75.5235 37.7962 75.5736 37.6905 75.5736 37.6905C75.7069 37.4116 75.7214 37.1896 75.65 36.985C75.5749 36.7816 75.4195 36.5876 75.1343 36.4946C75.4212 36.5821 75.7434 36.5851 75.9956 36.6186C76.2537 36.647 76.4201 36.6933 76.584 36.6479H76.5844L76.6493 36.633C76.7414 36.6169 76.8234 36.5702 76.9155 36.521C76.9588 36.4942 77.0021 36.4594 77.0365 36.4216C77.0496 36.386 77.0636 36.3482 77.0785 36.3087C77.1358 36.1279 77.2288 35.8791 77.188 35.6066C77.2394 35.8846 77.2772 36.1644 77.2963 36.3652C77.3171 36.5749 77.3969 36.7795 77.5989 36.9943L77.5998 36.9951L77.6753 37.0766C78.088 37.5576 78.7336 37.8017 79.0448 37.2498C78.746 37.7843 78.8232 38.7976 79.2545 39.6581L79.2554 39.6593L83.4384 37.519C83.1196 37.294 82.8008 37.3173 82.6047 37.6438Z" fill="#F2F2F2"/>
<path d="M88.4061 46.8432C88.5576 46.2294 88.2401 45.3138 87.7171 44.6396L87.6182 44.5119C87.397 44.2389 87.1708 44.0381 86.9462 43.9469L86.9471 43.9464C86.6261 43.8106 86.3281 43.8717 86.1549 44.2045C86.4368 43.6412 86.292 42.6003 85.8433 41.7853L85.7584 41.6329C85.5721 41.2984 85.359 41.0513 85.1429 40.9172L85.1437 40.9167C84.8351 40.7164 84.5253 40.7461 84.3202 41.0594C84.6632 40.53 84.6025 39.4055 84.1547 38.4971L84.0702 38.3264C83.8847 37.952 83.661 37.6778 83.4381 37.5207L79.2559 39.6606L79.3374 39.8211C79.7721 40.6828 80.4211 40.9957 80.7739 40.46C80.4199 40.9872 80.4912 42.1576 80.9789 43.0923L80.9798 43.094L81.0723 43.2685C81.569 44.2066 82.2626 44.4949 82.5708 43.9261C82.255 44.4834 82.4447 45.7187 83.0993 46.6433L83.1006 46.6446L83.2237 46.8161C83.8872 47.7415 84.6568 47.9189 84.8462 47.2937C84.7515 47.5989 84.7944 48.0654 85.0092 48.5493C85.2125 49.0367 85.5729 49.5503 86.0276 49.9409L86.0293 49.9421L89.1048 46.3903C88.775 46.3559 88.505 46.4824 88.4061 46.8432Z" fill="#F2F2F2"/>
<path d="M91.3466 48.869C91.3568 48.5459 91.1849 48.1494 90.8992 47.7589C90.8275 47.6617 90.7489 47.5649 90.6645 47.4702C90.5872 47.3794 90.4709 47.2745 90.4153 47.2053C90.2803 47.0525 90.1245 46.9286 89.964 46.8127L89.8452 46.7227C89.5811 46.535 89.3311 46.4187 89.104 46.3903L86.0293 49.9417L86.2004 50.0873C86.4249 50.2847 86.6567 50.4252 86.8694 50.5186C87.0812 50.6124 87.2676 50.6651 87.4293 50.6642C87.7557 50.6617 87.9438 50.4859 87.9468 50.1582C87.9447 50.3221 87.9939 50.511 88.0873 50.7143C88.1314 50.8132 88.1989 50.9261 88.2528 51.0225C88.3046 51.1172 88.3641 51.2118 88.4294 51.3056C88.6888 51.683 89.0645 52.0332 89.4614 52.2964L89.4627 52.2973L92.0034 48.3447C91.6132 48.3078 91.3581 48.4878 91.3466 48.869Z" fill="#F2F2F2"/>
<path d="M96.4265 51.3604L96.2673 51.2216C95.92 50.9108 95.5847 50.7436 95.3088 50.6863L95.3092 50.6858C94.911 50.6009 94.6389 50.7538 94.5943 51.1363C94.6758 50.4902 94.0123 49.4391 93.1327 48.8443L92.9685 48.7319C92.6076 48.4967 92.2731 48.3693 92.0031 48.3451L89.4629 52.2968L89.6132 52.3945C90.418 52.909 91.0888 52.8491 91.1546 52.2183C91.1019 52.85 91.6771 53.789 92.3733 54.354L92.3746 54.3548L92.5074 54.4605C93.1956 55.0217 93.8421 55.0315 94.0127 54.43C93.9287 54.7361 93.9873 55.1296 94.1142 55.5171C94.1694 55.7128 94.253 55.9039 94.3451 56.0847C94.4228 56.2677 94.537 56.4336 94.644 56.5839L94.6448 56.5852L94.7238 56.6977C94.7764 56.7724 94.8342 56.8382 94.8915 56.8968C94.9416 56.9566 94.9955 57.0084 95.0519 57.0522C95.167 57.1392 95.2867 57.1978 95.3992 57.2292C95.631 57.2873 95.881 57.2271 96.0678 56.9889C96.0678 56.9881 96.0686 56.9876 96.069 56.9872C96.5691 56.3721 97.3345 55.4955 97.593 54.0212C97.6232 53.9367 97.6376 53.8386 97.6418 53.7334C97.666 53.0546 97.1698 52.0082 96.4265 51.3604Z" fill="#F2F2F2"/>
<path d="M73.2778 38.8829C73.2778 38.8829 72.4963 39.1402 71.7347 39.518C71.3522 39.7035 70.977 39.9124 70.6972 40.0851C70.4175 40.2549 70.2354 40.3954 70.2354 40.3954C70.2502 40.4502 70.2676 40.4816 70.2863 40.5631L71.5288 40.5525C71.5267 40.5219 72.1465 40.1429 72.7892 39.8521C73.4289 39.552 74.0831 39.3376 74.0831 39.3376C74.3768 39.2395 74.668 38.9891 74.9232 38.7025C75.1783 38.4134 75.3965 38.0938 75.5247 37.8004L75.5251 37.7992L74.7135 37.4456C74.356 38.0297 73.805 38.697 73.2778 38.8829Z" fill="#D6D6D6"/>
<path d="M74.0832 39.3376L74.0615 39.3448C74.1277 39.5515 74.1528 39.8134 74.132 40.114L74.1227 40.2727C74.1176 40.3627 74.1082 40.4825 74.0959 40.53L74.9814 40.5224C74.9814 40.5665 74.984 40.4336 74.984 40.4336C75.0154 39.6958 74.6766 39.1487 74.0832 39.3376Z" fill="#D6D6D6"/>
<path d="M75.134 36.4955L75.1132 36.4887C75.0962 36.6725 75.0262 36.8602 74.906 37.0903C74.906 37.0903 74.8398 37.2095 74.8419 37.2121C74.8059 37.2923 74.7575 37.3641 74.7129 37.4452L75.525 37.7988C75.5237 37.7966 75.5738 37.6914 75.5738 37.6914C75.7067 37.412 75.7215 37.1904 75.6502 36.9854C75.5751 36.7821 75.4197 36.5885 75.134 36.4955Z" fill="#D6D6D6"/>
<path d="M77.1845 35.5866C77.1183 35.6367 77.0831 35.6567 76.9859 35.6877C76.8916 35.7233 76.78 35.728 76.676 35.7505L76.5609 35.7658C76.4896 35.7743 76.4264 35.7917 76.3546 35.7925C76.0957 35.8176 75.8257 35.8112 75.5264 35.8086C75.2284 35.7997 74.9156 35.8053 74.6511 35.7271C74.6511 35.7271 74.4601 35.6652 74.1557 35.6117C73.8484 35.5527 73.4289 35.5179 72.9942 35.5302C72.121 35.5455 71.2266 35.7772 71.2266 35.7772C71.219 35.8295 71.2207 35.8761 71.2198 35.9241L71.8341 36.1916L71.219 35.9237C71.2105 36.4034 71.4478 36.6262 71.8269 36.5329C71.8269 36.5329 71.961 36.5031 72.0956 36.473C72.2284 36.4471 72.3622 36.4216 72.3622 36.4216L72.3592 36.4204C72.3592 36.4204 73.091 36.2798 73.7906 36.2973C74.1459 36.3057 74.4813 36.3418 74.7313 36.3957C74.9784 36.445 75.1342 36.4947 75.1342 36.4947C75.4211 36.5821 75.7433 36.5851 75.9955 36.6186C76.2536 36.647 76.42 36.6933 76.5839 36.6479H76.5843L76.6492 36.633C76.7409 36.6169 76.8229 36.5702 76.915 36.521C76.9587 36.4942 77.0016 36.4594 77.0364 36.4216C77.0495 36.386 77.0635 36.3482 77.0784 36.3083C77.1357 36.1279 77.2283 35.8791 77.1879 35.6066L77.1845 35.5866Z" fill="#D6D6D6"/>
<path d="M80.481 33.7197C80.3379 33.7723 80.2543 33.9035 80.2305 34.1039C80.2305 34.1039 80.2161 34.2422 80.1855 34.3789C80.1567 34.5135 80.127 34.6485 80.127 34.6485L81.0405 33.7999C80.8248 33.6942 80.627 33.6675 80.481 33.7197Z" fill="#D6D6D6"/>
<path d="M79.9516 37.0593C79.9516 37.0593 80.0492 36.8771 80.1953 36.605C80.3422 36.3266 80.5217 35.9526 80.6813 35.5569C80.8507 35.1626 80.97 34.7482 81.0591 34.4231C81.105 34.2613 81.133 34.123 81.1487 34.0249C81.1657 33.9264 81.1755 33.8699 81.1755 33.8699C81.1292 33.8428 81.085 33.822 81.0413 33.8008L80.1303 34.6464C80.1303 34.6464 80.09 34.8293 80.0153 35.0883C79.9372 35.3485 79.8107 35.6898 79.674 36.0086C79.5335 36.3321 79.3751 36.6466 79.2546 36.872C79.1293 37.0992 79.0457 37.2511 79.0457 37.2511C78.7469 37.7856 78.8241 38.7989 79.2554 39.6593L79.2563 39.6606L80.0442 39.2573C79.7326 38.4436 79.6829 37.5521 79.9516 37.0593Z" fill="#D6D6D6"/>
<path d="M79.0445 37.2503L79.0555 37.2303C78.9626 37.1692 78.8662 37.1026 78.7732 37.0164C78.6811 36.9285 78.5911 36.8254 78.5024 36.7197L78.4094 36.6025C78.353 36.5244 78.2974 36.4688 78.2481 36.3932V36.3936C78.1539 36.2459 78.0711 36.1343 78.0023 35.9836C77.9314 35.8689 77.8741 35.7106 77.8194 35.5939C77.7922 35.5302 77.7672 35.4576 77.7425 35.3897C77.7166 35.329 77.6925 35.264 77.67 35.1965C77.6258 35.0556 77.5838 34.9248 77.5592 34.7979C77.5592 34.7979 77.532 34.606 77.4284 34.3055C77.3745 34.1667 77.2994 34.0024 77.1992 33.8258C77.0964 33.645 76.9721 33.4641 76.8451 33.293C76.5883 32.9356 76.2674 32.6138 75.9949 32.3833C75.8611 32.2636 75.7385 32.1804 75.6519 32.1189C75.5631 32.0586 75.513 32.0242 75.513 32.0242C75.4587 32.0535 75.4129 32.0836 75.3662 32.1138V32.1129C74.8958 32.4402 74.8623 32.7773 75.2235 32.9895C75.2235 32.9895 75.3475 33.0659 75.4634 33.1462C75.5793 33.223 75.6888 33.3168 75.6888 33.3168L75.6879 33.3134C75.6879 33.3134 75.8408 33.4336 76.039 33.6237C76.2377 33.8135 76.475 34.0979 76.6668 34.3823C76.8558 34.6858 77.0328 34.9694 77.0969 35.2161C77.1686 35.4542 77.1869 35.6066 77.1869 35.6066C77.2382 35.8846 77.276 36.1644 77.2951 36.3652C77.3159 36.5749 77.3957 36.7795 77.5978 36.9943L77.5986 36.9952L77.6742 37.0762C78.0872 37.5581 78.7333 37.8026 79.0445 37.2503Z" fill="#D6D6D6"/>
<path d="M81.706 40.3891C81.706 40.3891 82.1658 39.695 82.6259 39.0005C83.0857 38.3056 83.5301 37.592 83.5301 37.592C83.4987 37.5653 83.4669 37.5432 83.4351 37.5207L83.4359 37.5203C83.1184 37.2961 82.8 37.3174 82.6047 37.643L82.3258 38.0883L82.3288 38.087C82.3288 38.087 81.9429 38.683 81.5571 39.279C81.1652 39.8695 80.7734 40.4591 80.7734 40.4591C80.4194 40.9864 80.4907 42.1567 80.9784 43.0915L80.9793 43.0932L81.7642 42.6827C81.4144 41.826 81.3953 40.8599 81.706 40.3891Z" fill="#D6D6D6"/>
<path d="M80.7725 40.4596L80.7856 40.44C80.6001 40.2817 80.4197 40.0448 80.2639 39.7336L80.1812 39.5689C80.1302 39.4679 80.0839 39.3635 80.0432 39.2569L79.2549 39.6602L79.336 39.8203C79.7711 40.682 80.4201 40.9944 80.7725 40.4596Z" fill="#D6D6D6"/>
<path d="M82.5705 43.9252L82.582 43.9044C82.3876 43.7495 82.1808 43.5066 82.0102 43.1836L81.9185 43.0121C81.862 42.906 81.8094 42.7956 81.7644 42.6835L80.9795 43.094L81.072 43.2685C81.5691 44.2058 82.2623 44.494 82.5705 43.9252Z" fill="#D6D6D6"/>
<path d="M86.1543 44.2041L85.9238 44.6634L86.9443 43.9473C86.6247 43.8123 86.3271 43.8722 86.1543 44.2041Z" fill="#D6D6D6"/>
<path d="M85.7513 47.0186C85.7513 47.0186 86.0077 46.2222 86.3405 45.4653C86.501 45.0883 86.6733 44.7207 86.8109 44.4444C86.948 44.1727 87.0397 43.9923 87.0397 43.9923C87.0074 43.9749 86.9756 43.9621 86.9433 43.9485L85.9262 44.6621C85.9262 44.6621 85.6167 45.2891 85.3459 45.948C85.2122 46.2753 85.0853 46.611 84.9931 46.8662C84.8993 47.1226 84.8454 47.2937 84.8454 47.2937C84.7507 47.5989 84.7936 48.0654 85.0084 48.5493C85.2117 49.0367 85.5722 49.5503 86.0268 49.9409L86.0285 49.9421L86.6079 49.2727C85.9037 48.543 85.5581 47.5602 85.7513 47.0186Z" fill="#D6D6D6"/>
<path d="M84.8527 47.2703C84.6256 47.1442 84.3824 46.9243 84.1497 46.6183L84.0309 46.4536C83.9574 46.3517 83.8891 46.2447 83.825 46.1356C83.344 45.2955 83.2234 44.2983 83.504 43.8055C83.504 43.8055 83.9099 43.0745 84.3458 42.3711C84.7784 41.6656 85.2322 40.9804 85.2322 40.9804C85.2016 40.9566 85.1706 40.938 85.1401 40.918L85.1409 40.9176C84.8332 40.7185 84.5241 40.7461 84.3187 41.0594L84.036 41.4953L84.0389 41.4936C84.0385 41.4936 83.6586 42.0841 83.288 42.6929C82.9212 43.2978 82.5701 43.9252 82.5701 43.9252C82.2543 44.4826 82.4441 45.7179 83.0986 46.6425L83.0999 46.6437L83.2226 46.8152C83.8865 47.7402 84.6561 47.9177 84.8455 47.2928L84.8527 47.2703Z" fill="#D6D6D6"/>
<path d="M88.7424 49.6407C88.7424 49.6407 88.7501 49.431 88.7615 49.1165C88.7751 48.8083 88.8133 48.3952 88.8753 47.9864C88.984 47.1803 89.2013 46.4064 89.2013 46.4064C89.1678 46.3992 89.1355 46.3962 89.1033 46.392L89.1037 46.3916C88.7751 46.3585 88.5056 46.4828 88.4062 46.8428C88.4062 46.8428 88.3757 46.9647 88.3447 47.0869C88.3162 47.2104 88.2869 47.3336 88.2869 47.3336L88.2895 47.331C88.2895 47.331 88.2534 47.5017 88.1995 47.7576C88.1481 48.0166 88.0857 48.3681 88.0475 48.717C88.0051 49.0685 87.9762 49.4298 87.9605 49.7044C87.9461 49.9778 87.9473 50.1574 87.9473 50.1574C87.9452 50.3212 87.9945 50.5101 88.0879 50.7135C88.132 50.8124 88.1995 50.9253 88.2534 51.0217C88.3052 51.1163 88.3646 51.211 88.43 51.3048C88.6894 51.6822 89.0651 52.0324 89.462 52.2956L89.4632 52.2964L89.9421 51.5514C89.2574 51.0051 88.748 50.2359 88.7424 49.6407Z" fill="#D6D6D6"/>
<path d="M86.8983 49.5414C86.7981 49.4569 86.7013 49.3665 86.6087 49.2723L86.0293 49.9417L86.1999 50.0869C86.4245 50.2847 86.6563 50.4248 86.869 50.5182C87.0808 50.612 87.2672 50.6647 87.4289 50.6642C87.7553 50.6617 87.9434 50.4855 87.9464 50.1582L87.9468 50.134C87.6785 50.081 87.3847 49.9141 87.0613 49.6764L86.8983 49.5414Z" fill="#D6D6D6"/>
<path d="M91.3464 48.8686L91.3281 49.395L92.0022 48.346C91.6134 48.3104 91.3578 48.4882 91.3464 48.8686Z" fill="#D6D6D6"/>
<path d="M90.3692 51.8516L90.2168 51.7527C90.1221 51.6907 90.0305 51.6232 89.9417 51.5515L89.4629 52.2965L89.6127 52.3937C90.4176 52.9082 91.0887 52.8487 91.1541 52.2175L91.1562 52.1946C90.9257 52.1504 90.6592 52.0371 90.3692 51.8516Z" fill="#D6D6D6"/>
<path d="M94.0176 54.4079C93.7964 54.343 93.554 54.2067 93.3099 53.9928L93.1732 53.882C93.0883 53.8145 93.0064 53.7406 92.9279 53.6629C92.3353 53.0733 91.8832 52.2578 91.9294 51.6992C91.9294 51.6992 92.005 50.8735 92.0513 50.0347C92.0967 49.2048 92.1205 48.3613 92.1205 48.3613C92.0793 48.3532 92.0407 48.3503 92.0025 48.3469L91.3305 49.392C91.3305 49.392 91.2957 50.1013 91.2608 50.8103C91.2235 51.5124 91.1547 52.2179 91.1547 52.2179C91.1021 52.8496 91.6773 53.7886 92.3735 54.3536L92.3747 54.3545L92.5072 54.4602C93.1957 55.0209 93.8423 55.0311 94.0125 54.4296L94.0176 54.4079Z" fill="#D6D6D6"/>
<path d="M96.0819 56.9686C95.921 56.8467 95.7439 56.6748 95.5975 56.4299L95.5075 56.3034C95.4515 56.2248 95.4009 56.142 95.3547 56.0559V56.0563C94.9866 55.4123 94.7086 54.568 94.841 54.0246C94.841 54.0246 94.8907 53.8225 94.9658 53.5199C95.038 53.2134 95.1161 52.8114 95.1891 52.3954C95.3381 51.5595 95.4277 50.7177 95.4277 50.7177C95.3857 50.705 95.3466 50.6969 95.3071 50.6888L95.308 50.688C94.9102 50.6039 94.6385 50.7546 94.5944 51.1363L94.529 51.6618L95.0486 51.0123L94.5311 51.6588C94.5311 51.6588 94.5065 51.8354 94.4696 52.1007C94.431 52.3644 94.3783 52.7116 94.31 53.0635C94.1788 53.7631 94.012 54.4304 94.012 54.4304C93.9279 54.7365 93.9865 55.13 94.1134 55.5176C94.1686 55.7133 94.2522 55.9043 94.3443 56.0852C94.422 56.2681 94.5362 56.4341 94.6432 56.5844L94.6441 56.5856L94.723 56.6977C94.7756 56.7729 94.8334 56.8387 94.8903 56.8972C94.9408 56.9571 94.9947 57.0085 95.0512 57.0522C95.1662 57.1396 95.2859 57.1982 95.3984 57.2292C95.6306 57.2878 95.8811 57.2271 96.0683 56.9877L96.0819 56.9686Z" fill="#D6D6D6"/>
<path d="M73.0701 37.3241L73.0531 37.3742C72.9631 37.6387 72.7611 37.8942 72.59 37.9469C72.59 37.9469 72.2844 38.0314 71.983 38.1349C71.6794 38.2368 71.3785 38.3565 71.3785 38.3565C71.2087 38.4274 71.114 38.2305 71.187 37.9104L71.2002 37.8505C71.2766 37.53 71.4961 37.2227 71.6765 37.1709C71.6765 37.1709 71.9902 37.0805 72.3043 37.0121C72.621 36.9421 72.9322 36.8954 72.9322 36.8954C73.1104 36.8691 73.1644 37.0618 73.0701 37.3241Z" fill="white"/>
<path d="M75.4324 34.4528L75.3844 34.4748C75.1284 34.5835 74.8109 34.6472 74.6411 34.5814C74.6411 34.5814 74.5664 34.5517 74.4543 34.5058C74.3389 34.4608 74.1843 34.4095 74.026 34.3683C73.8672 34.325 73.7004 34.2889 73.5735 34.2656C73.4487 34.2465 73.3655 34.2337 73.3655 34.2337C73.1732 34.2142 73.219 33.965 73.534 33.7027L73.5917 33.6539C73.9114 33.3945 74.3618 33.2799 74.5413 33.3597C74.5413 33.3597 74.6207 33.3919 74.7375 33.4518C74.8534 33.5104 75.0032 33.5915 75.1433 33.6776C75.2825 33.7604 75.418 33.8636 75.5135 33.9374C75.6069 34.0134 75.6693 34.0639 75.6693 34.0639C75.8068 34.1845 75.6867 34.3424 75.4324 34.4528Z" fill="white"/>
<path d="M79.013 34.9397L78.9743 34.904C78.7604 34.7266 78.5821 34.4524 78.5647 34.2753C78.5647 34.2753 78.56 34.1947 78.5536 34.0729C78.5439 33.9506 78.5282 33.7808 78.4883 33.6216C78.4178 33.2969 78.2824 32.9551 78.2824 32.9551C78.1975 32.765 78.4632 32.7149 78.8801 32.891C78.8801 32.891 78.9582 32.9229 78.9565 32.9246C79.1446 33.0256 79.3228 33.1636 79.4506 33.2994C79.5627 33.442 79.6302 33.5792 79.6323 33.6777C79.6323 33.6777 79.6442 34.0185 79.5882 34.3467C79.5427 34.6748 79.4672 34.9771 79.4672 34.9771C79.4213 35.1515 79.2205 35.1252 79.013 34.9397Z" fill="white"/>
<path d="M81.1949 38.0552L81.1703 38.0089C81.0421 37.7597 81.0022 37.4388 81.0939 37.2826C81.0939 37.2826 81.259 37.013 81.411 36.7371C81.5625 36.4573 81.7145 36.1776 81.7145 36.1776C81.7973 36.0137 81.99 36.0935 82.1458 36.358L82.1747 36.4076C82.3249 36.6708 82.3661 37.0104 82.2765 37.1662C82.2765 37.1662 82.1093 37.435 81.9425 37.7041C81.7735 37.9686 81.6041 38.2334 81.6041 38.2334C81.5086 38.3837 81.3257 38.3031 81.1949 38.0552Z" fill="white"/>
<path d="M82.9101 41.4686L82.8859 41.4223C82.7585 41.1718 82.7365 40.8475 82.8345 40.6985L83.5388 39.6632C83.6377 39.5146 83.8181 39.5969 83.9416 39.8461L83.965 39.8928C84.0885 40.1412 84.1089 40.4587 84.0108 40.6085L83.3168 41.6477C83.2208 41.798 83.0387 41.7186 82.9101 41.4686Z" fill="white"/>
<path d="M84.8085 44.7806L84.7796 44.7369C84.6204 44.5051 84.572 44.1803 84.6557 44.0245C84.6557 44.0245 84.8085 43.7537 84.9613 43.4833C85.1201 43.2154 85.2788 42.9476 85.2788 42.9476C85.3697 42.7947 85.5501 42.8597 85.6864 43.0851L85.7123 43.1271C85.8515 43.3483 85.8927 43.6561 85.8099 43.8097C85.8099 43.8097 85.663 44.0818 85.5166 44.3531C85.3739 44.6312 85.2313 44.9092 85.2313 44.9092C85.1532 45.0714 84.9651 45.0145 84.8085 44.7806Z" fill="white"/>
<path d="M87.2358 47.7165L87.1976 47.68C86.9904 47.4898 86.8703 47.1867 86.9255 47.0143C86.9255 47.0143 87.0189 46.7151 87.1203 46.4255C87.2197 46.1373 87.3356 45.8486 87.3356 45.8486C87.4014 45.6818 87.5792 45.7158 87.752 45.8924L87.7839 45.9259C87.9532 46.1072 88.0458 46.3886 87.9999 46.5508C87.9999 46.5508 87.9087 46.8407 87.8272 47.1404C87.7444 47.4393 87.6743 47.7445 87.6743 47.7445C87.6383 47.9173 87.437 47.9134 87.2358 47.7165Z" fill="white"/>
<path d="M90.3335 49.9336L90.289 49.9061C90.0504 49.7583 89.8611 49.4943 89.8653 49.3151C89.8653 49.3151 89.8751 49.0006 89.8853 48.686C89.8895 48.5281 89.8937 48.3706 89.8967 48.2522C89.9022 48.1346 89.9116 48.059 89.9116 48.059C89.9294 47.8854 90.0916 47.8451 90.3467 48.0009L90.3921 48.0289C90.6371 48.18 90.8328 48.4483 90.8285 48.6274L90.7763 49.8823C90.7678 50.0627 90.573 50.0792 90.3335 49.9336Z" fill="white"/>
<path d="M93.4842 52.0948L93.4417 52.0634C93.2167 51.8966 93.0499 51.6172 93.0677 51.4385C93.0677 51.4385 93.1012 51.124 93.1352 50.8098C93.1628 50.497 93.1908 50.1837 93.1908 50.1837C93.2031 50.005 93.4082 49.9914 93.6472 50.1612L93.6913 50.1943C93.9295 50.37 94.1082 50.6587 94.0899 50.8374C94.0899 50.8374 94.053 51.1494 94.0161 51.4619C93.9719 51.7756 93.9282 52.0893 93.9282 52.0893C93.9031 52.2676 93.7053 52.2663 93.4842 52.0948Z" fill="white"/>
<path d="M96.2799 54.6898L96.2468 54.649C96.0766 54.4266 95.9509 54.1345 96.0048 53.9567C96.0048 53.9567 96.0978 53.6544 96.1789 53.3437C96.2527 53.0355 96.3266 52.7277 96.3266 52.7277C96.3635 52.5494 96.5741 52.5753 96.7961 52.7948L96.8369 52.8385C97.0542 53.0712 97.1913 53.4044 97.1412 53.578C97.1412 53.578 97.0474 53.8926 96.9413 54.194C96.8364 54.4971 96.7201 54.7866 96.7201 54.7866C96.6556 54.9513 96.4569 54.9063 96.2799 54.6898Z" fill="white"/>
<path d="M77.3213 61.8092C77.2262 61.9425 77.1502 62.1263 77.1133 62.3441C77.0831 62.561 77.0831 62.814 77.1129 63.087C77.1277 63.2232 77.1502 63.3646 77.1799 63.5085C77.1995 63.5845 77.2296 63.6609 77.2555 63.7377C77.4508 63.7573 77.6359 63.8715 77.7123 64.1109C77.8604 64.5719 78.2132 64.8533 78.6823 64.8686C79.173 64.8848 79.5606 64.6317 80.0347 64.5528C80.0789 64.5452 80.1192 64.5485 80.1608 64.5494C80.579 63.7556 81.0752 62.5644 81.0748 61.3741C81.0858 60.9717 81.006 60.5697 80.8727 60.174L80.8175 60.0301C80.6936 59.7198 80.5577 59.4528 80.3718 59.3021L80.3726 59.3017C80.112 59.0792 79.8059 59.041 79.5368 59.2944C79.7635 59.0792 79.9354 58.704 80.0199 58.2871C80.1065 57.8673 80.1375 57.3748 80.0517 56.9236L80.0254 56.7495C79.9672 56.3688 79.8446 56.0708 79.6862 55.8729H79.6871C79.4668 55.58 79.1662 55.5019 78.8652 55.7278C79.1199 55.5363 79.3262 55.17 79.4544 54.7353C79.5873 54.2967 79.6489 53.7814 79.5975 53.2966L79.5805 53.1128C79.5436 52.7095 79.4383 52.3894 79.291 52.1738H79.2919C79.0805 51.8626 78.782 51.7705 78.4738 51.9862C78.9964 51.6181 79.3525 50.5246 79.2719 49.5202L79.2566 49.333C79.2227 48.9212 79.125 48.6063 78.962 48.3439H78.9629C78.7374 47.9882 78.4352 47.8999 78.1355 48.1401C78.3885 47.9385 78.5944 47.5276 78.7082 47.0161C78.7846 46.5037 78.7956 45.8903 78.6462 45.3223L78.5846 45.1096C78.4441 44.6448 78.276 44.2882 78.0548 44.0764L73.626 45.6432C73.626 45.6432 73.6829 45.7833 73.6786 45.7858C73.7911 46.1832 73.9906 46.4587 74.2207 46.5966C74.4385 46.7397 74.6898 46.7406 74.9309 46.5325C74.6915 46.7414 74.5072 47.0993 74.4054 47.4979C74.3612 47.6948 74.3128 47.9135 74.2857 48.1346C74.2606 48.3558 74.2593 48.5782 74.2865 48.7943V48.7956L74.3069 48.9577C74.3926 49.9367 74.8808 50.4686 75.4059 50.0984C74.8821 50.4622 74.5225 51.5735 74.6125 52.5877V52.5894L74.6299 52.78C74.7186 53.7963 75.2276 54.3184 75.7426 53.9368C75.4849 54.1261 75.2731 54.506 75.1393 54.9692C75.0082 55.4331 74.9687 55.9884 75.0319 56.5084L75.0324 56.5101L75.0621 56.7084C75.214 57.7662 75.7714 58.2718 76.2532 57.8384C76.0125 58.0519 75.836 58.4628 75.7472 58.9599C75.6853 59.4638 75.6861 60.0505 75.8585 60.6049L75.8593 60.6066L75.9213 60.8133C76.0754 61.3648 76.3513 61.7612 76.6136 61.9383C76.8751 62.1161 77.1286 62.0775 77.3213 61.8092Z" fill="#F2F2F2"/>
<path d="M77.1982 44.0692C77.382 43.8077 77.5009 43.3348 77.43 42.7931C77.3973 42.5223 77.3336 42.2315 77.2432 41.9398C77.1396 41.6525 76.9911 41.3689 76.8289 41.104L76.7054 40.9062C76.3997 40.4885 76.0949 40.1922 75.8084 40.0567L75.8092 40.0563C75.392 39.8585 75.0918 39.9583 74.9959 40.3407C75.0375 40.1794 75.0345 39.9782 74.99 39.7507C74.9373 39.5295 74.8367 39.2858 74.6996 39.032C74.5654 38.776 74.363 38.5345 74.1477 38.2921C73.9147 38.0628 73.6634 37.8383 73.3683 37.6655L73.1497 37.5348C72.9052 37.3934 72.6671 37.2932 72.4332 37.2236C72.3113 37.1892 72.2124 37.165 72.0906 37.1446C71.9645 37.1234 71.8872 37.12 71.6971 37.0937L70.3365 41.59C70.3365 41.59 70.3268 41.5871 70.3111 41.5824C70.3034 41.5799 70.2949 41.5765 70.2852 41.5735L70.2936 41.5773C70.3055 41.5824 70.3183 41.5867 70.3183 41.5867C70.5186 41.6631 70.8268 41.7238 71.048 41.6452C71.2755 41.5811 71.4623 41.4096 71.5094 41.1044C71.4653 41.4088 71.5383 41.7615 71.6635 42.1067C71.7302 42.2731 71.7981 42.4594 71.8949 42.6131C71.9878 42.7723 72.0812 42.9404 72.2065 43.0724L72.2073 43.0733C72.2073 43.0733 72.2982 43.176 72.2956 43.1794C72.4051 43.3301 72.5266 43.4456 72.6539 43.5292C72.7821 43.6115 72.8954 43.6824 73.0211 43.7071C73.266 43.7601 73.5105 43.6799 73.674 43.4188C73.5925 43.55 73.536 43.7088 73.5021 43.8794C73.4672 44.0518 73.4354 44.2525 73.4346 44.4478C73.4439 44.8311 73.4762 45.2684 73.626 45.6411L73.6264 45.6424L78.0561 44.0751C77.7416 43.7673 77.4258 43.755 77.1982 44.0692Z" fill="#F2F2F2"/>
<path d="M71.5128 41.0828C71.3095 41.0654 71.0836 40.9928 70.8523 40.8777C70.8506 40.8731 70.7343 40.8234 70.7343 40.8234L70.6341 40.775C70.6209 40.7682 70.6018 40.7584 70.5908 40.7512L70.3365 41.5909C70.3365 41.5909 70.3268 41.5879 70.3111 41.5833C70.3034 41.5807 70.2949 41.5773 70.2852 41.5743L70.2936 41.5782C70.3055 41.5828 70.3183 41.5875 70.3183 41.5875C70.5186 41.6635 70.8264 41.7246 71.0476 41.6461C71.2755 41.582 71.4623 41.4101 71.5094 41.1053L71.5128 41.0828Z" fill="#D6D6D6"/>
<path d="M70.5901 40.7506L70.5924 40.7427C70.5787 40.7415 70.5818 40.7451 70.5901 40.7506Z" fill="#D6D6D6"/>
<path d="M74.5878 43.2482C74.5878 43.2482 75.0119 42.5613 75.3634 41.7654C75.6919 40.9983 75.9318 40.1221 75.9318 40.1221C75.8885 40.0971 75.8477 40.078 75.8065 40.0593L75.8074 40.0584C75.3914 39.8619 75.0908 39.9595 74.9953 40.3416C74.9953 40.3416 74.9605 40.4723 74.9257 40.6026C74.8888 40.7308 74.8514 40.859 74.8514 40.859L74.8824 40.8327L74.8539 40.8569C74.8539 40.8569 74.8081 41.0271 74.7105 41.2869C74.6162 41.5446 74.4829 41.8791 74.3373 42.1967C74.1968 42.5116 74.03 42.8215 73.8967 43.0499C73.7876 43.2316 73.7112 43.359 73.6861 43.401C73.5049 43.2859 73.3304 43.1021 73.1466 42.8729L73.0528 42.7468C72.9938 42.6696 72.9458 42.5817 72.8864 42.5061C72.4979 41.8757 72.1864 41.1295 72.2551 40.5687C72.2551 40.5687 72.284 40.3696 72.3099 40.0584C72.3392 39.7426 72.3455 39.3313 72.3209 38.8961C72.2904 38.4682 72.2284 38.0263 72.1346 37.6927C72.0913 37.5254 72.0518 37.3845 72.0051 37.2834C71.9622 37.1828 71.938 37.1251 71.938 37.1251C71.8595 37.1162 71.7784 37.1068 71.6973 37.0979L71.3369 38.287C71.407 38.3031 71.5861 39.0269 71.5942 39.7328C71.6188 40.4396 71.5097 41.1061 71.5097 41.1061C71.4655 41.4105 71.5386 41.7632 71.6638 42.1084C71.7304 42.2748 71.7984 42.4611 71.8951 42.6148C71.9881 42.774 72.0815 42.9421 72.2067 43.0741L72.2076 43.075C72.2076 43.075 72.2984 43.1773 72.2955 43.1807C72.4054 43.3314 72.5268 43.4468 72.6542 43.5305C72.7824 43.6132 72.8957 43.6841 73.0214 43.7083C73.2663 43.7618 73.5104 43.6816 73.6738 43.4201L73.6827 43.4061C73.6798 43.4116 73.6742 43.4205 73.6742 43.4205C73.5927 43.5517 73.5363 43.7105 73.5023 43.8811C73.4675 44.0535 73.4357 44.2542 73.4348 44.4495C73.4442 44.8328 73.4764 45.2701 73.6263 45.6428L73.6267 45.6441L74.4617 45.349C74.2843 44.5883 74.2991 43.733 74.5878 43.2482Z" fill="#D6D6D6"/>
<path d="M74.9323 46.5325L74.9497 46.5173C74.8109 46.3424 74.6734 46.1097 74.588 45.8075L74.5418 45.6475C74.5154 45.5494 74.4896 45.4505 74.462 45.3482L73.627 45.6432C73.627 45.6432 73.6834 45.7829 73.6796 45.7854C73.7921 46.1828 73.9916 46.4583 74.2217 46.5962C74.4399 46.7393 74.6912 46.7401 74.9323 46.5325Z" fill="#D6D6D6"/>
<path d="M75.406 50.0984L75.4251 50.0848C75.3109 49.87 75.2311 49.5792 75.2023 49.2265L75.187 49.0388C75.1789 48.9187 75.1687 48.8219 75.1683 48.7116C75.1594 48.3032 75.243 47.8829 75.3623 47.5187C75.4655 47.1604 75.6306 46.8484 75.842 46.6616C75.842 46.6616 75.9969 46.5215 76.23 46.3114C76.469 46.0953 76.7525 45.8058 77.0378 45.4951C77.3231 45.1856 77.602 44.8583 77.8079 44.604C78.0146 44.3502 78.1462 44.1736 78.1462 44.1736C78.1152 44.1379 78.0842 44.1078 78.0528 44.0772L77.484 44.2784L78.0537 44.0768C77.7395 43.7695 77.425 43.7555 77.1974 44.0687L76.8778 44.4928L76.8812 44.4916C76.8812 44.4916 76.854 44.5264 76.8056 44.5879C76.7585 44.649 76.6885 44.7356 76.5972 44.8396C76.4189 45.0468 76.1782 45.3151 75.9333 45.5698C75.6887 45.8258 75.4404 46.0677 75.2524 46.2431C75.0677 46.4175 74.931 46.533 74.931 46.533C74.6916 46.7418 74.5073 47.0997 74.4055 47.4983C74.3613 47.6953 74.3129 47.9139 74.2858 48.1351C74.2607 48.3562 74.2594 48.5787 74.2866 48.7948V48.796L74.307 48.9578C74.3927 49.9363 74.8809 50.4682 75.406 50.0984Z" fill="#D6D6D6"/>
<path d="M76.6425 54.2025C76.6425 54.2025 77.317 53.7152 77.9916 53.2279C78.6716 52.7494 79.3508 52.271 79.3508 52.271C79.3317 52.2358 79.3101 52.2056 79.2893 52.1742L78.7773 52.2197L79.2901 52.1742C79.0787 51.8643 78.782 51.7709 78.4742 51.9862L78.048 52.2846L78.0514 52.2842C78.0514 52.2842 77.4728 52.6942 76.8942 53.1039C76.3186 53.5199 75.7421 53.9368 75.7421 53.9368C75.4844 54.1261 75.2726 54.506 75.1389 54.9692C75.0077 55.4332 74.9682 55.9884 75.0315 56.5084L75.0319 56.5101L75.9089 56.3904C75.8775 55.4633 76.1806 54.5345 76.6425 54.2025Z" fill="#D6D6D6"/>
<path d="M75.7432 53.9363L75.7623 53.9223C75.6413 53.705 75.5589 53.4125 75.5262 53.0559L75.5088 52.8666C75.4986 52.7494 75.4944 52.6301 75.4953 52.5113H75.4948C75.5025 51.6062 75.8374 50.7012 76.2997 50.3786C76.2997 50.3786 76.9836 49.9027 77.6674 49.4268C78.0096 49.1887 78.3513 48.9509 78.6077 48.7727C78.7372 48.6861 78.8412 48.6046 78.9129 48.5464C78.9855 48.4882 79.0271 48.4551 79.0271 48.4551C79.0063 48.4148 78.9838 48.38 78.9618 48.3452H78.9626C78.7372 47.9907 78.4366 47.9007 78.1374 48.1406L77.7218 48.4653L77.7294 48.4645L77.7252 48.4649C77.7252 48.4649 77.5834 48.571 77.3711 48.7302C77.1529 48.8826 76.863 49.0859 76.5722 49.2889C75.9902 49.6938 75.4078 50.0988 75.4078 50.0988C74.884 50.4626 74.5244 51.574 74.6144 52.5881V52.5898L74.6318 52.78C74.7193 53.7958 75.2282 54.3184 75.7432 53.9363Z" fill="#D6D6D6"/>
<path d="M77.1752 58.0396C77.1752 58.0396 77.3323 57.9029 77.5683 57.6975C77.8026 57.495 78.1214 57.2301 78.4487 56.9699C79.0974 56.4486 79.7515 55.9617 79.7515 55.9617C79.7303 55.9294 79.7074 55.9014 79.6849 55.8734L79.6861 55.873C79.4658 55.5813 79.1665 55.5024 78.8664 55.7274L78.4508 56.0419L78.4542 56.0415C78.4542 56.0415 77.8986 56.4664 77.3471 56.9168C77.072 57.1448 76.7965 57.3732 76.5902 57.5447C76.3886 57.7208 76.2544 57.838 76.2544 57.838C76.0137 58.0515 75.8371 58.4624 75.7484 58.9595C75.6864 59.4634 75.6873 60.0501 75.8597 60.6045L75.8605 60.6062L76.7108 60.3604C76.5215 59.3951 76.7435 58.4106 77.1752 58.0396Z" fill="#D6D6D6"/>
<path d="M76.2537 57.8375L76.2711 57.8223C76.1276 57.607 76.0346 57.3124 75.9765 56.9474L75.9472 56.7534C75.9289 56.6337 75.917 56.5118 75.9102 56.39L75.0332 56.5097L75.0629 56.7075C75.2149 57.7654 75.7714 58.271 76.2537 57.8375Z" fill="#D6D6D6"/>
<path d="M79.1729 59.6489L80.3708 59.3029C80.1102 59.0813 79.8058 59.0419 79.5367 59.2944L79.1729 59.6489Z" fill="#D6D6D6"/>
<path d="M77.3218 61.8088L77.3358 61.7893C77.1652 61.5936 76.9729 61.3028 76.8638 60.9309L76.8039 60.7336C76.767 60.6113 76.736 60.4861 76.7101 60.36L75.8594 60.6058L75.9214 60.8125C76.0754 61.3639 76.3514 61.76 76.6137 61.937C76.8756 62.1157 77.1286 62.0771 77.3218 61.8088Z" fill="#D6D6D6"/>
<path d="M77.1796 63.5085C77.2161 63.6507 77.2666 63.7938 77.3209 63.9377C77.3748 64.0705 77.4309 64.2055 77.4929 64.3375C78.0889 65.4162 78.6611 65.4786 79.1713 65.4786C79.6825 65.4786 80.1749 64.6131 80.4177 64.026C80.1668 64.6351 78.9676 64.9565 78.4365 64.203C78.3249 64.0018 78.2527 63.7814 78.1831 63.5726C78.1148 63.3336 78.0498 63.1056 78.0481 62.8811C78.0277 62.4362 78.0986 62.0622 78.2599 61.8321C78.2599 61.8321 78.3843 61.6585 78.5783 61.4089C78.7723 61.1593 79.0355 60.8375 79.3051 60.5344C79.5691 60.2343 79.8654 59.9354 80.0811 59.7227C80.3001 59.5126 80.4453 59.373 80.4453 59.373C80.4207 59.3466 80.3952 59.325 80.3693 59.3025L79.1752 59.6476C79.1752 59.6476 78.6819 60.1354 78.206 60.68C77.7476 61.2119 77.3205 61.8096 77.3205 61.8096C77.2254 61.9429 77.1494 62.1267 77.1125 62.3445C77.0824 62.5614 77.0824 62.8144 77.1121 63.0874C77.1274 63.2236 77.1494 63.365 77.1796 63.5085Z" fill="#D6D6D6"/>
<path d="M73.73 41.0857L73.6947 41.0458C73.4982 40.8471 73.3619 40.5525 73.3972 40.3704C73.3972 40.3704 73.4124 40.2919 73.4354 40.1747C73.4553 40.0593 73.4795 39.9026 73.5003 39.7434C73.5432 39.4263 73.567 39.0952 73.567 39.0952C73.5771 38.9059 73.797 38.9203 74.0611 39.136L74.1099 39.1763C74.3748 39.3907 74.5357 39.7413 74.5051 39.9183C74.5051 39.9183 74.4482 40.2329 74.3565 40.5483C74.2708 40.8616 74.1706 41.16 74.1706 41.16C74.115 41.3302 73.9155 41.2946 73.73 41.0857Z" fill="white"/>
<path d="M75.7467 44.3141L75.7276 44.2648C75.6342 43.9999 75.6151 43.6786 75.7097 43.5296C75.7097 43.5296 75.8859 43.2711 76.0544 42.9973C76.2234 42.7247 76.3847 42.4382 76.3847 42.4382C76.4743 42.2726 76.6632 42.3694 76.8084 42.6594L76.8351 42.7133C76.979 43.0041 77.0223 43.3636 76.9073 43.519C76.9073 43.519 76.7201 43.7873 76.5265 44.0416C76.3338 44.2975 76.1351 44.5391 76.1351 44.5391C76.023 44.6775 75.8486 44.5747 75.7467 44.3141Z" fill="white"/>
<path d="M76.6704 48.017L76.6641 47.9644C76.6271 47.6868 76.7261 47.3675 76.8521 47.2525C76.8521 47.2525 77.0894 47.0483 77.3259 46.8437C77.5611 46.6285 77.7954 46.4137 77.7954 46.4137C77.9274 46.2859 78.084 46.4264 78.1452 46.7316L78.1566 46.7889C78.2275 47.0941 78.1363 47.438 77.9953 47.5552C77.9953 47.5552 77.744 47.7534 77.4936 47.9521C77.241 48.1414 76.9892 48.3312 76.9892 48.3312C76.8475 48.4373 76.704 48.2955 76.6704 48.017Z" fill="white"/>
<path d="M77.0156 51.8283L77.0113 51.7756C76.9875 51.4959 77.0877 51.1856 77.2337 51.0833L78.2704 50.3794C78.4168 50.2775 78.5544 50.4214 78.5782 50.6999L78.5824 50.7521C78.6057 51.0306 78.506 51.3396 78.3595 51.4415L77.3246 52.1488C77.179 52.2515 77.0385 52.1084 77.0156 51.8283Z" fill="white"/>
<path d="M77.4027 55.6348L77.3963 55.5826C77.3615 55.3032 77.449 54.9904 77.5916 54.8842L78.6125 54.1571C78.7573 54.0531 78.8974 54.1915 78.9258 54.4657L78.9313 54.5166C78.9581 54.7917 78.8744 55.0923 78.7301 55.1992L77.7223 55.9408C77.5805 56.0504 77.4375 55.9137 77.4027 55.6348Z" fill="white"/>
<path d="M78.0786 59.3972L78.0663 59.3462C78.0009 59.072 78.0531 58.7519 78.1834 58.6331C78.1834 58.6331 78.4186 58.4284 78.6538 58.2238C78.8936 58.0239 79.1335 57.8248 79.1335 57.8248C79.2693 57.7115 79.42 57.832 79.4688 58.091L79.4777 58.1398C79.5329 58.3949 79.4794 58.6895 79.3474 58.8092C79.3474 58.8092 79.1169 59.0181 78.886 59.2265C78.6533 59.4396 78.4347 59.6574 78.4347 59.6574C78.3142 59.7835 78.1397 59.6722 78.0786 59.3972Z" fill="white"/>
<path d="M79.4935 62.9329L79.4668 62.8879C79.322 62.6459 79.2796 62.3284 79.3883 62.1755C79.3883 62.1755 79.5665 61.9149 79.7516 61.6687C79.9367 61.4216 80.1277 61.189 80.1277 61.189C80.2351 61.0561 80.4083 61.127 80.5106 61.3422L80.5297 61.383C80.582 61.4912 80.6049 61.619 80.6066 61.7358C80.6151 61.8478 80.5968 61.9535 80.5488 62.0248C80.5488 62.0248 80.3795 62.2732 80.2182 62.5377C80.0564 62.8004 79.904 63.0789 79.904 63.0789C79.8195 63.2394 79.637 63.1761 79.4935 62.9329Z" fill="white"/>
<path d="M60.7408 38.0913C60.6109 37.8035 60.2862 37.4965 59.8706 37.2376C59.4537 36.9833 58.9443 36.7863 58.4362 36.6649L58.2443 36.6229C57.824 36.5363 57.4666 36.5291 57.1983 36.586L57.1988 36.5847C56.8103 36.673 56.5998 36.9184 56.7008 37.2834C56.5505 36.7706 55.8722 36.1823 55.1 35.8049C54.3104 35.4436 53.219 35.9777 53.3111 37.3475C53.4215 38.1872 53.5926 39.0163 53.8702 39.8288C53.8978 39.9098 53.9054 39.9854 53.897 40.0542C54.3563 40.5046 55.0885 40.9291 55.8671 41.1171L55.8688 41.1176L56.0904 41.1753C57.2845 41.4584 58.0388 41.1464 57.7905 40.5301C57.9094 40.8446 58.2617 41.1698 58.7431 41.4313C59.2228 41.6974 59.8264 41.9241 60.4356 41.9878H60.4377L61.1394 37.3352C60.7659 37.4736 60.5901 37.744 60.7408 38.0913Z" fill="#F2F2F2"/>
<path d="M77.4078 39.0821C77.834 38.9916 78.1307 38.8269 78.3149 38.624C78.5183 38.3999 78.5832 38.1286 78.5136 37.8527C78.3697 37.2851 77.9477 36.9026 77.3008 36.4981C77.1662 36.4136 77.0253 36.3287 76.8708 36.2404C76.5919 36.0456 76.1436 35.9399 75.6512 35.9254C75.4045 35.9182 75.1469 35.9343 74.8905 35.9743C74.6353 36.0184 74.3798 36.0795 74.128 36.139L73.9417 36.1899C73.5342 36.3011 73.2273 36.465 73.0333 36.6509L73.0328 36.6501C72.7535 36.9179 72.7085 37.2316 72.9942 37.4927C72.5115 37.086 71.3047 36.8275 70.2982 37.033L70.108 37.0703C69.6852 37.1191 69.3545 37.235 69.1325 37.3891V37.3883C68.8128 37.6103 68.7199 37.913 68.9635 38.2131C68.7559 37.9541 68.3616 37.7661 67.8925 37.6179C67.4209 37.46 66.8771 37.3751 66.3575 37.4023L66.1622 37.4125C65.7356 37.4265 65.3883 37.4838 65.1451 37.6124V37.6116C64.794 37.7899 64.6573 38.0777 64.8543 38.4058C64.6862 38.1223 64.3224 37.8862 63.8762 37.6761C63.4297 37.463 62.9003 37.314 62.3782 37.2788C62.3782 37.2788 62.3294 37.2754 62.2805 37.272C62.2321 37.2656 62.1833 37.2601 62.1833 37.2601C61.7571 37.207 61.4014 37.2401 61.1412 37.3365L60.4395 41.9882L60.667 42.0162C61.8866 42.1818 62.5976 41.7522 62.2657 41.1812C62.5841 41.7505 63.8584 42.324 65.0971 42.3091H65.0988L65.3293 42.3117C65.6371 42.3147 65.9096 42.2909 66.138 42.2404C66.3672 42.1784 66.5519 42.096 66.6839 41.9988C66.9492 41.8044 67.0036 41.5514 66.8002 41.2852C67.198 41.8129 68.5496 42.2281 69.7794 42.0477H69.7815L70.0112 42.0201C70.6242 41.9487 71.0814 41.7815 71.3119 41.5408C71.5454 41.3111 71.5611 41.053 71.3199 40.8174C71.5602 41.053 72.0234 41.219 72.5845 41.295C72.8647 41.3332 73.1691 41.3485 73.4786 41.3391C73.7846 41.3141 74.0937 41.2551 74.3908 41.1749L74.3925 41.174L74.615 41.1129C75.8104 40.7856 76.2952 40.1786 75.7323 39.7617C76.015 39.9739 76.5295 40.0639 77.1195 40.044C76.2306 39.9909 77.4078 39.0821 77.4078 39.0821Z" fill="#F2F2F2"/>
<path d="M77.4714 40.0223C77.3512 40.0346 77.2336 40.041 77.1182 40.0448C77.1449 40.0465 77.1678 40.0499 77.1984 40.0499C77.2948 40.0499 77.3831 40.0355 77.4714 40.0223Z" fill="#F2F2F2"/>
<path d="M55.9709 38.5892L55.9131 38.5743C55.6045 38.4988 55.3248 38.2704 55.2793 38.0985C55.2793 38.0985 55.2076 37.7899 55.1354 37.4817C55.0705 37.1743 55.0051 36.8674 55.0051 36.8674C54.9695 36.6912 55.1681 36.6271 55.4542 36.7103L55.5077 36.726C55.793 36.8118 56.0583 37.0232 56.1025 37.1989C56.1025 37.1989 56.1814 37.5033 56.2595 37.8077C56.3444 38.1133 56.4289 38.4185 56.4289 38.4185C56.482 38.5926 56.2774 38.6694 55.9709 38.5892Z" fill="white"/>
<path d="M60.1939 39.4764L60.1349 39.4671C59.8216 39.4132 59.51 39.2319 59.4416 39.0634C59.4416 39.0634 59.3266 38.7662 59.2124 38.4691C59.1037 38.1732 58.9951 37.8769 58.9951 37.8769C58.9331 37.7088 59.1245 37.6145 59.4208 37.6651L59.4764 37.6744C59.7727 37.7253 60.0669 37.9036 60.1357 38.0726C60.1357 38.0726 60.2546 38.3693 60.3738 38.666C60.5003 38.9568 60.6264 39.2472 60.6264 39.2472C60.7024 39.4127 60.5097 39.5155 60.1939 39.4764Z" fill="white"/>
<path d="M64.5049 39.8419L64.4455 39.8411C64.2863 39.8394 64.1224 39.8058 63.9879 39.754C63.8537 39.6942 63.748 39.6165 63.7017 39.5358C63.7017 39.5358 63.5481 39.2514 63.3935 38.967C63.2458 38.683 63.0981 38.399 63.0981 38.399C63.014 38.2385 63.1906 38.1248 63.4903 38.1456L63.5468 38.1498C63.8465 38.1732 64.1619 38.3184 64.2536 38.4674C64.2536 38.4674 64.4124 38.742 64.5711 39.0167C64.7367 39.2913 64.9014 39.5664 64.9014 39.5664C65.0003 39.7222 64.8237 39.8457 64.5049 39.8419Z" fill="white"/>
<path d="M68.8282 39.6806L68.7692 39.6878C68.4533 39.7299 68.1031 39.6386 67.9889 39.4824C67.9889 39.4824 67.7953 39.2192 67.6013 38.9556C67.4146 38.692 67.2274 38.4283 67.2274 38.4283C67.1212 38.2785 67.2796 38.1452 67.5784 38.1303L67.6349 38.1274C67.9346 38.1184 68.2661 38.2174 68.3786 38.3528C68.3786 38.3528 68.5756 38.6041 68.773 38.8558C68.9767 39.1067 69.1809 39.3576 69.1809 39.3576C69.3011 39.4981 69.1444 39.6433 68.8282 39.6806Z" fill="white"/>
<path d="M73.0883 38.9683L73.031 38.984C72.7245 39.0651 72.3565 38.9929 72.2227 38.8656C72.2227 38.8656 71.9914 38.6316 71.76 38.3977C71.5355 38.1621 71.3105 37.9274 71.3105 37.9274C71.1831 37.7941 71.3194 37.6396 71.6115 37.5831L71.6666 37.5725C71.9587 37.516 72.3038 37.578 72.4388 37.7096C72.4388 37.7096 72.4974 37.7682 72.5853 37.8557C72.6727 37.938 72.7895 38.048 72.9066 38.1579C73.1456 38.3765 73.3855 38.5947 73.3855 38.5947C73.526 38.717 73.3939 38.8842 73.0883 38.9683Z" fill="white"/>
<path d="M77.185 37.6714L77.1294 37.6914C76.8327 37.8001 76.4659 37.7992 76.3131 37.6893C76.3131 37.6893 76.0495 37.4923 75.7854 37.2957C75.5282 37.0966 75.2709 36.8976 75.2709 36.8976C75.1249 36.7851 75.234 36.6102 75.5116 36.5087L75.5638 36.4896C75.8415 36.3877 76.1896 36.3949 76.3428 36.5053C76.3428 36.5053 76.6115 36.7006 76.8802 36.8954C77.1549 37.0882 77.43 37.2809 77.43 37.2809C77.5904 37.3887 77.4822 37.5628 77.185 37.6714Z" fill="white"/>
<path d="M59.1677 40.556C58.7784 40.3127 58.4953 40.0359 58.3883 39.7694C58.3883 39.7694 58.0754 38.9619 57.8089 38.1643C57.6743 37.7648 57.5478 37.3705 57.4591 37.0699C57.3737 36.7668 57.3169 36.5652 57.3169 36.5652C57.2748 36.5711 57.2366 36.58 57.198 36.589L57.0282 37.1701L57.1984 36.5881C56.8113 36.6764 56.5999 36.9197 56.7009 37.2847L56.8457 37.7907L56.8469 37.7878C56.8469 37.7878 56.8987 37.9601 56.9764 38.2195C57.0554 38.4818 57.167 38.8214 57.2863 39.1615C57.5223 39.8424 57.7914 40.5313 57.7914 40.5313C57.9103 40.8459 58.2627 41.1711 58.744 41.4326C59.2237 41.6987 59.8274 41.9254 60.4365 41.9891H60.4387L60.5711 41.1125C60.0498 41.0127 59.5557 40.8017 59.1677 40.556Z" fill="#D6D6D6"/>
<path d="M57.782 40.508C57.5018 40.5462 57.1444 40.5262 56.7347 40.4367L56.517 40.3861C56.3837 40.3518 56.2504 40.3102 56.1192 40.2643C55.1144 39.9247 54.2667 39.2264 54.1368 38.6639C54.1368 38.6639 54.102 38.5204 54.0514 38.2971C53.93 37.7682 53.7993 35.6873 54.5345 35.6983C54.5345 35.6983 53.8702 35.6754 53.5705 36.012C53.2712 36.3491 52.9821 36.9638 53.2568 38.5811C53.3489 39.0158 53.4304 39.3478 53.4304 39.3478C53.5785 39.988 54.675 40.8297 55.867 41.118L55.8687 41.1184L56.0899 41.1761C57.2841 41.4593 58.0384 41.1473 57.7901 40.5309L57.782 40.508Z" fill="#D6D6D6"/>
<path d="M62.2524 41.1605C61.9782 41.2441 61.6212 41.2619 61.2039 41.2071L60.9823 41.1804C60.8452 41.1634 60.7076 41.1397 60.5709 41.1116L60.4385 41.9882L60.6656 42.0163C61.8852 42.1818 62.5962 41.7522 62.2643 41.1813L62.2524 41.1605Z" fill="#D6D6D6"/>
<path d="M66.7845 41.2657C66.5239 41.3697 66.1719 41.4644 65.7496 41.4495L65.5254 41.447C65.3862 41.4457 65.2465 41.4376 65.1069 41.4241C64.5758 41.3672 64.0532 41.2598 63.6347 41.0496C63.2157 40.8467 62.8969 40.6005 62.7547 40.3458C62.7547 40.3458 62.6515 40.1586 62.497 39.8767C62.345 39.5919 62.1464 39.2289 61.96 38.8392C61.5839 38.0671 61.2557 37.3 61.2557 37.3C61.2141 37.311 61.1776 37.3255 61.1407 37.339L61.1131 37.5233L61.1411 37.3382C60.7671 37.4766 60.5905 37.7449 60.7412 38.0917L60.9548 38.5727L60.9552 38.5697C60.9552 38.5697 61.2494 39.2238 61.5779 39.8827C61.9023 40.5496 62.2656 41.1821 62.2656 41.1821C62.584 41.7514 63.8584 42.3249 65.0971 42.31H65.0988L65.3289 42.3125C65.6366 42.3155 65.9092 42.2917 66.138 42.2412C66.3668 42.1793 66.5514 42.0969 66.6835 41.9997C66.9488 41.8053 67.0031 41.5523 66.7998 41.2861L66.7845 41.2657Z" fill="#D6D6D6"/>
<path d="M73.3494 40.4103C73.0904 40.4137 72.8349 40.3789 72.6035 40.3377C72.1387 40.2511 71.7596 40.0962 71.5482 39.8873C71.5482 39.8873 70.9225 39.2756 70.3485 38.6457C69.764 37.9894 69.2321 37.3263 69.2321 37.3263C69.196 37.3467 69.1646 37.3692 69.1332 37.3908L69.227 38.0645L69.1332 37.39C68.8148 37.6116 68.7201 37.9125 68.9634 38.2127L69.3051 38.627L69.3047 38.6236C69.3047 38.6236 69.7733 39.186 70.281 39.7438C70.534 40.027 70.7926 40.2978 70.9887 40.4901C71.1874 40.6867 71.3194 40.8174 71.3194 40.8174C71.5597 41.053 72.0228 41.219 72.584 41.295C72.8641 41.3332 73.1685 41.3485 73.478 41.3391C73.7841 41.3141 74.0931 41.2551 74.3902 41.1749L74.3919 41.174L74.136 40.3216C73.8736 40.3713 73.607 40.4006 73.3494 40.4103Z" fill="#D6D6D6"/>
<path d="M71.3005 40.8001C71.1799 40.8726 71.0348 40.9393 70.8684 40.9983C70.7007 41.0526 70.5092 41.084 70.2999 41.1112L70.0767 41.138C69.9387 41.1545 69.7986 41.1647 69.6581 41.1694C69.1224 41.1825 68.5875 41.1431 68.1418 40.9902C67.6956 40.84 67.3437 40.6332 67.1662 40.3976C67.1662 40.3976 66.6394 39.7031 66.1644 39.0069C65.9254 38.6593 65.6958 38.2853 65.5276 38.0166C65.3625 37.7445 65.2526 37.5632 65.2526 37.5632C65.2135 37.5785 65.1791 37.5967 65.1447 37.6146V37.6133C64.795 37.7916 64.657 38.0777 64.854 38.4054L65.132 38.8601V38.8567C65.132 38.8567 65.5141 39.4743 65.9331 40.0924C66.1411 40.4053 66.3563 40.6893 66.5218 40.9151C66.6887 41.1367 66.7995 41.2848 66.7995 41.2848C67.1972 41.8125 68.5488 42.2277 69.7786 42.0472H69.7808L70.01 42.0197C70.623 41.9483 71.0798 41.7811 71.3107 41.5404C71.5442 41.3107 71.5599 41.0526 71.3188 40.817L71.3005 40.8001Z" fill="#D6D6D6"/>
<path d="M73.394 37.8527L73.0332 36.6522C72.7547 36.9192 72.7085 37.2321 72.9933 37.4927L73.394 37.8527Z" fill="#D6D6D6"/>
<path d="M75.731 39.7625L75.7107 39.7473C75.4891 39.909 75.1669 40.0567 74.7602 40.1692L74.5441 40.2286C74.4104 40.2656 74.2733 40.2961 74.1357 40.322L74.3917 41.1749L74.6137 41.1137C75.8091 40.786 76.2939 40.1794 75.731 39.7625Z" fill="#D6D6D6"/>
<path d="M78.7132 38.2849C78.5803 37.3556 77.8256 36.864 77.8256 36.864L77.8251 36.8674C78.1762 37.1531 78.4139 37.4579 78.5137 37.8523C78.5833 38.1282 78.5188 38.3995 78.315 38.6236C78.135 38.8219 77.8459 38.9827 77.435 39.0744C76.7511 39.1305 76.1343 39.0456 75.8134 38.8091C75.8134 38.8091 75.6381 38.6796 75.3749 38.4861C75.1104 38.2806 74.7619 37.9992 74.4248 37.7164C73.7465 37.1518 73.1216 36.5737 73.1216 36.5737C73.0894 36.5991 73.0618 36.6259 73.0342 36.6526L73.3937 37.8493C73.3937 37.8493 73.9422 38.3371 74.5289 38.8151C75.1117 39.2943 75.7323 39.7617 75.7323 39.7617C76.0125 39.9723 76.5215 40.0606 77.1056 40.0419C77.1107 40.0423 77.1141 40.0436 77.1192 40.044C77.2347 40.0402 77.3522 40.0342 77.4724 40.0215C77.4804 40.0202 77.4889 40.0202 77.497 40.019C77.5276 40.0156 77.559 40.0092 77.59 40.0054C78.0663 39.898 78.4105 39.5944 78.5893 39.1975C78.7115 38.9263 78.7603 38.6126 78.7132 38.2849Z" fill="#D6D6D6"/>
<path d="M136.906 141.603H96.0098V148.834H136.906V141.603Z" fill="#FFC010"/>
<g opacity="0.75">
<path opacity="0.5" d="M136.062 141.603H135.579V148.834H136.062V141.603Z" fill="#C4C4C4"/>
<path opacity="0.5" d="M134.771 141.603H134.288V148.834H134.771V141.603Z" fill="#C4C4C4"/>
<path opacity="0.5" d="M133.48 141.603H132.997V148.834H133.48V141.603Z" fill="#C4C4C4"/>
<path opacity="0.5" d="M132.189 141.603H131.706V148.834H132.189V141.603Z" fill="#C4C4C4"/>
<path opacity="0.5" d="M130.899 141.603H130.416V148.834H130.899V141.603Z" fill="#C4C4C4"/>
<path opacity="0.5" d="M129.608 141.603H129.125V148.834H129.608V141.603Z" fill="#C4C4C4"/>
<path opacity="0.5" d="M128.317 141.603H127.834V148.834H128.317V141.603Z" fill="#C4C4C4"/>
<path opacity="0.5" d="M127.026 141.603H126.543V148.834H127.026V141.603Z" fill="#C4C4C4"/>
<path opacity="0.5" d="M125.735 141.603H125.252V148.834H125.735V141.603Z" fill="#C4C4C4"/>
<path opacity="0.5" d="M124.444 141.603H123.961V148.834H124.444V141.603Z" fill="#C4C4C4"/>
<path opacity="0.5" d="M123.153 141.603H122.67V148.834H123.153V141.603Z" fill="#C4C4C4"/>
<path opacity="0.5" d="M121.863 141.603H121.38V148.834H121.863V141.603Z" fill="#C4C4C4"/>
<path opacity="0.5" d="M120.572 141.603H120.089V148.834H120.572V141.603Z" fill="#C4C4C4"/>
<path opacity="0.5" d="M119.281 141.603H118.798V148.834H119.281V141.603Z" fill="#C4C4C4"/>
<path opacity="0.5" d="M117.99 141.603H117.507V148.834H117.99V141.603Z" fill="#C4C4C4"/>
<path opacity="0.5" d="M116.699 141.603H116.216V148.834H116.699V141.603Z" fill="#C4C4C4"/>
<path opacity="0.5" d="M115.408 141.603H114.925V148.834H115.408V141.603Z" fill="#C4C4C4"/>
<path opacity="0.5" d="M114.117 141.603H113.635V148.834H114.117V141.603Z" fill="#C4C4C4"/>
<path opacity="0.5" d="M112.826 141.603H112.344V148.834H112.826V141.603Z" fill="#C4C4C4"/>
<path opacity="0.5" d="M111.535 141.603H111.053V148.834H111.535V141.603Z" fill="#C4C4C4"/>
<path opacity="0.5" d="M110.245 141.603H109.762V148.834H110.245V141.603Z" fill="#C4C4C4"/>
<path opacity="0.5" d="M108.954 141.603H108.471V148.834H108.954V141.603Z" fill="#C4C4C4"/>
<path opacity="0.5" d="M107.663 141.603H107.18V148.834H107.663V141.603Z" fill="#C4C4C4"/>
<path opacity="0.5" d="M106.372 141.603H105.889V148.834H106.372V141.603Z" fill="#C4C4C4"/>
<path opacity="0.5" d="M105.081 141.603H104.598V148.834H105.081V141.603Z" fill="#C4C4C4"/>
<path opacity="0.5" d="M103.79 141.603H103.307V148.834H103.79V141.603Z" fill="#C4C4C4"/>
<path opacity="0.5" d="M102.499 141.603H102.017V148.834H102.499V141.603Z" fill="#C4C4C4"/>
<path opacity="0.5" d="M101.209 141.603H100.726V148.834H101.209V141.603Z" fill="#C4C4C4"/>
<path opacity="0.5" d="M99.9177 141.603H99.4346V148.834H99.9177V141.603Z" fill="#C4C4C4"/>
<path opacity="0.5" d="M98.6266 141.603H98.1436V148.834H98.6266V141.603Z" fill="#C4C4C4"/>
<path opacity="0.5" d="M97.3356 141.603H96.8525V148.834H97.3356V141.603Z" fill="#C4C4C4"/>
</g>
<path opacity="0.5" d="M134.665 144.934H109.622C109.038 144.934 108.565 144.461 108.565 143.878C108.565 143.295 109.038 142.822 109.622 142.822H134.665C135.248 142.822 135.721 143.295 135.721 143.878C135.721 144.461 135.248 144.934 134.665 144.934Z" fill="white"/>
<path d="M136.907 147.25H96.0107V148.834H136.907V147.25Z" fill="#E2A60E"/>
<path opacity="0.5" d="M101.599 141.603H98.1201V148.834H101.599V141.603Z" fill="#F2F2F2"/>
<path opacity="0.5" d="M106.238 141.603H103.484V148.834H106.238V141.603Z" fill="#F2F2F2"/>
<path d="M142.857 134.363H101.961V141.594H142.857V134.363Z" fill="#FFC010"/>
<g opacity="0.75">
<path opacity="0.5" d="M142.013 134.363H141.53V141.594H142.013V134.363Z" fill="#C4C4C4"/>
<path opacity="0.5" d="M140.722 134.363H140.239V141.594H140.722V134.363Z" fill="#C4C4C4"/>
<path opacity="0.5" d="M139.432 134.363H138.949V141.594H139.432V134.363Z" fill="#C4C4C4"/>
<path opacity="0.5" d="M138.141 134.363H137.658V141.594H138.141V134.363Z" fill="#C4C4C4"/>
<path opacity="0.5" d="M136.85 134.363H136.367V141.594H136.85V134.363Z" fill="#C4C4C4"/>
<path opacity="0.5" d="M135.559 134.363H135.076V141.594H135.559V134.363Z" fill="#C4C4C4"/>
<path opacity="0.5" d="M134.268 134.363H133.785V141.594H134.268V134.363Z" fill="#C4C4C4"/>
<path opacity="0.5" d="M132.977 134.363H132.494V141.594H132.977V134.363Z" fill="#C4C4C4"/>
<path opacity="0.5" d="M131.686 134.363H131.203V141.594H131.686V134.363Z" fill="#C4C4C4"/>
<path opacity="0.5" d="M130.395 134.363H129.912V141.594H130.395V134.363Z" fill="#C4C4C4"/>
<path opacity="0.5" d="M129.104 134.363H128.621V141.594H129.104V134.363Z" fill="#C4C4C4"/>
<path opacity="0.5" d="M127.813 134.363H127.33V141.594H127.813V134.363Z" fill="#C4C4C4"/>
<path opacity="0.5" d="M126.522 134.363H126.039V141.594H126.522V134.363Z" fill="#C4C4C4"/>
<path opacity="0.5" d="M125.232 134.363H124.749V141.594H125.232V134.363Z" fill="#C4C4C4"/>
<path opacity="0.5" d="M123.941 134.363H123.458V141.594H123.941V134.363Z" fill="#C4C4C4"/>
<path opacity="0.5" d="M122.65 134.363H122.167V141.594H122.65V134.363Z" fill="#C4C4C4"/>
<path opacity="0.5" d="M121.359 134.363H120.876V141.594H121.359V134.363Z" fill="#C4C4C4"/>
<path opacity="0.5" d="M120.068 134.363H119.585V141.594H120.068V134.363Z" fill="#C4C4C4"/>
<path opacity="0.5" d="M118.777 134.363H118.294V141.594H118.777V134.363Z" fill="#C4C4C4"/>
<path opacity="0.5" d="M117.486 134.363H117.003V141.594H117.486V134.363Z" fill="#C4C4C4"/>
<path opacity="0.5" d="M116.196 134.363H115.713V141.594H116.196V134.363Z" fill="#C4C4C4"/>
<path opacity="0.5" d="M114.905 134.363H114.422V141.594H114.905V134.363Z" fill="#C4C4C4"/>
<path opacity="0.5" d="M113.614 134.363H113.131V141.594H113.614V134.363Z" fill="#C4C4C4"/>
<path opacity="0.5" d="M112.323 134.363H111.84V141.594H112.323V134.363Z" fill="#C4C4C4"/>
<path opacity="0.5" d="M111.031 134.363H110.549V141.594H111.031V134.363Z" fill="#C4C4C4"/>
<path opacity="0.5" d="M109.741 134.363H109.258V141.594H109.741V134.363Z" fill="#C4C4C4"/>
<path opacity="0.5" d="M108.451 134.363H107.968V141.594H108.451V134.363Z" fill="#C4C4C4"/>
<path opacity="0.5" d="M107.16 134.363H106.677V141.594H107.16V134.363Z" fill="#C4C4C4"/>
<path opacity="0.5" d="M105.869 134.363H105.386V141.594H105.869V134.363Z" fill="#C4C4C4"/>
<path opacity="0.5" d="M104.578 134.363H104.095V141.594H104.578V134.363Z" fill="#C4C4C4"/>
<path opacity="0.5" d="M103.287 134.363H102.804V141.594H103.287V134.363Z" fill="#C4C4C4"/>
</g>
<path opacity="0.5" d="M140.615 137.693H115.572C114.989 137.693 114.516 137.22 114.516 136.637C114.516 136.053 114.989 135.581 115.572 135.581H140.615C141.198 135.581 141.671 136.053 141.671 136.637C141.672 137.22 141.198 137.693 140.615 137.693Z" fill="white"/>
<path d="M142.856 140.009H101.96V141.593H142.856V140.009Z" fill="#E2A60E"/>
<path opacity="0.5" d="M107.548 134.363H104.068V141.594H107.548V134.363Z" fill="#F2F2F2"/>
<path opacity="0.5" d="M112.187 134.363H109.434V141.594H112.187V134.363Z" fill="#F2F2F2"/>
<path d="M133.278 127.122H92.3818V134.353H133.278V127.122Z" fill="#FFC010"/>
<g opacity="0.75">
<path opacity="0.5" d="M132.434 127.122H131.951V134.353H132.434V127.122Z" fill="#C4C4C4"/>
<path opacity="0.5" d="M131.143 127.122H130.66V134.353H131.143V127.122Z" fill="#C4C4C4"/>
<path opacity="0.5" d="M129.852 127.122H129.369V134.353H129.852V127.122Z" fill="#C4C4C4"/>
<path opacity="0.5" d="M128.561 127.122H128.078V134.353H128.561V127.122Z" fill="#C4C4C4"/>
<path opacity="0.5" d="M127.271 127.122H126.788V134.353H127.271V127.122Z" fill="#C4C4C4"/>
<path opacity="0.5" d="M125.98 127.122H125.497V134.353H125.98V127.122Z" fill="#C4C4C4"/>
<path opacity="0.5" d="M124.69 127.122H124.207V134.353H124.69V127.122Z" fill="#C4C4C4"/>
<path opacity="0.5" d="M123.399 127.122H122.916V134.353H123.399V127.122Z" fill="#C4C4C4"/>
<path opacity="0.5" d="M122.108 127.122H121.625V134.353H122.108V127.122Z" fill="#C4C4C4"/>
<path opacity="0.5" d="M120.817 127.122H120.334V134.353H120.817V127.122Z" fill="#C4C4C4"/>
<path opacity="0.5" d="M119.526 127.122H119.043V134.353H119.526V127.122Z" fill="#C4C4C4"/>
<path opacity="0.5" d="M118.235 127.122H117.752V134.353H118.235V127.122Z" fill="#C4C4C4"/>
<path opacity="0.5" d="M116.945 127.122H116.462V134.353H116.945V127.122Z" fill="#C4C4C4"/>
<path opacity="0.5" d="M115.654 127.122H115.171V134.353H115.654V127.122Z" fill="#C4C4C4"/>
<path opacity="0.5" d="M114.363 127.122H113.88V134.353H114.363V127.122Z" fill="#C4C4C4"/>
<path opacity="0.5" d="M113.072 127.122H112.589V134.353H113.072V127.122Z" fill="#C4C4C4"/>
<path opacity="0.5" d="M111.781 127.122H111.298V134.353H111.781V127.122Z" fill="#C4C4C4"/>
<path opacity="0.5" d="M110.49 127.122H110.007V134.353H110.49V127.122Z" fill="#C4C4C4"/>
<path opacity="0.5" d="M109.199 127.122H108.716V134.353H109.199V127.122Z" fill="#C4C4C4"/>
<path opacity="0.5" d="M107.908 127.122H107.425V134.353H107.908V127.122Z" fill="#C4C4C4"/>
<path opacity="0.5" d="M106.618 127.122H106.135V134.353H106.618V127.122Z" fill="#C4C4C4"/>
<path opacity="0.5" d="M105.327 127.122H104.844V134.353H105.327V127.122Z" fill="#C4C4C4"/>
<path opacity="0.5" d="M104.036 127.122H103.553V134.353H104.036V127.122Z" fill="#C4C4C4"/>
<path opacity="0.5" d="M102.745 127.122H102.262V134.353H102.745V127.122Z" fill="#C4C4C4"/>
<path opacity="0.5" d="M101.454 127.122H100.971V134.353H101.454V127.122Z" fill="#C4C4C4"/>
<path opacity="0.5" d="M100.163 127.122H99.6797V134.353H100.163V127.122Z" fill="#C4C4C4"/>
<path opacity="0.5" d="M98.8718 127.122H98.3887V134.353H98.8718V127.122Z" fill="#C4C4C4"/>
<path opacity="0.5" d="M97.5813 127.122H97.0986V134.353H97.5813V127.122Z" fill="#C4C4C4"/>
<path opacity="0.5" d="M96.2903 127.122H95.8076V134.353H96.2903V127.122Z" fill="#C4C4C4"/>
<path opacity="0.5" d="M94.9997 127.122H94.5166V134.353H94.9997V127.122Z" fill="#C4C4C4"/>
<path opacity="0.5" d="M93.7087 127.122H93.2256V134.353H93.7087V127.122Z" fill="#C4C4C4"/>
</g>
<path opacity="0.5" d="M131.037 130.453H105.994C105.41 130.453 104.938 129.98 104.938 129.396C104.938 128.813 105.41 128.34 105.994 128.34H131.037C131.62 128.34 132.093 128.813 132.093 129.396C132.093 129.979 131.62 130.453 131.037 130.453Z" fill="white"/>
<path d="M133.277 132.768H92.3809V134.353H133.277V132.768Z" fill="#E2A60E"/>
<path opacity="0.5" d="M97.9691 127.122H94.4902V134.353H97.9691V127.122Z" fill="#F2F2F2"/>
<path opacity="0.5" d="M102.609 127.122H99.8555V134.353H102.609V127.122Z" fill="#F2F2F2"/>
<path d="M139.687 119.881H98.791V127.112H139.687V119.881Z" fill="#FFC010"/>
<g opacity="0.75">
<path opacity="0.5" d="M138.844 119.881H138.361V127.112H138.844V119.881Z" fill="#C4C4C4"/>
<path opacity="0.5" d="M137.553 119.881H137.07V127.112H137.553V119.881Z" fill="#C4C4C4"/>
<path opacity="0.5" d="M136.262 119.881H135.779V127.112H136.262V119.881Z" fill="#C4C4C4"/>
<path opacity="0.5" d="M134.971 119.881H134.488V127.112H134.971V119.881Z" fill="#C4C4C4"/>
<path opacity="0.5" d="M133.681 119.881H133.198V127.112H133.681V119.881Z" fill="#C4C4C4"/>
<path opacity="0.5" d="M132.39 119.881H131.907V127.112H132.39V119.881Z" fill="#C4C4C4"/>
<path opacity="0.5" d="M131.099 119.881H130.616V127.112H131.099V119.881Z" fill="#C4C4C4"/>
<path opacity="0.5" d="M129.808 119.881H129.325V127.112H129.808V119.881Z" fill="#C4C4C4"/>
<path opacity="0.5" d="M128.517 119.881H128.034V127.112H128.517V119.881Z" fill="#C4C4C4"/>
<path opacity="0.5" d="M127.226 119.881H126.743V127.112H127.226V119.881Z" fill="#C4C4C4"/>
<path opacity="0.5" d="M125.935 119.881H125.452V127.112H125.935V119.881Z" fill="#C4C4C4"/>
<path opacity="0.5" d="M124.644 119.881H124.161V127.112H124.644V119.881Z" fill="#C4C4C4"/>
<path opacity="0.5" d="M123.354 119.881H122.871V127.112H123.354V119.881Z" fill="#C4C4C4"/>
<path opacity="0.5" d="M122.063 119.881H121.58V127.112H122.063V119.881Z" fill="#C4C4C4"/>
<path opacity="0.5" d="M120.772 119.881H120.289V127.112H120.772V119.881Z" fill="#C4C4C4"/>
<path opacity="0.5" d="M119.481 119.881H118.998V127.112H119.481V119.881Z" fill="#C4C4C4"/>
<path opacity="0.5" d="M118.19 119.881H117.707V127.112H118.19V119.881Z" fill="#C4C4C4"/>
<path opacity="0.5" d="M116.899 119.881H116.416V127.112H116.899V119.881Z" fill="#C4C4C4"/>
<path opacity="0.5" d="M115.608 119.881H115.125V127.112H115.608V119.881Z" fill="#C4C4C4"/>
<path opacity="0.5" d="M114.317 119.881H113.834V127.112H114.317V119.881Z" fill="#C4C4C4"/>
<path opacity="0.5" d="M113.027 119.881H112.544V127.112H113.027V119.881Z" fill="#C4C4C4"/>
<path opacity="0.5" d="M111.736 119.881H111.253V127.112H111.736V119.881Z" fill="#C4C4C4"/>
<path opacity="0.5" d="M110.445 119.881H109.962V127.112H110.445V119.881Z" fill="#C4C4C4"/>
<path opacity="0.5" d="M109.154 119.881H108.671V127.112H109.154V119.881Z" fill="#C4C4C4"/>
<path opacity="0.5" d="M107.863 119.881H107.38V127.112H107.863V119.881Z" fill="#C4C4C4"/>
<path opacity="0.5" d="M106.572 119.881H106.089V127.112H106.572V119.881Z" fill="#C4C4C4"/>
<path opacity="0.5" d="M105.281 119.881H104.798V127.112H105.281V119.881Z" fill="#C4C4C4"/>
<path opacity="0.5" d="M103.99 119.881H103.508V127.112H103.99V119.881Z" fill="#C4C4C4"/>
<path opacity="0.5" d="M102.699 119.881H102.217V127.112H102.699V119.881Z" fill="#C4C4C4"/>
<path opacity="0.5" d="M101.408 119.881H100.926V127.112H101.408V119.881Z" fill="#C4C4C4"/>
<path opacity="0.5" d="M100.118 119.881H99.6348V127.112H100.118V119.881Z" fill="#C4C4C4"/>
</g>
<path opacity="0.5" d="M137.446 123.212H112.403C111.82 123.212 111.347 122.739 111.347 122.155C111.347 121.572 111.82 121.099 112.403 121.099H137.446C138.029 121.099 138.502 121.572 138.502 122.155C138.502 122.739 138.029 123.212 137.446 123.212Z" fill="white"/>
<path d="M139.686 125.527H98.79V127.112H139.686V125.527Z" fill="#E2A60E"/>
<path opacity="0.5" d="M104.378 119.881H100.899V127.112H104.378V119.881Z" fill="#F2F2F2"/>
<path opacity="0.5" d="M109.017 119.881H106.264V127.112H109.017V119.881Z" fill="#F2F2F2"/>
<path d="M146.97 112.64H106.074V119.871H146.97V112.64Z" fill="#FFC010"/>
<g opacity="0.75">
<path opacity="0.5" d="M146.126 112.64H145.644V119.871H146.126V112.64Z" fill="#C4C4C4"/>
<path opacity="0.5" d="M144.837 112.64H144.354V119.871H144.837V112.64Z" fill="#C4C4C4"/>
<path opacity="0.5" d="M143.546 112.64H143.062V119.871H143.546V112.64Z" fill="#C4C4C4"/>
<path opacity="0.5" d="M142.255 112.64H141.771V119.871H142.255V112.64Z" fill="#C4C4C4"/>
<path opacity="0.5" d="M140.964 112.64H140.48V119.871H140.964V112.64Z" fill="#C4C4C4"/>
<path opacity="0.5" d="M139.673 112.64H139.189V119.871H139.673V112.64Z" fill="#C4C4C4"/>
<path opacity="0.5" d="M138.382 112.64H137.898V119.871H138.382V112.64Z" fill="#C4C4C4"/>
<path opacity="0.5" d="M137.09 112.64H136.607V119.871H137.09V112.64Z" fill="#C4C4C4"/>
<path opacity="0.5" d="M135.8 112.64H135.317V119.871H135.8V112.64Z" fill="#C4C4C4"/>
<path opacity="0.5" d="M134.509 112.64H134.026V119.871H134.509V112.64Z" fill="#C4C4C4"/>
<path opacity="0.5" d="M133.218 112.64H132.735V119.871H133.218V112.64Z" fill="#C4C4C4"/>
<path opacity="0.5" d="M131.927 112.64H131.444V119.871H131.927V112.64Z" fill="#C4C4C4"/>
<path opacity="0.5" d="M130.636 112.64H130.153V119.871H130.636V112.64Z" fill="#C4C4C4"/>
<path opacity="0.5" d="M129.345 112.64H128.862V119.871H129.345V112.64Z" fill="#C4C4C4"/>
<path opacity="0.5" d="M128.054 112.64H127.571V119.871H128.054V112.64Z" fill="#C4C4C4"/>
<path opacity="0.5" d="M126.764 112.64H126.281V119.871H126.764V112.64Z" fill="#C4C4C4"/>
<path opacity="0.5" d="M125.473 112.64H124.99V119.871H125.473V112.64Z" fill="#C4C4C4"/>
<path opacity="0.5" d="M124.182 112.64H123.699V119.871H124.182V112.64Z" fill="#C4C4C4"/>
<path opacity="0.5" d="M122.891 112.64H122.408V119.871H122.891V112.64Z" fill="#C4C4C4"/>
<path opacity="0.5" d="M121.6 112.64H121.117V119.871H121.6V112.64Z" fill="#C4C4C4"/>
<path opacity="0.5" d="M120.309 112.64H119.826V119.871H120.309V112.64Z" fill="#C4C4C4"/>
<path opacity="0.5" d="M119.018 112.64H118.535V119.871H119.018V112.64Z" fill="#C4C4C4"/>
<path opacity="0.5" d="M117.727 112.64H117.244V119.871H117.727V112.64Z" fill="#C4C4C4"/>
<path opacity="0.5" d="M116.437 112.64H115.954V119.871H116.437V112.64Z" fill="#C4C4C4"/>
<path opacity="0.5" d="M115.146 112.64H114.663V119.871H115.146V112.64Z" fill="#C4C4C4"/>
<path opacity="0.5" d="M113.855 112.64H113.372V119.871H113.855V112.64Z" fill="#C4C4C4"/>
<path opacity="0.5" d="M112.564 112.64H112.081V119.871H112.564V112.64Z" fill="#C4C4C4"/>
<path opacity="0.5" d="M111.273 112.64H110.79V119.871H111.273V112.64Z" fill="#C4C4C4"/>
<path opacity="0.5" d="M109.982 112.64H109.499V119.871H109.982V112.64Z" fill="#C4C4C4"/>
<path opacity="0.5" d="M108.691 112.64H108.208V119.871H108.691V112.64Z" fill="#C4C4C4"/>
<path opacity="0.5" d="M107.4 112.64H106.917V119.871H107.4V112.64Z" fill="#C4C4C4"/>
</g>
<path opacity="0.5" d="M144.729 115.971H119.686C119.103 115.971 118.63 115.498 118.63 114.914C118.63 114.331 119.103 113.858 119.686 113.858H144.729C145.313 113.858 145.785 114.331 145.785 114.914C145.785 115.498 145.313 115.971 144.729 115.971Z" fill="white"/>
<path d="M146.97 118.286H106.074V119.871H146.97V118.286Z" fill="#E2A60E"/>
<path opacity="0.5" d="M111.662 112.64H108.183V119.871H111.662V112.64Z" fill="#F2F2F2"/>
<path opacity="0.5" d="M116.301 112.64H113.548V119.871H116.301V112.64Z" fill="#F2F2F2"/>
<path d="M86.3266 141.603H45.4307V148.834H86.3266V141.603Z" fill="#FFC010"/>
<g opacity="0.75">
<path opacity="0.5" d="M85.4841 141.603H85.001V148.834H85.4841V141.603Z" fill="#C4C4C4"/>
<path opacity="0.5" d="M84.1921 141.603H83.709V148.834H84.1921V141.603Z" fill="#C4C4C4"/>
<path opacity="0.5" d="M82.9011 141.603H82.418V148.834H82.9011V141.603Z" fill="#C4C4C4"/>
<path opacity="0.5" d="M81.61 141.603H81.127V148.834H81.61V141.603Z" fill="#C4C4C4"/>
<path opacity="0.5" d="M80.32 141.603H79.8369V148.834H80.32V141.603Z" fill="#C4C4C4"/>
<path opacity="0.5" d="M79.029 141.603H78.5459V148.834H79.029V141.603Z" fill="#C4C4C4"/>
<path opacity="0.5" d="M77.7385 141.603H77.2559V148.834H77.7385V141.603Z" fill="#C4C4C4"/>
<path opacity="0.5" d="M76.4475 141.603H75.9648V148.834H76.4475V141.603Z" fill="#C4C4C4"/>
<path opacity="0.5" d="M75.1569 141.603H74.6738V148.834H75.1569V141.603Z" fill="#C4C4C4"/>
<path opacity="0.5" d="M73.8659 141.603H73.3828V148.834H73.8659V141.603Z" fill="#C4C4C4"/>
<path opacity="0.5" d="M72.5749 141.603H72.0918V148.834H72.5749V141.603Z" fill="#C4C4C4"/>
<path opacity="0.5" d="M71.2839 141.603H70.8008V148.834H71.2839V141.603Z" fill="#C4C4C4"/>
<path opacity="0.5" d="M69.9929 141.603H69.5098V148.834H69.9929V141.603Z" fill="#C4C4C4"/>
<path opacity="0.5" d="M68.7018 141.603H68.2188V148.834H68.7018V141.603Z" fill="#C4C4C4"/>
<path opacity="0.5" d="M67.4114 141.603H66.9287V148.834H67.4114V141.603Z" fill="#C4C4C4"/>
<path opacity="0.5" d="M66.1204 141.603H65.6377V148.834H66.1204V141.603Z" fill="#C4C4C4"/>
<path opacity="0.5" d="M64.8298 141.603H64.3467V148.834H64.8298V141.603Z" fill="#C4C4C4"/>
<path opacity="0.5" d="M63.5388 141.603H63.0557V148.834H63.5388V141.603Z" fill="#C4C4C4"/>
<path opacity="0.5" d="M62.2477 141.603H61.7646V148.834H62.2477V141.603Z" fill="#C4C4C4"/>
<path opacity="0.5" d="M60.9567 141.603H60.4736V148.834H60.9567V141.603Z" fill="#C4C4C4"/>
<path opacity="0.5" d="M59.6657 141.603H59.1826V148.834H59.6657V141.603Z" fill="#C4C4C4"/>
<path opacity="0.5" d="M58.3747 141.603H57.8916V148.834H58.3747V141.603Z" fill="#C4C4C4"/>
<path opacity="0.5" d="M57.0842 141.603H56.6016V148.834H57.0842V141.603Z" fill="#C4C4C4"/>
<path opacity="0.5" d="M55.7936 141.603H55.3105V148.834H55.7936V141.603Z" fill="#C4C4C4"/>
<path opacity="0.5" d="M54.5026 141.603H54.0195V148.834H54.5026V141.603Z" fill="#C4C4C4"/>
<path opacity="0.5" d="M53.2116 141.603H52.7285V148.834H53.2116V141.603Z" fill="#C4C4C4"/>
<path opacity="0.5" d="M51.9206 141.603H51.4375V148.834H51.9206V141.603Z" fill="#C4C4C4"/>
<path opacity="0.5" d="M50.6296 141.603H50.1465V148.834H50.6296V141.603Z" fill="#C4C4C4"/>
<path opacity="0.5" d="M49.3386 141.603H48.8555V148.834H49.3386V141.603Z" fill="#C4C4C4"/>
<path opacity="0.5" d="M48.0475 141.603H47.5645V148.834H48.0475V141.603Z" fill="#C4C4C4"/>
<path opacity="0.5" d="M46.7571 141.603H46.2744V148.834H46.7571V141.603Z" fill="#C4C4C4"/>
</g>
<path opacity="0.5" d="M84.0848 144.934H59.0415C58.4582 144.934 57.9854 144.461 57.9854 143.878C57.9854 143.295 58.4582 142.822 59.0415 142.822H84.0848C84.6681 142.822 85.1409 143.295 85.1409 143.878C85.1414 144.461 84.6681 144.934 84.0848 144.934Z" fill="white"/>
<path d="M86.3266 147.25H45.4307V148.834H86.3266V147.25Z" fill="#E2A60E"/>
<path opacity="0.5" d="M51.0183 141.603H47.5391V148.834H51.0183V141.603Z" fill="#F2F2F2"/>
<path opacity="0.5" d="M55.6582 141.603H52.9053V148.834H55.6582V141.603Z" fill="#F2F2F2"/>
<path d="M40.8974 141.603H0.000976562V148.834H40.8974V141.603Z" fill="#FFC010"/>
<g opacity="0.75">
<path opacity="0.5" d="M40.0544 141.603H39.5713V148.834H40.0544V141.603Z" fill="#C4C4C4"/>
<path opacity="0.5" d="M38.7634 141.603H38.2803V148.834H38.7634V141.603Z" fill="#C4C4C4"/>
<path opacity="0.5" d="M37.4723 141.603H36.9893V148.834H37.4723V141.603Z" fill="#C4C4C4"/>
<path opacity="0.5" d="M36.1819 141.603H35.6992V148.834H36.1819V141.603Z" fill="#C4C4C4"/>
<path opacity="0.5" d="M34.8913 141.603H34.4082V148.834H34.8913V141.603Z" fill="#C4C4C4"/>
<path opacity="0.5" d="M33.6003 141.603H33.1172V148.834H33.6003V141.603Z" fill="#C4C4C4"/>
<path opacity="0.5" d="M32.3093 141.603H31.8262V148.834H32.3093V141.603Z" fill="#C4C4C4"/>
<path opacity="0.5" d="M31.0182 141.603H30.5352V148.834H31.0182V141.603Z" fill="#C4C4C4"/>
<path opacity="0.5" d="M29.7272 141.603H29.2441V148.834H29.7272V141.603Z" fill="#C4C4C4"/>
<path opacity="0.5" d="M28.4362 141.603H27.9531V148.834H28.4362V141.603Z" fill="#C4C4C4"/>
<path opacity="0.5" d="M27.1452 141.603H26.6621V148.834H27.1452V141.603Z" fill="#C4C4C4"/>
<path opacity="0.5" d="M25.8547 141.603H25.3721V148.834H25.8547V141.603Z" fill="#C4C4C4"/>
<path opacity="0.5" d="M24.5641 141.603H24.0811V148.834H24.5641V141.603Z" fill="#C4C4C4"/>
<path opacity="0.5" d="M23.2731 141.603H22.79V148.834H23.2731V141.603Z" fill="#C4C4C4"/>
<path opacity="0.5" d="M21.9821 141.603H21.499V148.834H21.9821V141.603Z" fill="#C4C4C4"/>
<path opacity="0.5" d="M20.6911 141.603H20.208V148.834H20.6911V141.603Z" fill="#C4C4C4"/>
<path opacity="0.5" d="M19.4001 141.603H18.917V148.834H19.4001V141.603Z" fill="#C4C4C4"/>
<path opacity="0.5" d="M18.1091 141.603H17.626V148.834H18.1091V141.603Z" fill="#C4C4C4"/>
<path opacity="0.5" d="M16.8186 141.603H16.3359V148.834H16.8186V141.603Z" fill="#C4C4C4"/>
<path opacity="0.5" d="M15.5276 141.603H15.0449V148.834H15.5276V141.603Z" fill="#C4C4C4"/>
<path opacity="0.5" d="M14.237 141.603H13.7539V148.834H14.237V141.603Z" fill="#C4C4C4"/>
<path opacity="0.5" d="M12.946 141.603H12.4629V148.834H12.946V141.603Z" fill="#C4C4C4"/>
<path opacity="0.5" d="M11.655 141.603H11.1719V148.834H11.655V141.603Z" fill="#C4C4C4"/>
<path opacity="0.5" d="M10.3639 141.603H9.88086V148.834H10.3639V141.603Z" fill="#C4C4C4"/>
<path opacity="0.5" d="M9.07293 141.603H8.58984V148.834H9.07293V141.603Z" fill="#C4C4C4"/>
<path opacity="0.5" d="M7.78289 141.603H7.2998V148.834H7.78289V141.603Z" fill="#C4C4C4"/>
<path opacity="0.5" d="M6.49145 141.603H6.00879V148.834H6.49145V141.603Z" fill="#C4C4C4"/>
<path opacity="0.5" d="M5.20086 141.603H4.71777V148.834H5.20086V141.603Z" fill="#C4C4C4"/>
<path opacity="0.5" d="M3.90984 141.603H3.42676V148.834H3.90984V141.603Z" fill="#C4C4C4"/>
<path opacity="0.5" d="M2.61883 141.603H2.13574V148.834H2.61883V141.603Z" fill="#C4C4C4"/>
<path opacity="0.5" d="M1.32781 141.603H0.844727V148.834H1.32781V141.603Z" fill="#C4C4C4"/>
</g>
<path opacity="0.5" d="M38.6561 144.934H13.6132C13.0295 144.934 12.5566 144.461 12.5566 143.878C12.5566 143.295 13.0295 142.822 13.6132 142.822H38.6561C39.2393 142.822 39.7122 143.295 39.7122 143.878C39.7122 144.461 39.2393 144.934 38.6561 144.934Z" fill="white"/>
<path d="M40.8964 147.25H0V148.834H40.8964V147.25Z" fill="#E2A60E"/>
<path opacity="0.5" d="M5.5882 141.603H2.10938V148.834H5.5882V141.603Z" fill="#F2F2F2"/>
<path opacity="0.5" d="M10.228 141.603H7.47461V148.834H10.228V141.603Z" fill="#F2F2F2"/>
<path d="M68.4936 134.363H27.5977V141.594H68.4936V134.363Z" fill="#FFC010"/>
<g opacity="0.75">
<path opacity="0.5" d="M67.6511 134.363H67.168V141.594H67.6511V134.363Z" fill="#C4C4C4"/>
<path opacity="0.5" d="M66.36 134.363H65.877V141.594H66.36V134.363Z" fill="#C4C4C4"/>
<path opacity="0.5" d="M65.069 134.363H64.5859V141.594H65.069V134.363Z" fill="#C4C4C4"/>
<path opacity="0.5" d="M63.778 134.363H63.2949V141.594H63.778V134.363Z" fill="#C4C4C4"/>
<path opacity="0.5" d="M62.487 134.363H62.0039V141.594H62.487V134.363Z" fill="#C4C4C4"/>
<path opacity="0.5" d="M61.1965 134.363H60.7139V141.594H61.1965V134.363Z" fill="#C4C4C4"/>
<path opacity="0.5" d="M59.9059 134.363H59.4229V141.594H59.9059V134.363Z" fill="#C4C4C4"/>
<path opacity="0.5" d="M58.6149 134.363H58.1318V141.594H58.6149V134.363Z" fill="#C4C4C4"/>
<path opacity="0.5" d="M57.3239 134.363H56.8408V141.594H57.3239V134.363Z" fill="#C4C4C4"/>
<path opacity="0.5" d="M56.0329 134.363H55.5498V141.594H56.0329V134.363Z" fill="#C4C4C4"/>
<path opacity="0.5" d="M54.7419 134.363H54.2588V141.594H54.7419V134.363Z" fill="#C4C4C4"/>
<path opacity="0.5" d="M53.4509 134.363H52.9678V141.594H53.4509V134.363Z" fill="#C4C4C4"/>
<path opacity="0.5" d="M52.1604 134.363H51.6777V141.594H52.1604V134.363Z" fill="#C4C4C4"/>
<path opacity="0.5" d="M50.8694 134.363H50.3867V141.594H50.8694V134.363Z" fill="#C4C4C4"/>
<path opacity="0.5" d="M49.5788 134.363H49.0957V141.594H49.5788V134.363Z" fill="#C4C4C4"/>
<path opacity="0.5" d="M48.2878 134.363H47.8047V141.594H48.2878V134.363Z" fill="#C4C4C4"/>
<path opacity="0.5" d="M46.9968 134.363H46.5137V141.594H46.9968V134.363Z" fill="#C4C4C4"/>
<path opacity="0.5" d="M45.7057 134.363H45.2227V141.594H45.7057V134.363Z" fill="#C4C4C4"/>
<path opacity="0.5" d="M44.4147 134.363H43.9316V141.594H44.4147V134.363Z" fill="#C4C4C4"/>
<path opacity="0.5" d="M43.1237 134.363H42.6406V141.594H43.1237V134.363Z" fill="#C4C4C4"/>
<path opacity="0.5" d="M41.8332 134.363H41.3506V141.594H41.8332V134.363Z" fill="#C4C4C4"/>
<path opacity="0.5" d="M40.5427 134.363H40.0596V141.594H40.5427V134.363Z" fill="#C4C4C4"/>
<path opacity="0.5" d="M39.2516 134.363H38.7686V141.594H39.2516V134.363Z" fill="#C4C4C4"/>
<path opacity="0.5" d="M37.9606 134.363H37.4775V141.594H37.9606V134.363Z" fill="#C4C4C4"/>
<path opacity="0.5" d="M36.6696 134.363H36.1865V141.594H36.6696V134.363Z" fill="#C4C4C4"/>
<path opacity="0.5" d="M35.3786 134.363H34.8955V141.594H35.3786V134.363Z" fill="#C4C4C4"/>
<path opacity="0.5" d="M34.0876 134.363H33.6045V141.594H34.0876V134.363Z" fill="#C4C4C4"/>
<path opacity="0.5" d="M32.7966 134.363H32.3135V141.594H32.7966V134.363Z" fill="#C4C4C4"/>
<path opacity="0.5" d="M31.5061 134.363H31.0234V141.594H31.5061V134.363Z" fill="#C4C4C4"/>
<path opacity="0.5" d="M30.2155 134.363H29.7324V141.594H30.2155V134.363Z" fill="#C4C4C4"/>
<path opacity="0.5" d="M28.9245 134.363H28.4414V141.594H28.9245V134.363Z" fill="#C4C4C4"/>
</g>
<path opacity="0.5" d="M66.2518 137.693H41.2085C40.6252 137.693 40.1523 137.22 40.1523 136.637C40.1523 136.053 40.6252 135.581 41.2085 135.581H66.2518C66.835 135.581 67.3079 136.053 67.3079 136.637C67.3084 137.22 66.835 137.693 66.2518 137.693Z" fill="white"/>
<path d="M68.4946 140.009H27.5986V141.593H68.4946V140.009Z" fill="#E2A60E"/>
<path opacity="0.5" d="M33.1863 134.363H29.707V141.594H33.1863V134.363Z" fill="#F2F2F2"/>
<path opacity="0.5" d="M37.8256 134.363H35.0723V141.594H37.8256V134.363Z" fill="#F2F2F2"/>
<path opacity="0.5" d="M82.4221 152.523C94.0149 152.523 103.413 143.126 103.413 131.533C103.413 119.94 94.0149 110.542 82.4221 110.542C70.8294 110.542 61.4316 119.94 61.4316 131.533C61.4316 143.126 70.8294 152.523 82.4221 152.523Z" fill="#C4C4C4"/>
<path opacity="0.5" d="M87.805 152.523C99.3977 152.523 108.795 143.126 108.795 131.533C108.795 119.94 99.3977 110.542 87.805 110.542C76.2122 110.542 66.8145 119.94 66.8145 131.533C66.8145 143.126 76.2122 152.523 87.805 152.523Z" fill="#C4C4C4"/>
<path d="M85.1136 152.523C96.7063 152.523 106.104 143.126 106.104 131.533C106.104 119.94 96.7063 110.542 85.1136 110.542C73.5208 110.542 64.123 119.94 64.123 131.533C64.123 143.126 73.5208 152.523 85.1136 152.523Z" fill="#FFD100"/>
<path opacity="0.5" d="M85.3377 110.542H84.8877V113.157H85.3377V110.542Z" fill="white"/>
<path opacity="0.5" d="M85.3377 149.908H84.8877V152.523H85.3377V149.908Z" fill="white"/>
<path opacity="0.5" d="M83.8723 110.568L83.4238 110.599L83.6071 113.208L84.0556 113.176L83.8723 110.568Z" fill="white"/>
<path opacity="0.5" d="M86.6193 149.836L86.1709 149.868L86.3542 152.476L86.8026 152.445L86.6193 149.836Z" fill="white"/>
<path opacity="0.5" d="M82.4149 110.724L81.9697 110.787L82.3337 113.376L82.7789 113.313L82.4149 110.724Z" fill="white"/>
<path opacity="0.5" d="M87.8925 149.709L87.4473 149.771L87.8113 152.361L88.2565 152.298L87.8925 149.709Z" fill="white"/>
<path opacity="0.5" d="M80.971 110.942L80.5312 111.036L81.0738 113.593L81.5135 113.5L80.971 110.942Z" fill="white"/>
<path opacity="0.5" d="M89.1526 149.472L88.7129 149.565L89.2576 152.123L89.6973 152.029L89.1526 149.472Z" fill="white"/>
<path opacity="0.5" d="M79.5507 111.293L79.1182 111.417L79.8387 113.93L80.2713 113.806L79.5507 111.293Z" fill="white"/>
<path opacity="0.5" d="M90.4023 149.134L89.9697 149.258L90.6903 151.772L91.1229 151.648L90.4023 149.134Z" fill="white"/>
<path opacity="0.5" d="M78.1506 111.737L77.7275 111.891L78.6191 114.348L79.0421 114.195L78.1506 111.737Z" fill="white"/>
<path opacity="0.5" d="M91.6119 148.732L91.1895 148.886L92.0839 151.343L92.5063 151.189L91.6119 148.732Z" fill="white"/>
<path opacity="0.5" d="M76.7782 112.273L76.3672 112.456L77.4323 114.844L77.8432 114.661L76.7782 112.273Z" fill="white"/>
<path opacity="0.5" d="M92.7955 148.22L92.3848 148.403L93.4478 150.791L93.8585 150.608L92.7955 148.22Z" fill="white"/>
<path opacity="0.5" d="M75.4604 112.893L75.0635 113.104L76.2913 115.413L76.6882 115.202L75.4604 112.893Z" fill="white"/>
<path opacity="0.5" d="M93.939 147.653L93.542 147.864L94.7687 150.173L95.1657 149.962L93.939 147.653Z" fill="white"/>
<path opacity="0.5" d="M74.181 113.613L73.7998 113.851L75.1855 116.069L75.5667 115.83L74.181 113.613Z" fill="white"/>
<path opacity="0.5" d="M95.0414 146.997L94.6602 147.235L96.0459 149.453L96.4271 149.214L95.0414 146.997Z" fill="white"/>
<path opacity="0.5" d="M72.9508 114.421L72.5869 114.685L74.1224 116.802L74.4863 116.538L72.9508 114.421Z" fill="white"/>
<path opacity="0.5" d="M96.0925 146.277L95.7285 146.541L97.2656 148.657L97.6296 148.392L96.0925 146.277Z" fill="white"/>
<path opacity="0.5" d="M71.7917 115.315L71.4473 115.604L73.1276 117.608L73.4721 117.319L71.7917 115.315Z" fill="white"/>
<path opacity="0.5" d="M97.0954 145.473L96.751 145.762L98.4313 147.765L98.7758 147.476L97.0954 145.473Z" fill="white"/>
<path opacity="0.5" d="M70.6818 116.275L70.3584 116.587L72.1745 118.468L72.4979 118.156L70.6818 116.275Z" fill="white"/>
<path opacity="0.5" d="M98.0256 144.593L97.7021 144.905L99.5179 146.786L99.8413 146.474L98.0256 144.593Z" fill="white"/>
<path opacity="0.5" d="M69.6651 117.327L69.3643 117.661L71.3072 119.411L71.6081 119.077L69.6651 117.327Z" fill="white"/>
<path opacity="0.5" d="M98.92 143.669L98.6191 144.003L100.562 145.753L100.863 145.419L98.92 143.669Z" fill="white"/>
<path opacity="0.5" d="M68.7164 118.426L68.4395 118.78L70.4989 120.391L70.7759 120.037L68.7164 118.426Z" fill="white"/>
<path opacity="0.5" d="M99.7379 142.661L99.4609 143.015L101.52 144.626L101.797 144.272L99.7379 142.661Z" fill="white"/>
<path opacity="0.5" d="M67.8434 119.608L67.5918 119.981L69.7587 121.444L70.0103 121.071L67.8434 119.608Z" fill="white"/>
<path opacity="0.5" d="M100.48 141.621L100.229 141.993L102.395 143.456L102.647 143.084L100.48 141.621Z" fill="white"/>
<path opacity="0.5" d="M67.0489 120.839L66.8242 121.229L69.0887 122.536L69.3134 122.146L67.0489 120.839Z" fill="white"/>
<path opacity="0.5" d="M101.141 140.521L100.916 140.911L103.18 142.218L103.405 141.828L101.141 140.521Z" fill="white"/>
<path opacity="0.5" d="M66.3512 122.133L66.1543 122.537L68.5051 123.683L68.702 123.278L66.3512 122.133Z" fill="white"/>
<path opacity="0.5" d="M101.724 139.396L101.526 139.8L103.875 140.948L104.073 140.544L101.724 139.396Z" fill="white"/>
<path opacity="0.5" d="M65.7249 123.457L65.5566 123.874L67.9815 124.852L68.1497 124.436L65.7249 123.457Z" fill="white"/>
<path opacity="0.5" d="M102.244 138.21L102.075 138.627L104.499 139.609L104.668 139.192L102.244 138.21Z" fill="white"/>
<path opacity="0.5" d="M65.219 124.844L65.0801 125.272L67.5668 126.08L67.7057 125.652L65.219 124.844Z" fill="white"/>
<path opacity="0.5" d="M102.663 136.987L102.524 137.414L105.011 138.222L105.15 137.795L102.663 136.987Z" fill="white"/>
<path opacity="0.5" d="M64.8098 126.238L64.7012 126.674L67.2383 127.306L67.347 126.87L64.8098 126.238Z" fill="white"/>
<path opacity="0.5" d="M102.985 135.76L102.876 136.196L105.412 136.83L105.521 136.394L102.985 135.76Z" fill="white"/>
<path opacity="0.5" d="M64.491 127.668L64.4131 128.111L66.9886 128.564L67.0665 128.121L64.491 127.668Z" fill="white"/>
<path opacity="0.5" d="M103.255 134.508L103.177 134.951L105.751 135.406L105.83 134.964L103.255 134.508Z" fill="white"/>
<path opacity="0.5" d="M64.2715 129.118L64.2246 129.565L66.8254 129.838L66.8723 129.391L64.2715 129.118Z" fill="white"/>
<path opacity="0.5" d="M103.424 133.231L103.377 133.679L105.978 133.951L106.025 133.504L103.424 133.231Z" fill="white"/>
<path opacity="0.5" d="M64.1417 130.569L64.126 131.018L66.7389 131.109L66.7547 130.66L64.1417 130.569Z" fill="white"/>
<path opacity="0.5" d="M103.483 131.942L103.467 132.391L106.08 132.483L106.096 132.033L103.483 131.942Z" fill="white"/>
<path opacity="0.5" d="M64.1327 132.045L64.1484 132.494L66.7614 132.403L66.7457 131.953L64.1327 132.045Z" fill="white"/>
<path opacity="0.5" d="M103.475 130.671L103.491 131.12L106.105 131.028L106.089 130.579L103.475 130.671Z" fill="white"/>
<path opacity="0.5" d="M64.2168 133.49L64.2637 133.937L66.8645 133.664L66.8176 133.217L64.2168 133.49Z" fill="white"/>
<path opacity="0.5" d="M103.365 129.373L103.412 129.82L106.013 129.548L105.966 129.101L103.365 129.373Z" fill="white"/>
<path opacity="0.5" d="M64.4054 134.945L64.4834 135.388L67.0589 134.935L66.9809 134.492L64.4054 134.945Z" fill="white"/>
<path opacity="0.5" d="M103.164 128.115L103.242 128.558L105.817 128.102L105.739 127.659L103.164 128.115Z" fill="white"/>
<path opacity="0.5" d="M64.6843 136.385L64.793 136.822L67.3301 136.19L67.2214 135.753L64.6843 136.385Z" fill="white"/>
<path opacity="0.5" d="M102.892 126.872L103.001 127.308L105.538 126.675L105.429 126.238L102.892 126.872Z" fill="white"/>
<path opacity="0.5" d="M65.0906 137.804L65.2295 138.232L67.7162 137.424L67.5773 136.996L65.0906 137.804Z" fill="white"/>
<path opacity="0.5" d="M102.53 125.638L102.669 126.065L105.156 125.257L105.017 124.83L102.53 125.638Z" fill="white"/>
<path opacity="0.5" d="M65.563 139.182L65.7314 139.599L68.156 138.619L67.9876 138.202L65.563 139.182Z" fill="white"/>
<path opacity="0.5" d="M102.065 124.433L102.233 124.85L104.657 123.868L104.488 123.451L102.065 124.433Z" fill="white"/>
<path opacity="0.5" d="M66.1498 140.539L66.3467 140.943L68.697 139.797L68.5001 139.393L66.1498 140.539Z" fill="white"/>
<path opacity="0.5" d="M101.528 123.281L101.726 123.686L104.075 122.538L103.878 122.134L101.528 123.281Z" fill="white"/>
<path opacity="0.5" d="M66.827 141.832L67.0518 142.222L69.3162 140.915L69.0915 140.525L66.827 141.832Z" fill="white"/>
<path opacity="0.5" d="M100.919 122.148L101.144 122.538L103.408 121.231L103.183 120.841L100.919 122.148Z" fill="white"/>
<path opacity="0.5" d="M67.5892 143.079L67.8408 143.451L70.0077 141.988L69.7562 141.616L67.5892 143.079Z" fill="white"/>
<path opacity="0.5" d="M100.221 121.059L100.473 121.432L102.641 119.97L102.389 119.596L100.221 121.059Z" fill="white"/>
<path opacity="0.5" d="M68.428 144.273L68.7051 144.627L70.7653 143.017L70.4883 142.663L68.428 144.273Z" fill="white"/>
<path opacity="0.5" d="M99.4623 120.039L99.7393 120.393L101.799 118.782L101.522 118.428L99.4623 120.039Z" fill="white"/>
<path opacity="0.5" d="M69.3573 145.408L69.6582 145.742L71.6011 143.992L71.3002 143.658L69.3573 145.408Z" fill="white"/>
<path opacity="0.5" d="M98.6218 119.076L98.9229 119.41L100.865 117.659L100.564 117.325L98.6218 119.076Z" fill="white"/>
<path opacity="0.5" d="M70.368 146.489L70.6914 146.802L72.5072 144.921L72.1838 144.609L70.368 146.489Z" fill="white"/>
<path opacity="0.5" d="M97.7166 118.172L98.04 118.484L99.8558 116.603L99.5324 116.291L97.7166 118.172Z" fill="white"/>
<path opacity="0.5" d="M71.4407 147.467L71.7852 147.756L73.4655 145.752L73.1211 145.464L71.4407 147.467Z" fill="white"/>
<path opacity="0.5" d="M96.7444 117.313L97.0889 117.601L98.7692 115.598L98.4248 115.309L96.7444 117.313Z" fill="white"/>
<path opacity="0.5" d="M72.5893 148.39L72.9531 148.654L74.4886 146.537L74.1248 146.273L72.5893 148.39Z" fill="white"/>
<path opacity="0.5" d="M95.7289 116.543L96.0928 116.806L97.6283 114.69L97.2644 114.426L95.7289 116.543Z" fill="white"/>
<path opacity="0.5" d="M73.7985 149.214L74.1797 149.452L75.5654 147.235L75.1842 146.997L73.7985 149.214Z" fill="white"/>
<path opacity="0.5" d="M94.6588 115.83L95.04 116.068L96.426 113.851L96.0447 113.613L94.6588 115.83Z" fill="white"/>
<path opacity="0.5" d="M75.0611 149.956L75.458 150.168L76.6858 147.859L76.2889 147.648L75.0611 149.956Z" fill="white"/>
<path opacity="0.5" d="M93.5405 115.202L93.9375 115.413L95.1642 113.104L94.7672 112.893L93.5405 115.202Z" fill="white"/>
<path opacity="0.5" d="M76.3793 150.617L76.79 150.799L77.8533 148.41L77.4426 148.228L76.3793 150.617Z" fill="white"/>
<path opacity="0.5" d="M92.3782 114.649L92.7891 114.832L93.8502 112.442L93.4393 112.259L92.3782 114.649Z" fill="white"/>
<path opacity="0.5" d="M77.7158 151.176L78.1387 151.33L79.0325 148.873L78.6096 148.719L77.7158 151.176Z" fill="white"/>
<path opacity="0.5" d="M91.1791 114.184L91.6016 114.338L92.496 111.881L92.0736 111.727L91.1791 114.184Z" fill="white"/>
<path opacity="0.5" d="M79.1133 151.641L79.5459 151.765L80.2666 149.251L79.834 149.127L79.1133 151.641Z" fill="white"/>
<path opacity="0.5" d="M89.9629 113.801L90.3955 113.925L91.1162 111.411L90.6836 111.287L89.9629 113.801Z" fill="white"/>
<path opacity="0.5" d="M80.5173 152.014L80.957 152.108L81.5017 149.55L81.062 149.456L80.5173 152.014Z" fill="white"/>
<path opacity="0.5" d="M88.7029 113.51L89.1426 113.603L89.6872 111.046L89.2475 110.953L88.7029 113.51Z" fill="white"/>
<path opacity="0.5" d="M81.9601 152.284L82.4053 152.346L82.7692 149.757L82.324 149.695L81.9601 152.284Z" fill="white"/>
<path opacity="0.5" d="M87.4396 113.303L87.8848 113.365L88.2488 110.776L87.8036 110.713L87.4396 113.303Z" fill="white"/>
<path opacity="0.5" d="M83.4344 152.46L83.8828 152.491L84.0661 149.883L83.6177 149.851L83.4344 152.46Z" fill="white"/>
<path opacity="0.5" d="M86.1795 113.188L86.6279 113.219L86.8112 110.611L86.3628 110.579L86.1795 113.188Z" fill="white"/>
<path d="M85.1131 149.988C95.3055 149.988 103.568 141.725 103.568 131.533C103.568 121.341 95.3055 113.078 85.1131 113.078C74.9208 113.078 66.6582 121.341 66.6582 131.533C66.6582 141.725 74.9208 149.988 85.1131 149.988Z" fill="#E2A60E"/>
<path d="M84.1919 149.078C93.7304 149.078 101.463 141.345 101.463 131.807C101.463 122.268 93.7304 114.536 84.1919 114.536C74.6534 114.536 66.9209 122.268 66.9209 131.807C66.9209 141.345 74.6534 149.078 84.1919 149.078Z" fill="#FFC010"/>
<path opacity="0.2" d="M98.0658 115.021C100.029 123.016 97.8883 131.814 91.6417 138.06C85.3947 144.307 76.5981 146.448 68.6025 144.484C72.4456 149.377 78.4103 152.523 85.1141 152.523C96.7069 152.523 106.105 143.125 106.105 131.533C106.104 124.829 102.958 118.864 98.0658 115.021Z" fill="#C4C4C4"/>
<path opacity="0.8" fill-rule="evenodd" clip-rule="evenodd" d="M70.7143 89.8158C68.2425 89.8158 65.9457 90.5652 64.0375 91.8484L69.702 95.4045V97.3713C70.0277 97.2967 70.366 97.2539 70.7143 97.2539C73.2208 97.2539 75.2543 99.2868 75.2543 101.795C75.2543 104.302 73.2208 106.335 70.7143 106.335C68.2072 106.335 66.175 104.302 66.175 101.795C66.175 100.478 66.7382 99.2963 67.6331 98.4668C65.0488 97.9401 62.7016 96.7642 60.7692 95.1154C59.4844 97.0236 58.7344 99.3218 58.7344 101.795C58.7344 108.41 64.0983 113.774 70.7143 113.774C77.3303 113.774 82.6939 108.41 82.6939 101.795C82.6939 95.1795 77.3303 89.8158 70.7143 89.8158Z" fill="white"/>
<path opacity="0.8" fill-rule="evenodd" clip-rule="evenodd" d="M84.5482 83.4519C84.5482 91.0918 78.3548 97.2836 70.7154 97.2836C63.0762 97.2836 56.8828 91.0918 56.8828 83.4519C56.8828 75.8126 63.0762 69.6188 70.7154 69.6188C78.3548 69.6188 84.5482 75.8126 84.5482 83.4519Z" fill="white"/>
<path opacity="0.7" fill-rule="evenodd" clip-rule="evenodd" d="M82.1802 73.2832C83.7986 73.228 85.1004 71.2464 85.1004 69.6188H77.3271C79.1827 70.5082 80.8296 71.7613 82.1802 73.2832Z" fill="white"/>
<path opacity="0.8" fill-rule="evenodd" clip-rule="evenodd" d="M84.0014 131.012C82.6702 131.012 81.4333 131.415 80.4057 132.106L83.4562 134.021V135.081C83.6316 135.04 83.8138 135.017 84.0014 135.017C85.3512 135.017 86.4463 136.112 86.4463 137.463C86.4463 138.813 85.3512 139.908 84.0014 139.908C82.6512 139.908 81.5568 138.813 81.5568 137.463C81.5568 136.754 81.8601 136.117 82.3421 135.67C80.9503 135.387 79.6863 134.754 78.6456 133.866C77.9537 134.893 77.5498 136.131 77.5498 137.463C77.5498 141.025 80.4384 143.914 84.0014 143.914C87.5643 143.914 90.4527 141.025 90.4527 137.463C90.4527 133.9 87.5643 131.012 84.0014 131.012Z" fill="#B8870B"/>
<path opacity="0.8" fill-rule="evenodd" clip-rule="evenodd" d="M91.4514 127.584C91.4514 131.699 88.1161 135.033 84.002 135.033C79.8881 135.033 76.5527 131.699 76.5527 127.584C76.5527 123.471 79.8881 120.135 84.002 120.135C88.1161 120.135 91.4514 123.471 91.4514 127.584Z" fill="#B8870B"/>
<path opacity="0.7" fill-rule="evenodd" clip-rule="evenodd" d="M90.176 122.108C91.0476 122.079 91.7486 121.011 91.7486 120.135H87.5625C88.5618 120.614 89.4487 121.289 90.176 122.108Z" fill="#B8870B"/>
<defs>
<linearGradient id="paint0_linear_9070_18059" x1="66.0987" y1="566.706" x2="66.0987" y2="-10.5059" gradientUnits="userSpaceOnUse">
<stop stop-color="#8BC63E"/>
<stop offset="1" stop-color="#8BC63E"/>
</linearGradient>
</defs>
</svg>
