<svg width="70" height="50" viewBox="0 0 70 50" fill="none" xmlns="http://www.w3.org/2000/svg">
<path d="M70 9.98456H0V49.9743H70V9.98456Z" fill="#8EC23C"/>
<path d="M64.9816 9.98459H2.49634V4.99231L64.9816 9.98459Z" fill="#A9D850"/>
<path d="M67.8382 12.3005H2.16174V47.684H67.8382V12.3005Z" fill="#ECF0F1"/>
<path d="M49.3345 30.0051C49.3345 37.931 42.9007 44.3644 34.9742 44.3644C27.0477 44.3644 20.6396 37.931 20.6396 30.0051C20.6396 22.0793 27.0735 15.6716 34.9742 15.6716C42.9264 15.6459 49.3345 22.0793 49.3345 30.0051Z" fill="#8EC23C"/>
<path d="M6.25366 0V5.30108L65.0073 10.0103H68.7647L6.25366 0Z" fill="#C9F270"/>
<path d="M39.9412 27.0458C39.864 26.9686 39.7868 26.9429 39.6838 26.9429H37.7537C37.625 26.3253 37.3934 25.7849 37.0331 25.3217H39.6581C39.761 25.3217 39.8383 25.2959 39.9155 25.2187C39.9927 25.1415 40.0184 25.0643 40.0184 24.9614V23.8034C40.0184 23.7004 39.9927 23.6232 39.9155 23.546C39.8383 23.4688 39.761 23.4431 39.6581 23.4431H30.2904C30.1875 23.4431 30.1103 23.4688 30.0331 23.546C29.9559 23.6232 29.9302 23.7004 29.9302 23.8034V25.2959C29.9302 25.3989 29.9559 25.4761 30.0331 25.5533C30.1103 25.6305 30.1875 25.6562 30.2904 25.6562H31.9118C33.5074 25.6562 34.511 26.0679 34.9228 26.9171H30.2647C30.1618 26.9171 30.0846 26.9429 30.0074 27.0201C29.9302 27.0973 29.9044 27.1745 29.9044 27.2774V28.4354C29.9044 28.5383 29.9302 28.6155 30.0074 28.6927C30.0846 28.7699 30.1618 28.7957 30.2647 28.7957H35.0772C34.9228 29.4133 34.5368 29.8765 33.9191 30.211C33.3272 30.5455 32.5294 30.6999 31.5257 30.6999H30.2647C30.1618 30.6999 30.0846 30.7257 30.0074 30.8029C29.9302 30.8801 29.9044 30.9573 29.9044 31.0602V32.5013C29.9044 32.6042 29.9302 32.6814 30.0074 32.7586C31.4485 34.2769 33.3272 36.4385 35.6177 39.192C35.6949 39.2692 35.7721 39.3206 35.9007 39.3206H38.0882C38.2427 39.3206 38.3456 39.2434 38.4228 39.1148C38.5 38.9861 38.4743 38.8574 38.3713 38.7288C36.1838 36.0525 34.4596 34.0195 33.1985 32.7071C34.4853 32.5527 35.5147 32.141 36.3125 31.4719C37.1103 30.8029 37.5993 29.9279 37.7537 28.8471H39.6324C39.7353 28.8471 39.8125 28.8214 39.8897 28.7442C39.9669 28.667 39.9927 28.5898 39.9927 28.4869V27.3289C40.0441 27.2002 40.0184 27.0973 39.9412 27.0458Z" fill="#ECF0F1"/>
</svg>
