<svg width="110" height="84" viewBox="0 0 110 84" fill="none" xmlns="http://www.w3.org/2000/svg">
<g clip-path="url(#clip0_9693_14964)">
<path d="M110 75.6203H0.027359V83.7501H110V75.6203Z" fill="#E6E6E6"/>
<mask id="path-2-inside-1_9693_14964" fill="white">
<path d="M109.848 75.6273H0V75.3556H109.897L109.848 75.6273Z"/>
</mask>
<path d="M109.848 75.6273H0V75.3556H109.897L109.848 75.6273Z" fill="#121212"/>
<path d="M109.848 75.6273V76.6273H110.683L110.832 75.8054L109.848 75.6273ZM0 75.6273H-1V76.6273H0V75.6273ZM0 75.3556V74.3556H-1V75.3556H0ZM109.897 75.3556L110.881 75.5337L111.094 74.3556H109.897V75.3556ZM109.848 74.6273H0V76.6273H109.848V74.6273ZM1 75.6273V75.3556H-1V75.6273H1ZM0 76.3556H109.897V74.3556H0V76.3556ZM108.913 75.1776L108.863 75.4493L110.832 75.8054L110.881 75.5337L108.913 75.1776Z" fill="#121212" mask="url(#path-2-inside-1_9693_14964)"/>
<path d="M86.2779 31.2933V55.3602H23.7494V31.2933C23.7493 23.3065 26.8002 15.6219 32.2772 9.81352C37.7541 4.00518 45.2426 0.512752 53.2087 0.051591C53.8056 0.0167548 54.4073 -0.000449663 55.0137 -2.27654e-05C55.3592 -2.27654e-05 55.7034 0.00513572 56.0451 0.0180411C63.9778 0.269304 71.5158 3.54123 77.1204 9.16602C77.2893 9.33507 77.4556 9.50541 77.6219 9.67833C83.1795 15.4994 86.28 23.2417 86.2779 31.2933Z" fill="#E6E6E6"/>
<path d="M56.0451 0.0180468V55.3601H53.2088V0.051591C53.8057 0.0167548 54.4074 -0.000449663 55.0137 -2.27654e-05C55.3593 -2.27654e-05 55.7035 0.00513643 56.0451 0.0180468Z" fill="white"/>
<path d="M80.0263 12.5172H30.0009C30.7456 11.5241 31.5485 10.5761 32.4054 9.67819H77.6219C78.4787 10.5761 79.2816 11.5241 80.0263 12.5172Z" fill="white"/>
<path d="M81.5194 20.6473H59.3585V58.1993H81.5194V20.6473Z" fill="white"/>
<path d="M67.0865 26.9912H63.7344V30.3464H67.0865V26.9912Z" fill="#E6E6E6"/>
<path d="M72.4872 26.9912H69.1351V30.3464H72.4872V26.9912Z" fill="#E6E6E6"/>
<path d="M77.8878 26.9912H74.5357V30.3464H77.8878V26.9912Z" fill="#E6E6E6"/>
<path d="M67.1797 34.6335H63.8276V37.9887H67.1797V34.6335Z" fill="#E6E6E6"/>
<path d="M72.5803 34.6335H69.2282V37.9887H72.5803V34.6335Z" fill="#E6E6E6"/>
<path d="M77.9809 34.6335H74.6288V37.9887H77.9809V34.6335Z" fill="#E6E6E6"/>
<path d="M67.2728 42.2759H63.9207V45.6312H67.2728V42.2759Z" fill="#E6E6E6"/>
<path d="M72.6734 42.2759H69.3214V45.6312H72.6734V42.2759Z" fill="#E6E6E6"/>
<path d="M78.0738 42.2759H74.7216V45.6312H78.0738V42.2759Z" fill="#E6E6E6"/>
<path d="M67.366 49.9182H64.0139V53.2734H67.366V49.9182Z" fill="#E6E6E6"/>
<path d="M72.7662 49.9182H69.4141V53.2734H72.7662V49.9182Z" fill="#E6E6E6"/>
<path d="M78.1669 49.9182H74.8148V53.2734H78.1669V49.9182Z" fill="#E6E6E6"/>
<path d="M67.366 49.9182H64.0139V53.2734H67.366V49.9182Z" fill="#E6E6E6"/>
<path d="M72.7662 49.9182H69.4141V53.2734H72.7662V49.9182Z" fill="#E6E6E6"/>
<path d="M78.1669 49.9182H74.8148V53.2734H78.1669V49.9182Z" fill="#E6E6E6"/>
<path d="M31.1821 47.725C33.7337 47.725 35.8022 45.6546 35.8022 43.1006C35.8022 40.5467 33.7337 38.4763 31.1821 38.4763C28.6305 38.4763 26.5621 40.5467 26.5621 43.1006C26.5621 45.6546 28.6305 47.725 31.1821 47.725Z" fill="white"/>
<path d="M31.1945 43.0999H31.2072L31.4356 56.2107H30.9536L31.1945 43.0999Z" fill="white"/>
<path d="M32.036 50.2419L31.9295 50.0396L31.1663 50.4418L31.2727 50.6441L32.036 50.2419Z" fill="white"/>
<path d="M44.7647 43.3056C48.6449 43.3056 51.7904 40.1572 51.7904 36.2734C51.7904 32.3897 48.6449 29.2413 44.7647 29.2413C40.8846 29.2413 37.7391 32.3897 37.7391 36.2734C37.7391 40.1572 40.8846 43.3056 44.7647 43.3056Z" fill="white"/>
<path d="M44.7838 36.2737H44.8031L45.1503 56.2111H44.4174L44.7838 36.2737Z" fill="white"/>
<path d="M46.0636 47.1331L45.9017 46.8254L44.7403 47.4374L44.9022 47.7451L46.0636 47.1331Z" fill="white"/>
<path d="M30.2743 29.5589L31.4611 28.6087C30.5391 28.5069 30.1603 29.0102 30.0052 29.4086C29.2849 29.1092 28.5008 29.5016 28.5008 29.5016L30.8754 30.3645C30.7557 30.0442 30.5471 29.7647 30.2743 29.5589Z" fill="white"/>
<path d="M42.7798 21.8166L43.9666 20.8665C43.0446 20.7646 42.6658 21.2679 42.5107 21.6663C41.7904 21.3669 41.0063 21.7593 41.0063 21.7593L43.3809 22.6222C43.2611 22.3019 43.0526 22.0225 42.7798 21.8166Z" fill="white"/>
<path d="M38.0097 29.1718L39.1966 28.2216C38.2746 28.1198 37.8957 28.6231 37.7407 29.0215C37.0204 28.7221 36.2363 29.1145 36.2363 29.1145L38.6109 29.9774C38.4911 29.6571 38.2826 29.3776 38.0097 29.1718Z" fill="white"/>
<path d="M89.5654 52.5215H20.4618V58.1995H89.5654V52.5215Z" fill="#E6E6E6"/>
<path d="M10.1407 67.3012C10.1407 67.3012 -3.83748 60.8604 1.07305 56.3939C5.98357 51.9274 10.1407 67.3012 10.1407 67.3012Z" fill="#E6E6E6"/>
<path d="M9.89725 68.8042C9.89725 68.8042 3.47235 47.6745 12.9332 48.685C22.3941 49.6955 9.89725 68.8042 9.89725 68.8042Z" fill="#E6E6E6"/>
<path d="M5.21283 66.9306L5.48249 70.4651L5.48677 70.5262C5.48652 71.0781 5.51438 71.6297 5.57024 72.1789C5.93621 75.7841 7.50923 77.4271 9.34763 77.4271C11.186 77.4271 12.6906 75.7841 13.0565 72.1789C13.1124 71.6297 13.1403 71.0781 13.14 70.5262L13.1421 70.4769L13.1432 70.4651L13.4139 66.9306H5.21283Z" fill="#E6E6E6"/>
<path d="M13.143 70.4645L13.142 70.4763L13.1398 70.5256C13.1401 71.0775 13.1122 71.6291 13.0564 72.1782H5.57006C5.5142 71.6291 5.48634 71.0775 5.48659 70.5256L5.48232 70.4645H13.143Z" fill="white"/>
<path d="M103.667 67.3012C103.667 67.3012 89.6884 60.8604 94.5989 56.3939C99.5094 51.9274 103.667 67.3012 103.667 67.3012Z" fill="#E6E6E6"/>
<path d="M103.423 68.8042C103.423 68.8042 96.9983 47.6745 106.459 48.685C115.92 49.6955 103.423 68.8042 103.423 68.8042Z" fill="#E6E6E6"/>
<path d="M98.7388 66.9306L99.0085 70.4651L99.0128 70.5262C99.0125 71.0781 99.0404 71.6297 99.0962 72.1789C99.4622 75.7841 101.035 77.4271 102.874 77.4271C104.712 77.4271 106.217 75.7841 106.583 72.1789C106.638 71.6297 106.666 71.0781 106.666 70.5262L106.668 70.4769L106.669 70.4651L106.94 66.9306H98.7388Z" fill="#E6E6E6"/>
<path d="M106.669 70.4645L106.668 70.4763L106.666 70.5256C106.666 71.0775 106.638 71.6291 106.582 72.1782H99.0961C99.0402 71.6291 99.0123 71.0775 99.0126 70.5256L99.0083 70.4645H106.669Z" fill="white"/>
<path d="M46.0134 78.9381C45.7882 78.991 45.5175 79.0445 45.2009 79.0977C44.0319 79.2944 42.3248 79.4737 40.1976 79.6251C35.9478 79.9274 30.0682 80.115 23.568 80.115C17.0678 80.115 11.1882 79.9274 6.93839 79.6251C4.81119 79.4737 3.10409 79.2944 1.93503 79.0977C1.61851 79.0445 1.34779 78.991 1.12259 78.9381C1.34779 78.8852 1.61851 78.8317 1.93503 78.7785C3.10409 78.5818 4.81119 78.4025 6.93839 78.2511C11.1882 77.9488 17.0678 77.7613 23.568 77.7613C30.0682 77.7613 35.9478 77.9488 40.1976 78.2511C42.3248 78.4025 44.0319 78.5818 45.2009 78.7785C45.5175 78.8317 45.7882 78.8852 46.0134 78.9381ZM0.399877 78.6933C0.400075 78.6933 0.402315 78.6949 0.405998 78.6982C0.401521 78.695 0.399679 78.6933 0.399877 78.6933ZM0.399877 79.1829C0.399679 79.1829 0.40152 79.1812 0.405997 79.178C0.402313 79.1813 0.400075 79.1829 0.399877 79.1829ZM46.73 79.178C46.7344 79.1812 46.7363 79.1829 46.7361 79.1829C46.7359 79.1829 46.7337 79.1813 46.73 79.178ZM46.73 78.6982C46.7336 78.6949 46.7359 78.6933 46.7361 78.6933C46.7363 78.6933 46.7344 78.695 46.73 78.6982Z" fill="#121212" stroke="#121212"/>
<path d="M19.4733 19.4056C19.4733 19.4056 19.1139 20.7215 19.8327 21.2C20.5514 21.6786 20.791 23.9516 20.791 23.9516L19.3535 27.8995L15.5202 28.6173L14.0827 25.8657V21.7982C14.0827 21.7982 14.5619 19.7645 14.4421 19.1663C14.3223 18.5681 19.4733 19.4056 19.4733 19.4056Z" fill="#FFB9B9"/>
<path opacity="0.2" d="M19.4733 19.4056C19.4733 19.4056 19.1139 20.7215 19.8327 21.2C20.5514 21.6786 20.791 23.9516 20.791 23.9516L19.3535 27.8995L15.5202 28.6173L14.0827 25.8657V21.7982C14.0827 21.7982 14.5619 19.7645 14.4421 19.1663C14.3223 18.5681 19.4733 19.4056 19.4733 19.4056Z" fill="#121212"/>
<path d="M23.3069 42.0164L26.4215 42.6145C26.4215 42.6145 26.661 46.0839 26.4215 46.9213C26.1819 47.7587 25.9423 48.7158 26.1819 48.955C26.4215 49.1943 25.1038 55.2956 25.2236 55.6545C25.3434 56.0133 25.5829 57.09 25.4631 57.8078C25.3433 58.5256 24.984 58.2864 25.2236 59.0042C25.4631 59.722 25.7027 59.8416 25.4631 60.3201C25.2236 60.7986 24.0256 72.403 23.6663 72.5226C23.3069 72.6422 20.0725 72.7619 20.0725 72.5226C20.0725 72.2833 21.1507 70.4889 20.7913 70.0103C20.4319 69.5318 20.9111 61.3968 20.9111 61.0379C20.9111 60.679 21.6298 60.0809 21.2704 59.8416C20.9111 59.6023 20.6715 59.3631 20.7913 59.0042C20.9111 58.6453 21.1507 58.5256 20.9111 58.1667C20.6715 57.8078 20.6715 50.6299 19.833 50.3906C19.833 50.3906 18.7548 55.6545 19.1142 56.9704C19.4736 58.2864 18.9944 58.7649 18.9944 58.7649L20.6715 60.2005L18.3955 64.5072L15.9996 61.7557C15.9996 61.7557 15.9996 61.0379 15.5205 60.9183C15.0413 60.7986 14.8017 60.679 14.8017 60.3201C14.8017 59.9612 13.9632 57.6882 13.9632 57.6882C13.9632 57.6882 11.5674 50.1514 12.7653 46.3231C13.9632 42.4949 14.4247 42.6216 14.4247 42.6216L23.3069 42.0164Z" fill="#494949"/>
<path d="M25.223 66.7812L26.5408 68.2168L26.0617 72.1646H24.9835L23.3064 68.4559L25.223 66.7812Z" fill="#FFB9B9"/>
<path d="M26.0619 69.4131C26.0619 69.4131 25.5828 70.4898 25.2234 70.2505C24.864 70.0112 24.7449 69.6524 24.2055 69.6524C23.6661 69.6524 23.1869 69.772 23.3067 70.0113C23.4265 70.2505 24.864 72.8824 24.864 72.8824C25.0749 73.3317 25.1843 73.8218 25.1843 74.318C25.1843 74.8142 25.0749 75.3043 24.864 75.7536C24.1453 77.3088 26.7806 78.1463 27.2598 76.4714C27.739 74.7966 27.8587 72.8824 27.739 72.1646C27.6192 71.4469 28.3379 67.7382 28.3379 67.7382C28.3379 67.7382 26.4027 66.8473 25.813 66.8142C25.813 66.8142 26.3015 68.9346 26.0619 69.4131Z" fill="#494949"/>
<path d="M22.8271 72.0448L23.3063 73.4804C23.3063 73.4804 23.3063 74.9159 23.7854 75.6337C24.2646 76.3515 24.7438 77.9068 22.8271 78.0264C20.9104 78.146 20.0719 77.4282 20.0719 77.4282C20.0719 77.4282 20.4313 76.4712 20.0719 76.1123C19.7125 75.7534 20.0719 75.0356 20.0719 75.0356L20.4313 72.1644L22.8271 72.0448Z" fill="#494949"/>
<path d="M19.5931 60.0802H20.6712L26.0618 67.1385C26.0618 67.1385 25.1035 69.4115 23.666 69.6508C23.666 69.6508 23.4264 69.5312 22.3483 68.8134C21.2702 68.0956 18.3952 64.5066 18.3952 64.5066L18.0358 62.4729L19.5931 60.0802Z" fill="#494949"/>
<path d="M16.9579 20.9606C19.075 20.9606 20.7912 19.2466 20.7912 17.1324C20.7912 15.0181 19.075 13.3041 16.9579 13.3041C14.8408 13.3041 13.1246 15.0181 13.1246 17.1324C13.1246 19.2466 14.8408 20.9606 16.9579 20.9606Z" fill="#FFB9B9"/>
<path d="M21.6297 22.0378L20.4318 21.5592C20.4318 21.5592 20.312 25.7464 18.036 25.7464C15.7599 25.7464 13.3641 25.1482 13.3641 23.9519C13.3641 22.7556 11.4474 26.1053 11.4474 26.1053C11.4474 26.1053 13.2443 38.0685 13.1245 38.1882C13.0047 38.3078 14.4422 44.6483 14.4422 44.6483C14.4422 44.6483 20.5516 44.8876 22.588 44.0501C24.6244 43.2127 25.2234 41.6575 25.2234 41.6575L24.3849 31.1298L22.7078 22.9948L21.6297 22.0378Z" fill="#8BC63E"/>
<path d="M19.5943 20.962C19.5943 20.962 20.0728 20.4834 20.7915 20.962C21.5102 21.4405 25.9425 22.5172 25.9425 22.8761V27.4221C25.9425 27.4221 26.0623 28.1399 25.7029 28.6185C25.3435 29.097 24.505 30.8915 24.9842 31.7289C25.4633 32.5663 27.2602 42.2565 26.9008 43.4529C26.5414 44.6492 25.5831 45.7259 25.5831 45.7259C25.5831 45.7259 20.4321 34.8393 20.4321 31.7289C20.4321 28.6184 20.4821 24.8025 20.4821 24.8025L19.5943 20.962Z" fill="#4B6E82"/>
<path d="M24.8644 22.9951H25.9425C25.9425 22.9951 30.0154 30.7712 30.0154 32.3264C30.0154 33.8817 27.38 42.4952 27.1404 42.6148C26.9008 42.7345 26.1821 41.2989 26.1821 41.2989L25.5831 36.5136C25.5831 36.5136 26.781 33.6424 26.4216 33.1639C26.0623 32.6853 24.2654 28.9767 24.2654 28.9767L24.8644 22.9951Z" fill="#4B6E82"/>
<path d="M14.2591 20.9626C14.2591 20.9626 12.884 21.9196 12.6445 22.2785C12.4049 22.6374 8.81116 24.6712 8.69137 25.1497C8.57158 25.6282 11.4466 29.6957 11.4466 29.6957C11.4466 29.6957 12.6445 36.3951 12.6445 36.8737C12.6445 37.3522 13.1236 45.4872 13.1236 45.4872C13.1236 45.4872 18.0351 46.9228 18.0351 46.0854C18.0351 45.2479 18.1548 33.2847 17.4361 30.6528C16.7174 28.0209 14.2591 20.9626 14.2591 20.9626Z" fill="#4B6E82"/>
<path d="M15.0408 45.7258C15.0408 45.7258 19.1137 51.2289 16.9574 51.1092C14.8012 50.9896 13.3637 46.3239 13.3637 46.3239L15.0408 45.7258Z" fill="#FFB9B9"/>
<path d="M10.1302 24.7902L8.69275 25.1491C8.69275 25.1491 7.49485 35.6767 8.21359 37.1123C8.93234 38.5479 12.7657 47.8793 12.7657 47.5204C12.7657 47.1615 16.1377 46.5218 16.009 46.1836C15.8802 45.8455 15.1615 44.4099 14.9219 43.9314C14.6823 43.4528 14.3229 42.8547 14.4427 42.2565C14.5625 41.6584 13.125 39.098 13.125 39.098C13.125 39.098 12.7656 37.5909 12.6459 36.8731C12.5261 36.1553 11.4479 28.2595 11.4479 28.2595L10.1302 24.7902Z" fill="#4B6E82"/>
<path d="M20.7165 14.1692C20.6433 13.9441 20.4886 13.7544 20.2828 13.637C20.2935 13.3994 20.2625 13.1617 20.1912 12.9347C19.9526 12.2716 19.3873 12.3096 18.854 12.0164C18.6226 11.8893 18.6369 11.7768 18.5164 11.5679C18.3547 11.2903 18.1183 11.0636 17.834 10.9135C17.5051 10.6803 17.1252 10.5288 16.7259 10.4716C15.8752 10.4171 15.223 11.1692 14.41 11.4105C14.0516 11.5169 13.6665 11.5213 13.3063 11.6219C12.946 11.7225 12.5866 11.9626 12.5329 12.3123C12.5081 12.4737 12.5518 12.6393 12.5267 12.8007C12.4767 13.1214 12.1774 13.346 11.977 13.6098C11.5338 14.1932 11.5845 15.0173 11.9389 15.6521C12.0139 15.7839 12.0994 15.9096 12.1944 16.028C12.2245 16.3296 12.3163 16.6219 12.4642 16.8866C12.8186 17.5214 13.4284 17.9957 14.0655 18.3897C14.0134 18.1796 13.9817 17.965 13.971 17.7488C13.962 17.6767 13.972 17.6035 14 17.5364C14.0709 17.397 14.2584 17.3599 14.4013 17.2836C14.5376 17.1941 14.6481 17.0707 14.7219 16.9254C14.7957 16.7802 14.8302 16.6182 14.822 16.4555C14.8306 16.1356 14.7584 15.8151 14.7941 15.4968C14.796 15.4226 14.8141 15.3497 14.847 15.2831C14.8799 15.2166 14.927 15.158 14.9849 15.1114C15.0953 15.0526 15.2196 15.0247 15.3445 15.0308C15.9511 15.0075 16.5848 14.9971 17.1199 14.7274C17.2935 14.6192 17.4789 14.5311 17.6724 14.4647C18.1271 14.3532 18.5918 14.6528 18.8538 15.0194C19.1159 15.3861 19.2465 15.8224 19.4883 16.2011C19.7301 16.5798 20.1477 16.9176 20.6152 16.8727C20.6412 16.8729 20.667 16.8678 20.691 16.8578C20.715 16.8478 20.7367 16.833 20.7548 16.8144C20.7749 16.7807 20.7838 16.7416 20.7805 16.7026L20.8066 15.0229C20.8283 14.7353 20.7978 14.4461 20.7165 14.1692Z" fill="#494949"/>
<path d="M107.736 79.0951C107.582 79.1271 107.41 79.1592 107.219 79.1914C106.166 79.3685 104.626 79.5303 102.706 79.667C98.8704 79.9399 93.5628 80.1092 87.6945 80.1092C81.8262 80.1092 76.5187 79.9399 72.6829 79.667C70.7628 79.5303 69.2232 79.3685 68.1699 79.1914C67.979 79.1592 67.8069 79.1271 67.6534 79.0951C67.8069 79.0631 67.979 79.031 68.1699 78.9988C69.2232 78.8217 70.7628 78.6599 72.6829 78.5232C76.5187 78.2503 81.8262 78.0811 87.6945 78.0811C93.5628 78.0811 98.8704 78.2503 102.706 78.5232C104.626 78.6599 106.166 78.8217 107.219 78.9988C107.41 79.031 107.582 79.0631 107.736 79.0951ZM66.8056 78.8359C66.8057 78.8359 66.8078 78.8373 66.8112 78.8402C66.8071 78.8373 66.8054 78.8359 66.8056 78.8359ZM66.8056 79.3543C66.8054 79.3543 66.8071 79.3529 66.8112 79.35C66.8078 79.3529 66.8057 79.3543 66.8056 79.3543ZM108.578 79.3501C108.582 79.3529 108.584 79.3543 108.583 79.3543C108.583 79.3543 108.581 79.3529 108.578 79.3501ZM108.578 78.8401C108.581 78.8373 108.583 78.8359 108.583 78.8359C108.584 78.8359 108.582 78.8373 108.578 78.8401Z" fill="#121212" stroke="#121212"/>
<path d="M85.4795 45.6745L83.5211 49.1118C83.3696 49.3777 83.1205 49.5739 82.8267 49.6589C82.5329 49.7439 82.2176 49.7108 81.9477 49.5668C81.7912 49.4833 81.6556 49.3654 81.5511 49.2219C81.4466 49.0785 81.3759 48.9132 81.3443 48.7385C81.3127 48.5639 81.321 48.3843 81.3686 48.2133C81.4163 48.0423 81.5019 47.8843 81.6192 47.7512L84.0804 44.9579L85.4795 45.6745Z" fill="#FFB9B9"/>
<path d="M86.7481 40.2308L85.5008 28.7156C86.2253 28.9833 86.7695 29.4341 87.151 30.015C87.6487 30.7727 87.893 31.7895 87.8429 32.9849L87.8417 33.0147L87.844 33.0444L88.4762 41.2153L84.5074 46.6437L83.8603 45.9652L86.6946 40.5153L86.7643 40.3812L86.7481 40.2308Z" fill="#121212" stroke="#121212"/>
<path d="M85.4036 25.8873H94.0095V21.6256C94.0125 20.4746 93.5596 19.3689 92.7491 18.5483C92.3532 18.1441 91.88 17.823 91.3573 17.604C90.8347 17.385 90.2733 17.2726 89.7062 17.2734C88.5739 17.2755 87.4879 17.7213 86.683 18.5144C85.8781 19.3075 85.419 20.3842 85.4049 21.5118C85.4043 21.5508 85.4036 21.5879 85.4036 21.6256L85.4036 25.8873Z" fill="#494949"/>
<path d="M97.5622 74.6997L94.8259 74.3896L91.5513 52.5448L84.7778 74.4782L81.8172 74.5668L85.1815 47.5821L84.6881 41.423L93.0764 38.8087C99.0176 42.9055 98.8947 57.3756 97.5622 74.6997Z" fill="#494949"/>
<path d="M88.9887 25.1696C90.573 25.1696 91.8574 23.7234 91.8574 21.9394C91.8574 20.1554 90.573 18.7092 88.9887 18.7092C87.4044 18.7092 86.1201 20.1554 86.1201 21.9394C86.1201 23.7234 87.4044 25.1696 88.9887 25.1696Z" fill="#FFB9B9"/>
<path d="M91.8575 27.4621L86.8374 28.7588C87.6832 27.157 87.9539 25.6617 87.4958 24.3014L91.0345 23.7341C90.8071 25.0349 91.1022 26.3718 91.8575 27.4621Z" fill="#FFB9B9"/>
<path d="M84.2414 36.0731L84.2755 36.2366L85.473 41.9666C86.5583 42.7659 87.8377 42.7643 89.2737 42.2956C90.6884 41.8338 92.1632 40.9466 93.5935 40.0535C93.1739 37.9202 92.9913 35.4677 94.2058 33.5275L93.3936 27.5264L91.8847 27.1387C91.0548 27.5986 90.2532 27.9503 89.5237 28.0983C88.8358 28.238 88.1567 28.2057 87.5867 27.8552L85.782 28.4663C85.7819 28.4664 85.7819 28.4664 85.7818 28.4664C85.6087 28.5251 85.4519 28.6217 85.3233 28.7482C85.1947 28.8748 85.0976 29.028 85.0387 29.1959L84.2414 36.0731ZM84.2414 36.0731L84.1159 35.963M84.2414 36.0731L84.1159 35.963M84.1159 35.963C83.9842 35.8475 83.864 35.6407 83.7995 35.2786M84.1159 35.963L83.7995 35.2786M83.7995 35.2786C83.735 34.9164 83.7342 34.4393 83.807 33.843M83.7995 35.2786L83.807 33.843M83.807 33.843C83.9524 32.6508 84.3791 31.0791 85.0387 29.196L83.807 33.843Z" fill="#121212" stroke="#121212"/>
<path d="M96.7593 45.7463L95.9506 49.6195C95.888 49.9191 95.7112 50.1825 95.4577 50.3537C95.2042 50.5249 94.894 50.5904 94.5929 50.5363C94.4184 50.505 94.2531 50.4344 94.1097 50.3301C93.9662 50.2257 93.8482 50.0902 93.7645 49.9337C93.6808 49.7771 93.6336 49.6037 93.6264 49.4263C93.6193 49.249 93.6523 49.0723 93.7231 48.9095L95.2079 45.4945L96.7593 45.7463Z" fill="#FFB9B9"/>
<path d="M96.7918 78.8661C96.371 79.0749 96.0185 77.7809 95.6635 78.1601C94.6705 79.2208 92.2884 78.983 92.2884 78.983C92.2084 78.9551 92.1345 78.9098 92.0711 78.8499C92.0077 78.79 91.9561 78.7167 91.9195 78.6345C91.883 78.5523 91.8621 78.4629 91.8583 78.3717C91.8544 78.2804 91.8676 78.1893 91.8971 78.1038C91.9324 78.0015 91.9901 77.91 92.0651 77.8373C92.1401 77.7645 92.2302 77.7127 92.3278 77.6862L93.3838 77.3992L95.0419 74.2297L96.849 73.9811L96.8946 74.0622C97.244 74.6742 97.4692 75.3601 97.5553 76.0742C97.6414 76.7883 97.5864 77.5142 97.394 78.2034C97.2437 78.7267 97.0391 78.7434 96.7918 78.8661Z" fill="#494949"/>
<path d="M84.4998 78.8661C84.0264 79.0749 83.6298 77.7809 83.2304 78.1601C82.1133 79.2208 79.4335 78.983 79.4335 78.983C79.3435 78.9551 79.2603 78.9098 79.189 78.8499C79.1177 78.79 79.0597 78.7167 79.0185 78.6345C78.9774 78.5523 78.9539 78.4629 78.9496 78.3717C78.9453 78.2804 78.9601 78.1893 78.9933 78.1038C79.033 78.0015 79.0979 77.91 79.1823 77.8373C79.2667 77.7645 79.3681 77.7127 79.4778 77.6862L80.6658 77.3992L82.5312 74.2297L84.5642 73.9811L84.6155 74.0622C85.0085 74.6742 85.2619 75.3601 85.3588 76.0742C85.4556 76.7883 85.3937 77.5142 85.1772 78.2034C85.0082 78.7267 84.778 78.7434 84.4998 78.8661Z" fill="#494949"/>
<path d="M92.575 19.0221L91.7572 21.5804L84.6863 21.4568C84.7105 20.5617 85.0184 19.6965 85.5671 18.9818C86.1158 18.2672 86.8778 17.7389 87.7467 17.4707C88.6156 17.2025 89.548 17.2079 90.4136 17.486C91.2792 17.7642 92.0349 18.3012 92.575 19.0221H92.575Z" fill="#494949"/>
<path d="M93.9103 27.2719C94.7637 27.5513 95.5184 28.0554 96.0832 28.7279C96.7983 29.5793 97.1614 30.6435 97.1115 31.7236L97.11 31.7565L97.1128 31.7892L97.8076 39.9281L96.3374 46.7335L95.2446 46.2885L95.8407 38.9426L95.8457 38.8809L95.8355 38.8199L93.9103 27.2719Z" fill="#121212" stroke="#121212"/>
</g>
<defs>
<clipPath id="clip0_9693_14964">
<rect width="110" height="83.75" fill="white"/>
</clipPath>
</defs>
</svg>
