<svg width="135" height="144" viewBox="0 0 135 144" fill="none" xmlns="http://www.w3.org/2000/svg">
<g clip-path="url(#clip0_7936_5786)">
<path d="M80.7647 4.11908C73.5263 2.7722 66.564 7.54936 65.2173 14.7884C63.8705 22.0274 68.6473 28.9903 75.8857 30.3372C83.1241 31.6841 90.0829 26.9069 91.4331 19.6679C92.7799 12.4288 88.0031 5.46596 80.7647 4.11908ZM77.2904 22.7844C74.2218 22.2116 72.1966 19.2621 72.766 16.1932C73.3388 13.1244 76.288 11.099 79.3566 11.6684C82.4251 12.2413 84.4504 15.1908 83.881 18.2596C83.3116 21.3318 80.359 23.3573 77.2904 22.7844Z" fill="#FCD329"/>
<path d="M91.3785 19.9168C88.6646 18.3823 86.0801 17.3014 83.939 16.5581C84.0037 17.1105 83.9901 17.6833 83.881 18.2596C83.3082 21.3284 80.359 23.3539 77.2904 22.7844C74.2218 22.2116 72.1966 19.2621 72.7659 16.1932C72.8819 15.5692 73.1001 14.993 73.3933 14.4713C71.1873 14.3519 68.3711 14.369 65.2207 14.7713C65.2207 14.7782 65.2173 14.7816 65.2173 14.7884C63.8705 22.0274 68.6472 28.9903 75.8857 30.3372C83.0388 31.667 89.9193 27.016 91.3785 19.9168Z" fill="#FCD329"/>
<path d="M91.3785 19.9168C88.6646 18.3823 86.0801 17.3014 83.939 16.5581C84.0037 17.1105 83.9901 17.6833 83.881 18.2596C83.3082 21.3284 80.359 23.3539 77.2904 22.7844C74.2218 22.2116 72.1966 19.2621 72.7659 16.1932C72.8819 15.5692 73.1001 14.993 73.3933 14.4713C71.1873 14.3519 68.3711 14.369 65.2207 14.7713C65.2207 14.7782 65.2173 14.7816 65.2173 14.7884C63.8705 22.0274 68.6472 28.9903 75.8857 30.3372C83.0388 31.667 89.9193 27.016 91.3785 19.9168Z" fill="#FCD329"/>
<g opacity="0.7">
<g opacity="0.7">
<path opacity="0.7" d="M78.1121 5.97058C78.228 7.08218 75.78 8.05398 73.2501 9.62932C70.6521 11.1467 68.8553 13.196 68.2586 12.9232C67.6619 12.7084 68.4291 9.41109 71.5113 6.97989C74.6037 4.52823 78.0541 4.87944 78.1121 5.97058Z" fill="#FCD329"/>
</g>
<path opacity="0.7" d="M83.5128 6.36274C83.3866 7.03447 82.258 7.38568 80.9931 7.1504C79.7248 6.91513 78.8008 6.1786 78.9235 5.51028C79.0497 4.84196 80.1782 4.48734 81.4432 4.72602C82.7115 4.9613 83.6389 5.69441 83.5128 6.36274Z" fill="#FCD329"/>
</g>
<path d="M95.9107 137.906C104.026 129.79 104.026 116.631 95.9107 108.515C87.7953 100.399 74.6376 100.399 66.5222 108.515C58.4067 116.631 58.4067 129.79 66.5221 137.906C74.6376 146.022 87.7953 146.022 95.9107 137.906Z" fill="#F7A231"/>
<path d="M93.0358 106.117C90.7003 104.501 87.9965 103.335 85.02 102.779C81.7196 102.165 78.4567 102.373 75.4392 103.249C68.1394 105.37 62.2717 111.426 60.7851 119.412C60.3351 121.823 60.3282 124.213 60.693 126.501L100.571 130.787C100.571 130.784 100.574 130.78 100.574 130.777C100.69 130.48 100.799 130.183 100.902 129.88C100.905 129.873 100.905 129.866 100.908 129.863C101.007 129.566 101.103 129.266 101.188 128.966C101.208 128.888 101.229 128.809 101.249 128.731C101.314 128.496 101.379 128.257 101.437 128.018C101.515 127.691 101.587 127.357 101.648 127.023C103.196 118.703 99.565 110.635 93.0358 106.117Z" fill="#FCD329"/>
<path opacity="0.5" d="M93.0358 106.117C90.7003 104.501 87.9965 103.335 85.02 102.779C81.7196 102.165 78.4567 102.373 75.4392 103.249C68.1394 105.37 62.2717 111.426 60.7851 119.412C60.3351 121.823 60.3282 124.213 60.693 126.501L100.571 130.787C100.571 130.784 100.574 130.78 100.574 130.777C100.69 130.48 100.799 130.183 100.902 129.88C100.905 129.873 100.905 129.866 100.908 129.863C101.007 129.566 101.103 129.266 101.188 128.966C101.208 128.888 101.229 128.809 101.249 128.731C101.314 128.496 101.379 128.257 101.437 128.018C101.515 127.691 101.587 127.357 101.648 127.023C103.196 118.703 99.565 110.635 93.0358 106.117Z" fill="#FCD329"/>
<path opacity="0.5" d="M95.5929 108.204C97.1033 111.811 97.6216 115.886 96.851 120.019C94.7508 131.305 83.9017 138.749 72.6161 136.648C68.4838 135.878 64.8663 133.931 62.0432 131.223C64.6583 137.467 70.2636 142.312 77.4133 143.642C88.6989 145.742 99.548 138.295 101.648 127.012C102.981 119.862 100.475 112.889 95.5929 108.204Z" fill="#FCD329"/>
<g opacity="0.7">
<path opacity="0.7" d="M72.8052 133.153C73.3949 131.602 71.8427 129.573 69.3381 128.62C66.8335 127.667 64.3251 128.152 63.7353 129.703C63.1456 131.254 64.6978 133.283 67.2024 134.236C69.707 135.188 72.2154 134.704 72.8052 133.153Z" fill="#FCD329"/>
<path opacity="0.7" d="M77.4885 136.192C77.2669 136.771 76.3293 136.949 75.3883 136.59C74.4472 136.232 73.8642 135.475 74.0858 134.896C74.3075 134.316 75.2451 134.139 76.1861 134.497C77.1237 134.851 77.7068 135.612 77.4885 136.192Z" fill="#FCD329"/>
</g>
<path d="M116.49 109.516C106.312 96.0273 110.012 77.9314 110.932 62.2905C113.271 22.5491 77.9179 17.1582 77.9179 17.1582C77.9179 17.1582 42.9941 9.46565 30.8767 47.3862C26.1068 62.311 23.0519 80.5262 8.70118 89.4497C4.68817 91.9457 0.954747 94.4042 0.14669 99.4371C-0.862528 105.715 3.46415 110.751 8.91939 113.175C10.7708 113.997 12.7483 114.543 14.7394 114.914C32.861 118.287 58.2177 123.009 58.2177 123.009C58.2177 123.009 83.5777 127.728 101.696 131.104C103.684 131.476 105.726 131.677 107.751 131.575C113.711 131.275 119.558 128.134 120.878 121.915C121.935 116.923 119.337 113.288 116.49 109.516Z" fill="#FCD329"/>
<path opacity="0.5" d="M22.7792 72.0699C20.5766 77.0141 17.7979 81.5799 13.969 85.3102L113.067 103.757C110.837 98.8983 109.886 93.637 109.609 88.2324L22.7792 72.0699Z" fill="#FCD329"/>
<path d="M14.9578 84.3043L112.504 102.462C110.527 97.606 109.739 92.3787 109.562 87.0322L23.2531 70.9651C21.1665 75.8923 18.5514 80.4819 14.9578 84.3043Z" fill="#F7A231"/>
<path opacity="0.2" d="M109.647 88.8325C109.609 88.2324 109.582 87.6323 109.562 87.0321L23.2531 70.9651C23.0178 71.5209 22.7758 72.0699 22.5269 72.6154L109.647 88.8325Z" fill="#F7A231"/>
<path opacity="0.5" d="M86.8303 127.681C85.637 127.933 84.4505 127.892 83.3117 127.684C88.9237 128.727 94.754 129.815 99.9604 130.784C101.87 131.138 103.83 131.326 105.777 131.21C111.512 130.869 117.155 127.687 118.467 121.468C119.521 116.479 117.049 112.868 114.335 109.118C104.645 95.717 108.334 77.6211 109.33 61.9939C111.696 24.8814 82.1933 17.9765 78.3269 17.2332C78.2622 17.2196 78.2008 17.2093 78.1497 17.1991C80.4409 17.6492 98.0988 22.3172 93.9767 59.1364C92.2412 74.6272 88.6748 92.747 93.663 105.271C95.0575 108.773 96.3156 112.159 95.3098 117.158C94.0721 123.391 90.3762 126.93 86.8303 127.681Z" fill="#FCD329"/>
<g opacity="0.3">
<path opacity="0.3" d="M27.4262 104.518C28.2888 99.4917 30.5937 96.7707 33.0553 93.9848C41.8621 84.0282 45.0637 65.8402 48.9642 50.7552C58.2483 14.8396 75.5516 16.732 77.6962 17.1139C75.0436 16.6092 48.7562 12.5857 38.0946 48.7331C33.6725 63.7227 30.5562 81.9277 18.4183 91.2638C15.0224 93.8757 11.8618 96.4365 11.0298 101.469C9.99334 107.743 13.4029 112.606 17.8284 114.839C19.332 115.596 20.9481 116.077 22.5779 116.381C26.284 117.069 30.3584 117.83 34.3851 118.58C33.294 118.375 32.2268 118 31.2483 117.339C28.3741 115.392 26.3488 110.782 27.4262 104.518Z" fill="#F9BA2D"/>
</g>
<path opacity="0.5" d="M1.323 106.468C2.89479 109.421 5.71105 111.753 8.91941 113.179C10.7708 114 12.7483 114.546 14.7395 114.918C32.8611 118.29 58.2177 123.013 58.2177 123.013C58.2177 123.013 83.5777 127.732 101.696 131.107C103.684 131.479 105.726 131.68 107.751 131.578C111.256 131.401 114.724 130.241 117.254 128.049L1.323 106.468Z" fill="#FCD329"/>
<g opacity="0.8">
<g opacity="0.7">
<path opacity="0.7" d="M45.6262 100.985C45.5239 102.485 36.3932 103.034 25.4248 100.978C14.4529 98.9495 6.13372 95.1544 6.57355 93.7154C7.01678 92.2458 15.7929 93.6029 26.4306 95.5635C37.0649 97.5617 45.7421 99.4541 45.6262 100.985Z" fill="#FCD329"/>
</g>
<g opacity="0.7">
<path opacity="0.7" d="M65.9708 104.736C66.0389 106.243 62.5135 107.593 58.2243 106.792C53.9317 106.001 51.1291 103.471 51.736 102.087C52.3395 100.678 55.6058 100.719 59.2301 101.377C62.851 102.066 65.9162 103.205 65.9708 104.736Z" fill="#FCD329"/>
</g>
</g>
<g opacity="0.7">
<path opacity="0.7" d="M59.6667 24.7246C60.6145 27.6332 54.607 31.6397 48.7255 37.3C42.6327 42.8512 38.9845 49.3708 37.2321 48.9718C35.5102 48.7399 35.6841 39.4618 42.5509 31.1964C49.445 22.8696 58.8859 21.8331 59.6667 24.7246Z" fill="#FCD329"/>
</g>
<path opacity="0.7" d="M71.4969 23.7736C71.7705 22.3037 69.7383 20.6924 66.9577 20.1748C64.1772 19.6571 61.7014 20.4292 61.4278 21.8992C61.1542 23.3691 63.1864 24.9804 65.9669 25.498C68.7474 26.0157 71.2233 25.2436 71.4969 23.7736Z" fill="#FCD329"/>
<path d="M29.09 32.2296C28.7014 32.2296 28.3093 32.1273 27.9513 31.9159C26.8841 31.2851 26.5329 29.9109 27.1637 28.8437C31.6267 21.3012 38.4901 15.2044 46.4854 11.6752C47.6174 11.174 48.9437 11.6889 49.4449 12.8209C49.9461 13.953 49.4312 15.2794 48.2993 15.7807C41.1495 18.9382 35.0158 24.387 31.0267 31.1317C30.6039 31.8341 29.8572 32.2296 29.09 32.2296Z" fill="#CECECE"/>
<path d="M17.5863 28.53C17.3272 28.53 17.068 28.472 16.8226 28.3458C15.994 27.923 15.6701 26.9103 16.0929 26.0817C22.3358 13.8848 32.8712 4.65782 45.7626 0.0988969C46.6388 -0.211397 47.6003 0.248929 47.9106 1.12525C48.2208 2.00157 47.7606 2.96314 46.8843 3.27344C34.8078 7.54594 24.9372 16.1898 19.0899 27.6161C18.7864 28.1924 18.1966 28.53 17.5863 28.53Z" fill="#CECECE"/>
<path d="M120.683 48.6376C121.052 48.7638 121.454 48.7979 121.863 48.716C123.077 48.4705 123.861 47.2873 123.619 46.0734C121.884 37.4841 117.407 29.471 111.011 23.5073C110.104 22.6616 108.685 22.7128 107.84 23.6164C106.994 24.5234 107.045 25.9419 107.949 26.7875C113.663 32.1171 117.666 39.2845 119.217 46.9634C119.381 47.7681 119.957 48.3853 120.683 48.6376Z" fill="#CECECE"/>
<path d="M132.763 48.924C133.005 49.0093 133.275 49.04 133.548 49.0025C134.468 48.8729 135.109 48.0238 134.983 47.1032C133.098 33.5321 126.176 21.3557 115.501 12.8107C114.775 12.231 113.718 12.3469 113.135 13.0732C112.555 13.7995 112.671 14.8566 113.397 15.4396C123.397 23.4425 129.882 34.8517 131.648 47.5669C131.741 48.2148 132.187 48.7229 132.763 48.924Z" fill="#CECECE"/>
</g>
<defs>
<clipPath id="clip0_7936_5786">
<rect width="135" height="144" fill="white"/>
</clipPath>
</defs>
</svg>
