<svg width="267" height="205" viewBox="0 0 267 205" fill="none" xmlns="http://www.w3.org/2000/svg">
<path d="M210.158 168.358C210.1 168.26 210.007 168.191 209.897 168.162C209.787 168.134 209.672 168.15 209.574 168.208L208.162 169.043L207.327 167.63C207.269 167.532 207.177 167.463 207.066 167.434C206.956 167.406 206.842 167.422 206.744 167.48C206.646 167.538 206.577 167.631 206.548 167.741C206.52 167.851 206.536 167.965 206.594 168.063L207.429 169.476L206.016 170.311C205.918 170.369 205.849 170.461 205.82 170.571C205.792 170.681 205.808 170.796 205.866 170.894C205.924 170.992 206.016 171.061 206.126 171.09C206.237 171.118 206.351 171.102 206.449 171.044L207.862 170.209L208.696 171.622C208.791 171.781 208.974 171.857 209.146 171.823C209.192 171.814 209.237 171.797 209.279 171.772C209.482 171.652 209.549 171.391 209.429 171.189L208.595 169.776L210.007 168.941C210.21 168.822 210.277 168.56 210.158 168.358Z" fill="#DEDEDE"/>
<path d="M213.739 177.711C212.717 177.711 211.885 176.879 211.885 175.857C211.885 174.834 212.717 174.002 213.739 174.002C214.762 174.002 215.593 174.834 215.593 175.857C215.593 176.879 214.762 177.711 213.739 177.711ZM213.739 174.993C213.263 174.993 212.876 175.381 212.876 175.857C212.876 176.333 213.263 176.72 213.739 176.72C214.215 176.72 214.602 176.333 214.602 175.857C214.602 175.38 214.215 174.993 213.739 174.993Z" fill="#DEDEDE"/>
<path d="M26.399 204.933C25.3763 204.933 24.5444 204.101 24.5444 203.078C24.5444 202.056 25.3763 201.224 26.399 201.224C27.4215 201.224 28.2533 202.056 28.2533 203.078C28.2533 204.101 27.4215 204.933 26.399 204.933ZM26.399 202.215C25.9229 202.215 25.5356 202.603 25.5356 203.078C25.5356 203.555 25.9229 203.942 26.399 203.942C26.875 203.942 27.2622 203.554 27.2622 203.078C27.2622 202.603 26.875 202.215 26.399 202.215Z" fill="#DEDEDE"/>
<path d="M231.796 5.47856C230.774 5.47856 229.942 4.64671 229.942 3.62402C229.942 2.60133 230.774 1.76965 231.796 1.76965C232.819 1.76965 233.651 2.6015 233.651 3.62402C233.651 4.64653 232.819 5.47856 231.796 5.47856ZM231.796 2.76078C231.32 2.76078 230.933 3.14815 230.933 3.6242C230.933 4.10025 231.321 4.48762 231.796 4.48762C232.273 4.48762 232.66 4.10025 232.66 3.6242C232.66 3.14815 232.273 2.76078 231.796 2.76078Z" fill="#DEDEDE"/>
<path d="M263.547 52.4534C263.445 52.5033 263.368 52.59 263.331 52.6973C263.294 52.8048 263.301 52.9204 263.351 53.0226L264.07 54.4978L262.594 55.2164C262.492 55.2663 262.416 55.353 262.379 55.4603C262.341 55.5678 262.348 55.6831 262.398 55.7854C262.448 55.8876 262.535 55.9644 262.642 56.0015C262.749 56.0385 262.865 56.0316 262.967 55.9818L264.442 55.2631L265.161 56.7382C265.211 56.8406 265.298 56.9172 265.405 56.9543C265.512 56.9913 265.628 56.9842 265.73 56.9346C265.833 56.8847 265.909 56.7982 265.946 56.6907C265.983 56.583 265.976 56.4676 265.927 56.3654L265.208 54.8903L266.683 54.1716C266.85 54.0903 266.939 53.9142 266.919 53.7397C266.914 53.6932 266.901 53.6467 266.879 53.6024C266.776 53.3913 266.521 53.3034 266.31 53.4062L264.835 54.1249L264.116 52.6498C264.014 52.4387 263.758 52.3507 263.547 52.4534Z" fill="#DEDEDE"/>
<path d="M236.749 87.7524C235.726 87.7524 234.894 86.9206 234.894 85.8979C234.894 84.8752 235.726 84.0433 236.749 84.0433C237.771 84.0433 238.603 84.8752 238.603 85.8979C238.603 86.9206 237.771 87.7524 236.749 87.7524ZM236.749 85.0346C236.273 85.0346 235.885 85.422 235.885 85.8981C235.885 86.3741 236.273 86.7615 236.749 86.7615C237.225 86.7615 237.612 86.3741 237.612 85.8981C237.612 85.422 237.225 85.0346 236.749 85.0346Z" fill="#DEDEDE"/>
<path d="M0.227788 113.611C0.14478 113.688 0.0972537 113.794 0.093529 113.908C0.0898043 114.021 0.130763 114.13 0.208626 114.213L1.33117 115.409L0.13432 116.532C0.0513124 116.61 0.00378163 116.715 0.000234307 116.829C-0.00349038 116.943 0.037299 117.051 0.114985 117.134C0.192849 117.217 0.298196 117.265 0.411887 117.268C0.525579 117.272 0.633771 117.231 0.716778 117.153L1.91365 116.03L3.03637 117.227C3.11406 117.31 3.2196 117.358 3.3333 117.362C3.44699 117.365 3.55518 117.324 3.63819 117.246C3.72119 117.169 3.76872 117.063 3.77245 116.95C3.77599 116.836 3.73539 116.728 3.65735 116.645L2.53478 115.448L3.73165 114.325C3.86663 114.199 3.9005 114.004 3.82991 113.843C3.81111 113.8 3.78469 113.76 3.75082 113.724C3.5903 113.552 3.32033 113.544 3.14917 113.704L1.95232 114.827L0.829581 113.63C0.668887 113.459 0.398946 113.45 0.227788 113.611Z" fill="#DEDEDE"/>
<path d="M18.5042 134.004C17.4817 134.004 16.6497 133.172 16.6497 132.15C16.6497 131.127 17.4815 130.295 18.5042 130.295C19.5269 130.295 20.3586 131.127 20.3586 132.15C20.3586 133.172 19.5267 134.004 18.5042 134.004ZM18.5042 131.286C18.0281 131.286 17.6408 131.674 17.6408 132.15C17.6408 132.626 18.0281 133.013 18.5042 133.013C18.9802 133.013 19.3674 132.626 19.3674 132.15C19.3674 131.674 18.9802 131.286 18.5042 131.286Z" fill="#DEDEDE"/>
<path d="M50.438 192.306C50.2392 192.306 50.0728 192.15 50.0615 191.949C50.0498 191.741 50.209 191.563 50.4171 191.551C51.6618 191.481 52.9217 191.357 54.1617 191.182C54.3674 191.153 54.559 191.297 54.5881 191.503C54.6171 191.709 54.4735 191.9 54.267 191.93C53.0061 192.107 51.725 192.234 50.4593 192.305C50.4524 192.306 50.4451 192.306 50.438 192.306ZM45.1291 192.289C45.1213 192.289 45.1131 192.289 45.1052 192.289C43.8372 192.209 42.557 192.074 41.3007 191.888C41.0944 191.857 40.9522 191.665 40.9828 191.459C41.0135 191.252 41.206 191.11 41.4117 191.141C42.6471 191.325 43.9056 191.457 45.1523 191.535C45.3604 191.548 45.5184 191.728 45.5055 191.936C45.4929 192.136 45.3267 192.289 45.1291 192.289ZM59.42 190.886C59.2526 190.886 59.0997 190.774 59.0552 190.605C59.0023 190.403 59.1229 190.197 59.3246 190.144C60.5344 189.826 61.744 189.454 62.9194 189.037C63.1156 188.967 63.3317 189.07 63.4014 189.266C63.4711 189.463 63.3682 189.679 63.1719 189.749C61.9766 190.172 60.7465 190.551 59.5163 190.874C59.484 190.882 59.4518 190.886 59.42 190.886ZM36.1578 190.799C36.1248 190.799 36.0914 190.795 36.0581 190.786C34.833 190.451 33.6069 190.06 32.4134 189.622C32.2178 189.551 32.1172 189.334 32.1888 189.138C32.2607 188.942 32.4774 188.842 32.673 188.914C33.8465 189.344 35.0522 189.728 36.2569 190.057C36.458 190.112 36.5765 190.32 36.5215 190.521C36.4758 190.689 36.3236 190.799 36.1578 190.799ZM67.9355 187.702C67.7965 187.702 67.6628 187.624 67.597 187.492C67.5045 187.305 67.581 187.078 67.7677 186.986C68.8871 186.431 69.9962 185.822 71.0641 185.175C71.2423 185.067 71.4745 185.124 71.5824 185.302C71.6904 185.481 71.6334 185.713 71.4552 185.821C70.369 186.479 69.2411 187.098 68.1026 187.662C68.0489 187.689 67.9916 187.702 67.9355 187.702ZM27.6731 187.527C27.6158 187.527 27.5575 187.514 27.5028 187.486C26.3705 186.912 25.248 186.282 24.1664 185.614C23.989 185.505 23.9341 185.272 24.0435 185.095C24.1531 184.917 24.3858 184.862 24.563 184.972C25.6267 185.629 26.7306 186.248 27.8443 186.813C28.0301 186.907 28.1045 187.134 28.0103 187.32C27.9434 187.451 27.8107 187.527 27.6731 187.527ZM75.626 182.861C75.5139 182.861 75.4028 182.811 75.3283 182.716C75.1999 182.552 75.2288 182.315 75.3933 182.186C76.3769 181.417 77.3402 180.596 78.2559 179.746C78.4086 179.604 78.6476 179.613 78.7893 179.766C78.931 179.918 78.9223 180.157 78.7694 180.299C77.8381 181.163 76.8586 181.999 75.8581 182.781C75.7893 182.835 75.7074 182.861 75.626 182.861ZM20.0187 182.62C19.9366 182.62 19.8537 182.594 19.7842 182.539C18.7887 181.749 17.8149 180.907 16.89 180.037C16.7381 179.894 16.7309 179.655 16.8736 179.503C17.0166 179.352 17.2553 179.344 17.4073 179.487C18.3169 180.343 19.2745 181.17 20.2535 181.947C20.4169 182.077 20.4442 182.314 20.3147 182.478C20.24 182.571 20.1299 182.62 20.0187 182.62ZM82.1834 176.566C82.097 176.566 82.0101 176.536 81.9391 176.476C81.7802 176.341 81.761 176.103 81.896 175.944C82.7053 174.992 83.4843 173.994 84.2108 172.978C84.332 172.808 84.5679 172.769 84.7374 172.89C84.9072 173.012 84.9462 173.247 84.8251 173.417C84.0862 174.45 83.2942 175.465 82.4712 176.433C82.3964 176.52 82.2901 176.566 82.1834 176.566ZM13.5041 176.281C13.3964 176.281 13.2894 176.235 13.2147 176.146C12.3978 175.172 11.6131 174.152 10.8829 173.113C10.763 172.943 10.804 172.708 10.9744 172.587C11.1449 172.468 11.3803 172.509 11.5003 172.679C12.2185 173.7 12.9899 174.703 13.7932 175.661C13.9271 175.821 13.9063 176.059 13.7465 176.193C13.6757 176.252 13.5897 176.281 13.5041 176.281ZM87.347 169.082C87.2855 169.082 87.223 169.067 87.1654 169.035C86.9829 168.934 86.9162 168.705 87.0168 168.522C87.6193 167.428 88.1826 166.294 88.6909 165.153C88.7759 164.963 88.9988 164.877 89.1893 164.962C89.3798 165.047 89.4653 165.27 89.3805 165.46C88.8635 166.621 88.2908 167.773 87.678 168.886C87.6092 169.011 87.4802 169.082 87.347 169.082ZM8.40017 168.757C8.26572 168.757 8.13571 168.685 8.06761 168.559C7.46527 167.44 6.90373 166.282 6.39841 165.117C6.31558 164.925 6.40337 164.703 6.59457 164.62C6.78595 164.537 7.00818 164.625 7.09101 164.816C7.58781 165.962 8.13997 167.101 8.73201 168.201C8.83098 168.384 8.76234 168.613 8.57877 168.712C8.52183 168.743 8.46047 168.757 8.40017 168.757ZM90.9071 160.714C90.87 160.714 90.8324 160.708 90.7952 160.697C90.596 160.635 90.4848 160.423 90.5465 160.224C90.9168 159.031 91.2406 157.807 91.508 156.587C91.5527 156.384 91.754 156.255 91.9576 156.3C92.1611 156.344 92.29 156.546 92.2453 156.749C91.9733 157.99 91.644 159.234 91.2673 160.448C91.2171 160.61 91.0679 160.714 90.9071 160.714ZM4.92575 160.356C4.76328 160.356 4.61321 160.251 4.56426 160.087C4.20155 158.873 3.88476 157.626 3.62315 156.38C3.58023 156.176 3.71095 155.976 3.91492 155.933C4.11925 155.891 4.31914 156.021 4.36189 156.225C4.61924 157.451 4.9307 158.677 5.28756 159.871C5.34715 160.071 5.23383 160.281 5.03394 160.341C4.99793 160.351 4.96157 160.356 4.92575 160.356ZM92.7051 151.798C92.693 151.798 92.6804 151.798 92.6682 151.796C92.4608 151.776 92.3088 151.592 92.329 151.384C92.4498 150.142 92.5187 148.878 92.5334 147.628C92.5359 147.42 92.7068 147.25 92.9152 147.255C93.1236 147.258 93.2907 147.429 93.2882 147.637C93.2731 148.908 93.2033 150.193 93.0804 151.457C93.0614 151.652 92.8972 151.798 92.7051 151.798ZM3.20476 151.428C3.01161 151.428 2.847 151.28 2.82927 151.084C2.71469 149.817 2.65279 148.531 2.64551 147.262C2.64427 147.054 2.81223 146.884 3.02082 146.883C3.02152 146.883 3.02225 146.883 3.02296 146.883C3.23048 146.883 3.39914 147.05 3.40038 147.258C3.40765 148.506 3.46832 149.771 3.58112 151.016C3.59993 151.224 3.44686 151.407 3.23934 151.426C3.22763 151.427 3.21611 151.428 3.20476 151.428ZM92.6584 142.706C92.4681 142.706 92.3042 142.562 92.2837 142.369C92.1513 141.13 91.9644 139.877 91.728 138.647L91.7187 138.599C91.679 138.394 91.8127 138.196 92.0174 138.157C92.2222 138.117 92.4202 138.251 92.4599 138.455L92.4693 138.504C92.7097 139.755 92.8998 141.029 93.0344 142.288C93.0566 142.496 92.9063 142.682 92.6992 142.704C92.6853 142.705 92.6719 142.706 92.6584 142.706ZM3.30903 142.333C3.29467 142.333 3.28032 142.332 3.26578 142.33C3.05879 142.306 2.90998 142.119 2.93339 141.912C3.07723 140.65 3.27712 139.379 3.52756 138.133C3.56853 137.928 3.76753 137.796 3.97204 137.837C4.17636 137.878 4.30867 138.077 4.2677 138.282C4.02134 139.507 3.82483 140.757 3.68364 141.998C3.66183 142.19 3.49846 142.333 3.30903 142.333ZM90.7798 133.76C90.6198 133.76 90.4713 133.657 90.4202 133.496C90.0414 132.305 89.6074 131.116 89.1301 129.963C89.0503 129.771 89.1418 129.55 89.3344 129.47C89.527 129.391 89.7478 129.482 89.8275 129.675C90.3129 130.847 90.7544 132.056 91.1396 133.268C91.2028 133.466 91.093 133.679 90.8943 133.742C90.8564 133.754 90.8177 133.76 90.7798 133.76ZM5.25261 133.448C5.21359 133.448 5.17387 133.442 5.13485 133.429C4.93673 133.364 4.82889 133.151 4.89398 132.953C5.29004 131.747 5.74303 130.542 6.24001 129.372C6.32142 129.18 6.54296 129.09 6.73504 129.172C6.92695 129.254 7.01634 129.475 6.93493 129.667C6.44628 130.818 6.00093 132.002 5.61144 133.189C5.55911 133.348 5.41136 133.448 5.25261 133.448ZM87.1602 125.42C87.0283 125.42 86.9 125.351 86.8309 125.228C86.2195 124.139 85.5537 123.063 84.8518 122.029C84.7348 121.857 84.7796 121.622 84.952 121.505C85.1244 121.388 85.3591 121.433 85.4763 121.605C86.1902 122.656 86.8674 123.751 87.4893 124.858C87.5914 125.04 87.5267 125.27 87.3451 125.372C87.2864 125.405 87.2228 125.42 87.1602 125.42ZM8.94751 125.14C8.88401 125.14 8.81946 125.124 8.7604 125.09C8.57931 124.987 8.51652 124.756 8.6201 124.575C9.25063 123.473 9.9358 122.383 10.657 121.337C10.7753 121.165 11.0103 121.122 11.182 121.24C11.3537 121.359 11.3967 121.594 11.2784 121.765C10.5693 122.794 9.89535 123.866 9.27546 124.95C9.20575 125.072 9.07858 125.14 8.94751 125.14ZM81.9277 117.989C81.8222 117.989 81.7172 117.945 81.6427 117.86C80.8238 116.917 79.9544 115.997 79.058 115.126C78.9086 114.981 78.9053 114.742 79.0505 114.592C79.1958 114.443 79.4349 114.439 79.5842 114.585C80.4955 115.471 81.3799 116.406 82.2126 117.365C82.3494 117.522 82.3325 117.76 82.1752 117.897C82.1035 117.959 82.0154 117.989 81.9277 117.989ZM14.232 117.742C14.1435 117.742 14.0546 117.711 13.9829 117.648C13.8263 117.51 13.8109 117.271 13.9485 117.115C14.7875 116.16 15.677 115.23 16.5925 114.35C16.7427 114.205 16.9817 114.21 17.1262 114.361C17.2706 114.511 17.266 114.75 17.1156 114.894C16.2153 115.76 15.3405 116.675 14.5156 117.613C14.4411 117.698 14.3368 117.742 14.232 117.742ZM75.3032 111.763C75.223 111.763 75.1425 111.738 75.074 111.685C74.0818 110.926 73.0455 110.199 71.9937 109.525C71.8181 109.413 71.767 109.179 71.8795 109.004C71.9917 108.828 72.2251 108.777 72.4009 108.889C73.4704 109.574 74.5241 110.314 75.533 111.086C75.6985 111.213 75.7299 111.45 75.6032 111.615C75.5287 111.712 75.4165 111.763 75.3032 111.763ZM20.8912 111.555C20.7768 111.555 20.664 111.503 20.5896 111.405C20.4641 111.239 20.4969 111.002 20.6632 110.876C21.6769 110.11 22.7358 109.378 23.8101 108.701C23.9864 108.59 24.2194 108.642 24.3306 108.819C24.4418 108.995 24.389 109.228 24.2125 109.339C23.1561 110.005 22.1152 110.725 21.1184 111.478C21.0504 111.53 20.9704 111.555 20.8912 111.555ZM67.5647 106.989C67.5093 106.989 67.4531 106.977 67.4001 106.951C66.2759 106.405 65.1151 105.901 63.9496 105.452C63.755 105.377 63.6582 105.158 63.733 104.964C63.808 104.769 64.0264 104.672 64.221 104.747C65.4061 105.204 66.5867 105.717 67.7298 106.272C67.9173 106.363 67.9955 106.589 67.9043 106.776C67.8392 106.911 67.7046 106.989 67.5647 106.989ZM28.6639 106.839C28.5227 106.839 28.3872 106.759 28.3226 106.623C28.2332 106.435 28.3134 106.21 28.5018 106.121C29.6486 105.576 30.8336 105.074 32.0241 104.628C32.2194 104.555 32.4368 104.654 32.5099 104.849C32.583 105.045 32.484 105.262 32.2887 105.335C31.1183 105.773 29.9531 106.267 28.8254 106.802C28.7733 106.827 28.7181 106.839 28.6639 106.839ZM59.0248 103.864C58.994 103.864 58.9628 103.86 58.9316 103.852C57.7207 103.544 56.4818 103.284 55.2498 103.08C55.0442 103.046 54.9052 102.852 54.9392 102.646C54.9731 102.44 55.1673 102.301 55.3733 102.335C56.6262 102.543 57.886 102.807 59.1176 103.121C59.3198 103.172 59.4417 103.378 59.3904 103.58C59.3469 103.75 59.1933 103.864 59.0248 103.864ZM37.2292 103.794C37.0593 103.794 36.905 103.679 36.863 103.507C36.8133 103.304 36.9373 103.1 37.1398 103.05C37.8899 102.866 38.6569 102.699 39.4192 102.552C39.9057 102.459 40.4007 102.372 40.8901 102.294C41.096 102.262 41.2893 102.402 41.322 102.608C41.3546 102.814 41.2143 103.007 41.0084 103.04C40.527 103.116 40.0403 103.202 39.5616 103.294C38.8117 103.438 38.0575 103.602 37.3195 103.783C37.2892 103.791 37.259 103.794 37.2292 103.794ZM50.028 102.53C50.0221 102.53 50.0164 102.53 50.0106 102.53C49.3492 102.5 48.6787 102.485 48.0177 102.485C47.4311 102.485 46.8359 102.497 46.2486 102.521C46.042 102.53 45.8648 102.367 45.8565 102.158C45.8483 101.95 46.0104 101.775 46.2187 101.766C46.8159 101.743 47.4212 101.73 48.0177 101.73C48.6901 101.73 49.3719 101.746 50.0445 101.776C50.2527 101.785 50.4139 101.962 50.4045 102.17C50.3955 102.372 50.2284 102.53 50.028 102.53Z" fill="#BFBBBB"/>
<path d="M186.12 158.016C185.903 158.03 185.686 158.043 185.468 158.056C185.26 158.067 185.082 157.908 185.07 157.7C185.059 157.493 185.216 157.316 185.423 157.302C185.424 157.302 185.425 157.302 185.426 157.302C186.66 157.232 187.909 157.132 189.141 157.004C189.349 156.981 189.534 157.133 189.555 157.341C189.577 157.548 189.426 157.733 189.219 157.755C188.192 157.862 187.149 157.949 186.12 158.016ZM180.233 158.177C180.224 158.178 180.214 158.178 180.205 158.178C178.956 158.166 177.691 158.123 176.445 158.051C176.237 158.039 176.078 157.86 176.09 157.652C176.102 157.444 176.282 157.285 176.489 157.297C177.723 157.368 178.975 157.411 180.212 157.423C180.421 157.425 180.588 157.596 180.586 157.804C180.584 158.003 180.428 158.165 180.233 158.177ZM194.397 157.045C194.207 157.057 194.034 156.924 194.001 156.731C193.966 156.526 194.104 156.331 194.31 156.296C195.531 156.087 196.761 155.847 197.967 155.583C198.17 155.538 198.371 155.667 198.416 155.871C198.461 156.074 198.332 156.276 198.128 156.32C196.912 156.587 195.669 156.83 194.437 157.04C194.423 157.042 194.41 157.044 194.397 157.045ZM171.273 157.573C171.25 157.575 171.226 157.574 171.201 157.571C169.962 157.416 168.71 157.228 167.481 157.014C167.276 156.978 167.139 156.782 167.174 156.577C167.21 156.371 167.406 156.234 167.611 156.27C168.828 156.482 170.068 156.668 171.295 156.822C171.502 156.848 171.649 157.037 171.623 157.244C171.6 157.426 171.451 157.562 171.273 157.573ZM203.149 155.036C202.976 155.047 202.813 154.937 202.763 154.764C202.705 154.564 202.82 154.354 203.02 154.296C204.207 153.952 205.403 153.573 206.572 153.173C206.769 153.105 206.983 153.21 207.051 153.407C207.119 153.604 207.014 153.819 206.817 153.887C205.636 154.291 204.429 154.673 203.23 155.021C203.203 155.029 203.176 155.034 203.149 155.036ZM162.434 155.943C162.397 155.946 162.359 155.943 162.32 155.933C161.106 155.636 159.882 155.305 158.682 154.95C158.482 154.891 158.368 154.681 158.427 154.481C158.486 154.281 158.696 154.167 158.896 154.226C160.085 154.578 161.297 154.906 162.499 155.2C162.702 155.249 162.826 155.454 162.776 155.656C162.737 155.82 162.594 155.933 162.434 155.943ZM211.616 152.041C211.46 152.052 211.307 151.963 211.243 151.811C211.163 151.619 211.253 151.397 211.445 151.317C212.586 150.838 213.73 150.325 214.845 149.793C215.033 149.703 215.258 149.783 215.348 149.971C215.438 150.159 215.358 150.384 215.17 150.474C214.044 151.011 212.889 151.529 211.737 152.013C211.698 152.029 211.657 152.039 211.616 152.041ZM153.836 153.308C153.785 153.311 153.732 153.304 153.681 153.285C152.51 152.851 151.333 152.382 150.182 151.892C149.99 151.81 149.901 151.589 149.982 151.397C150.064 151.205 150.286 151.116 150.477 151.197C151.617 151.683 152.783 152.147 153.943 152.577C154.139 152.649 154.239 152.866 154.166 153.062C154.113 153.206 153.98 153.298 153.836 153.308ZM219.676 148.099C219.536 148.108 219.396 148.038 219.323 147.907C219.221 147.725 219.285 147.495 219.467 147.393C220.542 146.788 221.617 146.149 222.663 145.493C222.839 145.382 223.073 145.436 223.183 145.612C223.294 145.789 223.241 146.022 223.064 146.132C222.009 146.795 220.923 147.44 219.837 148.051C219.786 148.079 219.731 148.095 219.676 148.099ZM145.6 149.707C145.535 149.711 145.468 149.699 145.406 149.667C144.291 149.102 143.176 148.502 142.09 147.886C141.908 147.782 141.845 147.552 141.948 147.371C142.051 147.19 142.281 147.126 142.463 147.229C143.538 147.84 144.643 148.434 145.747 148.994C145.933 149.088 146.007 149.315 145.913 149.501C145.851 149.624 145.729 149.699 145.6 149.707ZM227.228 143.261C227.103 143.269 226.977 143.214 226.898 143.105C226.776 142.936 226.813 142.7 226.982 142.578C227.982 141.854 228.978 141.095 229.942 140.324C230.105 140.194 230.343 140.22 230.473 140.383C230.603 140.546 230.577 140.783 230.414 140.913C229.44 141.692 228.434 142.458 227.425 143.189C227.365 143.233 227.297 143.256 227.228 143.261ZM137.831 145.194C137.752 145.199 137.67 145.18 137.599 145.133C136.556 144.445 135.516 143.723 134.508 142.987C134.34 142.864 134.303 142.628 134.426 142.46C134.548 142.292 134.785 142.255 134.953 142.378C135.952 143.106 136.982 143.821 138.015 144.502C138.189 144.617 138.237 144.851 138.122 145.025C138.054 145.128 137.945 145.187 137.831 145.194ZM234.182 137.589C234.072 137.596 233.96 137.555 233.879 137.467C233.738 137.314 233.749 137.075 233.903 136.934C234.814 136.1 235.718 135.233 236.589 134.356C236.736 134.208 236.975 134.207 237.123 134.354C237.271 134.501 237.272 134.74 237.125 134.888C236.245 135.774 235.333 136.649 234.412 137.491C234.347 137.551 234.265 137.584 234.182 137.589ZM130.626 139.831C130.532 139.837 130.437 139.809 130.359 139.744C129.402 138.943 128.451 138.109 127.533 137.264C127.379 137.122 127.369 136.884 127.511 136.73C127.652 136.577 127.89 136.567 128.044 136.708C128.953 137.545 129.895 138.372 130.844 139.165C131.004 139.299 131.025 139.537 130.891 139.697C130.822 139.779 130.725 139.825 130.626 139.831ZM240.45 131.162C240.354 131.168 240.256 131.138 240.178 131.07C240.02 130.933 240.004 130.694 240.14 130.537C240.952 129.604 241.752 128.64 242.518 127.67C242.648 127.506 242.885 127.478 243.049 127.607C243.212 127.737 243.24 127.974 243.111 128.138C242.337 129.117 241.529 130.091 240.71 131.033C240.641 131.112 240.546 131.155 240.45 131.162ZM124.077 133.688C123.97 133.696 123.859 133.656 123.779 133.572C122.919 132.668 122.07 131.732 121.254 130.788C121.117 130.631 121.135 130.392 121.292 130.256C121.45 130.119 121.688 130.137 121.825 130.295C122.633 131.229 123.474 132.156 124.326 133.052C124.47 133.203 124.464 133.442 124.313 133.585C124.246 133.649 124.162 133.683 124.077 133.688ZM245.95 124.062C245.869 124.068 245.785 124.046 245.712 123.996C245.54 123.878 245.497 123.643 245.615 123.472C246.316 122.452 247.002 121.402 247.654 120.352C247.763 120.174 247.996 120.12 248.174 120.23C248.351 120.34 248.405 120.572 248.295 120.749C247.638 121.81 246.945 122.87 246.237 123.899C246.169 123.999 246.062 124.055 245.95 124.062ZM118.271 126.845C118.149 126.853 118.025 126.801 117.945 126.696C117.194 125.701 116.457 124.674 115.754 123.644C115.637 123.472 115.681 123.238 115.853 123.12C116.026 123.002 116.26 123.047 116.378 123.219C117.074 124.239 117.804 125.256 118.548 126.241C118.673 126.407 118.64 126.644 118.474 126.769C118.413 126.816 118.342 126.84 118.271 126.845ZM250.612 116.382C250.545 116.387 250.475 116.373 250.411 116.339C250.227 116.241 250.157 116.013 250.255 115.829C250.837 114.735 251.399 113.613 251.927 112.496C252.016 112.307 252.241 112.226 252.429 112.315C252.618 112.404 252.699 112.629 252.61 112.818C252.077 113.947 251.509 115.079 250.922 116.183C250.858 116.303 250.739 116.374 250.612 116.382ZM113.286 119.388C113.148 119.397 113.011 119.33 112.936 119.203C112.304 118.129 111.69 117.026 111.11 115.924C111.013 115.739 111.084 115.511 111.268 115.414C111.453 115.317 111.681 115.388 111.778 115.572C112.352 116.664 112.961 117.757 113.586 118.82C113.692 119 113.632 119.231 113.453 119.337C113.4 119.367 113.343 119.384 113.286 119.388ZM254.373 108.219C254.319 108.223 254.264 108.215 254.21 108.194C254.016 108.118 253.921 107.899 253.997 107.704C254.45 106.551 254.881 105.372 255.278 104.201C255.345 104.003 255.559 103.897 255.757 103.964C255.954 104.031 256.06 104.245 255.993 104.443C255.592 105.626 255.157 106.816 254.7 107.981C254.644 108.121 254.514 108.21 254.373 108.219ZM109.186 111.407C109.033 111.417 108.883 111.332 108.817 111.183C108.311 110.042 107.827 108.873 107.376 107.708C107.301 107.514 107.398 107.295 107.592 107.22C107.786 107.145 108.005 107.242 108.08 107.436C108.526 108.589 109.007 109.747 109.507 110.878C109.592 111.068 109.505 111.291 109.315 111.375C109.273 111.394 109.229 111.404 109.186 111.407ZM257.176 99.6766C257.137 99.679 257.096 99.6753 257.055 99.6647C256.854 99.6111 256.733 99.4045 256.787 99.203C257.105 98.0047 257.399 96.7832 257.658 95.5728C257.702 95.3691 257.904 95.2397 258.107 95.283C258.31 95.3268 258.44 95.5276 258.397 95.7312C258.134 96.9535 257.838 98.1867 257.517 99.3967C257.474 99.5574 257.334 99.6663 257.176 99.6766ZM106.027 103.001C105.857 103.012 105.695 102.906 105.642 102.736C105.271 101.545 104.923 100.329 104.609 99.1198C104.557 98.9182 104.678 98.712 104.879 98.6595C105.081 98.6069 105.287 98.728 105.34 98.9299C105.651 100.127 105.995 101.332 106.363 102.512C106.425 102.711 106.314 102.923 106.115 102.985C106.085 102.994 106.056 102.999 106.027 103.001ZM258.98 90.8709C258.955 90.8725 258.928 90.8716 258.901 90.8677C258.695 90.8377 258.552 90.646 258.582 90.4397C258.76 89.2168 258.911 87.9724 259.03 86.7413C259.05 86.5337 259.235 86.3817 259.442 86.402C259.649 86.422 259.801 86.6065 259.781 86.814C259.661 88.0571 259.509 89.3134 259.329 90.5484C259.303 90.7283 259.154 90.8597 258.98 90.8709ZM103.849 94.2894C103.661 94.3015 103.49 94.1724 103.454 93.9833C103.221 92.7588 103.013 91.5103 102.837 90.2724C102.808 90.066 102.951 89.875 103.158 89.8455C103.365 89.817 103.555 89.9599 103.584 90.1662C103.759 91.3923 103.964 92.6291 104.195 93.8421C104.234 94.047 104.1 94.2445 103.895 94.2836C103.88 94.2864 103.864 94.2885 103.849 94.2894ZM259.76 81.9247C259.748 81.9254 259.736 81.9258 259.724 81.9252C259.516 81.919 259.352 81.7452 259.358 81.5368C259.394 80.3015 259.402 79.048 259.379 77.8114C259.376 77.603 259.543 77.431 259.75 77.4272C259.958 77.4235 260.13 77.5893 260.134 77.7978C260.157 79.0462 260.149 80.3117 260.113 81.5592C260.107 81.7553 259.952 81.9123 259.76 81.9247ZM102.667 85.3848C102.461 85.3981 102.282 85.243 102.267 85.0366C102.245 84.7425 102.224 84.4486 102.205 84.1549C102.143 83.2012 102.098 82.2339 102.071 81.2802C102.065 81.0718 102.227 80.8992 102.437 80.8921C102.646 80.8862 102.819 81.0503 102.825 81.2587C102.852 82.2035 102.897 83.1617 102.958 84.1063C102.977 84.3972 102.997 84.6883 103.019 84.9797C103.035 85.1875 102.88 85.3688 102.672 85.3846C102.67 85.3846 102.669 85.3846 102.667 85.3848ZM259.513 72.9475C259.308 72.9608 259.13 72.8077 259.112 72.6025C259.008 71.3725 258.874 70.126 258.712 68.897L258.696 68.7778C258.669 68.5712 258.814 68.3814 259.02 68.3539C259.228 68.3262 259.417 68.4717 259.444 68.6783L259.46 68.7994C259.624 70.039 259.76 71.2977 259.864 72.5392C259.882 72.7469 259.728 72.9296 259.52 72.947C259.518 72.9471 259.515 72.9473 259.513 72.9475ZM102.498 76.406C102.485 76.4069 102.472 76.407 102.459 76.4065C102.251 76.3985 102.088 76.2231 102.096 76.0149C102.144 74.7669 102.223 73.5039 102.33 72.2606C102.348 72.0529 102.531 71.8989 102.738 71.9168C102.946 71.9347 103.1 72.1176 103.082 72.3253C102.976 73.5568 102.898 74.8077 102.851 76.0434C102.843 76.2389 102.689 76.3937 102.498 76.406ZM258.232 63.9352C258.046 63.9472 257.875 63.8203 257.838 63.6328C257.594 62.4199 257.318 61.1974 257.018 59.9987C256.967 59.7965 257.09 59.5915 257.292 59.5408C257.494 59.4902 257.7 59.613 257.75 59.8152C258.053 61.0251 258.332 62.2596 258.578 63.4841C258.619 63.6885 258.486 63.8875 258.282 63.9284C258.265 63.932 258.248 63.9341 258.232 63.9352ZM103.356 67.4669C103.329 67.4687 103.301 67.4674 103.274 67.4632C103.068 67.4314 102.926 67.2386 102.958 67.0325C103.149 65.7958 103.373 64.5469 103.623 63.3206C103.664 63.1165 103.864 62.9847 104.068 63.0262C104.272 63.0679 104.404 63.2672 104.362 63.4714C104.115 64.686 103.893 65.9227 103.704 67.1476C103.676 67.3259 103.529 67.4557 103.356 67.4669ZM255.966 55.2462C255.797 55.2572 255.637 55.1533 255.582 54.9855C255.202 53.8087 254.789 52.6254 254.353 51.4685C254.28 51.2734 254.379 51.0558 254.573 50.9823C254.768 50.9089 254.986 51.0073 255.06 51.2026C255.499 52.3706 255.917 53.5653 256.301 54.7537C256.364 54.952 256.256 55.1648 256.057 55.2288C256.027 55.2386 255.996 55.2443 255.966 55.2462ZM105.238 58.6697C105.197 58.6724 105.155 58.6683 105.113 58.6569C104.912 58.6016 104.794 58.3939 104.849 58.193C105.181 56.9876 105.546 55.7737 105.935 54.5848C106 54.3867 106.213 54.2787 106.412 54.3434C106.61 54.4083 106.718 54.6215 106.653 54.8196C106.267 55.9972 105.906 57.1995 105.577 58.3932C105.534 58.5523 105.394 58.6596 105.238 58.6697ZM252.721 46.8729C252.569 46.8829 252.42 46.7993 252.353 46.6526C251.84 45.5271 251.294 44.399 250.728 43.2999C250.633 43.1145 250.706 42.887 250.891 42.7916C251.077 42.6961 251.304 42.769 251.4 42.9544C251.971 44.0642 252.522 45.2032 253.04 46.3396C253.126 46.5294 253.043 46.7532 252.853 46.8396C252.81 46.8593 252.765 46.8701 252.721 46.8729ZM108.116 50.1514C108.061 50.1549 108.005 50.1466 107.951 50.1248C107.757 50.0469 107.664 49.8268 107.742 49.6335C108.209 48.4749 108.71 47.3114 109.232 46.1753C109.32 45.9859 109.544 45.9029 109.733 45.9902C109.922 46.0773 110.005 46.3013 109.918 46.4907C109.401 47.6159 108.904 48.7681 108.442 49.9156C108.386 50.0549 108.256 50.1423 108.116 50.1514ZM248.539 38.9328C248.403 38.9417 248.266 38.876 248.191 38.751C247.555 37.6942 246.884 36.6382 246.196 35.6123C246.081 35.439 246.127 35.2046 246.3 35.0886C246.474 34.9726 246.708 35.019 246.824 35.1921C247.517 36.228 248.195 37.2943 248.838 38.3613C248.945 38.5399 248.888 38.7717 248.709 38.8794C248.656 38.9117 248.597 38.9291 248.539 38.9328ZM111.947 42.0213C111.878 42.0257 111.808 42.0115 111.743 41.9762C111.56 41.8767 111.492 41.6476 111.591 41.4643C112.187 40.3671 112.818 39.2689 113.465 38.2003C113.573 38.022 113.805 37.9649 113.984 38.0731C114.162 38.1811 114.219 38.4131 114.111 38.5915C113.469 39.6501 112.845 40.7378 112.255 41.8247C112.19 41.9429 112.072 42.0131 111.947 42.0213ZM243.478 31.5272C243.357 31.535 243.234 31.4845 243.155 31.3811C242.4 30.4024 241.612 29.4292 240.813 28.4882C240.678 28.3293 240.697 28.0911 240.856 27.9561C241.015 27.821 241.253 27.8405 241.388 27.9994C242.195 28.9492 242.991 29.932 243.752 30.9199C243.88 31.0851 243.849 31.3222 243.684 31.4494C243.622 31.4971 243.55 31.5226 243.478 31.5272ZM116.676 34.3819C116.594 34.3873 116.509 34.3656 116.435 34.3144C116.265 34.1948 116.223 33.9594 116.343 33.7886C117.059 32.7661 117.81 31.747 118.574 30.7594C118.701 30.5946 118.939 30.5643 119.103 30.6918C119.268 30.8194 119.298 31.0565 119.171 31.2213C118.414 32.1994 117.671 33.209 116.961 34.2218C116.893 34.3195 116.786 34.3748 116.676 34.3819ZM237.602 24.7432C237.496 24.7501 237.387 24.7119 237.307 24.6293C236.446 23.7428 235.552 22.8649 234.65 22.0199C234.498 21.8773 234.49 21.6385 234.633 21.4864C234.775 21.3344 235.014 21.3264 235.166 21.469C236.077 22.3221 236.979 23.2084 237.849 24.1036C237.994 24.2531 237.99 24.492 237.841 24.6373C237.774 24.7024 237.689 24.7375 237.602 24.7432ZM122.239 27.3306C122.142 27.337 122.043 27.3059 121.964 27.2366C121.808 27.0984 121.794 26.8598 121.932 26.7038C122.759 25.7692 123.62 24.8421 124.49 23.9482C124.636 23.799 124.875 23.7957 125.024 23.9411C125.174 24.0865 125.177 24.3255 125.032 24.4748C124.17 25.3602 123.317 26.2784 122.497 27.2041C122.429 27.2818 122.335 27.3244 122.239 27.3306ZM230.992 18.6673C230.9 18.6733 230.805 18.6457 230.728 18.5825C229.772 17.7991 228.784 17.0276 227.791 16.2897C227.624 16.1654 227.589 15.929 227.714 15.7615C227.838 15.5943 228.074 15.5593 228.242 15.6838C229.244 16.4288 230.241 17.2076 231.207 17.9986C231.368 18.1308 231.392 18.3686 231.26 18.5299C231.19 18.6141 231.092 18.6607 230.992 18.6673ZM128.563 20.9576C128.451 20.9649 128.338 20.9229 128.257 20.8333C128.118 20.6783 128.131 20.4397 128.286 20.3003C129.213 19.4662 130.173 18.6432 131.139 17.8544C131.3 17.7225 131.538 17.7466 131.67 17.908C131.802 18.0694 131.778 18.3073 131.616 18.4392C130.66 19.2205 129.709 20.0355 128.79 20.8617C128.725 20.9206 128.644 20.9523 128.563 20.9576ZM223.732 13.3777C223.654 13.3827 223.574 13.3637 223.504 13.3181C222.464 12.6475 221.394 11.9927 220.324 11.3721C220.144 11.2674 220.083 11.0365 220.187 10.8561C220.292 10.6757 220.523 10.6144 220.703 10.719C221.784 11.3456 222.864 12.0067 223.913 12.6837C224.088 12.7967 224.138 13.0304 224.026 13.2055C223.958 13.3101 223.848 13.3701 223.732 13.3777ZM135.567 15.3472C135.44 15.3554 135.313 15.2998 135.234 15.1893C135.113 15.0194 135.153 14.7837 135.323 14.6629C136.339 13.9403 137.386 13.2328 138.434 12.5597C138.61 12.4471 138.843 12.4982 138.956 12.6736C139.068 12.849 139.018 13.0826 138.842 13.195C137.803 13.8616 136.767 14.5625 135.76 15.2782C135.701 15.3204 135.634 15.3429 135.567 15.3472ZM215.918 8.94393C215.854 8.94801 215.788 8.93595 215.726 8.90562C214.617 8.3572 213.479 7.82812 212.345 7.33291C212.154 7.24955 212.067 7.02695 212.15 6.83593C212.233 6.64473 212.456 6.55764 212.647 6.64101C213.792 7.14082 214.941 7.67523 216.061 8.22879C216.248 8.3212 216.324 8.54751 216.232 8.73445C216.17 8.85967 216.048 8.93541 215.918 8.94393ZM143.16 10.5759C143.019 10.5851 142.878 10.5136 142.805 10.3813C142.705 10.1988 142.771 9.96928 142.954 9.86854C144.047 9.26603 145.17 8.68196 146.291 8.13248C146.478 8.04078 146.704 8.1181 146.796 8.3054C146.888 8.4927 146.81 8.71867 146.623 8.81055C145.513 9.35453 144.401 9.93292 143.318 10.5298C143.268 10.5574 143.214 10.5723 143.16 10.5759ZM207.646 5.42747C207.596 5.43066 207.544 5.42392 207.494 5.40583C206.328 4.98725 205.137 4.59137 203.953 4.22936C203.754 4.16835 203.642 3.95745 203.703 3.75809C203.764 3.55873 203.975 3.44682 204.174 3.50748C205.369 3.87321 206.572 4.27282 207.749 4.69548C207.945 4.76589 208.047 4.9821 207.977 5.17827C207.924 5.32424 207.791 5.41807 207.646 5.42747ZM151.262 6.70149C151.104 6.7116 150.951 6.62167 150.888 6.46772C150.809 6.27475 150.902 6.05428 151.095 5.97553C152.249 5.50285 153.432 5.05163 154.609 4.63447C154.805 4.56476 155.021 4.66763 155.091 4.86415C155.161 5.06067 155.058 5.27635 154.861 5.34605C153.695 5.75931 152.524 6.20611 151.381 6.67418C151.342 6.68996 151.302 6.69901 151.262 6.70149ZM199.022 2.87978C198.986 2.88209 198.949 2.87925 198.912 2.87056C197.705 2.58837 196.475 2.33172 195.257 2.10789C195.052 2.07029 194.916 1.87358 194.953 1.66837C194.991 1.46334 195.188 1.32765 195.393 1.36543C196.624 1.59139 197.865 1.85053 199.084 2.13537C199.287 2.18291 199.413 2.38582 199.366 2.5889C199.327 2.75474 199.184 2.86932 199.022 2.87978ZM159.754 3.78275C159.58 3.79393 159.415 3.68272 159.366 3.50801C159.31 3.30723 159.427 3.09883 159.628 3.04243C160.829 2.70543 162.055 2.39238 163.272 2.11214C163.476 2.0655 163.678 2.19231 163.725 2.39539C163.772 2.59848 163.645 2.80121 163.442 2.84786C162.235 3.12526 161.021 3.43547 159.832 3.76928C159.806 3.77673 159.78 3.78098 159.754 3.78275ZM190.166 1.34025C190.144 1.34167 190.121 1.34113 190.098 1.33847C188.871 1.19729 187.622 1.08396 186.388 1.00166C186.18 0.987645 186.023 0.807971 186.037 0.599921C186.051 0.39187 186.231 0.234548 186.438 0.248382C187.684 0.331567 188.945 0.445962 190.185 0.588565C190.392 0.612332 190.54 0.799452 190.516 1.00662C190.495 1.19072 190.345 1.32872 190.166 1.34025ZM168.523 1.85088C168.332 1.86329 168.158 1.72797 168.127 1.53429C168.094 1.32854 168.233 1.13468 168.439 1.10151C169.207 0.977356 169.989 0.862601 170.764 0.760615C171.229 0.699247 171.701 0.641251 172.166 0.588218C172.372 0.564806 172.56 0.713432 172.584 0.920595C172.608 1.12776 172.459 1.31471 172.252 1.3383C171.791 1.3908 171.323 1.44826 170.862 1.50892C170.095 1.61002 169.321 1.72371 168.56 1.84662C168.547 1.84875 168.535 1.85017 168.523 1.85088ZM181.201 0.828015C181.193 0.828547 181.184 0.828903 181.176 0.828903C179.941 0.82908 178.688 0.859047 177.452 0.917932C177.243 0.927865 177.066 0.767174 177.057 0.558946C177.047 0.352847 177.204 0.177613 177.409 0.164311C177.411 0.164134 177.413 0.164131 177.416 0.163954C178.664 0.104359 179.929 0.0740299 181.176 0.0738525C181.384 0.0738525 181.553 0.242703 181.553 0.451286C181.553 0.651355 181.398 0.815245 181.201 0.828015Z" fill="#BFBBBB"/>
<path d="M193.601 47.0062V176.863H193.26L183.428 167.296L173.596 176.863H172.573L162.741 167.296L152.908 176.863H151.898L142.083 167.315L132.269 176.863H131.264L121.438 167.304L111.613 176.863H110.577L100.751 167.304L90.9257 176.863H89.9007L80.0941 167.322L70.2877 176.863H69.6401V10.9163H157.511L193.601 47.0062Z" fill="#F2F2F2"/>
<path d="M193.601 47.0067H157.51V10.9163L193.601 47.0067Z" fill="#DEDEDE"/>
<path d="M173.547 138.325V138.326C171.84 140.034 169.071 140.034 167.364 138.326L140.817 111.779L137.444 108.406C139.9 106.784 142.006 104.678 143.627 102.222L173.547 132.142C175.255 133.85 175.255 136.618 173.547 138.325Z" fill="#9C9C9C"/>
<path d="M144.972 103.567L151.889 110.485C150.269 112.941 148.163 115.046 145.707 116.668H145.707L142.162 113.123L138.789 109.75C141.245 108.129 143.351 106.022 144.972 103.567Z" fill="#5E5E5E"/>
<path d="M151.865 89.1599C151.818 88.0402 151.701 86.9389 151.517 85.8595C150.478 79.7226 147.318 74.3067 142.818 70.3935C138.187 66.3646 132.138 63.9257 125.518 63.9257C110.954 63.9257 99.1475 75.7324 99.1475 90.2973C99.1475 91.3058 99.2044 92.3007 99.3142 93.2794C99.6595 96.3478 100.531 99.2561 101.838 101.913V101.914C103.714 105.732 106.487 109.03 109.882 111.534C110.434 111.941 111.003 112.328 111.586 112.691C115.629 115.211 120.404 116.668 125.518 116.668C131.222 116.668 136.503 114.858 140.817 111.779C140.817 111.779 140.817 111.779 140.817 111.779C143.205 110.075 145.296 107.984 147 105.597V105.596H147.001C148.713 103.196 150.033 100.498 150.866 97.5951C151.532 95.2778 151.889 92.8296 151.889 90.2973C151.889 89.9158 151.881 89.537 151.865 89.1599ZM125.518 111.976C120.775 111.976 116.387 110.452 112.817 107.868C109.353 105.36 106.659 101.851 105.159 97.7657C104.305 95.4374 103.839 92.9213 103.839 90.2972C103.839 89.3099 103.905 88.3378 104.033 87.3855C105.112 79.3462 110.597 72.7023 117.979 69.9643C120.327 69.0934 122.868 68.6173 125.518 68.6173C126.477 68.6173 127.421 68.6794 128.347 68.8009C132.742 69.3726 136.724 71.2617 139.884 74.0593C144.37 78.0312 147.198 83.8336 147.198 90.2972C147.198 90.6274 147.191 90.9561 147.176 91.2821C147.105 92.8738 146.862 94.42 146.466 95.9044C145.859 98.18 144.891 100.307 143.627 102.222C142.006 104.678 139.9 106.785 137.444 108.406C136.842 108.803 136.218 109.171 135.575 109.508C134.202 110.228 132.742 110.805 131.215 111.219C129.4 111.713 127.49 111.976 125.518 111.976Z" fill="#B8B8B8"/>
<path d="M109.102 92.6811C107.983 92.6811 107.077 91.7746 107.077 90.6565C107.077 85.6345 109.033 80.9132 112.584 77.3622C116.135 73.8111 120.856 71.8555 125.878 71.8555C126.996 71.8555 127.903 72.762 127.903 73.8801C127.903 74.9984 126.996 75.9047 125.878 75.9047C121.938 75.9047 118.233 77.4391 115.447 80.2254C112.661 83.0116 111.126 86.7161 111.126 90.6565C111.126 91.7746 110.22 92.6811 109.102 92.6811Z" fill="white"/>
</svg>
