<svg width="62" height="62" viewBox="0 0 62 62" fill="none" xmlns="http://www.w3.org/2000/svg">
<path fill-rule="evenodd" clip-rule="evenodd" d="M62 54.2889C62 58.5468 58.5486 61.9989 54.2914 61.9989H7.71076C3.45249 61.9989 0 58.5468 0 54.2889V7.70968C0 3.45177 3.45249 -0.000366211 7.71076 -0.000366211H54.2914C58.5486 -0.000366211 62 3.45177 62 7.70968V54.2889Z" fill="#8EC23C"/>
<path fill-rule="evenodd" clip-rule="evenodd" d="M30.4024 29.4951C27.6852 29.4951 25.1604 30.3189 23.0627 31.7294L29.2896 35.6386V37.8006C29.6477 37.7186 30.0195 37.6715 30.4024 37.6715C33.1577 37.6715 35.3931 39.9062 35.3931 42.6633C35.3931 45.4189 33.1577 47.6536 30.4024 47.6536C27.6464 47.6536 25.4124 45.4189 25.4124 42.6633C25.4124 41.216 26.0316 39.9166 27.0153 39.0048C24.1745 38.4259 21.5943 37.1332 19.47 35.3207C18.0576 37.4184 17.2332 39.9446 17.2332 42.6633C17.2332 49.9354 23.1296 55.8314 30.4024 55.8314C37.6752 55.8314 43.5713 49.9354 43.5713 42.6633C43.5713 35.3912 37.6752 29.4951 30.4024 29.4951Z" fill="#CAFC9D"/>
<path fill-rule="evenodd" clip-rule="evenodd" d="M45.6077 22.4999C45.6077 30.8981 38.7995 37.7046 30.4016 37.7046C22.0041 37.7046 15.1958 30.8981 15.1958 22.4999C15.1958 14.1023 22.0041 7.2937 30.4016 7.2937C38.7995 7.2937 45.6077 14.1023 45.6077 22.4999Z" fill="#CAFC9D"/>
<path fill-rule="evenodd" clip-rule="evenodd" d="M43.0098 11.3219C44.7889 11.2611 46.22 9.08287 46.22 7.2937H37.675C39.7148 8.27134 41.5252 9.64882 43.0098 11.3219Z" fill="#CAFC9D"/>
<path fill-rule="evenodd" clip-rule="evenodd" d="M30.4026 29.4951C26.4413 29.4951 22.8914 31.2458 20.4773 34.0141C23.0345 36.2192 26.3313 37.5888 29.9485 37.6949C30.0977 37.6801 30.2494 37.6715 30.4026 37.6715C30.5558 37.6715 30.7071 37.6801 30.8574 37.6949C34.4732 37.5888 37.7714 36.22 40.3275 34.0141C37.9138 31.2458 34.3639 29.4951 30.4026 29.4951Z" fill="#FCF5FF"/>
</svg>
