<svg width="26" height="26" viewBox="0 0 26 26" fill="none" xmlns="http://www.w3.org/2000/svg">
<path d="M11.8259 0.31086C8.75214 0.592492 6.10061 1.82438 3.95954 3.96545C2.00622 5.91876 0.862347 8.17718 0.410562 10.9813C0.263878 11.8728 0.263878 13.6621 0.404695 14.5889C0.833011 17.3517 2.00622 19.6749 3.95954 21.6341C4.9978 22.6665 5.94219 23.3471 7.23275 23.9981C11.1981 25.9807 15.9792 25.6876 19.6922 23.2295C24.9542 19.7392 26.8019 12.8583 23.9922 7.23866C23.3409 5.9481 22.6605 5.00371 21.6282 3.96545C19.6866 2.02974 17.3284 0.833054 14.6417 0.42234C14.0376 0.33433 12.3481 0.263921 11.8259 0.31086ZM13.7912 1.33152C18.8654 1.80091 23.0302 5.50218 24.0567 10.4649C24.8427 14.2603 23.6695 18.1787 20.9243 20.93C16.6185 25.23 9.73173 25.4412 5.16209 21.4111C2.07638 18.6833 0.68046 14.4598 1.53684 10.418C2.73352 4.74555 8.04806 0.803716 13.7912 1.33152Z" fill="#48CEF3"/>
<path d="M6.04784 10.4121C5.60779 10.5647 5.256 10.7935 4.9509 11.116C4.60473 11.4797 4.44656 11.7963 4.34095 12.3185C4.11213 13.4154 4.66952 14.53 5.71365 15.0404C6.14197 15.2575 6.18304 15.2634 6.77539 15.2634C7.35013 15.2634 7.42641 15.2517 7.79605 15.0756C9.36824 14.3307 9.7787 12.3654 8.61722 11.1218C8.27105 10.7522 8.01314 10.582 7.54962 10.4239C7.10371 10.2774 6.45855 10.2716 6.04784 10.4121ZM7.39707 11.4448C7.94248 11.6971 8.26518 12.2014 8.26518 12.7999C8.26518 13.2106 8.16544 13.4864 7.89554 13.7912C7.59069 14.1371 7.29733 14.2603 6.781 14.2662C6.40549 14.2662 6.29988 14.2427 6.07131 14.1078C5.75447 13.92 5.5259 13.6677 5.39682 13.3629C5.27947 13.093 5.2736 12.5065 5.39095 12.2366C5.61391 11.6968 6.19452 11.304 6.78126 11.304C6.99809 11.304 7.20345 11.3509 7.39707 11.4448Z" fill="#48CEF3"/>
<path d="M12.1601 10.3713C11.5091 10.5239 10.8285 11.0986 10.5234 11.744C10.1599 12.5241 10.2535 13.5157 10.7522 14.2371C11.726 15.6274 13.826 15.6333 14.8175 14.2547C15.803 12.8759 15.152 10.9226 13.5387 10.4239C13.1397 10.3009 12.5533 10.2774 12.1601 10.3713ZM13.3099 11.3978C14.3071 11.7381 14.6063 13.0933 13.8497 13.8557C12.8584 14.8412 11.1864 14.0435 11.3155 12.6473C11.4033 11.6675 12.3538 11.0693 13.3099 11.3978Z" fill="#48CEF3"/>
<path d="M18.0442 10.4121C17.1585 10.7055 16.5072 11.4621 16.3312 12.4065C16.0789 13.7734 17.1758 15.1695 18.5896 15.2751C20.2205 15.3983 21.4876 14.0432 21.2646 12.43C21.1531 11.6264 20.6368 10.9341 19.8802 10.5586C19.4812 10.3649 19.3876 10.3415 18.9006 10.3239C18.5019 10.3126 18.2848 10.3361 18.0442 10.4121ZM19.4815 11.4683C20.4317 11.9552 20.5549 13.3453 19.6985 13.9848C18.8715 14.6065 17.6631 14.2137 17.3756 13.2338C17.2582 12.8466 17.2582 12.7527 17.3756 12.3657C17.4871 11.9843 17.8039 11.6267 18.1909 11.4389C18.4315 11.3216 18.5547 11.304 18.8654 11.3216C19.0942 11.3333 19.3406 11.392 19.4815 11.4683Z" fill="#48CEF3"/>
</svg>
