<svg width="110" height="94" viewBox="0 0 110 94" fill="none" xmlns="http://www.w3.org/2000/svg">
<path d="M53.3737 24.1401L53.369 24.1717L53.3561 24.2631L52.0263 33.8171L43.884 36.8083L43.7564 36.7472L39.1977 34.5796L36.8405 25.5242L36.679 24.9025L36.7282 24.8836L46.8128 21.0902L53.3677 24.1364L53.3737 24.1401Z" fill="#8BC63E"/>
<path d="M43.7564 36.7474L39.1977 34.5798L36.679 24.9027L36.7282 24.8838L43.2983 27.6591L43.7564 36.7474Z" fill="#8BC63E"/>
<path opacity="0.2" d="M43.8701 36.6371L40.4026 29.9839L40.8479 28.0977L38.7505 25.6248L38.5719 25.7767L40.5926 28.1591L39.0831 34.5528L39.3113 34.607L40.3202 30.3329L43.6623 36.7455L43.8701 36.6371Z" fill="#121212"/>
<path d="M46.7924 21.6321L52.1904 24.1406L43.2982 27.2467L37.3661 25.1779L46.7924 21.6321Z" fill="#121212" stroke="#121212"/>
<path d="M43.4736 27.9539L41.4233 26.3705L41.8919 24.611L47.7497 22.4995L51.733 22.7341L53.3147 24.0831L53.4318 24.4349L43.4736 27.9539Z" fill="#8BC63E"/>
<path d="M36.7955 24.9027L41.4231 24.7266L43.9301 23.8747L47.8386 22.4979L48.5697 21.4423L46.7457 21.1154L36.7955 24.9027Z" fill="#8BC63E"/>
<path d="M46.0151 23.015L43.6022 23.8628L43.6798 24.0841L46.0927 23.2363L46.0151 23.015Z" fill="#CCCCCC"/>
<path d="M14.2333 9.29736L13.1021 14.96L18.3809 18.9241L20.8319 11.5624L14.2333 9.29736Z" fill="#CC9494"/>
<path d="M18.4748 14.489C21.2861 14.489 23.5651 12.2072 23.5651 9.39251C23.5651 6.57778 21.2861 4.29599 18.4748 4.29599C15.6635 4.29599 13.3846 6.57778 13.3846 9.39251C13.3846 12.2072 15.6635 14.489 18.4748 14.489Z" fill="#FFB9B9"/>
<path d="M7.44669 48.0089C7.46996 49.6532 14.6226 67.9531 13.6295 70.336C12.064 71.9382 8.69669 80.4659 7.25804 82.7409C7.06963 82.7408 6.12698 85.5722 6.12698 85.5722C6.12698 85.5722 8.38934 89.1586 10.8402 87.6485C13.922 80.3915 21.6399 76.344 21.7762 66.8855C22.1488 69.8734 23.2484 89.0523 23.2484 89.0523C23.2484 89.0523 23.0375 89.142 27.7857 89.5975C28.5228 78.4662 31.5353 59.5286 24.7911 47.6312C22.7175 46.6876 7.44669 48.0089 7.44669 48.0089Z" fill="#494949"/>
<path d="M23.248 88.6776C23.0276 89.1019 21.4469 93.0192 22.8853 93.4119C24.5441 93.8649 26.1521 93.2302 26.1521 93.2302C26.1521 93.2302 29.056 94.1388 30.8331 92.9841C31.6625 92.1537 31.474 91.3987 31.0781 90.8514C30.877 90.5818 30.6195 90.3593 30.3237 90.1997C30.0278 90.04 29.7007 89.9469 29.3651 89.9269C28.4633 89.8626 28.1769 89.6952 28.0736 89.2815C27.9228 88.6776 23.248 88.6776 23.248 88.6776Z" fill="#494949"/>
<path d="M7.73579 85.2589C7.73579 85.2589 3.68376 86.54 4.53682 88.0347C5.09084 88.9611 5.89978 89.7079 6.8668 90.1859C6.8668 90.1859 7.7119 93.6741 10.0578 93.6741C11.2308 93.6741 11.6306 93.0068 11.7373 92.3395C11.7855 92.0065 11.7605 91.6669 11.6641 91.3445C11.5676 91.0222 11.402 90.7247 11.1789 90.4731C10.5867 89.7891 10.5024 89.468 10.7215 89.1023C11.0414 88.5685 7.73579 85.2589 7.73579 85.2589Z" fill="#494949"/>
<path d="M25.7342 48.5606C25.7342 48.5606 24.9792 50.0707 21.9629 49.5037C18.9465 48.9386 7.06986 49.5037 7.06986 49.5037C7.06986 49.5037 7.72867 36.008 6.22049 27.8909C4.71231 19.7739 10.6507 15.1493 10.6507 15.1493L12.5363 13.2613C14.422 13.0742 18.4039 18.9325 18.4039 18.9325C19.7142 19.1524 20.9375 24.7291 21.981 30.0061C22.0427 30.3077 22.1008 30.6057 22.1589 30.9037C22.6398 33.3641 23.3095 36.1025 23.7106 38.561C23.7397 38.7355 23.7669 38.9081 23.7923 39.0807C24.2691 42.2733 24.9173 45.4379 25.7342 48.5606Z" fill="#4B6E82"/>
<path d="M12.5205 6.2191C12.5205 6.2191 11.5688 4.12277 14.0432 3.1699C14.0432 3.1699 16.137 -0.260455 20.3245 2.02645C20.3245 2.02645 23.1796 3.1699 23.1796 6.2191C23.1796 9.2683 24.1313 9.84002 24.1313 9.84002C24.1313 9.84002 22.7141 8.38426 22.3334 7.24082C21.9527 6.09737 18.9921 5.83795 17.85 6.9814C16.708 8.12485 13.8529 7.93428 13.8529 7.93428L14.0432 12.1269C14.0432 12.1269 13.0915 9.64945 12.7108 9.64945C12.3301 9.64945 11.9494 6.2191 12.5205 6.2191Z" fill="#494949"/>
<path d="M24.404 5.78374C24.2964 5.46488 24.0693 5.19611 23.7669 5.02992C23.7827 4.6933 23.7372 4.35661 23.6324 4.0351C23.282 3.0959 22.4518 3.14974 21.6685 2.73451C21.3286 2.55435 21.3496 2.39513 21.1727 2.09922C20.9352 1.70605 20.588 1.3849 20.1705 1.17226C19.6873 0.842002 19.1294 0.627436 18.5429 0.546345C17.2935 0.46915 16.3356 1.53443 15.1415 1.87632C14.6151 2.027 14.0496 2.03321 13.5205 2.17567C12.9913 2.31814 12.4634 2.6583 12.3846 3.15353C12.3482 3.38216 12.4124 3.6167 12.3755 3.84527C12.3021 4.29956 11.8624 4.61772 11.5681 4.99137C10.9172 5.81766 10.9917 6.98497 11.5122 7.884C11.6224 8.07079 11.7479 8.24882 11.8875 8.41641C11.9316 8.84368 12.0665 9.25766 12.2837 9.63264C12.8042 10.5317 13.6999 11.2035 14.6355 11.7616C14.5589 11.464 14.5125 11.16 14.4967 10.8538C14.4835 10.7516 14.4982 10.648 14.5393 10.553C14.6435 10.3555 14.9188 10.303 15.1287 10.1949C15.3289 10.0682 15.4912 9.89331 15.5996 9.68758C15.708 9.48185 15.7587 9.25242 15.7466 9.02202C15.7592 8.56882 15.6532 8.11488 15.7056 7.66404C15.7084 7.55894 15.735 7.45568 15.7833 7.36143C15.8317 7.26718 15.9008 7.18419 15.9858 7.11821C16.1479 7.03486 16.3305 6.99541 16.5141 7.00404C17.4049 6.97109 18.3357 6.95625 19.1215 6.57436C19.3765 6.42105 19.6488 6.2962 19.9331 6.20219C20.6009 6.04433 21.2834 6.46863 21.6683 6.98793C22.0531 7.50722 22.245 8.12518 22.6001 8.66163C22.9552 9.19808 23.5686 9.67646 24.2552 9.6129C24.2934 9.61319 24.3312 9.60601 24.3665 9.59181C24.4017 9.5776 24.4336 9.55666 24.4602 9.53025C24.4897 9.48257 24.5029 9.42721 24.498 9.37192L24.5363 6.9929C24.5682 6.58546 24.5233 6.17584 24.404 5.78374Z" fill="#494949"/>
<path opacity="0.2" d="M23.7114 38.5617C19.2141 36.114 11.9291 30.7462 9.57881 27.8425C6.48078 24.0175 9.86012 21.1101 9.86012 21.1101C13.6914 18.6897 18.2722 26.9939 18.2722 26.9939L21.9818 30.0067C22.0435 30.3083 22.1016 30.6063 22.1597 30.9043C22.6406 33.3647 23.3103 36.1031 23.7114 38.5617Z" fill="#121212"/>
<path d="M37.1362 35.7398C37.1362 35.7398 43.8223 38.4574 44.9228 35.4025C46.0232 32.3476 39.644 32.4 39.644 32.4L37.1396 32.7553L37.1362 35.7398Z" fill="#9F616A"/>
<path d="M9.00301 19.8663C9.00301 19.8663 5.62531 22.7754 8.72113 26.5992C11.8169 30.4229 26.0445 38.593 26.0445 38.593L35.312 36.0845L37.9347 36.5651L38.4291 31.6351L34.5654 32.0128L24.7575 29.9218L18.5034 24.841C18.5034 24.841 12.8333 17.4472 9.00301 19.8663Z" fill="#4B6E82"/>
<path opacity="0.2" d="M21.307 54.9098L21.8979 68.7346L20.3996 54.9098H21.307Z" fill="#121212"/>
<path d="M85.1073 45.0219L79.7428 46.2667C79.3279 46.363 78.8917 46.2935 78.5271 46.0729C78.1625 45.8523 77.8982 45.498 77.7903 45.0853C77.7277 44.846 77.72 44.5956 77.7678 44.3529C77.8156 44.1102 77.9177 43.8815 78.0663 43.6839C78.215 43.4863 78.4064 43.325 78.6262 43.212C78.846 43.0991 79.0884 43.0374 79.3354 43.0317L84.5171 42.911L85.1073 45.0219Z" fill="#FFB9B9"/>
<path d="M90.9853 39.7315L89.1695 23.7209C90.4139 24.0819 91.3354 24.7683 91.9605 25.6773C92.6983 26.7501 93.0512 28.1747 92.9787 29.8296L92.9773 29.8608L92.9798 29.8919L93.8757 40.9496L84.8353 45.1211L83.977 42.5432L90.6503 40.261L91.0306 40.1309L90.9853 39.7315Z" fill="#121212" stroke="#121212"/>
<path d="M89.4726 19.389H101.142V13.5787C101.146 12.0095 100.532 10.5019 99.433 9.38323C98.8962 8.8321 98.2544 8.39431 97.5458 8.09576C96.8371 7.79721 96.0758 7.64396 95.3069 7.64506C93.7715 7.64789 92.2988 8.25567 91.2074 9.33699C90.1159 10.4183 89.4934 11.8863 89.4744 13.4235C89.4735 13.4767 89.4726 13.5272 89.4726 13.5787L89.4726 19.389Z" fill="#494949"/>
<path d="M106.021 87.6677L102.291 87.2392L97.8269 57.0544L88.593 87.3616L84.5569 87.4841L89.1433 50.197L88.4707 41.6865L99.9061 38.0741C108.005 43.735 107.838 63.7296 106.021 87.6677Z" fill="#494949"/>
<path d="M94.2801 18.237C96.7118 18.237 98.6831 16.2633 98.6831 13.8287C98.6831 11.394 96.7118 9.42035 94.2801 9.42035C91.8485 9.42035 89.8772 11.394 89.8772 13.8287C89.8772 16.2633 91.8485 18.237 94.2801 18.237Z" fill="#FFB9B9"/>
<path d="M98.6834 21.7884L91.2228 23.7476C92.4798 21.3274 92.882 19.0681 92.2013 17.0127L97.4603 16.1555C97.1223 18.1209 97.5609 20.1409 98.6834 21.7884Z" fill="#FFB9B9"/>
<path d="M87.2762 33.8915L87.3096 34.0537L88.9854 42.2035C90.5712 43.4279 92.4374 43.4211 94.4846 42.742C96.5092 42.0704 98.6152 40.7705 100.632 39.4887C100.028 36.4326 99.7566 32.9544 101.465 30.2415L100.311 21.5733L98.0209 20.9751C96.8544 21.6372 95.7398 22.1368 94.7367 22.3437C93.7787 22.5414 92.8632 22.4819 92.1133 21.9783L89.527 22.8685C89.5269 22.8685 89.5269 22.8685 89.5268 22.8685C89.2602 22.9604 89.0179 23.1119 88.8183 23.3115C88.6186 23.5111 88.467 23.7537 88.3749 24.0208L87.2762 33.8915ZM87.2762 33.8915L87.1526 33.7813M87.2762 33.8915L87.1526 33.7813M87.1526 33.7813C86.9251 33.5784 86.7431 33.2372 86.6486 32.698M87.1526 33.7813L86.6486 32.698M86.6486 32.698C86.5542 32.1591 86.555 31.4638 86.6572 30.6124M86.6486 32.698L86.6572 30.6124M86.6572 30.6124C86.8616 28.91 87.4588 26.6787 88.3748 24.0209L86.6572 30.6124Z" fill="#121212" stroke="#121212"/>
<path d="M97.7049 43.3074L92.3405 44.5521C91.9255 44.6484 91.4893 44.5789 91.1247 44.3583C90.7601 44.1377 90.4958 43.7834 90.3879 43.3708C90.3253 43.1315 90.3176 42.8811 90.3654 42.6383C90.4132 42.3956 90.5153 42.1669 90.6639 41.9693C90.8126 41.7717 91.004 41.6104 91.2238 41.4975C91.4435 41.3845 91.686 41.3228 91.933 41.3171L97.1147 41.1964L97.7049 43.3074Z" fill="#FFB9B9"/>
<path d="M105.373 93.4393C104.746 93.7255 104.221 91.9512 103.693 92.4712C102.215 93.9256 98.6686 93.5996 98.6686 93.5996C98.5495 93.5613 98.4395 93.4992 98.3451 93.417C98.2507 93.3349 98.174 93.2344 98.1195 93.1217C98.0651 93.0089 98.0341 92.8863 98.0283 92.7613C98.0226 92.6362 98.0423 92.5112 98.0862 92.394C98.1387 92.2537 98.2245 92.1283 98.3362 92.0285C98.4479 91.9288 98.5821 91.8576 98.7273 91.8213L100.299 91.4278L102.768 87.0816L105.458 86.7407L105.526 86.852C106.046 87.6911 106.381 88.6317 106.509 89.6109C106.637 90.5901 106.555 91.5855 106.269 92.5305C106.045 93.2481 105.741 93.2711 105.373 93.4393Z" fill="#494949"/>
<path d="M87.6388 93.4393C87.0123 93.7255 86.4875 91.9512 85.959 92.4712C84.4808 93.9256 80.9348 93.5996 80.9348 93.5996C80.8157 93.5613 80.7057 93.4992 80.6113 93.417C80.5169 93.3349 80.4402 93.2344 80.3857 93.1217C80.3313 93.0089 80.3002 92.8863 80.2945 92.7613C80.2888 92.6362 80.3084 92.5112 80.3523 92.394C80.4049 92.2537 80.4907 92.1283 80.6024 92.0285C80.714 91.9288 80.8482 91.8576 80.9934 91.8213L82.5655 91.4278L85.0338 87.0816L87.7239 86.7407L87.7918 86.852C88.3119 87.6911 88.6472 88.6317 88.7753 89.6109C88.9035 90.5901 88.8216 91.5855 88.5351 92.5305C88.3114 93.2481 88.0069 93.2711 87.6388 93.4393Z" fill="#494949"/>
<path d="M99.4419 10.153L98.333 13.6854L88.7456 13.5148C88.7784 12.2789 89.1959 11.0841 89.9398 10.0973C90.6838 9.11056 91.717 8.38108 92.8951 8.01079C94.0732 7.64051 95.3375 7.64791 96.5112 8.03198C97.685 8.41604 98.7096 9.15757 99.4419 10.153H99.4419Z" fill="#494949"/>
<path d="M103.58 37.9958L100.995 21.6572C102.244 22.0327 103.356 22.7812 104.176 23.8106C105.147 25.0289 105.645 26.5583 105.577 28.1157L105.575 28.1469L105.578 28.178L106.474 39.2357L97.4332 43.4071L96.5749 40.8292L103.248 38.547L103.646 38.411L103.58 37.9958Z" fill="#121212" stroke="#121212"/>
<path d="M80.075 34.4471L72.6461 36.0467L71.1283 28.7286L73.9241 24.9695L76.4403 24.4896L79.2362 27.3289L80.075 34.4471Z" fill="#CCCCCC"/>
<path d="M76.6403 34.7661H72.1666L71.5568 31.7515L70.8889 28.448L71.8871 27.0089L73.8055 27.6085L75.8817 30.4886L76.4026 33.4233L76.4389 33.6322L76.6403 34.7661Z" fill="#E6E6E6"/>
<path d="M84.15 33.0078L78.9977 33.6076L79.9164 27.0495L81.9932 25.1698L83.7905 25.6098L84.9889 28.369L84.15 33.0078Z" fill="#CCCCCC"/>
<path d="M84.827 29.1268L84.3479 31.7671L82.7907 40.7636L76.7997 42.6843L76.5928 42.5717L73.3641 40.8036L71.5474 31.7471L71.5565 31.7507L76.3605 33.686L76.4023 33.4225L76.4313 33.2317L76.7997 30.8876L78.4368 29.1268L83.9087 27.8076L84.827 29.1268Z" fill="#E6E6E6"/>
<path d="M81.0343 28.85C81.7402 28.85 82.3124 28.2769 82.3124 27.57C82.3124 26.8632 81.7402 26.2901 81.0343 26.2901C80.3284 26.2901 79.7562 26.8632 79.7562 27.57C79.7562 28.2769 80.3284 28.85 81.0343 28.85Z" fill="#E6E6E6"/>
<path d="M77.8915 28.2287L74.9758 28.7486L74.9898 28.8273L77.9055 28.3075L77.8915 28.2287Z" fill="white"/>
<path d="M76.5931 42.5725L73.3644 40.8044L71.5477 31.7479L71.5568 31.7515L70.8889 28.448L71.8871 27.0089L73.8055 27.6085L75.8817 30.4886L76.4026 33.4233L76.4316 33.2325L76.4389 33.6322L76.4588 34.7661L76.5931 42.5725Z" fill="#E9EBEE"/>
<path d="M73.4044 40.817L73.3271 40.7963L74.9197 34.8169L73.0961 32.4098L73.1598 32.3615L75.007 34.7997L73.4044 40.817Z" fill="#CCCCCC"/>
<path d="M74.3028 37.4022L74.2308 37.4369L76.7639 42.7023L76.8359 42.6676L74.3028 37.4022Z" fill="#CCCCCC"/>
<path opacity="0.2" d="M84.513 31.2202L84.2131 32.8794L84.1979 32.881L82.8551 40.6373L76.8641 42.5568L76.8281 42.574L76.8041 42.524L73.4292 40.6773L73.3904 40.6669L73.4112 40.5885L71.6119 31.6197L71.6211 31.6233L71.4218 30.6388L71.5707 30.424L72.0312 29.7602L73.9484 30.36L76.0253 33.2393L76.0557 33.4104L76.2737 34.6389L76.3612 35.1324L76.5461 36.1749L76.7219 35.0548L76.785 34.6517L76.9439 33.6392L78.5815 31.8796L79.3096 31.7041L79.8165 31.5817L80.5138 31.4138C80.2975 31.2822 80.1251 31.0892 80.0185 30.8594C79.9118 30.6296 79.8758 30.3732 79.9148 30.1229C79.9538 29.8725 80.0662 29.6393 80.2377 29.453C80.4093 29.2666 80.6322 29.1355 80.8782 29.0761C81.1243 29.0168 81.3824 29.0319 81.6199 29.1196C81.8573 29.2073 82.0635 29.3636 82.2121 29.5687C82.3607 29.7738 82.4452 30.0184 82.4548 30.2717C82.4644 30.5249 82.3987 30.7753 82.266 30.9911L84.0533 30.56L84.4939 31.193L84.513 31.2202Z" fill="#121212"/>
<path d="M76.784 37.9203H72.3106L71.0326 31.602L72.0312 30.1623L73.9482 30.7622L76.0252 33.6414L76.784 37.9203Z" fill="#E6E6E6"/>
<path d="M82.9344 43.9162L76.9432 45.8356L73.5084 43.9561L71.6911 34.8985L76.504 36.8379L76.9432 34.0387L78.5808 32.2792L84.0527 30.9596L84.9714 32.2792L84.4921 34.9185L82.9344 43.9162Z" fill="#E6E6E6"/>
<path d="M81.1783 32.0004C81.8842 32.0004 82.4564 31.4274 82.4564 30.7205C82.4564 30.0137 81.8842 29.4406 81.1783 29.4406C80.4724 29.4406 79.9002 30.0137 79.9002 30.7205C79.9002 31.4274 80.4724 32.0004 81.1783 32.0004Z" fill="#E6E6E6"/>
<path d="M76.7407 45.6607L73.512 43.8927L71.6953 34.8361L71.7044 34.8398L71.0365 31.5363L72.0347 30.0971L73.953 30.6968L76.0293 33.5769L76.5502 36.5115L76.5792 36.3207L76.5865 36.7205L76.6064 37.8544L76.7407 45.6607Z" fill="#E9EBEE"/>
<path d="M73.5477 43.9675L73.4706 43.947L75.0632 37.9674L73.2394 35.5603L73.3031 35.5119L75.1504 37.9503L73.5477 43.9675Z" fill="#CCCCCC"/>
<path d="M74.4472 40.5541L74.3752 40.5888L76.9083 45.8542L76.9803 45.8195L74.4472 40.5541Z" fill="#CCCCCC"/>
<mask id="path-48-inside-1_9693_15044" fill="white">
<path d="M110 93.3988H0V93.7623H110V93.3988Z"/>
</mask>
<path d="M110 93.3988H0V93.7623H110V93.3988Z" fill="#121212"/>
<path d="M0 93.3988V92.3988H-1V93.3988H0ZM110 93.3988H111V92.3988H110V93.3988ZM110 93.7623V94.7623H111V93.7623H110ZM0 93.7623H-1V94.7623H0V93.7623ZM0 94.3988H110V92.3988H0V94.3988ZM109 93.3988V93.7623H111V93.3988H109ZM110 92.7623H0V94.7623H110V92.7623ZM1 93.7623V93.3988H-1V93.7623H1Z" fill="#121212" mask="url(#path-48-inside-1_9693_15044)"/>
</svg>
