<svg width="37" height="37" viewBox="0 0 37 37" fill="none" xmlns="http://www.w3.org/2000/svg">
<g opacity="0.9">
<path d="M24.8765 31.9223C24.5331 31.8644 24.196 31.792 23.8711 31.7196C23.6808 31.6741 23.4946 31.6244 23.3105 31.5706C27.8873 30.3245 31.5883 26.9925 33.3605 22.7226C32.2827 22.7805 31.2235 22.7474 30.1871 22.6274C32.0613 21.7399 33.8715 20.2339 35.2823 18.1672C36.3498 20.4243 36.9249 23.1654 36.7698 26.1113C36.1967 25.1203 35.5513 24.1956 34.8583 23.3474C32.9223 27.9949 28.8957 31.7193 23.745 33.1367C23.8918 32.996 24.0366 32.8512 24.1753 32.7064C24.4193 32.4437 24.6531 32.1872 24.8765 31.9223Z" fill="#2F2F2F"/>
<path d="M7.12284 27.3522C7.05252 27.0171 7.00491 26.6737 6.9615 26.3386C6.93878 26.1482 6.91808 25.9579 6.90559 25.7696C8.1427 27.4867 9.73769 28.9493 11.5664 30.0189C13.7221 31.2911 16.1942 32.0111 18.6954 32.1C18.4802 31.616 18.2879 31.1029 18.1182 30.6063C17.9465 30.1099 17.7996 29.5989 17.6734 29.0942C19.3137 30.6782 21.4174 31.764 23.6375 32.3214C21.9325 34.0662 19.5605 35.5761 16.7155 36.4795C17.0796 36.0368 17.421 35.5921 17.7416 35.1245C18.0602 34.659 18.358 34.2038 18.6353 33.7197C15.8714 33.6204 13.1283 32.8239 10.7451 31.4152C8.72387 30.2319 6.96133 28.6162 5.5918 26.7191C5.77594 26.806 5.96008 26.8908 6.14414 26.9694C6.47118 27.1102 6.79186 27.2426 7.12284 27.3522Z" fill="#2F2F2F"/>
<path d="M5.21119 9.12293C5.51527 8.94918 5.79873 8.77124 6.107 8.6223C6.27873 8.53338 6.45039 8.45065 6.62212 8.37203C6.48768 8.57269 6.35727 8.77543 6.22903 8.9781C3.79522 13.1739 3.47597 17.6968 4.79337 21.6285C5.17606 21.2582 5.58575 20.9023 5.99527 20.5693C6.40077 20.2363 6.82898 19.9218 7.25928 19.6301C6.39557 21.578 6.04078 23.8745 6.31176 26.335C3.96746 25.293 1.75542 23.5604 0 21.2913C0.539935 21.4776 1.07778 21.643 1.62601 21.7837C2.17215 21.9224 2.70588 22.0444 3.25411 22.1354C1.81032 17.8106 2.13401 12.7571 4.8429 8.14037C4.98564 7.91281 5.13047 7.68526 5.27941 7.46181C5.25871 7.66657 5.24219 7.87141 5.23188 8.07415C5.20506 8.42165 5.21328 8.78155 5.21119 9.12293Z" fill="#2F2F2F"/>
<path d="M21.6362 0.982064C21.9072 1.19722 22.1679 1.42478 22.4202 1.64202C22.5651 1.77235 22.7057 1.90679 22.8423 2.04131C18.4085 0.982986 13.5818 1.91341 9.77193 4.95002C10.7422 5.41553 11.6586 5.95747 12.5068 6.55952C10.3855 6.43296 8.06881 6.90777 5.88477 8.00977C6.03194 5.60847 6.82282 2.90779 8.41069 0.338868C8.43969 1.48495 8.55553 2.60203 8.76029 3.68408C12.927 0.361665 18.2463 -0.714932 23.2022 0.460989C23.0099 0.514798 22.8174 0.570617 22.6292 0.630629C22.2879 0.746209 21.959 0.855838 21.6362 0.982064Z" fill="#2F2F2F"/>
<path d="M35.855 17.8298C35.6919 17.5084 35.5368 17.1983 35.366 16.8968C35.1915 17.1956 35.0032 17.4859 34.824 17.7666C34.7155 17.9284 34.6024 18.0867 34.4887 18.241C34.9951 12.749 32.3803 6.97156 27.1383 3.798C27.0866 4.33583 27.0121 4.86965 26.9211 5.38679C26.8301 5.90602 26.7101 6.42534 26.5777 6.92387C25.9113 4.73135 24.5846 2.77529 22.916 1.22656C25.3006 0.506087 28.0927 0.339547 30.9903 0.92449C30.4545 1.14165 29.9415 1.3651 29.4387 1.61546C28.9319 1.86782 28.4457 2.12857 27.9762 2.40985C33.1625 5.55626 36.7266 11.5209 36.1042 18.373C36.0236 18.1902 35.9411 18.0077 35.855 17.8298Z" fill="#2F2F2F"/>
</g>
</svg>
