<svg width="123" height="78" viewBox="0 0 123 78" fill="none" xmlns="http://www.w3.org/2000/svg">
<g clip-path="url(#clip0_9693_15093)">
<path opacity="0.1" d="M121.767 53.5179L121.767 53.5178C123.994 48.1151 121.045 41.8551 114.063 37.9762L114.063 37.976C111.377 36.4802 108.246 35.3649 104.88 34.5109L104.878 34.5105C104.465 34.4045 104.049 34.3034 103.628 34.2074L103.627 34.2071C103.058 34.0753 102.484 33.9501 101.905 33.8314C101.106 33.6673 100.296 33.5152 99.4811 33.3738L99.481 33.3737C98.1416 33.141 96.7862 32.9374 95.4261 32.7555L95.4227 32.755C95.2002 32.7237 94.9784 32.6945 94.7547 32.6663L94.7532 32.6661C94.4376 32.6253 94.1138 32.5854 93.8025 32.547L93.7159 32.5363C93.3987 32.4972 93.0813 32.46 92.7631 32.4227L92.71 32.4165C92.2443 32.3628 91.7742 32.312 91.2998 32.2641L91.2965 32.2638C90.5494 32.1834 89.7905 32.1137 89.0221 32.046C88.2427 31.9776 87.4517 31.9124 86.6547 31.8467C85.2469 31.7308 83.8205 31.6133 82.4069 31.4735L82.0744 31.4407L82.1235 30.9431L82.0744 31.4407C80.562 31.2914 79.0568 31.1177 77.581 30.8973M121.767 53.5179L77.6549 30.4028M121.767 53.5179C120.579 56.4018 118.073 59.0426 115.302 61.6051L115.641 61.9723M121.767 53.5179L105.187 69.8247M77.581 30.8973L77.6549 30.4028M77.581 30.8973C77.5813 30.8974 77.5816 30.8974 77.5819 30.8975L77.6549 30.4028M77.581 30.8973C76.6176 30.7552 75.6689 30.5931 74.7397 30.4053C73.4743 30.1546 72.2228 29.8375 70.9902 29.4554M77.6549 30.4028C76.6981 30.2617 75.7576 30.101 74.8376 29.915C73.5855 29.667 72.3471 29.353 71.1275 28.9745M70.9902 29.4554C70.9952 29.4567 71.0002 29.458 71.0052 29.4593L71.1275 28.9745M70.9902 29.4554C70.9866 29.4542 70.9829 29.4531 70.9793 29.452L71.1275 28.9745M70.9902 29.4554C70.951 29.4449 70.9144 29.4329 70.8922 29.4256L70.8861 29.4236L71.0376 28.9471M71.1275 28.9745C71.1009 28.9677 71.0751 28.9593 71.0487 28.9507L71.0376 28.9471M71.0376 28.9471L70.8833 29.4227L70.8843 29.423M71.0376 28.9471C68.6665 28.193 66.3776 27.3731 64.0909 26.5539C60.6468 25.3202 57.2079 24.0884 53.5013 23.086C53.2402 23.0149 52.9758 22.9449 52.7114 22.876C51.8446 22.65 50.9698 22.4338 50.087 22.2275C48.608 21.8808 47.0975 21.5658 45.574 21.3088C43.1398 20.8822 40.6762 20.6485 38.2058 20.6099C37.867 20.6033 37.5282 20.6033 37.1894 20.6099H37.1038M70.8843 29.423L0.422166 62.3758C0.726161 59.7095 2.56247 57.2274 4.35845 54.7999C4.41892 54.7181 4.47936 54.6365 4.53968 54.5548C7.98431 49.8891 11.2111 45.1174 12.9091 40.0875C13.2669 39.0267 13.5595 37.9501 13.8521 36.8732C14.6859 33.8052 15.5204 30.7345 17.8664 28.0186M70.8843 29.423C68.5044 28.6661 66.2053 27.8425 63.9183 27.0232C63.3406 26.8163 62.7637 26.6096 62.1865 26.4044C59.3188 25.3848 56.4352 24.3974 53.3708 23.5687L53.37 23.5685C53.111 23.498 52.8485 23.4284 52.5853 23.3599L52.5852 23.3598C51.7225 23.1349 50.8519 22.9197 49.9732 22.7143L49.9729 22.7143C48.5018 22.3694 47.0019 22.0567 45.4908 21.8018L45.4877 21.8013C43.0794 21.3792 40.642 21.148 38.198 21.1098L38.1961 21.1098C37.8638 21.1034 37.5315 21.1034 37.1991 21.1098L37.1894 21.11V21.1099H37.1085M70.8843 29.423L18.2447 28.3454M37.1038 20.6099C36.5498 20.6201 35.9982 20.6445 35.4492 20.6832C34.7363 20.7313 34.0276 20.8024 33.3276 20.8942C32.0392 21.0623 30.7614 21.3047 29.5005 21.6205C28.0456 21.9828 26.6191 22.4526 25.2324 23.0259C24.0054 23.5302 22.8212 24.1344 21.6913 24.8326C20.1798 25.7721 18.8816 26.8439 17.8664 28.0186M37.1038 20.6099V21.1099H37.1085M37.1038 20.6099L37.113 21.1098C37.1115 21.1098 37.11 21.1099 37.1085 21.1099M17.8664 28.0186L18.2447 28.3454M17.8664 28.0186L18.2447 28.3454M94.6061 76.5938C95.3006 76.3401 95.9713 76.0568 96.6215 75.7528C98.5296 74.8625 100.256 73.7874 101.889 72.7047C102.388 72.3744 102.883 72.0408 103.373 71.7039L103.434 71.6624C103.939 71.3197 104.437 70.9737 104.926 70.6245L105.477 70.2318M94.6061 76.5938L82.4561 30.9759C83.8664 31.1154 85.2845 31.2322 86.689 31.3479C87.487 31.4136 88.2806 31.479 89.0658 31.5479C89.8352 31.6157 90.598 31.6857 91.35 31.7666C91.8267 31.8148 92.2992 31.8658 92.7673 31.9198L92.8218 31.9262C93.1396 31.9634 93.4584 32.0008 93.7771 32.0401L93.8642 32.0508C94.1752 32.0891 94.5003 32.1292 94.8173 32.1702C95.0427 32.1987 95.267 32.2282 95.4924 32.2599C96.8577 32.4425 98.2197 32.6471 99.5666 32.8811C100.386 33.0233 101.201 33.1764 102.006 33.3416C102.589 33.4611 103.167 33.5873 103.739 33.72C104.164 33.817 104.585 33.919 105.003 34.0262C108.395 34.887 111.57 36.0156 114.306 37.5392C121.411 41.4863 124.59 47.9796 122.229 53.7083C120.995 56.7039 118.413 59.4097 115.641 61.9723M94.6061 76.5938C94.2304 76.7316 93.8468 76.8607 93.4553 76.981M94.6061 76.5938L93.4553 76.981M105.477 70.2318C106.271 69.6631 107.053 69.0871 107.822 68.5038C110.598 66.4024 113.205 64.2253 115.641 61.9723M105.477 70.2318L105.187 69.8245L105.187 69.8247M105.477 70.2318L105.186 69.8254L104.636 70.2171L104.635 70.2176C104.15 70.5644 103.656 70.908 103.153 71.2485L103.151 71.2499L103.091 71.2914L103.09 71.2918C102.602 71.627 102.109 71.959 101.613 72.2877L101.612 72.288C99.9863 73.3662 98.2845 74.4252 96.4101 75.2997L96.4097 75.2999C95.7711 75.5985 95.1138 75.876 94.4345 76.1242L94.4339 76.1244C94.0668 76.2591 93.6918 76.3853 93.3086 76.503M115.641 61.9723L115.302 61.6052C112.878 63.8465 110.284 66.0132 107.52 68.1051L107.52 68.1054C106.755 68.6857 105.977 69.2588 105.187 69.8247M105.187 69.8247L51.7264 71.3365L51.7474 70.8369C51.7476 70.8369 51.7479 70.8369 51.7481 70.8369C53.5872 70.9141 55.419 71.0661 57.2281 71.2931L57.2294 71.2933C57.9975 71.3917 58.7612 71.5018 59.5206 71.6237L59.5208 71.6237C61.0788 71.8743 62.6081 72.1793 64.1087 72.5389M93.3086 76.503C92.6811 76.6956 92.0378 76.8632 91.3666 77.0009L91.3645 77.0013C91.2532 77.0246 91.1405 77.0469 91.0275 77.0682L91.0272 77.0683C90.3398 77.1985 89.6426 77.2938 88.9363 77.3592M93.3086 76.503L93.4553 76.981M93.3086 76.503C93.3086 76.503 93.3085 76.503 93.3084 76.5031L93.4553 76.981M88.9363 77.3592C86.3477 77.5983 83.6635 77.4242 81.0475 77.011C79.7408 76.8045 78.453 76.5383 77.2053 76.2349L77.2038 76.2345C77.1707 76.2266 77.1369 76.2184 77.1027 76.2101C76.9849 76.1816 76.8613 76.1517 76.7382 76.1246M88.9363 77.3592C88.9363 77.3592 88.9364 77.3592 88.9364 77.3592L88.9824 77.8571M88.9363 77.3592L88.9824 77.8571M76.7382 76.1246C74.7353 75.6186 72.7888 75.0274 70.8295 74.4322C70.7079 74.3953 70.5862 74.3583 70.4644 74.3213C68.3831 73.6895 66.284 73.0595 64.1087 72.5389M76.7382 76.1246C76.7407 76.1253 76.7432 76.1259 76.7458 76.1266L76.6233 76.6113M76.7382 76.1246C76.7355 76.1241 76.7329 76.1235 76.7302 76.1229L76.6233 76.6113M64.1087 72.5389C64.1087 72.5389 64.1088 72.5389 64.1088 72.5389L63.9923 73.0251M64.1087 72.5389L63.9923 73.0251M39.4064 73.4254C40.3449 72.9459 41.3191 72.5411 42.3201 72.2147C42.6914 72.098 43.0699 71.9941 43.4556 71.903L43.3402 71.4165C43.3403 71.4165 43.3405 71.4164 43.3407 71.4164C43.653 71.3423 43.9691 71.2757 44.2892 71.2166L44.3799 71.7083L39.1816 72.9788M39.4064 73.4254L39.1843 72.9775C39.1834 72.9779 39.1825 72.9784 39.1816 72.9788M39.4064 73.4254L39.1789 72.9801C39.1798 72.9797 39.1807 72.9793 39.1816 72.9788M39.4064 73.4254C39.2211 73.5173 39.038 73.6102 38.8549 73.7043C38.6009 73.8349 38.3484 73.9668 38.096 74.0986C37.7777 74.2649 37.4594 74.4311 37.1385 74.5946C36.103 75.1416 35.0253 75.6032 33.916 75.9748M39.1816 72.9788C38.9944 73.0716 38.81 73.1653 38.6264 73.2595L38.6262 73.2596C38.3642 73.3944 38.1109 73.5267 37.8593 73.6581C37.5453 73.8222 37.2338 73.9849 36.9115 74.1491L36.9115 74.149L36.9049 74.1525C35.8944 74.6863 34.8428 75.1368 33.7605 75.4996M33.916 75.9748L33.7641 75.4984C33.7629 75.4988 33.7617 75.4992 33.7605 75.4996M33.916 75.9748C33.3084 76.1685 32.6905 76.3277 32.0653 76.4517L33.7605 75.4996M33.916 75.9748L33.7572 75.5007C33.7583 75.5003 33.7594 75.5 33.7605 75.4996M19.5865 75.8925C15.1936 75.2422 11.0522 74.0161 7.73868 72.1622L7.73854 72.1622C3.20978 69.6302 0.515776 65.956 0.918924 62.4327L0.918947 62.4325C1.06506 61.1509 1.59513 59.8909 2.33598 58.6238C3.03095 57.4351 3.89272 56.2702 4.7645 55.0917C4.82357 55.0119 4.88268 54.932 4.94179 54.852L4.94193 54.8518C8.38778 50.1845 11.6576 45.358 13.3828 40.2474L13.3829 40.2473C13.7326 39.2104 14.0201 38.1613 14.3015 37.1265C14.3121 37.0871 14.3228 37.0478 14.3335 37.0086C14.605 36.0097 14.8726 35.0251 15.1908 34.0536C15.8505 32.04 16.7193 30.1116 18.2446 28.3455L19.5865 75.8925ZM19.5865 75.8925C19.5865 75.8925 19.5866 75.8925 19.5866 75.8925L19.5134 76.3871L19.5865 75.8925ZM63.9923 73.0251C66.2785 73.5723 68.4826 74.2419 70.687 74.9115C72.6463 75.5066 74.6058 76.1018 76.6233 76.6113M63.9923 73.0251C62.5042 72.6686 60.9872 72.366 59.4414 72.1174C58.6872 71.9963 57.9287 71.887 57.1659 71.7892L76.6233 76.6113M76.6233 76.6113C76.7432 76.6376 76.8624 76.6664 76.982 76.6953C77.017 76.7038 77.052 76.7123 77.0871 76.7207M76.6233 76.6113L77.0871 76.7207M77.0871 76.7207C78.3462 77.0269 79.6475 77.296 80.9695 77.5049C83.6144 77.9227 86.3418 78.1009 88.9824 77.8571M77.0871 76.7207L91.1202 77.5596M88.9824 77.8571C89.703 77.7903 90.4159 77.693 91.1202 77.5596M91.1202 77.5596C91.2362 77.5377 91.3521 77.5147 91.467 77.4907M91.1202 77.5596L91.467 77.4907M93.4553 76.981C92.8139 77.1779 92.155 77.3496 91.467 77.4907M93.4553 76.981L91.467 77.4907M18.2447 28.3454C19.2212 27.2158 20.478 26.1755 21.9546 25.2577M21.9546 25.2577C23.0612 24.5739 24.2209 23.9822 25.4225 23.4883L25.4234 23.4879C26.7873 22.924 28.1904 22.462 29.6214 22.1056L29.622 22.1055C30.8642 21.7944 32.123 21.5556 33.3923 21.3901L33.3927 21.39C34.0825 21.2995 34.7807 21.2294 35.4829 21.182L35.4843 21.1819C36.0232 21.144 36.5645 21.12 37.1085 21.1099M21.9546 25.2577C21.9548 25.2576 21.955 25.2574 21.9553 25.2573L21.6913 24.8327L21.9542 25.258C21.9543 25.2579 21.9545 25.2578 21.9546 25.2577Z" fill="#121212" stroke="#121212"/>
<path opacity="0.2" d="M42.4582 58.7169L40.4795 74.3L41.5284 58.5591L42.4582 58.7169Z" fill="#121212"/>
<path opacity="0.1" d="M28.8233 7.52093C28.8233 8.5557 27.9935 9.38659 26.9796 9.38659C25.9657 9.38659 25.1359 8.5557 25.1359 7.52093C25.1359 6.48616 25.9657 5.65527 26.9796 5.65527C27.9935 5.65527 28.8233 6.48616 28.8233 7.52093Z" fill="#121212" stroke="#121212"/>
<path opacity="0.1" d="M76.7285 2.36566C76.7285 3.40043 75.8987 4.23132 74.8848 4.23132C73.8709 4.23132 73.041 3.40043 73.041 2.36566C73.041 1.33089 73.8709 0.5 74.8848 0.5C75.8987 0.5 76.7285 1.33089 76.7285 2.36566Z" fill="#121212" stroke="#121212"/>
<path opacity="0.1" d="M105.134 7.66378C105.134 8.69855 104.304 9.52944 103.29 9.52944C102.276 9.52944 101.446 8.69855 101.446 7.66378C101.446 6.62901 102.276 5.79813 103.29 5.79813C104.304 5.79813 105.134 6.62901 105.134 7.66378Z" fill="#121212" stroke="#121212"/>
<path opacity="0.1" d="M7.35579 13.2449C7.35579 15.1627 5.81669 16.7095 3.92789 16.7095C2.0391 16.7095 0.5 15.1627 0.5 13.2449C0.5 11.327 2.0391 9.78023 3.92789 9.78023C5.81669 9.78023 7.35579 11.327 7.35579 13.2449Z" fill="#121212" stroke="#121212"/>
<path opacity="0.1" d="M11.1211 32.8222C11.1211 34.74 9.58202 36.2868 7.69323 36.2868C5.80443 36.2868 4.26534 34.74 4.26534 32.8222C4.26534 30.9043 5.80443 29.3575 7.69323 29.3575C9.58202 29.3575 11.1211 30.9043 11.1211 32.8222Z" fill="#121212" stroke="#121212"/>
<path opacity="0.1" d="M116.543 25.6151C116.543 27.5329 115.003 29.0797 113.115 29.0797C111.226 29.0797 109.687 27.5329 109.687 25.6151C109.687 23.6972 111.226 22.1504 113.115 22.1504C115.003 22.1504 116.543 23.6972 116.543 25.6151Z" fill="#121212" stroke="#121212"/>
<path d="M38.1032 25.3307C38.1228 25.6819 38.1034 26.0344 38.0453 26.3809C37.8268 27.453 36.9026 28.1894 36.0079 28.7479C35.1132 29.3065 34.1301 29.8351 33.5981 30.778C32.9568 31.9171 33.1611 33.4486 33.9138 34.5126C34.6664 35.5767 35.8594 36.2103 37.0872 36.4746C39.3267 36.9628 41.7791 36.2772 43.4582 34.6384C45.1372 32.9996 45.9794 30.4387 45.5676 28.0601C44.6565 28.1951 43.8449 27.3457 43.5499 26.4247C43.255 25.5038 43.3161 24.5055 43.2014 23.5395C43.1931 23.3762 43.1465 23.2176 43.066 23.0779C42.9382 22.8909 42.712 22.8147 42.5012 22.7536C41.4481 22.4477 39.6762 21.7784 38.5849 22.0346C37.6017 22.2723 38.0868 24.4582 38.1032 25.3307Z" fill="#CC9494"/>
<path opacity="0.1" d="M38.1032 25.3307C38.1228 25.6819 38.1034 26.0344 38.0453 26.3809C37.8268 27.453 36.9026 28.1894 36.0079 28.7479C35.1132 29.3065 34.1301 29.8351 33.5981 30.778C32.9568 31.9171 33.1611 33.4486 33.9138 34.5126C34.6664 35.5767 35.8594 36.2103 37.0872 36.4746C39.3267 36.9628 41.7791 36.2772 43.4582 34.6384C45.1372 32.9996 45.9794 30.4387 45.5676 28.0601C44.6565 28.1951 43.8449 27.3457 43.5499 26.4247C43.255 25.5038 43.3161 24.5055 43.2014 23.5395C43.1931 23.3762 43.1465 23.2176 43.066 23.0779C42.9382 22.8909 42.712 22.8147 42.5012 22.7536C41.4481 22.4477 39.6762 21.7784 38.5849 22.0346C37.6017 22.2723 38.0868 24.4582 38.1032 25.3307Z" fill="#CC9494"/>
<path d="M51.5947 19.4195C52.3922 18.1071 53.4844 16.8165 53.4161 15.2821C53.3912 14.7352 53.2135 14.2004 53.0781 13.6645C52.6899 12.1135 52.6643 10.4926 53.0033 8.9299C54.3432 8.71262 55.7147 9.02267 56.8347 9.79611C57.1891 10.0433 57.525 10.3506 57.681 10.7564C57.8251 11.1304 57.8013 11.5471 57.7753 11.9474C57.7157 12.8672 57.6344 13.8482 57.0731 14.5723C56.8987 14.7987 56.6841 14.9901 56.514 15.2186C56.2659 15.5467 56.1207 15.947 55.9787 16.3375L54.1367 21.3958C53.207 23.9452 52.1993 26.6116 50.1514 28.3758C50.1015 28.4184 48.6344 26.3153 48.513 26.1042C48.0222 25.2391 48.2367 24.8738 48.8305 24.1497C50.0018 22.7181 50.6379 20.9911 51.5947 19.4195Z" fill="#CC9494"/>
<path fill-rule="evenodd" clip-rule="evenodd" d="M29.4839 57.9321C28.8634 54.0315 28.3642 50.8933 28.4635 50.2418C28.4635 50.2418 45.7257 51.6465 47.8592 53.0975C49.8351 58.5648 50.1076 64.8782 49.5223 71.2864C47.7745 71.289 46.0282 71.4028 44.3805 71.7082C44.0684 71.7658 43.7603 71.8307 43.4562 71.9029C43.0704 71.9941 42.6919 72.098 42.3206 72.2146C42.0745 72.2949 41.83 72.3799 41.5873 72.4696C41.7859 70.6113 41.9177 69.2262 41.9437 68.611C41.6829 70.0461 41.2663 71.4447 40.7289 72.8093C40.2813 72.9985 39.8403 73.2039 39.4069 73.4253C39.2217 73.5172 39.0385 73.6102 38.8554 73.7042C38.6015 73.8348 38.3491 73.9666 38.0968 74.0984C37.7784 74.2647 37.4601 74.431 37.1391 74.5945C36.1035 75.1416 35.0259 75.6031 33.9166 75.9747C33.309 76.1684 32.6911 76.3276 32.0658 76.4516C31.6979 76.526 31.3248 76.5904 30.9475 76.6457C31.0254 76.577 31.0996 76.5166 31.1699 76.4649C32.1758 74.8545 30.6248 65.1043 29.4839 57.9321ZM20.1243 92.5011C20.6427 93.5332 22.3353 96.3791 24.8191 95.3645C25.5333 94.2378 26.3722 93.088 27.2892 91.9118L20.1243 92.5011ZM39.4174 90.9144C38.8342 95.6737 38.3812 99.2859 38.3812 99.2859C38.3812 99.2859 38.1294 99.3466 43.3344 100.756C43.7657 98.9228 44.2849 96.9068 44.8393 94.7544C45.2013 93.3489 45.5783 91.8853 45.9555 90.3766L39.4174 90.9144Z" fill="#494949"/>
<path d="M40.7947 25.556C43.4035 25.556 45.5183 23.2289 45.5183 20.3582C45.5183 17.4875 43.4035 15.1604 40.7947 15.1604C38.1859 15.1604 36.0711 17.4875 36.0711 20.3582C36.0711 23.2289 38.1859 25.556 40.7947 25.556Z" fill="#FFB9B9"/>
<path d="M45.8159 16.5234C45.7162 16.2033 45.5058 15.9335 45.2258 15.7667C45.2404 15.4288 45.1983 15.0908 45.1012 14.7681C44.7766 13.8253 44.0077 13.8794 43.2822 13.4625C42.9674 13.2817 42.9869 13.1219 42.823 12.8248C42.603 12.4302 42.2814 12.1078 41.8947 11.8943C41.4473 11.5628 40.9305 11.3475 40.3873 11.2661C39.2301 11.1886 38.3429 12.2579 37.2369 12.6011C36.7494 12.7523 36.2256 12.7586 35.7355 12.9016C35.2455 13.0446 34.7565 13.386 34.6835 13.8832C34.6498 14.1127 34.7093 14.3481 34.6751 14.5775C34.6071 15.0335 34.1999 15.3529 33.9273 15.728C33.3244 16.5574 33.3934 17.7292 33.8755 18.6316C33.9775 18.8191 34.0938 18.9978 34.2231 19.1661C34.264 19.5949 34.3889 20.0105 34.5901 20.3869C35.0722 21.2894 35.9017 21.9637 36.7683 22.524C36.6974 22.2253 36.6543 21.9201 36.6397 21.6127C36.6275 21.5102 36.6411 21.4061 36.6792 21.3107C36.7757 21.1125 37.0307 21.0598 37.2251 20.9513C37.4105 20.8241 37.5609 20.6486 37.6612 20.4421C37.7616 20.2355 37.8086 20.0052 37.7974 19.774C37.809 19.319 37.7109 18.8634 37.7594 18.4108C37.762 18.3053 37.7866 18.2017 37.8314 18.1071C37.8762 18.0125 37.9402 17.9291 38.0189 17.8629C38.1691 17.7792 38.3382 17.7396 38.5082 17.7483C39.3333 17.7152 40.1954 17.7003 40.9232 17.317C41.1594 17.1631 41.4116 17.0378 41.6749 16.9434C42.2934 16.785 42.9255 17.2109 43.282 17.7321C43.6385 18.2534 43.8162 18.8737 44.1451 19.4122C44.4739 19.9507 45.0421 20.4309 45.678 20.3671C45.7134 20.3674 45.7484 20.3602 45.7811 20.3459C45.8137 20.3317 45.8432 20.3106 45.8679 20.2841C45.8952 20.2363 45.9074 20.1807 45.9029 20.1252L45.9384 17.7371C45.9679 17.3281 45.9264 16.917 45.8159 16.5234Z" fill="#494949"/>
<path d="M42.2263 31.317C42.768 30.3841 43.2426 29.2193 44.285 28.9601C44.8734 28.8124 45.4856 29.0137 46.0588 29.2116C46.2249 29.2513 46.3756 29.3396 46.4922 29.4654C46.5769 29.601 46.6223 29.7578 46.6233 29.9182C46.8048 31.8463 46.7986 33.7878 46.6049 35.7147C46.4673 37.0786 46.2354 38.4358 46.1942 39.8062C46.1368 41.706 46.4467 43.6057 46.3449 45.5033C46.2679 46.9415 45.9559 48.3546 45.646 49.76L44.3457 55.644C44.3224 55.8261 44.2501 55.9982 44.1366 56.1417C44.0269 56.2431 43.8957 56.318 43.753 56.3604C41.8709 57.0319 39.8702 57.2976 37.8801 57.1403C35.8899 56.983 33.9546 56.4062 32.199 55.4472C31.7298 55.1869 31.2617 54.8861 30.9562 54.4421C30.5228 53.8121 30.4827 52.9787 30.6235 52.224C30.7644 51.4694 31.0689 50.7574 31.2737 50.017C31.5901 48.8686 31.6648 47.6699 31.7363 46.48C31.8317 44.9138 31.927 43.3378 31.7613 41.7771C31.6475 40.702 31.4102 39.6433 31.2314 38.5769C30.9681 36.9698 30.8153 35.3461 30.7741 33.7177C30.747 32.7454 30.7915 31.6659 31.4579 30.9648C31.7829 30.6236 32.2164 30.418 32.6574 30.2517C33.3974 29.9761 34.2242 29.8143 34.9718 30.0658C35.7195 30.3174 36.322 31.1092 36.1453 31.8846C36.0641 32.2444 35.8333 32.5594 35.7769 32.9247C35.7022 33.4081 35.9557 33.8948 36.3187 34.2218C38.2713 36.0024 41.2521 33.0057 42.2263 31.317Z" fill="#8BC63E"/>
<path d="M42.2466 27.0434C42.8396 26.823 43.484 26.7849 44.0984 26.9341C44.4896 27.0281 44.9122 27.1944 45.273 27.0183C45.4041 26.9549 45.5125 26.851 45.6446 26.7919C46.0022 26.6333 46.466 26.828 46.7824 26.5972C46.9818 26.4518 47.0468 26.1871 47.1139 25.9465C47.4393 24.7979 51.8988 16.4836 53.4558 15.9603C53.4558 16.4836 52.746 17.0068 53.1963 17.5302C53.4466 17.8212 53.7977 18.0038 54.1531 18.146C54.6634 18.3505 54.2147 18.4266 54.7533 18.315C55.2918 18.2035 55.4461 17.8164 55.5317 17.2685C56.3102 18.0534 52.276 26.6311 52.0582 27.4262C51.9759 27.7237 51.9834 28.0398 51.926 28.3438C51.7797 29.1204 51.2304 29.7438 50.7504 30.3694C49.2172 32.3815 48.2379 34.7668 47.9114 37.2837C47.8892 37.5824 47.8273 37.8767 47.7272 38.1587C47.621 38.3749 47.5009 38.5839 47.3675 38.7843C46.5733 40.1382 46.8181 41.8466 47.0879 43.3931C47.5094 45.8156 47.9299 48.1889 48.6125 50.5502C48.7295 50.9538 48.8617 51.3748 49.1597 51.669C49.0654 52.6238 48.1108 53.0591 47.2526 53.4715C46.4053 53.8793 45.6236 54.4135 44.9338 55.0562C44.6868 55.2859 44.443 55.544 44.353 55.871C44.2685 56.1783 44.3292 56.5163 44.2208 56.8149C44.1125 57.1135 43.6791 57.3278 43.4884 57.0763C43.25 56.1762 43.6574 55.2345 43.639 54.3027C43.626 53.6738 43.4223 53.0624 43.393 52.4335C43.3648 51.7215 43.172 51.2261 43.393 50.5502C42.5721 48.5435 42.5022 49.0103 42.7156 47.0406C41.9437 45.2213 41.6864 42.8823 41.6864 41.0631C40.0426 39.3876 41.24 35.1565 39.4781 33.6176C39.1986 33.3738 38.8822 33.0708 38.9288 32.7011C38.9609 32.5383 39.032 32.3859 39.1357 32.2571C39.7403 31.3953 40.5443 30.692 41.1945 29.8674C41.8446 29.0427 42.3647 28.0934 42.2466 27.0434Z" fill="#4B6E82"/>
<path d="M89.6876 28.6008L103.638 31.4704L105.035 24.5692C105.417 22.7063 105.045 20.7647 104 19.1657C103.491 18.3791 102.829 17.7013 102.053 17.1724C101.278 16.6435 100.404 16.2743 99.485 16.0865C97.6487 15.7123 95.7421 16.0721 94.1774 17.088C92.6127 18.104 91.5157 19.6945 91.1235 21.5156C91.1096 21.5786 91.0964 21.6384 91.0841 21.6995L89.6876 28.6008Z" fill="#494949"/>
<path d="M94.3052 29.0605C94.3102 29.2788 94.2707 29.4958 94.1892 29.6981C93.8512 30.4254 92.8164 30.3795 92.1305 30.7918C91.2766 31.3058 91.0881 32.4531 91.0101 33.4527C90.9212 34.5847 90.8606 35.7331 91.0903 36.8432C91.32 37.9533 91.8726 39.036 92.7958 39.6868C93.9194 40.4753 95.4473 40.5027 96.7302 40.0226C98.0131 39.5424 99.0848 38.6139 100.014 37.5989C100.896 36.6365 101.686 35.5636 102.16 34.3419C102.243 34.1232 102.317 33.8913 102.25 33.6726C102.149 33.3445 101.795 33.1957 101.507 33.0163C100.834 32.6062 100.385 31.8909 100.152 31.1352C99.9191 30.3795 99.8801 29.5756 99.8725 28.7827C99.8638 27.9591 99.8617 27.059 99.3416 26.4236C98.8215 25.7881 97.9199 25.6099 97.0986 25.6164C96.4268 25.6164 94.5674 25.6809 94.1091 26.2726C93.7331 26.7648 94.3323 28.3561 94.3052 29.0605Z" fill="#FFB9B9"/>
<path opacity="0.1" d="M94.3052 29.0605C94.3102 29.2788 94.2707 29.4958 94.1892 29.6981C93.8512 30.4254 92.8164 30.3795 92.1305 30.7918C91.2766 31.3058 91.0881 32.4531 91.0101 33.4527C90.9212 34.5847 90.8606 35.7331 91.0903 36.8432C91.32 37.9533 91.8726 39.036 92.7958 39.6868C93.9194 40.4753 95.4473 40.5027 96.7302 40.0226C98.0131 39.5424 99.0848 38.6139 100.014 37.5989C100.896 36.6365 101.686 35.5636 102.16 34.3419C102.243 34.1232 102.317 33.8913 102.25 33.6726C102.149 33.3445 101.795 33.1957 101.507 33.0163C100.834 32.6062 100.385 31.8909 100.152 31.1352C99.9191 30.3795 99.8801 29.5756 99.8725 28.7827C99.8638 27.9591 99.8617 27.059 99.3416 26.4236C98.8215 25.7881 97.9199 25.6099 97.0986 25.6164C96.4268 25.6164 94.5674 25.6809 94.1091 26.2726C93.7331 26.7648 94.3323 28.3561 94.3052 29.0605Z" fill="#FFB9B9"/>
<path d="M78.8895 20.6433C76.652 18.456 74.1089 16.6021 71.5073 14.8686C70.8303 14.4401 70.179 13.9716 69.5569 13.4654C68.9067 12.9186 68.34 12.2766 67.6498 11.7844C66.9596 11.2923 66.1057 10.9543 65.2768 11.1162C64.4479 11.278 63.7111 12.0786 63.8324 12.9164C63.9408 13.6535 64.5974 14.1588 65.2042 14.5821C66.3528 15.3838 67.5068 16.1876 68.7561 16.8165C69.1901 17.0151 69.611 17.2416 70.0163 17.4946C70.7943 18.0239 71.361 18.807 71.9494 19.5431C74.1701 22.3273 76.8903 24.6648 79.9677 26.4334C80.0045 26.4552 81.2864 23.663 81.2322 23.301C81.113 22.4687 79.479 21.2208 78.8895 20.6433Z" fill="#FFB9B9"/>
<path d="M103.245 100.384L99.7383 99.8028L96.8966 70.6499L86.7853 99.2937L82.9648 99.2266L89.0019 63.6762L88.7546 55.4834L99.7283 52.5419C107.125 58.3414 106.054 77.5096 103.245 100.384Z" fill="#494949"/>
<path d="M99.7527 33.6269L99.5941 33.7161C98.5053 34.328 97.5356 34.8014 96.5501 34.7688C95.5244 34.7348 94.606 34.1659 93.5772 33.0465L93.47 32.9298L93.4496 32.7725C93.3609 32.0898 92.9799 31.4987 92.4695 31.3072L92.4686 31.3069C92.3533 31.2634 92.2242 31.2361 92.0518 31.2031C92.0402 31.2009 92.0283 31.1987 92.0162 31.1964C91.8632 31.1673 91.6728 31.1311 91.4867 31.0687C90.9282 30.8861 90.4952 30.5214 90.136 30.1933C90.0629 30.1264 89.9931 30.0615 89.9255 29.9987C89.6388 29.7321 89.3931 29.5037 89.1083 29.3302C88.8478 29.1715 88.5675 29.0661 88.2417 28.9436C88.1197 28.8978 87.9913 28.8495 87.8552 28.7951C87.3931 28.6105 86.8669 28.3601 86.4841 27.8758C86.3673 27.7282 86.2716 27.5658 86.1963 27.4378C86.1867 27.4216 86.1774 27.4059 86.1685 27.3908C86.0816 27.2441 86.0154 27.1411 85.9401 27.0595C85.8548 26.9683 85.5973 26.7474 85.2112 26.4347C84.8373 26.1321 84.374 25.7681 83.9063 25.4046C83.4617 25.059 83.01 24.7114 82.6312 24.4198C82.2202 24.1035 81.8949 23.8532 81.7577 23.7432L81.7498 23.7369L81.7422 23.7302C81.4681 23.4916 81.2353 23.2089 81.0533 22.8937C81.0253 22.8511 80.9494 22.7535 80.8121 22.5945C80.6759 22.4366 80.4984 22.2398 80.2911 22.0154C79.8769 21.567 79.3534 21.0185 78.8243 20.47C78.3746 20.0038 77.9178 19.5345 77.5231 19.1291C76.9976 18.5893 76.5823 18.1626 76.4405 18.007L76.433 17.9988L76.4331 17.9987C76.2593 17.7992 76.038 17.6488 75.7907 17.5614C75.6743 17.5202 75.554 17.4937 75.4323 17.4819C75.4237 18.0817 75.3663 18.7488 75.0756 19.3569C74.7064 20.1295 73.8107 20.8757 72.7948 20.651L72.7933 20.6507C72.6924 20.628 72.5728 20.589 72.4915 20.5625C72.4646 20.5537 72.4418 20.5463 72.4253 20.5413C72.3306 20.5125 72.2868 20.5076 72.2604 20.509C72.2411 20.5101 72.1948 20.5225 72.1415 20.5915C72.0869 20.6621 72.0565 20.7554 72.058 20.8346C72.0619 21.0414 72.1915 21.2837 72.4319 21.5137C72.8021 21.8657 73.2761 22.0844 73.7805 22.1372L73.9722 22.1573L74.1009 22.3009C74.6759 22.9429 75.8008 23.966 76.9722 24.9947C77.5675 25.5176 78.1803 26.0465 78.7248 26.5165C79.2303 26.9527 79.6769 27.3382 79.9961 27.6209L79.9961 27.621C80.2298 27.828 81.4347 29.0293 82.6037 30.2184C83.1927 30.8175 83.7796 31.4207 84.2408 31.9048C84.4712 32.1467 84.6718 32.3606 84.8262 32.5301C84.9708 32.6889 85.0992 32.835 85.1633 32.9274L85.1692 32.9359L85.1748 32.9447C85.4563 33.3887 85.6891 33.8621 85.8692 34.3567C85.964 34.5877 86.0672 34.7927 86.179 35.0147C86.2547 35.1651 86.3343 35.3232 86.4179 35.5025C86.6096 35.9137 86.7907 36.3806 86.8288 36.901L86.8288 36.901C86.9004 37.88 86.6078 38.8635 86.35 39.73C86.3088 39.8683 86.2686 40.0035 86.2309 40.1353C85.9407 41.1485 85.7813 41.9892 86.0914 42.7678C86.1682 42.9601 86.2679 43.1357 86.386 43.3434C86.4231 43.4087 86.462 43.4772 86.5026 43.5504C86.6603 43.8348 86.8333 44.1766 86.9028 44.5734C86.9561 44.8741 86.9409 45.1628 86.9093 45.42C86.8914 45.5655 86.8625 45.7354 86.8366 45.8879C86.8212 45.9782 86.8069 46.0624 86.7965 46.1317L86.7964 46.1323C86.5533 47.7453 86.9735 49.3955 87.4288 51.1044L87.4288 51.1045C87.5023 51.3804 87.6136 51.6468 87.7579 51.8483C87.9009 52.0481 88.052 52.1528 88.2068 52.1853L88.5775 52.2633L88.6028 52.6412L88.6675 53.6065C88.69 53.8682 88.6988 54.131 88.6938 54.3936L88.6936 54.4013H88.6936C88.6802 54.7887 88.6084 55.195 88.5447 55.5556C88.522 55.6841 88.5003 55.8068 88.4826 55.9208C88.4102 56.3885 88.389 56.7771 88.4934 57.1339C88.5123 57.1972 88.5329 57.242 88.5502 57.269C88.5574 57.2688 88.5646 57.2679 88.5717 57.2663L88.6552 57.2481L88.74 57.2587L93.4795 57.8487L93.5294 57.8549L93.577 57.8709C95.7424 58.5987 97.0433 59.3315 98.4288 60.112C98.5701 60.1916 98.7124 60.2718 98.8565 60.3524L98.8949 60.3739L98.9289 60.4018L101.689 62.6603L101.69 62.6613C102.054 62.961 102.416 63.2542 102.788 63.5231C103.405 63.9671 104.065 64.346 104.757 64.6542C104.658 63.6906 104.29 62.742 103.865 61.7249C103.827 61.6343 103.789 61.5431 103.75 61.4512C103.262 60.2919 102.734 59.0355 102.649 57.693L99.7527 33.6269ZM99.7527 33.6269L99.8169 33.4566M99.7527 33.6269L99.8169 33.4566M99.8169 33.4566C99.9064 33.2193 100.071 33.0198 100.284 32.8888C100.495 32.7589 100.742 32.7032 100.987 32.7296C101.295 32.775 101.591 32.9494 101.976 33.1914C101.976 33.1914 101.976 33.1914 101.976 33.1914L104.045 34.4951L104.045 34.4952L104.054 34.5006C104.377 34.6942 104.686 34.909 104.98 35.1437C106.248 36.208 106.78 37.9998 106.933 39.8209C106.991 40.5023 107.005 41.1828 107.019 41.8809C107.025 42.119 107.03 42.3592 107.036 42.6021C107.06 43.4473 107.105 44.3125 107.253 45.1747C106.898 45.4593 106.527 45.7311 106.146 46.0102L106.135 46.0176C105.68 46.3506 105.211 46.6945 104.763 47.0684C104.763 47.0685 104.763 47.0685 104.763 47.0685L104.747 47.0814L104.747 47.0814L104.726 47.0988C104.288 47.4646 103.79 47.8806 103.409 48.4193C103.268 48.6177 103.146 48.8277 103.038 49.0142C103.028 49.0309 103.019 49.0473 103.009 49.0636C102.89 49.2689 102.784 49.4463 102.664 49.6046C102.275 50.093 101.713 50.407 101.099 50.4808L99.626 50.6578L100.906 51.4085C101.207 51.5856 101.424 51.9657 101.539 52.447C101.594 52.6769 101.63 52.9124 101.67 53.172L101.678 53.2232C101.721 53.4954 101.768 53.7928 101.847 54.0897L101.847 54.0911C101.941 54.443 102.079 54.7814 102.204 55.0853C102.221 55.1289 102.239 55.1718 102.256 55.214C102.398 55.5636 102.514 55.8736 102.57 56.1894L102.57 56.1906M99.8169 33.4566L102.57 56.1906M102.57 56.1906C102.61 56.4071 102.622 56.6349 102.628 56.8888M102.57 56.1906L102.628 56.8888M102.628 56.8888C102.629 56.9544 102.63 57.0236 102.631 57.0949M102.628 56.8888L102.631 57.0949M102.631 57.0949C102.633 57.2857 102.636 57.4926 102.649 57.6921L102.631 57.0949Z" fill="#121212" stroke="#121212"/>
<path d="M107.902 70.4708C107.752 71.4715 107.206 72.4559 106.312 72.9141C105.776 73.1809 105.158 73.2241 104.59 73.0344C104.198 72.9112 103.861 72.6555 103.634 72.3104C103.516 72.1232 103.43 71.9183 103.377 71.7034C103.377 71.6925 103.371 71.6804 103.369 71.6695C103.288 71.2825 103.254 70.8869 103.268 70.4916C103.268 69.8778 103.304 69.2646 103.377 68.6553C103.437 68.1422 103.537 67.6346 103.676 67.1372C103.877 66.4274 104.168 65.7439 104.434 65.0592C104.573 64.6983 104.706 64.3363 104.816 63.9655C104.882 63.7468 104.938 63.5215 104.984 63.294L105 63.212C105.009 63.166 105.016 63.1201 105.024 63.0742C105.132 62.4508 105.163 61.8055 105.442 61.2422C106.092 59.92 107.358 60.2579 107.551 61.4774C107.565 61.5719 107.573 61.6672 107.575 61.7628C107.605 63.306 106.998 64.8142 107.275 66.3629C107.354 66.7406 107.452 67.1137 107.57 67.4806C107.668 67.8186 107.755 68.1609 107.823 68.5076C107.959 69.1528 107.985 69.8166 107.902 70.4708Z" fill="#FFB9B9"/>
<path d="M28.5021 61.5302C28.3695 62.3922 27.8855 63.2402 27.0931 63.6349C26.618 63.8647 26.0698 63.9019 25.567 63.7386C25.2197 63.6325 24.9202 63.4122 24.719 63.1149C24.615 62.9536 24.5382 62.7771 24.4913 62.592C24.4913 62.5825 24.4865 62.5722 24.4846 62.5628C24.4124 62.2294 24.3824 61.8886 24.3953 61.5481C24.3951 61.0194 24.4271 60.4911 24.4913 59.9662C24.5449 59.5242 24.6335 59.087 24.7564 58.6585C24.935 58.0471 25.1924 57.4582 25.4287 56.8684C25.5516 56.5575 25.6698 56.2457 25.7668 55.9263C25.8254 55.7379 25.8753 55.5438 25.9156 55.3478L25.93 55.2772C25.9377 55.2376 25.9445 55.198 25.9512 55.1584C26.0472 54.6214 26.0751 54.0656 26.3219 53.5804C26.8982 52.4413 28.0199 52.7324 28.1909 53.7829C28.2038 53.8643 28.2112 53.9465 28.213 54.0288C28.2389 55.3582 27.7011 56.6574 27.9469 57.9915C28.0163 58.3168 28.1035 58.6382 28.2082 58.9543C28.2946 59.2455 28.3724 59.5404 28.4319 59.839C28.5526 60.3948 28.5763 60.9666 28.5021 61.5302Z" fill="#BE6F72"/>
<path d="M107.711 60.3964L107.711 60.3964C107.75 59.9191 107.838 59.3453 107.928 58.7622C107.98 58.4207 108.033 58.076 108.077 57.7457C108.202 56.807 108.262 55.9453 108.133 55.3023C108.032 54.8045 108.021 54.2745 108.012 53.8013C108.008 53.6377 108.005 53.481 107.998 53.3346L107.711 60.3964ZM107.711 60.3964L107.71 60.4019M107.711 60.3964L107.71 60.4019M107.71 60.4019C107.533 62.8604 107.418 64.2363 107.31 65.0199C107.255 65.4159 107.206 65.6254 107.165 65.7372C107.158 65.7562 107.153 65.7698 107.148 65.7791L104.913 67.0581C104.663 67.1827 104.281 67.1229 104.019 66.8793C103.764 66.6423 103.624 66.2375 103.649 65.8124L103.649 65.8122M107.71 60.4019L103.649 65.8122M103.649 65.8122C103.658 65.651 103.688 65.484 103.73 65.2927C103.74 65.247 103.75 65.1985 103.762 65.1481C103.795 65.001 103.832 64.8373 103.859 64.6781C103.927 64.2847 104.023 62.7492 104.094 61.271C104.13 60.5208 104.161 59.7691 104.178 59.1587C104.195 58.5643 104.201 58.0661 104.182 57.8507L104.182 57.8505M103.649 65.8122L104.182 57.8505M104.182 57.8505L104.181 57.8468M104.182 57.8505L104.181 57.8468M103.113 53.2452L103.113 53.2463C103.176 53.4611 103.258 53.6745 103.348 53.9038C103.363 53.94 103.377 53.9769 103.392 54.0142C103.469 54.2067 103.551 54.4124 103.622 54.6211L103.113 53.2452ZM103.113 53.2452C102.933 52.6368 102.888 51.9825 102.868 51.2845L103.113 53.2452ZM106.018 44.9381L106.018 44.9383C105.708 45.2819 105.364 45.611 105.034 45.9256C104.951 46.0047 104.869 46.0829 104.789 46.1601C104.381 46.5536 104.007 46.9333 103.705 47.3431L106.018 44.9381ZM106.018 44.9381L106.024 44.9322C106.143 44.7993 106.222 44.7126 106.288 44.6501C106.293 44.6456 106.297 44.6415 106.301 44.6376C106.333 44.659 106.378 44.6922 106.438 44.7434L106.438 44.7439M106.018 44.9381L106.438 44.7439M106.438 44.7439C106.632 44.9085 106.818 45.0947 106.958 45.2837C107.101 45.4782 107.167 45.6383 107.179 45.7556L107.179 45.7556M106.438 44.7439L107.179 45.7556M107.179 45.7556L107.179 45.7587M107.179 45.7556L107.179 45.7587M107.179 45.7587C107.231 46.2582 107.24 46.7523 107.249 47.2724M107.179 45.7587L107.249 47.2724M104.181 57.8468C104.088 56.8068 103.987 55.6831 103.622 54.6212L104.181 57.8468ZM107.249 47.2724C107.25 47.3755 107.252 47.4795 107.254 47.5848M107.249 47.2724L107.254 47.5848M107.254 47.5848C107.267 48.2114 107.293 48.8708 107.416 49.5491M107.254 47.5848L107.416 49.5491M107.416 49.5491C107.468 49.8304 107.521 50.1075 107.574 50.3819M107.416 49.5491L107.574 50.3819M107.574 50.3819C107.767 51.3813 107.952 52.3439 107.998 53.3346L107.574 50.3819ZM107.182 65.7597L107.182 65.7599C107.182 65.7598 107.182 65.7596 107.183 65.7595L107.182 65.7597ZM102.868 51.2844C102.826 49.8102 102.939 48.3845 103.705 47.3432L102.868 51.2844Z" fill="#121212" stroke="#121212"/>
<path d="M97.0506 28.7801C99.9169 28.7801 102.24 26.4373 102.24 23.5474C102.24 20.6574 99.9169 18.3147 97.0506 18.3147C94.1843 18.3147 91.8607 20.6574 91.8607 23.5474C91.8607 26.4373 94.1843 28.7801 97.0506 28.7801Z" fill="#FFB9B9"/>
<path d="M103.779 19.9224L101.691 23.6594L90.6781 21.1928C90.999 19.8011 91.7541 18.5471 92.8378 17.6062C93.9215 16.6652 95.2797 16.0841 96.7227 15.9442C98.1657 15.8043 99.6214 16.1124 100.886 16.8257C102.152 17.5389 103.163 18.6215 103.779 19.9224L103.779 19.9224Z" fill="#494949"/>
<g opacity="0.2">
<path opacity="0.2" d="M58.8305 71.0654C58.9081 71.2147 58.9571 71.3769 58.9754 71.5436C58.558 71.4798 58.1392 71.4196 57.7192 71.363C57.7523 71.2484 57.8003 71.1384 57.8625 71.0359C58.0191 70.7871 58.2092 70.7004 58.3573 70.7052C58.5058 70.7099 58.6898 70.8087 58.8305 71.0654Z" fill="#121212" stroke="#121212"/>
<path opacity="0.2" d="M58.4161 68.8356C58.5454 68.8397 58.6969 68.9127 58.8292 69.0994C58.9616 69.2864 59.053 69.5642 59.0429 69.8883C59.0327 70.2125 58.9241 70.4839 58.7802 70.6621C58.6366 70.84 58.4808 70.9032 58.3515 70.8991C58.2222 70.8949 58.0707 70.8219 57.9384 70.6353C57.806 70.4483 57.7146 70.1705 57.7247 69.8463C57.7349 69.5221 57.8435 69.2507 57.9874 69.0725C58.131 68.8947 58.2868 68.8315 58.4161 68.8356Z" fill="#121212" stroke="#121212"/>
<path opacity="0.2" d="M58.4754 66.9623C58.6048 66.9664 58.7563 67.0394 58.8885 67.2261C59.0209 67.4131 59.1123 67.6909 59.1022 68.0151C59.092 68.3393 58.9834 68.6107 58.8395 68.7889C58.6959 68.9667 58.5401 69.0299 58.4108 69.0258C58.2815 69.0217 58.13 68.9487 57.9977 68.762C57.8653 68.575 57.7739 68.2972 57.784 67.973C57.7942 67.6488 57.9028 67.3774 58.0467 67.1993C58.1903 67.0214 58.3461 66.9582 58.4754 66.9623Z" fill="#121212" stroke="#121212"/>
<path opacity="0.2" d="M58.5333 65.0905C58.6627 65.0946 58.8142 65.1676 58.9464 65.3543C59.0788 65.5413 59.1703 65.8191 59.1601 66.1433C59.15 66.4675 59.0413 66.7389 58.8975 66.917C58.7538 67.0949 58.5981 67.1581 58.4687 67.154C58.3394 67.1498 58.1879 67.0769 58.0557 66.8902C57.9232 66.7032 57.8318 66.4254 57.8419 66.1012C57.8521 65.777 57.9607 65.5056 58.1046 65.3275C58.2482 65.1496 58.404 65.0864 58.5333 65.0905Z" fill="#121212" stroke="#121212"/>
<path opacity="0.2" d="M58.5926 63.2182C58.722 63.2223 58.8735 63.2953 59.0057 63.482C59.1381 63.669 59.2296 63.9468 59.2194 64.271C59.2093 64.5951 59.1006 64.8666 58.9568 65.0447C58.8131 65.2226 58.6574 65.2858 58.528 65.2817C58.3987 65.2775 58.2472 65.2046 58.115 65.0179C57.9825 64.8309 57.8911 64.5531 57.9012 64.2289C57.9114 63.9047 58.02 63.6333 58.1639 63.4551C58.3075 63.2773 58.4633 63.2141 58.5926 63.2182Z" fill="#121212" stroke="#121212"/>
<path opacity="0.2" d="M53.8162 54.7371C53.8496 53.668 54.2141 52.639 54.8548 51.7934H55.6022L55.0435 51.0299L57.3332 50.7248L57.2792 49.7294L54.3182 49.6577C54.1259 49.1025 54.0294 48.5172 54.0338 47.9273C54.0377 47.4173 54.1169 46.912 54.268 46.4277L58.1059 48.5953L58.6622 47.768L55.0426 44.9009C55.3696 44.4579 55.7662 44.0708 56.2172 43.7553C56.7885 43.3556 57.435 43.0793 58.1164 42.9434C58.7978 42.8075 59.4995 42.8149 60.1779 42.965C60.8564 43.1152 61.4971 43.405 62.0601 43.8166C62.6231 44.2282 63.0963 44.7527 63.4499 45.3577C63.8035 45.9628 64.0299 46.6351 64.1146 47.3328C64.1994 48.0305 64.1407 48.7384 63.9423 49.412C63.7439 50.0857 63.4101 50.7105 62.962 51.2476L62.7116 51.5477L62.9424 51.8632C63.0635 52.0287 63.1744 52.2015 63.2746 52.3805L59.7104 54.107L60.0736 55.0354L63.8319 53.8944C63.9632 54.5615 63.9618 55.2501 63.8258 55.9197C63.6564 56.7539 63.2836 57.5318 62.7416 58.1832L62.4922 58.4829L62.7221 58.7979C63.2857 59.5697 63.623 60.4864 63.695 61.4434C63.767 62.4004 63.5707 63.3582 63.1289 64.2074C62.6871 65.0565 62.0178 65.7624 61.1982 66.2447C60.3786 66.727 59.4414 66.9666 58.4939 66.9365C57.5463 66.9063 56.6259 66.6076 55.8379 66.074C55.0499 65.5404 54.4259 64.7933 54.0379 63.9177C53.6499 63.042 53.5138 62.0734 53.6453 61.123C53.7769 60.1726 54.1708 59.2792 54.7813 58.5449L55.0304 58.2452L54.8006 57.9304C54.1273 57.008 53.7803 55.8834 53.8162 54.7371Z" fill="#121212" stroke="#121212"/>
<path opacity="0.1" d="M64.4262 55.0755C64.3883 56.3334 63.9301 57.5414 63.126 58.5032C63.7447 59.3505 64.1147 60.3564 64.1936 61.406C64.2726 62.4556 64.0573 63.5064 63.5725 64.4383C63.0876 65.3702 62.3527 66.1456 61.4518 66.6758C60.5509 67.2059 59.5203 67.4695 58.478 67.4364C57.4357 67.4032 56.4236 67.0746 55.5576 66.4882C54.6916 65.9018 54.0065 65.0812 53.5808 64.1204C53.155 63.1595 53.0058 62.097 53.1501 61.0546C53.2944 60.0121 53.7264 59.0317 54.3968 58.2254C53.6849 57.2487 64.4457 54.4467 64.4262 55.0755Z" fill="#121212"/>
</g>
<path d="M37.1446 27.9386C37.1446 27.9386 36.1927 29.1836 35.427 30.3209C33.1158 33.7538 35.3329 37.1878 34.9956 41.3229C34.5048 47.3387 40.4484 59.9157 34.5127 59.1301C32.0311 58.8017 28.8038 53.1122 28.8038 53.1122L28.0253 58.0833H24.6519C24.652 49.9729 25.2884 42.8597 26.6239 36.8182C27.3917 33.3448 29.4151 30.9706 30.4887 29.8877C32.9853 28.6625 34.4394 28.221 37.1446 27.9386Z" fill="#4B6E82"/>
<path opacity="0.2" d="M29.5824 41.8612C29.0354 46.128 28.8193 48.5576 28.8039 53.1115C30.0612 54.3994 30.8012 55.0119 32.1773 55.7279C30.8799 54.1581 29.2662 46.0647 29.5824 41.8612Z" fill="#121212"/>
<path d="M70.4196 5.70046L65.0602 4.90935C64.84 4.87685 64.6361 5.02946 64.6048 5.25023L63.1373 15.5915C63.1059 15.8123 63.2591 16.0176 63.4793 16.0501L68.8386 16.8412C69.0588 16.8737 69.2627 16.7211 69.2941 16.5004L70.7616 6.15905C70.7929 5.93828 70.6398 5.73296 70.4196 5.70046Z" fill="#494949"/>
<path d="M68.6983 15.7765C68.6903 15.8331 68.6625 15.8844 68.6209 15.9192C68.5793 15.954 68.5273 15.9693 68.4765 15.9619L64.0683 15.3124C64.0174 15.3049 63.9719 15.2752 63.9417 15.2298C63.9115 15.1845 63.899 15.1272 63.9071 15.0706L64.1122 13.6287L65.2179 5.85351C65.2259 5.79691 65.2537 5.74558 65.2953 5.71081C65.3369 5.67603 65.3889 5.66066 65.4397 5.66806L66.3617 5.80399C66.3609 5.91359 66.3955 6.01889 66.4592 6.10088C66.5229 6.18287 66.6115 6.23615 66.7091 6.2511L68.451 6.50781C68.5489 6.52203 68.6491 6.49674 68.7333 6.43651C68.8176 6.37629 68.8803 6.28511 68.9102 6.17952L69.8466 6.31744C69.8974 6.32499 69.943 6.3547 69.9732 6.40004C70.0034 6.44538 70.0159 6.50263 70.0078 6.55923L68.9015 14.3475L68.6983 15.7765Z" fill="white"/>
<path d="M68.2932 5.78561L66.9868 5.61087C66.9692 5.60852 66.9531 5.6208 66.9508 5.63829L66.948 5.66015C66.9457 5.67764 66.9581 5.69373 66.9757 5.69609L68.2821 5.87082C68.2997 5.87318 68.3158 5.8609 68.3181 5.84341L68.3209 5.82155C68.3232 5.80405 68.3108 5.78796 68.2932 5.78561Z" fill="white"/>
<path d="M68.6048 5.91382C68.6333 5.91766 68.6594 5.89762 68.6631 5.86906C68.6667 5.84049 68.6466 5.81422 68.6181 5.81038C68.5896 5.80654 68.5635 5.82658 68.5599 5.85514C68.5562 5.88371 68.5763 5.90998 68.6048 5.91382Z" fill="white"/>
<rect width="4.84825" height="2.78545" rx="1" transform="matrix(0.989042 0.147648 -0.143694 0.989624 64.3576 11.8397)" fill="#8BC63E"/>
<path d="M57.0283 1.15228L51.7744 2.48484C51.5585 2.5396 51.4268 2.75939 51.4801 2.97577L53.978 13.1115C54.0313 13.3279 54.2495 13.4589 54.4654 13.4041L59.7193 12.0716C59.9351 12.0168 60.0669 11.797 60.0136 11.5806L57.5157 1.44493C57.4624 1.22855 57.2441 1.09753 57.0283 1.15228Z" fill="#494949"/>
<path d="M59.1926 11.1404C59.2063 11.1959 59.1996 11.2541 59.1741 11.3023C59.1486 11.3505 59.1062 11.3848 59.0564 11.3975L54.7354 12.4944C54.6856 12.507 54.6323 12.4971 54.5875 12.4667C54.5426 12.4364 54.5097 12.3882 54.4961 12.3328L54.1482 10.9193L52.2718 3.29793C52.2581 3.24247 52.2648 3.18423 52.2903 3.13602C52.3158 3.08782 52.3582 3.05358 52.408 3.04085L53.3117 2.8115C53.3519 2.91323 53.4232 2.99736 53.5127 3.0487C53.6022 3.10004 53.7041 3.11521 53.7999 3.09148L55.5074 2.65806C55.6033 2.63351 55.6865 2.57153 55.742 2.48334C55.7975 2.39516 55.8216 2.28661 55.8099 2.17736L56.7277 1.94431C56.7776 1.93172 56.8308 1.94168 56.8757 1.97199C56.9205 2.00231 56.9534 2.0505 56.9671 2.10598L58.8476 9.73974L59.1926 11.1404Z" fill="white"/>
<path d="M55.0769 2.05385L53.8026 2.39286C53.7855 2.39742 53.7752 2.415 53.7796 2.43213L53.7852 2.45352C53.7897 2.47065 53.8072 2.48083 53.8244 2.47626L55.0986 2.13725C55.1158 2.13269 55.1261 2.11511 55.1216 2.09798L55.116 2.07659C55.1116 2.05946 55.0941 2.04928 55.0769 2.05385Z" fill="white"/>
<path d="M55.4134 2.05408C55.4412 2.04665 55.4578 2.01805 55.4506 1.99018C55.4434 1.96232 55.415 1.94576 55.3872 1.95318C55.3594 1.96061 55.3427 1.98922 55.3499 2.01708C55.3572 2.04494 55.3856 2.06151 55.4134 2.05408Z" fill="white"/>
<rect width="4.85173" height="2.78266" rx="1" transform="matrix(0.970031 -0.242995 0.237389 0.971419 53.7136 9.16635)" fill="#8BC63E"/>
<path d="M67.4684 12.2966C67.96 10.9089 70.5823 14.3897 70.5823 14.3897L70.3227 15.6981C70.3227 15.6981 67.8267 14.6885 67.4684 13.6048C67.3082 13.1201 67.298 12.7777 67.4684 12.2966Z" fill="#FFB9B9"/>
<path d="M55.0665 8.18991C56.5107 8.41611 53.7689 12.9002 53.7689 12.9002L52.9904 12.6386C52.9904 12.6386 52.9862 9.19227 53.9747 8.63394C54.4167 8.38425 54.5658 8.11149 55.0665 8.18991Z" fill="#CC9494"/>
</g>
<defs>
<clipPath id="clip0_9693_15093">
<rect width="123" height="77.9672" fill="white"/>
</clipPath>
</defs>
</svg>
