<svg width="32" height="47" viewBox="0 0 32 47" fill="none" xmlns="http://www.w3.org/2000/svg">
<g opacity="0.9">
<path d="M31.1 41.2096L25.7671 39.9759L25.378 39.8859L25.2042 40.2456L22.8235 45.1738L16.9974 33.0123L16.9973 33.0122L16.4506 31.8701L15.9996 30.9281L15.5486 31.8701L15.0019 33.0122L15.0018 33.0123L9.17567 45.1738L6.79495 40.2456L6.6212 39.8859L6.23203 39.9759L0.899995 41.2095L6.51515 29.4876L6.51517 29.4876L7.85658 26.6867L7.85663 26.6866L8.27694 25.8095L15.7836 29.4052L15.9996 29.5087L16.2156 29.4052L23.723 25.8095L24.1434 26.6866L24.1434 26.6867L25.4848 29.4876L25.4849 29.4876L31.1 41.2096Z" stroke="black"/>
<path d="M24.5946 24.4161C22.4241 26.6761 19.3736 28.0854 15.9998 28.0854C14.2941 28.0854 12.6704 27.7253 11.2017 27.0763C9.76645 26.4424 8.47858 25.5339 7.40592 24.416L6.06445 27.2169C6.84572 27.3199 7.86479 27.1365 8.42415 27.51C8.82944 27.7813 9.05553 28.3968 9.30255 28.9763C9.52948 29.5088 9.77566 30.0096 10.1943 30.1846C11.056 30.5422 12.4016 29.3615 13.3378 29.5466C14.0697 29.6914 14.7245 30.7608 15.453 31.1736L15.9998 30.0314L16.5466 31.1736C17.276 30.7616 17.9308 29.6915 18.6626 29.5466C19.5988 29.3615 20.9436 30.5422 21.8053 30.1846C22.682 29.8212 22.7967 28.0318 23.5763 27.5101C24.1348 27.1366 25.1548 27.32 25.936 27.217L24.5946 24.4161Z" fill="#D1D3D4"/>
<path d="M5.54173 15.6689C5.54173 9.66097 10.4122 4.79051 16.4201 4.79051C19.6664 4.79051 22.58 6.21294 24.5732 8.46789C22.582 5.92355 19.4828 4.28809 16.0015 4.28809C9.99343 4.28809 5.12305 9.15855 5.12305 15.1665C5.12305 17.9282 6.15276 20.4491 7.84851 22.3675C6.4033 20.5209 5.54173 18.1956 5.54173 15.6689Z" fill="#D1D3D4"/>
<path d="M12.7875 20.4854L9.47017 17.168C8.90838 16.6063 8.90838 15.6954 9.47017 15.1336L9.49077 15.1131C10.0526 14.5513 10.9634 14.5513 11.5252 15.1131L13.5873 17.1752C13.7381 17.326 13.9827 17.326 14.1335 17.1752L20.978 10.3305C21.5398 9.76873 22.4507 9.76873 23.0125 10.3305L23.033 10.351C23.5948 10.9128 23.5948 11.8237 23.033 12.3855L14.9332 20.4853C14.3407 21.0779 13.38 21.0779 12.7875 20.4854Z" fill="#D1D3D4"/>
<path d="M9.59555 15.2115L9.59628 15.2108C9.9628 14.8442 10.5571 14.8442 10.9236 15.2108L12.9857 17.2729C13.3318 17.6189 13.8929 17.6189 14.239 17.2729L13.9023 16.9361L14.239 17.2729L21.0835 10.4282C21.4501 10.0617 22.0444 10.0617 22.4109 10.4282C22.4109 10.4282 22.4109 10.4282 22.4109 10.4282L22.4314 10.4487L22.4314 10.4487C22.7979 10.8153 22.7979 11.4096 22.4314 11.7761L14.3316 19.8759L14.3316 19.8759C13.9344 20.2732 13.2902 20.2732 12.893 19.8759L9.57568 16.5586C9.20915 16.1921 9.20915 15.5978 9.57568 15.2313L9.59555 15.2115Z" stroke="black"/>
<path d="M28.8886 17.7307L28.8887 17.7303C28.9575 17.3842 29.1523 17.0881 29.3468 16.8486C29.5151 16.6414 29.7172 16.4372 29.8991 16.2535C29.9284 16.2239 29.9572 16.1948 29.9853 16.1663C30.1991 15.949 30.3766 15.7599 30.5024 15.577C30.6275 15.3949 30.6687 15.2647 30.6687 15.1664C30.6687 15.0681 30.6275 14.9378 30.5023 14.7557C30.3766 14.5728 30.1991 14.3837 29.9852 14.1663C29.9573 14.1379 29.9285 14.1089 29.8993 14.0793C29.7174 13.8955 29.5152 13.6911 29.3468 13.4836C29.1522 13.244 28.9575 12.9478 28.8887 12.6016L28.8886 12.6012C28.8194 12.2512 28.8832 11.9002 28.9709 11.5993C29.0489 11.3316 29.1612 11.0559 29.2614 10.8097C29.2743 10.7782 29.2869 10.7472 29.2992 10.7168C29.4143 10.4329 29.5065 10.1916 29.5538 9.97664C29.6009 9.76196 29.5888 9.63346 29.5553 9.55255L29.555 9.55202C29.5208 9.46916 29.4411 9.37159 29.2706 9.25816C29.099 9.14406 28.8784 9.04149 28.6131 8.92889L28.6123 8.92855C28.5599 8.90621 28.5053 8.88328 28.4493 8.85975C28.2152 8.7615 27.9558 8.65262 27.7261 8.53074C27.4418 8.37985 27.1325 8.17461 26.9274 7.86871L26.9271 7.86826C26.7293 7.57271 26.6548 7.22448 26.6211 6.91437C26.5914 6.64066 26.5895 6.34591 26.5878 6.0821C26.5876 6.04584 26.5874 6.01016 26.5871 5.9752C26.5845 5.66919 26.5769 5.41038 26.5375 5.19297C26.4983 4.97603 26.437 4.85945 26.3726 4.79503C26.2515 4.67395 25.9939 4.60214 25.4856 4.58671L25.4846 4.58668C25.3778 4.58322 25.252 4.58222 25.1188 4.58115C24.8868 4.5793 24.6322 4.57726 24.4162 4.5618C24.06 4.53629 23.6429 4.4703 23.3007 4.2417L23.2997 4.24106C22.9124 3.98105 22.6777 3.54635 22.5098 3.18125C22.5097 3.18107 22.5097 3.1809 22.5096 3.18073L22.9639 2.9719M28.8886 17.7307L21.8076 1.15063C22.2735 1.34381 22.524 1.93983 22.7739 2.53416C22.8362 2.68227 22.8984 2.83027 22.9639 2.9719M28.8886 17.7307C28.8194 18.0807 28.8832 18.4317 28.9709 18.7327C29.0488 19.0004 29.1611 19.2761 29.2614 19.5224C29.2742 19.5539 29.2869 19.585 29.2992 19.6155C29.4142 19.8995 29.5065 20.1409 29.5538 20.356C29.6009 20.5708 29.5888 20.6994 29.5552 20.7804L29.5552 20.7805C29.5194 20.8668 29.4341 20.969 29.2487 21.0884C29.0628 21.2082 28.8264 21.3142 28.5449 21.4331C28.5108 21.4475 28.476 21.4622 28.4405 21.4771C28.1992 21.5783 27.9301 21.6913 27.6911 21.8211C27.4181 21.9693 27.1245 22.1698 26.9273 22.4643L28.8886 17.7307ZM22.9639 2.9719C23.1294 3.33205 23.3165 3.65008 23.5784 3.82593C23.9483 4.073 24.5195 4.07685 25.09 4.08071C25.2279 4.08164 25.3658 4.08257 25.5008 4.08694C25.9946 4.10193 26.4493 4.16456 26.7262 4.44148C27.0791 4.79446 27.0835 5.43697 27.0878 6.07996C27.0917 6.65023 27.0955 7.22088 27.3426 7.59023C27.5874 7.95526 28.109 8.17439 28.6326 8.39439C28.6913 8.41906 28.7501 8.44374 28.8085 8.46863C29.3417 8.69497 29.8431 8.94007 30.0171 9.36101C30.2057 9.81581 29.9658 10.4054 29.7245 10.9984C29.5087 11.5288 29.2917 12.062 29.3791 12.5042C29.4631 12.927 29.856 13.3243 30.2522 13.7251C30.7082 14.1862 31.1687 14.6519 31.1687 15.1664C31.1687 15.681 30.7079 16.1468 30.2519 16.6078C29.8557 17.0084 29.4631 17.4054 29.3791 17.8277C29.2917 18.2698 29.5086 18.8031 29.7245 19.3337C29.9658 19.9271 30.2057 20.517 30.0171 20.9719C29.824 21.4382 29.227 21.689 28.632 21.939C28.1087 22.1588 27.5869 22.378 27.3426 22.7426C27.0955 23.1115 27.0916 23.682 27.0878 24.2522C27.0835 24.895 27.0791 25.5374 26.7262 25.8904C26.3732 26.2434 25.7307 26.2477 25.0879 26.2521C24.5178 26.2559 23.9473 26.2598 23.5784 26.5069M22.9639 2.9719L2.62548 17.8278C2.71292 18.2699 2.49595 18.8033 2.28012 19.3339C2.03879 19.9272 1.79887 20.517 1.98749 20.9718C2.18135 21.4392 2.78089 21.6905 3.3773 21.9405C3.52331 22.0017 3.66913 22.0628 3.80876 22.127C4.16799 22.2945 4.48694 22.4816 4.66187 22.7426C4.90894 23.1117 4.91279 23.6828 4.91665 24.2537C4.91758 24.3917 4.91851 24.5298 4.92288 24.6649C4.93971 25.1588 5.00142 25.6134 5.27834 25.8903C5.63083 26.2433 6.27312 26.2476 6.91598 26.252C7.48615 26.2558 8.05678 26.2597 8.42609 26.5068C8.7908 26.7504 9.00979 27.2718 9.22954 27.7951C9.25444 27.8543 9.27935 27.9137 9.30449 27.9726C9.53183 28.5048 9.77785 29.0063 10.197 29.1813C10.6518 29.3699 11.2413 29.13 11.8344 28.8886C12.3648 28.6728 12.898 28.4558 13.34 28.5433M13.34 28.5433C13.763 28.6269 14.1604 29.0199 14.5614 29.4165C15.0224 29.8724 15.488 30.3328 16.0023 30.3328C16.5165 30.3328 16.9821 29.8723 17.4431 29.4165C17.8441 29.0199 18.2415 28.6268 18.6645 28.5433M13.34 28.5433L13.437 28.0528C13.437 28.0528 13.437 28.0528 13.437 28.0528M13.34 28.5433L13.437 28.0528M18.6645 28.5433C19.1066 28.4558 19.6398 28.6728 20.1702 28.8886C20.7633 29.13 21.3528 29.3699 21.8076 29.1813C22.2738 28.9877 22.5246 28.3908 22.7745 27.796C22.9944 27.2726 23.2137 26.7507 23.5784 26.5069M18.6645 28.5433L18.5675 28.0528C18.5675 28.0528 18.5676 28.0527 18.5676 28.0527C18.9176 27.9835 19.2685 28.0474 19.5694 28.135C19.837 28.213 20.1127 28.3253 20.3589 28.4256C20.3904 28.4384 20.4214 28.4511 20.4519 28.4634C20.7358 28.5784 20.9771 28.6707 21.192 28.7179C21.4067 28.7651 21.5352 28.753 21.6161 28.7194C21.7025 28.6835 21.8047 28.5978 21.9241 28.4124C22.0439 28.2263 22.15 27.9899 22.2689 27.7084C22.2832 27.6744 22.2978 27.6397 22.3127 27.6044C22.414 27.363 22.527 27.0937 22.6569 26.8546C22.8051 26.5819 23.0056 26.2885 23.3002 26.0914M18.6645 28.5433L23.3002 26.0914M23.5784 26.5069L23.3002 26.0914M23.5784 26.5069L23.3005 26.0912C23.3004 26.0913 23.3003 26.0914 23.3002 26.0914M13.437 28.0528C13.087 27.9835 12.736 28.0474 12.4351 28.135C12.1675 28.213 11.8918 28.3253 11.6457 28.4256C11.6142 28.4384 11.5831 28.4511 11.5527 28.4634C11.2688 28.5784 11.0275 28.6707 10.8126 28.7179C10.5983 28.765 10.4699 28.753 10.389 28.7196C10.3064 28.6849 10.2087 28.6046 10.095 28.4338C9.98057 28.2619 9.87749 28.0412 9.76441 27.7765C9.74188 27.7236 9.71876 27.6685 9.69501 27.6119C9.59696 27.3783 9.48827 27.1193 9.36668 26.89C9.21591 26.6057 9.01056 26.296 8.70413 26.0912L13.437 28.0528ZM5.4226 24.6481C5.41915 24.5413 5.41815 24.4156 5.41709 24.2825C5.41524 24.0503 5.4132 23.7957 5.39774 23.5796C5.37224 23.2235 5.30626 22.8064 5.07738 22.4644L5.07722 22.4642C4.81804 22.0775 4.38137 21.8423 4.02003 21.6738L4.01761 21.6727C3.86942 21.6046 3.71318 21.5391 3.56622 21.4775C3.52774 21.4614 3.48989 21.4455 3.45299 21.43C3.26913 21.3524 3.10231 21.2794 2.9534 21.2018C2.63896 21.038 2.49911 20.9002 2.44934 20.7802L2.04344 20.9486L2.44934 20.7802C2.4158 20.6994 2.40367 20.5708 2.45084 20.356C2.49807 20.141 2.59037 19.8996 2.70539 19.6156C2.71773 19.5851 2.73037 19.554 2.74321 19.5225C2.84347 19.2762 2.95575 19.0005 3.03373 18.7328C3.1214 18.4318 3.1852 18.0808 3.11597 17.7308L3.11588 17.7303C3.0471 17.3843 2.85226 17.0882 2.65779 16.8488C2.48949 16.6416 2.28739 16.4374 2.10557 16.2537C2.07622 16.224 2.04741 16.1949 2.01934 16.1664C1.80549 15.9491 1.62797 15.76 1.50225 15.5771C1.37713 15.395 1.33594 15.2648 1.33594 15.1665C1.33594 15.0682 1.37713 14.9379 1.50226 14.7558C1.62799 14.5729 1.80552 14.3837 2.01939 14.1664C2.04734 14.138 2.07605 14.109 2.10528 14.0794C2.2872 13.8956 2.48946 13.6912 2.65788 13.4837C2.85224 13.2443 3.04685 12.9483 3.11574 12.6024C3.14714 12.4465 3.15118 12.2924 3.13888 12.1445C3.13882 12.1438 3.13876 12.143 3.1387 12.1423L2.64047 12.1843C2.61263 11.8158 2.446 11.406 2.27999 10.9977C2.03896 10.405 1.79925 9.81552 1.98757 9.36018C2.18066 8.8938 2.77761 8.64327 3.37262 8.39357C3.89592 8.17395 4.41772 7.95496 4.66195 7.59032L5.4226 24.6481ZM12.9813 2.30202C13.1277 2.31419 13.2814 2.31032 13.4369 2.27914C13.7833 2.21071 14.0797 2.01607 14.3193 1.82167C14.527 1.65323 14.7315 1.4509 14.9155 1.26893C14.9449 1.23982 14.9738 1.21123 15.0021 1.18339C15.2195 0.969556 15.4086 0.792044 15.5916 0.666316C15.7737 0.54119 15.904 0.5 16.0023 0.5C16.1006 0.5 16.2308 0.54119 16.4129 0.666316C16.5959 0.792044 16.785 0.969556 17.0024 1.18339C17.0307 1.21123 17.0596 1.23981 17.089 1.26892C17.273 1.45089 17.4776 1.65323 17.6852 1.82167C17.9248 2.01605 18.2211 2.21066 18.5675 2.27911L12.9813 2.30202ZM6.44174 23.0805L6.44175 23.0805C7.66629 24.5564 9.22523 25.7453 11.0022 26.53C12.5333 27.2068 14.225 27.5821 16.0023 27.5821C22.849 27.5821 28.4179 22.013 28.418 15.1663C28.418 13.3891 28.0427 11.6974 27.366 10.1663C26.5821 8.38911 25.3921 6.83013 23.9164 5.60573L23.9161 5.60544C23.2126 5.02283 22.4428 4.51522 21.6214 4.09615L21.6213 4.0961C19.9325 3.23509 18.0224 2.74966 16.0023 2.74966C13.6692 2.74966 11.4841 3.39703 9.61739 4.52091C7.87282 5.57051 6.40738 7.03698 5.35703 8.78119L5.35702 8.78122C4.23291 10.6482 3.5866 12.8333 3.5866 15.1663C3.5866 17.1864 4.072 19.0974 4.93197 20.7852C5.35106 21.6077 5.85786 22.3767 6.44174 23.0805Z" stroke="black"/>
</g>
</svg>
