<svg width="51" height="53" viewBox="0 0 51 53" fill="none" xmlns="http://www.w3.org/2000/svg">
<path d="M36.6571 52.0701C36.5766 52.0701 36.4961 52.0693 36.4156 52.0676C32.418 51.9891 28.8434 50.1885 26.6086 47.1272L14.6638 30.7537C14.2123 30.1355 14.0287 29.3783 14.1467 28.6219C14.2647 27.8654 14.6705 27.2 15.2891 26.7483C15.88 26.317 16.5967 26.1297 17.3197 26.2173L15.6804 23.9719C15.229 23.3535 15.0452 22.5964 15.1634 21.8399C15.2814 21.0833 15.6871 20.4181 16.3054 19.9667C16.8961 19.5354 17.6135 19.3483 18.3358 19.4356L18.0481 19.0413C17.5964 18.4228 17.4129 17.6654 17.5313 16.9088C17.6493 16.1524 18.055 15.4873 18.6733 15.0359C19.2917 14.5843 20.0488 14.4006 20.8053 14.5187C21.5618 14.6367 22.2271 15.0423 22.6785 15.6607L22.9663 16.0548C23.1034 15.3402 23.4999 14.714 24.0907 14.2826C25.3676 13.3506 27.1644 13.6305 28.0963 14.9073L36.363 26.2304C36.5117 26.4339 36.4671 26.7196 36.2635 26.8684C36.0598 27.017 35.7743 26.9726 35.6254 26.7688L27.3587 15.4457C26.7238 14.5759 25.4993 14.385 24.6291 15.0203C24.2078 15.3278 23.9314 15.7812 23.8509 16.2966C23.7707 16.8113 23.8953 17.3266 24.2021 17.7477L24.2034 17.7495L23.4658 18.288L21.9409 16.1992C21.6333 15.7779 21.18 15.5015 20.6645 15.4213C20.1493 15.3406 19.6332 15.4658 19.2119 15.7736C18.7904 16.0812 18.5141 16.5345 18.4336 17.05C18.3528 17.5656 18.4779 18.0816 18.7856 18.5029L20.3106 20.5917L19.573 21.1301C19.2654 20.7087 18.812 20.4323 18.2966 20.3521C17.7811 20.2717 17.2652 20.3966 16.8438 20.7045C16.4223 21.012 16.1461 21.4653 16.0656 21.9808C15.9852 22.4962 16.1103 23.0121 16.418 23.4336L19.2943 27.3735L18.5567 27.9119L18.556 27.9109C18.2484 27.4901 17.7955 27.2142 17.2804 27.1338C16.7649 27.0531 16.2489 27.1785 15.8277 27.4862C15.406 27.794 15.1295 28.2474 15.049 28.7629C14.9687 29.2783 15.0937 29.7942 15.4014 30.2157L27.3462 46.5892C29.4113 49.4178 32.7236 51.0821 36.4336 51.1549C38.1456 51.1859 39.8687 50.8323 41.4192 50.1237C42.122 49.8024 42.7984 49.4059 43.4295 48.945C44.0601 48.4847 44.6438 47.9614 45.1643 47.3895L45.2188 47.3297C46.4374 45.9922 48.9734 43.2094 46.8952 35.6437C46.6392 34.7119 43.0292 25.5974 41.1562 20.9081C40.9716 20.4221 40.433 19.9978 39.9195 20.1277C39.2306 20.3032 38.6462 20.7456 38.2743 21.3737C37.8184 22.1434 37.7069 23.1141 37.9604 24.1085L40.2832 31.6416C40.3575 31.8827 40.2224 32.1383 39.9814 32.2124C39.7403 32.2873 39.4849 32.1515 39.4106 31.9108L37.0786 24.3462C36.7611 23.1117 36.9066 21.8906 37.4886 20.9081C37.9851 20.0698 38.7684 19.4784 39.6942 19.2425C40.7258 18.9806 41.6801 19.7145 42.0073 20.5765C42.2264 21.1246 47.4426 34.1881 47.776 35.4015C49.9875 43.4525 47.2227 46.4865 45.8941 47.9445L45.84 48.0039C45.2781 48.6213 44.6484 49.186 43.9684 49.6824C43.2878 50.1792 42.558 50.607 41.7993 50.9541C40.1974 51.686 38.4249 52.0701 36.6571 52.0701Z" fill="#8EC23C"/>
<path d="M39.8469 32.2326C39.7061 32.2326 39.5671 32.1677 39.4778 32.0452L35.6254 26.7686C35.4768 26.565 35.5213 26.2793 35.7249 26.1306C35.9286 25.9819 36.2141 26.0264 36.3631 26.2302L40.2154 31.5068C40.3641 31.7104 40.3195 31.996 40.1159 32.1448C40.0346 32.204 39.9403 32.2326 39.8469 32.2326Z" fill="#8EC23C"/>
<path d="M32.7834 30.7323C32.6426 30.7323 32.5037 30.6674 32.4143 30.5449L23.4658 18.2879C23.3171 18.0843 23.3617 17.7987 23.5652 17.6499C23.769 17.5012 24.0546 17.5456 24.2034 17.7495L33.152 30.0065C33.3006 30.2101 33.2561 30.4957 33.0525 30.6445C32.9711 30.7038 32.8769 30.7323 32.7834 30.7323Z" fill="#8EC23C"/>
<path d="M28.8908 33.5741C28.75 33.5741 28.6111 33.5092 28.5217 33.3867L19.5732 21.1297C19.4245 20.9261 19.4691 20.6405 19.6727 20.4917C19.8764 20.343 20.162 20.3874 20.3108 20.5913L29.2594 32.8483C29.408 33.0519 29.3635 33.3375 29.1599 33.4863C29.0785 33.5456 28.9843 33.5741 28.8908 33.5741Z" fill="#8EC23C"/>
<path d="M24.9978 36.4162C24.8571 36.4162 24.7181 36.3513 24.6287 36.2288L18.5566 27.9116C18.4079 27.7081 18.4525 27.4224 18.6561 27.2736C18.8598 27.125 19.1454 27.1695 19.2942 27.3732L25.3664 35.6904C25.515 35.894 25.4705 36.1796 25.2669 36.3284C25.1856 36.3877 25.0914 36.4162 24.9978 36.4162Z" fill="#8EC23C"/>
<path d="M45.608 31.3843C45.4819 31.3843 45.3562 31.3323 45.266 31.2303C45.0988 31.0416 45.1164 30.753 45.3051 30.5858C45.8484 30.1046 46.3509 29.566 46.7988 28.9852C47.2754 28.3667 47.6893 27.7008 48.029 27.0065L48.0647 26.9337C48.8607 25.3087 50.5168 21.9274 46.4052 15.2453C45.8989 14.4224 39.8836 6.68145 36.7737 2.70323C36.4605 2.28804 35.8239 2.03148 35.3681 2.29998C34.7558 2.66108 34.3185 3.24936 34.137 3.95624C33.9146 4.82286 34.0793 5.78601 34.6007 6.66978L38.9379 13.2525C39.0767 13.4632 39.0184 13.7464 38.8078 13.8851C38.5972 14.024 38.3141 13.9657 38.1752 13.755L33.8205 7.14469C33.1702 6.0482 32.9684 4.83524 33.2524 3.72905C33.4948 2.78543 34.0812 1.99861 34.9042 1.51316C35.8207 0.972787 36.9427 1.41102 37.498 2.14698C37.8616 2.61204 46.5237 13.6948 47.1831 14.7666C51.5581 21.8772 49.7526 25.5638 48.8848 27.3354L48.8494 27.4076C48.4827 28.1572 48.0361 28.8754 47.522 29.5425C47.0389 30.169 46.4968 30.75 45.9105 31.2692C45.8237 31.3463 45.7156 31.3843 45.608 31.3843Z" fill="#8EC23C"/>
<path d="M16.2321 21.0961C16.1348 21.0961 16.0367 21.0651 15.9536 21.001L14.0934 19.5662C13.4871 19.0989 13.0989 18.4232 13.0007 17.6639C12.9025 16.9048 13.1059 16.1524 13.5735 15.5457C14.02 14.9664 14.6565 14.5864 15.3745 14.4679L13.1727 12.7706C12.5662 12.3033 12.178 11.6276 12.0798 10.8683C11.9816 10.109 12.1849 9.35675 12.6524 8.75048C13.1125 8.15334 13.7639 7.78789 14.4548 7.67381L14.0667 7.37467C13.46 6.90707 13.0718 6.23124 12.9741 5.47168C12.8758 4.71267 13.0792 3.96043 13.5467 3.35416C14.5114 2.10227 16.3149 1.86889 17.5668 2.83373L17.9532 3.1316C17.885 2.40716 18.0906 1.6948 18.5371 1.11565C19.5021 -0.13624 21.3056 -0.370046 22.5576 0.594934L33.6613 9.15373C33.8611 9.30772 33.8982 9.59448 33.7442 9.79428C33.5904 9.99393 33.3036 10.031 33.1038 9.87717L21.9999 1.31839C21.1468 0.660696 19.9178 0.820168 19.2603 1.67331C18.9416 2.08639 18.8032 2.59895 18.8701 3.11642C18.9371 3.63376 19.2015 4.09418 19.6148 4.4127L19.0572 5.13602C19.057 5.13574 19.0565 5.13545 19.0561 5.13517L17.0088 3.55718C16.1558 2.89962 14.927 3.05867 14.2696 3.91181C13.9509 4.32489 13.8125 4.83745 13.8794 5.35493C13.9461 5.87268 14.2104 6.33298 14.6238 6.6515L16.6711 8.22949C16.6713 8.22977 16.6716 8.22991 16.6719 8.23019L16.1144 8.9535C15.2614 8.29622 14.0327 8.45514 13.3751 9.30814C13.0565 9.72122 12.9181 10.2338 12.9849 10.7513C13.0518 11.2687 13.3164 11.7289 13.7296 12.0474L17.5933 15.0255L17.0357 15.7488C16.6225 15.4302 16.11 15.292 15.5926 15.3588C15.0751 15.4258 14.6148 15.6901 14.2963 16.1035C13.9775 16.5168 13.8389 17.0297 13.9058 17.5469C13.9727 18.064 14.2373 18.5246 14.6505 18.8432L16.5107 20.2781C16.7104 20.4321 16.7475 20.7189 16.5934 20.9187C16.5041 21.0349 16.369 21.0961 16.2321 21.0961Z" fill="#8EC23C"/>
<path d="M38.5566 13.9606C38.4594 13.9606 38.3612 13.9296 38.2783 13.8657L33.1037 9.87716C32.9039 9.72317 32.8668 9.4364 33.0208 9.23661C33.1748 9.03709 33.4616 8.99986 33.6612 9.15371L38.8358 13.1422C39.0356 13.2962 39.0727 13.5829 38.9187 13.7827C38.8288 13.8994 38.6935 13.9606 38.5566 13.9606Z" fill="#8EC23C"/>
<path d="M31.3553 14.4957C31.2581 14.4957 31.1599 14.4647 31.077 14.4007L19.0573 5.13605C18.8575 4.98206 18.8204 4.6953 18.9744 4.4955C19.1283 4.29584 19.4152 4.25861 19.6148 4.41261L31.6345 13.6773C31.8343 13.8313 31.8714 14.118 31.7174 14.3178C31.6275 14.4346 31.4922 14.4957 31.3553 14.4957Z" fill="#8EC23C"/>
<path d="M24.307 15.1481C24.2098 15.1481 24.1116 15.1171 24.0287 15.0532L16.1149 8.95334C15.9151 8.79935 15.878 8.51259 16.032 8.31279C16.186 8.11327 16.4728 8.07603 16.6724 8.22988L24.5862 14.3297C24.786 14.4837 24.8231 14.7705 24.6691 14.9703C24.5792 15.0869 24.4439 15.1481 24.307 15.1481Z" fill="#8EC23C"/>
<path d="M18.2836 16.5905C18.1863 16.5905 18.0881 16.5594 18.0052 16.4955L17.0363 15.7488C16.8365 15.5948 16.7994 15.308 16.9534 15.1082C17.1073 14.9087 17.394 14.8714 17.5938 15.0253L18.5627 15.7721C18.7625 15.9261 18.7996 16.2128 18.6456 16.4126C18.5556 16.5294 18.4203 16.5905 18.2836 16.5905Z" fill="#8EC23C"/>
<path d="M37.738 21.8681C37.5531 21.8681 37.379 21.7548 37.3103 21.5715C36.2473 18.7334 36.5534 15.7807 38.1725 13.2573C38.3086 13.0448 38.5913 12.9833 38.8033 13.1196C39.0156 13.2557 39.0773 13.5381 38.941 13.7504C37.4813 16.0255 37.2059 18.6893 38.1654 21.2512C38.254 21.4874 38.1341 21.7506 37.8981 21.8391C37.8454 21.8588 37.7911 21.8681 37.738 21.8681Z" fill="#8EC23C"/>
<path d="M6.75388 19.0676H0.456637C0.204433 19.0676 0 18.8631 0 18.6109C0 18.3587 0.204433 18.1543 0.456637 18.1543H6.75388C7.00608 18.1543 7.21052 18.3587 7.21052 18.6109C7.21052 18.8631 7.00608 19.0676 6.75388 19.0676Z" fill="#8EC23C"/>
<path d="M3.39649 30.0375C3.2387 30.0375 3.08527 29.9556 3.00069 29.809C2.87465 29.5905 2.9494 29.3113 3.16774 29.1853L8.6214 26.0366C8.8396 25.9105 9.11906 25.9853 9.2451 26.2037C9.37113 26.422 9.29638 26.7014 9.07803 26.8274L3.62438 29.9761C3.55244 30.0178 3.47391 30.0375 3.39649 30.0375Z" fill="#8EC23C"/>
<path d="M8.84939 11.2461C8.77183 11.2461 8.69343 11.2263 8.62149 11.1847L3.16783 8.036C2.94935 7.90997 2.87461 7.63065 3.00078 7.41231C3.12681 7.19369 3.40627 7.11894 3.62447 7.24526L9.07813 10.394C9.29661 10.52 9.37136 10.7993 9.24519 11.0176C9.1606 11.1642 9.00717 11.2461 8.84939 11.2461Z" fill="#8EC23C"/>
<path d="M37.6571 52.0701C37.5766 52.0701 37.4961 52.0693 37.4156 52.0676C33.418 51.9891 29.8434 50.1885 27.6086 47.1272L15.6638 30.7537C15.2123 30.1355 15.0287 29.3783 15.1467 28.6219C15.2647 27.8654 15.6705 27.2 16.2891 26.7483C16.88 26.317 17.5967 26.1297 18.3197 26.2173L16.6804 23.9719C16.229 23.3535 16.0452 22.5964 16.1634 21.8399C16.2814 21.0833 16.6871 20.4181 17.3054 19.9667C17.8961 19.5354 18.6135 19.3483 19.3358 19.4356L19.0481 19.0413C18.5964 18.4228 18.4129 17.6654 18.5313 16.9088C18.6493 16.1524 19.055 15.4873 19.6733 15.0359C20.2917 14.5843 21.0488 14.4006 21.8053 14.5187C22.5618 14.6367 23.2271 15.0423 23.6785 15.6607L23.9663 16.0548C24.1034 15.3402 24.4999 14.714 25.0907 14.2826C26.3676 13.3506 28.1644 13.6305 29.0963 14.9073L37.363 26.2304C37.5117 26.4339 37.4671 26.7196 37.2635 26.8684C37.0598 27.017 36.7743 26.9726 36.6254 26.7688L28.3587 15.4457C27.7238 14.5759 26.4993 14.385 25.6291 15.0203C25.2078 15.3278 24.9314 15.7812 24.8509 16.2966C24.7707 16.8113 24.8953 17.3266 25.2021 17.7477L25.2034 17.7495L24.4658 18.288L22.9409 16.1992C22.6333 15.7779 22.18 15.5015 21.6645 15.4213C21.1493 15.3406 20.6332 15.4658 20.2119 15.7736C19.7904 16.0812 19.5141 16.5345 19.4336 17.05C19.3528 17.5656 19.4779 18.0816 19.7856 18.5029L21.3106 20.5917L20.573 21.1301C20.2654 20.7087 19.812 20.4323 19.2966 20.3521C18.7811 20.2717 18.2652 20.3966 17.8438 20.7045C17.4223 21.012 17.1461 21.4653 17.0656 21.9808C16.9852 22.4962 17.1103 23.0121 17.418 23.4336L20.2943 27.3735L19.5567 27.9119L19.556 27.9109C19.2484 27.4901 18.7955 27.2142 18.2804 27.1338C17.7649 27.0531 17.2489 27.1785 16.8277 27.4862C16.406 27.794 16.1295 28.2474 16.049 28.7629C15.9687 29.2783 16.0937 29.7942 16.4014 30.2157L28.3462 46.5892C30.4113 49.4178 33.7236 51.0821 37.4336 51.1549C39.1456 51.1859 40.8687 50.8323 42.4192 50.1237C43.122 49.8024 43.7984 49.4059 44.4295 48.945C45.0601 48.4847 45.6438 47.9614 46.1643 47.3895L46.2188 47.3297C47.4374 45.9922 49.9734 43.2094 47.8952 35.6437C47.6392 34.7119 44.0292 25.5974 42.1562 20.9081C41.9716 20.4221 41.433 19.9978 40.9195 20.1277C40.2306 20.3032 39.6462 20.7456 39.2743 21.3737C38.8184 22.1434 38.7069 23.1141 38.9604 24.1085L41.2832 31.6416C41.3575 31.8827 41.2224 32.1383 40.9814 32.2124C40.7403 32.2873 40.4849 32.1515 40.4106 31.9108L38.0786 24.3462C37.7611 23.1117 37.9066 21.8906 38.4886 20.9081C38.9851 20.0698 39.7684 19.4784 40.6942 19.2425C41.7258 18.9806 42.6801 19.7145 43.0073 20.5765C43.2264 21.1246 48.4426 34.1881 48.776 35.4015C50.9875 43.4525 48.2227 46.4865 46.8941 47.9445L46.84 48.0039C46.2781 48.6213 45.6484 49.186 44.9684 49.6824C44.2878 50.1792 43.558 50.607 42.7993 50.9541C41.1974 51.686 39.4249 52.0701 37.6571 52.0701Z" fill="#8EC23C"/>
<path d="M40.8469 32.2326C40.7061 32.2326 40.5671 32.1677 40.4778 32.0452L36.6254 26.7686C36.4768 26.565 36.5213 26.2793 36.7249 26.1306C36.9286 25.9819 37.2141 26.0264 37.3631 26.2302L41.2154 31.5068C41.3641 31.7104 41.3195 31.996 41.1159 32.1448C41.0346 32.204 40.9403 32.2326 40.8469 32.2326Z" fill="#8EC23C"/>
<path d="M33.7834 30.7323C33.6426 30.7323 33.5037 30.6674 33.4143 30.5449L24.4658 18.2879C24.3171 18.0843 24.3617 17.7987 24.5652 17.6499C24.769 17.5012 25.0546 17.5456 25.2034 17.7495L34.152 30.0065C34.3006 30.2101 34.2561 30.4957 34.0525 30.6445C33.9711 30.7038 33.8769 30.7323 33.7834 30.7323Z" fill="#8EC23C"/>
<path d="M29.8908 33.5741C29.75 33.5741 29.6111 33.5092 29.5217 33.3867L20.5732 21.1297C20.4245 20.9261 20.4691 20.6405 20.6727 20.4917C20.8764 20.343 21.162 20.3874 21.3108 20.5913L30.2594 32.8483C30.408 33.0519 30.3635 33.3375 30.1599 33.4863C30.0785 33.5456 29.9843 33.5741 29.8908 33.5741Z" fill="#8EC23C"/>
<path d="M25.9978 36.4162C25.8571 36.4162 25.7181 36.3513 25.6287 36.2288L19.5566 27.9116C19.4079 27.7081 19.4525 27.4224 19.6561 27.2736C19.8598 27.125 20.1454 27.1695 20.2942 27.3732L26.3664 35.6904C26.515 35.894 26.4705 36.1796 26.2669 36.3284C26.1856 36.3877 26.0914 36.4162 25.9978 36.4162Z" fill="#8EC23C"/>
<path d="M46.608 31.3843C46.4819 31.3843 46.3562 31.3323 46.266 31.2303C46.0988 31.0416 46.1164 30.753 46.3051 30.5858C46.8484 30.1046 47.3509 29.566 47.7988 28.9852C48.2754 28.3667 48.6893 27.7008 49.029 27.0065L49.0647 26.9337C49.8607 25.3087 51.5168 21.9274 47.4052 15.2453C46.8989 14.4224 40.8836 6.68145 37.7737 2.70323C37.4605 2.28804 36.8239 2.03148 36.3681 2.29998C35.7558 2.66108 35.3185 3.24936 35.137 3.95624C34.9146 4.82286 35.0793 5.78601 35.6007 6.66978L39.9379 13.2525C40.0767 13.4632 40.0184 13.7464 39.8078 13.8851C39.5972 14.024 39.3141 13.9657 39.1752 13.755L34.8205 7.14469C34.1702 6.0482 33.9684 4.83524 34.2524 3.72905C34.4948 2.78543 35.0812 1.99861 35.9042 1.51316C36.8207 0.972787 37.9427 1.41102 38.498 2.14698C38.8616 2.61204 47.5237 13.6948 48.1831 14.7666C52.5581 21.8772 50.7526 25.5638 49.8848 27.3354L49.8494 27.4076C49.4827 28.1572 49.0361 28.8754 48.522 29.5425C48.0389 30.169 47.4968 30.75 46.9105 31.2692C46.8237 31.3463 46.7156 31.3843 46.608 31.3843Z" fill="#8EC23C"/>
<path d="M17.2321 21.0961C17.1348 21.0961 17.0367 21.0651 16.9536 21.001L15.0934 19.5662C14.4871 19.0989 14.0989 18.4232 14.0007 17.6639C13.9025 16.9048 14.1059 16.1524 14.5735 15.5457C15.02 14.9664 15.6565 14.5864 16.3745 14.4679L14.1727 12.7706C13.5662 12.3033 13.178 11.6276 13.0798 10.8683C12.9816 10.109 13.1849 9.35675 13.6524 8.75048C14.1125 8.15334 14.7639 7.78789 15.4548 7.67381L15.0667 7.37467C14.46 6.90707 14.0718 6.23124 13.9741 5.47168C13.8758 4.71267 14.0792 3.96043 14.5467 3.35416C15.5114 2.10227 17.3149 1.86889 18.5668 2.83373L18.9532 3.1316C18.885 2.40716 19.0906 1.6948 19.5371 1.11565C20.5021 -0.13624 22.3056 -0.370046 23.5576 0.594934L34.6613 9.15373C34.8611 9.30772 34.8982 9.59448 34.7442 9.79428C34.5904 9.99393 34.3036 10.031 34.1038 9.87717L22.9999 1.31839C22.1468 0.660696 20.9178 0.820168 20.2603 1.67331C19.9416 2.08639 19.8032 2.59895 19.8701 3.11642C19.9371 3.63376 20.2015 4.09418 20.6148 4.4127L20.0572 5.13602C20.057 5.13574 20.0565 5.13545 20.0561 5.13517L18.0088 3.55718C17.1558 2.89962 15.927 3.05867 15.2696 3.91181C14.9509 4.32489 14.8125 4.83745 14.8794 5.35493C14.9461 5.87268 15.2104 6.33298 15.6238 6.6515L17.6711 8.22949C17.6713 8.22977 17.6716 8.22991 17.6719 8.23019L17.1144 8.9535C16.2614 8.29622 15.0327 8.45514 14.3751 9.30814C14.0565 9.72122 13.9181 10.2338 13.9849 10.7513C14.0518 11.2687 14.3164 11.7289 14.7296 12.0474L18.5933 15.0255L18.0357 15.7488C17.6225 15.4302 17.11 15.292 16.5926 15.3588C16.0751 15.4258 15.6148 15.6901 15.2963 16.1035C14.9775 16.5168 14.8389 17.0297 14.9058 17.5469C14.9727 18.064 15.2373 18.5246 15.6505 18.8432L17.5107 20.2781C17.7104 20.4321 17.7475 20.7189 17.5934 20.9187C17.5041 21.0349 17.369 21.0961 17.2321 21.0961Z" fill="#8EC23C"/>
<path d="M39.5566 13.9606C39.4594 13.9606 39.3612 13.9296 39.2783 13.8657L34.1037 9.87716C33.9039 9.72317 33.8668 9.4364 34.0208 9.23661C34.1748 9.03709 34.4616 8.99986 34.6612 9.15371L39.8358 13.1422C40.0356 13.2962 40.0727 13.5829 39.9187 13.7827C39.8288 13.8994 39.6935 13.9606 39.5566 13.9606Z" fill="#8EC23C"/>
<path d="M32.3553 14.4957C32.2581 14.4957 32.1599 14.4647 32.077 14.4007L20.0573 5.13605C19.8575 4.98206 19.8204 4.6953 19.9744 4.4955C20.1283 4.29584 20.4152 4.25861 20.6148 4.41261L32.6345 13.6773C32.8343 13.8313 32.8714 14.118 32.7174 14.3178C32.6275 14.4346 32.4922 14.4957 32.3553 14.4957Z" fill="#8EC23C"/>
<path d="M25.307 15.1481C25.2098 15.1481 25.1116 15.1171 25.0287 15.0532L17.1149 8.95334C16.9151 8.79935 16.878 8.51259 17.032 8.31279C17.186 8.11327 17.4728 8.07603 17.6724 8.22988L25.5862 14.3297C25.786 14.4837 25.8231 14.7705 25.6691 14.9703C25.5792 15.0869 25.4439 15.1481 25.307 15.1481Z" fill="#8EC23C"/>
<path d="M19.2836 16.5905C19.1863 16.5905 19.0881 16.5594 19.0052 16.4955L18.0363 15.7488C17.8365 15.5948 17.7994 15.308 17.9534 15.1082C18.1073 14.9087 18.394 14.8714 18.5938 15.0253L19.5627 15.7721C19.7625 15.9261 19.7996 16.2128 19.6456 16.4126C19.5556 16.5294 19.4203 16.5905 19.2836 16.5905Z" fill="#8EC23C"/>
<path d="M38.738 21.8681C38.5531 21.8681 38.379 21.7548 38.3103 21.5715C37.2473 18.7334 37.5534 15.7807 39.1725 13.2573C39.3086 13.0448 39.5913 12.9833 39.8033 13.1196C40.0156 13.2557 40.0773 13.5381 39.941 13.7504C38.4813 16.0255 38.2059 18.6893 39.1654 21.2512C39.254 21.4874 39.1341 21.7506 38.8981 21.8391C38.8454 21.8588 38.7911 21.8681 38.738 21.8681Z" fill="#8EC23C"/>
<path d="M7.75388 19.0676H1.45664C1.20443 19.0676 1 18.8631 1 18.6109C1 18.3587 1.20443 18.1543 1.45664 18.1543H7.75388C8.00608 18.1543 8.21052 18.3587 8.21052 18.6109C8.21052 18.8631 8.00608 19.0676 7.75388 19.0676Z" fill="#8EC23C"/>
<path d="M4.39649 30.0375C4.2387 30.0375 4.08527 29.9556 4.00069 29.809C3.87465 29.5905 3.9494 29.3113 4.16774 29.1853L9.6214 26.0366C9.8396 25.9105 10.1191 25.9853 10.2451 26.2037C10.3711 26.422 10.2964 26.7014 10.078 26.8274L4.62438 29.9761C4.55244 30.0178 4.47391 30.0375 4.39649 30.0375Z" fill="#8EC23C"/>
<path d="M9.84939 11.2461C9.77183 11.2461 9.69343 11.2263 9.62149 11.1847L4.16783 8.036C3.94935 7.90997 3.87461 7.63065 4.00078 7.41231C4.12681 7.19369 4.40627 7.11894 4.62447 7.24526L10.0781 10.394C10.2966 10.52 10.3714 10.7993 10.2452 11.0176C10.1606 11.1642 10.0072 11.2461 9.84939 11.2461Z" fill="#8EC23C"/>
</svg>
