<?xml version="1.0" encoding="utf-8"?>
<!-- Generator: Adobe Illustrator 19.0.0, SVG Export Plug-In . SVG Version: 6.00 Build 0)  -->
<svg version="1.1" id="Layer_1" xmlns="http://www.w3.org/2000/svg" xmlns:xlink="http://www.w3.org/1999/xlink" x="0px" y="0px"
	 viewBox="-974 370 51 53" style="enable-background:new -974 370 51 53;" xml:space="preserve">
<style type="text/css">
	.st0{fill:#D24A43;}
</style>
<g>
	<g>
		<path class="st0" d="M-960.1,419.8c-7.3,0-13.2-5.9-13.2-13.2c0-7.3,5.9-13.2,13.2-13.2c7.3,0,13.2,5.9,13.2,13.2
			C-946.9,413.9-952.8,419.8-960.1,419.8z M-960.1,396.2c-5.7,0-10.4,4.7-10.4,10.4c0,5.7,4.7,10.4,10.4,10.4
			c5.7,0,10.4-4.7,10.4-10.4C-949.7,400.8-954.4,396.2-960.1,396.2z"/>
	</g>
	<path class="st0" d="M-958.1,406.6l3.1-3.1c0.5-0.5,0.5-1.4,0-2c-0.5-0.5-1.4-0.5-2,0l-3.1,3.1l-3.1-3.1c-0.5-0.5-1.4-0.5-2,0
		c-0.5,0.5-0.5,1.4,0,2l3.1,3.1l-3.1,3.1c-0.5,0.5-0.5,1.4,0,2c0.3,0.3,0.6,0.4,1,0.4c0.4,0,0.7-0.1,1-0.4l3.1-3.1l3.1,3.1
		c0.3,0.3,0.6,0.4,1,0.4c0.4,0,0.7-0.1,1-0.4c0.5-0.5,0.5-1.4,0-2L-958.1,406.6z"/>
</g>
<path class="st0" d="M-925.6,388.8c-0.4-0.3-0.9-0.5-1.4-0.5l-0.1,0c-2.1,0.1-3.6,1.4-4.4,3v-14.8c0-1.9-1.6-3.5-3.5-3.5
	c-1.1,0-2.1,0.5-2.7,1.3v-0.9c0-1.9-1.6-3.5-3.5-3.5c-1.9,0-3.5,1.6-3.5,3.5v0.9c-0.6-0.8-1.6-1.3-2.7-1.3c-1.9,0-3.5,1.6-3.5,3.5
	v5.3c-0.6-0.8-1.6-1.3-2.7-1.3c-1.9,0-3.5,1.6-3.5,3.5v7.1c0.7,0.1,1.4,0.3,2,0.5V384c0-0.8,0.7-1.5,1.5-1.5c0.8,0,1.5,0.7,1.5,1.5
	v8.9c1.6,0.9,3.1,2.1,4.3,3.5c2.2-0.4,4.5-0.8,6.7-0.8c2.2,0,4.7,0.2,6,0.5l0.3,0c0.7,0,1.3-0.5,1.4-1.2c0.1-0.4,0-0.8-0.2-1.1
	c-0.2-0.3-0.5-0.5-0.9-0.6c-0.2,0-0.4-0.1-0.7-0.2c-0.4-0.1-0.8-0.2-1.2-0.3v-16.3c0-0.8,0.7-1.5,1.5-1.5s1.5,0.7,1.5,1.5v23.6
	c-4.3,0.5-8.6,3.4-10.8,6.2c0,0.1,0,0.3,0,0.4c0,0.6,0,1.2-0.1,1.7c0.1,0.1,0.1,0.2,0.2,0.2c0.6,0.5,1.6,0.3,2.1-0.3
	c1.8-2.4,6.2-5.1,10.2-5.1c0.9,0,1.6-0.7,1.6-1.6v-6.9c0-2.1,1.2-4.3,3.3-4.4l0,0v16.2c0,7.6-6.6,14-14.4,14c-2.9,0-5.6-0.9-7.9-2.4
	c-0.5,0.5-1,0.9-1.6,1.3c2.7,2,5.9,3.1,9.5,3.1c8.9,0,16.4-7.3,16.4-16v-16.3C-925,389.6-925.2,389.1-925.6,388.8z M-946.1,392.8
	c-1,0.1-2.1,0.3-3.1,0.6v-16.9c0-0.8,0.7-1.5,1.5-1.5c0.8,0,1.5,0.7,1.5,1.5V392.8z M-939.8,392.5c-1,0-2.1,0-3.1,0v-19.1
	c0-0.8,0.7-1.5,1.5-1.5c0.8,0,1.5,0.7,1.5,1.5V392.5z"/>
</svg>
