<svg width="36" height="36" viewBox="0 0 36 36" fill="none" xmlns="http://www.w3.org/2000/svg">
<g opacity="0.9">
<path d="M18 36C8.07439 36 0 27.9251 0 18C0 8.07488 8.07488 0 18 0C27.9251 0 36 8.07488 36 18C36 27.9251 27.9256 36 18 36ZM18 0.994751C8.62299 0.994751 0.99475 8.62348 0.99475 18C0.99475 27.3765 8.62349 35.0052 18 35.0052C27.3765 35.0052 35.0052 27.3765 35.0052 18C35.0052 8.62348 27.3765 0.994751 18 0.994751Z" fill="#333333"/>
<path d="M9.96094 12.18C10.0604 14.7524 11.7943 17.2388 13.261 19.2467C14.5965 21.075 16.1622 22.7383 17.9234 24.1623C19.0415 25.066 20.2387 25.8822 21.513 26.5501C22.2869 26.9555 22.8061 27.2062 23.7069 26.9505C25.0886 26.5576 28.2678 24.9282 27.7341 23.1436C27.4636 22.2384 26.3614 21.3521 25.6641 20.7786C24.822 20.0858 23.3443 18.8657 22.3585 20.0047C21.7681 20.5737 21.1564 21.8773 20.2307 21.9673C19.2385 22.0638 18.3566 20.9139 17.7384 20.2847C16.7252 19.2537 15.8086 18.1291 14.9929 16.9359C14.2284 15.689 15.1839 15.1737 16.1105 14.4958C16.5347 14.1854 17.0739 13.8925 17.2808 13.3821C17.6663 12.4307 16.7601 11.2534 16.2383 10.5212C15.7474 9.83189 15.1769 9.19873 14.5487 8.63172C13.7266 7.88964 12.8199 8.47902 12.131 9.06941C11.1755 9.8866 10.3757 10.9853 9.96094 12.18Z" fill="#333333"/>
</g>
</svg>
