<svg id="Layer_1" enable-background="new 0 0 512 512" height="512" viewBox="0 0 512 512" width="512" xmlns="http://www.w3.org/2000/svg"><path d="m188.438 315.279c-18.922 0-34.316 15.395-34.316 34.317s15.395 34.316 34.316 34.316 34.316-15.395 34.316-34.316c0-18.922-15.395-34.317-34.316-34.317zm0 52.634c-10.1 0-18.316-8.217-18.316-18.316 0-10.101 8.217-18.317 18.316-18.317s18.316 8.217 18.316 18.317c0 10.099-8.217 18.316-18.316 18.316zm-56.691-18.315c0 4.418-3.582 8-8 8h-31.014c-4.418 0-8-3.582-8-8s3.582-8 8-8h31.013c4.419 0 8.001 3.582 8.001 8zm160.394 0c0 4.418-3.582 8-8 8h-31.013c-4.418 0-8-3.582-8-8s3.582-8 8-8h31.013c4.418 0 8 3.582 8 8zm218.471 14.151c-2.446-5.286-7.583-8.569-13.407-8.569h-35.428v-168.868c0-11.88-9.665-21.545-21.545-21.545h-72.539c-11.88 0-21.545 9.665-21.545 21.545v8.055h-19.323c4.825-13.755 7.459-28.531 7.459-43.913 0-73.336-59.664-133-133-133s-133 59.664-133 133c0 15.382 2.634 30.158 7.459 43.913h-8.637c-4.418 0-8 3.582-8 8v22.255h-21.553c-4.418 0-8 3.582-8 8v22.255h-21.553c-4.418 0-8 3.582-8 8v173.438c0 4.418 3.582 8 8 8h346.478l38.223 45.019c2.854 3.361 6.853 5.212 11.261 5.212s8.407-1.851 11.261-5.212l93.244-109.821c3.768-4.44 4.59-10.481 2.145-15.764zm-164.465-108.872h-62.584c5.5-4.343 10.645-9.113 15.395-14.255h47.189zm0-44.51v14.255h-34.515c3.074-4.559 5.87-9.32 8.37-14.255zm-144.863-176.912c64.514 0 117 52.486 117 117s-52.486 117-117 117-117-52.486-117-117 52.486-117 117-117zm-126.179 176.912h7.46c2.501 4.935 5.296 9.696 8.37 14.255h-15.83zm-29.552 30.255h58.056c4.75 5.142 9.896 9.912 15.395 14.255h-73.451zm-29.553 187.693v-157.438h128.769c.005-.013.016-.022.022-.035 17.157 8.083 36.304 12.613 56.493 12.613 20.191 0 39.341-4.531 56.499-12.616.003.014.012.024.015.038h88.349v84.303h-7.385v-32.224c0-4.418-3.582-8-8-8-6.932 0-12.571-5.858-12.571-13.059 0-4.418-3.582-8-8-8h-243.507c-4.418 0-8 3.582-8 8 0 7.2-5.639 13.059-12.571 13.059-4.418 0-8 3.582-8 8v53.282c0 4.418 3.582 8 8 8 6.932 0 12.571 5.858 12.571 13.059 0 4.418 3.582 8 8 8h243.507c3.207 0 5.964-1.891 7.24-4.614l23.462 27.633h-324.893zm281.313-64.566c-2.445 5.284-1.624 11.325 2.146 15.765l5.168 6.087c-.523 1.204-.99 2.431-1.345 3.696h-229.699c-2.694-9.558-10.092-17.113-19.47-19.899v-39.601c9.378-2.786 16.775-10.342 19.47-19.899h229.709c2.694 9.558 10.092 17.113 19.47 19.899v25.383h-12.043c-5.823 0-10.961 3.283-13.406 8.569zm106.649 114.127-90.59-106.696h40.776c4.418 0 8-3.582 8-8v-176.868c0-3.058 2.488-5.545 5.545-5.545h72.539c3.058 0 5.545 2.487 5.545 5.545v176.868c0 4.418 3.582 8 8 8h40.776zm-163.123-311.699c-8.45.003-16.394 3.296-22.367 9.273s-9.26 13.923-9.257 22.374 3.296 16.394 9.273 22.367c5.974 5.97 13.915 9.258 22.361 9.257h.012c8.451-.003 16.394-3.296 22.367-9.273s9.261-13.923 9.258-22.374-3.296-16.395-9.273-22.367c-5.975-5.971-13.915-9.258-22.362-9.258-.003.001-.008.001-.012.001zm15.648 31.631c.001 4.177-1.623 8.104-4.575 11.058s-6.878 4.582-11.056 4.583c-.002 0-.004 0-.006 0-4.175 0-8.1-1.625-11.052-4.575-2.954-2.952-4.582-6.878-4.583-11.055s1.623-8.104 4.575-11.058 6.878-4.582 11.055-4.583h.006c4.175 0 8.1 1.625 11.053 4.575 2.954 2.951 4.581 6.877 4.583 11.055zm-94.771-63.075h.012c8.45-.003 16.394-3.296 22.367-9.273s9.261-13.923 9.258-22.374c-.006-17.441-14.197-31.625-31.636-31.625-.003 0-.008 0-.011 0-17.444.006-31.631 14.204-31.625 31.647.006 17.441 14.195 31.626 31.635 31.625zm-.005-47.272h.005c8.619 0 15.633 7.011 15.637 15.631.001 4.177-1.624 8.104-4.576 11.058s-6.878 4.582-11.055 4.583c-.002 0-.004 0-.006 0-8.619 0-15.632-7.011-15.636-15.63-.002-8.622 7.01-15.639 15.631-15.642zm-10.498 119.581 88.583-123.37c2.578-3.588 7.576-4.408 11.165-1.833 3.589 2.577 4.409 7.576 1.833 11.165l-88.583 123.37c-1.563 2.176-4.016 3.334-6.505 3.334-1.616 0-3.247-.488-4.659-1.502-3.59-2.577-4.411-7.576-1.834-11.164z"/></svg>