<svg width="22" height="26" viewBox="0 0 22 26" fill="none" xmlns="http://www.w3.org/2000/svg">
<path d="M17.471 6.20564C17.471 7.89485 16.8334 9.35702 15.5755 10.5522C14.3177 11.7472 12.7784 12.353 11.0003 12.353H10.9972C9.22142 12.3524 7.68316 11.7467 6.4253 10.5522C5.16722 9.35702 4.52979 7.89485 4.52979 6.20564C4.52979 4.517 5.16722 3.05464 6.4253 1.85963C7.68255 0.665008 9.2208 0.0594221 10.9972 0.0588379H11.0003C12.7778 0.0588379 14.317 0.664619 15.5755 1.85963C16.8334 3.05464 17.471 4.517 17.471 6.20564Z" fill="#5DDBFE"/>
<path d="M22.0004 21.4207C22.0004 22.7932 21.5624 23.9044 20.6997 24.7228C19.8471 25.5316 18.7195 25.9413 17.3485 25.9413H4.65154C3.2805 25.9413 2.15288 25.5316 1.30088 24.7228C0.437611 23.9038 0.000244141 22.7928 0.000244141 21.4207C0.000244141 20.8929 0.0177469 20.3707 0.0527523 19.8685C0.0883613 19.3551 0.160384 18.7964 0.266607 18.207C0.373636 17.6128 0.511243 17.0511 0.67601 16.5377C0.847014 16.0063 1.07837 15.4821 1.36465 14.9799C1.662 14.4587 2.01125 14.0047 2.40274 13.6309C2.81315 13.2396 3.3149 12.9254 3.8949 12.6964C4.47289 12.4685 5.11365 12.353 5.79928 12.353C6.06826 12.353 6.32879 12.4627 6.83093 12.7888C7.14518 12.9932 7.5073 13.2258 7.90705 13.4805C8.25227 13.6999 8.71982 13.9056 9.29781 14.0915C9.80579 14.2554 10.3214 14.3468 10.8308 14.3627C10.8869 14.3647 10.9431 14.3657 10.9992 14.3657C11.5649 14.3657 12.1371 14.2732 12.7012 14.0915C13.2792 13.9056 13.7473 13.6999 14.0923 13.4805C14.4963 13.2232 14.8584 12.9908 15.1681 12.7894C15.6706 12.4627 15.9307 12.353 16.2003 12.353C16.8853 12.353 17.5261 12.4685 18.1045 12.6964C18.6845 12.9254 19.1862 13.2402 19.5963 13.6309C19.9883 14.0047 20.3376 14.4587 20.6347 14.9799C20.9212 15.4825 21.153 16.0063 21.3234 16.5371C21.4884 17.0511 21.6264 17.6128 21.7334 18.2074C21.839 18.7974 21.9112 19.3561 21.9466 19.8681C21.9823 20.3687 21.9998 20.8909 22.0004 21.4207Z" fill="#A4DF48"/>
<path d="M10.9972 12.353H11.0002V0.0588379H10.9972C9.22059 0.0588379 7.68207 0.664619 6.4242 1.85963C5.16695 3.05464 4.52962 4.517 4.52962 6.20564C4.52962 7.89485 5.16695 9.35702 6.4242 10.5522C7.68145 11.7472 9.21998 12.353 10.9972 12.353Z" fill="#48CEF3"/>
<path d="M9.82285e-05 21.4207C9.82285e-05 22.7932 0.456795 23.9044 1.35634 24.7228C2.2454 25.5316 3.42123 25.9413 4.8509 25.9413H11.6472V14.3627C11.5887 14.3647 11.5302 14.3657 11.4716 14.3657C10.8817 14.3657 10.2851 14.2732 9.69687 14.0915C9.09417 13.9056 8.606 13.6999 8.24622 13.4805C7.82498 13.2232 7.44737 12.9908 7.12452 12.7894C6.60048 12.4627 6.32923 12.353 6.04812 12.353C5.33382 12.353 4.66566 12.4685 4.06253 12.6964C3.45773 12.9254 2.93453 13.2402 2.507 13.6309C2.09813 14.0047 1.73395 14.4587 1.4241 14.9799C1.12537 15.4825 0.883702 16.0063 0.706017 16.5371C0.533995 17.0511 0.390084 17.6128 0.27848 18.2074C0.168344 18.7974 0.0930319 19.3561 0.0561104 19.8681C0.0189791 20.3687 0.000727654 20.8909 9.82285e-05 21.4207Z" fill="#8EC23C"/>
</svg>
