<svg width="13" height="15" viewBox="0 0 13 15" fill="none" xmlns="http://www.w3.org/2000/svg">
<path d="M11.6107 6.36364C11.9084 7.42424 11.1476 8.30303 9.89059 8.30303C8.89822 8.30303 8.07125 7.54545 8.07125 6.63636C8.07125 5.90909 8.60051 5.27273 9.32825 5.06061C8.56743 4.51515 7.0458 2.93939 6.45038 0C5.85496 2.93939 4.33333 4.51515 3.57252 5.06061C4.30025 5.27273 4.82952 5.90909 4.82952 6.63636C4.82952 7.54545 4.00254 8.30303 3.01018 8.30303C1.75318 8.30303 0.992366 7.42424 1.29008 6.36364L0 6.21212L2.01781 12H10.9822L13 6.21212L11.6107 6.36364ZM6.51654 10.6667L5.39186 8.33333L6.51654 6L7.64122 8.33333L6.51654 10.6667Z" fill="url(#paint0_linear_1544_6)"/>
<path d="M2 13V15H11V13H2ZM10.482 14C10.482 14.2069 10.3201 14.3793 10.1259 14.3793C9.93165 14.3793 9.76978 14.2069 9.76978 14C9.76978 13.7931 9.93165 13.6207 10.1259 13.6207C10.3201 13.5862 10.482 13.7586 10.482 14ZM9.02518 14C9.02518 14.2069 8.86331 14.3793 8.66906 14.3793C8.47482 14.3793 8.31295 14.2069 8.31295 14C8.31295 13.7931 8.47482 13.6207 8.66906 13.6207C8.86331 13.5862 9.02518 13.7586 9.02518 14ZM7.60072 14C7.60072 14.2069 7.43885 14.3793 7.2446 14.3793C7.05036 14.3793 6.88849 14.2069 6.88849 14C6.88849 13.7931 7.05036 13.6207 7.2446 13.6207C7.43885 13.5862 7.60072 13.7586 7.60072 14ZM6.17626 14C6.17626 14.2069 6.01439 14.3793 5.82014 14.3793C5.6259 14.3793 5.46403 14.2069 5.46403 14C5.46403 13.7931 5.6259 13.6207 5.82014 13.6207C6.01439 13.5862 6.17626 13.7586 6.17626 14ZM4.71942 14C4.71942 14.2069 4.55755 14.3793 4.36331 14.3793C4.16906 14.3793 4.00719 14.2069 4.00719 14C4.00719 13.7931 4.16906 13.6207 4.36331 13.6207C4.55755 13.5862 4.71942 13.7586 4.71942 14ZM3.29496 14C3.29496 14.2069 3.13309 14.3793 2.93885 14.3793C2.7446 14.3793 2.58273 14.2069 2.58273 14C2.58273 13.7931 2.7446 13.6207 2.93885 13.6207C3.13309 13.5862 3.29496 13.7586 3.29496 14Z" fill="url(#paint1_linear_1544_6)"/>
<defs>
<linearGradient id="paint0_linear_1544_6" x1="0" y1="6.00373" x2="13.0014" y2="6.00373" gradientUnits="userSpaceOnUse">
<stop stop-color="#AB3C00"/>
<stop offset="0.4677" stop-color="#FFC700"/>
<stop offset="0.5914" stop-color="#FFC700"/>
<stop offset="1" stop-color="#AB3C00"/>
</linearGradient>
<linearGradient id="paint1_linear_1544_6" x1="2.01188" y1="13.9879" x2="11.0219" y2="13.9879" gradientUnits="userSpaceOnUse">
<stop stop-color="#AB3C00"/>
<stop offset="0.4677" stop-color="#FFC700"/>
<stop offset="0.5914" stop-color="#FFC700"/>
<stop offset="1" stop-color="#AB3C00"/>
</linearGradient>
</defs>
</svg>
